<svg width="134" height="149" viewBox="0 0 134 149" fill="none" xmlns="http://www.w3.org/2000/svg">
<g clip-path="url(#clip0_956_7456)">
<path d="M73.0887 97.6516C71.3866 96.6581 68.0435 94.6889 64.18 92.4103C64.0919 92.3584 64.0188 92.2844 63.9679 92.1957C63.917 92.1069 63.8901 92.0064 63.8898 91.9041V85.8467L36.0889 101.933V107.484C36.0892 107.587 36.1165 107.688 36.168 107.777C36.2194 107.866 36.2933 107.94 36.3823 107.992C40.9385 110.642 44.8031 112.89 46.3604 113.791C46.4492 113.844 46.5506 113.871 46.6537 113.87C46.7569 113.87 46.8579 113.841 46.9461 113.788C50.1947 111.841 65.2266 103.203 73.0882 98.6614C73.1767 98.6102 73.2503 98.5367 73.3014 98.4481C73.3526 98.3595 73.3796 98.259 73.3796 98.1566C73.3797 98.0543 73.3528 97.9538 73.3017 97.8651C73.2507 97.7765 73.1772 97.7028 73.0887 97.6516Z" fill="white"/>
<path d="M90.2777 2.12037C90.2777 17.6073 90.2777 48.0821 90.2815 69.9569C90.2822 70.1456 90.233 70.331 90.1388 70.4944C90.0447 70.6578 89.9089 70.7934 89.7455 70.8872C67.2761 83.8841 25.2619 108.2 3.52904 120.773C3.28413 120.915 3.00611 120.99 2.723 120.991C2.43989 120.991 2.1617 120.917 1.91648 120.775C1.67126 120.633 1.46768 120.43 1.32626 120.184C1.18484 119.939 1.11058 119.66 1.11098 119.377C1.11098 101.658 1.10773 72.5205 1.10449 52.7728C1.1045 52.4902 1.179 52.2126 1.32045 51.9679C1.4619 51.7233 1.66531 51.5204 1.91015 51.3796C21.7274 39.9138 78.3538 7.14965 88.6588 1.18958C88.8226 1.09543 89.0082 1.04589 89.1971 1.0459C89.386 1.04591 89.5715 1.09547 89.7353 1.18963C89.8991 1.2838 90.0354 1.41929 90.1305 1.5826C90.2257 1.7459 90.2764 1.93132 90.2777 2.12037Z" fill="white"/>
<path d="M132.148 139.04L131.607 138.748C129.898 139.572 124.509 139.673 123.489 138.935C121.54 141.178 118.734 141.502 116.206 141.162C115.86 141.136 115.519 141.068 115.19 140.959C114.287 140.653 113.454 140.167 112.743 139.531C112.736 139.524 112.726 139.52 112.719 139.512L112.409 139.541C111.992 139.291 110.722 139.549 110.201 140.333C109.68 141.117 109.699 142.628 109.993 143.524C110.634 145.471 112.509 146.462 114.438 147.158C116.428 147.91 118.585 148.102 120.676 147.714C121.116 147.604 121.528 147.403 121.887 147.125C122.245 146.846 122.541 146.496 122.756 146.096C123.008 145.623 123.169 145.106 123.231 144.573L126.549 145.337C127.226 145.512 127.921 145.601 128.62 145.603C128.951 145.601 129.281 145.582 129.61 145.546C130.096 145.519 130.569 145.385 130.997 145.154C131.424 144.922 131.795 144.598 132.082 144.205C132.411 143.577 132.578 142.877 132.569 142.169C132.587 141.457 132.125 139.75 132.148 139.04Z" fill="white"/>
<path d="M122.91 65.4097C122.819 65.8411 122.65 66.2521 122.41 66.6218C121.909 67.3598 121.228 67.9576 120.431 68.3584C121.134 69.6296 122.092 70.7416 123.244 71.6244C124.397 72.5073 125.719 73.1419 127.129 73.4883C126.621 73.9496 126.203 74.5007 125.896 75.114C124.689 75.0355 123.478 75.1291 122.298 75.392C119.322 75.9713 115.219 77.3234 114.146 78.0211C113.467 78.4813 112.864 79.0456 112.36 79.6933L113.047 77.4759C113.312 76.6638 113.317 75.7894 113.063 74.974C112.729 74.175 112.132 73.5147 111.371 73.1032L111.655 71.5683C111.649 71.5634 111.644 71.5575 111.638 71.5521C110.279 70.127 109.37 68.3325 109.024 66.393C108.695 64.6762 108.724 62.9101 109.107 61.2046C109.49 59.4991 110.219 57.8908 111.25 56.4799C111.723 55.8405 112.256 55.2484 112.843 54.7119C114.585 57.7583 117.039 60.3361 119.995 62.2242C120.514 62.0971 121.06 62.1451 121.549 62.3609C122.038 62.5767 122.441 62.9481 122.697 63.4173C122.992 64.0381 123.067 64.7406 122.91 65.4097Z" fill="white"/>
<path d="M110.238 72.6563C109.639 72.5071 109.013 72.4979 108.41 72.6292C107.541 72.8208 106.771 73.3234 106.246 74.0426C105.721 74.7618 105.477 75.6482 105.558 76.5352L105.632 77.6125C105.793 77.6206 105.952 77.6572 106.1 77.7207C107.225 78.2524 110.406 80.0242 111.239 80.5661L111.563 80.7689C112.169 79.8228 112.922 78.9798 113.794 78.2718L113.046 77.4763C113.311 76.6642 113.316 75.7898 113.062 74.9743C112.807 74.3924 112.419 73.879 111.928 73.4761C111.437 73.0733 110.858 72.7923 110.238 72.6563Z" fill="white"/>
<path d="M127.361 108.216C127.971 108.121 128.597 108.021 129.239 107.916C130.109 107.773 131.577 107.388 132.049 106.821C132.649 106.099 132.619 105.337 132.651 104.263C132.9 96.0041 133.379 89.8461 131.938 82.8C131.487 80.5945 130.857 78.3013 129.28 76.6966C127.704 75.0919 125.697 74.7301 122.297 75.3921C119.321 75.9714 115.219 77.3235 114.146 78.0211C113.113 78.7609 112.234 79.6957 111.56 80.7729L111.239 80.5642C110.406 80.0233 107.225 78.2505 106.1 77.7188C105.859 77.6217 105.599 77.5858 105.341 77.6144C105.01 77.6626 104.845 78.0352 104.746 78.3554C103.961 81.1274 103.372 83.9515 102.985 86.8066C102.485 89.6962 102.432 92.6455 102.826 95.5514C102.918 96.1057 103.119 96.6362 103.417 97.1121C103.715 97.5879 104.105 97.9996 104.564 98.3232C105.368 98.9955 106.57 98.9246 107.59 98.6921C108.647 98.4445 109.65 98.0083 110.551 97.4043L110.515 100.971C110.511 102.651 110.584 104.577 110.584 104.577C110.548 105.484 111.023 107.011 111.765 107.522C112.425 107.978 113.306 108.183 115.288 108.543C119.338 109.28 122.972 108.901 127.361 108.216Z" fill="white"/>
<path d="M119.939 108.944C118.38 108.955 116.823 108.821 115.289 108.543C113.059 108.138 112.223 107.928 111.526 107.338C111.486 112.21 111.871 131.342 112.248 138.296L112.364 138.873C112.53 139.706 113.823 140.415 115.187 140.958C115.516 141.067 115.857 141.135 116.203 141.161C118.728 141.501 121.537 141.176 123.485 138.934C124.734 139.837 132.519 139.485 132.111 138.09C131.86 131.18 131.638 117.218 131.841 111.021C131.841 111.021 131.787 108.895 131.739 107.089C130.963 107.512 130.117 107.792 129.241 107.915C126.172 108.501 123.062 108.845 119.939 108.944Z" fill="white"/>
<path d="M4.79921 120.038L1.11133 122.172C1.11133 118.273 1.11133 113.666 1.11133 108.627C22.159 96.4496 67.0982 70.4432 90.2791 57.0342C90.2791 61.7682 90.2791 66.3404 90.2791 70.5768C68.3745 83.2503 27.0443 107.169 4.79921 120.038Z" fill="#2E6669"/>
<path d="M61.3948 62.4674L70.5035 57.1963C70.5035 50.6597 70.5003 40.9414 70.4986 24.9941L61.3916 30.2657C61.3916 30.9299 61.3938 52.1941 61.3948 62.4674Z" fill="#2E6669"/>
<path d="M42.9193 73.2233L52.0285 67.9523C52.0285 61.4157 52.0247 58.5097 52.0236 42.5625L42.916 47.8341C42.916 48.5009 42.9182 62.9538 42.9193 73.2233Z" fill="#2E6669"/>
<path d="M24.5521 83.8748L33.6607 78.6038C33.6607 72.0672 33.6575 78.5351 33.6559 62.5879L24.5488 67.8589C24.5488 68.5242 24.551 73.6043 24.5521 83.8748Z" fill="#2E6669"/>
<path d="M118.596 51.7585C116.448 52.2109 114.461 53.2309 112.84 54.7125C114.585 57.7566 117.04 60.3329 119.996 62.2216C120.514 62.0944 121.061 62.1425 121.549 62.3583C122.038 62.5741 122.442 62.9454 122.697 63.4147C122.925 63.9294 123.019 64.4938 122.969 65.0546C122.919 65.6155 122.727 66.1544 122.412 66.6208C121.911 67.3588 121.23 67.9566 120.433 68.3574C121.136 69.6284 122.093 70.7403 123.245 71.6231C124.398 72.5059 125.72 73.1406 127.129 73.4873C127.181 73.4332 127.234 73.3791 127.289 73.3164C128.79 71.6636 129.871 70.5121 130.79 68.8885C132.096 66.6151 132.618 63.9746 132.276 61.3746C131.528 56.1674 127.104 51.8098 121.854 51.5124C120.762 51.4499 119.666 51.5326 118.596 51.7585Z" fill="#2E6669"/>
<path d="M89.1972 2.12087C89.1972 14.1996 89.1972 26.2768 89.1972 38.3523C89.1972 45.3577 89.1972 52.3632 89.1972 59.3689C89.1972 62.5739 89.1972 65.7789 89.1972 68.9839C89.2433 69.3038 89.2449 69.6285 89.202 69.9488C89.1026 70.0959 88.7227 70.2279 88.566 70.3182L87.0136 71.2165L83.7472 73.1062C73.3293 79.1333 62.9119 85.161 52.4951 91.1892L19.4365 110.32L5.61388 118.318L4.08902 119.202C3.71888 119.418 3.16394 119.905 2.73814 119.913C2.30316 119.919 2.2086 119.569 2.19293 119.214C2.16105 118.486 2.19293 117.749 2.19293 117.02V108.096C2.19293 94.4306 2.19149 80.7654 2.18861 67.1002C2.18861 63.8357 2.18861 60.5711 2.18861 57.3066V55.0037C2.13079 54.261 2.13079 53.5149 2.18861 52.7722C2.29668 52.1275 3.55731 51.6759 4.08631 51.3698C7.4498 49.4228 10.8131 47.477 14.1762 45.5325C23.0149 40.4169 31.8547 35.302 40.6955 30.1878L68.0182 14.3785L87.0963 3.33938L88.4061 2.5822L88.9416 2.27176C89.0337 2.22767 89.1222 2.1765 89.2064 2.1187C89.2161 2.11113 89.1982 2.10626 89.1993 2.1187C89.3074 3.49785 91.4688 3.5092 91.3607 2.1187C91.3499 1.72984 91.2362 1.35082 91.0313 1.02028C90.8263 0.689736 90.5375 0.419505 90.1942 0.237141C89.8509 0.0547768 89.4654 -0.0331971 89.0771 -0.0178094C88.6887 -0.00242179 88.3114 0.115777 87.9835 0.324733C87.5772 0.549182 87.1795 0.789856 86.7775 1.02242L83.4576 2.94348L73.8934 8.47737L47.418 23.7972L19.1761 40.1398L7.39649 46.9544L2.63764 49.7084C1.64934 50.28 0.558918 50.7652 0.162302 51.9318C-0.00592208 52.6934 -0.051887 53.4769 0.0261345 54.253V56.7258C0.0261345 70.6914 0.0275754 84.6571 0.0304573 98.6231C0.0304573 104.984 0.0304573 111.345 0.0304573 117.704C0.0304573 119.169 -0.140833 120.787 1.30514 121.669C2.75111 122.55 4.03552 121.73 5.30372 120.996L11.8879 117.187L44.1429 98.5236C55.3422 92.0425 66.5416 85.5621 77.7412 79.0825L84.842 74.9721L88.2397 73.0061C89.3155 72.3836 91.0149 71.7817 91.3072 70.4323C91.4087 69.625 91.4268 68.8095 91.3613 67.9985V65.3933C91.3613 63.7379 91.3613 62.0821 91.3613 60.4257C91.3613 56.8972 91.3613 53.3688 91.3613 49.8403C91.3613 36.3478 91.3613 22.8556 91.3613 9.3638V2.12087C91.3586 0.728741 89.1972 0.726578 89.1972 2.12087Z" fill="#2E6669"/>
<path d="M1.65773 109.56L16.3552 101.056C22.3949 97.5616 28.4342 94.067 34.4731 90.5721C41.0048 86.7931 47.5362 83.0139 54.0672 79.2345L72.9254 68.323L89.1034 58.9638L90.8282 57.9659C92.0321 57.2699 90.945 55.3996 89.7373 56.0979L74.0353 65.184L55.4003 75.9667L35.7759 87.3244L17.3754 97.967L2.1408 106.783L0.566768 107.694C-0.637129 108.39 0.450053 110.26 1.65773 109.562V109.56Z" fill="#2E6669"/>
<path d="M61.9397 63.3984L66.7893 60.592L69.0361 59.294L70.2681 58.5812C70.7112 58.3248 71.2802 58.1128 71.4909 57.612C71.6107 57.1423 71.6422 56.6545 71.5838 56.1733V54.8532C71.5838 53.8897 71.5838 52.9267 71.5838 51.964C71.5838 46.9327 71.5838 41.9015 71.5838 36.8702V24.9933C71.5808 24.8042 71.5287 24.6191 71.4327 24.4561C71.3367 24.2932 71.2 24.158 71.0361 24.0638C70.8722 23.9697 70.6866 23.9198 70.4976 23.919C70.3086 23.9182 70.1226 23.9665 69.9579 24.0593L63.7299 27.664C62.7789 28.2146 61.7598 28.7132 60.8504 29.3309C60.6709 29.4559 60.5271 29.6256 60.4333 29.8233C60.3395 30.021 60.2988 30.2398 60.3154 30.458C60.2803 31.8977 60.3154 33.3423 60.3154 34.7847C60.3154 40.7462 60.3154 46.7083 60.3154 52.6709C60.3154 55.9365 60.3154 59.2024 60.3154 62.4687C60.3154 63.8609 62.4768 63.863 62.4768 62.4687L62.4736 33.3715V30.2628L61.9381 31.1962L71.0451 25.9252L69.4192 24.9912C69.4192 34.1195 69.4206 43.248 69.4235 52.3766C69.4235 53.9819 69.4235 55.5874 69.4235 57.1934L69.959 56.2593L60.8498 61.5304C59.6448 62.227 60.7347 64.0972 61.9397 63.3984Z" fill="#2E6669"/>
<path d="M43.465 74.1574L48.3146 71.351L50.5608 70.053L51.7934 69.3402C52.2365 69.0838 52.8055 68.8718 53.0162 68.371C53.3015 67.6933 53.1091 66.5905 53.1086 65.8534C53.1086 65.1322 53.1086 64.4111 53.1086 63.69C53.1086 60.181 53.1077 56.6721 53.1059 53.1631C53.1059 49.6296 53.1059 46.0961 53.1059 42.5626C53.1027 42.3734 53.0506 42.1883 52.9545 42.0254C52.8584 41.8625 52.7217 41.7273 52.5577 41.6332C52.3938 41.539 52.2082 41.4891 52.0192 41.4883C51.8302 41.4875 51.6442 41.5358 51.4794 41.6286C48.5189 43.3425 45.4816 44.9661 42.5794 46.7801C41.8818 47.2165 41.8369 47.6865 41.8369 48.3939V50.0933V64.0237C41.8369 67.0903 41.8369 70.1568 41.8369 73.2234C41.8369 74.6155 43.9983 74.6177 43.9983 73.2234C43.9983 65.5132 43.9983 57.8031 43.9983 50.0933C43.9983 49.3404 43.9983 48.5874 43.9983 47.8342L43.4634 48.7677L52.5704 43.4966L50.9429 42.5642C50.9429 49.7033 50.9441 56.8424 50.9466 63.9815C50.9466 65.3051 50.9466 66.6286 50.9466 67.9518L51.4821 67.0178C48.4454 68.7745 45.409 70.5315 42.3729 72.2888C41.1701 72.986 42.2557 74.8562 43.465 74.1574Z" fill="#2E6669"/>
<path d="M25.0971 84.809L29.9467 82.0026L32.1935 80.7046L33.4255 79.9912C33.8686 79.7348 34.4376 79.5228 34.6483 79.022C34.8996 78.4271 34.7412 77.4898 34.7412 76.8365C34.7412 76.4496 34.7412 76.0627 34.7412 75.6758C34.7412 74.261 34.7403 72.8463 34.7385 71.4319C34.7385 68.4843 34.7385 65.5369 34.7385 62.5897C34.7359 62.4001 34.6839 62.2146 34.5878 62.0512C34.4917 61.8879 34.3548 61.7524 34.1905 61.6582C34.0262 61.5639 33.8402 61.5141 33.6508 61.5137C33.4614 61.5132 33.2752 61.5621 33.1105 61.6556L26.1194 65.7017L24.5227 66.626C23.9823 66.9386 23.5079 67.2009 23.4679 67.8894C23.4566 68.077 23.4679 68.2679 23.4679 68.4562C23.4679 70.9249 23.4679 73.3937 23.4679 75.8624C23.4679 78.5342 23.4679 81.2056 23.4679 83.8766C23.4679 85.2687 25.6293 85.2714 25.6293 83.8766C25.6293 78.5381 25.6282 73.1995 25.6261 67.8607L25.0938 68.7947L34.2041 63.5221L32.5777 62.588C32.5777 66.9916 32.5791 71.3949 32.582 75.7981C32.582 76.7337 32.582 77.669 32.582 78.604L33.1175 77.6699C30.0814 79.4269 27.045 81.1839 24.0083 82.941C22.8028 83.6381 23.8894 85.5067 25.0971 84.809Z" fill="#2E6669"/>
<path d="M35.0085 102.078V106.639C35.0085 107.464 34.9582 108.279 35.7152 108.831C36.4811 109.339 37.2725 109.808 38.0863 110.234L40.3666 111.561C41.6241 112.292 42.8817 113.023 44.1393 113.754C45.1476 114.339 46.292 115.325 47.4894 114.722C48.8025 114.061 50.0528 113.214 51.3259 112.476C55.8079 109.872 60.2966 107.278 64.7919 104.695C67.0646 103.385 69.3374 102.075 71.6101 100.764C72.5789 100.204 74.3545 99.589 74.442 98.3029C74.5377 96.8994 73.0052 96.3499 71.9932 95.7561C70.4618 94.8568 68.9308 93.9554 67.4002 93.0519L66.0904 92.2801L65.4133 91.8809L65.0702 91.6781C64.9078 91.539 64.8741 91.6136 64.9692 91.902C64.9043 91.8388 64.9692 91.3547 64.9692 91.2774V86.2324C64.9692 84.8403 62.8078 84.8381 62.8078 86.2324C62.8078 88.1091 62.7089 90.0118 62.8078 91.8853C62.871 93.0789 63.8658 93.4797 64.7752 94.0156L67.9481 95.8853C68.8311 96.4049 69.7136 96.9245 70.5958 97.444L71.7306 98.1109C71.89 98.2039 72.0483 98.3153 72.2169 98.3943C72.7361 98.642 72.0958 98.2612 72.2796 98.0157L72.6675 97.6279C71.5927 98.3547 70.4714 99.0102 69.3109 99.5901C68.0324 100.328 66.7536 101.065 65.4744 101.802C62.8155 103.334 60.1568 104.867 57.4983 106.399C55.1543 107.752 52.8128 109.107 50.4738 110.464C49.5995 110.972 48.7261 111.481 47.8536 111.991C47.5453 112.171 47.2369 112.353 46.9285 112.535C46.8202 112.589 46.7158 112.651 46.6162 112.721C46.5589 112.75 46.5037 112.782 46.4509 112.819C46.8396 112.872 46.9354 112.852 46.7383 112.758L46.5562 112.652C45.2338 111.886 43.9125 111.118 42.5922 110.35L39.8203 108.738C38.7782 108.21 37.7709 107.616 36.8046 106.96L37.192 107.348C37.2277 107.394 37.1796 107.551 37.1682 107.277C37.1612 107.097 37.1682 106.915 37.1682 106.736V102.076C37.1682 100.684 35.0068 100.681 35.0068 102.076L35.0085 102.078Z" fill="#2E6669"/>
<path d="M10.0827 66.7139C16.9664 60.3248 23.8346 53.919 30.6873 47.4967C31.702 46.54 30.1712 45.0127 29.1586 45.9672C22.3254 52.4097 15.4572 58.8155 8.55405 65.1844C7.53226 66.133 9.06306 67.6604 10.0827 66.7139Z" fill="#2E6669"/>
<path d="M47.1268 109.898C52.5459 106.724 58.0061 103.619 63.4383 100.467C64.5233 99.8377 65.6094 99.2104 66.6868 98.5684C67.881 97.8572 66.7949 95.9864 65.5959 96.7009C60.2335 99.8945 54.7938 102.962 49.3897 106.085C48.2707 106.734 47.1511 107.377 46.0358 108.032C44.8362 108.735 45.9229 110.606 47.1268 109.9V109.898Z" fill="#2E6669"/>
<path d="M114.362 61.6016C114.326 61.8534 114.236 62.0942 114.096 62.3067C113.957 62.5192 113.772 62.698 113.555 62.8304C113.249 62.9914 112.892 63.0278 112.56 62.9321C112.333 62.8711 112.124 62.7575 111.949 62.6004C111.774 62.4433 111.638 62.2471 111.553 62.0278C111.432 61.6776 111.425 61.298 111.534 60.9437C111.642 60.5894 111.86 60.2785 112.155 60.0559C112.442 59.8555 112.795 59.7713 113.141 59.8203C113.488 59.8692 113.803 60.0477 114.023 60.3198C114.171 60.495 114.278 60.7009 114.337 60.9225C114.395 61.1442 114.404 61.3762 114.362 61.6016Z" fill="#2E6669"/>
<path d="M110.447 108.678C110.472 116.727 110.673 124.782 110.944 132.827C111.005 134.674 111.072 136.52 111.172 138.365C111.248 139.749 113.41 139.758 113.334 138.365C112.897 130.329 112.788 122.266 112.666 114.221C112.638 112.373 112.612 110.526 112.609 108.678C112.604 107.286 110.443 107.283 110.447 108.678Z" fill="#2E6669"/>
<path d="M130.758 111.021C130.519 118.555 130.707 126.119 130.897 133.652C130.942 135.449 130.994 137.245 131.067 139.04C131.121 140.427 133.282 140.435 133.228 139.04C132.922 131.505 132.821 123.951 132.843 116.41C132.848 114.614 132.863 112.817 132.92 111.021C132.964 109.629 130.802 109.63 130.758 111.021Z" fill="#2E6669"/>
<path d="M122.281 118.695C121.975 124.644 121.813 130.616 121.751 136.573C121.741 137.601 121.704 138.639 121.781 139.665C121.884 141.044 124.047 141.056 123.943 139.665C123.77 137.357 123.928 134.994 123.981 132.685C124.057 129.316 124.157 125.948 124.281 122.581C124.328 121.283 124.376 119.99 124.443 118.695C124.515 117.304 122.353 117.308 122.282 118.695H122.281Z" fill="#2E6669"/>
<path d="M111.321 139.158C111.591 140.215 112.575 140.899 113.491 141.375C114.04 141.685 114.623 141.929 115.229 142.1C115.812 142.221 116.402 142.296 116.996 142.326C119.307 142.558 121.62 141.894 123.457 140.471C123.658 140.267 123.771 139.993 123.771 139.706C123.771 139.42 123.658 139.145 123.457 138.942C123.251 138.745 122.977 138.635 122.692 138.635C122.408 138.635 122.134 138.745 121.928 138.942C120.592 139.9 118.953 140.341 117.317 140.182C116.483 140.177 115.66 140 114.898 139.663C114.489 139.488 114.103 139.266 113.745 139.002C113.639 138.911 113.539 138.813 113.447 138.709C113.493 138.763 113.48 138.738 113.41 138.633C113.443 138.723 113.441 138.706 113.405 138.585C113.059 137.238 110.974 137.809 111.321 139.16V139.158Z" fill="#2E6669"/>
<path d="M123.613 140.167C124.993 140.511 126.421 140.621 127.837 140.491C129.314 140.503 130.779 140.229 132.152 139.684C132.397 139.537 132.576 139.3 132.648 139.023C132.721 138.747 132.682 138.452 132.539 138.204C132.39 137.961 132.153 137.785 131.878 137.713C131.602 137.641 131.31 137.677 131.061 137.816C130.866 137.907 131.314 137.731 131.096 137.802C131.042 137.82 130.992 137.841 130.94 137.856C130.814 137.899 130.685 137.936 130.557 137.97C130.258 138.049 129.954 138.108 129.649 138.158L129.422 138.192C129.292 138.212 129.594 138.173 129.381 138.198C129.202 138.219 129.025 138.239 128.846 138.256C128.476 138.292 128.106 138.317 127.735 138.33C127.031 138.361 126.325 138.355 125.621 138.311C125.474 138.3 125.327 138.288 125.18 138.274C125.096 138.266 125.013 138.254 124.93 138.246C125.222 138.273 124.959 138.25 124.905 138.241C124.662 138.204 124.423 138.15 124.188 138.079C124.051 138.041 123.908 138.031 123.767 138.048C123.626 138.066 123.49 138.111 123.367 138.181C123.243 138.251 123.135 138.345 123.048 138.457C122.96 138.569 122.896 138.698 122.858 138.835C122.82 138.972 122.81 139.115 122.828 139.256C122.845 139.397 122.89 139.533 122.96 139.657C123.03 139.78 123.124 139.889 123.236 139.976C123.348 140.064 123.476 140.128 123.613 140.166V140.167Z" fill="#2E6669"/>
<path d="M112.95 138.606C112.522 138.427 112.058 138.354 111.595 138.393C111.133 138.431 110.687 138.58 110.294 138.827C109.845 139.102 109.469 139.483 109.2 139.936C108.93 140.389 108.775 140.901 108.748 141.428C108.629 142.483 108.808 143.55 109.265 144.509C109.722 145.467 110.439 146.278 111.334 146.849C113.347 148.152 115.672 148.889 118.068 148.984C120.349 149.099 122.813 148.616 123.841 146.323C124.724 144.353 124.369 142.03 123.902 140.003C123.589 138.647 121.505 139.221 121.817 140.578C122.079 141.608 122.212 142.667 122.212 143.73C122.212 144.048 122.18 144.366 122.117 144.677C122.084 144.825 122.049 144.971 122.003 145.114C121.989 145.159 121.833 145.54 121.938 145.316C121.01 147.317 118.172 146.984 116.382 146.591C114.627 146.207 112.293 145.466 111.309 143.821C110.879 143.079 110.745 142.202 110.936 141.365C110.953 141.212 111.01 141.066 111.101 140.942C111.191 140.817 111.313 140.719 111.454 140.656C111.599 140.589 111.772 140.587 111.914 140.523C111.982 140.491 112.06 140.57 111.86 140.474C113.108 141.073 114.206 139.208 112.95 138.606Z" fill="#2E6669"/>
<path d="M131.067 139.04C131.111 139.854 131.227 140.664 131.415 141.457C131.442 141.565 131.46 141.675 131.469 141.786C131.469 141.501 131.46 141.722 131.469 141.797C131.485 141.951 131.49 142.106 131.484 142.26C131.478 142.391 131.466 142.521 131.456 142.652C131.437 142.906 131.487 142.54 131.44 142.771C131.412 142.907 131.386 143.041 131.351 143.176C131.339 143.216 131.238 143.521 131.273 143.433C131.308 143.344 131.167 143.621 131.15 143.657C131.078 143.759 131.078 143.764 131.15 143.672C131.12 143.708 131.089 143.745 131.056 143.78C130.98 143.861 130.899 143.938 130.813 144.01C130.983 143.867 130.721 144.064 130.679 144.09C130.582 144.149 130.482 144.198 130.38 144.252C130.266 144.307 130.261 144.307 130.367 144.258C130.321 144.275 130.275 144.292 130.228 144.307C130.01 144.375 129.787 144.43 129.562 144.469C129.482 144.482 129.498 144.48 129.609 144.463C129.528 144.471 129.447 144.479 129.365 144.486C129.231 144.497 129.095 144.506 128.961 144.512C128.71 144.523 128.459 144.523 128.208 144.512C128.086 144.506 127.966 144.494 127.845 144.485C127.715 144.469 127.706 144.469 127.82 144.485L127.663 144.461C127.384 144.416 127.109 144.357 126.835 144.294C126.698 144.256 126.555 144.245 126.414 144.263C126.273 144.28 126.137 144.326 126.014 144.396C125.891 144.466 125.782 144.56 125.695 144.672C125.608 144.784 125.543 144.912 125.506 145.049C125.468 145.186 125.458 145.329 125.475 145.47C125.493 145.611 125.538 145.747 125.608 145.871C125.678 145.994 125.772 146.103 125.884 146.19C125.996 146.277 126.124 146.342 126.261 146.38C128.498 146.904 131.694 146.979 133.039 144.708C133.556 143.752 133.753 142.654 133.602 141.577C133.535 141.051 133.44 140.531 133.344 140.009C133.324 139.895 133.304 139.781 133.286 139.666C133.277 139.612 133.268 139.558 133.26 139.504C133.242 139.379 133.243 139.396 133.266 139.558C133.224 139.39 133.212 139.216 133.23 139.044C133.23 138.757 133.117 138.482 132.914 138.279C132.711 138.076 132.436 137.962 132.15 137.962C131.863 137.962 131.588 138.076 131.386 138.279C131.183 138.482 131.069 138.757 131.069 139.044L131.067 139.04Z" fill="#2E6669"/>
<path d="M115.319 90.7743C113.856 92.7916 112.303 94.9133 110.221 96.3347C109.235 97.0389 108.106 97.5146 106.914 97.7273C106.367 97.8278 105.803 97.7425 105.311 97.4851C104.818 97.2277 104.426 96.8128 104.196 96.3065C103.952 95.7912 103.814 95.2321 103.79 94.6624C103.7 93.8511 103.653 93.0328 103.644 92.2156C103.626 90.5865 103.741 88.9586 103.987 87.348C104.216 85.8396 104.465 84.3318 104.759 82.8353C104.906 82.0873 105.066 81.342 105.248 80.6021C105.35 80.1911 105.458 79.782 105.573 79.375C105.619 79.2127 105.667 79.0505 105.715 78.8882C105.748 78.798 105.775 78.7059 105.796 78.6124C105.835 78.4891 105.745 78.5143 105.526 78.6881C105.526 78.6773 106.472 79.1181 106.549 79.1586C107.089 79.4431 107.625 79.7357 108.16 80.0316C109.013 80.5042 109.875 80.9732 110.696 81.5005C111.87 82.2577 112.955 80.3831 111.787 79.6324C110.893 79.058 109.95 78.5507 109.022 78.0375C108.079 77.5177 106.959 76.7048 105.874 76.5594C103.767 76.277 103.472 78.7471 103.106 80.2749C102.674 82.0884 102.362 83.9283 102.065 85.7682C101.737 87.6423 101.543 89.5376 101.486 91.4395C101.472 92.3021 101.497 93.1653 101.569 94.0247C101.592 94.9454 101.746 95.858 102.026 96.7354C102.566 98.121 103.822 99.5256 105.322 99.842C106.843 100.163 108.472 99.6798 109.847 99.0437C113.011 97.5835 115.2 94.6115 117.189 91.8684C117.331 91.6201 117.37 91.3258 117.298 91.049C117.225 90.7721 117.047 90.535 116.801 90.3887C116.552 90.2501 116.26 90.213 115.984 90.2853C115.709 90.3575 115.472 90.5335 115.323 90.7764L115.319 90.7743Z" fill="#2E6669"/>
<path d="M114.089 77.762C114.483 76.6687 114.447 75.4664 113.988 74.3989C113.529 73.3314 112.681 72.4786 111.617 72.0134C109.626 71.0832 107.112 71.3293 105.635 73.08C104.821 74.0406 104.407 75.2773 104.478 76.5349C104.484 76.8198 104.6 77.0913 104.801 77.2928C105.002 77.4944 105.274 77.6103 105.558 77.6165C105.844 77.6139 106.117 77.499 106.319 77.2968C106.521 77.0945 106.636 76.8209 106.639 76.5349C106.631 76.3953 106.626 76.2558 106.631 76.1157C106.631 76.0703 106.682 75.6636 106.643 75.8956C106.686 75.6676 106.744 75.4428 106.818 75.2228C106.863 75.1049 106.863 75.1004 106.818 75.2092C106.845 75.1503 106.872 75.0919 106.903 75.034C106.947 74.948 106.996 74.8637 107.047 74.782C107.071 74.7436 107.306 74.4413 107.161 74.61C107.246 74.5116 107.332 74.4164 107.425 74.3266C107.495 74.2592 107.567 74.1946 107.641 74.133C107.471 74.272 107.786 74.0405 107.822 74.0183C107.936 73.9491 108.053 73.8874 108.173 73.8296C107.985 73.9204 108.273 73.7922 108.292 73.7858C108.424 73.7404 108.558 73.7023 108.694 73.6716C108.759 73.657 108.825 73.6441 108.891 73.6327C108.769 73.6468 108.773 73.6468 108.902 73.6327C109.136 73.6185 109.37 73.6185 109.604 73.6327C109.734 73.6462 109.738 73.6462 109.618 73.6327C109.685 73.6435 109.751 73.6554 109.817 73.6695C109.917 73.6904 110.015 73.7147 110.113 73.7425C110.244 73.7793 110.372 73.8231 110.499 73.8707C110.302 73.7971 110.666 73.9518 110.702 73.9713C110.792 74.0178 110.88 74.0681 110.967 74.1211C110.999 74.1411 111.325 74.3672 111.161 74.2411C111.341 74.3897 111.51 74.5507 111.668 74.723C111.748 74.8204 111.754 74.8247 111.687 74.7366C111.727 74.7906 111.765 74.8447 111.801 74.8988C111.875 75.0108 111.934 75.1281 112.001 75.2433C112.109 75.4321 111.983 75.1162 112.055 75.3618C112.102 75.5056 112.138 75.6528 112.163 75.802C112.144 75.6511 112.168 76.0048 112.168 76.0459C112.168 76.1871 112.161 76.3261 112.154 76.4667C112.139 76.6034 112.138 76.6255 112.152 76.5332C112.14 76.61 112.126 76.6857 112.111 76.7615C112.082 76.9048 112.045 77.0454 112.003 77.1855C111.927 77.4621 111.963 77.7577 112.105 78.0073C112.246 78.2568 112.481 78.4399 112.758 78.5162C113.034 78.5925 113.329 78.5558 113.579 78.4142C113.828 78.2725 114.011 78.0376 114.087 77.7609L114.089 77.762Z" fill="#2E6669"/>
<path d="M109.435 100.97C109.435 102.169 109.474 103.367 109.505 104.565C109.478 105.884 109.952 107.163 110.832 108.145C111.599 108.888 112.75 109.141 113.758 109.348C115.34 109.69 116.947 109.907 118.562 109.997C121.892 110.154 125.211 109.652 128.489 109.127C129.803 108.917 131.291 108.739 132.403 107.937C133.691 107.009 133.696 105.436 133.74 104.001C133.936 97.5726 134.358 91.1226 133.378 84.7347C132.918 81.7357 132.323 78.3987 130.195 76.0894C128.341 74.0785 125.746 73.7973 123.17 74.1564C120.089 74.5852 117.086 75.457 114.254 76.7449C112.873 77.4821 111.707 78.5649 110.868 79.8877C109.756 81.4547 108.793 83.1221 107.991 84.8683C107.854 85.1178 107.818 85.4103 107.89 85.6856C107.962 85.961 108.137 86.1982 108.378 86.3486C108.626 86.491 108.92 86.5302 109.197 86.4575C109.474 86.3849 109.711 86.2063 109.857 85.9602C110.499 84.5729 111.239 83.2334 112.072 81.9521C112.797 80.8417 113.609 79.6124 114.767 78.9109C115.551 78.4842 116.38 78.1428 117.237 77.8925C118.483 77.468 119.749 77.0969 121.026 76.7827C123.074 76.2787 125.709 75.6015 127.656 76.7681C129.817 78.0634 130.461 80.9137 130.923 83.1998C132.039 88.7272 131.912 94.3649 131.719 99.9707C131.665 101.549 131.613 103.127 131.562 104.705C131.548 105.148 131.578 105.774 131.238 106.12C130.862 106.396 130.425 106.578 129.965 106.652C128.554 106.983 127.123 107.227 125.682 107.383C124.245 107.59 122.799 107.753 121.348 107.824C119.784 107.912 118.215 107.861 116.66 107.671C115.324 107.567 114.008 107.287 112.745 106.837C112.412 106.686 112.147 106.416 112.003 106.08C111.787 105.608 111.673 105.097 111.669 104.578C111.637 103.375 111.598 102.174 111.599 100.971C111.599 99.5792 109.438 99.5764 109.438 100.971L109.435 100.97Z" fill="#2E6669"/>
<path d="M126.959 75.4257C127.553 74.5701 128.231 73.7757 128.983 73.0541C129.816 72.157 130.58 71.197 131.266 70.1828C132.664 68.0549 133.428 65.572 133.466 63.0253C133.45 60.8537 132.885 58.7215 131.824 56.8272C130.763 54.9329 129.24 53.3381 127.398 52.1912C123.629 49.8445 118.829 49.9197 114.936 51.9359C112.842 53.0554 111.077 54.7016 109.813 56.7122C108.549 58.7228 107.83 61.0284 107.727 63.4017C107.47 68.7647 110.896 74.9757 116.907 74.794C118.294 74.7518 118.3 72.5879 116.907 72.6307C112.455 72.7659 109.966 68.2412 109.877 64.2909C109.825 62.2786 110.3 60.2876 111.256 58.5163C112.211 56.7451 113.614 55.2553 115.324 54.1956C118.446 52.3113 122.499 51.9586 125.748 53.731C127.296 54.5755 128.611 55.7906 129.576 57.2678C130.541 58.745 131.126 60.4384 131.278 62.1968C131.418 64.6738 130.737 67.1277 129.341 69.1779C128.671 70.1336 127.931 71.0375 127.125 71.8821C126.365 72.6257 125.682 73.446 125.09 74.33C124.383 75.5323 126.25 76.6221 126.956 75.4219L126.959 75.4257Z" fill="#2E6669"/>
<path d="M112.308 55.9319C114.081 58.7665 116.445 61.1842 119.239 63.0196C119.487 63.1624 119.781 63.2017 120.057 63.129C120.334 63.0563 120.571 62.8775 120.717 62.6313C120.855 62.3822 120.892 62.0893 120.82 61.8136C120.748 61.5379 120.572 61.3008 120.33 61.1516C120.005 60.9381 119.686 60.7166 119.372 60.4869C119.298 60.4328 119.224 60.3787 119.149 60.3208L119.061 60.2538C119.118 60.2987 119.118 60.2987 119.061 60.2538C118.901 60.1283 118.742 60.0005 118.585 59.8703C118.001 59.3857 117.443 58.8708 116.913 58.3278C116.382 57.7843 115.886 57.2121 115.41 56.6193L115.342 56.5323C115.385 56.5901 115.386 56.5901 115.342 56.5323C115.288 56.4587 115.23 56.3846 115.175 56.3105C115.065 56.1616 114.957 56.0116 114.851 55.8605C114.616 55.5274 114.392 55.1877 114.177 54.8416C114.033 54.5939 113.795 54.4138 113.518 54.341C113.241 54.2683 112.946 54.3087 112.699 54.4535C112.451 54.5983 112.271 54.8356 112.198 55.1132C112.126 55.3907 112.166 55.6858 112.311 55.9335L112.308 55.9319Z" fill="#2E6669"/>
<path d="M120.255 63.2684C120.309 63.2549 120.572 63.2246 120.306 63.2441C120.393 63.2376 120.478 63.2306 120.564 63.2306C120.651 63.2306 120.736 63.2371 120.822 63.2457C120.677 63.2306 120.709 63.23 120.833 63.2598C120.917 63.2798 120.999 63.3139 121.082 63.3328C121.201 63.3598 120.929 63.2435 121.103 63.3404C121.18 63.3825 121.257 63.4209 121.33 63.4669C121.384 63.5021 121.546 63.6622 121.391 63.5026C121.451 63.5632 121.517 63.6238 121.579 63.6822C121.736 63.8304 121.506 63.534 121.628 63.7363C121.666 63.799 121.706 63.8596 121.741 63.9245C121.764 63.9656 121.785 64.0072 121.804 64.0499C121.765 63.9537 121.758 63.9418 121.785 64.0148C121.803 64.0927 121.835 64.1684 121.855 64.2463C121.875 64.3241 121.909 64.5367 121.886 64.342C121.905 64.5388 121.908 64.7368 121.897 64.9342C121.889 65.1668 121.94 64.7958 121.884 65.0424C121.865 65.124 121.85 65.2046 121.83 65.2874C121.804 65.3847 121.776 65.4805 121.742 65.5757C121.717 65.6465 121.652 65.7812 121.719 65.6422C121.632 65.8209 121.533 65.9935 121.422 66.1587C121.251 66.4199 121.552 66.0197 121.349 66.2598C121.283 66.3377 121.216 66.4145 121.147 66.4886C121.018 66.6256 120.881 66.7554 120.738 66.8775C120.691 66.918 120.556 67.0246 120.675 66.9342C120.594 66.9964 120.509 67.0548 120.423 67.1116C120.253 67.2246 120.076 67.3279 119.895 67.421C119.805 67.4664 119.714 67.5108 119.624 67.5497C119.797 67.4767 119.564 67.5665 119.516 67.5838C119.38 67.6215 119.251 67.6859 119.139 67.7732C119.027 67.8605 118.934 67.969 118.864 68.0925C118.794 68.2161 118.748 68.3522 118.731 68.4932C118.713 68.6342 118.724 68.7773 118.762 68.9143C118.799 69.0512 118.864 69.1794 118.951 69.2915C119.038 69.4036 119.146 69.4974 119.27 69.5676C119.393 69.6377 119.529 69.6829 119.67 69.7004C119.811 69.718 119.954 69.7076 120.091 69.6698C122.201 68.9251 124.044 67.0841 124.072 64.7346C124.088 64.1588 123.967 63.5874 123.717 63.0681C123.468 62.5488 123.098 62.0968 122.639 61.7497C122.219 61.4439 121.736 61.2346 121.226 61.1366C120.715 61.0386 120.19 61.0544 119.686 61.1829C119.549 61.2207 119.421 61.2851 119.309 61.3723C119.197 61.4596 119.103 61.5682 119.033 61.6917C118.963 61.8152 118.918 61.9514 118.901 62.0924C118.883 62.2334 118.893 62.3764 118.931 62.5134C118.969 62.6504 119.033 62.7786 119.12 62.8907C119.208 63.0028 119.316 63.0966 119.439 63.1667C119.563 63.2369 119.699 63.282 119.84 63.2996C119.981 63.3171 120.124 63.3067 120.26 63.269L120.255 63.2684Z" fill="#2E6669"/>
<path d="M119.838 69.4775C121.332 71.7905 123.583 73.5113 126.206 74.3451C126.482 74.4191 126.777 74.3811 127.026 74.2394C127.275 74.0977 127.458 73.8637 127.536 73.5879C127.605 73.3113 127.565 73.0185 127.424 72.7707C127.283 72.5228 127.052 72.339 126.779 72.2574C126.5 72.1655 126.227 72.0595 125.952 71.9545C126.194 72.047 125.922 71.941 125.889 71.9259L125.73 71.8539C125.598 71.793 125.468 71.7294 125.34 71.663C124.818 71.386 124.317 71.0736 123.838 70.7279C123.706 70.6354 124.034 70.8869 123.818 70.7128C123.763 70.6679 123.705 70.6224 123.65 70.577C123.539 70.4845 123.43 70.3904 123.323 70.2936C123.106 70.0989 122.9 69.8952 122.702 69.6825C122.602 69.5743 122.505 69.465 122.41 69.3547C122.362 69.3006 122.315 69.2422 122.268 69.1849C122.25 69.1638 122.097 68.9686 122.187 69.0859C122.278 69.2033 122.126 69.0043 122.11 68.9821C122.066 68.9215 122.022 68.8609 121.979 68.7998C121.884 68.6635 121.792 68.5251 121.703 68.3855C121.631 68.2629 121.536 68.1555 121.423 68.0697C121.31 67.9838 121.181 67.921 121.044 67.885C120.906 67.8489 120.763 67.8403 120.623 67.8596C120.482 67.8789 120.346 67.9258 120.224 67.9975C120.101 68.0692 119.994 68.1643 119.908 68.2775C119.823 68.3907 119.76 68.5197 119.724 68.6571C119.688 68.7945 119.679 68.9377 119.698 69.0785C119.718 69.2192 119.765 69.3548 119.836 69.4775H119.838Z" fill="#2E6669"/>
</g>
<defs>
<clipPath id="clip0_956_7456">
<rect width="134" height="149" fill="white"/>
</clipPath>
</defs>
</svg>
