<svg width="146" height="116" viewBox="0 0 146 116" fill="none" xmlns="http://www.w3.org/2000/svg">
<path d="M6.42676 22.0674V101.116C50.2978 101.117 67.2443 101.117 111.114 101.117C111.114 70.6778 111.114 50.5997 111.114 22.0674" fill="white"/>
<path d="M90.34 85.5733C84.9476 91.8545 86.5969 101.466 93.8673 107.568C99.9434 112.668 110.145 113.488 116.146 106.63C118.024 104.483 123.88 97.6828 126.97 94.0209C119.911 88.0986 108.726 78.7131 101.388 72.5537C98.2236 76.3096 92.0471 83.5886 90.3422 85.5733H90.34Z" fill="#2E6669"/>
<path d="M139.197 80.1239C144.59 73.8427 142.94 64.2308 135.67 58.129C129.594 53.0293 119.392 52.2089 113.391 59.0669C111.513 61.2141 105.657 68.0144 102.567 71.6763C109.626 77.5986 120.811 86.9841 128.149 93.1436C131.314 89.3876 137.49 82.1087 139.195 80.1239H139.197Z" fill="white"/>
<path d="M91.657 101.153H11.4648C10.5076 101.153 8.83048 100.82 7.92248 101.153C7.82421 101.19 7.4717 101.078 7.39906 101.153C7.81353 100.724 8.09342 102.841 8.56985 101.98C8.95014 101.294 8.56985 99.3201 8.56985 98.5467V27.9494C8.56985 27.5776 8.83264 25.8471 8.56985 25.5544C8.58908 25.5758 7.00166 26.3876 7.54432 26.7188C7.71738 26.8256 8.19168 26.6995 8.39251 26.7188C9.61884 26.8299 10.9114 26.7188 12.142 26.7188H108.817C109.731 26.7188 111.054 26.9666 111.938 26.7188C112.03 26.6931 112.357 26.7871 112.428 26.7188C112.733 26.4282 111.537 25.2104 111.246 25.5522C111.167 25.6441 111.283 25.956 111.246 26.0778C110.678 27.99 111.246 30.9575 111.246 32.9359V57.1185C111.246 62.6178 119.792 62.6263 119.792 57.1185C119.792 46.6562 120.288 36.0743 119.792 25.6249C119.591 21.3626 116.602 18.3951 112.353 18.1708C111.567 18.128 110.765 18.1708 109.979 18.1708H16.9256C13.9495 18.1708 10.9584 18.0832 7.9823 18.1708C2.78428 18.3225 0.0218394 21.9715 0.0218394 26.8726V98.7881C0.0218394 99.9055 -0.0272993 101.034 0.0218394 102.151C0.205575 106.381 3.13255 109.485 7.40975 109.697C10.044 109.827 12.7167 109.697 15.351 109.697H91.6527C97.152 109.697 97.1605 101.151 91.6527 101.151L91.657 101.153Z" fill="#2E6669"/>
<path d="M40.4625 22.4391C40.4625 20.1019 40.4625 17.7645 40.4625 15.4273V10.5561C40.4625 10.1053 40.7701 7.91331 40.4625 7.64839C39.9882 7.24032 40.392 9.37892 39.2874 8.6632C39.3451 8.69952 39.4711 8.63329 39.531 8.6632C39.9198 8.85976 40.9859 8.6632 41.4025 8.6632H48.4721C55.266 8.6632 62.06 8.6632 68.854 8.6632H77.1755C77.8506 8.6632 79.9443 9.04777 80.5383 8.6632C79.3248 9.45156 79.861 6.96472 79.3632 7.71034C79.203 7.94963 79.3632 8.87258 79.3632 9.15673V14.0257C79.3632 16.8288 79.3632 19.6339 79.3632 22.437C79.3632 27.9363 87.9091 27.9448 87.9091 22.437C87.9091 19.7878 87.9091 17.1386 87.9091 14.4894C87.9091 11.6927 88.3342 8.47947 87.6933 5.71916C86.0653 -1.29058 77.4938 0.115208 72.1441 0.115208H50.1193C47.2906 0.115208 44.4619 0.115208 41.6333 0.115208C39.0823 0.115208 36.6254 0.0682061 34.5316 1.89488C31.2479 4.76202 31.9188 9.19519 31.9188 13.1049C31.9188 16.2156 31.9188 19.3263 31.9188 22.437C31.9188 27.9363 40.4646 27.9448 40.4646 22.437L40.4625 22.4391Z" fill="#2E6669"/>
<path d="M70.2168 71.6377H80.2518C81.7879 71.6377 83.0334 70.3986 83.0334 68.8646V59.9363C83.0334 57.8319 81.7943 56.5949 80.2582 56.5949C77.8568 56.5949 74.1564 56.5949 70.2232 56.5949C68.6871 56.5949 67.4373 55.3493 67.4373 53.8132V43.1245C67.4373 41.5883 66.1981 40.3428 64.662 40.3428C61.9145 40.3428 57.9129 40.3428 55.1654 40.3428C53.6293 40.3428 52.3923 41.5883 52.3923 43.1245V53.5525C52.3923 55.0887 51.1467 56.3342 49.6106 56.3342H39.5756C38.0395 56.3342 36.7939 57.5734 36.7939 59.1073V68.0356C36.7939 70.14 38.0224 71.3771 39.5585 71.3771C42.3957 71.3771 46.7883 71.3771 49.6255 71.3771C51.1617 71.3771 52.3901 72.6226 52.3901 74.1587V84.7428C52.3901 86.2789 53.6293 87.5245 55.1633 87.5245C57.9107 87.5245 61.9124 87.5245 64.6599 87.5245C66.196 87.5245 67.433 86.2789 67.433 84.7428V74.4194C67.433 72.8833 68.6785 71.6377 70.2146 71.6377H70.2168Z" fill="#2E6669"/>
<path d="M128.231 89.5226C121.896 84.207 115.564 78.8937 109.229 73.5781L105.606 70.5379C103.896 69.1022 101.217 68.7369 99.5637 70.5379C98.1109 72.1211 97.7349 75.0459 99.5637 76.5799C105.99 81.9723 112.417 87.3647 118.845 92.7593L122.189 95.5645C123.898 97.0002 126.577 97.3655 128.231 95.5645C129.684 93.9814 130.06 91.0565 128.231 89.5226Z" fill="#2E6669"/>
<path d="M124.525 90.3149C121.385 94.0516 118.197 97.752 115.003 101.444C112.146 104.749 109.399 107.377 104.722 107.306C96.0738 107.178 87.3656 96.5 93.3627 88.5929C95.9692 85.1554 99.0029 81.9678 101.789 78.6733C104.861 75.0413 107.946 71.4286 111.097 67.865C114.08 64.4915 117.112 59.6994 121.908 58.9452C126.813 58.174 132.475 61.7525 135.058 65.7605C138.045 70.3967 136.609 75.4387 133.357 79.5044C130.452 83.1364 127.51 86.7449 124.523 90.3128C123.042 92.0818 122.79 94.6221 124.523 96.3547C126.044 97.8759 129.078 98.1323 130.565 96.3547C137.594 87.9563 148.293 78.0431 144.503 65.9763C142.283 58.9153 135.925 53.4844 128.999 51.239C121.793 48.9017 114.304 51.4377 109.305 56.954C101.881 65.1452 94.8176 73.6847 87.6797 82.1259C83.3555 87.2406 81.6848 93.7696 83.8511 100.254C86.0624 106.868 91.2433 112.207 97.7852 114.596C104.915 117.2 113.354 115.679 118.695 110.158C122.893 105.819 126.681 100.974 130.565 96.3526C132.05 94.5879 132.295 92.0412 130.565 90.3107C129.042 88.7874 126.014 88.5374 124.523 90.3128L124.525 90.3149Z" fill="#2E6669"/>
</svg>
