<svg width="169" height="141" viewBox="0 0 169 141" fill="none" xmlns="http://www.w3.org/2000/svg">
<path d="M97.022 138.242C99.8089 137.392 102.836 133.688 103.293 127.564C103.557 119.766 102.347 109.244 100.412 102.337C100.058 100.562 99.7309 99.1293 99.4393 98.199C98.2683 94.4747 97.076 90.7021 95.3485 87.22C94.342 84.8304 92.7629 82.7272 90.7513 81.0972C88.5557 79.3159 86.1371 77.8306 83.5572 76.6793C80.1565 75.287 77.038 73.9148 73.6467 72.4643C70.4059 75.1251 61.4082 77.7767 54.78 77.7602C47.508 77.7421 39.7197 75.0173 35.6622 72.3027C30.6327 74.146 24.3016 76.4985 19.8392 79.0361C15.1307 81.5867 12.4981 85.9869 10.8729 90.4536C9.03945 95.3346 4.72481 110.621 3.88414 117.648C3.24962 122.953 3.40286 126.582 5.09517 131.606C5.52942 132.856 8.02791 136.123 11.797 136.859C14.9371 137.472 18.9766 137.15 21.3841 135.216C22.2663 134.458 23.039 133.581 23.68 132.609L23.6287 133.357C23.6208 133.443 23.4249 136.604 23.2172 139.99H91.1663L91.0562 138.917C93.0686 139.039 95.0868 138.811 97.022 138.243" fill="white"/>
<path d="M36.4675 72.811C38.3762 71.9302 40.5592 70.9079 40.6376 70.8804C42.6755 70.1412 42.5932 68.828 42.8519 67.3574C43.0316 66.3731 43.1598 65.38 43.236 64.3822C41.2376 63.0851 39.4539 61.4822 37.9498 59.6316C35.8268 57.0609 34.2229 54.1002 33.2275 50.9146L32.7411 51.0428C31.5493 51.3648 30.6393 50.7282 29.9134 50.1463C29.0038 49.3704 28.2719 48.4066 27.7677 47.3208C26.6975 45.1728 26.2366 42.771 26.4352 40.3779C26.4628 39.7662 26.6182 39.1671 26.8914 38.6195C27.1722 38.1577 27.5665 37.7759 28.0366 37.5108C28.5068 37.2457 29.0369 37.1063 29.5761 37.1057C30.1154 37.1052 30.6458 37.2437 31.1164 37.5079C31.587 37.7721 31.9821 38.1531 32.2638 38.6144C37.3869 32.6305 42.9945 27.0818 49.0293 22.0253C49.0642 22.5341 50.4101 27.1942 50.7099 27.3491C51.1434 27.5733 57.322 22.5153 59.164 21.1953C60.379 21.303 61.5704 21.4961 62.2747 21.6223L63.3564 21.9007C65.7396 22.5141 67.4508 23.74 69.5283 26.4377C71.932 29.5581 74.5367 35.3128 75.2817 39.2164L75.9303 38.6266C76.2853 38.3188 76.7022 38.0913 77.1527 37.9598C77.6033 37.8283 78.0767 37.7958 78.5409 37.8646C78.9969 37.9293 79.4326 38.0956 79.816 38.3514C80.1995 38.6071 80.521 38.9459 80.7568 39.3426C81.03 39.8902 81.1854 40.4893 81.213 41.101C81.4114 43.4941 80.9505 45.8958 79.8805 48.0439C79.3762 49.1296 78.6443 50.0934 77.7347 50.8694C77.0089 51.4501 76.2803 51.7796 75.2264 51.4592L74.7362 51.296C74.5269 52.0824 74.2925 52.7406 74.1769 53.0917C73.4804 54.9884 69.7803 61.4151 65.0114 64.3727C65.0847 65.371 65.2141 66.3674 65.3869 67.361C65.6417 68.8315 65.5633 70.1447 67.6013 70.8839C67.6992 70.9193 70.8189 72.4017 72.563 73.2313C72.563 73.2313 67.1572 82.6785 53.5709 82.6785C39.9846 82.6785 36.4675 72.811 36.4675 72.811Z" fill="white"/>
<path d="M21.242 100.94C22.1011 96.7155 23.2224 94.2554 25.0789 89.7455C26.5404 86.5024 27.2976 82.7239 30.1621 80.4111C33.0259 79.0369 42.8944 78.501 43.8601 82.3177C43.827 82.784 43.6333 83.2241 43.3122 83.5628C42.9911 83.9015 42.5625 84.1175 42.1 84.174C41.9871 84.1898 41.873 84.1964 41.759 84.1936C43.5811 84.5333 47.3976 85.9881 45.2079 88.2513C44.9265 88.497 44.5786 88.653 44.2085 88.6996C44.2046 88.7035 44.2046 88.7035 44.2007 88.6996H44.1928C44.0962 88.7197 43.9971 88.725 43.8989 88.7153C43.895 88.7192 43.895 88.7192 43.8911 88.7153C43.505 88.6807 43.1214 88.6216 42.7427 88.5384C42.8833 88.6026 43.0195 88.6761 43.1503 88.7586H43.1543C44.4809 89.5021 44.1341 91.4995 43.0014 92.2619C43.1093 92.3243 43.2093 92.3996 43.2993 92.486C43.3032 92.486 43.3032 92.486 43.3032 92.4899C43.3555 92.54 43.4039 92.5938 43.4482 92.6511C43.4482 92.6551 43.4521 92.6551 43.4521 92.659C44.863 95.1565 41.0614 95.3327 39.5956 95.6472C36.9882 96.2842 36.9114 99.1584 35.6059 101.082C34.1588 102.296 32.6364 103.418 31.0478 104.439L28.4063 104.99L20.7051 102.564C20.8085 102.364 21.1636 101.174 21.242 100.94Z" fill="white"/>
<path d="M73.6565 125.609L80.4093 116.392L75.7611 112.394C75.2951 109.158 71.6695 108.234 70.2742 105.544C69.3309 103.26 65.2475 101.476 65.8808 105.367C66.4295 107.44 67.2733 109.521 67.6993 111.615L64.3758 115.036C61.1554 116.341 57.6626 117.131 54.2094 116.844C51.8579 116.947 47.9983 115.212 46.3358 117.257C43.5923 123.324 64.3249 121.166 67.5465 121.472C68.5235 122.04 72.6328 124.913 73.6565 125.609Z" fill="white"/>
<path d="M45.294 104.801C46.7833 106.341 53.0011 107.839 57.0038 107.789C61.4395 107.734 66.7547 107.244 68.0512 104.801C68.1578 107.301 67.6773 110.339 66.2484 112.421C64.7128 114.66 61.8855 116.584 59.2659 117.058C55.2727 117.779 52.0777 117.027 48.8409 114.574C45.9798 112.408 44.8601 108.177 45.294 104.801Z" fill="white"/>
<path d="M47.004 101.267C47.017 101.253 47.0299 101.238 47.0432 101.224C47.6464 100.573 48.8664 99.9141 49.7506 99.9742C49.9841 100.029 50.2296 99.9895 50.4349 99.8653C50.537 99.7542 50.6091 99.6189 50.6446 99.4721C50.881 98.7979 51.2817 98.1937 51.8102 97.7145C52.3388 97.2353 52.9784 96.8963 53.6708 96.7284C54.3633 96.5604 55.0866 96.5689 55.775 96.7531C56.4634 96.9372 57.0949 97.2911 57.6121 97.7826C57.7347 97.9325 57.9009 98.0401 58.0875 98.0904C58.3328 98.0789 58.5649 97.9753 58.7377 97.8003C59.4062 97.3564 60.2227 97.1962 61.0086 97.3548C61.7945 97.5134 62.4858 97.9778 62.9313 98.6464C63.0263 98.8628 63.1793 99.0484 63.3733 99.1827C63.5545 99.2495 63.7483 99.2748 63.9405 99.2566C65.2424 99.2771 66.4033 100.597 66.9116 101.799C67.5285 103.259 67.7758 103.687 67.251 105.739C65.2381 107.377 60.7973 107.744 57.0007 107.79C53.6149 107.832 48.645 106.768 46.2923 105.504L46.1426 104.532C46.0487 103.957 46.077 103.37 46.2254 102.807C46.3739 102.245 46.6392 101.72 47.004 101.267Z" fill="white"/>
<path d="M69.7525 9.49551C70.0713 10.0078 70.4807 10.4574 70.9604 10.8221C71.3959 11.2153 72.0057 11.4335 72.6281 11.8562C75.4612 13.1144 78.4026 17.5378 79.3558 20.598C80.8752 25.4759 81.0347 33.6889 79.5196 38.1811C79.2127 38.0215 78.8816 37.9139 78.5398 37.8626C78.0752 37.7944 77.6015 37.8275 77.1509 37.9598C76.7003 38.092 76.2834 38.3203 75.9288 38.6289L75.2802 39.2187C74.5355 35.3136 71.9304 29.5588 69.5268 26.44C67.4496 23.7424 65.7381 22.5164 63.3548 21.903L62.2731 21.6246C61.5677 21.4984 60.3782 21.3054 59.1625 21.1976C57.3204 22.5176 51.1418 27.5756 50.7084 27.3515C50.4085 27.1965 49.0623 22.5365 49.0278 22.0277C42.9939 27.0833 37.3871 32.6308 32.2646 38.6136C31.9469 38.0782 31.4758 37.6513 30.9126 37.3886C30.3495 37.1258 29.7205 37.0394 29.1077 37.1407C28.9167 37.1686 28.7291 37.2166 28.548 37.2838C26.8463 35.2727 26.802 26.7444 27.8986 22.1798C28.9899 17.8468 31.3906 13.9585 34.7713 11.0482C34.3441 11.0667 32.3116 11.2472 32.2384 10.9696C32.1651 10.692 35.8566 6.28275 41.2647 4.68876C44.0124 3.87879 46.1225 3.40146 49.3613 3.46279C48.7558 3.16436 46.6743 2.4114 46.3949 1.94862C47.6988 1.05332 50.501 0.909809 52.0809 0.949128C58.6353 1.11152 67.394 4.24367 69.731 9.52068" fill="#2E6669"/>
<path d="M22.6889 133.355C22.5094 135.562 22.4145 137.778 22.2773 139.988C22.2773 140.238 22.3764 140.478 22.5528 140.655C22.7292 140.832 22.9685 140.932 23.218 140.932C23.4674 140.932 23.7067 140.832 23.8831 140.655C24.0595 140.478 24.1586 140.238 24.1586 139.988C24.2942 137.778 24.3906 135.562 24.5701 133.355C24.568 133.105 24.4683 132.866 24.2923 132.69C24.1164 132.513 23.8783 132.413 23.6295 132.411C23.3815 132.416 23.1451 132.517 22.9698 132.693C22.7944 132.869 22.6938 133.106 22.6889 133.355Z" fill="#2E6669"/>
<path d="M18.1411 93.469C18.437 95.8219 18.7741 98.1685 19.0856 100.519C19.0935 100.767 19.1951 101.002 19.3698 101.177C19.5446 101.353 19.7793 101.455 20.0262 101.463C20.4824 101.463 21.0343 101.028 20.9669 100.519C20.6533 98.139 20.3178 95.818 20.0223 93.469C20.0147 93.2212 19.9131 92.9856 19.7383 92.8103C19.5636 92.635 19.3288 92.5331 19.0817 92.5254C18.8327 92.5268 18.5943 92.6267 18.4182 92.8034C18.2421 92.98 18.1426 93.2192 18.1411 93.469Z" fill="#2E6669"/>
<path d="M86.1132 139.949C86.0771 139.344 86.0564 138.736 85.9995 138.132C85.9896 137.884 85.8924 137.647 85.7252 137.464C85.5488 137.287 85.3096 137.188 85.0601 137.188C84.8107 137.188 84.5714 137.287 84.395 137.464C84.3068 137.551 84.2369 137.655 84.1898 137.77C84.1427 137.885 84.1191 138.008 84.1207 138.132C84.1775 138.736 84.1991 139.344 84.2343 139.949C84.2393 140.198 84.3372 140.437 84.5087 140.617C84.6851 140.794 84.9243 140.894 85.1738 140.894C85.4232 140.894 85.6625 140.794 85.8389 140.617C85.9263 140.53 85.9955 140.425 86.0426 140.311C86.0897 140.196 86.1137 140.073 86.1132 139.949Z" fill="#2E6669"/>
<path d="M87.0062 115.377C87.9668 107.859 88.9599 100.344 89.9362 92.8281C90.0483 91.9631 90.1639 91.1012 90.267 90.2366C90.2657 89.9868 90.1661 89.7475 89.99 89.5708C89.8139 89.3942 89.5754 89.2943 89.3264 89.293C89.0787 89.2988 88.8428 89.4 88.6677 89.5758C88.4925 89.7515 88.3916 89.9882 88.3858 90.2366C87.6682 96.2654 86.8181 102.28 86.037 108.301C85.7308 110.66 85.4268 113.019 85.125 115.378C85.1262 115.628 85.2257 115.867 85.4019 116.044C85.578 116.221 85.8165 116.32 86.0656 116.322C86.3132 116.316 86.5489 116.214 86.724 116.039C86.8991 115.863 87.0002 115.626 87.0062 115.378V115.377Z" fill="#2E6669"/>
<path d="M76.5944 39.2969C76.8326 39.0994 77.1084 38.9525 77.405 38.8654C77.7016 38.7783 78.0127 38.7527 78.3195 38.7902C78.6263 38.8277 78.9222 38.9275 79.1893 39.0835C79.4563 39.2395 79.6889 39.4484 79.8729 39.6976C80.2679 40.2901 80.291 41.1052 80.3126 41.794C80.3421 42.5796 80.2926 43.3662 80.1648 44.1418C79.9095 45.7054 79.3502 47.2035 78.5188 48.5506C77.8764 49.5702 76.821 50.92 75.4759 50.5465C74.3072 50.2221 73.8087 52.0426 74.9758 52.3665C78.3436 53.3015 80.563 49.3162 81.4617 46.6724C81.9939 45.1031 82.2416 43.4509 82.193 41.794C82.1405 40.1234 81.7772 38.5282 80.3118 37.5515C79.539 37.0638 78.6295 36.8402 77.7195 36.9143C76.8095 36.9883 75.9478 37.3561 75.2635 37.9624C75.089 38.1404 74.9912 38.38 74.9912 38.6297C74.9912 38.8793 75.089 39.1189 75.2635 39.2969C75.4422 39.4694 75.6806 39.5657 75.9286 39.5657C76.1766 39.5657 76.4149 39.4694 76.5937 39.2969H76.5944Z" fill="#2E6669"/>
<path d="M74.2027 48.7792C74.1475 49.7429 73.9677 50.6953 73.6677 51.6125C73.5674 51.9475 73.4573 52.2809 73.3464 52.6108C73.3116 52.7157 73.2756 52.8205 73.2382 52.9254C73.2272 52.956 73.2135 52.9859 73.2021 53.0162C73.1359 53.1955 73.2978 52.8027 73.2143 52.9887C72.7827 53.9324 72.2897 54.8467 71.7387 55.7257C70.2047 58.3081 68.2506 60.6147 65.9575 62.5499C64.7038 63.618 63.2233 64.3846 61.6291 64.7911C60.4495 65.0631 60.9488 66.8832 62.1292 66.6111C65.4088 65.8554 68.1319 63.433 70.2651 60.9339C72.0754 58.8784 73.5905 56.5794 74.7667 54.1034C75.5426 52.4305 75.9898 50.6234 76.0839 48.7807C76.1231 47.5658 74.2419 47.5674 74.2027 48.7807V48.7792Z" fill="#2E6669"/>
<path d="M32.3842 37.2406C31.7638 36.6943 30.9984 36.341 30.1813 36.2237C29.3642 36.1064 28.5308 36.2302 27.7826 36.58C26.2173 37.3176 25.6224 38.8271 25.4887 40.4643C25.2211 43.7381 26.1942 47.3558 28.3172 49.8915C29.4679 51.2653 31.139 52.3875 32.9909 51.9526C34.169 51.6774 33.6701 49.8557 32.4908 50.1329C31.2061 50.4349 29.9507 49.0457 29.306 48.0997C27.9712 46.0685 27.2827 43.6785 27.3315 41.246C27.3441 40.5111 27.3519 39.6111 27.7756 38.9757C27.9593 38.7263 28.1919 38.5172 28.4589 38.361C28.726 38.2049 29.022 38.105 29.3289 38.0675C29.6358 38.0301 29.947 38.0558 30.2436 38.1431C30.5402 38.2305 30.816 38.3776 31.054 38.5755C31.2334 38.7466 31.4715 38.842 31.7191 38.842C31.9667 38.842 32.2048 38.7466 32.3842 38.5755C32.5592 38.3973 32.6573 38.1572 32.6573 37.907C32.6573 37.6569 32.5592 37.4168 32.3842 37.2386V37.2406Z" fill="#2E6669"/>
<path d="M31.311 46.506C32.2226 53.8928 36.3746 61.1362 42.6979 65.1581C44.494 66.3277 46.5141 67.1076 48.6284 67.4477C48.8686 67.5061 49.122 67.4704 49.337 67.348C49.5519 67.2256 49.7122 67.0256 49.7854 66.7887C49.8499 66.5474 49.8172 66.2903 49.6942 66.073C49.5713 65.8557 49.3681 65.6957 49.1285 65.6276C45.5064 65.0909 42.4071 63.0125 39.9058 60.4092C37.2944 57.6868 35.3361 54.4029 34.1799 50.8071C33.9244 50.0131 33.7066 49.2085 33.5266 48.3933C33.4482 48.0404 33.3785 47.6866 33.3177 47.3317C33.2894 47.1694 33.2633 47.0067 33.2393 46.8437C33.2275 46.7651 33.2162 46.6875 33.2052 46.6109C33.2283 46.7761 33.1981 46.5524 33.1926 46.5071C33.1852 46.2592 33.0837 46.0235 32.9089 45.8482C32.7341 45.6728 32.4991 45.571 32.252 45.5635C32.003 45.565 31.7647 45.6649 31.5886 45.8416C31.4126 46.0182 31.313 46.2573 31.3114 46.5071L31.311 46.506Z" fill="#2E6669"/>
<path d="M58.722 20.3558C56.7083 21.7961 54.851 23.3582 52.8823 24.8319C52.1107 25.4099 51.3249 25.9415 50.5136 26.4574C50.3443 26.5655 50.69 26.3968 50.5853 26.4275C50.5293 26.444 50.4677 26.4381 50.6437 26.4275C50.7709 26.4103 50.9003 26.4224 51.0221 26.4629C51.1439 26.5034 51.255 26.5711 51.3468 26.661C51.446 26.7475 51.4644 26.8781 51.4103 26.7196C51.3793 26.6256 51.2927 26.4503 51.3766 26.6575C51.1755 26.1511 51.0062 25.6324 50.8424 25.1126C50.63 24.4379 50.4304 23.759 50.2436 23.0759C50.1734 22.8192 50.1044 22.5616 50.0417 22.3029C50.019 22.2085 49.999 22.1134 49.9759 22.019C49.9261 21.8138 49.9535 21.8755 49.9676 22.0261C49.9618 21.842 49.9031 21.6636 49.7987 21.5121C49.6944 21.3606 49.5487 21.2425 49.3791 21.172C49.2095 21.1014 49.0233 21.0814 48.8427 21.1144C48.6621 21.1473 48.4947 21.2318 48.3608 21.3577C43.4395 25.4824 38.8005 29.9345 34.475 34.6841C33.3792 35.8867 32.3055 37.1101 31.2539 38.3541C31.0833 38.5342 30.9883 38.7731 30.9883 39.0215C30.9883 39.27 31.0833 39.5089 31.2539 39.689C31.4313 39.864 31.6701 39.962 31.9189 39.962C32.1677 39.962 32.4066 39.864 32.584 39.689C36.5629 34.996 40.844 30.5697 45.3998 26.4385C46.8063 25.1603 48.2382 23.9109 49.6957 22.6902L48.0888 22.0218C48.2574 23.1288 48.5372 24.2159 48.924 25.2664C49.1062 25.8593 49.2916 26.4538 49.5165 27.0322C49.7058 27.5201 49.9085 28.104 50.4716 28.2601C51.31 28.4913 52.3137 27.5701 52.9286 27.1254C54.1263 26.2623 55.2907 25.3525 56.4559 24.447C57.5795 23.5745 58.5076 22.8148 59.6696 21.9825C59.8799 21.8514 60.032 21.6445 60.0948 21.4043C60.1576 21.1641 60.1262 20.9089 60.0071 20.6912C59.8797 20.4767 59.6733 20.321 59.4326 20.2577C59.1918 20.1944 58.9359 20.2285 58.72 20.3527L58.722 20.3558Z" fill="#2E6669"/>
<path d="M63.1056 22.8108C65.7491 23.5063 67.6554 25.3724 69.1972 27.5684C70.8533 29.9887 72.1931 32.6121 73.1838 35.3744C73.7426 36.8244 74.164 38.324 74.4427 39.8532C74.5106 40.0935 74.67 40.2973 74.8865 40.4206C75.103 40.5439 75.3592 40.5768 75.5996 40.5122C75.837 40.4408 76.0379 40.2803 76.1602 40.0641C76.2826 39.8479 76.3171 39.5926 76.2565 39.3515C75.7497 36.3349 74.5348 33.3978 73.1826 30.6691C71.8305 27.9403 70.1461 25.1644 67.7988 23.1745C66.583 22.1383 65.1494 21.3913 63.6053 20.9891C62.4335 20.6809 61.9334 22.5005 63.1052 22.8092L63.1056 22.8108Z" fill="#2E6669"/>
<path d="M70.5454 9.04332C69.1059 5.85848 65.8655 3.76042 62.7744 2.41964C59.3318 0.905069 55.6262 0.0836113 51.8681 0.0019104C50.8236 -0.0126697 49.7796 0.0562253 48.746 0.207942C47.7487 0.309951 46.7849 0.625874 45.9199 1.1343C45.7066 1.26254 45.5519 1.46944 45.4889 1.7107C45.4258 1.95197 45.4594 2.20842 45.5824 2.42514C46.0043 2.92924 46.5525 3.31143 47.1705 3.53237C47.7897 3.81586 48.3443 4.01717 48.8867 4.27943L49.3613 2.52108C47.2134 2.48236 45.0696 2.7237 42.9836 3.23905C41.0042 3.68764 39.0944 4.40292 37.3063 5.36542C35.8116 6.21007 34.4247 7.23384 33.1762 8.41422C32.491 8.98365 31.9045 9.66296 31.4404 10.4246C31.3288 10.6184 31.2827 10.8433 31.3089 11.0655C31.3351 11.2878 31.4323 11.4957 31.5858 11.658C31.8917 11.9205 32.2835 12.0605 32.6859 12.0512C33.3816 12.0747 34.0781 12.0545 34.7713 11.9907L34.1051 10.3786C30.7915 13.2175 28.3859 16.9737 27.1892 21.1772C26.2094 24.6148 26.0558 28.4119 26.2941 31.964C26.4117 33.6908 26.6076 35.4814 27.3201 37.0754C27.4473 37.2902 27.6537 37.4461 27.8945 37.5094C28.1353 37.5728 28.3914 37.5385 28.6072 37.414C28.8181 37.2836 28.9708 37.0767 29.0337 36.8363C29.0965 36.596 29.0646 36.3405 28.9447 36.1231C28.8388 35.8872 28.9838 36.2348 28.9266 36.081C28.9008 36.013 28.8749 35.9446 28.8506 35.8758C28.8094 35.7578 28.7722 35.6399 28.7365 35.5219C28.6382 35.1924 28.5594 34.857 28.492 34.5197C28.3531 33.8062 28.2572 33.085 28.2047 32.3599C28.0696 30.5916 28.06 28.816 28.1761 27.0463C28.2524 25.4664 28.4692 23.8964 28.8239 22.3552C29.8821 18.2091 32.1916 14.4924 35.4364 11.7139C36.0604 11.1909 35.554 10.0644 34.7702 10.1018C34.3751 10.1211 33.9812 10.1529 33.5862 10.1671C33.3451 10.1757 33.1033 10.182 32.8623 10.1722C32.7765 10.1686 32.6895 10.1659 32.604 10.1549C32.7314 10.1741 32.7475 10.1745 32.6514 10.1549C32.4207 10.0804 32.5535 10.192 33.0496 10.4895L33.1778 10.9656C33.2009 11.1555 33.126 11.1323 33.1119 11.2633C33.0947 11.4249 33.061 11.347 33.1096 11.2884C33.1758 11.2098 33.2307 11.1095 33.2914 11.025C33.1903 11.1665 33.2174 11.1174 33.2977 11.0219C33.3455 10.9648 33.3929 10.907 33.4415 10.8508C33.5732 10.6975 33.7096 10.5481 33.8487 10.4014C34.5507 9.6615 35.3148 8.9835 36.1325 8.3749C37.2637 7.52443 38.4863 6.80368 39.7773 6.22611C41.1621 5.65416 42.5981 5.21574 44.0657 4.91679C45.8039 4.53521 47.5813 4.3636 49.3602 4.40564C50.2526 4.4194 50.6958 3.06054 49.8352 2.6469C49.3315 2.40509 48.833 2.2195 48.3412 2.00128C48.0566 1.87546 47.7729 1.74571 47.4993 1.59748C47.3861 1.53614 47.2744 1.47205 47.1666 1.40088C47.0792 1.34348 47.138 1.37493 47.2058 1.47166L46.8683 2.7625C48.1264 1.9368 49.9802 1.89748 51.4648 1.88686C53.0922 1.88464 54.7157 2.0476 56.3105 2.37324C59.6704 3.04166 63.0436 4.24522 65.8149 6.30514C67.1466 7.24789 68.2149 8.5176 68.9177 9.99288C69.0449 10.2076 69.2513 10.3635 69.4921 10.4269C69.7329 10.4902 69.989 10.4559 70.2048 10.3314C70.4155 10.2016 70.5684 9.99545 70.6318 9.75567C70.6952 9.5159 70.6642 9.26085 70.5454 9.04332Z" fill="#2E6669"/>
<path d="M72.0981 12.646C73.6881 13.3513 74.9438 14.7299 75.9502 16.1171C77.0672 17.5979 77.9296 19.2556 78.5017 21.0217C79.59 24.6391 79.795 28.5894 79.5716 32.342C79.4973 34.265 79.1665 36.1692 78.5879 38.004C78.196 39.1564 80.0133 39.6511 80.4017 38.5057C80.9567 36.741 81.2926 34.9143 81.4019 33.0671C81.5646 30.9836 81.5612 28.8904 81.3917 26.8075C81.2586 24.8237 80.938 22.857 80.4342 20.934C79.8826 19.0252 79.0187 17.2216 77.8777 15.5969C76.6471 13.8027 75.0786 11.9194 73.0473 11.0178C72.8301 10.8993 72.576 10.8684 72.3368 10.9313C72.0977 10.9943 71.8914 11.1464 71.7602 11.3567C71.6362 11.5732 71.6021 11.83 71.6653 12.0715C71.7284 12.313 71.8837 12.5199 72.0977 12.6475L72.0981 12.646Z" fill="#2E6669"/>
<path d="M43.3382 84.4825C47.6669 84.5981 51.9968 84.5835 56.3264 84.5572C57.5366 84.5497 57.539 82.6624 56.3264 82.6699C51.9968 82.6962 47.6669 82.7092 43.3382 82.5951C42.1271 82.5625 42.1279 84.4498 43.3382 84.4825Z" fill="#2E6669"/>
<path d="M27.7787 82.4017C24.5117 82.4803 21.2446 82.5869 17.9768 82.6258C16.7673 82.64 16.7638 84.5273 17.9768 84.5131C21.2446 84.4738 24.5117 84.3673 27.7787 84.289C28.9874 84.2599 28.9917 82.3726 27.7787 82.4017Z" fill="#2E6669"/>
<path d="M57.2827 86.8887C55.5191 87.1057 53.7366 87.1871 51.9659 87.3C49.0265 87.4867 46.0871 87.6723 43.1477 87.8111C41.9426 87.8685 41.9355 89.7562 43.1477 89.6984C46.0871 89.558 49.0293 89.3725 51.9659 89.1873C53.7366 89.0744 55.5206 88.993 57.2827 88.776C57.5298 88.7685 57.7647 88.6667 57.9395 88.4913C58.1143 88.3159 58.2158 88.0802 58.2233 87.8323C58.2219 87.5825 58.1223 87.3433 57.9462 87.1667C57.7701 86.99 57.5317 86.8901 57.2827 86.8887Z" fill="#2E6669"/>
<path d="M25.0784 88.8027C22.3193 88.96 19.528 89.0312 16.7814 89.3571C16.5343 89.3644 16.2992 89.4662 16.1244 89.6416C15.9495 89.817 15.8481 90.0528 15.8408 90.3008C15.8424 90.5506 15.942 90.7897 16.118 90.9663C16.2941 91.143 16.5324 91.2429 16.7814 91.2444C19.528 90.9185 22.3193 90.8473 25.0784 90.69C25.3261 90.6846 25.5623 90.5835 25.7375 90.4077C25.9128 90.2319 26.0136 89.995 26.019 89.7464C26.0168 89.4968 25.917 89.258 25.7411 89.0815C25.5652 88.905 25.3272 88.8049 25.0784 88.8027Z" fill="#2E6669"/>
<path d="M22.1482 101.19C22.8381 98.0986 23.8208 95.0802 25.0829 92.1762C25.712 90.6526 26.3669 89.1404 26.9524 87.5991C27.4403 86.1867 28.0475 84.8187 28.7674 83.5099C29.1284 82.8855 29.5616 82.306 30.058 81.7834C30.1779 81.6597 30.3016 81.5394 30.4291 81.4225C30.4773 81.378 30.7344 81.1594 30.6897 81.2019C30.7622 81.1331 30.5416 81.253 30.7575 81.1732C30.8445 81.1413 30.9308 81.1083 31.0182 81.0784C31.413 80.9456 31.8151 80.8357 32.2225 80.7493C32.4472 80.7003 32.6727 80.656 32.899 80.6164C33.01 80.5973 33.1211 80.5789 33.2321 80.5614C33.2968 80.5512 33.3619 80.5417 33.4281 80.5319C33.4512 80.5284 33.6601 80.4996 33.5257 80.5173C35.6525 80.1998 37.8176 80.2455 39.9293 80.6526C40.1989 80.7128 40.467 80.7816 40.7311 80.863C40.8652 80.9023 40.998 80.9483 41.1293 80.9962C41.1955 81.0202 41.5016 81.1464 41.3645 81.0851C41.584 81.1816 41.7969 81.2926 42.0017 81.4174C42.104 81.4803 42.2036 81.5467 42.3004 81.6179C42.1503 81.5074 42.3572 81.6674 42.4078 81.7138C42.4901 81.7893 42.5626 81.8731 42.6429 81.9517C42.7895 82.0972 42.6155 81.8695 42.7166 82.0472C42.7695 82.14 42.8255 82.2313 42.8777 82.3244C42.9012 82.3669 42.9408 82.488 42.869 82.295C42.8804 82.3256 42.9223 82.3984 42.9169 82.4306C42.898 82.5423 42.9114 82.4896 42.9169 82.4534C42.9036 82.5031 42.8857 82.5515 42.8632 82.5977C42.7952 82.7223 42.7101 82.8366 42.6104 82.9374C42.402 83.1294 42.1324 83.2409 41.8497 83.252C40.6437 83.3055 40.6371 85.1928 41.8497 85.1393C43.4173 85.0701 45.3299 83.548 44.684 81.794C44.2891 80.8186 43.5405 80.0296 42.5888 79.5859C40.4446 78.4987 37.8356 78.3607 35.4774 78.4637C34.2613 78.5115 33.051 78.6581 31.8584 78.9021C31.4065 78.9934 30.9605 79.1127 30.5232 79.2591C29.927 79.4591 29.3854 79.7957 28.9414 80.2421C26.4664 82.6319 25.6606 86.0833 24.3308 89.1388C22.7024 92.8812 21.1618 96.6802 20.3395 100.692C20.2792 100.933 20.3138 101.188 20.4361 101.404C20.5585 101.621 20.7591 101.781 20.9964 101.853C21.2369 101.917 21.4929 101.884 21.7092 101.761C21.9256 101.637 22.0851 101.434 22.1533 101.194L22.1482 101.19Z" fill="#2E6669"/>
<path d="M32.4612 86.102C33.715 85.3967 35.0885 84.931 36.5117 84.7286C36.8963 84.6669 37.2844 84.6295 37.6737 84.6166C38.0827 84.6306 38.4903 84.6732 38.8934 84.744C39.638 84.8336 40.3827 84.9126 41.1191 85.0471C42.2263 85.2484 43.6137 85.5453 44.5163 86.266C44.672 86.3548 44.7916 86.4957 44.8543 86.664C44.917 86.8323 44.9187 87.0174 44.8592 87.1869C44.7772 87.3766 44.6381 87.5359 44.4613 87.6424C44.2846 87.7488 44.079 87.7972 43.8735 87.7806C43.6333 87.7227 43.3802 87.7585 43.1653 87.8809C42.9505 88.0032 42.7901 88.203 42.7166 88.4396C42.6519 88.6808 42.6846 88.9379 42.8076 89.1552C42.9305 89.3724 43.1338 89.5323 43.3734 89.6003C44.8204 89.7969 46.2932 89.0942 46.7008 87.595C47.0951 86.1449 46.1427 84.941 44.9188 84.3048C43.7076 83.7101 42.4084 83.3161 41.0717 83.1382C40.271 83.0163 39.4648 82.9294 38.6614 82.8307C38.3054 82.7672 37.9444 82.7356 37.5828 82.7363C37.1125 82.7631 36.6473 82.8173 36.1825 82.885C34.5396 83.1153 32.9547 83.6537 31.5104 84.4723C30.4612 85.0778 31.4077 86.7091 32.46 86.102H32.4612Z" fill="#2E6669"/>
<path d="M35.9181 89.8517C36.0388 89.7338 35.7558 89.9304 35.9232 89.8431C35.9933 89.8065 36.0596 89.7593 36.1293 89.7212C36.2763 89.6426 36.5169 89.5337 36.5742 89.5101C36.9661 89.3489 37.3713 89.2116 37.7762 89.0835C38.6352 88.7732 39.5575 88.6817 40.4604 88.8173C40.9318 88.9177 41.396 89.049 41.8502 89.2105C42.2127 89.3052 42.552 89.4737 42.8468 89.7055C42.9418 89.8046 43.0116 89.9253 43.0501 90.0573C43.0887 90.1893 43.0949 90.3286 43.0683 90.4636C43.004 90.8904 42.7733 91.2743 42.4271 91.5307C42.2521 91.7084 42.154 91.9481 42.154 92.1979C42.154 92.4477 42.2521 92.6874 42.4271 92.8652C42.6062 93.0369 42.8444 93.1328 43.0922 93.1328C43.34 93.1328 43.5782 93.0369 43.7573 92.8652C44.8417 91.9832 45.3159 90.2658 44.6485 88.9989C44.032 87.8292 42.6497 87.469 41.479 87.1269C40.1732 86.7635 38.7904 86.7877 37.4979 87.1965C36.5373 87.4879 35.3263 87.7989 34.5879 88.5192C33.7182 89.3673 35.0492 90.701 35.9181 89.8537V89.8517Z" fill="#2E6669"/>
<path d="M31.5257 105.254C32.5028 104.782 33.2741 103.972 34.1594 103.359C35.0847 102.717 36.0822 102.167 36.6924 101.18C37.2305 100.311 37.4433 99.2727 37.896 98.3586C38.1277 97.7734 38.5326 97.2735 39.0561 96.9262C40.2808 96.194 41.7631 96.3887 43.065 95.8767C45.0062 95.1135 45.2206 92.2492 43.2716 91.3452C42.2194 90.8845 41.0666 90.7038 39.9246 90.8207C38.7139 90.9387 37.7377 91.4659 36.7061 92.0648C35.6585 92.6726 36.6046 94.3059 37.6554 93.6945C38.3698 93.2797 39.0502 92.826 39.8893 92.7116C40.6591 92.6172 41.4403 92.6931 42.1777 92.9341C42.3027 92.9721 42.4235 93.0227 42.5383 93.0851C42.5414 93.0851 42.7386 93.2494 42.6621 93.17C42.7333 93.2769 42.7728 93.4019 42.776 93.5305C42.7792 93.6591 42.746 93.7859 42.6802 93.8962C42.6462 93.9524 42.6069 94.0051 42.5626 94.0535C42.5865 94.0248 42.7331 93.9501 42.5755 94.0382C42.5171 94.0811 42.4503 94.1111 42.3796 94.1263C42.0517 94.2293 41.7171 94.3091 41.3782 94.3653C40.7476 94.4801 40.0872 94.5226 39.4703 94.6987C38.7782 94.899 38.1317 95.2329 37.5672 95.6817C36.295 96.7013 35.947 98.3342 35.3191 99.7536C34.8919 100.718 34.0379 101.158 33.209 101.731C32.3241 102.342 31.55 103.154 30.5753 103.627C30.3616 103.754 30.2065 103.961 30.1433 104.203C30.0802 104.444 30.1142 104.701 30.2379 104.918C30.3674 105.13 30.5736 105.284 30.8134 105.347C31.0532 105.41 31.308 105.377 31.5245 105.256L31.5257 105.254Z" fill="#2E6669"/>
<path d="M67.7544 121.602C68.1032 121.822 68.5265 122.093 68.9929 122.4" stroke="#2E6669" stroke-width="1.2" stroke-miterlimit="10"/>
<path d="M44.6288 105.47C45.4048 106.247 46.4979 106.685 47.5075 107.059C48.8493 107.541 50.228 107.914 51.6301 108.172C54.7833 108.759 58.0057 108.875 61.1929 108.517C63.0655 108.39 64.9042 107.953 66.6351 107.225C66.8491 107.097 67.0044 106.89 67.0676 106.649C67.1307 106.407 67.0966 106.15 66.9726 105.934C66.8427 105.722 66.6366 105.569 66.3969 105.506C66.1572 105.443 65.9026 105.475 65.6859 105.595C64.3592 106.144 62.9549 106.481 61.5241 106.594C59.9219 106.775 58.3103 106.86 56.698 106.847C53.9823 106.802 51.2893 106.342 48.7118 105.483C48.1288 105.302 47.5598 105.079 47.0093 104.814C46.7859 104.705 46.5686 104.584 46.3584 104.452C46.3047 104.417 46.0644 104.244 46.1271 104.294C46.2024 104.356 45.999 104.174 45.9598 104.137C45.1023 103.277 43.7717 104.611 44.6296 105.471L44.6288 105.47Z" fill="#2E6669"/>
<path d="M63.2757 116.449C64.3894 115.766 65.3949 114.919 66.2586 113.937C67.1422 112.912 67.8162 111.722 68.2425 110.436C68.3072 110.194 68.2745 109.937 68.1515 109.72C68.0286 109.503 67.8253 109.343 67.5857 109.275C67.3453 109.215 67.0912 109.25 66.8761 109.373C66.661 109.496 66.5015 109.698 66.4307 109.936C66.3833 110.075 66.3343 110.214 66.2821 110.352C66.2531 110.428 66.2237 110.504 66.1924 110.579C66.2316 110.486 66.1896 110.584 66.1732 110.621C66.0486 110.897 65.9141 111.169 65.7632 111.432C65.6254 111.671 65.4751 111.903 65.3129 112.127C65.2698 112.187 65.2259 112.247 65.1808 112.306C65.2416 112.227 65.2004 112.28 65.1624 112.327C65.0668 112.445 64.9704 112.56 64.8704 112.674C64.5 113.094 64.0998 113.487 63.6731 113.849C63.5527 113.952 63.4304 114.052 63.3063 114.15C63.3847 114.089 63.3035 114.15 63.2706 114.177C63.2071 114.225 63.1432 114.272 63.079 114.318C62.8348 114.495 62.584 114.662 62.3284 114.821C62.113 114.948 61.9564 115.155 61.8931 115.397C61.8298 115.639 61.8649 115.896 61.9908 116.112C62.1167 116.329 62.323 116.486 62.5643 116.549C62.8056 116.613 63.0623 116.577 63.2777 116.451L63.2757 116.449Z" fill="#2E6669"/>
<path d="M44.3532 104.802C44.0457 107.378 44.5258 109.987 45.7301 112.284C47.1178 114.892 49.6939 116.626 52.4237 117.594C52.5428 117.627 52.6672 117.636 52.7898 117.621C52.9124 117.606 53.0309 117.566 53.1383 117.505C53.2458 117.444 53.3401 117.362 53.4161 117.264C53.492 117.166 53.548 117.054 53.5808 116.935C53.6136 116.815 53.6227 116.691 53.6074 116.568C53.5922 116.445 53.5529 116.326 53.4919 116.218C53.4309 116.11 53.3493 116.015 53.2518 115.939C53.1544 115.863 53.0429 115.807 52.9237 115.774C50.5899 114.948 48.441 113.445 47.2903 111.208C46.311 109.226 45.9434 106.995 46.2345 104.802C46.2331 104.552 46.1336 104.313 45.9575 104.136C45.7814 103.96 45.5429 103.86 45.2938 103.858C45.0462 103.864 44.8104 103.966 44.6352 104.141C44.4601 104.317 44.3591 104.554 44.3532 104.802Z" fill="#2E6669"/>
<path d="M47.0511 104.28C46.7917 102.673 48.0446 100.884 49.7499 100.917C50.0131 100.954 50.2811 100.928 50.5323 100.841C50.7834 100.754 51.0104 100.608 51.1949 100.416C51.5084 100.055 51.6001 99.5274 51.8565 99.1189C52.2924 98.4164 52.9739 97.9024 53.7676 97.6775C54.5613 97.4526 55.4102 97.5329 56.148 97.9027C56.515 98.1098 56.8569 98.3588 57.167 98.6447C57.4117 98.8606 57.7196 98.9913 58.0445 99.0173C58.3694 99.0434 58.694 98.9632 58.9698 98.789C59.2512 98.577 59.5631 98.4092 59.8947 98.2912C60.2204 98.2106 60.5607 98.2106 60.8863 98.2912C61.1782 98.3565 61.4542 98.4797 61.698 98.6537C61.9809 98.9283 62.2262 99.2394 62.4273 99.5789C62.8976 100.162 63.4126 100.112 64.0804 100.208C64.4545 100.288 64.7965 100.478 65.0634 100.753C65.7565 101.467 66.2529 102.35 66.5041 103.315C66.8619 104.471 68.6788 103.977 68.3179 102.813C67.6971 100.808 66.3547 98.4548 64.0134 98.3171C63.9303 98.3124 63.8433 98.3234 63.7626 98.3207L63.8951 98.4151C63.8441 98.3337 63.7951 98.2515 63.7473 98.1677C63.6152 97.9586 63.4653 97.7612 63.2993 97.578C62.9582 97.2135 62.5463 96.9229 62.0891 96.7239C61.1681 96.2979 60.1214 96.2336 59.1556 96.5439C58.9206 96.6236 58.6937 96.7255 58.4779 96.8482C58.4047 96.891 58.3369 96.9386 58.2671 96.9858L58.1456 97.0751C57.9104 97.1933 57.9904 97.2406 58.3854 97.217C58.3992 97.1356 57.7866 96.7094 57.7411 96.6752C57.4974 96.4939 57.2365 96.3373 56.962 96.2077C55.9075 95.7024 54.718 95.5539 53.5723 95.7846C52.8046 95.9578 52.0852 96.3005 51.4662 96.7878C50.8473 97.2752 50.3445 97.8949 49.9944 98.6018C49.8961 98.7496 49.8258 98.9144 49.7871 99.0878L49.7377 99.2211L50.0438 99.0449C49.9976 98.9451 49.2267 99.063 49.1236 99.0792C46.4029 99.5069 44.8144 102.16 45.2385 104.783C45.3064 105.023 45.4658 105.227 45.6823 105.351C45.8988 105.474 46.155 105.507 46.3954 105.442C46.6328 105.371 46.8334 105.21 46.9558 104.994C47.0781 104.778 47.1127 104.523 47.0523 104.281L47.0511 104.28Z" fill="#2E6669"/>
<path d="M54.1869 102.744C54.1833 102.712 54.1833 102.68 54.1869 102.648L54.1536 102.899C54.1589 102.867 54.1674 102.836 54.179 102.806L54.0842 103.031C54.102 102.993 54.1235 102.957 54.1485 102.923L54.0011 103.114C54.0491 103.055 54.1037 103.002 54.1638 102.956L53.9733 103.104C54.1064 103.007 54.2503 102.927 54.402 102.864L54.1775 102.959C54.422 102.852 54.6788 102.776 54.9421 102.733L54.6921 102.766C54.9134 102.739 55.1373 102.74 55.3583 102.77L55.1083 102.736C55.2942 102.759 55.4763 102.806 55.6503 102.875L55.4257 102.78C55.5151 102.819 55.5997 102.868 55.6777 102.927L55.4873 102.779C55.5779 102.876 55.6807 102.96 55.793 103.029C55.9554 103.12 56.1407 103.161 56.3261 103.148C56.5115 103.135 56.6892 103.068 56.8374 102.956C56.9851 102.842 57.0959 102.687 57.1559 102.511C57.2158 102.334 57.2223 102.144 57.1745 101.964C57.1266 101.8 57.0397 101.651 56.9213 101.529L57.0687 101.72L57.0608 101.707C56.9985 101.6 56.9157 101.506 56.8173 101.431C56.7189 101.356 56.6067 101.302 56.4872 101.27C56.3677 101.239 56.2432 101.231 56.1209 101.248C55.9985 101.265 55.8806 101.306 55.774 101.368C55.6673 101.431 55.574 101.514 55.4993 101.613C55.4247 101.711 55.3701 101.824 55.3388 101.944C55.3075 102.064 55.3 102.189 55.3168 102.311C55.3336 102.434 55.3744 102.553 55.4367 102.659C55.4865 102.735 55.5413 102.808 55.6009 102.876L55.3591 102.46V102.465L56.7406 101.4L56.7238 101.391L56.9139 101.539C56.4903 101.139 55.9376 100.906 55.3568 100.882C54.9718 100.838 54.5819 100.864 54.2065 100.961C53.8312 101.05 53.4716 101.196 53.1401 101.393C52.8912 101.521 52.6819 101.714 52.5348 101.952C52.3877 102.19 52.3084 102.464 52.3057 102.744C52.3129 102.993 52.4105 103.231 52.58 103.413C52.7564 103.59 52.9956 103.689 53.2451 103.689C53.4945 103.689 53.7338 103.59 53.9102 103.413C53.9988 103.326 54.0688 103.222 54.116 103.107C54.1631 102.992 54.1865 102.869 54.1845 102.744H54.1869Z" fill="#2E6669"/>
<path d="M73.4672 107.624C72.3235 106.942 71.5973 105.824 70.8766 104.74C70.119 103.6 69.1086 102.453 67.7071 102.162C67.3307 102.063 66.9356 102.062 66.5586 102.158C66.1816 102.254 65.8351 102.445 65.5516 102.712C65.075 103.261 64.8307 103.975 64.8704 104.701C64.8967 105.996 65.4747 107.181 65.8529 108.393C66.2382 109.53 66.5524 110.69 66.7935 111.866C66.8616 112.106 67.0211 112.31 67.2375 112.433C67.454 112.557 67.71 112.589 67.9505 112.525C68.188 112.454 68.3889 112.293 68.5112 112.077C68.6336 111.861 68.6681 111.605 68.6074 111.364C68.442 110.43 68.1143 109.526 67.8654 108.612C67.5911 107.605 67.1843 106.641 66.9131 105.634C66.8533 105.421 66.8059 105.206 66.7712 104.988C66.7582 104.874 66.7518 104.759 66.752 104.645C66.7603 104.566 66.7633 104.488 66.761 104.409C66.8394 103.966 66.984 103.915 67.3881 104.027C68.3902 104.305 69.0063 105.31 69.5346 106.133C70.2777 107.389 71.2988 108.458 72.5191 109.256C73.5624 109.878 74.5097 108.247 73.4687 107.626L73.4672 107.624Z" fill="#2E6669"/>
<path d="M64.1258 114.127C61.4035 115.272 58.496 115.909 55.5459 116.007C54.8856 115.991 54.2269 115.933 53.5737 115.835C52.8154 115.756 52.057 115.669 51.2982 115.589C49.9728 115.449 48.4129 115.137 47.1102 115.529C45.5057 116.012 44.7704 117.837 45.3226 119.378C45.8063 120.728 47.0992 121.221 48.3796 121.54C50.8095 122.147 53.3448 122.252 55.83 122.454C59.71 122.769 63.5849 122.343 67.47 122.415C68.6811 122.437 68.6814 120.549 67.47 120.527C64.1152 120.467 60.7627 120.805 57.4075 120.674C55.1255 120.599 52.8497 120.393 50.5912 120.057C49.9994 119.965 49.4088 119.856 48.8276 119.708C48.5724 119.643 48.3181 119.571 48.07 119.486C47.9646 119.45 47.8595 119.412 47.7564 119.368C47.6534 119.324 47.7564 119.368 47.7745 119.376C47.7106 119.346 47.6471 119.316 47.5848 119.283C46.7959 118.872 46.8178 117.531 47.7286 117.317C48.3294 117.226 48.9403 117.224 49.5416 117.312C50.175 117.358 50.8068 117.425 51.4385 117.492C52.7475 117.63 54.0742 117.852 55.391 117.893C56.0467 117.883 56.7012 117.833 57.3506 117.742C58.0843 117.67 58.8168 117.579 59.5434 117.454C61.2863 117.137 62.9899 116.632 64.6243 115.947C64.8606 115.874 65.0601 115.713 65.1822 115.497C65.3043 115.282 65.3397 115.027 65.2811 114.786C65.2135 114.546 65.0541 114.342 64.8376 114.219C64.621 114.095 64.3647 114.062 64.1242 114.127L64.1258 114.127Z" fill="#2E6669"/>
<path d="M72.8919 109.547C72.955 109.592 73.1808 109.792 72.9738 109.603C73.0365 109.66 73.1059 109.711 73.1698 109.766C73.3054 109.884 73.4353 110.008 73.5594 110.138C73.684 110.268 73.7977 110.406 73.9141 110.543C73.9893 110.632 73.7722 110.351 73.8882 110.51C73.9105 110.54 73.9333 110.571 73.9552 110.601C74.0106 110.678 74.0639 110.757 74.1151 110.837C74.2076 110.98 74.294 111.126 74.3742 111.277C74.4185 111.36 74.4612 111.445 74.5015 111.53C74.518 111.564 74.5337 111.598 74.5494 111.633C74.558 111.652 74.6348 111.83 74.5693 111.676C74.5039 111.523 74.5725 111.688 74.5854 111.721C74.6023 111.765 74.6183 111.81 74.6344 111.854C74.6626 111.933 74.6897 112.015 74.7148 112.096C74.77 112.277 74.8155 112.46 74.8539 112.647C74.9214 112.887 75.0808 113.091 75.2974 113.215C75.5139 113.338 75.7703 113.371 76.0108 113.306C76.2481 113.234 76.4488 113.074 76.5711 112.857C76.6934 112.641 76.728 112.386 76.6677 112.145C76.2909 110.429 75.281 108.92 73.8408 107.92C73.6252 107.795 73.369 107.761 73.128 107.824C72.887 107.887 72.6807 108.044 72.5541 108.259C72.4345 108.477 72.4028 108.732 72.4656 108.972C72.5285 109.213 72.6809 109.42 72.8915 109.55L72.8919 109.547Z" fill="#2E6669"/>
<path d="M96.772 137.332C95.3297 137.785 93.8253 138.007 92.3143 137.989C90.3846 138.029 88.4593 137.789 86.5981 137.276C85.5851 136.999 84.6044 136.614 83.6724 136.129C82.6422 135.542 81.646 134.897 80.6887 134.197C78.8209 132.918 76.9628 131.625 75.1145 130.317C73.6095 129.245 72.1159 128.157 70.6466 127.036C70.0587 126.587 69.4865 126.14 68.8888 125.662C68.7485 125.55 68.6085 125.437 68.4687 125.324C68.3836 125.255 68.1689 125.007 68.0556 124.988L68.1026 125.446L68.306 125.139C68.3742 125.037 68.4422 124.934 68.5098 124.832C68.7144 124.523 68.9189 124.213 69.1232 123.904C70.605 121.658 72.0791 119.408 73.584 117.177C74.3106 116.101 75.046 115.03 75.7901 113.966C76.1382 113.47 76.4892 112.976 76.8432 112.484C77.018 112.241 77.1937 111.999 77.3704 111.757C77.6121 111.496 77.8241 111.209 78.0025 110.9L78.108 110.759C77.5548 110.715 77.394 110.755 77.6255 110.879C77.694 110.934 77.7681 110.981 77.8465 111.019C78.0104 111.124 78.1738 111.229 78.3368 111.334C78.7194 111.581 79.1007 111.831 79.4809 112.084C80.3906 112.685 81.2974 113.291 82.2012 113.902C83.9938 115.109 85.7802 116.325 87.5736 117.532C88.582 118.21 89.525 116.576 88.5232 115.902C85.2617 113.709 82.0401 111.447 78.7205 109.341C78.4942 109.166 78.2234 109.058 77.9388 109.028C77.6542 108.999 77.3671 109.051 77.1101 109.177C76.5383 109.485 76.1221 110.289 75.7459 110.805C74.922 111.932 74.1148 113.071 73.3242 114.223C71.7271 116.539 70.1775 118.887 68.6298 121.235C68.2527 121.807 67.8757 122.379 67.4987 122.951C67.1173 123.529 66.5322 124.17 66.3261 124.834C65.9733 125.975 67.1075 126.639 67.8573 127.233C69.3048 128.382 70.7768 129.499 72.2734 130.583C74.0708 131.894 75.8913 133.172 77.7211 134.436C79.834 135.898 81.8951 137.503 84.2878 138.476C86.5955 139.377 89.0471 139.85 91.5234 139.873C93.4665 139.959 95.4101 139.715 97.2721 139.151C98.4149 138.769 97.925 136.945 96.772 137.331V137.332Z" fill="#2E6669"/>
<path d="M36.9421 73.6253C38.0656 73.107 39.1871 72.5868 40.3064 72.0647C40.5763 71.9644 40.8383 71.844 41.0902 71.7045C40.8446 71.8057 40.8219 71.8174 41.022 71.7395C41.102 71.7073 41.1815 71.6741 41.2607 71.64C41.4175 71.5744 41.5699 71.5075 41.7181 71.4273C42.2755 71.1302 42.746 70.6923 43.0832 70.1569C43.4204 69.6216 43.6126 69.0072 43.6408 68.3746C43.847 67.0452 44.0759 65.7233 44.1782 64.3802C44.176 64.1306 44.0762 63.8918 43.9003 63.7153C43.7244 63.5388 43.4864 63.4387 43.2376 63.4365C42.9896 63.4414 42.7531 63.5423 42.5778 63.7183C42.4024 63.8942 42.3018 64.1314 42.2969 64.3802C42.2076 65.5554 42.0069 66.7098 41.8266 67.8729C41.7802 68.2641 41.6896 68.6487 41.5566 69.0194C41.6248 68.8496 41.5221 69.0804 41.5033 69.1142C41.4845 69.148 41.3442 69.3647 41.3787 69.3198C41.2816 69.427 41.1768 69.5269 41.0651 69.6187C40.4614 69.9714 39.8294 70.2729 39.1757 70.5202C38.1159 71.0125 37.0559 71.5043 35.9957 71.9955C35.7817 72.1232 35.6264 72.3301 35.5632 72.5717C35.5001 72.8133 35.5342 73.0702 35.6582 73.2867C35.7881 73.4984 35.9943 73.6516 36.2339 73.7147C36.4736 73.7777 36.7282 73.7457 36.9449 73.6253H36.9421Z" fill="#2E6669"/>
<path d="M64.0703 64.3726C64.186 65.8563 64.3858 67.3323 64.6688 68.7932C64.7656 69.3831 65.0037 69.9405 65.3628 70.4176C65.722 70.8946 66.1912 71.277 66.7303 71.5318C66.9262 71.6254 67.1645 71.6788 67.3515 71.7901C67.0379 71.6037 67.1206 71.6871 67.2139 71.7339C67.3162 71.7846 67.4212 71.8298 67.5247 71.8782C67.9629 72.0837 68.4006 72.2904 68.838 72.4982C69.9221 73.0117 71.0056 73.5264 72.0886 74.0423C72.3055 74.1619 72.5598 74.1934 72.7992 74.1304C73.0386 74.0674 73.2448 73.9147 73.3753 73.7038C73.4991 73.4871 73.5331 73.2304 73.47 72.9889C73.4068 72.7473 73.2516 72.5403 73.0378 72.4125C71.3898 71.6285 69.7535 70.8056 68.084 70.0683C67.6239 69.9205 67.2058 69.6644 66.8647 69.3213C66.9431 69.416 66.7593 69.1565 66.7405 69.1223C66.7107 69.0683 66.6829 69.0133 66.657 68.9572C66.6852 69.0277 66.6876 69.0317 66.664 68.9694C66.585 68.7485 66.5244 68.5213 66.483 68.2903C66.2317 66.9952 66.0543 65.6868 65.9515 64.3714C65.9455 64.123 65.8444 63.8865 65.6693 63.7109C65.4942 63.5352 65.2585 63.4338 65.0109 63.4277C64.7621 63.4297 64.5239 63.5297 64.348 63.7063C64.172 63.8828 64.0723 64.1217 64.0703 64.3714V64.3726Z" fill="#2E6669"/>
<path d="M97.2723 139.152C101.583 137.797 103.582 132.79 104.117 128.693C104.459 126.068 104.281 123.323 104.135 120.688C103.978 117.824 103.692 114.97 103.304 112.129C102.947 109.506 102.495 106.893 101.891 104.315C101.591 103.036 101.267 101.769 100.987 100.484C100.712 99.2321 100.37 98.014 99.9832 96.7927C99.075 93.7693 97.9845 90.804 96.7178 87.9133C95.5393 85.3285 94.1973 82.8628 92.0457 80.9538C89.9841 79.1534 87.6952 77.6331 85.238 76.4322C83.8001 75.7201 82.2986 75.1472 80.8219 74.5216C79.3326 73.8898 77.8433 73.2473 76.3579 72.6068C75.6127 72.286 74.8673 71.9658 74.1216 71.6462C73.9394 71.5511 73.7325 71.5142 73.5287 71.5406C73.3249 71.5669 73.1341 71.6553 72.9819 71.7937C72.84 71.9085 72.9274 71.8389 72.9592 71.8145C72.8965 71.8621 72.8338 71.9089 72.7699 71.9549C72.65 72.0418 72.5281 72.1255 72.4046 72.2073C72.1365 72.3839 71.8614 72.5498 71.5816 72.7071C70.9606 73.0535 70.3226 73.3684 69.6702 73.6507C68.157 74.297 66.6007 74.8364 65.0126 75.2652C61.5765 76.2825 58.0133 76.8027 54.4308 76.81C50.3965 76.7093 46.4046 75.9587 42.6077 74.5869C40.9554 74.0179 39.3513 73.3166 37.811 72.4896C37.4875 72.3137 37.1683 72.1303 36.8532 71.9392C36.4969 71.7225 36.094 71.3545 35.6625 71.3545C35.1857 71.4281 34.7237 71.5781 34.2943 71.7988C33.806 71.9789 33.3179 72.1596 32.8301 72.341C29.048 73.6971 25.3373 75.246 21.7125 76.9814C20.0161 77.7706 18.4053 78.7331 16.9056 79.8537C15.472 80.9971 14.213 82.345 13.1687 83.8544C11.4493 86.2922 10.319 89.0693 9.37252 91.8845C8.52401 94.408 7.77153 96.9653 7.04883 99.5274C6.1772 102.619 5.36083 105.726 4.62559 108.853C3.99851 111.527 3.40319 114.221 3.034 116.945C2.52058 120.733 2.3889 124.545 3.19508 128.302C3.41416 129.324 3.69321 130.329 4.01223 131.322C4.17536 131.88 4.40818 132.414 4.70515 132.912C5.47432 134.105 6.45776 135.144 7.60535 135.976C10.4589 138.1 14.2978 138.458 17.711 137.801C19.4129 137.512 21.0061 136.769 22.3239 135.651C23.5604 134.469 24.6114 133.106 25.4412 131.609C27.411 128.314 28.7463 124.689 30.1651 121.133C31.6265 117.471 33.0519 113.792 34.3437 110.065C34.634 109.227 34.9164 108.387 35.191 107.544C35.4748 106.67 35.9294 105.621 35.0096 104.949C34.4879 104.569 33.7135 104.407 33.1084 104.186C32.4494 103.946 31.7903 103.707 31.1311 103.469C28.2309 102.419 25.3268 101.38 22.4188 100.353C21.3312 99.9717 20.2432 99.5911 19.1501 99.2266C18.8143 99.1145 18.4753 98.9836 18.1311 98.8987C17.9049 98.8316 17.6658 98.8214 17.4347 98.8689C17.2036 98.9164 16.9877 99.0202 16.8061 99.1711C16.5698 99.4077 16.3817 99.6881 16.2523 99.9968C14.8355 102.793 13.5962 105.687 12.384 108.577C11.8252 109.909 11.278 111.247 10.7717 112.6C10.7076 112.841 10.7405 113.098 10.8633 113.316C10.9862 113.533 11.1892 113.693 11.4285 113.761C11.669 113.822 11.9236 113.788 12.1392 113.665C12.3549 113.542 12.5149 113.34 12.5859 113.102C13.4356 110.83 14.3887 108.594 15.3622 106.374C15.8568 105.247 16.3632 104.126 16.8813 103.011C17.1076 102.526 17.3379 102.043 17.5723 101.561C17.7173 101.265 17.8999 100.692 18.1366 100.506L17.7216 100.749C17.6663 100.771 17.5123 100.684 17.6726 100.732C17.7185 100.745 17.7639 100.76 17.8094 100.774C17.9165 100.807 18.0234 100.841 18.13 100.876C18.4286 100.972 18.7265 101.071 19.0235 101.172C19.8074 101.437 20.5912 101.709 21.3708 101.982C23.3594 102.677 25.3451 103.382 27.3279 104.097C29.2956 104.805 31.2618 105.517 33.2263 106.232C33.4184 106.302 33.61 106.384 33.8056 106.443L33.8981 106.477C34.163 106.598 34.1041 106.427 33.7213 105.966C33.6598 106.092 33.6173 106.227 33.5951 106.367C33.4211 106.915 33.2429 107.462 33.0606 108.007C32.6569 109.216 32.2378 110.42 31.8033 111.618C30.8356 114.298 29.81 116.957 28.76 119.605C27.741 122.175 26.7706 124.782 25.5996 127.28C24.597 129.419 23.4546 131.605 21.8959 133.396C21.2069 134.223 20.3439 134.886 19.3688 135.338C18.286 135.8 17.1331 136.074 15.9591 136.149C13.637 136.332 11.2263 136.071 9.22281 134.806C8.37771 134.264 7.61858 133.598 6.97083 132.83C6.7425 132.57 6.53628 132.292 6.35434 131.997C6.2693 131.863 6.18817 131.726 6.1141 131.586C6.08157 131.525 6.05257 131.463 6.02121 131.401C5.94087 131.244 6.07216 131.598 6.00397 131.355C5.62694 130.006 5.18094 128.699 4.91286 127.32C4.66754 126.051 4.52715 124.763 4.49312 123.471C4.45118 121.098 4.62315 118.725 5.00692 116.383C5.71843 112.245 6.63602 108.145 7.75624 104.099C8.77523 100.224 9.8632 96.3586 11.1318 92.5577C12.4906 88.4866 14.3229 84.5291 17.6377 81.6816C19.5805 80.0125 21.9974 78.8927 24.3066 77.8303C26.9 76.637 29.5584 75.5892 32.2273 74.5814C33.4536 74.1182 34.6839 73.6653 35.9149 73.2139L35.1902 73.1187C37.3523 74.4987 39.6765 75.6046 42.1096 76.4113C45.0193 77.4308 48.0324 78.1245 51.094 78.4799C56.6436 79.1243 62.3252 78.2196 67.6008 76.4502C69.9488 75.6639 72.3705 74.7092 74.3144 73.1329L73.1743 73.2803C76.0718 74.5201 78.9591 75.7826 81.8679 76.9948C84.3854 78.0153 86.7723 79.3339 88.9777 80.9228C90.0676 81.6859 91.0704 82.5671 91.9681 83.5505C92.7862 84.5032 93.4851 85.5526 94.0492 86.6755C95.375 89.3265 96.4943 92.0764 97.3969 94.9007C97.8477 96.2568 98.3148 97.618 98.6946 98.9966C99.0332 100.225 99.2288 101.486 99.5443 102.718C100.151 105.089 100.679 107.464 101.078 109.88C101.964 115.133 102.403 120.452 102.39 125.779C102.373 128.523 101.991 131.258 100.647 133.694C100.163 134.598 99.5343 135.417 98.7863 136.118C98.4798 136.41 98.14 136.665 97.774 136.877C97.5887 136.987 97.3979 137.088 97.2022 137.179C97.1657 137.196 96.9772 137.269 96.7746 137.333C95.6231 137.695 96.115 139.518 97.2747 139.153L97.2723 139.152Z" fill="#2E6669"/>
<path d="M53.4546 46.6045C53.2767 47.2851 53.1172 47.9724 53.0004 48.666C52.9281 48.9813 52.9245 49.3085 52.9898 49.6254C53.0383 49.8137 53.1277 49.9889 53.2516 50.1384C53.3755 50.288 53.5309 50.4082 53.7066 50.4904C54.0022 50.6452 54.3314 50.7246 54.6649 50.7216C54.8847 50.7118 55.096 50.6563 55.3119 50.6268C55.5485 50.562 55.7502 50.4067 55.8739 50.1943C55.9363 50.0873 55.9771 49.969 55.9939 49.8462C56.0107 49.7234 56.0032 49.5985 55.9719 49.4786C55.9405 49.3587 55.8859 49.2461 55.8112 49.1474C55.7365 49.0486 55.6432 48.9656 55.5365 48.9031L55.3119 48.8083C55.1483 48.7631 54.9755 48.7631 54.8118 48.8083C54.7103 48.8217 54.6108 48.8476 54.5093 48.8606L54.7597 48.8272C54.6702 48.8376 54.5799 48.8376 54.4904 48.8272L54.7405 48.861C54.6421 48.8447 54.546 48.8164 54.4544 48.7769L54.679 48.872C54.6203 48.8459 54.5635 48.8158 54.5089 48.782L54.6993 48.9294C54.6735 48.909 54.65 48.8858 54.6292 48.8602L54.7762 49.0509C54.758 49.0238 54.7422 48.9951 54.7291 48.9652L54.824 49.1905C54.809 49.1471 54.7981 49.1023 54.7914 49.0568L54.8251 49.3077C54.8164 49.2088 54.819 49.1091 54.833 49.0108L54.7997 49.2617C54.917 48.536 55.074 47.8173 55.27 47.109C55.3028 46.9895 55.3119 46.8647 55.2967 46.7417C55.2815 46.6187 55.2423 46.4999 55.1813 46.3921C55.1203 46.2843 55.0388 46.1896 54.9413 46.1134C54.8439 46.0372 54.7324 45.981 54.6133 45.9481C54.4942 45.9151 54.3698 45.906 54.2472 45.9212C54.1246 45.9365 54.0062 45.9759 53.8987 46.037C53.7913 46.0982 53.6969 46.18 53.621 46.2778C53.545 46.3756 53.489 46.4874 53.4562 46.6069L53.4546 46.6045Z" fill="#2E6669"/>
<path d="M42.6609 41.3213C42.3082 42.4717 42.5378 45.1179 44.7103 45.3432C47.5815 45.3259 47.7343 42.1265 46.7678 40.6222C45.9762 39.3903 43.6493 38.8784 42.6609 41.3213Z" fill="#2E6669"/>
<path d="M65.4406 41.3213C65.7934 42.4717 65.5637 45.1179 63.3913 45.3432C60.5205 45.3255 60.3672 42.1261 61.3337 40.6222C62.125 39.3903 64.4518 38.8784 65.4406 41.3213Z" fill="#2E6669"/>
<path d="M49.4793 56.4538C50.7095 57.6617 52.6617 58.0093 54.3113 58.0081C55.9609 58.0069 57.9134 57.6625 59.144 56.4538C60.0106 55.603 58.68 54.2689 57.8139 55.1194C57.7747 55.1587 57.5744 55.3289 57.6853 55.2408C57.7872 55.1599 57.5285 55.3454 57.4686 55.3828C57.3604 55.4496 57.2491 55.511 57.1358 55.568C57.0598 55.6073 56.9826 55.6431 56.9046 55.6769C57.0292 55.623 56.8787 55.6856 56.8262 55.704C56.0181 55.9895 55.1664 56.1305 54.3097 56.1208C53.4685 56.134 52.6316 55.9986 51.8371 55.7209C51.8328 55.7209 51.5526 55.6061 51.7156 55.6769C51.6501 55.6486 51.5855 55.6179 51.5196 55.5861C51.3934 55.5239 51.27 55.4567 51.1504 55.3828C51.0587 55.3262 50.9725 55.2629 50.8835 55.2015C51.1187 55.3631 50.8632 55.1752 50.8052 55.1194C49.939 54.2693 48.6077 55.6026 49.4746 56.4538H49.4793Z" fill="#2E6669"/>
<path d="M56.8139 54.1579C57.3512 55.6776 58.4176 57.143 59.892 57.859C60.1132 57.9806 60.3718 58.0146 60.6167 57.9542C60.7952 57.905 60.9553 57.804 61.0769 57.6639C61.1984 57.5238 61.2761 57.3509 61.3001 57.1667C61.3242 56.9825 61.2935 56.7953 61.2119 56.6285C61.1303 56.4618 61.0015 56.3229 60.8416 56.2293C60.6978 56.16 60.558 56.0824 60.4231 55.9969C60.3619 55.9581 60.3018 55.9177 60.2428 55.8758C60.2099 55.8526 60.1777 55.8282 60.1452 55.8046C60.0182 55.713 60.2882 55.9226 60.2012 55.8479C59.9564 55.6455 59.7282 55.4237 59.5189 55.1846C59.4706 55.129 59.4235 55.0726 59.3778 55.0155C59.2826 54.8975 59.3821 55.03 59.4197 55.0713C59.3938 55.04 59.3696 55.0073 59.3472 54.9734C59.2576 54.8497 59.1723 54.7226 59.0913 54.592C58.9272 54.3265 58.7831 54.0491 58.6602 53.762L58.7551 53.9873C58.7092 53.878 58.6665 53.7679 58.6269 53.6562C58.5563 53.4218 58.4031 53.2212 58.1958 53.092C58.0343 52.9972 57.8482 52.9529 57.6615 52.9648C57.4748 52.9766 57.2958 53.0441 57.1475 53.1585C56.9991 53.273 56.8882 53.4292 56.8288 53.6072C56.7695 53.7853 56.7644 53.977 56.8143 54.1579H56.8139Z" fill="#2E6669"/>
<g clip-path="url(#clip0_1030_3509)">
<path d="M109.91 25.252C122.807 25.252 145.521 25.252 162.109 25.252C165.5 25.252 168.247 28.0284 168.247 31.456C168.247 43.189 168.247 59.9394 168.246 73.0413C168.246 76.4688 165.496 79.2472 162.105 79.2472C139.381 79.2472 123.246 79.2472 109.911 79.2478C106.519 79.2478 103.771 76.4695 103.771 73.0416C103.771 63.9451 103.771 48.1219 103.771 31.4578C103.771 28.03 106.519 25.252 109.91 25.252Z" fill="white"/>
<path d="M157.501 23.2248C157.501 21.8537 156.402 20.7422 155.045 20.7422C153.689 20.7422 152.589 21.8537 152.589 23.2248V28.1925C152.589 29.5636 153.689 30.6751 155.045 30.6751C156.402 30.6751 157.501 29.5636 157.501 28.1925V23.2248Z" fill="white"/>
<path d="M119.43 23.2248C119.43 21.8537 118.33 20.7422 116.974 20.7422C115.617 20.7422 114.518 21.8537 114.518 23.2248V28.1925C114.518 29.5636 115.617 30.6751 116.974 30.6751C118.33 30.6751 119.43 29.5636 119.43 28.1925V23.2248Z" fill="white"/>
<path d="M168.247 31.4569C168.247 28.0291 165.5 25.2529 162.109 25.2529H157.501V28.1933C157.501 29.5643 156.402 30.6759 155.045 30.6759C153.689 30.6759 152.589 29.5643 152.589 28.1933V25.2529C141.545 25.2529 129.324 25.2529 119.43 25.2529V28.1933C119.43 29.5643 118.33 30.6759 116.974 30.6759C115.617 30.6759 114.517 29.5643 114.517 28.1933V25.2529H109.91C108.671 25.2529 107.517 25.6241 106.552 26.2624C104.877 27.3706 103.771 29.284 103.771 31.4588V35.3385C136.009 35.3379 168.247 35.3379 168.247 35.3379C168.247 33.9892 168.247 32.6917 168.247 31.4569Z" fill="#2E6669"/>
<path d="M121.721 42.2129H116.18C115.235 42.2129 114.469 42.9872 114.469 43.9423V49.0394C114.469 49.9946 115.235 50.7688 116.18 50.7688H121.721C122.666 50.7688 123.432 49.9946 123.432 49.0394V43.9423C123.432 42.9872 122.666 42.2129 121.721 42.2129Z" fill="#2E6669"/>
<path d="M121.721 52.7822H116.18C115.235 52.7822 114.469 53.5565 114.469 54.5117V59.6087C114.469 60.5639 115.235 61.3382 116.18 61.3382H121.721C122.666 61.3382 123.432 60.5639 123.432 59.6087V54.5117C123.432 53.5565 122.666 52.7822 121.721 52.7822Z" fill="#2E6669"/>
<path d="M121.721 63.3506H116.18C115.235 63.3506 114.469 64.1249 114.469 65.08V70.1771C114.469 71.1322 115.235 71.9065 116.18 71.9065H121.721C122.666 71.9065 123.432 71.1322 123.432 70.1771V65.08C123.432 64.1249 122.666 63.3506 121.721 63.3506Z" fill="#2E6669"/>
<path d="M119.43 25.9974H152.589C153.537 25.9974 153.539 24.5078 152.589 24.5078H119.43C118.481 24.5078 118.48 25.9974 119.43 25.9974Z" fill="#2E6669"/>
<path d="M157.501 25.9978H160.358C161.15 25.9978 161.962 25.9438 162.75 26.0313C163.909 26.1601 165.022 26.7087 165.857 27.5255C166.709 28.36 167.27 29.452 167.454 30.6378C167.552 31.2677 167.51 31.9213 167.51 32.5568C167.51 33.2591 167.51 33.961 167.51 34.6633C167.51 40.9629 167.51 47.2628 167.509 53.5624C167.509 60.0153 167.521 66.4685 167.507 72.9213C167.501 75.3686 165.987 77.5914 163.625 78.2853C162.968 78.478 162.327 78.5044 161.648 78.5044H153.548C147.207 78.5044 140.865 78.5044 134.524 78.5044C129.224 78.5044 123.924 78.5044 118.623 78.5044C116.294 78.5044 113.964 78.5044 111.635 78.5044C110.46 78.5044 109.277 78.5925 108.146 78.2077C107.075 77.8428 106.107 77.1014 105.47 76.1568C104.771 75.1215 104.508 73.9839 104.508 72.7445V32.5416C104.508 31.8027 104.466 31.0555 104.623 30.329C105.132 27.964 107.174 26.1325 109.586 26.0062C111.221 25.9205 112.88 25.9978 114.517 25.9978C115.465 25.9978 115.467 24.5082 114.517 24.5082H111.783C110.984 24.5082 110.17 24.462 109.373 24.5315C107.971 24.6541 106.668 25.1819 105.571 26.0713C104.527 26.9182 103.753 28.0903 103.348 29.3782C102.847 30.9732 103.034 32.7421 103.034 34.3905V56.346C103.034 61.911 102.994 67.4779 103.034 73.043C103.055 75.8856 104.774 78.4271 107.372 79.4996C108.601 80.007 109.875 79.9943 111.179 79.9943H114.707C119.932 79.9943 125.156 79.9943 130.381 79.9943C136.642 79.9943 142.903 79.9943 149.163 79.9943C152.794 79.9943 156.425 79.9943 160.056 79.9943C161.65 79.9943 163.232 80.0954 164.732 79.4621C165.989 78.9314 167.051 78.0467 167.818 76.9093C168.595 75.7558 168.977 74.3718 168.981 72.9825C168.985 71.4206 168.981 69.8584 168.982 68.2966C168.982 64.9429 168.983 61.5892 168.983 58.2355C168.983 51.5539 168.984 44.8723 168.984 38.1904C168.984 36.6885 168.984 35.1865 168.984 33.6845C168.984 32.2856 169.101 30.8333 168.7 29.4759C167.9 26.7658 165.517 24.8319 162.75 24.5417C161.96 24.4589 161.151 24.5082 160.358 24.5082H157.501C156.553 24.5082 156.551 25.9978 157.501 25.9978Z" fill="#2E6669"/>
<path d="M158.238 28.193C158.238 26.7909 158.238 25.3889 158.238 23.9871C158.238 23.2405 158.243 22.5376 157.924 21.8363C157.374 20.6244 156.036 19.8719 154.729 20.0181C153.338 20.1735 152.135 21.238 151.906 22.6558C151.809 23.2563 151.852 23.8844 151.852 24.4905C151.852 25.369 151.852 26.2478 151.852 27.1264C151.852 27.7486 151.801 28.4102 151.957 29.0178C152.344 30.5204 153.831 31.5724 155.361 31.4002C156.995 31.2161 158.203 29.8479 158.238 28.1933C158.259 27.2344 156.785 27.2347 156.765 28.1933C156.745 29.1441 156 29.9292 155.045 29.9311C154.195 29.9326 153.433 29.2688 153.335 28.4074C153.285 27.9677 153.326 27.5025 153.326 27.0615V24.7347C153.326 24.24 153.318 23.7448 153.326 23.2501C153.339 22.4218 153.866 21.7227 154.671 21.5287C155.522 21.3236 156.426 21.8564 156.684 22.6974C156.819 23.1381 156.765 23.6489 156.765 24.1047C156.765 25.4677 156.765 26.8303 156.765 28.1933C156.765 29.1519 158.238 29.1534 158.238 28.1933L158.238 28.193Z" fill="#2E6669"/>
<path d="M120.166 28.193C120.166 26.7909 120.166 25.3889 120.166 23.9871C120.166 23.2405 120.171 22.5376 119.853 21.8363C119.302 20.6244 117.964 19.8719 116.657 20.0181C115.267 20.1735 114.064 21.238 113.835 22.6558C113.737 23.2563 113.78 23.8844 113.78 24.4905C113.78 25.369 113.78 26.2478 113.78 27.1264C113.78 27.7486 113.73 28.4102 113.886 29.0178C114.272 30.5204 115.76 31.5724 117.29 31.4002C118.924 31.2161 120.132 29.8479 120.167 28.1933C120.187 27.2344 118.714 27.2347 118.693 28.1933C118.673 29.1441 117.929 29.9292 116.974 29.9311C116.123 29.9326 115.362 29.2688 115.263 28.4074C115.213 27.9677 115.255 27.5025 115.255 27.0615V24.7347C115.255 24.24 115.247 23.7448 115.255 23.2501C115.267 22.4218 115.795 21.7227 116.6 21.5287C117.451 21.3236 118.355 21.8564 118.613 22.6974C118.748 23.1381 118.693 23.6489 118.693 24.1047C118.693 25.4677 118.693 26.8303 118.693 28.1933C118.693 29.1519 120.167 29.1534 120.167 28.1933L120.166 28.193Z" fill="#2E6669"/>
<path d="M103.771 36.0823H168.247C169.196 36.0823 169.197 34.5928 168.247 34.5928H103.771C102.823 34.5928 102.822 36.0823 103.771 36.0823Z" fill="#2E6669"/>
<path d="M155.838 42.2129H150.297C149.352 42.2129 148.586 42.9872 148.586 43.9423V49.0394C148.586 49.9946 149.352 50.7688 150.297 50.7688H155.838C156.783 50.7688 157.55 49.9946 157.55 49.0394V43.9423C157.55 42.9872 156.783 42.2129 155.838 42.2129Z" fill="#2E6669"/>
<path d="M144.466 42.2129H138.925C137.98 42.2129 137.214 42.9872 137.214 43.9423V49.0394C137.214 49.9946 137.98 50.7688 138.925 50.7688H144.466C145.411 50.7688 146.177 49.9946 146.177 49.0394V43.9423C146.177 42.9872 145.411 42.2129 144.466 42.2129Z" fill="#2E6669"/>
<path d="M133.093 42.2129H127.552C126.607 42.2129 125.841 42.9872 125.841 43.9423V49.0394C125.841 49.9946 126.607 50.7688 127.552 50.7688H133.093C134.038 50.7688 134.804 49.9946 134.804 49.0394V43.9423C134.804 42.9872 134.038 42.2129 133.093 42.2129Z" fill="#2E6669"/>
<path d="M155.838 52.7822H150.297C149.352 52.7822 148.586 53.5565 148.586 54.5117V59.6087C148.586 60.5639 149.352 61.3382 150.297 61.3382H155.838C156.783 61.3382 157.55 60.5639 157.55 59.6087V54.5117C157.55 53.5565 156.783 52.7822 155.838 52.7822Z" fill="#2E6669"/>
<path d="M144.466 52.7822H138.925C137.98 52.7822 137.214 53.5565 137.214 54.5117V59.6087C137.214 60.5639 137.98 61.3382 138.925 61.3382H144.466C145.411 61.3382 146.177 60.5639 146.177 59.6087V54.5117C146.177 53.5565 145.411 52.7822 144.466 52.7822Z" fill="#2E6669"/>
<path d="M133.093 52.7822H127.552C126.607 52.7822 125.841 53.5565 125.841 54.5117V59.6087C125.841 60.5639 126.607 61.3382 127.552 61.3382H133.093C134.038 61.3382 134.804 60.5639 134.804 59.6087V54.5117C134.804 53.5565 134.038 52.7822 133.093 52.7822Z" fill="#2E6669"/>
<path d="M155.838 63.3506H150.297C149.352 63.3506 148.586 64.1249 148.586 65.08V70.1771C148.586 71.1322 149.352 71.9065 150.297 71.9065H155.838C156.783 71.9065 157.55 71.1322 157.55 70.1771V65.08C157.55 64.1249 156.783 63.3506 155.838 63.3506Z" fill="#2E6669"/>
<path d="M144.466 63.3506H138.925C137.98 63.3506 137.214 64.1249 137.214 65.08V70.1771C137.214 71.1322 137.98 71.9065 138.925 71.9065H144.466C145.411 71.9065 146.177 71.1322 146.177 70.1771V65.08C146.177 64.1249 145.411 63.3506 144.466 63.3506Z" fill="#2E6669"/>
<path d="M133.093 63.3506H127.552C126.607 63.3506 125.841 64.1249 125.841 65.08V70.1771C125.841 71.1322 126.607 71.9065 127.552 71.9065H133.093C134.038 71.9065 134.804 71.1322 134.804 70.1771V65.08C134.804 64.1249 134.038 63.3506 133.093 63.3506Z" fill="#2E6669"/>
</g>
<defs>
<clipPath id="clip0_1030_3509">
<rect width="66" height="60" fill="white" transform="translate(103 20)"/>
</clipPath>
</defs>
</svg>
