<svg width="372" height="691" viewBox="0 0 372 691" fill="none" xmlns="http://www.w3.org/2000/svg">
<g filter="url(#filter0_f_956_3237)">
<path d="M448.833 5C467.334 5.0004 482.333 19.9987 482.333 38.5V44.7744H494.6C547.845 44.7746 591.01 87.9389 591.01 141.185V588.965C591.01 642.211 547.845 685.375 494.6 685.375H101.41C48.1643 685.375 5.00006 642.211 5 588.965V141.185C5.00024 87.9389 48.1644 44.7745 101.41 44.7744H113.678V38.5C113.678 19.9985 128.676 5 147.178 5C165.679 5.00026 180.678 19.9986 180.678 38.5V44.7744H415.333V38.5C415.333 19.9985 430.331 5 448.833 5ZM72 267.762V588.965C72.0001 605.208 85.1674 618.375 101.41 618.375H494.6C510.842 618.375 524.01 605.208 524.01 588.965V267.762H72ZM361.025 460.376C379.527 460.376 394.525 475.375 394.525 493.876C394.525 512.377 379.527 527.376 361.025 527.376H156.74C138.239 527.376 123.24 512.377 123.24 493.876C123.24 475.375 138.239 460.376 156.74 460.376H361.025ZM452.953 341.318C471.454 341.319 486.453 356.317 486.453 374.818C486.453 393.32 471.454 408.318 452.953 408.318H156.74C138.239 408.318 123.24 393.32 123.24 374.818C123.24 356.317 138.239 341.318 156.74 341.318H452.953ZM101.41 111.774C85.1675 111.775 72.0002 124.942 72 141.185V200.762H524.01V141.185C524.01 124.942 510.842 111.775 494.6 111.774H448.905C448.881 111.774 448.857 111.775 448.833 111.775C448.809 111.775 448.785 111.774 448.761 111.774H147.25C147.226 111.774 147.202 111.775 147.178 111.775C147.154 111.775 147.129 111.774 147.105 111.774H101.41Z" fill="url(#paint0_linear_956_3237)"/>
</g>
<defs>
<filter id="filter0_f_956_3237" x="0" y="0" width="596.01" height="690.375" filterUnits="userSpaceOnUse" color-interpolation-filters="sRGB">
<feFlood flood-opacity="0" result="BackgroundImageFix"/>
<feBlend mode="normal" in="SourceGraphic" in2="BackgroundImageFix" result="shape"/>
<feGaussianBlur stdDeviation="2.5" result="effect1_foregroundBlur_956_3237"/>
</filter>
<linearGradient id="paint0_linear_956_3237" x1="5" y1="345.188" x2="591.01" y2="345.188" gradientUnits="userSpaceOnUse">
<stop stop-color="#F4F7ED"/>
<stop offset="0.5" stop-color="#DDEFD7"/>
<stop offset="1" stop-color="#A6D3BC"/>
</linearGradient>
</defs>
</svg>
