<svg width="493" height="687" viewBox="0 0 493 687" fill="none" xmlns="http://www.w3.org/2000/svg">
<g filter="url(#filter0_f_956_3495)">
<path d="M415.062 57.25C434.042 57.25 452.244 64.7894 465.665 78.21C479.086 91.6305 486.625 109.833 486.625 128.812V200.5H572.5C611.954 200.5 643.938 232.484 643.938 271.938V558.188C643.938 597.641 611.954 629.625 572.5 629.625H114.5C75.0462 629.625 43.0625 597.641 43.0625 558.188V271.938C43.0625 232.484 75.0462 200.5 114.5 200.5H200.375V128.812C200.375 109.833 207.914 91.6305 221.335 78.21C234.756 64.7894 252.958 57.25 271.938 57.25H415.062ZM114.5 257.5C106.526 257.5 100.062 263.964 100.062 271.938V558.188C100.062 566.161 106.526 572.625 114.5 572.625H572.5C580.474 572.625 586.938 566.161 586.938 558.188V271.938C586.938 263.964 580.474 257.5 572.5 257.5H114.5ZM343.5 300.688C359.24 300.688 372 313.447 372 329.188V386.562H429.375C445.115 386.562 457.875 399.322 457.875 415.062C457.875 430.803 445.115 443.562 429.375 443.562H372V500.938C372 516.678 359.24 529.438 343.5 529.438C327.76 529.438 315 516.678 315 500.938V443.562H257.625C241.885 443.562 229.125 430.803 229.125 415.062C229.125 399.322 241.885 386.562 257.625 386.562H315V329.188C315 313.447 327.76 300.688 343.5 300.688ZM271.938 114.5C268.142 114.5 264.501 116.008 261.817 118.692C259.133 121.376 257.625 125.017 257.625 128.812V200.5H429.375V128.812C429.375 125.017 427.867 121.376 425.183 118.692C422.499 116.008 418.858 114.5 415.062 114.5H271.938Z" fill="url(#paint0_linear_956_3495)"/>
</g>
<defs>
<filter id="filter0_f_956_3495" x="38.0625" y="52.25" width="610.875" height="582.375" filterUnits="userSpaceOnUse" color-interpolation-filters="sRGB">
<feFlood flood-opacity="0" result="BackgroundImageFix"/>
<feBlend mode="normal" in="SourceGraphic" in2="BackgroundImageFix" result="shape"/>
<feGaussianBlur stdDeviation="2.5" result="effect1_foregroundBlur_956_3495"/>
</filter>
<linearGradient id="paint0_linear_956_3495" x1="43.0625" y1="343.438" x2="643.938" y2="343.438" gradientUnits="userSpaceOnUse">
<stop stop-color="#F4F7ED"/>
<stop offset="0.5" stop-color="#DDEFD7"/>
<stop offset="1" stop-color="#A6D3BC"/>
</linearGradient>
</defs>
</svg>
