<svg width="500" height="469" viewBox="0 0 500 469" fill="none" xmlns="http://www.w3.org/2000/svg">
<path d="M321.429 53.5714C321.429 39.3634 315.784 25.7373 305.738 15.6907C295.691 5.64412 282.065 0 267.857 0H232.143C217.935 0 204.309 5.64412 194.262 15.6907C184.216 25.7373 178.571 39.3634 178.571 53.5714V500H321.429V53.5714ZM357.143 107.143V500H482.143C486.879 500 491.421 498.119 494.77 494.77C498.119 491.421 500 486.879 500 482.143V178.571C500 159.627 492.475 141.459 479.079 128.064C465.684 114.668 447.515 107.143 428.571 107.143H357.143ZM71.4286 214.286H142.857V500H17.8571C13.1211 500 8.5791 498.119 5.23024 494.77C1.88138 491.421 0 486.879 0 482.143V285.714C0 266.77 7.52549 248.602 20.9209 235.207C34.3164 221.811 52.4845 214.286 71.4286 214.286Z" fill="url(#paint0_linear_956_7362)"/>
<defs>
<linearGradient id="paint0_linear_956_7362" x1="0" y1="250" x2="500" y2="250" gradientUnits="userSpaceOnUse">
<stop stop-color="#F4F7ED"/>
<stop offset="0.5" stop-color="#DDEFD7"/>
<stop offset="1" stop-color="#A6D3BC"/>
</linearGradient>
</defs>
</svg>
