<svg width="278" height="141" viewBox="0 0 278 141" fill="none" xmlns="http://www.w3.org/2000/svg">
<path d="M232.489 49.3261C232.266 50.7313 231.9 52.1101 231.398 53.4411C229.959 57.1253 227.754 60.4598 224.929 63.2225C224.929 63.7835 224.929 64.1752 224.929 64.1752C224.417 64.5913 218.316 69.8013 215.417 72.2268L213.641 72.3396C210.308 70.5604 203.274 66.7129 202.687 66.4115V66.2192C200.436 65.1731 198.407 63.7017 196.711 61.8856C194.386 59.4954 192.583 56.6456 191.416 53.518C190.898 53.6616 190.355 53.688 189.826 53.5954C189.297 53.5028 188.794 53.2935 188.356 52.9826C186.887 51.8587 185.773 50.3328 185.15 48.5888C184.411 46.8442 184.183 43.9623 185.009 42.3357C185.261 41.8489 185.638 41.4386 186.101 41.1474C186.565 40.8563 187.097 40.695 187.644 40.6802C188.51 40.584 189.38 40.8308 190.068 41.3682C190.068 41.3682 187.031 23.9718 207.133 21.2424C234.413 17.5378 231.989 38.6176 231.989 38.6176C232.601 37.9949 233.432 37.6365 234.303 37.6187C234.847 37.5618 235.396 37.6521 235.893 37.8802C236.391 38.1083 236.818 38.4659 237.131 38.9158C238.161 40.4205 238.31 43.3077 237.803 45.1349C237.412 46.9455 236.506 48.6039 235.196 49.9102C234.829 50.2468 234.397 50.5055 233.927 50.6708C233.457 50.836 232.959 50.9044 232.462 50.872" fill="white"/>
<path d="M1.32621 72.0461C1.43278 70.7494 1.61919 69.4606 1.88439 68.187C2.56788 64.9902 3.96493 61.4319 5.30762 60.3137C7.60939 58.1729 9.83251 59.0057 12.6419 59.8104C13.4348 60.0374 16.6962 61.3113 16.9514 62.7481C17.0531 62.2976 17.2834 61.8865 17.6141 61.5649C17.9448 61.2433 18.3617 61.0251 18.8139 60.9369C19.4048 60.7544 20.0398 60.7779 20.6157 61.0033C21.1917 61.2288 21.6745 61.6431 21.9858 62.1788C23.0504 64.058 23.1067 68.966 22.0689 70.7446C21.9354 70.9786 21.752 71.1802 21.5319 71.3351C21.5619 72.0243 21.583 72.4968 21.583 72.4968C21.647 74.0254 22.115 76.7355 21.4308 78.3365C20.3855 80.785 18.8446 82.2686 16.9117 82.9438C16.8861 83.356 16.8676 83.667 16.8676 83.667C16.8369 84.1639 16.8241 84.957 16.8152 85.8059C13.0428 86.2547 9.24364 86.8452 5.45404 87.537C5.08448 86.2944 4.53206 83.7991 4.66249 82.3693C4.78141 81.0588 3.82682 79.9053 3.13565 78.7872C2.12126 77.3018 1.48609 75.5894 1.28593 73.8003C1.26047 73.2153 1.27393 72.6293 1.32621 72.0461Z" fill="white"/>
<path d="M193.296 139.691C191.813 131.686 190.001 121.934 188.309 113.507C182.502 117.761 178.491 121.027 172.466 125.976L170.691 127.618C170.595 125.347 170.516 123.228 170.477 121.527C170.279 113.496 169.611 103.785 169.359 95.546L170.005 94.835C172.834 91.8857 178.831 82.9288 182.638 79.9879C187.288 76.3974 193.945 73.2346 199.805 70.9835C200.828 69.5044 202.043 67.3572 202.683 66.4121C203.27 66.7135 210.304 70.561 213.637 72.3402L215.413 72.2274C218.312 69.8019 224.411 64.5919 224.925 64.1758C225.741 64.9644 227.354 66.7981 228.65 68.0381C234.52 70.4418 244.625 74.4496 247.706 75.4754L272.217 94.8382C272.579 94.8562 272.905 94.8728 273.406 94.8799C273.652 94.8821 273.891 94.9545 274.097 95.0888C274.303 95.2231 274.466 95.4135 274.568 95.6377C275.204 97.0991 275.686 98.623 276.006 100.185C276.667 103.616 276.875 107.12 276.625 110.605C276.267 115.261 275.858 119.108 273.061 122.799C270.346 126.375 266.028 128.552 261.977 126.339C260.39 125.543 258.989 124.419 257.867 123.041C255.017 119.401 252.322 115.644 249.784 111.77C251.498 120.07 253.738 130.175 255.853 139.693L193.296 139.691Z" fill="white"/>
<path d="M161.373 34.048C162.03 33.4723 162.884 33.1764 163.755 33.2235C164.302 33.2073 164.843 33.3383 165.322 33.6028C165.801 33.8673 166.201 34.2557 166.48 34.7276C167.396 36.3042 167.332 39.1952 166.692 40.9782C166.168 42.755 165.143 44.3419 163.74 45.5477C163.349 45.8566 162.899 46.0831 162.418 46.2135C161.938 46.3439 161.436 46.3757 160.943 46.3068L160.675 46.2607C160.404 47.1238 160.076 47.9679 159.693 48.7874C159.04 50.4679 155.75 55.9337 151.464 58.8445V60.5519C150.909 60.9122 144.308 65.4657 141.175 67.5789L139.398 67.5078C136.265 65.392 129.663 60.8398 129.11 60.4808V58.8189C127.362 57.6699 125.8 56.2602 124.477 54.6386C122.335 52.0824 120.747 49.1069 119.814 45.9016C119.287 46.0064 118.743 45.9925 118.222 45.8609C117.701 45.7293 117.215 45.4832 116.8 45.1406C115.418 43.9109 114.421 42.3066 113.928 40.5211C113.319 38.7258 113.304 35.8355 114.247 34.2743C114.534 33.8077 114.941 33.4265 115.424 33.1706C115.908 32.9147 116.451 32.7932 116.997 32.8189C117.868 32.7877 118.716 33.0984 119.362 33.6851C119.362 33.6851 116.625 16.374 139.749 16.374C164.261 16.3702 161.373 34.048 161.373 34.048Z" fill="white"/>
<path d="M140.344 67.5443L139.4 67.5065C136.267 65.3907 129.665 60.8385 129.111 60.4795C128.27 61.4784 126.523 63.9642 125.297 65.2753C127.471 74.5021 131.097 84.3649 133.992 93.2904C136.345 100.535 137.034 102.734 140.294 110.743C143.185 103.284 144.44 100.421 146.794 93.1987C149.668 84.3829 153.258 74.6477 155.443 65.5209C154.214 64.2681 152.342 61.5964 151.462 60.5507C150.908 60.911 144.307 65.4644 141.174 67.5777L140.344 67.5443Z" fill="white"/>
<path d="M108.096 139.69C108.326 134.195 108.742 126.251 108.85 121.526C109.066 112.782 109.768 103.766 109.942 95.23C107.197 92.4891 105.778 90.3803 103.251 87.4669C101.12 85.0088 98.977 82.2525 96.6464 80.3367C95.5234 79.4195 94.3418 78.5767 93.1094 77.8138L98.243 74.5727C103.144 71.1528 114.016 67.5028 119.381 66.7334L122.348 66.2634C123.192 65.5015 124.093 64.8051 125.042 64.1803C127.184 73.7219 130.984 84.0131 133.993 93.2886C136.345 100.534 137.035 102.732 140.294 110.741C143.186 103.282 144.441 100.419 146.795 93.1969C149.814 83.9348 153.624 73.6585 155.766 64.1367C156.705 64.7198 157.595 65.3783 158.428 66.1057C160.154 66.3532 161.241 66.507 161.241 66.507C168.493 67.6379 175.508 69.9651 182.002 73.3943C182.002 73.3943 184.934 74.9209 187.96 76.4943C186.109 77.5338 184.332 78.7001 182.641 79.9847C178.834 82.9257 172.837 91.8819 170.007 94.8318C170.007 94.8318 169.738 95.1588 169.362 95.6096C169.618 103.836 170.282 113.516 170.48 121.524C170.589 126.25 171.004 134.193 171.234 139.688L108.096 139.69Z" fill="white"/>
<path d="M70.6627 27.1563C70.2394 29.469 68.4888 34.3065 70.0284 33.9449C76.5859 32.4811 82.0066 28.9227 86.4208 23.6807C87.4438 29.9563 91.7827 39.242 94.4048 40.7116C95.0818 40.1887 95.9358 39.952 96.7845 40.0518C97.3201 40.0698 97.8412 40.2313 98.2935 40.5195C98.7458 40.8077 99.113 41.212 99.3567 41.6906C100.155 43.2903 99.9143 46.1146 99.179 47.8181C98.5567 49.5231 97.456 51.0114 96.0096 52.1035C95.6079 52.3815 95.1544 52.5751 94.6762 52.6729C94.1981 52.7706 93.7051 52.7704 93.227 52.6723L92.9713 52.6081C92.653 53.4356 92.2799 54.2408 91.8543 55.0182C90.9745 56.918 86.1491 63.7821 80.6933 65.4741C80.4964 67.1106 80.4536 68.762 80.5654 70.4065C80.5845 70.9204 80.6727 71.4294 80.8275 71.9196C81.2872 72.6786 81.919 73.3181 82.6715 73.786L85.6728 75.6922C85.6728 75.6922 83.8064 77.8528 82.6357 78.5235C81.144 79.3788 78.7994 80.3572 78.7994 80.3572C75.1845 81.5058 71.3478 81.7696 67.6103 81.1265C64.2512 80.4664 61.0278 79.2409 58.0765 77.5021C56.9203 76.6163 55.8721 75.5969 54.9538 74.465C54.1608 73.1584 53.5316 71.7586 53.0804 70.2975L56.4902 69.2999C57.1232 69.1396 61.01 68.1561 61.5151 67.7457C61.8576 67.4401 62.1509 67.0833 62.3847 66.6878C62.7875 66.0787 63.2926 65.2645 63.8041 64.3925C61.2351 63.2269 59.0516 61.2624 57.0484 58.558C55.1104 55.9253 53.7405 52.9166 53.0261 49.7236C52.504 49.7932 51.9731 49.7458 51.4716 49.5847C50.97 49.4236 50.5104 49.1528 50.1259 48.792C48.8502 47.5035 47.9735 45.8725 47.6016 44.0956C47.1163 42.3003 47.2819 39.4748 48.2998 38.0046C48.6091 37.5658 49.0301 37.2181 49.5189 36.9977C50.0077 36.7774 50.5465 36.6925 51.0792 36.7518C51.5222 36.7628 51.9583 36.8645 52.3607 37.0506C52.7631 37.2367 53.1234 37.5033 53.4193 37.8341C59.1373 34.3411 64.5375 30.6852 70.4645 26.8627" fill="white"/>
<path d="M95.8627 79.7155C92.7899 77.4677 89.4727 75.5766 85.9747 74.0785C85.1227 73.0748 84.1763 72.1556 83.1487 71.3337C80.1161 79.3007 75.9876 87.5061 72.191 95.1429C69.3368 100.886 68.1054 103.049 64.8848 108.683C63.3164 102.639 62.53 99.9579 61.3043 93.7747C59.6419 85.4063 57.3855 76.0667 56.5473 67.5811C55.0931 68.2172 53.7123 69.01 52.4291 69.9456C49.7348 70.8022 46.9699 71.4167 44.167 71.7819C40.8826 72.712 37.8687 74.4186 35.3781 76.7585L27.0879 85.0294L22.7568 85.2146C16.2001 85.7646 9.6789 86.6785 3.22313 87.9524C2.72984 88.0477 2.28337 88.3079 1.95668 88.6906C1.62999 89.0733 1.4424 89.5558 1.42455 90.0592C1.09144 99.6963 3.24167 113.349 6.53191 118.792C8.13036 121.434 10.6374 123.818 13.232 123.722C17.1034 123.579 19.2121 122.041 22.3361 119.743C25.6161 117.331 29.1774 113.794 33.2957 109.414L33.7982 108.88C32.9242 112.578 32.1614 115.521 31.6442 117.066C30.1442 121.54 23.7951 130.466 19.0388 136.847C18.8346 137.106 18.7071 137.417 18.6712 137.745C18.6352 138.073 18.6921 138.405 18.8354 138.702C18.9787 138.999 19.2025 139.249 19.4813 139.425C19.7601 139.6 20.0825 139.693 20.4115 139.693H84.1365C85.6531 130.377 87.8449 117.471 89.74 107.181C95.896 111.327 101.888 116.238 107.927 120.98L108.846 121.616C108.846 121.587 108.846 121.558 108.846 121.529C109.061 112.785 109.763 103.77 109.939 95.2339C107.193 92.4924 105.774 90.3842 103.247 87.4702C101.116 85.012 98.9727 82.2557 96.6421 80.34C96.3868 80.1263 96.127 79.9181 95.8627 79.7155Z" fill="white"/>
<path d="M10.2567 54.9457C9.69342 46.4024 8.38909 26.8575 8.30469 17.9173C8.30494 17.5123 8.45656 17.1221 8.72962 16.8237C9.00269 16.5253 9.37737 16.3404 9.77973 16.3054C13.6338 15.8947 17.5251 15.9969 21.3525 16.6093C25.3073 17.1527 29.1876 18.1461 32.9182 19.5702C33.3216 19.73 33.6472 20.0408 33.8262 20.437C34.0051 20.8331 34.0235 21.2836 33.8773 21.693C31.1241 29.2823 23.7649 47.6975 20.6652 56.4601L10.2567 54.9457Z" fill="white"/>
<path d="M270.719 77.1346C270.385 76.6655 269.987 76.2459 269.537 75.8882C267.107 74.3898 265 73.0742 262.67 71.9342C262.113 71.6745 261.543 71.4453 260.961 71.2475C260.008 70.9195 258.965 70.9767 258.053 71.4072C257.289 71.772 256.279 73.1479 256.555 74.1L254.485 74.3616C253.895 74.2674 253.362 73.9487 252.778 73.8192C252.156 73.7233 251.52 73.7902 250.932 74.0134C250.343 74.2366 249.822 74.6085 249.419 75.0932C248.624 76.0724 248.04 77.2057 247.704 78.422C247.407 79.3718 247.391 80.3874 247.657 81.3463C247.744 81.6515 247.904 81.9306 248.123 82.159C248.343 82.3873 248.616 82.5579 248.917 82.6555C249.343 82.8014 249.796 82.8525 250.244 82.8052C250.692 82.7579 251.125 82.6134 251.512 82.3818L251.349 83.8564C251.048 84.1685 250.797 84.5267 250.607 84.9175C250.404 85.4235 250.35 85.9769 250.449 86.5129C250.549 87.0489 250.799 87.5452 251.17 87.9438C252.037 88.8382 252.948 89.688 253.9 90.4898L255.004 89.2947C256.061 90.1711 256.902 91.2758 257.007 92.3863C257.711 98.4695 259.203 100.954 261.597 101.619C263.492 102.118 265.472 102.2 267.402 101.861C267.922 101.732 270.279 101.054 270.622 100.642C271.296 99.8288 272.043 99.228 272.312 98.1483C272.501 97.2468 272.498 96.3156 272.305 95.4151C272.113 94.3309 271.785 91.5733 271.655 89.7377C271.475 87.3005 271.546 84.8512 271.867 82.4286C272.183 80.9233 271.976 79.355 271.28 77.9841C271.116 77.6865 270.928 77.4025 270.719 77.1346Z" fill="white"/>
<path d="M49.9719 36.861C50.3338 36.7738 50.7062 36.7384 51.078 36.7559C51.521 36.7669 51.9571 36.8685 52.3595 37.0547C52.7619 37.2408 53.1222 37.5074 53.4181 37.8382C59.1361 34.3452 64.5363 30.6893 70.4633 26.8668L70.6615 27.1566C70.2382 29.4692 68.4876 34.3067 70.0273 33.9451C76.5847 32.4814 82.0054 28.923 86.4197 23.6809C87.4427 29.9565 91.7815 39.2423 94.4036 40.7118C95.0806 40.189 95.9346 39.9522 96.7833 40.0521C97.1315 40.0869 97.4736 40.1678 97.8006 40.2925L97.7948 39.9193C98.6611 37.5199 99.1451 34.9985 99.229 32.448C99.454 24.467 96.3166 18.7953 92.6376 15.0164L89.5117 12.2953C85.6156 9.37821 80.9505 7.67351 76.0962 7.39309C70.8633 6.9264 65.6185 8.14867 61.1271 10.8816C57.9457 12.7751 55.2493 15.3875 53.2528 18.5108C51.2563 21.634 50.0148 25.1816 49.6272 28.871C49.3691 31.4085 49.4926 33.9705 49.9936 36.4712L49.9719 36.861Z" fill="#2E6669"/>
<path d="M56.383 67.876L59.8012 68.3966C60.3959 68.2492 60.971 68.0309 61.5141 67.7465C61.8565 67.4409 62.1498 67.084 62.3836 66.6886C62.7864 66.0795 63.2915 65.2652 63.803 64.3933C61.234 63.2276 59.0505 61.2632 57.0474 58.5588C55.1094 55.926 53.7395 52.9173 53.025 49.7244C52.503 49.794 51.972 49.7465 51.4705 49.5854C50.969 49.4243 50.5094 49.1536 50.1248 48.7928C49.8497 48.5349 49.5959 48.255 49.3659 47.9561V47.9593C48.5539 51.0496 46.7764 54.031 46.8211 57.2624C46.9708 58.6986 47.4338 60.0842 48.1773 61.3209C50.6708 64.6548 52.44 65.3101 54.642 65.6666L56.383 67.876Z" fill="#2E6669"/>
<path d="M97.9666 51.5372L97.9461 50.1318C97.4277 50.9039 96.7708 51.5727 96.0088 52.104C95.6071 52.382 95.1536 52.5756 94.6754 52.6733C94.1972 52.7711 93.7043 52.7709 93.2262 52.6727L92.9704 52.6086C92.6522 53.4361 92.279 54.2413 91.8534 55.0187C90.9737 56.9184 86.1483 63.7826 80.6924 65.4746C80.4956 67.1111 80.4528 68.7625 80.5646 70.407C80.5858 70.8019 80.64 71.1944 80.7263 71.5803L83.1675 71.9521L85.0856 68.7643C86.6008 68.9789 88.134 69.0365 89.661 68.9362C93.4513 68.8002 96.4314 66.8274 97.5535 63.8313C98.9563 60.0844 97.3496 55.4951 97.9666 51.5372Z" fill="#2E6669"/>
<path d="M62.9487 101.208C63.4992 103.431 64.0925 105.627 64.8847 108.682C68.1059 103.049 69.3373 100.887 72.1915 95.1431C74.5975 90.3011 77.1384 85.2309 79.4485 80.1402L78.7995 80.3626C75.1845 81.5113 71.3478 81.7751 67.6104 81.132C64.2185 80.4637 60.9656 79.2188 57.9922 77.4512C59.0024 82.9753 60.2677 88.5636 61.3023 93.7749C61.9103 96.8325 62.409 99.0355 62.9487 101.208Z" fill="#2E6669"/>
<path d="M194.54 12.8452C194.426 12.9362 194.313 13.0281 194.201 13.1209C191.249 15.4799 188.886 18.4977 187.303 21.9339C185.719 25.3701 184.958 29.1297 185.079 32.9132C185.178 35.6421 185.702 38.3387 186.631 40.9052C186.958 40.7881 187.298 40.7127 187.643 40.6808C188.509 40.5846 189.379 40.8314 190.067 41.3687L190.962 42.1041C191.737 38.656 194.478 31.6534 197.961 29.8113C200.651 28.4649 205.32 29.5517 208.442 29.5748C213.613 29.6126 222.87 26.9178 225.348 29.0394C227.227 30.1121 230.839 40.9969 231.986 38.6182C232.598 37.9955 233.428 37.637 234.3 37.6193C234.614 37.6072 234.929 37.6311 235.239 37.6905C235.83 35.0337 235.991 32.2987 235.714 29.5908C234.697 20.2659 229.6 14.6584 224.69 11.5238C220.125 8.64774 214.795 7.23368 209.408 7.46973C204.022 7.70578 198.835 9.58075 194.538 12.8452H194.54Z" fill="#2E6669"/>
<path d="M214.215 120.108C212.96 118.57 211.785 117.044 210.843 115.673C210.766 115.56 210.727 115.425 210.734 115.288C211.054 107.049 212.435 83.8013 212.384 83.3589C212.235 82.4941 211.966 81.6545 211.584 80.8648C211.309 80.2172 211.092 79.6146 210.887 79.0375L210.535 78.213C211.746 75.876 213.221 73.1941 213.639 72.3394L215.415 72.2266C216.008 72.9876 218.042 75.3599 219.717 77.4199C219.641 78.4893 219.557 79.2837 219.43 80.3692C219.41 80.5872 219.378 80.8052 219.346 81.0296C219.269 81.5127 219.245 82.003 219.276 82.4914C219.302 82.7607 225.689 106.361 227.409 114.01C227.44 114.149 227.422 114.294 227.358 114.421C225.702 117.921 223.413 122.236 220.913 126.558C220.862 126.645 220.791 126.718 220.706 126.773C220.622 126.827 220.526 126.861 220.426 126.872C220.326 126.883 220.224 126.87 220.13 126.834C220.036 126.798 219.952 126.741 219.884 126.667C218.157 124.755 216.095 122.415 214.215 120.108Z" fill="#2E6669"/>
<path d="M154.567 5.42745C150.217 2.66625 145.159 1.23333 140.011 1.30322C134.862 1.37312 129.845 2.94281 125.571 5.82112C122.453 7.95491 119.874 10.7895 118.042 14.099C116.209 17.4086 115.172 21.1016 115.015 24.8838C114.912 27.6131 115.236 30.3417 115.974 32.9707C116.307 32.8762 116.651 32.8253 116.997 32.8194C117.868 32.7881 118.716 33.0989 119.362 33.6856L122.743 30.9728C125.286 28.264 129.768 24.1863 132.903 22.6212C133.27 22.4378 133.738 22.6943 133.881 23.2906C133.999 23.7559 134.027 24.2393 133.965 24.7152C133.943 24.8527 133.958 24.9937 134.01 25.1228C134.062 25.252 134.149 25.3643 134.26 25.4474C134.372 25.5306 134.504 25.5814 134.642 25.5943C134.78 25.6072 134.92 25.5816 135.044 25.5205C137.282 24.3363 141.273 21.948 144.097 20.8189L148.266 21.3536C149.665 21.9293 150.957 22.7355 152.09 23.7387C154.606 25.8808 157.009 28.8109 158.062 31.4531L161.372 34.0497C162.028 33.474 162.882 33.1781 163.753 33.2252C164.078 33.2362 164.4 33.2864 164.712 33.3746L164.776 33.0239C165.504 30.5246 165.835 27.9261 165.756 25.3237C165.471 17.1047 161.847 11.503 157.812 7.89524L154.567 5.42745Z" fill="#2E6669"/>
<path d="M140.266 67.5415L139.399 67.5068C138.897 68.3089 137.176 70.7959 135.737 72.9855L135.975 73.8831C136.117 74.4806 136.273 75.1013 136.481 75.7771C136.781 76.6019 136.961 77.4655 137.017 78.3417C137.025 78.7905 135.81 87.2537 134.664 95.3546C136.513 101.043 137.367 103.55 140.296 110.747C142.87 104.104 144.147 101.107 146.058 95.4296C145.158 87.6819 143.964 78.4545 143.964 78.1826C143.982 77.6936 144.057 77.2083 144.185 76.7362C144.241 76.5201 144.29 76.3041 144.335 76.088C144.568 75.0308 144.732 74.2421 144.927 73.1938C143.471 70.9729 141.688 68.3993 141.176 67.5806L140.266 67.5415Z" fill="#2E6669"/>
<path d="M15.5863 83.6655C15.5415 84.3772 15.546 85.0933 15.5352 85.8069C15.5391 86.1462 15.6733 86.4709 15.9098 86.7135C16.0286 86.8326 16.1696 86.9271 16.3248 86.9916C16.4799 87.0561 16.6463 87.0893 16.8142 87.0893C16.9822 87.0893 17.1485 87.0561 17.3037 86.9916C17.4589 86.9271 17.5999 86.8326 17.7186 86.7135C17.9526 86.4692 18.0861 86.1455 18.0927 85.8069C18.1035 85.0933 18.0991 84.3772 18.1438 83.6655C18.1439 83.4118 18.069 83.1639 17.9285 82.953C17.788 82.7421 17.5883 82.5776 17.3547 82.4805C17.121 82.3834 16.8639 82.358 16.6158 82.4074C16.3677 82.4568 16.1399 82.5789 15.961 82.7583L15.7609 83.0179C15.6464 83.2144 15.5862 83.4379 15.5863 83.6655Z" fill="#2E6669"/>
<path d="M16.4522 84.4097C17.6572 84.1064 18.7836 83.5483 19.7559 82.7727C20.7282 81.997 21.5239 81.0219 22.0896 79.9127C22.7429 78.7238 23.0829 77.3874 23.0774 76.0299C23.0851 74.8476 22.9195 73.6762 22.8613 72.4971C22.8543 72.1593 22.7173 71.8372 22.479 71.5982C22.2407 71.3592 21.9195 71.2219 21.5825 71.2148C21.2444 71.218 20.9209 71.3541 20.6818 71.5939C20.4427 71.8337 20.3069 72.158 20.3038 72.4971C20.3556 73.5429 20.4956 74.5828 20.5161 75.6304C20.5975 76.6107 20.4047 77.5944 19.9592 78.4708C19.5702 79.3298 18.991 80.0885 18.2655 80.6892C17.54 81.2898 16.6873 81.7165 15.7725 81.9368C14.1741 82.3151 14.8486 84.7887 16.4522 84.4097Z" fill="#2E6669"/>
<path d="M6.68643 87.1965C6.22665 85.7913 5.96832 84.3276 5.91917 82.8495C5.97469 82.0943 5.88171 81.3356 5.64552 80.6164C5.2768 79.786 4.82862 78.9935 4.3073 78.2499C3.25363 76.7799 2.64292 75.0375 2.54773 73.2297C2.57474 71.7134 2.75165 70.2036 3.07586 68.7224C3.41314 66.9785 3.94193 65.2774 4.65256 63.6502C5.2165 62.4032 5.88976 61.1786 7.16468 60.549C8.40827 59.9348 9.83856 60.3464 11.0956 60.6977C12.2149 60.9749 13.2976 61.3838 14.3212 61.9159C14.8046 62.1839 15.4945 62.534 15.7208 63.0584C16.0284 63.7708 15.5361 63.8509 14.9625 63.8721C13.9402 63.8748 12.9185 63.8192 11.9025 63.7054C10.8386 63.6214 9.77207 63.6137 8.70559 63.5835C7.05919 63.5361 7.0611 66.1007 8.70559 66.1482C9.77207 66.1783 10.8386 66.186 11.9025 66.27C12.9934 66.4036 14.0928 66.4555 15.1914 66.4251C15.6953 66.4359 16.1949 66.3305 16.6517 66.117C17.1085 65.9036 17.5104 65.5879 17.8263 65.1941C18.0971 64.7834 18.2703 64.3159 18.3329 63.8275C18.3954 63.3391 18.3455 62.8429 18.1869 62.3769C17.694 60.7574 16.013 59.8277 14.5661 59.1859C13.1007 58.5328 11.5586 58.0687 9.97667 57.8049C9.0326 57.6182 8.05858 57.6491 7.12817 57.8952C6.19776 58.1414 5.33529 58.5963 4.60589 59.2256C3.27726 60.3509 2.54133 62.0262 1.91666 63.613C1.1676 65.541 0.638244 67.5478 0.338675 69.595C0.0432815 71.5582 -0.216306 73.5785 0.274737 75.532C0.60352 76.7352 1.09851 77.8863 1.74531 78.9519C2.27791 79.8662 3.27982 80.8985 3.39491 81.9897C3.43902 82.4071 3.35718 82.8482 3.3802 83.272C3.40897 83.8125 3.48122 84.3511 3.56242 84.8852C3.71457 85.8968 3.93394 86.8971 4.21906 87.8793C4.68006 89.4604 7.14934 88.7879 6.68515 87.1978L6.68643 87.1965Z" fill="#2E6669"/>
<path d="M14.395 66.6352C14.4647 66.6538 14.5331 66.6762 14.6015 66.6993C14.4596 66.6339 14.4532 66.632 14.5824 66.6935C14.6981 66.7577 14.8093 66.8263 14.9206 66.9C14.6719 66.7346 14.8969 66.8942 14.9481 66.9468C14.9992 66.9994 15.0325 67.0353 15.0721 67.0827C14.9673 66.941 14.9538 66.9263 15.0331 67.0398C15.0638 67.0949 15.2192 67.2841 15.2019 67.3475L15.138 67.2001C15.1572 67.2533 15.1738 67.3071 15.1885 67.3623C15.2825 67.7123 15.2128 67.2161 15.209 67.4264C15.1988 67.5068 15.1988 67.5883 15.209 67.6687C15.2422 67.4604 15.246 67.4257 15.2211 67.5636C15.2096 67.6155 15.1962 67.6662 15.1802 67.7162C15.1555 67.7739 15.1341 67.833 15.1162 67.8931C15.1763 67.5578 15.2492 67.6136 15.1802 67.7367C15.1495 67.7886 15.1246 67.8444 15.0932 67.8957C15.0534 67.9484 15.0166 68.0034 14.9833 68.0605C15.0191 67.9765 15.209 67.813 15.0472 67.9669C15.0235 67.9893 14.8778 68.1047 14.8765 68.1291C15.0549 67.9951 15.0907 67.9675 14.9839 68.0451C14.9558 68.065 14.9276 68.0836 14.8989 68.1015C14.8285 68.1464 14.7499 68.1797 14.6802 68.2246C14.5171 68.331 14.9494 68.1361 14.6105 68.249C14.3954 68.3194 14.1746 68.3711 13.9507 68.4035C14.2671 68.3554 13.7678 68.4099 13.7109 68.4125C13.583 68.4182 13.4583 68.4195 13.3317 68.4208C13.0466 68.4208 12.7612 68.4208 12.4756 68.4208C11.2896 68.4093 10.1048 68.3567 8.91938 68.3163C8.58111 68.3191 8.2575 68.4552 8.0183 68.695C7.7791 68.9349 7.64346 69.2594 7.64062 69.5986C7.64733 69.9366 7.78421 70.2589 8.02258 70.4979C8.26096 70.7369 8.58234 70.8742 8.91938 70.8809C10.0127 70.9187 11.1054 70.9662 12.1994 70.9822C13.2653 71.0775 14.3396 70.9804 15.3714 70.6956C16.1771 70.4477 16.8612 69.9065 17.2891 69.1783C17.7169 68.4501 17.8576 67.5878 17.6833 66.7609C17.5169 66.1362 17.1889 65.5668 16.7325 65.1101C16.2761 64.6535 15.7075 64.3258 15.0843 64.1604C14.9223 64.1156 14.7532 64.1033 14.5865 64.1241C14.4199 64.1449 14.2589 64.1984 14.1128 64.2816C13.9668 64.3647 13.8385 64.4759 13.7353 64.6088C13.6321 64.7417 13.556 64.8937 13.5114 65.056C13.4668 65.2184 13.4545 65.388 13.4752 65.5552C13.4959 65.7223 13.5493 65.8837 13.6323 66.0302C13.7152 66.1766 13.8261 66.3053 13.9586 66.4087C14.0911 66.5122 14.2427 66.5885 14.4046 66.6333L14.395 66.6352Z" fill="#2E6669"/>
<path d="M13.0625 70.9322C13.1559 70.9771 13.535 71.1207 13.5568 71.2246C13.5408 71.1458 13.3937 71.0868 13.5568 71.2394C13.6277 71.3035 13.6885 71.3811 13.7588 71.4458C13.8675 71.5458 13.6399 71.2535 13.7633 71.4503C13.8131 71.5311 13.8598 71.6106 13.9065 71.6933C14.0286 71.91 13.8688 71.4689 13.9174 71.7311C13.9257 71.7766 14.0152 72.0248 13.9532 71.8305C13.8943 71.6465 13.9449 71.8824 13.9532 71.9369C13.9807 72.1934 14.0235 71.7369 13.9532 71.9773C13.9417 72.0248 13.9282 72.0716 13.9123 72.1184C13.8816 72.2075 13.8943 72.1825 13.9506 72.0389C13.9442 72.1203 13.8438 72.228 13.8061 72.2953C13.6942 72.496 13.8988 72.2165 13.7959 72.3107C13.7351 72.3659 13.6834 72.4325 13.6233 72.4896C13.5747 72.5353 13.5248 72.5781 13.4736 72.6178L13.5747 72.5377C13.5484 72.5896 13.3464 72.6864 13.2972 72.7146C13.2179 72.7608 13.1367 72.8031 13.0542 72.8429C13.005 72.8672 12.9557 72.8903 12.9052 72.9128C13.0254 72.8634 13.0421 72.8557 12.9564 72.8897C12.7646 72.9538 12.576 73.0282 12.3809 73.0897C11.9583 73.2021 11.5482 73.3576 11.1572 73.5539C10.6476 73.8378 10.2593 74.299 10.0657 74.8503C9.91038 75.4258 9.91038 76.0323 10.0657 76.6077C10.1569 76.9351 10.3733 77.2131 10.6679 77.3812C10.9625 77.5493 11.3114 77.5939 11.6386 77.5053C11.9611 77.4078 12.234 77.1897 12.4006 76.8961C12.5672 76.6025 12.6149 76.256 12.5338 75.9281C12.5139 75.821 12.5011 75.6075 12.512 75.8313C12.4989 75.7228 12.4976 75.6131 12.5082 75.5043C12.4947 75.5819 12.3912 75.8339 12.4992 75.6646C12.3893 75.8027 12.3833 75.8225 12.4813 75.7242L12.3701 75.8172C12.4227 75.7843 12.4771 75.7543 12.5331 75.7274L12.4008 75.78C12.4008 75.771 12.6565 75.689 12.6712 75.6851C12.8713 75.621 13.0734 75.5633 13.2729 75.4928C14.3099 75.2019 15.229 74.5905 15.8994 73.7456C16.202 73.339 16.3994 72.8635 16.4738 72.3617C16.5482 71.8599 16.4974 71.3474 16.3259 70.8701C15.9643 69.9273 15.2603 69.1568 14.3553 68.7132C14.2103 68.6283 14.0501 68.5728 13.8837 68.5499C13.7173 68.5271 13.548 68.5373 13.3856 68.5801C13.2232 68.6228 13.0707 68.6972 12.9369 68.7991C12.8032 68.9009 12.6907 69.0282 12.606 69.1736C12.5213 69.319 12.466 69.4797 12.4432 69.6465C12.4204 69.8134 12.4306 69.9831 12.4732 70.146C12.5159 70.3089 12.5901 70.4618 12.6916 70.5959C12.7932 70.73 12.9201 70.8428 13.0651 70.9278L13.0625 70.9322Z" fill="#2E6669"/>
<path d="M20.1615 73.0206C20.7985 73.0282 21.4255 72.8618 21.9753 72.5392C22.5251 72.2166 22.9769 71.75 23.2823 71.1894C23.6964 70.2654 23.9443 69.2751 24.0144 68.2645C24.295 66.2187 24.0821 64.1352 23.3936 62.189C23.1852 61.6061 22.8452 61.0794 22.4003 60.6501C21.9553 60.2207 21.4173 59.9004 20.8284 59.7141C19.7948 59.44 18.6988 59.5278 17.7217 59.9629C15.409 61.0105 15.1002 64.2945 15.2882 66.518C15.5203 69.3045 16.7933 73.0417 20.1615 73.0206C21.8067 73.0097 21.8105 70.4451 20.1615 70.456C19.8499 70.4469 19.5474 70.348 19.2904 70.171C19.0333 69.9941 18.8326 69.7467 18.7121 69.4583C18.2759 68.6433 17.9929 67.7549 17.877 66.8373C17.7771 66.0131 17.7822 65.1796 17.8924 64.3567C17.9578 63.9305 18.054 63.5097 18.1801 63.0975C18.2428 62.7991 18.4108 62.5334 18.6532 62.3492C18.8655 62.2478 19.0915 62.1783 19.3239 62.1428C19.5432 62.0928 19.306 62.1473 19.2658 62.1498C19.3514 62.1441 19.4371 62.1338 19.5215 62.1306C19.6883 62.1216 19.8555 62.1261 20.0215 62.1441C19.6884 62.1043 20.3412 62.2486 20.2274 62.2082C20.3178 62.2692 20.4132 62.3224 20.5125 62.3672C20.6165 62.4615 20.7103 62.5663 20.7926 62.6801C20.8469 62.7602 21.0746 63.2353 20.9659 62.9692C21.4749 64.3496 21.6664 65.8275 21.526 67.2925C21.529 68.0678 21.4132 68.8389 21.1826 69.5789C21.1526 69.677 20.9473 70.1335 21.0925 69.8552C21.0637 69.9103 21.0413 69.9687 21.0093 70.0225C20.9978 70.0418 20.8284 70.3014 20.9243 70.1713C20.8218 70.2678 20.7012 70.3429 20.5695 70.3922C20.4377 70.4415 20.2975 70.4641 20.1571 70.4585C19.8203 70.4662 19.4995 70.6038 19.2613 70.8426C19.0231 71.0814 18.8859 71.4031 18.8783 71.7408C18.882 72.0803 19.0186 72.4047 19.2586 72.6441C19.4987 72.8835 19.823 73.0187 20.1615 73.0206Z" fill="#2E6669"/>
<path d="M62.5245 64.3859V64.3923L62.6991 63.7447C62.1671 64.65 61.6262 65.5579 61.0233 66.4183C60.8199 66.7087 61.1831 66.2631 60.9395 66.5202C60.9107 66.5504 60.7477 66.7696 60.6978 66.7645C60.662 66.7607 60.9651 66.6138 60.7822 66.6953C60.7413 66.7139 60.6991 66.7376 60.6595 66.7594C60.5597 66.8133 60.4075 66.812 60.7873 66.7094C60.7343 66.7241 60.678 66.753 60.6262 66.7735C60.4907 66.8254 60.3532 66.8735 60.2157 66.9203C58.9606 67.3473 57.6716 67.6814 56.3884 68.0103C56.0614 68.1007 55.7836 68.3176 55.616 68.6134C55.4485 68.9092 55.4051 69.2596 55.4952 69.5875C55.5853 69.9154 55.8017 70.194 56.0966 70.362C56.3916 70.53 56.741 70.5736 57.0681 70.4832C58.4609 70.1559 59.8362 69.7581 61.1889 69.2913C61.5003 69.1889 61.802 69.0589 62.0904 68.9028C62.5794 68.5658 62.9916 68.1287 63.3001 67.6205C63.6012 67.1864 63.8819 66.7363 64.1601 66.2875C64.4925 65.7489 65.0846 65.0334 65.0846 64.3878C65.0846 64.0477 64.9499 63.7215 64.7101 63.481C64.4702 63.2406 64.145 63.1055 63.8058 63.1055C63.4667 63.1055 63.1414 63.2406 62.9016 63.481C62.6618 63.7215 62.5271 64.0477 62.5271 64.3878L62.5245 64.3859Z" fill="#2E6669"/>
<path d="M48.1335 47.62C47.5255 49.8576 46.4877 51.9535 45.9315 54.2066C45.3704 56.309 45.5197 58.5386 46.356 60.5469C47.0471 62.187 48.1363 63.6278 49.5243 64.7382C50.9123 65.8486 52.5552 66.5933 54.3035 66.9045C54.6304 66.9848 54.9755 66.9364 55.268 66.7695C55.5605 66.6026 55.7782 66.3297 55.8764 66.0069C55.9637 65.6788 55.9188 65.3294 55.7513 65.0343C55.5838 64.7392 55.3072 64.522 54.9812 64.4297C53.7658 64.2824 52.6056 63.8352 51.6047 63.1282C50.3038 62.1926 49.2837 60.9173 48.6552 59.4409C48.3266 58.662 48.1385 57.8308 48.0996 56.9859C48.1331 56.0001 48.3064 55.0241 48.6143 54.0873C49.1968 52.1305 50.0619 50.2724 50.5964 48.3003C51.0299 46.7057 48.5632 46.0255 48.1303 47.6181L48.1335 47.62Z" fill="#2E6669"/>
<path d="M84.7438 70.0034C86.956 70.4103 89.2228 70.4192 91.4381 70.0297C93.6728 69.6788 95.7159 68.5587 97.2168 66.8618C98.8613 64.9018 99.4246 62.4706 99.4252 59.9489C99.4252 57.2727 98.8166 54.5478 99.1989 51.8781C99.2779 51.5503 99.2293 51.2047 99.063 50.9116C98.8967 50.6185 98.6251 50.4001 98.3038 50.3009C97.9765 50.2129 97.6278 50.2578 97.3333 50.4258C97.0388 50.5938 96.8221 50.8714 96.7303 51.1985C96.3748 53.6759 96.6925 56.109 96.8242 58.5897C96.9381 60.7298 96.8933 63.0219 95.5807 64.8229C94.442 66.2688 92.8012 67.2305 90.9861 67.5158C90.1162 67.6528 89.236 67.7118 88.3557 67.6921C87.3745 67.742 86.3908 67.6879 85.4209 67.5305C83.8142 67.2035 83.1268 69.6752 84.7413 70.0041L84.7438 70.0034Z" fill="#2E6669"/>
<path d="M85.371 140.031C87.1389 129.177 88.9829 118.334 90.9739 107.519L89.0954 108.285C95.3159 112.487 101.125 117.25 107.024 121.884C107.269 122.114 107.593 122.243 107.929 122.243C108.265 122.243 108.588 122.114 108.833 121.884C109.071 121.642 109.204 121.316 109.204 120.977C109.204 120.637 109.071 120.312 108.833 120.07C102.763 115.303 96.7865 110.394 90.3863 106.07C90.2166 105.973 90.0269 105.915 89.8317 105.902C89.6365 105.889 89.4408 105.921 89.2597 105.995C89.0786 106.069 88.9167 106.184 88.7864 106.33C88.6561 106.477 88.5608 106.651 88.5078 106.84C86.5168 117.655 84.6715 128.498 82.9049 139.351C82.8249 139.679 82.8731 140.025 83.0396 140.319C83.206 140.612 83.4782 140.83 83.8001 140.929C84.1274 141.017 84.476 140.972 84.7705 140.804C85.065 140.636 85.2817 140.358 85.3736 140.031H85.371Z" fill="#2E6669"/>
<path d="M22.7605 83.9321C19.1282 84.2225 15.5094 84.6495 11.9045 85.1785C10.0341 85.4529 8.16822 85.7549 6.30677 86.0844C5.47686 86.2306 4.6478 86.3817 3.81959 86.5377C3.0379 86.6182 2.28459 86.8753 1.61629 87.2898C0.292137 88.2464 0.145719 89.6537 0.120144 91.1675C0.100323 92.4959 0.12398 93.825 0.184082 95.1522C0.311958 98.0797 0.599678 100.997 1.00952 103.897C1.7058 108.822 2.6572 114.027 4.9174 118.502C6.13862 120.922 8.09256 123.341 10.62 124.446C13.214 125.581 16.3744 124.822 18.8111 123.597C21.5102 122.116 24.0131 120.302 26.2611 118.196C29.0597 115.731 31.6486 113.032 34.2035 110.317C35.3327 109.118 33.5277 107.301 32.3953 108.504C28.5546 112.583 24.6403 116.609 20.0387 119.833C18.0061 121.256 15.893 122.333 13.3694 122.431C10.8118 122.532 8.79268 120.08 7.60215 118.079C6.6938 116.452 5.98962 114.718 5.50563 112.917C4.82258 110.571 4.2788 108.186 3.87713 105.775C2.97429 100.698 2.5789 95.543 2.69684 90.3872C2.66453 90.1579 2.70672 89.9243 2.81716 89.7209C2.92759 89.5176 3.10041 89.3553 3.31 89.2581C4.15337 88.9986 5.02182 88.8294 5.90077 88.7535C7.76264 88.415 9.62877 88.1023 11.4992 87.8155C15.237 87.2449 18.9916 86.8057 22.7631 86.498C24.3922 86.3697 24.4063 83.8051 22.7631 83.9334L22.7605 83.9321Z" fill="#2E6669"/>
<path d="M79.3783 65.7449C79.1993 67.3415 79.1709 68.9515 79.2932 70.5535C79.2939 71.3589 79.4927 72.1517 79.8719 72.8616C80.2929 73.4574 80.8062 73.9818 81.3923 74.4151C81.6364 74.6476 81.9601 74.7772 82.2967 74.7772C82.6333 74.7772 82.9571 74.6476 83.2011 74.4151C83.4375 74.1728 83.5699 73.8472 83.5699 73.5082C83.5699 73.1692 83.4375 72.8437 83.2011 72.6013C82.931 72.3916 82.6719 72.1679 82.4249 71.9313C82.3245 71.8339 82.2331 71.7274 82.1353 71.6293C82.0394 71.5133 82.04 71.5184 82.1353 71.6434C82.0988 71.5941 82.0649 71.5428 82.033 71.4902C81.8872 71.3068 82.1065 71.8108 82.0131 71.4517C81.9665 71.2703 81.9179 71.0933 81.8853 70.9087C81.9179 71.101 81.8654 70.7298 81.8616 70.6913C81.8437 70.499 81.8316 70.3066 81.8207 70.1111C81.74 68.6548 81.778 67.1943 81.9345 65.7442C81.9345 65.4041 81.7998 65.078 81.56 64.8375C81.3201 64.597 80.9949 64.4619 80.6557 64.4619C80.3195 64.471 79.9994 64.609 79.7615 64.8475C79.5237 65.0861 79.386 65.407 79.377 65.7442L79.3783 65.7449Z" fill="#2E6669"/>
<path d="M11.5356 54.9461C11.1373 48.9026 10.7428 42.8585 10.393 36.8118C10.1948 33.3701 10.0094 29.9284 9.85403 26.4847C9.73063 23.7137 9.53434 20.9138 9.58613 18.1389C9.59828 17.4695 10.0676 17.5548 10.659 17.5035C11.7722 17.406 12.8892 17.3483 14.0068 17.3387C16.1579 17.3331 18.3069 17.4764 20.4383 17.7676C22.4601 18.0352 24.4663 18.4099 26.4485 18.8903C28.4269 19.3054 30.3635 19.9005 32.2342 20.6682C32.8097 20.9247 32.7054 21.1856 32.5079 21.728C32.3054 22.2837 32.1004 22.8372 31.8928 23.3886C31.4196 24.6564 30.9405 25.9218 30.4555 27.1849C29.2973 30.2154 28.13 33.2425 26.9536 36.2661C24.3999 42.8642 21.7951 49.4495 19.4326 56.1194C18.8808 57.6774 21.3507 58.348 21.8987 56.8009C24.1211 50.526 26.5661 44.328 28.9657 38.121C30.2176 34.8857 31.4667 31.6492 32.7131 28.4114C33.2284 27.0663 33.74 25.7198 34.2476 24.3721C34.7188 23.1142 35.5296 21.6613 35.137 20.297C34.5462 18.2453 31.8288 17.7471 30.059 17.2105C27.9638 16.5815 25.8339 16.0754 23.68 15.6948C19.2965 14.85 14.8191 14.605 10.37 14.9664C9.43111 14.9513 8.52129 15.2931 7.82337 15.923C7.52073 16.2773 7.29442 16.6906 7.15865 17.1368C7.02287 17.583 6.98056 18.0525 7.03437 18.5159C7.05419 19.8975 7.09447 21.2792 7.14307 22.6596C7.26327 26.075 7.43271 29.4885 7.61749 32.9007C8.01518 40.2528 8.49471 47.5998 8.97872 54.9461C9.08678 56.5849 11.6443 56.597 11.5356 54.9461Z" fill="#2E6669"/>
<path d="M27.9952 85.937C29.8988 84.0366 31.8031 82.1364 33.708 80.2365C35.3659 78.583 36.9407 76.8634 38.9158 75.583C40.7702 74.2727 42.8808 73.3719 45.1082 72.9402C47.7052 72.5635 50.2673 71.9755 52.7692 71.1821C54.3337 70.6885 53.6643 68.2117 52.0895 68.7092C49.5039 69.5291 46.8542 70.1296 44.1683 70.5044C41.8934 70.8186 39.527 72.1349 37.6249 73.371C35.6687 74.7508 33.8623 76.3326 32.2355 78.0905C30.2181 80.0995 28.2017 82.1112 26.1864 84.1257C25.0182 85.292 26.8258 87.1058 27.9952 85.9395V85.937Z" fill="#2E6669"/>
<path d="M272.22 96.1214C272.497 96.1349 273.179 96.024 273.41 96.1631C273.422 96.1701 273.61 96.608 273.677 96.7786C274.023 97.6674 274.311 98.5776 274.541 99.5035C274.978 101.297 275.251 103.126 275.356 104.969C275.644 108.702 275.412 112.457 274.666 116.125C273.947 119.431 272.245 122.682 269.374 124.598C268.096 125.514 266.553 125.983 264.983 125.933C263.359 125.836 261.812 124.891 260.553 123.917C258.775 122.541 257.495 120.495 256.172 118.706C254.705 116.72 253.283 114.701 251.906 112.65C250.99 111.288 248.773 112.571 249.698 113.945C251.132 116.082 252.616 118.183 254.148 120.248C255.499 122.07 256.801 124.115 258.555 125.575C260.084 126.957 261.942 127.921 263.95 128.375C265.898 128.682 267.893 128.346 269.635 127.418C273.328 125.536 275.85 121.683 276.904 117.753C277.389 115.761 277.696 113.729 277.821 111.682C278.018 109.497 278.052 107.3 277.924 105.11C277.802 102.692 277.416 100.294 276.773 97.9609C276.453 96.8613 276.119 95.4335 275.373 94.5416C274.542 93.5485 273.401 93.6132 272.22 93.5555C270.575 93.476 270.579 96.0406 272.22 96.1201V96.1214Z" fill="#2E6669"/>
<path d="M248.048 74.2372C241.596 72.081 235.286 69.3766 228.995 66.7999C228.668 66.7119 228.319 66.7569 228.025 66.9249C227.73 67.0929 227.514 67.3705 227.422 67.6975C227.34 68.0254 227.388 68.3724 227.554 68.6663C227.721 68.9601 227.994 69.1782 228.317 69.2753C234.611 71.8508 240.921 74.5552 247.371 76.7127C248.936 77.2352 249.608 74.7598 248.05 74.2398L248.048 74.2372Z" fill="#2E6669"/>
<path d="M257.786 73.832C257.802 72.8811 258.793 72.3451 259.625 72.3208C260.84 72.2855 262.131 73.0773 263.172 73.6268C264.362 74.2551 265.523 74.9367 266.674 75.6349C267.28 76.0029 267.885 76.3739 268.488 76.7479C268.654 76.8379 268.812 76.9436 268.958 77.0634C269.148 77.242 269.325 77.4335 269.488 77.6366C270.093 78.3361 270.497 79.1876 270.656 80.0999C270.744 81.1572 270.678 82.2217 270.461 83.2601C270.239 85.3221 270.203 87.4 270.355 89.4684C270.493 91.5694 270.738 93.6698 271.07 95.7516C271.248 96.8756 271.249 97.9405 270.495 98.8471C270.321 99.0568 270.131 99.253 269.951 99.4575C269.872 99.5473 269.798 99.6434 269.716 99.7313C269.887 99.5479 269.858 99.637 269.759 99.6967C269.49 99.847 269.205 99.9683 268.91 100.058C267.254 100.67 265.48 100.893 263.725 100.712C263.161 100.658 262.602 100.558 262.054 100.411C261.899 100.369 261.745 100.325 261.594 100.27C261.428 100.21 261.627 100.315 261.358 100.157C260.956 99.9363 260.602 99.6367 260.318 99.2761C259.083 97.6661 258.719 95.3945 258.424 93.4454C258.214 92.0509 258.075 90.8904 257.194 89.7344C256.289 88.5875 255.143 87.6549 253.837 87.0031C252.377 86.2491 251.081 88.4611 252.547 89.2177C253.754 89.7585 254.776 90.6452 255.483 91.7663C255.724 92.343 255.858 92.9586 255.88 93.5833C255.98 94.3084 256.097 95.0323 256.246 95.7491C256.649 97.686 257.28 99.6922 258.608 101.202C259.951 102.729 261.916 103.117 263.851 103.289C265.916 103.47 267.995 103.169 269.925 102.408C271.076 101.96 272.06 101.163 272.74 100.129C273.42 99.0957 273.762 97.8754 273.72 96.6377C273.676 95.4926 273.41 94.3488 273.273 93.2108C273.119 91.9368 272.986 90.659 272.903 89.3786C272.719 87.1726 272.784 84.9529 273.095 82.7613C273.354 81.4755 273.301 80.1461 272.94 78.8852C272.579 77.6243 271.921 76.4688 271.022 75.5163C269.974 74.3898 268.39 73.6704 267.081 72.8933C265.587 71.9618 264.027 71.1408 262.413 70.4371C260.815 69.7805 259.153 69.4567 257.527 70.2486C256.862 70.5892 256.298 71.1004 255.894 71.7301C255.49 72.3599 255.259 73.0857 255.225 73.8339C255.197 75.4848 257.755 75.4848 257.782 73.8339L257.786 73.832Z" fill="#2E6669"/>
<path d="M263.78 77.0212C262.296 76.2211 260.789 75.46 259.277 74.7131C258.752 74.4199 258.203 74.1726 257.636 73.9738C256.971 73.7816 256.265 73.792 255.606 74.0035C254.948 74.2151 254.367 74.6183 253.937 75.1619C253.458 75.7789 253.172 76.5248 253.116 77.3051C253.06 78.0853 253.236 78.8646 253.623 79.5441C253.794 79.8378 254.074 80.0513 254.402 80.1375C254.73 80.2238 255.079 80.1758 255.372 80.0042C255.665 79.8325 255.878 79.5512 255.964 79.2222C256.05 78.8932 256.002 78.5433 255.831 78.2497C255.79 78.1838 255.752 78.1158 255.718 78.0458C255.77 78.1702 255.77 78.1612 255.718 78.0176C255.695 77.9396 255.675 77.8604 255.66 77.7803C255.67 77.8951 255.671 77.9086 255.663 77.8111C255.65 77.6618 255.65 77.5116 255.663 77.3623C255.642 77.588 255.714 77.1789 255.727 77.1264C255.746 77.0623 255.767 76.9992 255.791 76.9372C255.755 77.0404 255.771 77.0212 255.838 76.8795C255.877 76.8102 255.92 76.743 255.966 76.6782C255.888 76.7821 255.897 76.7789 255.994 76.6673C256.041 76.6295 256.301 76.4448 256.092 76.5737C256.156 76.5316 256.222 76.4928 256.29 76.4576C256.158 76.5051 256.163 76.5038 256.303 76.4538C256.363 76.4378 256.692 76.3736 256.422 76.4044C256.479 76.398 256.933 76.4237 256.695 76.3852C256.826 76.4063 256.947 76.4589 257.078 76.4852C257.26 76.5211 256.731 76.323 256.892 76.4044C257.129 76.5237 257.374 76.6288 257.613 76.7449C259.251 77.5425 260.88 78.367 262.484 79.2319C262.778 79.3965 263.125 79.4405 263.451 79.3547C263.777 79.2689 264.058 79.06 264.234 78.7716C264.401 78.477 264.446 78.1285 264.361 77.8006C264.275 77.4728 264.064 77.1916 263.775 77.0174L263.78 77.0212Z" fill="#2E6669"/>
<path d="M259.945 79.9824C258.58 79.3433 257.166 78.8137 255.717 78.3988C255.059 78.1524 254.357 78.0418 253.655 78.0737C252.893 78.1763 252.191 78.545 251.673 79.1149C251.143 79.7085 250.837 80.4693 250.807 81.2656C250.777 82.0618 251.027 82.8434 251.511 83.4748C252.241 84.246 253.127 84.8521 254.109 85.2527C255.116 85.7297 256.144 86.1631 257.167 86.5991C257.462 86.7615 257.808 86.8043 258.133 86.7188C258.459 86.6333 258.739 86.4259 258.917 86.1394C259.084 85.8449 259.13 85.4962 259.045 85.1682C258.959 84.8401 258.748 84.5588 258.458 84.3846C256.941 83.802 255.472 83.1008 254.064 82.2874C253.958 82.2194 253.854 82.1463 253.745 82.079C253.7 82.0508 253.553 81.9296 253.745 82.0873C253.704 82.054 253.664 82.0232 253.625 81.986C253.618 81.9802 253.369 81.7398 253.376 81.7347C253.384 81.7296 253.535 81.9379 253.428 81.7796C253.303 81.5956 253.463 81.9418 253.434 81.7982C253.4 81.6909 253.373 81.5817 253.352 81.4712C253.381 81.4635 253.362 81.7308 253.362 81.5154C253.362 81.4513 253.356 81.3833 253.357 81.3167C253.357 81.2679 253.364 81.2179 253.362 81.1698C253.354 80.9974 253.284 81.3788 253.352 81.2288C253.366 81.1861 253.377 81.1418 253.382 81.0967C253.42 80.8486 253.28 81.2493 253.362 81.1218C253.42 81.0326 253.571 80.8153 253.412 81.0006C253.501 80.8974 253.599 80.8082 253.693 80.7133C253.68 80.7274 253.511 80.83 253.629 80.764C253.686 80.7326 253.738 80.6928 253.796 80.6608C253.838 80.637 253.882 80.6172 253.924 80.5966C253.678 80.73 253.846 80.6293 253.93 80.6127C254.256 80.5486 253.765 80.6075 253.998 80.6018C254.265 80.5941 253.915 80.5915 253.926 80.5806C253.985 80.5905 254.044 80.6051 254.102 80.6242C254.373 80.6939 254.645 80.7657 254.916 80.8396C255.562 81.0107 256.198 81.2181 256.82 81.4609C257.174 81.6007 257.529 81.7373 257.882 81.877C258.035 81.9373 258.188 81.9988 258.34 82.0604C258.576 82.1566 258.404 82.086 258.353 82.0649C258.451 82.1076 258.548 82.1504 258.646 82.1931C258.94 82.3564 259.286 82.3997 259.612 82.314C259.938 82.2283 260.218 82.0201 260.395 81.7328C260.562 81.4382 260.608 81.0898 260.522 80.7621C260.436 80.4343 260.226 80.1531 259.937 79.9786L259.945 79.9824Z" fill="#2E6669"/>
<path d="M253.543 82.1731C252.973 82.0394 252.38 82.0515 251.816 82.2084C251.252 82.3652 250.737 82.6618 250.318 83.0707C249.552 83.8355 249.117 84.8728 249.109 85.9569C249.102 87.0411 249.521 88.0845 250.276 88.8603C250.665 89.2719 251.079 89.6617 251.491 90.0528C252.043 90.6068 252.633 91.1221 253.256 91.5948C253.549 91.765 253.897 91.8122 254.225 91.7259C254.553 91.6397 254.833 91.4271 255.005 91.1345C255.167 90.8387 255.21 90.4919 255.125 90.1656C255.039 89.8392 254.832 89.5581 254.546 89.3803C254.321 89.2174 254.776 89.5778 254.61 89.429C254.564 89.388 254.515 89.3501 254.468 89.3098C254.34 89.1988 254.212 89.0847 254.084 88.9699C253.81 88.7205 253.54 88.466 253.272 88.2095C252.836 87.7921 252.427 87.3389 251.985 86.9272C251.925 86.8567 251.943 86.8804 252.039 86.9984C252.001 86.9458 251.966 86.8913 251.933 86.8356C251.882 86.7503 251.839 86.6618 251.794 86.5733C251.932 86.8407 251.799 86.5797 251.776 86.5054C251.717 86.3822 251.684 86.2486 251.677 86.1123L251.693 86.2534C251.685 86.1893 251.68 86.1194 251.677 86.0527C251.672 85.952 251.677 85.8533 251.677 85.7533C251.69 85.6058 251.687 85.6219 251.666 85.8014C251.678 85.7373 251.692 85.6731 251.709 85.609C251.733 85.5218 251.863 85.2929 251.714 85.5565C251.832 85.3487 251.955 85.1468 252.079 84.9435C252.214 84.7242 251.942 85.0525 252.131 84.8794C252.186 84.8281 252.367 84.7095 252.17 84.8249C252.201 84.8063 252.538 84.614 252.372 84.6928C252.205 84.7717 252.55 84.621 252.592 84.6383C252.432 84.655 252.4 84.6588 252.5 84.6512C252.551 84.646 252.602 84.6441 252.654 84.6441C252.706 84.6441 253.157 84.6896 252.866 84.6441C253.193 84.7253 253.539 84.6774 253.831 84.5104C254.124 84.3433 254.342 84.0699 254.439 83.7465C254.526 83.4184 254.48 83.0696 254.313 82.7747C254.145 82.4799 253.87 82.2625 253.544 82.1693L253.543 82.1731Z" fill="#2E6669"/>
<path d="M254.825 73.123C254.17 72.9979 253.582 72.6511 252.922 72.5459C252.214 72.421 251.487 72.4728 250.805 72.6966C249.426 73.1995 248.277 74.1884 247.572 75.4786C246.821 76.7235 246.354 78.1195 246.204 79.5665C246.099 81.0412 246.473 82.6062 247.736 83.4814C248.403 83.8848 249.167 84.0986 249.946 84.0997C250.725 84.1008 251.489 83.8893 252.158 83.4878C252.303 83.4029 252.43 83.2901 252.531 83.156C252.633 83.0218 252.707 82.869 252.749 82.7061C252.792 82.5432 252.802 82.3735 252.78 82.2066C252.757 82.0398 252.701 81.879 252.617 81.7336C252.532 81.5882 252.42 81.461 252.286 81.3591C252.152 81.2573 252 81.1829 251.837 81.1401C251.675 81.0974 251.505 81.0872 251.339 81.11C251.173 81.1328 251.012 81.1883 250.867 81.2733C250.737 81.3524 250.596 81.4147 250.45 81.4586C250.413 81.4701 250.032 81.5515 250.234 81.5227C250.105 81.5388 249.975 81.5444 249.845 81.5394C249.764 81.5394 249.684 81.5329 249.604 81.5253C249.755 81.5483 249.759 81.5471 249.616 81.5214C249.524 81.4958 249.43 81.4695 249.337 81.447C249.114 81.3932 249.509 81.5708 249.264 81.4137C249.198 81.3791 249.134 81.3412 249.072 81.3002C249.164 81.3784 249.176 81.3874 249.107 81.3271C249.064 81.2894 249.022 81.2492 248.983 81.2066C249.057 81.3156 249.051 81.3066 248.967 81.1797C248.835 81.0053 248.946 81.2367 248.89 81.0046C248.85 80.8367 248.805 80.67 248.778 80.4981C248.751 80.2387 248.743 79.9778 248.752 79.7172C248.823 79.118 248.979 78.5319 249.214 77.9765C249.434 77.3978 249.717 76.8454 250.059 76.3294C250.191 76.1392 250.342 75.9634 250.511 75.8049C250.551 75.7652 250.881 75.4907 250.773 75.5696C250.883 75.4898 250.998 75.4162 251.116 75.349C251.488 75.0964 251.938 74.9876 252.383 75.0426C252.183 75.0291 252.595 75.0945 252.655 75.1125C252.823 75.1618 252.986 75.2234 253.149 75.2856C253.471 75.4184 253.805 75.5226 254.145 75.5972C254.472 75.6787 254.818 75.6309 255.11 75.4638C255.403 75.2967 255.621 75.0231 255.718 74.6996C255.805 74.3715 255.76 74.0222 255.592 73.7271C255.425 73.432 255.148 73.2147 254.823 73.1223L254.825 73.123Z" fill="#2E6669"/>
<path d="M198.662 70.0593C192.997 72.2976 187.296 74.9006 182.398 78.5738C178.758 81.3025 176.047 85.2033 173.29 88.7726C171.983 90.5614 170.586 92.2819 169.103 93.9274C167.968 95.1219 169.773 96.9409 170.911 95.7406C173.831 92.6695 176.193 89.0566 178.882 85.7868C180.148 84.1611 181.554 82.6499 183.082 81.2705C185.228 79.551 187.548 78.0624 190.004 76.8292C193.031 75.2153 196.149 73.7809 199.343 72.5335C199.664 72.4349 199.936 72.2166 200.103 71.9234C200.269 71.6301 200.317 71.2841 200.238 70.9563C200.146 70.6292 199.929 70.3516 199.635 70.1836C199.34 70.0156 198.991 69.9707 198.664 70.0587L198.662 70.0593Z" fill="#2E6669"/>
<path d="M160.898 67.7471C168.05 68.8181 174.967 71.1036 181.353 74.5055C182.808 75.2748 184.102 73.0629 182.644 72.2909C176.07 68.7694 168.946 66.3965 161.578 65.2742C161.251 65.1952 160.906 65.2441 160.614 65.4109C160.322 65.5776 160.104 65.8497 160.005 66.1718C159.917 66.4999 159.962 66.8494 160.129 67.1447C160.297 67.4399 160.574 67.657 160.9 67.749L160.898 67.7471Z" fill="#2E6669"/>
<path d="M186.98 112.901C181.709 116.79 176.623 120.912 171.562 125.068C171.325 125.31 171.191 125.636 171.191 125.975C171.191 126.315 171.325 126.64 171.562 126.882C171.806 127.116 172.13 127.246 172.467 127.246C172.803 127.246 173.127 127.116 173.371 126.882C178.264 122.863 183.176 118.875 188.268 115.116C188.554 114.937 188.76 114.656 188.845 114.33C188.931 114.004 188.888 113.657 188.727 113.362C188.554 113.07 188.274 112.858 187.947 112.772C187.619 112.686 187.271 112.732 186.978 112.901H186.98Z" fill="#2E6669"/>
<path d="M98.8849 75.6799C101.976 73.5456 105.57 72.1126 109.086 70.8559C112.527 69.5488 116.088 68.5825 119.717 67.9707C120.043 67.879 120.32 67.662 120.488 67.3667C120.656 67.0713 120.7 66.7216 120.612 66.3935C120.515 66.07 120.298 65.7963 120.005 65.6292C119.712 65.4621 119.366 65.4144 119.039 65.4959C115.333 66.1222 111.697 67.1158 108.186 68.4619C104.547 69.7743 100.799 71.2541 97.5959 73.4628C96.2487 74.3925 97.5262 76.616 98.8868 75.6774L98.8849 75.6799Z" fill="#2E6669"/>
<path d="M85.3371 75.1933C90.1548 77.3905 94.812 79.9115 98.4367 83.854C101.967 87.6932 105.001 91.9863 108.633 95.7281C109.784 96.9129 111.591 95.0985 110.442 93.9143C106.742 90.1033 103.672 85.7165 100.05 81.8292C96.3293 77.8361 91.5384 75.2189 86.628 72.9813C86.3329 72.8195 85.9873 72.777 85.6619 72.8625C85.3366 72.9479 85.0561 73.1549 84.878 73.441C84.7096 73.7353 84.6634 74.0842 84.7492 74.4124C84.8351 74.7406 85.0463 75.0218 85.3371 75.1952V75.1933Z" fill="#2E6669"/>
<path d="M190.71 40.2619C189.954 39.7333 189.064 39.43 188.143 39.3871C187.222 39.3442 186.309 39.5635 185.507 40.0196C184.921 40.3808 184.422 40.8692 184.049 41.4488C183.676 42.0284 183.436 42.6845 183.349 43.369C183.118 44.9748 183.225 46.6114 183.665 48.1731C184.104 49.7347 184.865 51.1865 185.898 52.4348C187.286 54.1582 189.287 55.2559 191.525 54.8193C191.85 54.7264 192.126 54.5091 192.294 54.2142C192.461 53.9192 192.507 53.5701 192.42 53.242C192.324 52.9175 192.107 52.6428 191.814 52.4754C191.521 52.3081 191.174 52.2611 190.847 52.3444C189.366 52.6342 188.085 51.2429 187.362 50.1235C186.588 48.9883 186.072 47.6972 185.85 46.3407C185.667 45.1507 185.642 43.7036 186.291 42.6688C186.431 42.4476 186.179 42.7695 186.365 42.5797C186.426 42.5156 186.621 42.3348 186.621 42.3335C186.85 42.1896 187.101 42.0838 187.364 42.02C187.718 41.9297 188.088 41.9239 188.444 42.0031C188.8 42.0822 189.132 42.2442 189.415 42.4758C189.708 42.6456 190.056 42.6925 190.384 42.6065C190.711 42.5204 190.992 42.3083 191.164 42.0161C191.327 41.7206 191.371 41.3734 191.285 41.0467C191.2 40.7199 190.992 40.4387 190.706 40.2613L190.71 40.2619Z" fill="#2E6669"/>
<path d="M232.892 39.5248C233.138 39.2856 233.436 39.1058 233.762 38.999C234.087 38.8923 234.433 38.8614 234.773 38.9087C235.057 38.9335 235.332 39.0211 235.579 39.1651C235.835 39.3171 235.747 39.2671 235.991 39.521C236.175 39.7133 235.894 39.3485 236.025 39.5627C236.11 39.7011 236.198 39.8326 236.271 39.9788C236.399 40.2507 236.499 40.5351 236.569 40.8277C236.751 41.5627 236.83 42.3198 236.802 43.0768C236.754 44.3669 236.44 45.6331 235.879 46.7955C235.225 48.1791 234.157 49.6929 232.461 49.5909C230.817 49.4922 230.823 52.0568 232.461 52.1555C236.201 52.3799 238.305 48.4368 239.077 45.3151C239.737 42.6453 239.517 38.4323 236.806 36.916C235.891 36.4251 234.844 36.2377 233.816 36.3807C232.788 36.5236 231.831 36.9896 231.083 37.7117C229.91 38.8728 231.719 40.686 232.892 39.5248Z" fill="#2E6669"/>
<path d="M231.257 48.9846C230.79 52.0486 229.643 54.9685 227.901 57.5292C226.022 60.5035 223.426 63.7843 219.92 64.8294C218.346 65.2994 219.016 67.7748 220.6 67.3023C224.657 66.0918 227.674 62.5809 229.906 59.1417C231.84 56.2938 233.142 53.0624 233.723 49.6662C233.802 49.3384 233.753 48.9927 233.587 48.6997C233.421 48.4066 233.149 48.1882 232.828 48.0889C232.5 48.001 232.152 48.0459 231.857 48.2139C231.563 48.3819 231.347 48.6595 231.255 48.9865L231.257 48.9846Z" fill="#2E6669"/>
<path d="M189.664 52.3223C192.067 60.2232 198.654 67.9567 207.295 68.6498C208.936 68.7813 208.927 66.2134 207.295 66.0852C203.516 65.7819 200.326 63.7251 197.713 61.0797C195.117 58.4336 193.201 55.1943 192.13 51.6407C191.651 50.0667 189.182 50.7373 189.664 52.3223Z" fill="#2E6669"/>
<path d="M223.733 9.47165C219.812 7.37645 215.451 6.24252 211.008 6.16273C206.566 6.08293 202.167 7.05955 198.173 9.01259C194.918 10.6493 192.038 12.9476 189.717 15.7612C187.395 18.5749 185.683 21.8423 184.69 25.3555C183.352 30.4766 183.555 35.8801 185.272 40.8861C185.79 42.4441 188.261 41.7761 187.738 40.2046C186.31 36.1139 185.993 31.716 186.818 27.4617C187.513 24.0747 188.97 20.8913 191.076 18.1535C193.268 15.3388 196.046 13.0387 199.217 11.4143C202.388 9.78988 205.875 8.88045 209.434 8.74972C213.957 8.51496 218.456 9.53076 222.442 11.6862C223.89 12.4716 225.183 10.2577 223.733 9.47165Z" fill="#2E6669"/>
<path d="M236.54 37.6848C237.101 34.9308 237.244 32.1075 236.964 29.3107C236.68 26.7444 236.037 24.2308 235.055 21.8439C233.407 17.9217 230.775 14.494 227.414 11.8938C227.169 11.6634 226.846 11.5352 226.51 11.5352C226.174 11.5352 225.85 11.6634 225.605 11.8938C225.368 12.1354 225.234 12.4611 225.234 12.8004C225.234 13.1398 225.368 13.4655 225.605 13.707C228.671 16.0439 231.092 19.1244 232.643 22.6588C234.531 27.1914 235.029 32.1854 234.074 37.0032C233.779 38.6164 236.243 39.3114 236.54 37.6848Z" fill="#2E6669"/>
<path d="M208.451 57.6199C209.813 58.217 211.303 58.4645 212.785 58.3399C214.3 58.308 215.764 57.7893 216.963 56.8601C217.202 56.6187 217.335 56.2928 217.335 55.9532C217.335 55.6136 217.202 55.2877 216.963 55.0463C216.72 54.8135 216.396 54.6836 216.059 54.6836C215.723 54.6836 215.399 54.8135 215.155 55.0463C214.931 55.2386 215.369 54.9072 215.202 55.0136C215.123 55.0643 215.046 55.1207 214.965 55.17C214.883 55.2194 214.788 55.2707 214.697 55.3169C214.639 55.3532 214.577 55.3824 214.513 55.4041C214.56 55.4182 214.811 55.2893 214.576 55.3752C214.284 55.4838 213.985 55.5727 213.681 55.6413C213.58 55.6644 213.478 55.6849 213.376 55.7054C213.344 55.7118 213.046 55.7618 213.215 55.7349C213.385 55.708 213.065 55.7522 213.032 55.7554C212.905 55.7682 212.777 55.7791 212.654 55.7875C212.237 55.8163 211.819 55.8183 211.403 55.7932C211.318 55.7881 211.233 55.7817 211.147 55.7734C211.099 55.7689 211.05 55.7637 211.002 55.758C210.902 55.7458 210.938 55.7516 211.112 55.7734C210.97 55.7713 210.829 55.7459 210.695 55.6983C210.449 55.6459 210.206 55.5776 209.968 55.4938C209.883 55.4637 209.8 55.4297 209.713 55.3983C209.44 55.2931 210.043 55.5413 209.736 55.4079C209.441 55.2453 209.095 55.2023 208.769 55.288C208.444 55.3737 208.164 55.5814 207.986 55.8683C207.819 56.1627 207.773 56.5112 207.859 56.8392C207.944 57.1671 208.155 57.4483 208.445 57.6224L208.451 57.6199Z" fill="#2E6669"/>
<path d="M211.351 47.7822C211.466 48.1201 211.573 48.4612 211.676 48.8029C211.797 49.1586 211.89 49.523 211.956 49.8929L211.911 49.5518C211.919 49.6232 211.919 49.6952 211.911 49.7666L211.957 49.4255C211.951 49.4584 211.942 49.4908 211.931 49.5223L212.059 49.2158C212.046 49.2454 212.03 49.2736 212.011 49.2998L212.21 49.0402C212.197 49.0576 212.181 49.0734 212.164 49.087L212.419 48.8869C212.343 48.9401 212.262 48.9852 212.176 49.0216L212.482 48.8933C212.399 48.9269 212.311 48.9503 212.222 48.9632L212.563 48.9177C212.4 48.9235 212.237 48.9151 212.076 48.8927C211.823 48.8926 211.576 48.9678 211.365 49.1086C211.155 49.2495 210.991 49.4497 210.894 49.684C210.797 49.9183 210.772 50.1762 210.821 50.4249C210.871 50.6737 210.992 50.9022 211.171 51.0816C211.418 51.3115 211.739 51.4448 212.076 51.4573C212.21 51.4748 212.345 51.4853 212.48 51.4887C212.871 51.4757 213.252 51.3683 213.593 51.1759C213.798 51.0671 213.978 50.9157 214.121 50.7316C214.263 50.5475 214.365 50.335 214.419 50.1083C214.49 49.7389 214.475 49.3579 214.375 48.9953C214.217 48.3541 214.024 47.7264 213.812 47.1039C213.716 46.785 213.507 46.5125 213.224 46.3377C213.079 46.2526 212.919 46.197 212.753 46.1741C212.586 46.1511 212.417 46.1613 212.254 46.204C212.092 46.2467 211.939 46.321 211.805 46.4229C211.672 46.5247 211.559 46.652 211.474 46.7974C211.388 46.9452 211.333 47.1088 211.311 47.2785C211.289 47.4482 211.301 47.6205 211.346 47.7854L211.351 47.7822Z" fill="#2E6669"/>
<path d="M200.21 42.781C199.935 43.9004 200.326 46.4099 202.477 46.4843C205.3 46.2823 205.251 43.2215 204.207 41.8488C203.352 40.7255 201.031 40.3869 200.21 42.781Z" fill="#2E6669"/>
<path d="M222.827 41.2968C223.246 42.3714 223.184 44.9097 221.062 45.2649C218.236 45.4335 217.886 42.3919 218.743 40.8948C219.445 39.6696 221.702 39.031 222.827 41.2968Z" fill="#2E6669"/>
<path d="M54.2434 36.8439C53.5976 36.2105 52.7873 35.7717 51.9049 35.5774C51.0226 35.3831 50.1035 35.4412 49.2524 35.745C48.61 36.0006 48.0336 36.3988 47.5664 36.9095C47.0993 37.4203 46.7535 38.0305 46.5549 38.6943C45.5133 41.6064 46.1303 45.1424 47.6776 47.766C48.7646 49.6074 50.5452 51.1641 52.7978 51.041C54.4352 50.9531 54.4455 48.3879 52.7978 48.4764C51.1501 48.5648 50.1124 47.0722 49.4915 45.7194C48.9559 44.5788 48.6589 43.3403 48.6188 42.0802C48.5972 41.3408 48.6792 40.6021 48.8624 39.8856C48.9611 39.4444 49.1446 39.0266 49.4027 38.6558C49.5548 38.4257 49.2077 38.8482 49.4346 38.6219C49.6751 38.3808 49.5625 38.443 49.8362 38.2814C50.0708 38.1517 50.3284 38.0692 50.5945 38.0384C50.9278 37.995 51.2667 38.0281 51.5854 38.1352C51.9042 38.2423 52.1946 38.4205 52.4346 38.6565C53.6002 39.8247 55.409 38.0115 54.2434 36.8427V36.8439Z" fill="#2E6669"/>
<path d="M95.0493 41.8189C95.3242 41.595 95.6482 41.4396 95.9947 41.3657C96.3412 41.2918 96.7002 41.3015 97.0422 41.3938C97.3066 41.455 97.5568 41.5665 97.7794 41.7221C97.6592 41.6356 97.9335 41.8715 97.9667 41.9016C98.0094 41.9444 98.0484 41.9871 98.0838 42.0299C98.0077 41.9286 97.9949 41.9132 98.0447 41.985C98.6886 42.9659 98.6681 44.4335 98.4744 45.6094C98.253 46.9059 97.7563 48.1396 97.0179 49.2268C96.3044 50.3379 95.0358 51.7318 93.5653 51.4343C93.2383 51.3524 92.8924 51.4 92.5995 51.5672C92.3067 51.7343 92.0892 52.0082 91.9924 52.3319C91.9056 52.66 91.9508 53.0091 92.1182 53.3041C92.2856 53.5991 92.5619 53.8164 92.8875 53.9091C96.5838 54.658 99.0748 51.3253 100.348 48.3119C100.985 46.7891 101.243 45.1335 101.098 43.4885C101.068 42.1061 100.494 40.7919 99.4993 39.8339C98.6965 39.1788 97.7034 38.8025 96.6691 38.7615C95.6349 38.7206 94.6153 39.0173 93.7635 39.6069C93.4783 39.7855 93.272 40.0666 93.1867 40.3927C93.1014 40.7187 93.1435 41.0652 93.3044 41.3611C93.4773 41.6531 93.7578 41.865 94.0853 41.9512C94.4127 42.0373 94.7609 41.9907 95.0544 41.8215L95.0493 41.8189Z" fill="#2E6669"/>
<path d="M92.2292 50.8318C91.3426 53.6676 89.8659 56.2826 87.8968 58.5038C85.5988 61.2017 82.6475 63.9875 79.0132 64.5447C78.6871 64.6368 78.4103 64.8541 78.2427 65.1494C78.0752 65.4447 78.0304 65.7944 78.1181 66.1226C78.2149 66.4463 78.4324 66.7201 78.7253 66.8873C79.0182 67.0544 79.364 67.102 79.691 67.0202C83.7191 66.4021 87.1487 63.3195 89.703 60.3202C91.9718 57.7748 93.6732 54.7735 94.6934 51.5165C95.1544 49.9284 92.687 49.25 92.2273 50.8343L92.2292 50.8318Z" fill="#2E6669"/>
<path d="M51.4957 48.504C52.7457 56.3164 58.1228 64.7437 66.2525 66.539C67.8567 66.8935 68.5415 64.4232 66.9328 64.066C59.6183 62.451 55.0768 54.7911 53.9643 47.8225C53.8726 47.4955 53.656 47.2179 53.3616 47.0499C53.0672 46.8819 52.7186 46.8369 52.3914 46.9249C52.0685 47.0217 51.7952 47.2397 51.6284 47.5335C51.4617 47.8272 51.4144 48.1742 51.4963 48.5021L51.4957 48.504Z" fill="#2E6669"/>
<path d="M90.1574 11.1885C86.6311 8.64576 82.5533 6.97879 78.2593 6.32472C73.9652 5.67065 69.5777 6.04818 65.4575 7.42625C62.0811 8.59264 58.9832 10.4498 56.3601 12.8799C53.7371 15.31 51.6461 18.2601 50.2199 21.5431C48.2404 26.3768 47.7327 31.6901 48.7608 36.8128C49.0626 38.433 51.528 37.7469 51.2269 36.1312C49.8286 28.6298 51.9302 20.8417 57.3866 15.4342C61.554 11.4305 66.9975 9.03115 72.7569 8.65942C78.5163 8.28769 84.2216 9.96746 88.8665 13.4024C89.1598 13.5719 89.5078 13.6186 89.8352 13.5326C90.1626 13.4465 90.4431 13.2346 90.6158 12.9427C90.7793 12.6474 90.8229 12.3002 90.7375 11.9734C90.6521 11.6466 90.4443 11.3655 90.1574 11.1885Z" fill="#2E6669"/>
<path d="M99.0283 40.2601C100.739 35.2796 100.956 29.9051 99.6504 24.8026C98.5557 20.775 96.4532 17.0945 93.5425 14.1101C92.3916 12.922 90.5879 14.7365 91.7337 15.9233C94.3357 18.5909 96.2123 21.8828 97.1844 25.4847C97.7506 27.6641 98.0108 29.9121 97.9574 32.1636C97.8698 34.6927 97.3994 37.1938 96.5622 39.5811C96.0463 41.1526 98.5156 41.8251 99.0283 40.2626V40.2601Z" fill="#2E6669"/>
<path d="M69.1453 56.115C70.373 56.8312 71.7547 57.24 73.1734 57.307C74.5894 57.4801 76.0238 57.2002 77.2718 56.5074C77.5646 56.3358 77.7775 56.0545 77.8635 55.7255C77.9496 55.3964 77.9017 55.0466 77.7305 54.7529C77.5594 54.4593 77.2789 54.2458 76.9507 54.1595C76.6226 54.0733 76.2737 54.1212 75.9809 54.2929C75.8428 54.3827 75.6708 54.4365 75.5397 54.5308C75.3156 54.6494 75.1463 54.8508 75.0675 55.0924C74.9888 55.334 75.0068 55.5968 75.1178 55.8253C75.2288 56.0538 75.424 56.23 75.6623 56.3168C75.9005 56.4035 76.163 56.394 76.3944 56.2902C76.6257 56.1864 76.8077 55.9964 76.9019 55.7605C76.9961 55.5245 76.9952 55.2611 76.8992 55.0259C76.8032 54.7906 76.6198 54.602 76.3877 54.5C76.1556 54.3979 75.893 54.3903 75.6554 54.4788C75.6049 54.4955 75.5557 54.5154 75.5052 54.532C75.3807 54.5748 75.2543 54.6109 75.126 54.6404C74.9783 54.6763 74.8294 54.7045 74.6785 54.7295C74.4387 54.7725 74.8703 54.7148 74.6977 54.7257C74.6152 54.7308 74.5327 54.7424 74.4502 54.7481C74.0244 54.7764 73.597 54.7744 73.1715 54.7423C73.0653 54.7347 72.9592 54.725 72.8518 54.7141C72.7443 54.7032 72.5826 54.6808 72.7763 54.709C72.5815 54.6808 72.3876 54.646 72.1945 54.6045C71.8907 54.5392 71.5917 54.4535 71.2994 54.348C71.2313 54.3165 71.1612 54.2895 71.0896 54.2673C71.1632 54.2826 71.3627 54.391 71.1747 54.3012C71.0749 54.2531 70.9745 54.2063 70.8767 54.1544C70.7265 54.0755 70.5813 53.9884 70.4362 53.898C70.1433 53.7263 69.7945 53.6783 69.4663 53.7646C69.1382 53.8509 68.8577 54.0643 68.6865 54.358C68.5153 54.6516 68.4675 55.0015 68.5535 55.3305C68.6396 55.6595 68.8524 55.9408 69.1453 56.1125V56.115Z" fill="#2E6669"/>
<path d="M73.1565 47.0101C73.252 47.5012 73.3334 47.9947 73.4007 48.4905L73.3547 48.15C73.4029 48.3996 73.4214 48.654 73.4097 48.9079L73.4551 48.5668C73.448 48.6182 73.4349 48.6685 73.4161 48.7168L73.5439 48.4104C73.5313 48.4369 73.5165 48.4624 73.4998 48.4867L73.7 48.227C73.6809 48.2505 73.6595 48.272 73.636 48.2911L73.895 48.0904C73.8635 48.1106 73.8304 48.128 73.7959 48.1424L74.1015 48.0141C74.0094 48.0528 73.9133 48.0811 73.815 48.0988L74.1552 48.0526C74.0675 48.0638 73.9788 48.0638 73.8911 48.0526L74.2313 48.0988C74.1092 48.0808 73.9934 48.0417 73.8732 48.0173C73.5404 47.9341 73.1885 47.9799 72.8879 48.1456C72.7428 48.2305 72.6159 48.3433 72.5142 48.4775C72.4126 48.6117 72.3384 48.7646 72.2958 48.9276C72.2531 49.0905 72.2429 49.2603 72.2658 49.4273C72.2886 49.5942 72.344 49.755 72.4289 49.9004C72.5967 50.1896 72.8711 50.4012 73.1929 50.4896C73.4233 50.5443 73.6564 50.5871 73.8911 50.6178C74.1778 50.6434 74.4666 50.6044 74.7364 50.5037C75.0176 50.4183 75.275 50.2679 75.4877 50.0645C75.6747 49.8693 75.8126 49.6321 75.8898 49.3727C75.9662 49.116 75.9895 48.8463 75.9582 48.5803C75.8777 47.8263 75.7664 47.0748 75.6194 46.3305C75.5294 46.0086 75.3189 45.7341 75.0318 45.5643C74.8868 45.4792 74.7265 45.4236 74.5601 45.4006C74.3936 45.3777 74.2243 45.3878 74.0618 45.4305C73.8993 45.4732 73.7467 45.5476 73.6129 45.6494C73.4791 45.7513 73.3666 45.8785 73.2818 46.024C73.122 46.3272 73.0766 46.678 73.1539 47.012L73.1565 47.0101Z" fill="#2E6669"/>
<path d="M63.0016 40.4826C62.5841 41.5328 62.6282 44.0211 64.7068 44.3827C67.4741 44.5661 67.836 41.5873 67.0054 40.1152C66.3258 38.9092 64.118 38.2693 63.0016 40.4826Z" fill="#2E6669"/>
<path d="M85.1527 42.0812C85.4155 43.1801 85.0172 45.6364 82.9085 45.696C80.1432 45.4799 80.2103 42.4806 81.2423 41.1438C82.0876 40.0468 84.3637 39.7294 85.1527 42.0812Z" fill="#2E6669"/>
<path d="M85.2055 24.1382C85.9177 27.841 87.1233 31.431 88.7899 34.8115C89.4728 36.3 90.2731 37.7315 91.1831 39.0924C91.836 40.1775 92.7158 41.1078 93.7617 41.8193C95.1843 42.6528 96.4733 40.4395 95.0526 39.6047C94.9654 39.5564 94.8812 39.5026 94.8007 39.4438C95.0283 39.6169 94.7316 39.3797 94.7099 39.3611C94.536 39.1963 94.3665 39.0303 94.2061 38.852C93.8345 38.4297 93.4957 37.9796 93.1926 37.5056C92.3279 36.1664 91.562 34.7656 90.9011 33.3144C89.3971 30.1863 88.3112 26.8728 87.6716 23.4599C87.5796 23.1331 87.363 22.8557 87.0687 22.6877C86.7743 22.5198 86.4259 22.4747 86.0987 22.5623C85.7756 22.6588 85.5021 22.8768 85.3353 23.1706C85.1685 23.4645 85.1213 23.8116 85.2036 24.1395L85.2055 24.1382Z" fill="#2E6669"/>
<path d="M69.82 25.7599C64.2088 29.3811 58.6692 33.1165 52.9768 36.6101C51.5753 37.4706 52.8586 39.6877 54.2677 38.8247C59.9582 35.331 65.4997 31.5957 71.1109 27.9745C72.4907 27.0839 71.2094 24.8636 69.82 25.7599Z" fill="#2E6669"/>
<path d="M85.3176 23.0068C82.2436 26.7086 78.3149 29.6018 73.8727 31.4354C72.7495 31.8738 71.5997 32.2404 70.4303 32.5331C70.2666 32.5758 70.1025 32.6153 69.938 32.6517C69.6336 32.7158 69.6068 32.7256 69.8574 32.6812L70.5083 32.9511C70.593 33.0309 70.6563 33.1308 70.6925 33.2415C70.6643 33.1056 70.6637 33.1178 70.6925 33.2787C70.6873 33.1986 70.6861 33.1178 70.688 33.037C70.6976 32.9261 70.7059 32.6908 70.7123 32.6382C70.9041 30.9616 71.5716 29.2081 71.897 27.4968C72.2039 25.8843 69.7391 25.1932 69.431 26.8153C69.1273 28.413 68.5998 29.9569 68.3108 31.5598C68.0723 32.8774 67.8786 35.1842 69.8203 35.2406C70.8032 35.165 71.7685 34.9368 72.6816 34.5642C73.7684 34.2199 74.8356 33.8163 75.8785 33.355C77.86 32.4846 79.7368 31.392 81.473 30.098C83.5455 28.5527 85.4414 26.7826 87.1264 24.82C88.198 23.5768 86.3962 21.756 85.3176 23.0068Z" fill="#2E6669"/>
<path d="M224.702 30.1465C224.926 30.2799 224.619 30.0689 224.62 30.0709C224.667 30.1211 224.718 30.168 224.772 30.2113C224.82 30.26 224.865 30.3126 224.912 30.3632C225.155 30.6267 224.843 30.2459 224.928 30.3754C225.174 30.7466 225.423 31.1089 225.646 31.4955C226.196 32.4489 226.682 33.4388 227.17 34.4249C227.673 35.4399 228.167 36.4612 228.713 37.4537C229.096 38.243 229.596 38.9695 230.196 39.6086C231.082 40.4485 232.489 40.4588 233.09 39.265C233.253 38.9694 233.296 38.6223 233.211 38.2957C233.125 37.9691 232.918 37.688 232.631 37.5108C232.337 37.3426 231.99 37.2966 231.663 37.3827C231.335 37.4687 231.055 37.68 230.882 37.9711C230.862 38.0213 230.835 38.0682 230.802 38.1103C231.109 37.8115 231.006 37.8615 230.937 37.9301C230.831 38.0352 231.157 37.7698 231.128 37.7884C230.97 37.8871 231.41 37.6993 231.456 37.6935C231.826 37.648 231.348 37.6717 231.716 37.6935C231.961 37.7089 231.872 37.7185 231.804 37.7006C231.689 37.6698 232.165 37.8692 231.964 37.7647C231.763 37.6602 232.173 37.9859 232.07 37.8525C231.986 37.7454 231.866 37.6467 231.774 37.546C231.577 37.33 231.911 37.7512 231.799 37.5819C231.754 37.5121 231.702 37.4467 231.655 37.3781C231.536 37.205 231.425 37.0274 231.317 36.8485C231.077 36.449 230.853 36.04 230.636 35.6303C229.665 33.7863 228.832 31.8642 227.775 30.0657C227.365 29.2201 226.753 28.4885 225.994 27.9352C224.576 27.0895 223.288 29.3053 224.703 30.1497L224.702 30.1465Z" fill="#2E6669"/>
<path d="M120.266 32.7776C119.558 32.1511 118.685 31.7418 117.752 31.5987C116.819 31.4556 115.864 31.5846 115.002 31.9704C114.396 32.2642 113.862 32.6892 113.44 33.2147C113.017 33.7402 112.716 34.3532 112.558 35.0095C112.174 36.5667 112.123 38.1881 112.409 39.7665C112.696 41.3449 113.313 42.8443 114.221 44.1657C115.429 45.9469 117.302 47.4997 119.584 47.2298C119.92 47.2198 120.239 47.0815 120.477 46.8432C120.715 46.6048 120.852 46.2844 120.862 45.9475C120.86 45.608 120.725 45.2831 120.486 45.043C120.246 44.803 119.922 44.6672 119.584 44.6652C116.676 45.0063 115.001 40.8574 114.811 38.4819C114.714 37.2464 114.731 35.7192 115.506 34.6895C115.32 34.9364 115.843 34.4061 115.748 34.4735C115.974 34.3147 116.231 34.2055 116.502 34.1529C116.84 34.0687 117.192 34.0642 117.532 34.1399C117.872 34.2156 118.189 34.3692 118.46 34.5889C119.69 35.6788 121.506 33.8689 120.268 32.7757L120.266 32.7776Z" fill="#2E6669"/>
<path d="M162.279 34.9549C162.538 34.7548 162.838 34.6146 163.157 34.5443C163.476 34.4739 163.806 34.4751 164.125 34.5477C164.36 34.5785 164.586 34.6563 164.789 34.7766C164.993 34.8969 165.171 35.0572 165.312 35.2479C165.184 35.0895 165.28 35.1972 165.333 35.3024C165.394 35.4222 165.47 35.5319 165.525 35.6563C165.634 35.93 165.715 36.2136 165.768 36.5032C165.906 37.2448 165.938 38.0024 165.862 38.753C165.731 40.0406 165.333 41.2864 164.694 42.4108C164.055 43.5796 162.826 45.2774 161.285 45.069C160.958 44.9904 160.614 45.0394 160.322 45.2061C160.029 45.3728 159.812 45.6447 159.712 45.9666C159.624 46.2948 159.669 46.6444 159.836 46.9396C160.004 47.2349 160.281 47.452 160.607 47.5439C164.527 48.0735 166.906 44.4561 167.983 41.1644C168.855 38.4991 168.828 34.3823 166.233 32.6602C165.346 32.1192 164.31 31.8746 163.275 31.9615C162.24 32.0484 161.259 32.4623 160.474 33.1436C160.237 33.3855 160.104 33.711 160.104 34.0502C160.104 34.3893 160.237 34.7149 160.474 34.9568C160.717 35.191 161.041 35.3218 161.379 35.3218C161.716 35.3218 162.04 35.191 162.283 34.9568L162.279 34.9549Z" fill="#2E6669"/>
<path d="M159.853 44.422C159.602 45.546 159.247 46.6442 158.794 47.7027C158.737 47.8354 158.305 48.7863 158.503 48.3516C158.408 48.5587 158.311 48.7645 158.209 48.9677C157.527 50.2699 156.74 51.5136 155.855 52.6864C153.75 55.5286 150.893 58.5331 147.316 59.3172C145.709 59.6698 146.389 62.1427 147.996 61.7901C152.126 60.8848 155.374 57.5367 157.837 54.2835C158.812 53.022 159.675 51.6773 160.417 50.2648C160.533 50.0378 160.642 49.8074 160.743 49.5736C160.743 49.5813 160.999 48.9966 160.857 49.3171C160.97 49.0665 161.081 48.8164 161.186 48.5631C161.664 47.4462 162.043 46.2894 162.319 45.1061C162.679 43.4987 160.214 42.812 159.853 44.4245V44.422Z" fill="#2E6669"/>
<path d="M118.176 44.6703C119.942 52.5147 125.904 60.8234 134.288 62.125C134.615 62.2045 134.96 62.1559 135.252 61.9891C135.544 61.8223 135.762 61.5498 135.861 61.2273C135.948 60.8992 135.903 60.5497 135.736 60.2544C135.568 59.9592 135.292 59.7419 134.966 59.6495C127.404 58.4762 122.229 51.0478 120.639 43.9861C120.277 42.3769 117.81 43.0584 118.173 44.6683L118.176 44.6703Z" fill="#2E6669"/>
<path d="M155.214 4.31932C151.442 1.93825 147.159 0.49382 142.719 0.105988C138.279 -0.281843 133.81 0.398118 129.685 2.0894C126.339 3.50003 123.32 5.59017 120.819 8.22819C118.318 10.8662 116.389 13.995 115.153 17.4174C113.46 22.4279 113.282 27.8286 114.642 32.9403C115.045 34.5394 117.513 33.8617 117.108 32.2581C115.197 24.6926 116.767 16.5711 122.019 10.693C124.081 8.37031 126.56 6.45776 129.328 5.05537C133.102 3.23168 137.273 2.38839 141.457 2.60296C145.889 2.76384 150.195 4.12196 153.921 6.53386C155.311 7.42634 156.595 5.20796 155.212 4.31932H155.214Z" fill="#2E6669"/>
<path d="M166.01 33.3635C167.451 28.169 167.334 22.6638 165.675 17.5354C164.296 13.4789 161.9 9.84636 158.717 6.98713C157.496 5.88692 155.681 7.6924 156.909 8.80095C159.781 11.3447 161.95 14.5879 163.208 18.2175C164.744 22.8997 164.86 27.9333 163.543 32.6819C163.128 34.2797 165.594 34.9618 166.01 33.3635Z" fill="#2E6669"/>
<path d="M136.583 51.3044C137.868 51.9659 139.294 52.3062 140.739 52.2963C142.109 52.3084 143.723 52.1097 144.861 51.2627C145.147 51.0852 145.355 50.804 145.44 50.4773C145.526 50.1506 145.482 49.8035 145.319 49.5079C145.146 49.2171 144.865 49.0062 144.538 48.9203C144.211 48.8344 143.864 48.8803 143.57 49.0482C143.433 49.1497 143.287 49.2402 143.136 49.3187C143.092 49.3412 143.048 49.3617 143.004 49.3829C142.789 49.4912 143.098 49.3604 143.103 49.3438C143.087 49.3938 142.775 49.463 142.724 49.479C142.422 49.5674 142.114 49.6363 141.803 49.6855C142.123 49.6284 141.768 49.6855 141.719 49.6913C141.623 49.7009 141.527 49.7079 141.431 49.7137C141.2 49.7278 140.97 49.7329 140.739 49.731C140.528 49.731 140.316 49.722 140.106 49.7073C139.99 49.699 139.875 49.6874 139.76 49.6771C139.504 49.6547 139.878 49.7009 139.728 49.6771C139.414 49.627 139.103 49.5592 138.797 49.4739C138.669 49.4359 138.541 49.3931 138.413 49.3457C138.362 49.3264 138.31 49.3053 138.259 49.286C138.03 49.2021 138.547 49.4226 138.342 49.3207C138.188 49.2437 138.031 49.1706 137.878 49.0898C137.585 48.9182 137.236 48.8702 136.908 48.9565C136.58 49.0428 136.299 49.2562 136.128 49.5499C135.957 49.8435 135.909 50.1934 135.995 50.5224C136.081 50.8514 136.294 51.1327 136.587 51.3044H136.583Z" fill="#2E6669"/>
<path d="M140.141 41.7499C140.325 42.4177 140.471 43.0954 140.579 43.7798L140.533 43.4394C140.545 43.532 140.547 43.6258 140.538 43.7189L140.584 43.3778C140.577 43.4215 140.566 43.4645 140.551 43.506L140.679 43.1996C140.666 43.2281 140.651 43.2552 140.632 43.2804L140.832 43.0207C140.82 43.0372 140.805 43.0522 140.79 43.0656L141.048 42.8655C140.99 42.9064 140.927 42.9402 140.861 42.9662L141.167 42.838C141.08 42.8736 140.989 42.8992 140.896 42.9143L141.236 42.8687C141.142 42.8806 141.046 42.8806 140.952 42.8687L141.292 42.9143C141.197 42.9002 141.104 42.8771 141.009 42.8642C140.676 42.788 140.327 42.8334 140.024 42.9925C139.879 43.0775 139.752 43.1903 139.651 43.3245C139.549 43.4587 139.475 43.6117 139.432 43.7746C139.39 43.9376 139.38 44.1074 139.403 44.2743C139.425 44.4412 139.481 44.6019 139.566 44.7473C139.647 44.8925 139.757 45.0197 139.889 45.1209C140.021 45.2222 140.172 45.2956 140.333 45.3365C140.571 45.3692 140.801 45.4263 141.043 45.4417C141.429 45.4501 141.811 45.362 142.155 45.1852C142.366 45.0861 142.554 44.9427 142.705 44.7646C142.856 44.5865 142.966 44.3779 143.03 44.153C143.121 43.7833 143.123 43.397 143.036 43.0264C142.925 42.3667 142.777 41.7127 142.608 41.0658C142.563 40.9034 142.487 40.7515 142.384 40.6186C142.281 40.4857 142.153 40.3745 142.006 40.2913C141.86 40.2081 141.699 40.1546 141.533 40.1338C141.366 40.113 141.197 40.1254 141.035 40.1701C140.873 40.2149 140.722 40.2912 140.589 40.3947C140.457 40.4981 140.346 40.6268 140.263 40.7732C140.18 40.9197 140.126 41.0811 140.106 41.2482C140.085 41.4154 140.097 41.585 140.142 41.7474L140.141 41.7499Z" fill="#2E6669"/>
<path d="M129.376 35.8431C129.018 36.9395 129.223 39.4708 131.363 39.7048C134.193 39.7125 134.368 36.6561 133.43 35.2103C132.66 34.0261 130.368 33.517 129.376 35.8431Z" fill="#2E6669"/>
<path d="M152.043 36.0402C152.382 37.1423 152.134 39.6697 149.99 39.8659C147.16 39.8249 147.036 36.766 148.001 35.3362C148.788 34.1661 151.084 33.6968 152.043 36.0402Z" fill="#2E6669"/>
<path d="M147.624 22.4597C149.645 23.3786 151.463 24.69 152.974 26.3181C154.583 27.8917 155.89 29.7472 156.833 31.7929C156.932 32.1154 157.149 32.3878 157.442 32.5547C157.734 32.7215 158.079 32.7701 158.406 32.6905C158.732 32.5985 159.009 32.3813 159.176 32.0859C159.344 31.7906 159.389 31.4408 159.301 31.1126C158.257 28.6956 156.766 26.4985 154.908 24.637C153.222 22.7898 151.185 21.2982 148.917 20.2496C148.622 20.0887 148.277 20.0467 147.951 20.1322C147.626 20.2178 147.346 20.4244 147.167 20.71C146.999 21.0042 146.952 21.3532 147.038 21.6814C147.124 22.0097 147.335 22.2908 147.626 22.4642L147.624 22.4597Z" fill="#2E6669"/>
<path d="M123.648 31.8783C125.325 30.1003 127.109 28.4271 128.99 26.8684C129.886 26.1168 130.822 25.4137 131.793 24.7622C132.2 24.4916 132.616 24.2326 133.043 23.9928C133.156 23.9308 133.269 23.8699 133.383 23.8101C133.255 23.8397 133.122 23.8387 132.994 23.8072C132.867 23.7757 132.748 23.7145 132.649 23.6286C132.653 23.921 132.673 24.2129 132.708 24.5032C132.662 25.7925 133.464 26.9607 134.865 26.8677C135.874 26.8036 136.982 25.9227 137.853 25.4373C139.978 24.1762 142.177 23.0459 144.439 22.0527C144.761 21.9537 145.033 21.7352 145.199 21.4419C145.365 21.1486 145.414 20.8027 145.334 20.4748C145.242 20.1478 145.026 19.8702 144.731 19.7022C144.437 19.5342 144.088 19.4893 143.761 19.5772C141.361 20.6102 139.027 21.7891 136.77 23.1074C136.259 23.3927 135.747 23.6793 135.229 23.962C135.05 24.0368 134.878 24.1298 134.718 24.2397C134.419 24.3581 134.513 24.41 134.998 24.3955C135.194 24.7934 135.283 24.8287 135.267 24.5012C135.374 23.7917 135.253 23.0664 134.92 22.431C134.785 22.155 134.59 21.9124 134.351 21.7209C134.111 21.5293 133.832 21.3934 133.533 21.3231C132.418 21.0775 131.19 22.0783 130.318 22.6695C129.3 23.3574 128.327 24.1133 127.377 24.8923C125.424 26.4956 123.576 28.2223 121.843 30.062C120.712 31.2609 122.517 33.0754 123.651 31.8758L123.648 31.8783Z" fill="#2E6669"/>
<path d="M192.031 43.319C192.436 41.0436 193.16 38.8373 194.183 36.7658C194.767 35.4843 195.471 34.2608 196.284 33.1113C196.893 32.2215 197.686 31.4737 198.609 30.9185C200.055 30.1286 198.765 27.9134 197.318 28.704C194.833 30.0619 193.226 32.8362 192.048 35.3143C190.873 37.6218 190.036 40.0875 189.565 42.6349C189.485 42.9627 189.534 43.3085 189.7 43.6016C189.866 43.8948 190.138 44.1132 190.46 44.2122C190.787 44.3002 191.136 44.2554 191.43 44.0874C191.725 43.9193 191.941 43.6416 192.033 43.3146L192.031 43.319Z" fill="#2E6669"/>
<path d="M20.14 137.492C24.0926 132.184 28.1482 126.793 31.278 120.943C32.2753 119.047 33.0515 117.042 33.5912 114.968C34.4116 111.94 35.1193 108.877 35.8137 105.82C36.8231 101.371 37.7807 96.9104 38.6864 92.4382C39.0157 90.827 36.5509 90.1377 36.2204 91.756C34.7543 98.9369 33.253 106.131 31.4065 113.226C30.9556 115.205 30.291 117.129 29.4244 118.963C28.0037 121.653 26.4195 124.253 24.6808 126.748C22.5165 129.958 20.241 133.095 17.929 136.197C17.7599 136.492 17.7138 136.842 17.8008 137.171C17.8877 137.5 18.1006 137.781 18.3932 137.954C18.6877 138.117 19.0339 138.161 19.3598 138.075C19.6856 137.99 19.966 137.781 20.1425 137.494L20.14 137.492Z" fill="#2E6669"/>
<path d="M246.245 99.9723C247.887 110.05 250.203 120.031 252.398 129.999C253.136 133.343 253.877 136.688 254.621 140.031C254.978 141.641 257.444 140.96 257.087 139.349C254.621 128.249 252.105 117.153 249.926 105.991C249.492 103.763 249.074 101.531 248.711 99.2901C248.619 98.9632 248.402 98.6857 248.108 98.5177C247.813 98.3497 247.465 98.3047 247.138 98.3925C246.815 98.4895 246.541 98.7076 246.374 99.0015C246.208 99.2954 246.16 99.6424 246.242 99.9704L246.245 99.9723Z" fill="#2E6669"/>
<path d="M185.775 107.525C188.068 118.32 190.055 129.181 192.066 140.032C192.366 141.652 194.832 140.966 194.532 139.349C192.521 128.499 190.534 117.638 188.241 106.843C187.898 105.23 185.432 105.913 185.775 107.525Z" fill="#2E6669"/>
<path d="M168.004 92.3987C168.117 98.8884 168.508 105.37 168.821 111.853C169.107 117.79 169.239 123.731 169.502 129.668C169.651 133.009 169.814 136.349 169.954 139.69C170.023 141.334 172.581 141.343 172.512 139.69C172 127.515 171.53 115.34 170.949 103.169C170.778 99.5783 170.624 95.9879 170.562 92.3974C170.533 90.749 167.975 90.7439 168.004 92.3974V92.3987Z" fill="#2E6669"/>
<path d="M109.373 139.691C109.857 128.184 110.283 116.673 110.843 105.172C111.021 101.534 111.176 97.8945 111.237 94.2521C111.265 92.6012 108.707 92.6005 108.68 94.2521C108.571 100.782 108.16 107.302 107.855 113.825C107.592 119.452 107.471 125.084 107.215 130.712C107.08 133.705 106.936 136.697 106.81 139.688C106.741 141.338 109.298 141.335 109.367 139.688L109.373 139.691Z" fill="#2E6669"/>
<path d="M133.869 109.22C128.766 100.349 123.721 91.4378 119.011 82.3494C118.701 81.75 118.427 81.1101 118.077 80.5331C118.077 80.5331 117.923 80.1439 117.931 80.3285C117.931 80.3478 117.787 80.6215 117.995 80.2849C118.214 80.0023 118.459 79.7417 118.729 79.5066C119.791 78.4044 120.902 77.3491 122.015 76.3008C122.151 76.1611 122.254 75.9923 122.316 75.807C122.378 75.6217 122.397 75.4248 122.372 75.231C122.347 75.0372 122.279 74.8516 122.172 74.6881C122.065 74.5246 121.923 74.3875 121.756 74.287L119.768 73.1489L118.84 72.618L118.31 72.3148C118.006 72.1117 117.962 72.1041 118.178 72.2917L118.353 72.9393C118.344 73.1399 118.509 72.7155 118.54 72.6591C118.642 72.477 118.749 72.2981 118.86 72.1218C119.098 71.7429 119.354 71.3736 119.623 71.0158C120.203 70.259 120.827 69.5378 121.493 68.8564C122.75 67.5117 124.155 66.3147 125.682 65.2884L123.803 64.519C125.38 71.0679 127.285 77.5332 129.51 83.8901C131.439 89.6605 133.265 95.4661 135.265 101.209C136.288 104.138 137.418 107.026 138.579 109.902C138.678 110.225 138.896 110.497 139.188 110.664C139.481 110.831 139.825 110.879 140.152 110.8C140.478 110.708 140.755 110.491 140.923 110.195C141.091 109.9 141.135 109.55 141.047 109.222C139.031 104.227 137.247 99.1771 135.584 94.0549C133.493 87.6159 131.236 81.2319 129.24 74.7608C128.127 71.1549 127.102 67.5209 126.27 63.8394C126.216 63.651 126.121 63.4772 125.99 63.3314C125.86 63.1855 125.698 63.0713 125.517 62.9975C125.336 62.9237 125.14 62.8921 124.946 62.9052C124.751 62.9184 124.561 62.9758 124.392 63.0732C121.809 64.7901 119.532 66.9302 117.656 69.404C116.897 70.3945 115.404 72.0968 115.906 73.4323C116.208 74.2389 117.121 74.5864 117.815 74.9833L120.466 76.5009L120.207 74.487C119.167 75.4654 118.131 76.4502 117.134 77.4735C116.273 78.357 115.182 79.2847 115.415 80.653C115.62 81.8564 116.512 83.0893 117.071 84.1652C117.711 85.3962 118.357 86.624 119.011 87.8486C121.632 92.7669 124.333 97.6396 127.076 102.489C128.592 105.171 130.12 107.846 131.658 110.515C132.48 111.944 134.691 110.654 133.866 109.22H133.869Z" fill="#2E6669"/>
<path d="M141.972 109.951C144.018 104.704 146.081 99.478 147.839 94.1257C149.908 87.827 152.117 81.5732 154.073 75.238C155.17 71.686 156.18 68.1065 157.002 64.4801L155.123 65.2463C156.707 66.2545 158.161 67.4544 159.453 68.8188C160.163 69.5325 160.83 70.2887 161.449 71.0834C161.698 71.4097 161.935 71.7469 162.158 72.0912C162.271 72.2648 162.38 72.4409 162.485 72.6196C162.533 72.7016 162.773 73.2216 162.766 73.0587L162.941 72.4118C163.154 72.2225 163.11 72.2293 162.808 72.4323L162.278 72.7343L161.351 73.2626L159.363 74.3955C159.196 74.4961 159.053 74.6332 158.947 74.7967C158.84 74.9602 158.772 75.1458 158.747 75.3396C158.722 75.5333 158.741 75.7303 158.803 75.9156C158.865 76.1008 158.968 76.2697 159.104 76.4094C160.107 77.3493 161.106 78.295 162.07 79.2753C162.36 79.5703 163.136 80.173 163.207 80.4724C163.152 80.2403 162.932 80.8398 162.869 80.9629C162.723 81.245 162.577 81.5269 162.43 81.8085C161.256 84.0633 160.051 86.3015 158.815 88.5233C156.245 93.1665 153.58 97.7559 150.879 102.326C149.369 104.883 147.848 107.433 146.317 109.978C145.466 111.396 147.676 112.686 148.525 111.272C154.275 101.689 160.019 92.0772 165.14 82.1368C165.567 81.5102 165.766 80.7551 165.703 79.9986C165.529 79.3136 165.152 78.6976 164.622 78.2316C163.432 76.9723 162.175 75.7798 160.913 74.5962L160.654 76.6101L163.305 75.0995C164.038 74.6815 165.031 74.3026 165.279 73.3998C165.652 72.0355 164.028 70.2518 163.258 69.2702C161.361 66.8038 159.045 64.692 156.416 63.0318C156.247 62.9348 156.057 62.8778 155.862 62.865C155.667 62.8523 155.472 62.8842 155.291 62.9583C155.11 63.0324 154.948 63.1468 154.818 63.2928C154.687 63.4388 154.592 63.6127 154.538 63.8012C152.985 70.2426 151.109 76.6013 148.917 82.853C146.953 88.7092 145.104 94.6187 142.946 100.407C141.839 103.376 140.658 106.318 139.509 109.271C139.421 109.599 139.466 109.949 139.633 110.244C139.801 110.539 140.078 110.757 140.404 110.849C140.731 110.931 141.077 110.884 141.37 110.717C141.663 110.549 141.88 110.275 141.977 109.951L141.972 109.951Z" fill="#2E6669"/>
<path d="M140.043 66.4012C136.602 64.0784 133.226 61.6516 129.755 59.3742C129.511 59.232 129.226 59.1745 128.946 59.2108C128.666 59.2471 128.406 59.3751 128.206 59.5749C127.063 60.9515 126.05 62.4319 124.896 63.8007C124.702 64.0046 124.578 64.2653 124.542 64.545C124.506 64.8246 124.56 65.1084 124.697 65.3549C127.233 69.3166 129.573 73.4642 133.11 76.6392C133.25 76.7748 133.419 76.8771 133.603 76.9386C133.788 77 133.984 77.019 134.177 76.994C134.37 76.9691 134.555 76.9009 134.718 76.7945C134.881 76.6881 135.018 76.5463 135.119 76.3795C136.745 73.5315 138.755 70.9252 140.502 68.1542C141.384 66.7552 139.172 65.4671 138.294 66.8603C136.547 69.6307 134.536 72.237 132.911 75.085L134.919 74.8286C131.538 71.7927 129.329 67.8477 126.905 64.0617L126.705 65.6152C127.856 64.2463 128.871 62.7659 130.014 61.3894L128.464 61.59C131.935 63.8674 135.311 66.2942 138.752 68.6171C140.121 69.5384 141.403 67.3181 140.043 66.4012Z" fill="#2E6669"/>
<path d="M143.647 75.5052C141.505 75.5052 139.363 75.4603 137.22 75.459C136.881 75.459 136.556 75.5941 136.316 75.8346C136.076 76.075 135.941 76.4012 135.941 76.7413C135.941 77.0814 136.076 77.4075 136.316 77.648C136.556 77.8885 136.881 78.0236 137.22 78.0236C139.363 78.0236 141.504 78.0691 143.647 78.0698C143.986 78.0698 144.312 77.9347 144.551 77.6942C144.791 77.4537 144.926 77.1275 144.926 76.7875C144.926 76.4474 144.791 76.1212 144.551 75.8807C144.312 75.6402 143.986 75.5052 143.647 75.5052Z" fill="#2E6669"/>
<path d="M143.703 72.7956C143.478 74.0006 143.228 75.1995 142.951 76.3925C142.767 77.0483 142.685 77.7286 142.707 78.4095C142.799 79.5764 142.989 80.7427 143.133 81.9038C143.694 86.4098 144.254 90.9165 144.779 95.427C144.789 95.764 144.927 96.0844 145.165 96.3228C145.403 96.5612 145.722 96.6994 146.058 96.7093C146.397 96.7071 146.721 96.5713 146.96 96.3313C147.199 96.0913 147.335 95.7664 147.337 95.427C146.819 90.9812 146.267 86.5393 145.715 82.0974C145.567 80.91 145.41 79.7252 145.278 78.5333C145.239 78.0426 145.286 77.549 145.417 77.0747C145.692 75.8804 145.942 74.6815 146.169 73.4778C146.47 71.8647 144.006 71.1729 143.703 72.7956Z" fill="#2E6669"/>
<path d="M135.9 95.6751C136.53 91.2243 137.17 86.774 137.785 82.3206C137.95 81.1171 138.134 79.9131 138.263 78.7051C138.449 76.9708 137.606 75.2019 137.209 73.5432C136.826 71.9403 134.359 72.618 134.743 74.2248C135.09 75.6744 135.869 77.2337 135.702 78.7436C135.575 79.8887 135.423 80.894 135.263 82.0519C134.665 86.3675 134.048 90.6799 133.435 94.9936C133.356 95.3213 133.405 95.6668 133.572 95.9598C133.738 96.2528 134.009 96.4713 134.33 96.5708C134.658 96.6589 135.006 96.6141 135.301 96.446C135.595 96.278 135.812 96.0003 135.903 95.6732L135.9 95.6751Z" fill="#2E6669"/>
<path d="M141.821 68.6857C145.262 66.3628 148.638 63.936 152.109 61.6587L150.56 61.458C151.702 62.8345 152.714 64.3149 153.868 65.6838L153.668 64.1303C151.244 67.9163 149.036 71.8613 145.654 74.8971L147.663 75.1536C146.037 72.3056 144.027 69.7 142.28 66.9289C141.403 65.537 139.188 66.8225 140.071 68.2234C141.818 70.9938 143.828 73.6001 145.454 76.4481C145.555 76.6149 145.692 76.7567 145.855 76.8631C146.018 76.9695 146.203 77.0377 146.396 77.0626C146.589 77.0875 146.785 77.0686 146.97 77.0072C147.154 76.9457 147.323 76.8434 147.463 76.7078C151.001 73.5315 153.34 69.3839 155.877 65.4235C156.014 65.1773 156.069 64.8931 156.033 64.6132C155.997 64.3333 155.872 64.0724 155.677 63.8693C154.526 62.5005 153.511 61.0201 152.368 59.6435C152.168 59.4435 151.907 59.3154 151.627 59.2791C151.347 59.2429 151.062 59.3004 150.818 59.4428C147.347 61.7202 143.971 64.1476 140.53 66.4699C139.172 67.388 140.45 69.6108 141.821 68.6857Z" fill="#2E6669"/>
<path d="M138.468 117.097C138.044 117.472 137.779 117.996 137.728 118.561C137.677 119.125 137.843 119.688 138.193 120.134C138.589 120.562 139.128 120.828 139.708 120.882C140.288 120.936 140.867 120.773 141.335 120.426C141.553 120.23 141.73 119.992 141.855 119.726C141.979 119.46 142.048 119.171 142.058 118.878C142.068 118.584 142.018 118.291 141.912 118.017C141.806 117.743 141.646 117.494 141.441 117.284C141.05 116.9 140.535 116.671 139.989 116.636C139.443 116.602 138.904 116.766 138.468 117.097Z" fill="#2E6669"/>
<path d="M214.284 71.2317C210.623 69.2762 207.016 67.2104 203.33 65.3036C203.035 65.1411 202.689 65.0981 202.364 65.1837C202.038 65.2692 201.758 65.4767 201.58 65.7633C200.584 67.2502 199.73 68.828 198.722 70.3084C198.584 70.5546 198.529 70.8388 198.565 71.1188C198.602 71.3988 198.727 71.6596 198.922 71.8626C201.868 75.5614 204.617 79.3756 208.483 82.1851C208.628 82.2702 208.788 82.3258 208.955 82.3487C209.121 82.3716 209.291 82.3614 209.453 82.3186C209.616 82.2759 209.768 82.2014 209.902 82.0995C210.036 81.9976 210.148 81.8703 210.233 81.7248C211.557 78.7235 213.29 75.9249 214.743 72.9878C215.472 71.5132 213.267 70.2135 212.535 71.6933C211.082 74.6304 209.349 77.4291 208.025 80.4303L209.774 79.9706C206.119 77.3162 203.514 73.5456 200.731 70.0507L200.931 71.6048C201.938 70.1244 202.793 68.5466 203.789 67.0597L202.039 67.5201C205.725 69.4269 209.332 71.4952 212.993 73.4482C214.448 74.2227 215.739 72.0088 214.284 71.2317Z" fill="#2E6669"/>
<path d="M218.817 79.8506C216.686 80.0705 214.551 80.2481 212.423 80.468C212.086 80.4755 211.766 80.613 211.527 80.8519C211.289 81.0908 211.152 81.4126 211.145 81.7503C211.148 82.0894 211.284 82.4136 211.523 82.6533C211.762 82.8931 212.085 83.0293 212.423 83.0326C214.554 82.8127 216.689 82.6351 218.817 82.4152C219.154 82.4075 219.475 82.27 219.713 82.0311C219.951 81.7923 220.088 81.4706 220.096 81.1329C220.093 80.7938 219.957 80.4696 219.718 80.2299C219.479 79.9901 219.155 79.8539 218.817 79.8506Z" fill="#2E6669"/>
<path d="M209.651 79.3788C210.147 80.774 211.142 82.3583 211.094 83.7387C211.066 84.5266 211.02 85.3146 210.978 86.1026C210.817 89.1587 210.651 92.2149 210.478 95.271C210.27 99.05 210.066 102.829 209.866 106.609C209.778 108.301 209.693 109.994 209.61 111.686C209.576 112.413 209.543 113.14 209.511 113.866C209.479 114.594 209.323 115.469 209.649 116.139C210.269 117.21 210.995 118.216 211.815 119.142C212.608 120.168 213.422 121.176 214.256 122.168C215.122 123.204 216.001 124.228 216.894 125.241C217.289 125.691 217.686 126.138 218.085 126.583C218.455 127.085 218.897 127.529 219.397 127.901C219.695 128.067 220.031 128.152 220.372 128.147C220.713 128.143 221.046 128.049 221.34 127.875C221.917 127.403 222.367 126.793 222.647 126.1C223.418 124.748 224.173 123.387 224.914 122.018C225.585 120.775 226.242 119.523 226.884 118.265C227.538 117.14 228.107 115.969 228.587 114.759C228.831 114.013 228.533 113.197 228.359 112.459C228.205 111.805 228.048 111.153 227.888 110.502C227.515 108.98 227.134 107.459 226.744 105.94C225.833 102.366 224.905 98.7965 223.96 95.2326C223.14 92.12 222.316 89.0085 221.488 85.8981C221.24 84.9616 220.992 84.0244 220.744 83.0866C220.546 82.4897 220.496 81.8537 220.597 81.233C220.746 79.9629 220.898 78.6954 220.992 77.4195C221.114 75.773 218.556 75.7807 218.434 77.4195C218.342 78.6755 218.194 79.9238 218.046 81.174C217.954 81.7696 217.962 82.3765 218.071 82.9693C218.198 83.5399 218.366 84.1041 218.515 84.669C219.197 87.249 219.881 89.8287 220.568 92.4083C222.306 98.9731 224.062 105.537 225.654 112.14C225.806 112.77 225.921 113.422 226.101 114.042C226.122 114.11 226.137 114.18 226.149 114.25C226.109 113.97 226.185 113.984 226.034 114.224C225.856 114.508 225.733 114.85 225.587 115.152C225.246 115.845 224.9 116.535 224.55 117.222C223.834 118.624 223.098 120.015 222.342 121.396C221.946 122.123 221.545 122.848 221.139 123.571C220.933 123.938 220.726 124.304 220.518 124.67L220.282 125.083C220.203 125.221 220.124 125.358 220.044 125.496C219.869 125.721 219.982 125.742 220.384 125.56L220.948 125.89C220.099 125.107 219.319 124.251 218.617 123.332C217.786 122.385 216.964 121.428 216.153 120.463C215.348 119.501 214.555 118.528 213.784 117.537C213.049 116.712 212.403 115.811 211.858 114.848L212.033 115.496C211.987 114.456 212.021 113.414 212.137 112.38C212.195 111.122 212.257 109.864 212.322 108.606C212.469 105.697 212.623 102.789 212.784 99.8803C213.05 94.9819 213.335 90.0841 213.584 85.1845C213.612 84.6363 213.664 84.0817 213.659 83.5328C213.643 81.8588 212.667 80.2437 212.118 78.7018C211.569 77.1598 209.096 77.824 209.652 79.384L209.651 79.3788Z" fill="#2E6669"/>
<path d="M216.32 73.1327C219.505 70.4674 222.614 67.7054 225.833 65.0818H224.024C225.303 66.3333 226.461 67.7009 227.749 68.9434L227.549 67.3899C225.533 71.3913 223.75 75.5883 220.707 78.9454L222.716 79.2051C220.742 76.4481 218.407 73.9816 216.317 71.3189C216.077 71.0801 215.752 70.9461 215.413 70.9461C215.075 70.9461 214.75 71.0801 214.509 71.3189C214.277 71.5632 214.147 71.8879 214.147 72.2255C214.147 72.5631 214.277 72.8877 214.509 73.1321C216.463 75.6217 218.665 77.9228 220.507 80.4989C220.608 80.6656 220.745 80.8073 220.908 80.9136C221.071 81.0199 221.256 81.0881 221.449 81.113C221.642 81.138 221.838 81.1191 222.023 81.0577C222.207 80.9963 222.376 80.8941 222.516 80.7586C225.72 77.2207 227.631 72.9006 229.755 68.6831C229.891 68.4368 229.946 68.153 229.91 67.8735C229.874 67.5939 229.75 67.3332 229.555 67.1296C228.267 65.8864 227.108 64.5188 225.83 63.2673C225.586 63.0355 225.262 62.9063 224.926 62.9062C224.589 62.9063 224.266 63.0355 224.021 63.2673C220.803 65.8916 217.691 68.653 214.509 71.3189C213.247 72.3781 215.064 74.1842 216.32 73.1327Z" fill="#2E6669"/>
<path d="M61.8628 117.229C61.4032 117.537 61.0788 118.01 60.9562 118.551C60.8336 119.092 60.9221 119.659 61.2036 120.136C61.5321 120.602 62.0202 120.929 62.5745 121.057C63.1289 121.184 63.7106 121.103 64.2086 120.827C64.446 120.666 64.6483 120.459 64.8034 120.217C64.9585 119.976 65.0631 119.705 65.1109 119.422C65.1588 119.139 65.1488 118.849 65.0816 118.569C65.0144 118.29 64.8915 118.027 64.7201 117.797C64.3911 117.374 63.9214 117.084 63.3968 116.98C62.8723 116.876 62.3278 116.964 61.8628 117.229Z" fill="#2E6669"/>
<path d="M71.1527 111.391C77.5778 103.662 84.1411 95.9347 89.9178 87.6972C91.6717 85.1967 87.8769 82.7385 86.3124 81.2318L86.0534 83.2457C87.3648 82.6308 88.7388 82.0461 90.0074 81.3466C91.5681 80.4842 90.6135 78.6961 89.9901 77.5375C88.5064 74.7933 86.4882 72.3758 84.0554 70.4284C83.8943 70.2764 83.6973 70.1679 83.4829 70.1134C83.2685 70.0588 83.0438 70.0599 82.83 70.1165C82.6161 70.1732 82.4201 70.2835 82.2606 70.4371C82.101 70.5907 81.9831 70.7826 81.9179 70.9945C79.8981 76.3123 77.4787 81.4742 74.9928 86.5861C72.6706 91.3601 70.3516 96.1482 67.8318 100.82C66.576 103.15 65.2589 105.447 63.945 107.744C63.1253 109.178 65.3344 110.472 66.1534 109.039C71.4296 99.806 76.2415 90.2983 80.6264 80.6105C81.9582 77.6676 83.2363 74.694 84.3834 71.6735L82.2459 72.2397C84.2845 73.9012 86.0249 75.8998 87.3923 78.1491C87.6608 78.598 88.368 79.5122 88.3162 80.0399L88.6909 79.1327C88.4533 79.293 88.192 79.4148 87.9166 79.4936C87.5477 79.6668 87.1813 79.8463 86.8156 80.0271C86.1327 80.3637 85.4518 80.7054 84.7619 81.0292C84.5944 81.1294 84.4518 81.2664 84.3449 81.4299C84.2379 81.5934 84.1694 81.7791 84.1444 81.973C84.1195 82.167 84.1388 82.3641 84.2009 82.5494C84.263 82.7348 84.3663 82.9036 84.5029 83.0431C85.0522 83.572 85.6212 84.0785 86.1787 84.5978C86.4409 84.8421 86.7018 85.089 86.9518 85.3461C87.1544 85.5545 87.4281 86.0212 87.6762 86.152L87.8194 86.3354C87.9413 86.061 87.9307 86.0462 87.7874 86.2911C87.5552 86.5669 87.3434 86.8594 87.1538 87.1663C86.7207 87.76 86.2851 88.3514 85.8469 88.9404C84.1347 91.2408 82.387 93.5137 80.604 95.759C76.9212 100.421 73.1412 105.006 69.3433 109.575C68.2966 110.834 70.0965 112.658 71.1521 111.388L71.1527 111.391Z" fill="#2E6669"/>
<path d="M66.118 108.346C64.8833 103.593 63.6244 98.8567 62.6564 94.041C61.5209 88.3989 60.2632 82.7843 59.2274 77.1249C58.6488 73.9608 58.1462 70.7826 57.8208 67.5813C57.7479 66.8581 57.0452 65.9919 56.2019 66.3452C53.4716 67.5135 50.977 69.1718 48.8407 71.2384C47.9622 72.0816 46.241 73.5774 46.9328 74.9321C47.3862 75.5624 47.9494 76.1054 48.5952 76.535C49.2716 77.1287 49.9379 77.7333 50.6226 78.3174L50.8784 76.3029C49.8733 76.8536 48.8285 77.3345 47.8439 77.9218C46.8343 78.5238 45.5383 79.2926 45.5274 80.6243C45.5185 81.7059 46.2116 82.8984 46.5965 83.8864C47.0402 85.0238 47.492 86.158 47.952 87.289C49.8944 92.0707 51.9532 96.8043 54.0574 101.517C55.233 104.15 56.4205 106.779 57.62 109.403C57.793 109.695 58.0734 109.906 58.4007 109.992C58.728 110.078 59.076 110.032 59.3693 109.863C59.6564 109.686 59.8644 109.405 59.9499 109.078C60.0354 108.751 59.9919 108.404 59.8284 108.108C57.3425 102.655 54.8771 97.1903 52.528 91.6758C51.3869 88.9975 50.2823 86.3046 49.2141 83.5973C48.9468 82.9134 48.683 82.2295 48.4225 81.5456C48.3555 81.2832 48.2596 81.029 48.1367 80.7877C48.0698 80.5035 48.0442 80.5268 48.06 80.8576C48.1994 80.7525 48.342 80.6505 48.4865 80.5524C49.6463 79.7619 50.9417 79.1945 52.1693 78.5219C52.3368 78.4217 52.4794 78.2847 52.5863 78.1212C52.6933 77.9577 52.7618 77.772 52.7867 77.5781C52.8117 77.3841 52.7924 77.1871 52.7303 77.0017C52.6682 76.8164 52.5649 76.6476 52.4282 76.5081C51.8483 76.0137 51.2818 75.5047 50.7115 75.0001C50.4385 74.759 50.1655 74.5186 49.8893 74.2826C49.6853 74.1082 49.2601 73.8793 49.1374 73.6415L49.2652 74.6295C49.3548 74.1339 50.2128 73.4754 50.5613 73.135C51.2028 72.5113 51.8846 71.9307 52.6022 71.3968C53.9189 70.3696 55.3542 69.5051 56.877 68.8219L55.2581 67.5852C55.9219 73.4057 56.8883 79.1876 58.1532 84.9071C59.2562 90.2249 60.2517 95.5778 61.5343 100.855C62.1992 103.59 62.9358 106.305 63.6442 109.031C64.0585 110.627 66.5259 109.951 66.1103 108.35L66.118 108.346Z" fill="#2E6669"/>
<path d="M198.609 30.9192C200.262 30.135 202.396 30.3953 204.157 30.5403C206.029 30.7679 207.915 30.8599 209.801 30.8153C213.421 30.5903 216.976 29.7645 220.596 29.5484C221.453 29.4787 222.313 29.486 223.168 29.5702C223.457 29.6176 223.743 29.6819 224.025 29.7625C224.275 29.8363 224.078 29.758 224.237 29.8408C224.309 29.8786 224.642 30.1068 224.446 29.9478C224.691 30.1791 225.014 30.3079 225.35 30.3079C225.687 30.3079 226.01 30.1791 226.255 29.9478C226.492 29.7061 226.626 29.3803 226.626 29.0409C226.626 28.7015 226.492 28.3757 226.255 28.134C225.069 27.1723 223.573 26.9678 222.087 26.9453C220.134 26.9719 218.186 27.1447 216.259 27.4621C214.336 27.725 212.416 28.0391 210.481 28.2013C208.536 28.3111 206.585 28.2504 204.651 28.0199C202.199 27.8019 199.603 27.6224 197.318 28.7059C195.831 29.4112 197.127 31.6232 198.609 30.9205V30.9192Z" fill="#2E6669"/>
<path d="M78.4601 79.1236C71.792 81.4683 64.7 79.7475 58.7231 76.3955C57.2851 75.5889 55.9942 77.806 57.4322 78.61C63.9673 82.2749 71.8483 84.1605 79.1397 81.5965C80.6832 81.0541 80.0189 78.5754 78.4601 79.1236Z" fill="#2E6669"/>
</svg>
