<svg width="518" height="502" viewBox="0 0 518 502" fill="none" xmlns="http://www.w3.org/2000/svg">
<g clip-path="url(#clip0_1030_3277)">
<path d="M236.768 179.677C233.397 208.972 223.419 233.066 207.848 250.844C204.42 254.749 200.713 258.357 196.759 261.634C198.782 273.734 199.788 281.349 201.958 296.36C187.307 289.008 178.781 284.547 167.519 278.337C164.231 279.534 160.852 280.58 157.365 281.473C142.621 285.269 126.136 286.343 108.142 284.408C107.676 284.364 107.194 284.322 106.711 284.264C84.1846 281.674 64.8056 274.834 49.102 264.403C14.9742 241.791 -1.86866 202.306 3.8383 152.783C9.51271 103.454 44.2291 63.1988 92.5037 52.3747C105.357 49.5079 119.152 48.7056 133.634 50.3739C202.261 58.2999 244.02 116.788 236.767 179.679L236.768 179.677Z" fill="white"/>
<path d="M163.497 65.596C164.714 64.4965 166.519 63.9644 168.206 64.2169C169.893 64.4694 171.43 65.4874 172.202 66.8761C172.747 67.8494 172.923 68.9584 173.025 70.0402C173.394 74.3039 172.554 78.6476 170.624 82.5325C169.684 84.4248 168.458 86.2369 166.755 87.6161C165.313 88.7671 163.866 89.3698 161.635 88.4617C161.006 90.3485 160.185 92.0426 159.914 92.8652C158.681 96.2126 152.234 107.407 143.869 112.855C143.885 115.815 143.657 119.495 144.742 122.187C145.453 123.943 149.003 126.528 152.832 128.903C152.832 128.903 147.413 151.914 123.227 151.914C99.0418 151.914 95.0532 129.078 95.0532 129.078C98.6377 126.653 102.047 123.985 102.774 122.187C103.859 119.515 103.645 115.844 103.656 112.893C100.389 110.761 97.3398 107.942 94.5799 104.635C90.24 99.4364 87.6347 93.8643 86.1116 89.0943L85.6098 89.23C83.4602 89.8096 81.8192 88.6613 80.5105 87.6174C78.8071 86.2383 77.581 84.4261 76.6412 82.5339C74.7099 78.649 73.8704 74.3052 74.2407 70.0416C74.341 68.9597 74.5174 67.8507 75.0639 66.8774C75.8356 65.4888 77.3722 64.4707 79.0593 64.2183C80.7465 63.9658 82.5516 64.4979 83.7681 65.5974C83.7681 65.5974 77.8699 28.0879 122.475 28.0879C167.079 28.0879 163.499 65.5974 163.499 65.5974L163.497 65.596Z" fill="white"/>
<path d="M447.621 225.97C449.583 224.6 452.028 224.307 454.041 224.638C458.422 225.359 460.002 227.873 460.632 229.308C462.513 233.601 461.458 240.908 459.246 245.234C457.688 248.292 455.319 252.53 450.347 255.461C448.881 256.32 445.311 257.501 441.888 257.293C441.583 257.983 441.359 258.495 441.359 258.495C440.266 260.709 437.696 264.575 437.696 264.575C435.211 268.161 432.559 271.559 429.361 274.86C430.147 277.151 430.936 279.444 431.726 281.736C432.443 283.82 433.167 285.92 434.307 287.805C437.377 292.885 443.915 295.568 449.244 298.177C450.157 298.624 451.17 299.077 452.232 299.529C450.527 300.785 449.487 301.552 449.487 301.552C434.202 312.82 416.064 318.949 397.868 318.974C390.901 318.974 383.831 318.089 377.35 315.17C371.376 312.479 365.892 307.937 362.43 301.781C365.64 300.705 368.744 299.633 370.961 298.695C374.02 297.704 376.825 295.232 378.151 292.316C369.617 291.137 362.019 287.568 354.77 281.481C345.081 273.345 340.977 260.653 339.616 246.657C338.83 238.587 338.169 229.817 337.122 221.049C337.122 221.049 326.832 180.746 379.775 177.027C444.195 172.502 447.618 225.97 447.618 225.97H447.621Z" fill="white"/>
<path d="M271.971 410.071C268.519 411.77 266.144 414.708 264.982 418.669C265.085 427.026 272.598 454.051 276.073 462.616C278.232 467.94 282.312 474.873 286.3 479.463C290.288 484.054 296.397 487.775 303.193 488.098C313.045 488.566 327.122 479.538 330.463 472.012L332.718 466.93C333.498 474.681 334.256 482.486 334.957 490.097H478.228C482.863 489.67 487.404 488.316 491.455 486.05C499.271 481.679 504.985 473.859 507.845 465.711C514.219 447.56 514.743 414.199 515.156 399.688C515.577 384.96 515.028 371.145 513.091 356.936C512.135 349.924 509.839 341.003 506.43 334.904C502.695 328.219 495.272 320.436 491.347 317.143C482.128 309.41 469.046 303.07 454.245 297.799C438.045 311.452 417.992 318.943 397.868 318.973C390.901 318.973 383.831 318.088 377.35 315.168C370.906 312.266 365.033 307.21 361.65 300.296C360.03 300.706 357.367 301.391 356.239 301.723C344.276 305.246 328.384 311.772 319.627 319.754L271.969 410.069L271.971 410.071Z" fill="white"/>
<path d="M281.103 138.273C281.01 138.112 280.916 137.933 280.916 137.744C280.916 137.555 281.01 137.386 281.087 137.216C281.684 135.954 281.72 134.751 281.26 133.429C280.877 132.329 280.307 131.553 278.365 130.812C276.729 130.189 275.297 130.164 272.67 131.436C271.997 129.586 268.591 128.253 266.665 128.535C264.799 128.8 263.145 129.806 261.484 130.684C254.569 134.342 241.601 140.504 235.131 141.377C236.397 137.414 236.779 133.554 236.828 130.193C236.844 129.05 236.34 128.125 235.556 127.295C234.772 126.463 233.535 126.173 232.437 126.491C231.22 126.843 229.937 128.633 229.755 128.985C226.593 135.093 224.786 138.468 222.223 144.842C219.81 150.845 220.376 157.151 221.594 163.489C221.533 164.222 221.451 165.167 221.451 165.167C221.318 166.734 219.871 172.193 219.063 175.178C225.976 177.451 234.917 180.33 240.72 182.042C241.599 178.887 242.935 173.721 243.684 171.669C243.922 171.012 244.187 170.33 244.698 169.852C245.132 169.443 245.703 169.229 246.266 169.016C256.489 165.072 274.378 154.625 279.385 148.933C280.379 147.804 280.403 146.282 279.722 145.12C281.793 143.285 282.122 140.196 281.102 138.273H281.103Z" fill="white"/>
<path d="M159.167 194.419C158.174 194.23 157.221 193.846 156.369 193.237C152.707 190.617 152.383 185.345 153.346 181.283C153.819 179.291 156.634 173.14 164.144 175.199C169.014 176.535 170.493 181.957 169.634 186.452C168.712 191.285 164.946 195.513 159.167 194.418V194.419Z" fill="white"/>
<path d="M203.321 209.338C207.63 196.374 210.706 185.658 214.224 173.573C222.413 176.306 238.108 181.416 244.169 183.018C241.493 196.288 238.906 210.533 234.59 223.993C231.592 233.344 227.081 242.238 217.901 245.706C210.041 248.675 202.613 247.512 196.665 244.044C191.179 240.845 184.779 233.875 180.782 229.777" fill="white"/>
<path d="M277.056 325.224C278.439 323.98 280.075 323.443 282.516 323.46C284.687 323.477 286.898 325.746 286.813 327.918C286.771 328.966 286.369 331.032 285.13 332.869C280.019 340.436 273.756 349.614 269.095 356.256C274.754 351.272 278.75 347.495 284.144 344.795C289.343 341.695 295.201 338.893 300.643 338.135C303.396 337.753 305.89 338.21 307.077 340.393C307.909 341.924 308.621 344.139 306.933 346.592C306.491 347.234 305.71 348.065 304.869 348.927C307.622 348.44 309.811 349.759 310.671 351.214C312.289 353.949 311.355 356.545 309.868 358.198C308.964 359.204 307.152 360.674 305.697 362.01C308.479 360.675 310.88 360.155 312.754 362.451C314.17 364.186 314.214 367.761 312.928 369.383C309.323 373.597 306.211 377.032 301.974 381.89C305.566 391.51 305.774 397.011 304.087 406.05C303.886 407.128 303.63 408.239 302.947 409.097C297.977 414.434 288.974 418.895 281.774 417.759C280.461 417.551 279.1 417.19 278.154 416.255C276.596 414.711 276.691 412.229 276.608 410.036C276.192 398.926 269.324 392.671 263.29 383.327C262.085 380.958 257.4 375.764 256.307 370.23C255.58 364.08 255.724 361.813 256.078 358.301C256.536 353.747 257.762 350.351 258.755 348.81C264.233 340.611 269.572 333.133 276.574 325.695C276.733 325.526 276.895 325.368 277.059 325.22L277.056 325.224Z" fill="white"/>
<path d="M370.68 357.947C369.806 357.654 368.948 357.373 368.106 357.104C363.611 355.673 359.707 354.881 356.759 355.946C354.903 356.618 353.707 358.449 353.572 360.441C353.456 362.23 354.335 363.567 355.779 364.657C357.225 365.763 358.895 366.538 360.564 367.278C366.909 370.122 376.397 374.246 382.652 377.587C378.916 380.817 375.332 384.221 371.91 387.782C370.172 389.588 368.529 391.496 368.483 394.004C368.409 397.894 370.71 400.361 376.247 402.417C375.932 404.369 375.817 405.519 376.967 407.14C378.407 409.171 380.644 410.353 384.806 410.341C384.759 412.366 385.652 414.443 386.895 416.091C390.89 421.394 395.528 424.69 402.011 424.416C402.829 424.785 403.355 425.029 403.355 425.029C405.311 425.936 407.337 426.888 408.533 427.353C409.503 427.724 410.49 428.111 411.305 428.763C412.103 429.418 412.675 430.312 413.257 431.155C414.012 432.234 414.754 433.159 415.504 434.006C420.386 428.328 427.893 419.543 434.174 412.256C433.367 411.444 432.575 410.521 431.697 409.45C428.331 405.341 425.88 400.564 423.21 395.955C419.509 389.573 415.362 383.46 410.773 377.661C409.103 375.539 407.349 373.439 405.14 371.89C403.089 370.479 400.71 369.676 398.418 368.714C389.378 364.917 379.328 360.851 370.684 357.947H370.68Z" fill="white"/>
<path d="M124.925 132.825H122.461C122.339 132.598 121.531 132.182 120.814 131.893C112.344 128.481 105.276 123.281 102.18 119.115C99.7511 121.35 98.6403 123.182 97.2896 125.753C99.5666 156.04 112.308 180.766 122.721 204.495C126.29 197.999 129.586 191.517 133.069 183.245C137.139 173.568 143.113 156.64 144.936 151.672C147.746 144.016 150.253 132.102 151.152 125.377C149.886 123 148.767 121.24 146.459 119.115C143.364 123.28 136.296 128.481 127.825 131.893C127.109 132.18 126.299 132.598 126.178 132.825H124.925Z" fill="white"/>
<path d="M346.06 166.574C341.399 173.704 338.064 182.524 336.618 190.549C334.982 199.637 334.931 213.261 337.158 224.772C337.354 223.626 337.482 222.846 337.482 222.846C338.434 217.077 349.321 201.119 357.226 196.548C358.154 196.012 359.397 196.635 359.846 198.204C360.28 199.721 360.325 200.883 360.249 201.988C360.134 203.665 361.803 204.815 363.149 203.994C367.561 201.299 375.15 194.907 383.979 190.952C393.849 189.212 402.627 189.856 402.627 189.856C406.167 191.227 422.497 196.71 434.768 218.139C435.94 220.153 436.969 222.271 438.141 224.285C438.502 224.903 438.866 225.529 439.326 226.075C439.536 226.325 439.841 226.475 440.166 226.515C442.421 226.793 445.139 226.74 447.623 225.968C449.586 224.598 452.031 224.305 454.044 224.636C458.424 225.357 460.004 227.871 460.635 229.306C460.935 229.99 461.16 230.751 461.319 231.564C465.646 223.827 466.109 209.843 466.511 203.847C466.888 198.19 466.35 192.49 464.982 186.972C462.254 176.011 458.095 167.031 449.593 159.173C449.593 159.173 448.75 158.394 447.907 157.615L439.064 151.34C424.842 141.247 411.661 138.804 398.486 139.462C377.611 140.506 360.824 148.579 349.573 161.843C348.334 163.304 347.16 164.892 346.062 166.573L346.06 166.574Z" fill="#2A9D8F"/>
<path d="M95.9537 46.55C95.3787 47.374 94.7467 48.1816 93.8963 48.8929C92.4411 50.1092 90.4231 50.9793 88.8268 52.1154C86.1741 54.0036 85.0186 56.3628 84.6442 58.9324C84.3744 60.7948 84.1669 63.0915 83.9987 65.8226C82.7876 64.5711 80.855 63.9494 79.0566 64.2182C78.7121 64.2697 78.3731 64.3539 78.0476 64.4706C76.3998 58.798 75.6946 53.1511 75.9034 48.2807C76.7009 29.6244 86.6636 18.0972 95.4628 11.6264C103.04 6.05283 112.509 2.72852 123.661 2.72852C136.003 2.72852 145.42 6.71118 153.465 12.7978C162.124 19.4573 170.67 30.7062 171.422 48.2807C171.64 53.3819 171.064 57.5763 169.701 63.0331C169.701 63.0331 169.561 63.5924 169.333 64.5073C168.97 64.3743 168.593 64.2765 168.206 64.2182C166.387 63.9467 164.43 64.586 163.23 65.8715C162.384 62.0178 161.878 59.0288 161.269 56.8962C160.365 53.7294 159.856 51.4666 158.661 48.0676C157.605 45.0636 157.476 42.9786 150.75 42.2755C148.929 42.0855 146.074 42.0637 144.23 42.0624C140.421 42.0583 136.613 42.0556 132.808 42.1398C130.246 42.1968 127.64 42.2904 125.158 41.871C121.126 41.1896 117.912 39.2485 114.273 37.9196C110.635 36.5906 105.674 35.9812 102.595 37.8218C101.307 38.5928 100.569 39.6733 99.8678 40.7199C98.7394 42.4045 97.611 44.0877 96.4826 45.7722C96.3091 46.0315 96.1341 46.2907 95.9537 46.55Z" fill="#2A9D8F"/>
<path d="M336.474 363.856C331.135 347.344 319.386 310.531 314.25 294.223C313.073 290.486 309.168 288.355 305.391 289.388C294.996 292.231 279.348 296.544 268.548 299.627C264.64 300.743 262.407 304.835 263.568 308.734C265.529 315.32 268.356 324.059 270.749 331.134L271.2 331.792C272.894 329.75 274.668 327.723 276.572 325.7C276.73 325.532 276.892 325.373 277.056 325.225C278.439 323.982 280.075 323.444 282.516 323.462C284.687 323.478 286.898 325.748 286.813 327.92C286.77 328.968 286.369 331.034 285.129 332.87C283.067 335.924 280.817 339.239 278.56 342.546L281.233 346.451C282.17 345.865 283.128 345.306 284.143 344.796C289.343 341.696 295.201 338.894 300.643 338.137C303.396 337.754 305.89 338.212 307.077 340.396C307.908 341.927 308.62 344.142 306.933 346.595C306.491 347.237 305.71 348.069 304.869 348.93C307.622 348.442 309.811 349.762 310.671 351.217C312.289 353.952 311.355 356.548 309.868 358.201C308.964 359.207 307.152 360.677 305.696 362.013C308.479 360.678 310.88 360.158 312.754 362.454C314.17 364.189 314.213 367.764 312.928 369.386C309.908 372.915 307.226 375.91 303.947 379.641L305.479 381.881C309.114 380.681 323.634 375.895 331.938 372.987C335.68 371.677 337.695 367.631 336.474 363.856Z" fill="#2A9D8F"/>
<path d="M426.75 275.577C428.882 281.796 430.393 288.965 435.605 293.414C440.126 297.273 445.961 299.81 451.402 302.084C452.754 302.65 454.386 301.474 454.738 300.187C455.168 298.623 454.201 297.415 452.844 296.848C450.425 295.837 448.056 294.637 445.719 293.453C443.541 292.349 441.309 291.166 439.441 289.575C437.536 287.953 436.22 286.05 435.31 283.712C434.086 280.567 433.077 277.328 431.981 274.136C431.506 272.75 430.119 271.833 428.645 272.239C427.297 272.61 426.273 274.185 426.75 275.577Z" fill="#2A9D8F"/>
<path d="M363.157 304.39C366.572 303.25 370.036 302.119 373.33 300.657C376.379 299.303 379.078 296.718 380.483 293.682C381.078 292.396 380.888 290.697 379.509 289.968C378.311 289.335 376.434 289.566 375.798 290.942C375.496 291.595 375.138 292.202 374.73 292.794C374.601 292.98 374.542 293.023 374.715 292.82C374.61 292.943 374.509 293.068 374.403 293.19C374.161 293.464 373.909 293.728 373.645 293.98C373.38 294.233 373.104 294.472 372.82 294.704C373.03 294.531 372.967 294.596 372.786 294.72C372.619 294.835 372.454 294.951 372.283 295.061C371.978 295.256 371.666 295.441 371.344 295.608C371.203 295.682 371.058 295.75 370.916 295.822C370.463 296.052 371.09 295.78 370.799 295.876C369.43 296.329 368.102 296.933 366.743 297.423C365.075 298.025 363.396 298.594 361.713 299.155C360.37 299.604 359.35 301.047 359.818 302.494C360.251 303.832 361.714 304.872 363.154 304.39H363.157Z" fill="#2A9D8F"/>
<path d="M447.672 161.093C455.21 168.132 459.612 176.999 462.163 186.901C464.652 196.566 464.057 206.772 462.733 216.592C462.094 221.333 461.175 226.37 458.761 230.563C457.014 233.595 461.699 236.333 463.445 233.303C468.112 225.202 468.542 214.954 469.098 205.84C469.808 194.176 467.735 182.651 462.593 172.111C459.862 166.51 456.056 161.5 451.509 157.253C448.958 154.87 445.114 158.702 447.674 161.091L447.672 161.093Z" fill="#2A9D8F"/>
<path d="M401.904 192.474C402.548 192.722 403.195 192.963 403.836 193.219C404.055 193.306 404.272 193.396 404.489 193.485C404.999 193.694 403.98 193.261 404.554 193.514C405.09 193.748 405.623 193.986 406.151 194.234C408.856 195.51 411.449 197.018 413.908 198.721C421.631 204.066 427.748 211.415 432.424 219.51C434.171 222.534 438.861 219.803 437.108 216.769C430.322 205.019 420.466 194.726 407.965 189.12C406.446 188.438 404.898 187.836 403.345 187.237C401.978 186.709 400.37 187.819 400.009 189.133C399.589 190.666 400.531 191.943 401.904 192.472V192.474Z" fill="#2A9D8F"/>
<path d="M340.097 223.568C340.751 219.964 343.089 216.533 345.174 213.382C347.943 209.197 351.107 205.193 354.804 201.786C355.477 201.166 356.167 200.556 356.902 200.009C357.281 199.727 357.847 199.477 358.18 199.144C358.505 198.819 359.139 198.927 357.926 198.887C356.956 198.854 357.263 198.847 357.394 199.556C357.66 201.001 357.361 202.493 357.873 203.889C358.406 205.341 359.62 206.443 361.116 206.834C363.599 207.484 365.75 205.576 367.643 204.248C369.708 202.801 371.749 201.323 373.836 199.91C379.525 196.058 385.555 192.564 392.297 190.974C395.694 190.173 394.255 184.936 390.855 185.739C384.508 187.236 378.634 190.316 373.188 193.838C370.821 195.369 368.522 197 366.223 198.63C365.284 199.296 364.345 199.964 363.39 200.608C363.042 200.843 362.591 201.041 362.29 201.333C362.318 201.307 361.779 201.633 361.779 201.652C361.713 200.495 362.978 201.973 362.962 201.99C363.242 201.7 362.92 199.989 362.875 199.624C362.762 198.725 362.604 197.847 362.285 196.997C361.725 195.508 360.54 194.159 358.939 193.774C356.354 193.155 353.981 195.361 352.155 196.898C348.076 200.335 344.662 204.63 341.616 208.986C338.934 212.822 335.719 217.418 334.866 222.125C334.247 225.542 339.475 227.007 340.097 223.568Z" fill="#2A9D8F"/>
<path d="M373.762 268.604C376.524 270.062 379.762 270.623 382.864 270.575C384.39 270.552 385.959 270.378 387.434 269.977C389.165 269.504 390.725 268.576 392.351 267.846C393.65 267.262 394.059 265.272 393.324 264.132C392.459 262.788 391.003 262.534 389.614 263.157C388.928 263.465 388.258 263.807 387.581 264.134C387.418 264.213 387.254 264.29 387.088 264.368C386.334 264.722 387.329 264.292 386.903 264.447C386.636 264.543 386.368 264.634 386.096 264.711C385.818 264.79 385.538 264.858 385.255 264.916C385.11 264.946 384.963 264.975 384.817 265C384.756 265.011 384.27 265.087 384.616 265.037C384.962 264.987 384.464 265.051 384.403 265.057C384.247 265.072 384.091 265.086 383.935 265.098C383.579 265.124 383.222 265.14 382.865 265.146C382.221 265.155 381.577 265.133 380.935 265.08C380.775 265.067 380.615 265.051 380.455 265.036C380.183 265.01 380.203 265.004 380.462 265.044C380.15 264.998 379.838 264.946 379.529 264.886C378.898 264.763 378.273 264.605 377.661 264.406C377.524 264.361 377.387 264.314 377.252 264.265C377.189 264.242 376.745 264.08 377.086 264.209C377.421 264.337 377.006 264.171 376.943 264.14C376.795 264.066 376.648 263.995 376.502 263.917C375.247 263.255 373.495 263.556 372.791 264.892C372.129 266.146 372.425 267.898 373.765 268.606L373.762 268.604Z" fill="#2A9D8F"/>
<path d="M393.263 235.676C392.528 232.813 393.399 226.349 398.766 226.048C405.823 226.422 405.83 234.289 403.28 237.867C401.193 240.796 395.413 241.783 393.263 235.676Z" fill="#2A9D8F"/>
<path d="M351.291 235.021C350.623 232.15 351.428 225.664 356.343 225.354C362.806 225.721 362.802 233.612 360.461 237.205C358.544 240.146 353.251 241.144 351.291 235.021Z" fill="#2A9D8F"/>
<path d="M373.059 241.954C372.132 243.47 371.239 245.016 370.448 246.609C370.034 247.442 369.709 248.22 369.637 249.155C369.551 250.252 370.023 251.328 370.814 252.076C371.481 252.707 372.233 253.174 373.112 253.446C373.676 253.621 374.281 253.637 374.865 253.707L374.144 253.61C374.19 253.616 374.236 253.622 374.282 253.631C375.027 253.749 375.698 253.753 376.372 253.356C376.935 253.026 377.472 252.382 377.618 251.734C377.777 251.039 377.742 250.259 377.344 249.642C376.986 249.086 376.406 248.504 375.724 248.395C375.262 248.322 374.799 248.278 374.336 248.221L375.058 248.318C374.789 248.28 374.534 248.216 374.283 248.11L374.932 248.384C374.725 248.288 374.538 248.171 374.355 248.034L374.904 248.459C374.734 248.319 374.569 248.172 374.427 248.003L374.852 248.552C374.812 248.499 374.778 248.441 374.753 248.38L375.026 249.029C374.991 248.931 374.971 248.846 374.957 248.744L375.054 249.466C375.048 249.36 375.052 249.264 375.063 249.158L374.967 249.88C375.003 249.657 375.069 249.45 375.151 249.241L374.877 249.889C375.648 248.085 376.723 246.368 377.744 244.697C378.486 243.484 378.048 241.658 376.771 240.983C375.448 240.284 373.851 240.663 373.06 241.958L373.059 241.954Z" fill="#2A9D8F"/>
<path d="M425.425 282.172C429.933 278.44 433.885 274.195 437.429 269.545C439.744 266.507 441.984 263.286 443.703 259.865C444.36 258.555 444.05 256.924 442.729 256.151C441.525 255.445 439.679 255.81 439.018 257.126C434.92 265.281 428.57 272.554 421.588 278.333C420.459 279.268 420.621 281.204 421.588 282.172C422.706 283.29 424.291 283.109 425.424 282.172H425.425Z" fill="#2A9D8F"/>
<path d="M440.431 148.997C430.66 142.125 419.565 137.758 407.619 136.844C396.801 136.018 385.458 137.518 375.243 141.183C365.685 144.613 356.876 150.064 349.867 157.457C341.996 165.759 336.835 176.585 334.42 187.724C331.706 200.242 332.194 213.864 334.716 226.366C335.406 229.788 340.636 228.34 339.947 224.923C335.844 204.577 337.565 180.24 351.488 163.766C364.296 148.613 384.072 141.776 403.553 142.089C416.047 142.29 427.513 146.527 437.692 153.687C440.555 155.7 443.267 150.995 440.43 148.999L440.431 148.997Z" fill="#2A9D8F"/>
<path d="M410.532 283.95C396.726 290.085 380.508 292.895 366.432 285.953C359.956 282.759 353.948 278.115 350.035 271.977C346.083 265.778 344.052 258.594 342.919 251.382C341.346 241.361 341.027 231.122 339.837 221.047C339.664 219.59 338.714 218.332 337.124 218.332C335.792 218.332 334.238 219.581 334.412 221.047C335.563 230.777 336.041 240.594 337.329 250.305C338.396 258.349 340.442 266.408 344.581 273.457C352.775 287.41 369.104 295.566 385.039 295.467C394.919 295.406 404.303 292.622 413.27 288.637C414.609 288.042 414.925 286.088 414.244 284.923C413.437 283.542 411.877 283.351 410.533 283.948L410.532 283.95Z" fill="#2A9D8F"/>
<path d="M448.99 228.314C452.057 226.326 456.593 227.249 458.112 230.298C458.737 231.553 458.941 233.863 458.878 235.615C458.796 237.931 458.318 240.225 457.533 242.404C456.215 246.061 453.687 249.76 450.562 252.077C447.786 254.136 442.997 255.659 439.503 253.999C438.181 253.37 436.575 253.632 435.793 254.973C435.101 256.156 435.437 258.056 436.767 258.687C440.936 260.669 445.888 260.289 450.094 258.561C454.347 256.814 457.73 253.21 460.085 249.336C462.441 245.462 463.842 241.306 464.23 236.788C464.568 232.852 464.031 228.538 461.343 225.47C457.713 221.327 450.767 220.699 446.251 223.625C443.331 225.517 446.047 230.221 448.989 228.314H448.99Z" fill="#2A9D8F"/>
<path d="M200.583 254.556C198.962 256.122 197.3 257.641 195.579 259.096C194.472 260.033 193.92 260.861 194.142 262.357C194.271 263.225 194.431 264.091 194.574 264.957C195.117 268.279 195.64 271.605 196.14 274.933C197.249 282.309 198.276 289.699 199.342 297.081L203.327 294.014C197.068 290.873 190.82 287.709 184.615 284.46C181.875 283.025 179.144 281.572 176.421 280.105C175.112 279.399 173.806 278.689 172.501 277.976C171.134 277.23 169.425 275.879 167.876 275.669C166.214 275.444 163.975 276.713 162.388 277.212C160.488 277.811 158.57 278.357 156.64 278.852C153.261 279.721 149.841 280.435 146.398 281.002C139.06 282.21 131.602 282.684 124.17 282.628C96.6398 282.423 68.3288 275.468 45.9553 258.893C27.8349 245.468 15.2913 225.936 9.53687 204.214C6.37146 192.264 5.19426 179.887 5.50212 167.542C5.82626 154.576 7.67749 141.707 11.7421 129.368C19.4223 106.054 34.6662 85.3441 54.9864 71.5228C57.4588 69.841 60.0003 68.265 62.5961 66.78C65.6273 65.0466 62.8972 60.354 59.8579 62.0915C39.8944 73.5101 23.5669 90.8538 13.2977 111.443C2.5198 133.063 -1.32643 157.644 0.394613 181.645C1.95291 203.382 8.68245 224.88 21.8635 242.418C35.6169 260.718 55.099 273.509 76.7401 280.602C89.7991 284.882 103.519 287.131 117.226 287.85C130.918 288.568 144.784 287.506 158.086 284.089C161.52 283.207 164.905 282.157 168.24 280.953L166.15 280.679C177.502 286.935 189.006 292.888 200.59 298.702C202.861 299.842 204.912 297.974 204.574 295.635C202.901 284.051 201.302 272.456 199.375 260.91L198.677 263.551C200.656 261.902 202.568 260.182 204.421 258.392C206.937 255.959 203.099 252.123 200.586 254.553L200.583 254.556Z" fill="#2A9D8F"/>
<path d="M183.571 70.5466C201.561 82.0494 215.765 98.5623 224.683 117.957C225.296 119.289 227.218 119.62 228.394 118.932C229.76 118.132 229.982 116.555 229.368 115.218C220.069 95.0005 205.041 77.8373 186.309 65.8594C183.358 63.9726 180.635 68.6693 183.571 70.5466Z" fill="#2A9D8F"/>
<path d="M221.672 175.902C222.314 173.543 222.95 171.18 223.506 168.797C223.901 167.106 224.367 165.242 224.305 163.493C224.245 161.815 223.701 160.107 223.514 158.432C223.351 156.974 223.255 155.507 223.261 154.04C223.273 150.753 223.96 147.722 225.2 144.687C226.225 142.177 227.352 139.712 228.553 137.281C229.703 134.954 230.75 132.366 232.183 130.21C233.472 128.273 234.146 129.508 234.085 131.27C233.973 134.478 233.462 137.592 232.511 140.658C231.835 142.837 233.935 144.278 235.848 143.997C242.242 143.059 248.503 139.967 254.303 137.262C257.184 135.919 260.038 134.514 262.846 133.027C264.264 132.275 266.028 130.981 267.726 131.239C268.711 131.39 269.913 131.88 270.324 132.799C270.963 134.227 272.825 134.327 274.035 133.773C275.697 133.01 279.183 132.668 278.846 135.42C278.73 136.371 278.133 137.088 278.247 138.102C278.327 138.817 278.772 139.407 278.897 140.107C279.111 141.31 278.658 142.364 277.799 143.192C276.895 144.065 276.834 145.415 277.375 146.483C278.002 147.717 273.19 150.821 272.326 151.452C269.259 153.688 266.047 155.724 262.782 157.657C259.272 159.737 255.686 161.694 252.026 163.494C250.424 164.281 248.809 165.045 247.167 165.742C245.5 166.449 243.662 166.904 242.44 168.324C241.027 169.966 240.548 172.479 239.972 174.522C239.334 176.78 238.739 179.051 238.111 181.313C237.175 184.685 242.408 186.123 243.342 182.756C243.904 180.729 244.441 178.697 245.005 176.67C245.268 175.723 245.535 174.775 245.824 173.835C246.023 173.185 246.181 172.169 246.711 171.733C247.176 171.352 248.162 171.165 248.713 170.934C249.613 170.557 250.51 170.171 251.399 169.771C253.233 168.944 255.041 168.06 256.831 167.144C264.077 163.432 271.227 159.253 277.625 154.192C280.966 151.547 284.384 148.321 282.059 143.742L281.635 147.033C284.515 144.254 284.812 140.607 283.525 137.02V138.463C284.655 135.07 284.438 131.255 281.137 129.149C277.917 127.093 274.595 127.573 271.295 129.086L275.006 130.061C273.51 126.717 268.722 125.268 265.383 126.021C263.259 126.5 261.35 127.693 259.44 128.69C257.845 129.522 256.237 130.331 254.619 131.118C248.302 134.194 241.43 137.732 234.403 138.763L237.74 142.102C238.636 139.215 239.16 136.24 239.397 133.228C239.603 130.613 239.71 128.167 238.003 126.008C236.286 123.836 233.227 122.956 230.702 124.293C228.694 125.356 227.558 127.334 226.556 129.269C224.135 133.944 221.82 138.646 219.848 143.533C217.527 149.287 217.551 155.316 218.477 161.367C218.678 162.675 218.881 163.797 218.744 165.113C218.789 164.689 218.708 165.317 218.645 165.637C218.548 166.144 218.434 166.646 218.317 167.148C217.753 169.601 217.095 172.033 216.435 174.461C215.517 177.836 220.749 179.277 221.666 175.903L221.672 175.902Z" fill="#2A9D8F"/>
<path d="M100.943 113.92C100.956 115.723 100.981 117.532 100.754 119.324L100.85 118.602C100.8 118.979 100.737 119.354 100.66 119.727C100.511 120.445 100.556 121.173 100.934 121.819C101.264 122.382 101.908 122.92 102.555 123.066C103.249 123.225 104.029 123.19 104.645 122.792C105.217 122.423 105.749 121.86 105.891 121.17C106.386 118.78 106.383 116.347 106.367 113.919C106.363 113.22 106.067 112.495 105.572 111.999C105.102 111.528 104.33 111.174 103.655 111.204C102.193 111.269 100.933 112.397 100.942 113.919L100.943 113.92Z" fill="#2A9D8F"/>
<path d="M141.155 114.097C141.14 116.767 141.1 119.532 141.848 122.122C142.243 123.484 143.778 124.474 145.185 124.018C146.568 123.57 147.502 122.139 147.079 120.679C146.897 120.05 146.773 119.41 146.683 118.761L146.779 119.483C146.546 117.698 146.568 115.894 146.579 114.098C146.587 112.678 145.326 111.318 143.866 111.383C142.389 111.45 141.163 112.576 141.154 114.098L141.155 114.097Z" fill="#2A9D8F"/>
<path d="M212.168 188.758C207.644 176.669 205.261 163.719 200.033 151.903C197.35 145.839 192.408 141.968 186.559 139.2C181.791 136.944 176.934 134.88 172.09 132.795C166.625 130.442 161.132 128.143 155.73 125.642C154.401 125.027 152.808 125.266 152.02 126.617C151.335 127.788 151.658 129.713 152.994 130.331C162.372 134.67 171.987 138.478 181.39 142.762C183.658 143.795 185.951 144.823 188.082 146.123C190.662 147.699 192.706 149.864 194.242 152.47C195.957 155.382 196.917 158.801 197.986 161.991C198.927 164.8 199.791 167.633 200.624 170.475C202.569 177.11 204.511 183.723 206.937 190.202C207.451 191.575 208.771 192.511 210.273 192.099C211.59 191.736 212.685 190.137 212.168 188.758Z" fill="#2A9D8F"/>
<path d="M91.9869 127.642C84.2294 131.254 76.3755 134.657 68.58 138.184C60.44 141.865 51.3764 145.509 46.9782 153.843C43.7097 160.038 42.919 167.565 42.0022 174.409C40.7654 183.638 39.9774 192.926 39.2871 202.211C38.2848 215.697 37.5389 229.201 36.8283 242.706C36.6452 246.199 42.07 246.188 42.2531 242.706C43.3734 221.424 44.3593 200.054 46.8629 178.877C47.5912 172.713 48.3778 166.428 50.1246 160.455C51.47 155.855 54.0712 152.427 57.969 149.726C61.3907 147.355 65.1501 145.681 68.9218 143.961C77.5039 140.045 86.1715 136.313 94.7238 132.332C96.0515 131.713 96.3865 129.799 95.6975 128.618C94.9014 127.255 93.3201 127.022 91.9869 127.642Z" fill="#2A9D8F"/>
<path d="M68.9052 260.453C69.605 252.352 70.435 244.262 71.0453 236.153C71.4169 231.213 71.3274 226.59 70.6913 221.676C69.1018 209.409 66.5535 197.322 64.5354 185.129C63.1426 176.709 62.0414 168.225 60.3908 159.85C59.7155 156.425 54.4859 157.874 55.1599 161.292C56.5948 168.572 57.5903 175.939 58.7661 183.262C59.7683 189.51 60.9686 195.718 62.0902 201.944C63.1969 208.091 64.2411 214.253 65.0996 220.441C65.7262 224.955 66.0788 229.317 65.7818 233.867C65.2027 242.742 64.2452 251.592 63.4803 260.453C63.1792 263.934 68.6068 263.913 68.9052 260.453Z" fill="#2A9D8F"/>
<path d="M186.737 161.543C184.85 176.319 182.564 190.99 179.955 205.653C178.825 212.005 177.704 218.374 176.973 224.786C176.413 229.697 176.823 234.517 177.233 239.431C177.946 247.99 178.824 256.535 179.494 265.097C179.765 268.557 185.191 268.587 184.919 265.097C184.322 257.464 183.563 249.844 182.897 242.217C182.449 237.096 181.742 231.85 182.2 226.708C183.27 214.645 186.133 202.756 188.062 190.815C189.634 181.088 190.915 171.316 192.162 161.544C192.348 160.087 190.783 158.829 189.45 158.829C187.829 158.829 186.925 160.082 186.737 161.543Z" fill="#2A9D8F"/>
<path d="M148.404 125.598C146.926 135.632 144.334 145.352 140.897 154.878C137.461 164.405 134.089 174.067 130.076 183.405C127.179 190.143 123.903 196.695 120.378 203.124C118.697 206.189 123.38 208.932 125.062 205.864C130.891 195.234 135.768 184.229 140.048 172.893C143.368 164.099 146.977 155.237 149.53 146.181C151.298 139.907 152.684 133.491 153.635 127.041C153.848 125.592 153.274 124.123 151.74 123.701C150.463 123.35 148.618 124.138 148.404 125.598Z" fill="#2A9D8F"/>
<path d="M94.5894 125.944C96.3566 148.247 104.022 169.032 113.001 189.327C115.388 194.721 117.836 200.089 120.212 205.487C120.804 206.83 122.762 207.14 123.923 206.462C125.305 205.653 125.489 204.094 124.897 202.748C116.559 183.804 107.514 165.079 102.907 144.778C101.498 138.572 100.517 132.29 100.016 125.945C99.7417 122.485 94.3141 122.455 94.5908 125.945L94.5894 125.944Z" fill="#2A9D8F"/>
<path d="M159.888 191.8C159.324 191.682 158.836 191.549 158.531 191.381C158.349 191.281 158.175 191.173 157.996 191.069C157.274 190.648 158.188 191.327 157.675 190.829C157.492 190.651 157.314 190.465 157.13 190.29C156.785 189.962 156.983 190.14 157.073 190.254C156.715 189.796 156.425 189.267 156.187 188.738C156.377 189.16 156.202 188.768 156.176 188.684C156.1 188.441 156.014 188.202 155.944 187.956C155.829 187.542 155.744 187.123 155.67 186.699C155.771 187.284 155.647 186.447 155.642 186.39C155.62 186.129 155.607 185.868 155.6 185.608C155.586 185.087 155.599 184.564 155.635 184.044C155.653 183.786 155.679 183.528 155.708 183.272C155.695 183.387 155.62 183.767 155.718 183.234C155.798 182.797 155.868 182.357 155.982 181.927C156.023 181.77 156.069 181.617 156.119 181.464C156.155 181.356 156.197 181.252 156.233 181.145C156.361 180.759 156.473 181.094 156.149 181.329C156.431 181.124 156.705 180.232 156.911 179.912C157.05 179.698 157.602 179.123 157.065 179.661C157.33 179.395 157.554 179.088 157.828 178.826C157.937 178.723 158.056 178.628 158.162 178.524C158.594 178.092 157.665 178.818 158.194 178.494C158.468 178.327 158.723 178.143 159.008 177.994C159.136 177.926 159.735 177.693 159.083 177.934C159.244 177.875 159.404 177.815 159.568 177.762C159.736 177.709 159.906 177.662 160.078 177.619C160.226 177.584 161.129 177.496 160.459 177.535C160.866 177.512 161.265 177.491 161.672 177.508C161.711 177.51 162.555 177.584 162.003 177.515C162.236 177.545 162.469 177.594 162.7 177.643C163.196 177.748 163.694 177.873 164.166 178.062C163.71 177.88 164.204 178.089 164.311 178.154C164.554 178.301 164.796 178.438 165.032 178.598C164.554 178.274 165.154 178.709 165.218 178.769C165.332 178.875 165.443 178.986 165.551 179.099C165.607 179.159 166.079 179.755 165.723 179.269C165.861 179.457 165.99 179.653 166.112 179.854C166.206 180.01 166.686 180.994 166.469 180.473C166.653 180.915 166.794 181.378 166.909 181.844C166.968 182.08 167.008 182.319 167.061 182.556C167.23 183.318 167.046 182.022 167.097 182.803C167.124 183.212 167.155 183.618 167.154 184.029C167.152 184.44 167.12 184.845 167.095 185.252C167.048 186.037 167.22 184.73 167.064 185.494C166.998 185.818 166.941 186.143 166.858 186.463C166.736 186.946 166.58 187.419 166.404 187.884C166.584 187.411 166.391 187.911 166.333 188.028C166.203 188.283 166.077 188.539 165.934 188.787C165.812 188.997 165.683 189.204 165.548 189.406C165.513 189.459 165.035 190.051 165.395 189.63C165.057 190.028 164.697 190.391 164.307 190.739C163.973 191.035 164.824 190.421 164.197 190.826C163.928 191 163.665 191.175 163.383 191.325C163.4 191.316 162.693 191.644 163.052 191.495C163.311 191.386 162.542 191.658 162.453 191.682C162.21 191.75 161.966 191.802 161.719 191.849C162.27 191.743 161.474 191.866 161.409 191.868C161.139 191.882 160.867 191.882 160.596 191.871C160.409 191.863 160.223 191.849 160.036 191.83C160.282 191.868 160.233 191.857 159.891 191.8C158.449 191.548 156.968 192.187 156.555 193.697C156.195 195.007 156.998 196.782 158.449 197.036C161.239 197.525 164.074 197.283 166.536 195.774C168.654 194.476 170.289 192.474 171.27 190.204C173.303 185.503 173.076 179.641 169.698 175.608C166.482 171.769 159.963 170.938 155.772 173.592C152.825 175.458 150.964 178.627 150.45 182.037C150.022 184.887 150.041 187.883 151.131 190.595C152.422 193.805 154.995 196.307 158.449 197.033C159.882 197.335 161.382 196.612 161.786 195.137C162.156 193.789 161.331 192.1 159.891 191.798L159.888 191.8Z" fill="#2A9D8F"/>
<path d="M166.456 173.95C167.555 164.887 168.153 155.644 167.264 146.536C166.522 138.946 164.882 130.306 159.106 124.822C156.574 122.418 152.731 126.25 155.271 128.661C160.296 133.431 161.454 141.428 161.968 147.996C162.645 156.636 162.074 165.362 161.031 173.95C160.854 175.408 162.404 176.665 163.743 176.665C165.356 176.665 166.278 175.412 166.456 173.95Z" fill="#2A9D8F"/>
<path d="M87.9832 165.649C87.6441 158.385 86.9836 151.031 87.6292 143.765C88.1242 138.192 89.8195 132.885 93.9587 128.964C96.4989 126.557 92.6581 122.722 90.1233 125.125C79.34 135.341 81.9358 152.318 82.5583 165.651C82.7211 169.13 88.1473 169.149 87.9832 165.649Z" fill="#2A9D8F"/>
<path d="M267.232 144.25C265.048 145.313 262.931 146.504 260.772 147.614C259.729 148.152 258.674 148.662 257.6 149.133C258.142 148.896 257.504 149.171 257.386 149.219C257.095 149.335 256.804 149.447 256.511 149.554C255.92 149.77 255.321 149.964 254.718 150.14C253.358 150.538 252.368 152.069 252.823 153.48C253.271 154.861 254.7 155.802 256.16 155.376C261.072 153.94 265.402 151.16 269.97 148.936C271.249 148.313 271.695 146.39 270.944 145.222C270.097 143.91 268.6 143.583 267.233 144.248L267.232 144.25Z" fill="#2A9D8F"/>
<path d="M267.031 136.867C263.731 138.257 260.533 139.883 257.259 141.336C255.744 142.008 254.235 142.691 252.723 143.367C251.989 143.694 251.254 144.021 250.519 144.343C250.174 144.493 249.83 144.641 249.486 144.79C249.176 144.924 249.389 144.83 249.574 144.754C249.406 144.823 249.237 144.894 249.069 144.963C247.714 145.517 246.754 146.768 247.175 148.302C247.527 149.586 249.146 150.756 250.511 150.198C253.558 148.952 256.545 147.562 259.551 146.224C261.023 145.568 262.505 144.938 263.96 144.249C264.819 143.842 265.675 143.425 266.532 143.015C266.95 142.815 267.369 142.616 267.789 142.422C267.945 142.35 268.101 142.278 268.258 142.207C268.319 142.18 269.069 141.854 268.473 142.106C269.822 141.537 270.792 140.311 270.367 138.766C270.017 137.493 268.39 136.297 267.031 136.87V136.867Z" fill="#2A9D8F"/>
<path d="M245.677 148.081C248.867 150.737 251.926 153.547 254.843 156.501C255.842 157.512 257.692 157.577 258.678 156.501C259.676 155.412 259.744 153.741 258.678 152.662C255.761 149.708 252.703 146.898 249.513 144.242C248.946 143.769 248.357 143.446 247.595 143.446C246.929 143.446 246.136 143.742 245.677 144.242C244.758 145.244 244.512 147.111 245.677 148.081Z" fill="#2A9D8F"/>
<path d="M205.938 210.061C209.862 198.227 213.357 186.265 216.84 174.295L213.504 176.192C223.415 179.497 233.349 182.946 243.449 185.637L241.554 182.297C239.951 190.263 238.431 198.248 236.602 206.166C234.883 213.602 233.069 221.194 230.18 228.276C227.931 233.788 224.579 239.179 219.235 242.117C213.041 245.525 205.211 245.512 198.986 242.227C192.603 238.86 187.665 232.959 182.701 227.856C180.262 225.349 176.428 229.189 178.866 231.695C183.795 236.76 188.658 242.261 194.705 246.028C201.638 250.346 210.306 251.262 218.004 248.549C232.796 243.335 237.112 226.56 240.548 212.936C242.983 203.283 244.822 193.495 246.787 183.739C247.074 182.311 246.389 180.799 244.892 180.4C234.792 177.709 224.858 174.26 214.947 170.955C213.542 170.487 212.004 171.5 211.611 172.851C208.128 184.821 204.633 196.782 200.708 208.616C199.605 211.941 204.843 213.366 205.939 210.059L205.938 210.061Z" fill="#2A9D8F"/>
<path d="M85.6697 206.886C85.4555 206.824 85.2602 206.21 85.2927 206.652C85.2575 206.193 86.4781 205.575 86.417 205.984C86.4143 205.997 85.8786 205.157 85.8976 205.196C85.3863 204.131 85.2792 202.768 85.0432 201.616C84.4871 198.902 83.9568 196.185 83.4903 193.455C82.5464 187.916 81.8439 182.294 82.1816 176.666C82.3226 174.333 82.6088 171.269 84.5739 169.705C86.2963 168.336 88.3225 168.424 90.1859 169.443C92.4251 170.669 93.407 172.836 94.3075 175.143C95.4209 177.996 96.2672 180.961 97.005 183.932C97.8174 187.201 98.4562 190.511 98.9986 193.833C99.2902 195.618 99.5533 197.408 99.8002 199.198C99.9046 199.951 100.036 200.709 100.082 201.468C100.086 201.537 100.02 202.4 100.088 202.51L100.108 202.615C101.524 202.195 101.944 202.547 101.371 203.668C104.442 202.005 101.707 197.317 98.6325 198.979C93.9467 201.515 97.0904 209.315 102.197 207.573C107.349 205.817 105.157 198.435 104.573 194.569C103.839 189.715 102.93 184.881 101.624 180.147C100.447 175.878 99.1193 170.843 96.2252 167.386C93.6714 164.334 89.1376 162.542 85.233 163.475C80.8932 164.512 78.2675 168.07 77.3358 172.261C75.391 181.015 77.4077 190.726 79.0731 199.365C79.8095 203.186 80.1554 210.087 84.9523 211.117C91.0688 212.43 92.8835 203.348 87.1101 201.651C83.7534 200.664 82.3212 205.902 85.6697 206.886Z" fill="#2A9D8F"/>
<path d="M120.007 216.561C120.2 227.066 119.925 237.575 120.117 248.082C120.181 251.571 125.606 251.582 125.542 248.082C125.35 237.576 125.625 227.067 125.432 216.561C125.369 213.071 119.944 213.06 120.007 216.561Z" fill="#2A9D8F"/>
<path d="M140.916 148.918C144.975 144.072 148.614 138.93 151.569 133.334C152.298 131.955 152.989 130.555 153.655 129.143C154.08 128.242 154.647 127.338 154.492 126.308C154.366 125.47 153.87 124.709 153.472 123.966C152.12 121.436 150.476 119.161 148.378 117.195C146.984 115.89 145.184 116.338 144.118 117.745C142.393 120.022 139.348 122.431 136.694 124.187C134.865 125.398 132.959 126.496 131.002 127.487C129.105 128.447 126.875 129.078 125.097 130.231C120.983 132.898 125.407 136.521 127.456 138.658C130.69 142.029 134.062 145.351 137.081 148.918C138.029 150.038 139.941 149.894 140.916 148.918C142.024 147.809 141.866 146.201 140.916 145.079C138.474 142.194 135.723 139.591 133.155 136.821C132.071 135.652 130.987 134.486 129.858 133.362C129.539 133.046 129.224 132.726 128.904 132.412C128.796 132.305 128.701 132.187 128.595 132.075C129.148 132.655 128.729 132.256 128.487 131.818L128.857 133.187L128.891 132.825L128.096 134.744C127.906 134.942 128.785 134.42 129.015 134.319C129.691 134.022 130.377 133.75 131.053 133.45C132.108 132.982 133.149 132.483 134.175 131.953C136.241 130.886 138.249 129.697 140.168 128.381C143.412 126.153 146.418 123.634 148.801 120.486L144.541 121.036C146.72 123.076 148.121 125.408 149.485 128.04V125.299C146.187 132.443 142.136 139.044 137.081 145.079C136.141 146.202 135.981 147.819 137.081 148.918C138.048 149.886 139.971 150.048 140.916 148.918Z" fill="#2A9D8F"/>
<path d="M111.56 145.078C106.505 139.043 102.453 132.441 99.1558 125.298V128.038C100.521 125.408 101.921 123.074 104.099 121.034L99.8393 120.484C102.222 123.631 105.23 126.152 108.473 128.379C110.391 129.697 112.398 130.885 114.466 131.952C115.491 132.481 116.533 132.981 117.588 133.449C118.263 133.749 118.95 134.021 119.625 134.318C119.856 134.42 120.733 134.941 120.545 134.743L119.75 132.823L119.784 133.186L120.154 131.816C119.975 132.139 119.335 132.758 120.046 132.074C119.937 132.179 119.846 132.305 119.736 132.411C119.45 132.686 119.174 132.974 118.891 133.254C117.724 134.413 116.603 135.614 115.485 136.821C112.917 139.591 110.166 142.194 107.723 145.079C106.776 146.198 106.627 147.821 107.723 148.918C108.694 149.89 110.608 150.042 111.558 148.918C114.577 145.351 117.947 142.029 121.183 138.658C123.233 136.522 127.667 132.906 123.542 130.231C121.763 129.077 119.538 128.447 117.637 127.487C115.679 126.498 113.774 125.398 111.945 124.187C109.292 122.432 106.247 120.024 104.521 117.745C103.455 116.338 101.655 115.89 100.261 117.195C98.2173 119.109 96.5898 121.323 95.2634 123.786C94.8972 124.466 94.4009 125.197 94.1961 125.947C93.8964 127.035 94.4348 127.973 94.881 128.925C95.5767 130.41 96.3036 131.883 97.0699 133.334C100.025 138.93 103.664 144.072 107.723 148.918C108.664 150.042 110.587 149.892 111.558 148.918C112.67 147.805 112.502 146.206 111.558 145.079L111.56 145.078Z" fill="#2A9D8F"/>
<path d="M139.966 210.29C143.804 206.288 147.643 202.286 151.481 198.285C152.465 197.26 152.576 195.45 151.481 194.446C150.417 193.467 148.696 193.352 147.646 194.446C143.808 198.448 139.968 202.449 136.13 206.451C135.147 207.476 135.036 209.285 136.13 210.29C137.195 211.268 138.916 211.384 139.966 210.29Z" fill="#2A9D8F"/>
<path d="M159.75 84.6838C159.453 86.8149 158.666 88.7954 157.845 90.7691C157.618 91.312 157.404 91.8577 157.196 92.4088C157.052 92.7916 157.47 91.8468 157.127 92.5513C157.038 92.7346 156.955 92.9206 156.865 93.1025C155.631 95.6368 154.112 98.0462 152.481 100.342C148.72 105.635 143.587 111.392 137.013 112.937C133.616 113.735 135.053 118.972 138.455 118.173C146.227 116.346 152.215 109.884 156.741 103.67C158.519 101.229 160.168 98.6543 161.5 95.9408C162.986 92.9151 164.514 89.4578 164.98 86.1267C165.182 84.677 164.627 83.211 163.085 82.7874C161.816 82.4386 159.953 83.2218 159.75 84.6838Z" fill="#2A9D8F"/>
<path d="M82.0717 84.2173C83.6218 92.3129 87.2321 99.9511 92.4603 106.312C97.7984 112.806 105.079 118.379 113.567 119.678C115.013 119.9 116.484 119.312 116.903 117.782C117.256 116.497 116.465 114.665 115.009 114.443C107.326 113.266 101.122 108.343 96.2957 102.472C91.6601 96.8331 88.6697 89.9171 87.3012 82.773C86.6448 79.3455 81.4153 80.7966 82.0703 84.2159L82.0717 84.2173Z" fill="#2A9D8F"/>
<path d="M151.404 8.04555C137.104 -1.10616 118.509 -2.54637 102.927 4.21763C90.3457 9.67988 80.269 20.7048 75.8355 33.6682C72.5074 43.3981 72.4924 53.8475 75.0353 63.7526C75.9033 67.1339 81.137 65.7005 80.2663 62.3097C76.5747 47.9292 79.3278 32.3705 89.2092 21.0374C98.2768 10.6369 111.103 5.1624 124.879 5.45288C133.416 5.63342 141.483 8.13514 148.667 12.7327C151.617 14.6209 154.341 9.92286 151.405 8.04419L151.404 8.04555Z" fill="#2A9D8F"/>
<path d="M172.317 63.754C174.709 54.0403 174.823 44.0253 171.796 34.4175C169.41 26.8445 165.183 20.0004 159.513 14.4526C157.015 12.0079 153.175 15.844 155.677 18.2914C160.682 23.1889 164.458 29.167 166.565 35.8604C169.306 44.5642 169.254 53.5028 167.086 62.3111C166.25 65.7032 171.48 67.1502 172.317 63.754Z" fill="#2A9D8F"/>
<path d="M165.415 67.5163C166.717 66.4262 169.045 66.7357 169.861 68.2465C170.378 69.2035 170.371 70.4741 170.393 71.5342C170.42 72.8591 170.349 74.1907 170.11 75.4952C169.632 78.1136 168.731 80.6438 167.311 82.9012C166.716 83.8473 165.984 84.788 165.105 85.4871C164.324 86.1088 163.883 86.3043 162.951 86.0559C159.574 85.1545 158.134 90.3901 161.509 91.2914C165.822 92.4425 169.2 89.6666 171.552 86.3097C173.875 82.9935 175.149 78.9348 175.634 74.9468C176.095 71.1664 176.085 66.3774 173.028 63.6273C169.713 60.6464 164.9 60.8948 161.579 63.6748C160.454 64.6155 160.607 66.5416 161.579 67.5135C162.692 68.628 164.287 68.4569 165.414 67.5135L165.415 67.5163Z" fill="#2A9D8F"/>
<path d="M85.6845 63.6767C82.3644 60.898 77.5472 60.6496 74.2353 63.6292C71.0956 66.4526 71.1716 71.399 71.6693 75.2582C72.1874 79.272 73.545 83.3429 75.9455 86.6374C78.3758 89.9726 81.9969 92.8028 86.33 91.8472C87.7608 91.5309 88.5976 89.868 88.2246 88.5079C87.8191 87.031 86.3232 86.2953 84.8884 86.6116C83.0398 87.0188 81.0638 84.585 80.1701 83.2398C78.662 80.9661 77.7072 78.3789 77.1932 75.7075C76.9464 74.4233 76.8541 73.1162 76.8677 71.809C76.8785 70.6714 76.8433 69.2774 77.4048 68.2485C78.2266 66.7417 80.5417 66.4227 81.8504 67.5182C82.9734 68.4575 84.5859 68.6204 85.6858 67.5182C86.6514 66.5517 86.8142 64.6242 85.6858 63.6794L85.6845 63.6767Z" fill="#2A9D8F"/>
<path d="M116.826 98.2785C119.328 99.6006 122.019 100.171 124.851 100.152C127.822 100.133 130.723 99.5042 133.091 97.6581C134.215 96.7812 134.08 94.7274 133.091 93.8193C131.898 92.7239 130.455 92.8841 129.256 93.8193C130.19 93.0904 129.204 93.8139 128.908 93.97C128.679 94.0908 128.059 94.2822 128.908 93.9972C128.689 94.0705 128.476 94.1641 128.255 94.2347C127.977 94.3243 127.695 94.4003 127.41 94.4668C127.11 94.5361 126.703 94.532 126.427 94.6528C126.702 94.5333 126.855 94.6012 126.444 94.6419C126.265 94.6596 126.085 94.6745 125.906 94.6867C125.473 94.7152 125.039 94.7261 124.607 94.7234C124.219 94.7207 123.831 94.7084 123.443 94.6813C123.265 94.6691 123.088 94.6555 122.91 94.6365C122.808 94.627 122.708 94.6148 122.606 94.6026C122.395 94.5768 122.473 94.5876 122.845 94.6338C122.69 94.7084 122.142 94.5089 121.97 94.4709C121.691 94.4085 121.413 94.3365 121.137 94.2551C120.899 94.1831 120.665 94.0976 120.429 94.0162C119.815 93.8058 120.992 94.2863 120.435 94.0243C120.142 93.8858 119.853 93.742 119.567 93.5913C118.312 92.9289 116.56 93.2316 115.856 94.5659C115.194 95.8202 115.49 97.5726 116.83 98.2798L116.826 98.2785Z" fill="#2A9D8F"/>
<path d="M123.142 79.786C123.476 81.0606 123.797 82.3556 123.988 83.66L123.892 82.9379C123.915 83.1171 123.924 83.2935 123.907 83.4727L124.003 82.7506C123.991 82.8334 123.972 82.9121 123.945 82.9908L124.219 82.342C124.194 82.3976 124.169 82.4452 124.133 82.4967L124.558 81.947C124.518 81.9958 124.48 82.0325 124.432 82.0719L124.981 81.647C124.883 81.7094 124.78 81.761 124.674 81.8099L125.323 81.5357C125.155 81.6063 124.986 81.6578 124.806 81.6864L125.527 81.59C125.365 81.609 125.206 81.6076 125.042 81.59L125.763 81.6864C125.58 81.6606 125.401 81.6158 125.218 81.5913C124.858 81.4787 124.497 81.4624 124.136 81.5425C123.775 81.5588 123.439 81.666 123.127 81.8642C122.564 82.194 122.027 82.8388 121.881 83.4863C121.722 84.1813 121.757 84.9618 122.155 85.5781C122.507 86.1251 123.097 86.7346 123.775 86.8255C124.255 86.8907 124.723 87.0101 125.213 87.0319C125.998 87.0658 126.716 86.8201 127.413 86.4957C128.29 86.0885 128.98 85.2591 129.214 84.3157C129.413 83.508 129.332 82.8578 129.195 82.0488C128.984 80.8013 128.696 79.5647 128.376 78.3403C128.203 77.6847 127.711 77.0589 127.129 76.7182C126.547 76.3775 125.69 76.2336 125.039 76.444C124.383 76.6571 123.749 77.0643 123.419 77.6915C123.075 78.343 122.955 79.0584 123.145 79.7833L123.142 79.786Z" fill="#2A9D8F"/>
<path d="M103.574 68.7204C102.958 70.7239 103.36 75.3324 107.152 75.7247C112.164 75.6948 112.432 70.1226 110.743 67.5028C109.361 65.3581 105.301 64.4649 103.574 68.7204Z" fill="#2A9D8F"/>
<path d="M145.3 68.7203C145.916 70.7238 145.514 75.3323 141.722 75.7246C136.71 75.6947 136.442 70.1225 138.13 67.5013C139.512 65.3566 143.573 64.4661 145.3 68.7203Z" fill="#2A9D8F"/>
<path d="M121.638 70.6294C122.19 70.4923 122.747 70.3864 123.311 70.309L122.59 70.4054C123.859 70.2466 125.136 70.2507 126.404 70.4163L125.682 70.3199C126.387 70.419 127.082 70.5656 127.767 70.761C129.131 71.1493 130.78 70.2859 131.103 68.8647C131.433 67.4191 130.669 65.9422 129.208 65.5255C126.273 64.6893 123.153 64.6595 120.195 65.3938C118.817 65.7359 117.857 67.3634 118.3 68.7331C118.763 70.1624 120.162 70.9959 121.638 70.6294Z" fill="#2A9D8F"/>
<path d="M94.619 64.5959C93.3252 64.3054 91.9785 64.1493 90.6507 64.19C89.9414 64.2117 89.2403 64.4778 88.733 64.9854C88.4686 65.2311 88.2814 65.523 88.1716 65.8596C88.002 66.1827 87.9234 66.5315 87.9383 66.9062C87.9695 67.608 88.2001 68.3369 88.733 68.8256C89.2538 69.3047 89.9252 69.6427 90.6507 69.621C91.3641 69.5993 92.0761 69.6346 92.7841 69.7282L92.0626 69.6319C92.4369 69.6835 92.8085 69.75 93.176 69.8328C93.5368 69.9454 93.8975 69.9617 94.2583 69.8816C94.619 69.8653 94.9554 69.7581 95.2673 69.5599C95.5833 69.3889 95.8369 69.1568 96.0281 68.8609C96.2682 68.5989 96.4296 68.2907 96.5137 67.9378C96.6723 67.2428 96.6371 66.4623 96.2397 65.846C95.8667 65.2678 95.3093 64.7533 94.619 64.5986V64.5959Z" fill="#2A9D8F"/>
<path d="M155.789 69.831C156.158 69.7482 156.528 69.6817 156.902 69.6301L156.181 69.7265C156.889 69.6329 157.601 69.5962 158.314 69.6193C158.687 69.6329 159.036 69.5555 159.36 69.3858C159.696 69.2759 159.988 69.0885 160.233 68.8238C160.498 68.5781 160.685 68.2863 160.795 67.9497C160.964 67.6266 161.043 67.2777 161.028 66.9031C160.997 66.2013 160.766 65.4724 160.233 64.9837C159.693 64.4883 159.057 64.2113 158.315 64.1883C157.759 64.1706 157.205 64.1883 156.651 64.2412C155.88 64.3159 155.105 64.4231 154.348 64.5928C153.996 64.6769 153.688 64.8385 153.426 65.0787C153.131 65.2701 152.899 65.524 152.728 65.8402C152.53 66.1524 152.423 66.4877 152.406 66.8502C152.325 67.2112 152.341 67.5723 152.455 67.9334C152.668 68.5904 153.075 69.2243 153.702 69.5555L154.35 69.8297C154.83 69.9586 155.311 69.9586 155.791 69.8297L155.789 69.831Z" fill="#2A9D8F"/>
<path d="M141.467 78.3084C139.355 78.2446 137.309 77.8835 135.741 76.9591C135.593 76.8722 134.687 76.2017 135.052 76.5112C134.678 76.1935 134.332 75.8488 134.01 75.4782C133.947 75.4049 133.711 75.0709 133.985 75.4524C133.842 75.2528 133.707 75.0492 133.579 74.8402C133.472 74.6637 133.372 74.4845 133.277 74.3013C133.227 74.2063 132.881 73.4285 133.079 73.9199C132.281 71.9421 132.04 70.4177 132.178 68.3816C132.146 68.8513 132.163 68.4454 132.185 68.3395C132.235 68.0911 132.302 67.8495 132.372 67.6065C132.592 66.864 132.125 68.0192 132.475 67.3296C132.551 67.1803 132.63 67.0337 132.717 66.8898C132.976 66.4568 133.72 65.6641 134.23 65.3518C135.977 64.2795 138.004 63.7134 140.253 63.5926C142.715 63.461 145.234 63.632 147.532 64.5998C147.992 64.7939 149.067 65.4604 149.406 65.7699C149.569 65.9179 150.262 66.6889 150.007 66.3536C150.309 66.75 150.567 67.1939 150.771 67.6472C150.568 67.1966 150.784 67.7029 150.818 67.8251C150.875 68.0327 150.941 68.235 150.992 68.444C151.002 68.4902 151.134 69.3277 151.069 68.7657C151.089 68.9463 151.1 69.1295 151.108 69.3101C151.134 69.8978 151.106 70.4897 151.053 71.0761C151.049 71.1236 150.988 71.6109 151.043 71.2267C150.989 71.6027 150.912 71.976 150.822 72.3439C150.692 72.876 150.533 73.4095 150.32 73.9144C150.482 73.5316 150.296 73.9402 150.266 73.9999C150.107 74.3149 149.938 74.623 149.749 74.9203C149.78 74.8714 149.296 75.5759 149.511 75.2881C149.616 75.147 149.132 75.7252 149.048 75.8121C148.866 76.0035 148.675 76.184 148.48 76.3605C148.078 76.7229 148.681 76.256 148.191 76.5967C146.196 77.988 144.037 78.341 141.47 78.3057C137.977 78.2582 137.976 83.6878 141.47 83.7353C147.564 83.8181 153.22 81.2594 155.553 75.356C157.638 70.077 156.503 63.9333 151.649 60.6864C149.074 58.9625 145.846 58.3299 142.803 58.1643C139.424 57.9811 135.986 58.4589 132.904 59.8855C130.343 61.0692 128.255 63.1447 127.271 65.8066C126.349 68.3042 126.715 71.3435 127.369 73.8669C128.122 76.7745 129.73 79.3074 132.161 81.0816C134.83 83.0308 138.239 83.6376 141.471 83.7353C144.963 83.8412 144.959 78.4116 141.471 78.3057L141.467 78.3084Z" fill="#2A9D8F"/>
<path d="M107.289 83.7323C110.237 83.5803 113.292 83.0332 115.824 81.422C118.112 79.9655 119.696 77.8696 120.68 75.3625C121.665 72.8553 122.028 69.8065 121.605 67.1446C121.169 64.3972 119.385 62.1453 117.118 60.6318C114.495 58.882 111.179 58.2359 108.077 58.1368C104.756 58.0296 101.347 58.54 98.3272 59.9626C95.7517 61.1761 93.712 63.2611 92.6731 65.9162C91.6831 68.4464 91.8458 71.4029 92.5294 73.9942C93.3119 76.9642 95.0506 79.5189 97.5541 81.2903C100.349 83.268 103.939 83.8504 107.292 83.7336C110.773 83.6115 110.789 78.1818 107.292 78.304C106.112 78.3447 104.894 78.3148 103.942 78.1234C103.448 78.0243 102.96 77.8995 102.481 77.742C101.913 77.556 101.933 77.575 101.316 77.2411C100.307 76.6941 100.15 76.5733 99.3837 75.7357C99.2684 75.6095 99.1545 75.4792 99.0473 75.3462C99.3837 75.7642 98.8819 75.091 98.8629 75.0625C98.5781 74.6254 98.3231 74.1639 98.1143 73.686C98.3272 74.1734 98.0044 73.3562 97.9976 73.3372C97.9393 73.1648 97.8851 72.991 97.8349 72.8159C97.6803 72.277 97.5569 71.7246 97.4782 71.1694C97.4958 71.2983 97.5202 71.5929 97.4701 71.0241C97.4429 70.7269 97.4226 70.4282 97.4131 70.1296C97.4063 69.8975 97.405 69.6654 97.4131 69.4319C97.4172 69.3124 97.5379 68.4301 97.4416 68.9541C97.7603 67.2098 98.4479 66.2325 99.6997 65.4085C101.414 64.2791 103.488 63.7606 105.724 63.6099C108.217 63.4416 110.776 63.5719 113.088 64.5791C112.813 64.4597 113.254 64.6701 113.265 64.6755C113.524 64.8058 113.779 64.9429 114.027 65.0936C114.264 65.2375 114.503 65.3882 114.724 65.5578C114.623 65.4818 114.423 65.2945 114.804 65.642C114.999 65.8185 115.181 66.0044 115.364 66.1931C115.919 66.7646 115.231 65.9637 115.501 66.3397C115.623 66.5094 115.737 66.6872 115.841 66.8691C115.924 67.013 116.003 67.1609 116.075 67.3116C115.97 67.0428 115.974 67.0578 116.085 67.3564C116.138 67.5152 116.189 67.6754 116.231 67.8383C116.247 67.9034 116.376 68.7111 116.312 68.1247C116.364 68.5889 116.349 69.06 116.331 69.5256C116.282 70.8137 116.267 71.0825 115.963 72.3096C115.829 72.8567 115.665 73.3983 115.453 73.9209C115.497 73.8123 115.657 73.4946 115.424 73.963C115.277 74.2589 115.124 74.5494 114.952 74.8303C114.866 74.9688 114.777 75.1045 114.686 75.2403C114.503 75.4941 114.497 75.505 114.672 75.2756C114.569 75.4018 114.463 75.524 114.354 75.6448C114.213 75.7928 114.073 75.9407 113.925 76.0819C113.849 76.1552 113.202 76.69 113.617 76.3764C111.803 77.7447 109.679 78.1818 107.294 78.3053C105.831 78.3813 104.582 79.4985 104.582 81.0202C104.582 82.4319 105.824 83.811 107.294 83.735L107.289 83.7323Z" fill="#2A9D8F"/>
<path d="M86.6409 66.8499C86.8239 63.8337 86.6273 60.0723 87.8954 57.253C89.375 53.964 93.2416 53.0043 95.8143 50.812C98.8916 48.1881 100.358 44.1281 102.93 41.0861C104.978 38.6645 108.922 39.2346 111.639 39.9405C115.268 40.8825 118.516 42.8793 122.107 43.9421C126.251 45.1679 130.562 44.8801 134.823 44.8163C138.956 44.7552 143.097 44.7118 147.228 44.8055C148.804 44.8407 150.398 44.876 151.952 45.1638C152.594 45.2819 153.253 45.4109 153.866 45.6416C154.567 45.905 153.874 45.6077 154.464 45.9131C154.548 45.9565 155.191 46.4167 154.821 46.1398C155.396 46.5687 155.417 46.957 155.69 47.7388C156.269 49.403 156.824 51.0754 157.312 52.7694C158.469 56.7914 159.403 60.8189 160.256 64.9142C160.968 68.3322 166.199 66.8866 165.487 63.4713C164.652 59.4628 163.736 55.5263 162.617 51.5871C161.886 49.0148 161.192 45.7692 159.658 43.505C157.778 40.7318 154.469 40.0111 151.346 39.6283C147.234 39.1247 142.99 39.3337 138.857 39.3514C134.248 39.3717 129.219 40.0735 124.696 39.012C120.651 38.0632 117.095 35.7515 113.083 34.7049C109.416 33.7479 105.085 33.433 101.623 35.2601C97.8012 37.2772 95.9838 42.0214 93.506 45.3335C92.139 47.1606 90.2525 47.994 88.3646 49.175C86.3737 50.4211 84.5618 52.0147 83.4239 54.1024C81.3774 57.8557 81.4682 62.6908 81.216 66.8513C81.0044 70.3412 86.4306 70.3276 86.6409 66.8499Z" fill="#2A9D8F"/>
<path d="M362.324 297.322C347.418 301.207 332.132 306.403 319.857 316.019C318.703 316.923 318.909 318.91 319.857 319.858C320.996 320.998 322.536 320.764 323.692 319.858C329.687 315.161 336.811 311.744 343.84 308.909C350.349 306.283 356.986 304.323 363.766 302.556C367.142 301.676 365.711 296.438 362.324 297.32V297.322Z" fill="#2A9D8F"/>
<path d="M322.709 400.54C325.687 425.245 328.355 449.991 330.785 474.755C331.587 482.928 332.355 491.104 333.075 499.285C333.204 500.746 334.229 502 335.787 502C337.154 502 338.628 500.754 338.5 499.285C336.098 471.98 333.227 444.714 330.118 417.481C329.474 411.832 328.815 406.184 328.135 400.54C327.96 399.085 327.014 397.825 325.423 397.825C324.094 397.825 322.534 399.074 322.71 400.54H322.709Z" fill="#2A9D8F"/>
<path d="M270.602 407.726C268.365 408.876 266.484 410.498 264.99 412.518C263.673 414.298 262.26 416.827 262.281 419.088C262.311 422.312 263.056 425.62 263.693 428.766C265.38 437.098 267.611 445.343 270.1 453.469C272.671 461.864 275.863 469.794 280.982 477.014C284.096 481.407 287.735 485.324 292.56 487.851C297.243 490.302 302.44 491.326 307.671 490.487C313.031 489.627 318.242 487.137 322.687 484.076C326.661 481.339 330.743 477.856 332.807 473.385C333.422 472.054 333.183 470.459 331.834 469.671C330.663 468.985 328.74 469.307 328.123 470.645C326.604 473.934 323.813 476.579 320.93 478.691C317.423 481.26 313.5 483.377 309.307 484.566C300.27 487.128 291.9 482.615 286.489 475.402C281.658 468.964 278.437 461.856 276.023 454.237C273.685 446.858 271.635 439.372 269.903 431.829C269.448 429.845 269.019 427.857 268.638 425.859C268.351 424.355 268.016 422.415 267.892 421.309C267.708 419.665 267.666 418.743 268.424 417.265C269.541 415.085 271.174 413.531 273.343 412.416C276.45 410.819 273.708 406.133 270.605 407.728L270.602 407.726Z" fill="#2A9D8F"/>
<path d="M359.251 301.547C362.269 307.642 367.196 312.679 373.09 316.04C379.776 319.853 387.477 321.36 395.1 321.638C410.018 322.184 424.998 318.49 438.249 311.705C443.971 308.775 449.217 305.197 454.253 301.225C455.404 300.317 455.202 298.337 454.253 297.387C453.116 296.249 451.571 296.476 450.417 297.387C441.31 304.569 430.713 310.167 419.337 313.304C412.801 315.106 406.085 316.114 399.307 316.243C392.196 316.378 384.79 315.662 378.271 312.617C372.05 309.712 366.992 304.976 363.937 298.807C362.386 295.675 357.706 298.424 359.252 301.547H359.251Z" fill="#2A9D8F"/>
<path d="M446.42 298.001C468.175 305.071 491.352 314.864 503.604 335.435C509.856 345.93 510.976 359.157 511.869 371.064C512.765 383.017 512.595 394.967 512.244 406.937C511.95 416.98 511.504 427.026 510.522 437.029C509.563 446.794 508.351 457.001 504.778 466.209C500.522 477.184 491.089 485.697 479.257 487.274C473.512 488.039 467.372 487.245 462.106 484.783C458.939 483.303 456.051 481.25 453.318 479.085C445.974 473.263 439.251 466.634 432.724 459.923C426.754 453.785 420.936 447.484 415.383 440.964C414.494 439.919 413.612 438.866 412.747 437.8C411.822 436.661 409.872 436.839 408.911 437.8C407.787 438.925 407.985 440.497 408.911 441.639C413.908 447.796 419.285 453.662 424.729 459.422C431.616 466.71 438.712 473.869 446.363 480.359C449.455 482.983 452.652 485.559 456.105 487.697C460.895 490.663 466.358 492.329 471.952 492.823C484.916 493.966 497.052 488.007 504.659 477.596C511.112 468.766 513.261 457.667 514.752 447.052C516.284 436.136 516.999 425.125 517.426 414.116C517.859 402.986 518.226 391.826 517.825 380.691C517.562 373.396 516.983 366.112 516.058 358.87C515.254 352.567 514.025 346.335 511.825 340.355C507.968 329.873 500.156 320.545 491.396 313.715C481.409 305.928 469.69 300.628 457.886 296.238C454.57 295.004 451.224 293.856 447.861 292.761C444.532 291.68 443.107 296.921 446.419 297.997L446.42 298.001Z" fill="#2A9D8F"/>
<path d="M273.366 330.412C270.91 323.144 268.481 315.851 266.326 308.485C265.545 305.814 266.463 303.156 269.276 302.243C272.529 301.186 275.883 300.371 279.177 299.448C286.202 297.482 293.234 295.538 300.269 293.607C301.772 293.194 303.276 292.781 304.779 292.37C306.175 291.987 307.496 291.583 308.919 292.127C311.347 293.057 311.802 295.476 312.501 297.688C319.472 319.76 326.505 341.813 333.621 363.838C334.549 366.708 333.852 369.338 330.848 370.498C327.723 371.702 324.492 372.683 321.32 373.751C315.806 375.608 310.283 377.437 304.76 379.262C301.46 380.352 302.873 385.597 306.201 384.498C311.57 382.725 316.937 380.947 322.297 379.144C325.377 378.109 328.457 377.066 331.527 375.999C335.053 374.775 337.927 372.767 339.1 369.044C340.074 365.956 339.088 363.125 338.146 360.2C337.307 357.599 336.471 354.999 335.635 352.396C333.599 346.056 331.569 339.714 329.543 333.371C325.625 321.109 321.715 308.845 317.836 296.571C316.858 293.478 316.018 290.486 313.296 288.438C310.254 286.149 306.858 286.172 303.338 287.136C295.781 289.205 288.229 291.287 280.681 293.391C276.549 294.543 272.407 295.675 268.288 296.878C264.225 298.064 261.157 301.172 260.643 305.473C260.394 307.555 260.95 309.456 261.549 311.428C262.207 313.595 262.882 315.756 263.566 317.913C265.044 322.574 266.57 327.22 268.136 331.853C269.248 335.145 274.49 333.733 273.367 330.41L273.366 330.412Z" fill="#2A9D8F"/>
<path d="M277.383 312.347C279.734 311.653 282.092 310.975 284.447 310.294C285.108 310.103 285.719 309.643 286.068 309.047C286.408 308.465 286.552 307.607 286.342 306.955C285.894 305.569 284.466 304.638 283.006 305.059C280.65 305.739 278.293 306.418 275.941 307.111C275.279 307.307 274.67 307.759 274.32 308.359C273.98 308.941 273.836 309.799 274.046 310.451C274.493 311.83 275.925 312.777 277.383 312.347Z" fill="#2A9D8F"/>
<path d="M271.377 357.853C274.504 355.094 277.57 352.209 281.004 349.83C284.335 347.519 288.059 345.532 291.722 343.807C293.59 342.926 295.515 342.17 297.501 341.597C299.244 341.095 301.281 340.489 303.117 340.766C304.324 340.948 305.008 341.814 305.203 342.999C305.482 344.697 304.015 345.913 302.95 347.01C300.517 349.519 304.35 353.363 306.786 350.849C308.667 348.909 310.394 346.884 310.639 344.077C310.832 341.847 309.969 339.407 308.49 337.735C305.074 333.87 298.865 335.389 294.661 336.798C289.533 338.517 284.603 341.157 280.011 343.995C275.47 346.801 271.528 350.495 267.542 354.013C264.919 356.329 268.768 360.158 271.377 357.853Z" fill="#2A9D8F"/>
<path d="M281.773 366.157C284.307 363.878 286.727 361.442 289.417 359.344C292.54 356.906 296.11 354.973 299.747 353.417C301.448 352.69 303.247 352.061 305.058 351.67C306.209 351.422 307.625 351.544 308.37 352.6C310.358 355.426 305.744 358.324 303.993 359.898C301.389 362.237 305.236 366.066 307.829 363.737C311.398 360.532 315.736 356.94 313.779 351.512C312.968 349.265 311.42 347.608 309.201 346.727C306.833 345.785 304.445 346.154 302.066 346.845C297.258 348.243 292.377 350.597 288.284 353.474C284.555 356.098 281.32 359.276 277.939 362.317C275.337 364.657 279.183 368.486 281.775 366.155L281.773 366.157Z" fill="#2A9D8F"/>
<path d="M291.601 376.668C293.758 374.308 296.019 372.12 298.487 370.087C301.304 367.769 304.336 365.293 307.804 364.028C308.546 363.758 309.057 363.55 309.715 363.587C309.348 363.566 310.195 363.721 310.133 363.689C310.168 363.708 310.511 363.98 310.583 364.065C310.532 364.004 310.968 364.731 310.826 364.407C310.965 364.726 311.051 365.091 311.109 365.434C311.158 365.723 311.143 366.65 311.081 366.925C310.94 367.553 310.929 367.56 310.553 368.001C310.032 368.613 309.503 369.219 308.977 369.824C307.907 371.054 306.83 372.278 305.752 373.5C302.964 376.66 300.175 379.82 297.424 383.011C296.468 384.12 296.335 385.76 297.424 386.85C298.401 387.829 300.299 387.965 301.259 386.85C304.085 383.573 306.95 380.329 309.813 377.084C311.041 375.69 312.267 374.294 313.483 372.889C314.848 371.31 316.082 369.903 316.415 367.77C317.093 363.414 314.874 358.536 310.02 358.173C307.822 358.009 305.621 358.988 303.699 359.941C301.614 360.975 299.678 362.29 297.833 363.702C294.207 366.474 290.846 369.455 287.767 372.825C286.779 373.907 286.699 375.596 287.767 376.664C288.77 377.667 290.611 377.75 291.603 376.664L291.601 376.668Z" fill="#2A9D8F"/>
<path d="M272.147 356.615C276.62 350.213 281.023 343.763 285.404 337.297C287.38 334.382 289.746 331.222 289.513 327.483C289.289 323.893 286.082 320.866 282.518 320.745C278.608 320.613 275.894 322.398 273.362 325.173C270.59 328.21 267.982 331.386 265.478 334.646C263.038 337.824 260.721 341.091 258.464 344.401C256.594 347.144 255.086 349.668 254.265 352.92C253.496 355.973 253.148 359.208 253.082 362.357C253.016 365.545 253.11 369.141 254.001 372.205C254.984 375.582 256.869 378.606 258.845 381.48C260.524 383.922 262.069 386.44 263.791 388.855C267.682 394.312 272.072 399.698 273.473 406.418C274.185 409.835 273.376 413.728 275.205 416.852C277.068 420.035 281.224 420.739 284.609 420.646C288.67 420.533 292.635 419.249 296.232 417.416C299.446 415.779 303.447 413.347 305.445 410.244C306.676 408.33 306.901 405.88 307.224 403.678C307.532 401.585 307.779 399.479 307.817 397.362C307.895 392.947 307.049 388.611 305.725 384.417C304.678 381.097 299.439 382.516 300.494 385.86C302.546 392.365 302.796 398.639 301.474 405.328C301.163 406.899 300.668 407.628 299.498 408.683C298.345 409.721 297.098 410.626 295.78 411.442C293.311 412.969 290.652 414.145 287.815 414.791C285.858 415.238 281.701 415.967 280.075 414.335C279.302 413.56 279.393 412.06 279.356 411.064C279.294 409.367 279.177 407.69 278.899 406.013C277.907 400.037 274.738 394.851 271.277 390.001C268.085 385.528 264.896 381.038 261.97 376.386C260.329 373.778 259.096 371.192 258.791 368.099C258.551 365.665 258.422 363.225 258.578 360.781C258.753 358.042 259.123 355.317 259.976 352.699C260.829 350.08 262.627 347.884 264.178 345.639C268.184 339.836 272.44 334.217 277.2 329.008C278.227 327.885 279.126 326.685 280.665 326.327C281.853 326.051 283.193 325.96 283.882 327.166C284.41 328.087 283.873 329.404 283.474 330.292C282.755 331.892 281.541 333.342 280.559 334.792C276.232 341.176 271.882 347.546 267.465 353.869C265.461 356.738 270.161 359.455 272.149 356.609L272.147 356.615Z" fill="#2A9D8F"/>
<path d="M401.984 427.37C403.218 427.944 404.449 428.524 405.694 429.074C406.329 429.355 406.968 429.629 407.612 429.887C407.871 429.991 408.132 430.092 408.391 430.196C409.017 430.448 408.065 430.031 408.414 430.209C408.568 430.287 408.728 430.355 408.882 430.435C409.16 430.579 409.419 430.745 409.68 430.917C409.969 431.109 409.4 430.614 409.614 430.886C409.718 431.018 409.862 431.128 409.977 431.254C410.022 431.303 410.25 431.505 410.247 431.567C410.059 431.316 410.022 431.269 410.14 431.428C410.182 431.483 410.223 431.539 410.262 431.595C410.444 431.847 410.618 432.106 410.794 432.363C411.646 433.605 412.591 434.791 413.586 435.921C414.528 436.989 416.474 436.955 417.422 435.921C418.467 434.78 418.427 433.221 417.422 432.082C416.99 431.593 416.579 431.09 416.169 430.582C415.915 430.268 416.551 431.099 416.128 430.526C416.04 430.405 415.949 430.286 415.861 430.165C415.648 429.873 415.447 429.575 415.244 429.279C414.302 427.913 413.277 426.66 411.803 425.846C411.114 425.464 410.369 425.177 409.64 424.885C409.374 424.779 409.108 424.674 408.842 424.567C408.511 424.436 408.926 424.598 409.028 424.646C408.891 424.579 408.747 424.525 408.608 424.464C407.303 423.893 406.013 423.286 404.721 422.683C403.436 422.086 401.737 422.279 401.01 423.658C400.377 424.858 400.61 426.732 401.984 427.372V427.37Z" fill="#2A9D8F"/>
<path d="M382.928 374.671C375.522 370.847 367.75 367.831 360.274 364.171C359 363.548 356.662 362.632 356.311 361.087C356.042 359.903 356.863 358.802 357.915 358.425C359.529 357.848 361.477 358.204 363.104 358.549C365.442 359.044 367.721 359.81 369.984 360.57C378.615 363.468 387.066 366.901 395.466 370.406C399.612 372.135 403.548 373.497 406.636 376.909C409.789 380.394 412.527 384.336 415.157 388.223C418.091 392.559 420.711 397.063 423.305 401.605C425.863 406.083 428.645 410.468 432.264 414.174C434.708 416.677 438.544 412.837 436.1 410.335C432.651 406.803 430.111 402.597 427.684 398.329C425.045 393.685 422.33 389.107 419.307 384.699C416.422 380.494 413.421 376.122 409.88 372.436C406.278 368.687 401.589 367.123 396.908 365.17C387.574 361.277 378.17 357.396 368.509 354.385C364.316 353.08 358.919 351.601 354.786 353.885C350.765 356.107 349.635 361.737 352.535 365.281C354.234 367.36 356.803 368.551 359.198 369.628C361.378 370.608 363.567 371.57 365.747 372.546C370.605 374.721 375.461 376.919 380.192 379.361C383.29 380.96 386.038 376.277 382.931 374.672L382.928 374.671Z" fill="#2A9D8F"/>
<path d="M381.122 375.32C378.506 377.582 375.955 379.919 373.484 382.338C371.233 384.543 368.596 386.812 367.029 389.585C365.617 392.083 365.36 395.158 366.445 397.828C367.552 400.551 369.799 402.385 372.367 403.69C373.671 404.354 375.308 404.034 376.077 402.716C376.785 401.505 376.415 399.668 375.104 399.002C374.2 398.542 373.235 398.019 372.582 397.384C371.944 396.764 371.647 396.362 371.472 395.868C370.897 394.244 371.287 392.584 372.628 391.008C376.298 386.701 380.684 382.85 384.956 379.158C386.066 378.199 385.938 376.302 384.956 375.319C383.857 374.218 382.233 374.358 381.121 375.319L381.122 375.32Z" fill="#2A9D8F"/>
<path d="M388.548 384.861C385.555 386.893 382.746 389.209 380.252 391.832C377.879 394.328 375.17 397.261 373.954 400.533C372.737 403.804 373.291 407.276 375.676 409.831C377.856 412.166 381.016 412.912 384.093 413.045C385.558 413.108 386.805 411.753 386.805 410.33C386.805 408.807 385.562 407.679 384.093 407.616C382.996 407.568 381.938 407.454 380.879 407.008C381.205 407.145 380.769 406.942 380.658 406.879C380.469 406.771 380.282 406.663 380.1 406.542C379.474 406.123 380.394 406.856 379.861 406.342C379.712 406.199 379.568 406.052 379.427 405.9C379.037 405.482 378.719 404.924 378.751 404.128C378.799 402.915 379.17 401.928 379.844 400.896C382.773 396.414 386.874 392.542 391.285 389.548C392.496 388.726 393.033 387.159 392.259 385.835C391.556 384.633 389.766 384.033 388.548 384.86V384.861Z" fill="#2A9D8F"/>
<path d="M395.89 392.729L389.743 398.96C387.863 400.865 385.808 402.694 384.166 404.813C380.645 409.353 382.258 414.617 385.54 418.739C388.178 422.051 391.484 424.827 395.521 426.226C399.456 427.59 405.745 428.129 408.168 423.923C409.477 421.65 409.187 418.762 407.837 416.574C407.142 415.444 406.152 414.569 405.137 413.737C404.586 413.284 404.021 412.851 403.488 412.378C403.303 412.213 403.12 412.048 402.944 411.875C402.754 411.692 402.572 411.504 402.399 411.305C402.099 410.939 402.129 411.056 402.488 411.656L402.118 413.025C402.678 411.912 404.093 410.9 404.97 410.006C407.42 407.513 403.587 403.67 401.135 406.168C399.564 407.767 396.993 409.554 397.047 412.023C397.097 414.309 399.324 415.975 400.931 417.277C401.836 418.01 404.059 419.425 403.599 420.938C403.252 422.079 401.151 421.739 400.278 421.686C397.047 421.493 394.173 419.89 391.879 417.677C389.652 415.53 385.993 411.684 388.209 408.428C389.634 406.333 391.805 404.596 393.579 402.797L399.727 396.567C402.183 394.078 398.349 390.236 395.892 392.728L395.89 392.729Z" fill="#2A9D8F"/>
<path d="M480.737 427.825C469.381 417.992 458.343 407.791 447.226 397.691C446.118 396.683 444.499 396.643 443.391 397.691C441.832 399.163 440.465 400.882 439.055 402.493C436.299 405.64 433.567 408.809 430.839 411.979C424.96 418.811 419.107 425.666 413.23 432.499C411.678 434.302 410.181 436.194 408.521 437.9C406.084 440.406 409.916 444.249 412.356 441.739C416.567 437.41 420.323 432.545 424.25 427.962C430.166 421.061 436.068 414.148 442.044 407.298C443.73 405.367 445.358 403.293 447.226 401.528H443.391C454.509 411.627 465.546 421.83 476.901 431.663C479.53 433.939 483.383 430.114 480.737 427.824V427.825Z" fill="#2A9D8F"/>
</g>
<defs>
<clipPath id="clip0_1030_3277">
<rect width="518" height="502" fill="white"/>
</clipPath>
</defs>
</svg>
