<svg width="186" height="284" viewBox="0 0 186 284" fill="none" xmlns="http://www.w3.org/2000/svg">
<g clip-path="url(#clip0_956_3949)">
<path d="M133.915 96.5069C133.264 98.6593 132.461 100.776 131.97 101.794C130.57 105.625 122.852 118.95 113.046 124.345C113.046 125.336 113.073 126.238 113.189 127.908C113.278 129.06 113.367 130.302 113.787 131.427C114.358 132.909 115.134 134.187 116.365 135.187C118.988 137.295 121.674 138.304 124.993 139.554L128.348 140.876V140.885C119.604 146.877 105.132 150.253 92.864 150.521C80.81 150.253 66.5701 146.994 57.8084 141.18L61.9483 139.554C65.2674 138.304 67.953 137.295 70.5762 135.187C71.8074 134.187 72.5837 132.909 73.1547 131.427C73.574 130.302 73.6633 129.06 73.7525 127.908C73.8596 126.443 73.8863 125.577 73.8863 124.72C69.3984 122.55 65.3566 119.102 61.5111 114.494C56.4611 108.448 53.5882 101.919 52.0089 96.5337L51.5628 96.6587C49.5285 96.9981 47.4139 96.2211 45.9685 95.0422C42.471 92.1754 41.0167 88.1832 40.1334 85.5665C38.8842 81.878 38.8039 75.921 40.6687 72.688C41.2933 71.5984 42.7387 69.7587 46.1559 69.6336C47.7173 69.5801 49.5464 70.0713 50.9115 71.3752C51.3576 69.4282 52.4461 64.6591 53.142 62.7211C54.2841 59.5327 56.247 56.5319 59.1378 54.7725C62.6532 52.638 67.0697 51.9414 70.9063 50.441C72.4588 49.8337 74.2254 49.1014 75.9295 48.2529L81.1491 49.0478C86.779 50.1016 91.2134 50.0391 97.1467 47.6278C102.91 45.2789 109.165 41.6262 113.153 36.2676C125.395 44.3233 131.801 55.1923 133.005 68.2583L135.084 71.3752C136.449 70.0713 138.278 69.5801 139.84 69.6336C143.257 69.7587 144.702 71.5984 145.327 72.688C147.192 75.921 147.111 81.878 145.862 85.5665C144.979 88.1832 143.525 92.1754 140.027 95.0422C138.582 96.2211 136.467 96.9981 134.433 96.6587L133.915 96.5069Z" fill="white"/>
<path d="M82.259 220.648C80.7743 222.694 80.1961 224.334 77.2928 226.315C75.271 227.695 72.051 227.392 69.5421 228.465C68.9023 228.738 68.0574 229.383 67.8004 229.643C67.5488 229.898 66.2372 231.888 65.2076 233.467C64.4019 234.702 63.0422 235.473 61.5691 235.488C58.8532 235.517 55.8615 235.199 54.0815 234.256C51.5262 232.902 49.442 230.814 47.5165 228.655C46.2228 227.204 44.7747 225.325 43.4819 223.32C41.6751 220.518 41.3816 216.996 42.7154 213.941C45.3395 207.931 46.9856 204.577 50.0165 197.133C50.7616 195.303 51.5235 193.444 52.703 191.859C53.4481 190.86 54.5089 189.74 55.6536 189.199C56.7645 188.675 57.9832 188.471 59.1271 187.983C60.3468 187.461 61.5905 186.988 62.8834 186.682C63.8871 186.443 64.931 186.301 65.8527 185.837C66.6396 185.44 67.2981 184.828 68.0699 184.404C69.6224 183.552 71.5995 183.604 73.1556 184.429C76.8788 182.191 80.7716 180.237 84.7893 178.584C86.0402 178.069 87.3224 177.579 88.6678 177.438C90.0133 177.297 91.4471 177.541 92.516 178.37" fill="white"/>
<path d="M103.454 195.744C106.639 197.402 119.276 204.124 127.595 208.624L128.575 201.403C133.877 203.807 137.081 205.659 141.022 208.821C142.597 210.084 143.928 212.381 144.676 214.258C146.278 218.282 147.81 224.113 147.289 229.489L147.229 230.111C144.828 236.062 140.477 242.484 135.658 246.713C129.898 247.108 124.474 246.727 121.598 246.351C118.278 245.918 115.247 244.365 112.402 242.599C105.752 238.473 99.8849 233.637 94.7162 227.484C94.1827 226.849 93.8633 226.039 93.7161 225.224C93.5688 224.409 93.7268 223.497 94.3049 222.903C94.3049 222.903 94.9705 222.219 95.9761 221.185C95.2676 220.682 94.7671 220.312 94.5547 220.128C93.51 219.221 92.8854 218.595 92.2894 217.345C91.9851 216.707 92.0101 215.839 92.1377 215.123C92.3135 214.134 92.9791 212.296 95.2819 212.53C95.2819 212.53 95.9511 212.597 96.8888 212.693C95.0303 211.464 93.6563 210.543 93.1682 210.191C92.9487 210.032 92.723 209.861 92.4955 209.678C91.2143 208.654 89.8581 207.286 89.1434 205.946C88.302 204.366 88.6241 202.683 89.5083 201.378C90.6575 199.682 92.7774 199.029 95.6656 199.774C95.0731 198.276 95.935 196.874 96.5774 196.088C98.2566 194.034 101.571 194.778 103.004 195.513C103.122 195.573 103.273 195.651 103.455 195.746L103.454 195.744Z" fill="white"/>
<path d="M90.9718 164.154L81.9391 230.676C81.597 233.196 83.3605 235.517 85.878 235.859L118.649 240.318C121.166 240.66 123.485 238.895 123.827 236.375L132.86 169.853C133.202 167.333 131.438 165.012 128.921 164.67L96.1498 160.211C93.6323 159.869 91.314 161.634 90.9718 164.154Z" fill="white"/>
<path d="M131.057 211.751L131.05 210.5C122.965 206.081 105.494 196.787 103.002 195.51C101.569 194.775 98.2548 194.032 96.5756 196.085C95.9359 196.867 95.0793 198.259 95.6557 199.751C95.2792 199.673 95.0553 199.629 95.0553 199.629C92.4749 199.126 90.5727 199.801 89.5065 201.375C88.6223 202.681 88.3002 204.363 89.1416 205.943C89.9829 207.523 91.7165 209.139 93.1664 210.188C93.6544 210.54 95.0276 211.461 96.8861 212.69C95.951 212.595 95.2792 212.528 95.2792 212.528C92.9764 212.294 92.3108 214.132 92.135 215.121C92.0074 215.838 91.9824 216.705 92.2867 217.343C92.8827 218.593 93.5072 219.219 94.552 220.126C94.7644 220.31 95.2631 220.679 95.9689 221.18C94.9714 222.21 94.3004 222.901 94.3004 222.901C93.7267 223.493 93.5625 224.409 93.7116 225.219C93.8606 226.038 94.1835 226.849 94.71 227.487C99.8858 233.639 105.751 238.476 112.403 242.602C115.241 244.362 118.273 245.913 121.599 246.346C123.67 246.621 128.16 246.508 131.223 245.963C131.223 245.963 131.085 218.046 131.054 211.751L131.057 211.751Z" fill="white"/>
<path d="M127.699 51.1911C125.772 47.8687 123.327 44.7795 120.347 41.9422C120.347 41.9422 116.57 39.0137 113.108 36.3282C109.12 41.659 102.892 45.2868 97.144 47.6249C89.6556 50.6704 84.5565 49.9755 76.4203 48.0125C74.5751 48.9601 72.6087 49.7746 70.9036 50.4435C67.0733 51.9457 62.6514 52.6343 59.1351 54.7733C56.2452 56.5309 54.2841 59.5361 53.1429 62.7227C52.4497 64.6581 51.3522 69.4272 50.9079 71.3786C49.549 70.0711 47.7182 69.5808 46.1514 69.6353C45.3993 69.6621 44.7426 69.7719 44.1698 69.9416C42.5183 65.6503 41.1853 58.7359 41.1782 53.6444C41.1514 35.8664 48.6889 23.6685 57.2249 18.426C64.9034 7.72944 78.6027 1.43401 93.0594 2.15563C103.229 2.66291 111.404 5.89949 118.588 10.523C123.495 14.3732 127.5 17.5142 127.5 17.5142C136.194 24.333 143.004 36.3657 143.719 53.3068C143.96 59.0199 143.289 63.6792 141.712 69.9068C141.167 69.7576 140.547 69.6594 139.844 69.6353C138.277 69.5799 136.447 70.0711 135.088 71.3786C135.088 71.3786 134.264 72.1708 133.441 72.9629C133.224 70.6114 133.006 68.2599 133.006 68.2599C132.433 62.052 130.687 56.3415 127.7 51.1919L127.699 51.1911Z" fill="#2E6669"/>
<path d="M182.272 228.346C180.686 211.807 177.908 200.306 174.089 186.027C170.37 172.124 164.398 159.176 152.312 151.196C149.713 149.48 145.984 147.543 142.109 145.713C137.502 143.537 132.688 141.514 129.318 140.193C120.708 146.621 105.602 150.239 92.864 150.526C80.7368 150.25 66.4014 146.955 57.6505 141.078C57.6505 141.078 57.0553 140.678 56.462 140.277C56.4424 140.285 56.421 140.293 56.421 140.293C50.1584 142.762 39.2938 147.494 33.6861 151.195C21.6 159.175 15.6283 172.123 11.9095 186.026C8.08989 200.305 5.3115 211.806 3.72601 228.345C2.51347 240.991 0.197249 255.476 5.34273 267.56C9.80743 278.046 18.2613 282.001 27.3593 281.791C27.983 281.792 28.314 281.795 28.314 281.795C33.3087 281.826 141.673 281.695 156.765 281.689C166.564 282.514 175.888 278.765 180.659 267.56C185.804 255.477 183.488 240.992 182.276 228.346H182.272ZM147.289 229.49C147.289 229.49 147.268 229.711 147.228 230.111C144.827 236.062 140.476 242.484 135.657 246.713C129.897 247.109 124.473 246.727 121.597 246.351C119.443 246.07 117.411 245.313 115.471 244.336C114.423 243.809 113.401 243.221 112.405 242.603C110.416 241.369 108.507 240.062 106.656 238.686L85.8779 235.859C83.36 235.516 81.597 233.196 81.9387 230.676L84.6243 210.897L82.2581 220.648C80.7734 222.694 80.1953 224.335 77.292 226.315C75.2702 227.695 72.0501 227.393 69.5412 228.465C68.9015 228.738 68.0565 229.383 67.7995 229.643C67.5479 229.898 66.2364 231.888 65.2067 233.467C64.4011 234.703 63.0413 235.473 61.5682 235.488C58.8523 235.517 55.8607 235.199 54.0807 234.256C51.5253 232.902 49.4411 230.814 47.5156 228.655C46.2219 227.204 44.7738 225.325 43.481 223.32C41.6742 220.518 41.3807 216.996 42.7146 213.941C45.3386 207.931 46.9848 204.578 50.0157 197.133C50.7607 195.303 51.5226 193.444 52.7022 191.859C53.4472 190.86 54.508 189.74 55.6528 189.199C56.7636 188.675 57.9824 188.471 59.1262 187.983C60.3459 187.461 61.5896 186.988 62.8825 186.682C63.8862 186.443 64.9301 186.301 65.8518 185.837C66.6388 185.44 67.2972 184.828 68.069 184.404C69.6215 183.552 71.5986 183.604 73.1547 184.429C76.878 182.191 80.7708 180.237 84.7885 178.584C86.0394 178.07 87.3215 177.579 88.667 177.438C88.8338 177.42 89.0016 177.41 89.1702 177.404L90.9689 164.155C91.3115 161.635 93.6295 159.87 96.1474 160.212L128.919 164.67C131.436 165.012 133.2 167.334 132.857 169.853L128.573 201.405C133.874 203.809 137.078 205.661 141.019 208.822C142.594 210.086 143.925 212.383 144.673 214.26C146.275 218.284 147.807 224.114 147.286 229.491L147.289 229.49Z" fill="#2E6669"/>
<path d="M52.4229 69.8613C49.6507 67.3508 45.6589 66.8247 42.2729 68.3868C39.7898 69.5326 38.3239 71.9493 37.6645 74.5206C36.0889 80.6624 37.6779 87.7902 41.2495 92.9755C43.812 96.6961 47.4407 99.3665 52.1311 98.7252C53.2785 98.568 53.904 97.098 53.6265 96.0888C53.2866 94.851 52.1427 94.4348 50.9926 94.592C47.6646 95.0466 45.0914 91.3786 43.7718 88.8494C42.5076 86.4255 41.6028 83.7114 41.4181 80.9758C41.3129 79.4129 41.3325 77.8054 41.6537 76.2674C41.7964 75.5833 41.9713 74.8814 42.2631 74.2464C42.3585 74.0392 42.471 73.8373 42.5887 73.6426C42.6378 73.5614 43.0384 73.0068 42.7324 73.3917C44.1448 71.6135 47.3943 71.0812 49.3947 72.8924C51.4343 74.7394 54.4723 71.7171 52.4229 69.8613Z" fill="#2E6669"/>
<path d="M136.601 72.893C138.6 71.0818 141.85 71.6132 143.263 73.3922C142.966 73.018 143.317 73.4923 143.367 73.5789C143.493 73.7995 143.626 74.0156 143.733 74.2469C144.024 74.8819 144.199 75.583 144.342 76.268C144.663 77.8068 144.683 79.4135 144.578 80.9764C144.393 83.7128 143.488 86.4261 142.224 88.8499C140.903 91.381 138.332 95.048 135.003 94.5925C133.858 94.4363 132.704 94.8685 132.369 96.0894C132.094 97.0896 132.712 98.5686 133.865 98.7258C141.55 99.7761 146.025 92.2169 148.014 85.8724C149.026 82.6465 149.139 79.0732 148.588 75.7545C148.136 73.0305 146.949 70.4575 144.613 68.8803C141.252 66.611 136.501 67.2102 133.573 69.8618C131.524 71.7168 134.56 74.7408 136.601 72.893Z" fill="#2E6669"/>
<path d="M132.627 92.9061C132.258 94.7039 131.722 96.465 131.114 98.1959C130.649 99.5167 130.26 100.337 129.772 101.58C129.812 101.478 129.937 101.222 129.74 101.648C129.659 101.823 129.58 101.998 129.497 102.172C129.293 102.601 129.079 103.026 128.857 103.446C128.342 104.426 127.792 105.386 127.218 106.332C124.179 111.337 120.471 116.069 115.931 119.796C113.435 121.844 110.615 123.479 107.486 124.203C104.801 124.824 105.938 128.958 108.624 128.337C115.024 126.857 120.349 122.175 124.525 117.311C127.998 113.265 131.253 108.703 133.438 103.811C133.575 103.504 133.707 103.195 133.834 102.883C133.89 102.746 134.146 102.15 133.901 102.712C134.26 101.887 134.61 101.061 134.924 100.218C135.675 98.2084 136.326 96.148 136.758 94.0456C136.99 92.9123 136.43 91.7298 135.263 91.4092C134.204 91.1181 132.863 91.7674 132.629 92.9061H132.627Z" fill="#2E6669"/>
<path d="M49.118 93.8959C50.5295 100.131 53.0635 106.174 56.6154 111.492C60.4252 117.197 65.4235 122.545 71.4764 125.889C74.5581 127.591 77.9138 128.749 81.3944 129.264C82.5373 129.433 83.6954 128.979 84.0282 127.767C84.3057 126.757 83.6838 125.301 82.5329 125.131C70.0907 123.291 60.808 112.537 56.0471 101.488C54.8372 98.6802 53.9227 95.7374 53.2473 92.7563C52.6388 90.0671 48.5095 91.205 49.118 93.8959Z" fill="#2E6669"/>
<path d="M85.1855 106.957C87.7596 108.318 90.5326 108.889 93.4431 108.87C96.4097 108.85 99.3996 108.264 101.776 106.411C102.688 105.699 102.522 104.127 101.776 103.379C100.874 102.477 99.6628 102.666 98.7474 103.379C99.396 102.873 98.891 103.261 98.7242 103.368C98.5582 103.474 98.3878 103.572 98.2129 103.664C98.1228 103.712 98.03 103.754 97.939 103.801C97.5982 103.977 98.0211 103.796 98.0238 103.773C98.0148 103.842 97.3956 104.005 97.3189 104.03C96.6765 104.236 96.0145 104.381 95.3471 104.48C95.6629 104.433 95.2846 104.483 95.1579 104.496C94.9643 104.515 94.7707 104.531 94.5771 104.544C94.1105 104.574 93.6429 104.586 93.1754 104.583C92.7569 104.581 92.3385 104.566 91.9209 104.538C91.7291 104.524 91.5373 104.509 91.3463 104.49C91.3258 104.489 90.6343 104.391 91.068 104.46C90.4461 104.361 89.8295 104.231 89.2264 104.051C88.9685 103.974 88.7169 103.881 88.4627 103.794C87.9148 103.606 88.7758 103.956 88.2815 103.723C87.9657 103.574 87.6543 103.419 87.3456 103.255C86.3231 102.715 85.0169 102.995 84.4155 104.024C83.8498 104.992 84.1577 106.414 85.1837 106.957H85.1855Z" fill="#2E6669"/>
<path d="M91.614 87.4824C91.9744 88.8569 92.3197 90.2528 92.5258 91.6603L92.4491 91.0905C92.4732 91.2834 92.4839 91.4737 92.4652 91.6675L92.5419 91.0977C92.5285 91.187 92.5089 91.2709 92.4786 91.3567L92.6945 90.8449C92.6677 90.9057 92.64 90.9566 92.6035 91.0119L92.938 90.5779C92.8952 90.6297 92.8542 90.6699 92.8015 90.7128L93.2352 90.3778C93.1299 90.4457 93.0183 90.5002 92.905 90.5529L93.4163 90.3368C93.2343 90.4127 93.054 90.4681 92.8595 90.4993L93.4288 90.4225C93.253 90.443 93.0817 90.4422 92.9059 90.4216L93.4752 90.4984C93.278 90.4707 93.0844 90.4225 92.8872 90.3966C92.6026 90.3073 92.3179 90.2948 92.0333 90.3582C91.7487 90.3707 91.4828 90.4555 91.2375 90.6127C90.7931 90.8726 90.3693 91.3826 90.2533 91.8934C90.1284 92.4418 90.1552 93.058 90.4693 93.5448C90.7476 93.977 91.2143 94.4575 91.7487 94.5299C92.1975 94.5906 92.6338 94.7049 93.0897 94.7245C93.7901 94.7549 94.4415 94.5406 95.0669 94.2539C95.8396 93.8993 96.4427 93.2045 96.6488 92.3712C96.8228 91.6657 96.7479 91.0495 96.6292 90.343C96.4017 88.9971 96.0912 87.6628 95.745 86.3428C95.4613 85.2586 94.2023 84.4923 93.1111 84.846C91.9959 85.2068 91.3106 86.3205 91.6158 87.4824H91.614Z" fill="#2E6669"/>
<path d="M70.2897 75.6507C69.5928 77.9183 70.047 83.1331 74.3377 83.577C80.0087 83.543 80.3112 77.2378 78.4018 74.2727C76.8386 71.8452 72.2428 70.836 70.2897 75.6507Z" fill="#2E6669"/>
<path d="M115.705 75.6517C116.402 77.9193 115.948 83.1341 111.657 83.5779C105.986 83.544 105.683 77.2387 107.593 74.2737C109.156 71.8462 113.752 70.837 115.705 75.6517Z" fill="#2E6669"/>
<path d="M56.1398 16.5765C43.4452 24.4616 38.3087 41.2277 39.0912 55.4726C39.3561 60.2926 40.2466 65.2073 41.833 69.771C42.2131 70.8642 43.2989 71.5894 44.4668 71.2679C45.5268 70.9758 46.3441 69.7299 45.9622 68.6314C43.3346 61.0705 42.6788 52.8611 43.9565 44.9662C45.0343 38.3073 47.4263 31.6028 51.6501 26.3148C53.5943 23.8802 55.7945 21.835 58.3008 20.2783C60.6385 18.8262 58.49 15.1162 56.1389 16.5765H56.1398Z" fill="#2E6669"/>
<path d="M122.034 10.2663C114.808 5.19974 106.669 1.66755 97.8961 0.472585C88.6223 -0.790253 79.2173 0.451151 70.7492 4.51831C66.3719 6.62066 62.3542 9.50714 58.9727 12.9938C57.0517 14.9738 60.0764 18.0085 62.0009 16.025C73.9335 3.72435 92.6989 1.48625 108.253 7.55216C112.384 9.1633 116.249 11.4273 119.873 13.9682C120.82 14.6326 122.252 14.1405 122.803 13.1992C123.427 12.1293 122.984 10.9325 122.034 10.2663Z" fill="#2E6669"/>
<path d="M143.952 69.7711C145.023 65.3959 145.813 60.9429 145.9 56.4283C145.982 52.1236 145.545 47.7742 144.733 43.549C143.368 36.4506 140.628 29.4756 136.315 23.6427C134.205 20.7902 131.8 18.1975 129.014 15.9961C128.108 15.2798 126.871 15.1101 125.986 15.9961C125.242 16.7409 125.073 18.3056 125.986 19.0272C136.734 27.5215 141.399 41.3323 141.618 54.6921C141.696 59.4345 140.946 64.0357 139.822 68.6307C139.166 71.3099 143.295 72.454 143.952 69.7711Z" fill="#2E6669"/>
<path d="M118.833 43.4576C125.741 50.088 129.946 58.7126 130.864 68.2589C130.975 69.411 131.769 70.4023 133.005 70.4023C134.078 70.4023 135.258 69.4181 135.147 68.2589C134.12 57.5748 129.626 47.8793 121.861 40.4265C119.872 38.517 116.839 41.5437 118.833 43.4576Z" fill="#2E6669"/>
<path d="M112.19 33.9056C109.035 38.7355 104.077 42.0614 98.9489 44.5031C96.2339 45.7954 93.377 46.8912 90.3916 47.3458C87.5097 47.7843 84.5662 47.5048 81.7165 46.9823C80.5798 46.7742 79.4074 47.294 79.0826 48.4792C78.7971 49.5205 79.435 50.9066 80.578 51.1156C84.0487 51.7515 87.4945 52.0542 91.001 51.5577C94.4378 51.0709 97.6766 49.8134 100.806 48.3488C106.735 45.573 112.266 41.613 115.889 36.0696C117.402 33.7538 113.695 31.6032 112.19 33.9056Z" fill="#2E6669"/>
<path d="M88.4876 34.4632C86.3846 37.3336 83.9105 39.8245 81.1901 42.109C79.692 43.3674 78.2011 44.5757 76.4934 45.5403C74.8142 46.4887 73.0512 47.2854 71.264 48.007C67.4587 49.5431 63.383 50.3174 59.6597 52.0661C55.9365 53.8148 53.2758 56.9272 51.6752 60.6595C50.2931 63.8818 49.6204 67.4033 48.8432 70.8086C48.2303 73.4942 52.3586 74.6409 52.9734 71.9482C53.6256 69.0885 54.2091 66.1574 55.1772 63.3843C56.404 59.8664 58.7327 57.1175 62.1553 55.6153C65.7215 54.0497 69.6036 53.3102 73.2073 51.8116C75.1176 51.0176 77.0162 50.1826 78.8132 49.1528C80.561 48.1517 82.1091 46.8888 83.6571 45.6081C86.886 42.936 89.7055 40.0111 92.1859 36.6263C92.8702 35.6921 92.3429 34.2355 91.4177 33.6934C90.3318 33.0575 89.1737 33.5272 88.4876 34.4632Z" fill="#2E6669"/>
<path d="M77.8398 100.454C76.7209 102.36 75.8367 104.423 75.2193 106.545C74.9061 107.621 75.5985 108.927 76.7147 109.181C77.8603 109.442 79.0131 108.836 79.3485 107.684C79.6135 106.774 79.9294 105.88 80.2952 105.006L80.0793 105.518C80.5022 104.52 80.9885 103.552 81.5363 102.618C82.1037 101.651 81.7888 100.225 80.7681 99.6849C79.7393 99.141 78.4447 99.4214 77.838 100.454H77.8398Z" fill="#2E6669"/>
<path d="M105.098 102.491C105.627 103.286 106.133 104.098 106.612 104.926C107.08 105.734 107.556 106.555 107.93 107.412L107.714 106.9C107.75 106.986 107.785 107.071 107.818 107.159C108.02 107.694 108.292 108.141 108.802 108.44C109.26 108.708 109.938 108.823 110.452 108.656C110.97 108.488 111.47 108.166 111.731 107.671C111.985 107.188 112.149 106.551 111.947 106.019C111.539 104.942 110.98 103.931 110.409 102.935C109.901 102.048 109.362 101.179 108.796 100.328C108.487 99.8623 108.067 99.4943 107.517 99.3425C107.005 99.2014 106.322 99.2648 105.867 99.5586C105.41 99.8533 105.007 100.293 104.883 100.839C104.759 101.386 104.779 102.011 105.098 102.491Z" fill="#2E6669"/>
<path d="M57.9743 143.411C59.9792 142.622 61.984 141.838 63.9942 141.064C66.1828 140.221 68.3777 139.32 70.3353 138.01C72.4766 136.578 74.0255 134.878 75.0195 132.487C76.0045 130.117 76.0196 127.268 76.0259 124.724C76.0321 121.965 71.7494 121.961 71.7432 124.724C71.7378 127.065 71.7601 129.756 70.6556 131.76C69.526 133.81 67.1447 135.077 64.9658 136.065C62.3971 137.231 59.5295 138.218 56.8359 139.277C55.7598 139.7 55.0104 140.713 55.3405 141.913C55.6224 142.939 56.8921 143.837 57.9743 143.411Z" fill="#2E6669"/>
<path d="M110.903 124.339C110.908 126.577 110.945 128.955 111.463 131.137C112.043 133.586 113.532 135.707 115.508 137.218C118.553 139.548 122.19 140.745 125.717 142.133C126.799 142.559 127.881 142.984 128.964 143.41C130.04 143.834 131.315 142.946 131.597 141.913C131.931 140.698 131.183 139.702 130.102 139.277C127.325 138.185 124.43 137.206 121.741 135.959C119.531 134.934 117.262 133.657 116.163 131.536C115.113 129.507 115.19 126.685 115.186 124.34C115.18 121.582 110.898 121.577 110.903 124.34V124.339Z" fill="#2E6669"/>
<path d="M56.5673 142.928C64.7945 148.398 74.9748 150.857 84.6564 152.058C89.6725 152.68 94.6002 152.764 99.6271 152.226C104.805 151.671 109.951 150.719 114.947 149.235C120.008 147.733 125.04 145.714 129.427 142.737C131.696 141.198 129.555 137.481 127.266 139.035C119.655 144.201 110.107 146.654 101.08 147.77C96.3097 148.359 91.6166 148.482 86.8316 148.012C82.0466 147.542 77.2652 146.634 72.6274 145.311C67.7478 143.919 62.9726 142.047 58.7291 139.227C56.4263 137.696 54.2796 141.407 56.5673 142.928Z" fill="#2E6669"/>
<path d="M29.514 283.937C34.0385 283.964 38.563 283.942 43.0875 283.939C52.6192 283.934 62.1499 283.925 71.6816 283.916C83.1512 283.905 94.6208 283.893 106.091 283.881C116.431 283.87 126.77 283.859 137.11 283.849C143.252 283.843 149.393 283.835 155.534 283.833C155.85 283.833 156.166 283.833 156.482 283.833C159.239 283.833 159.243 279.546 156.482 279.546C151.071 279.546 145.66 279.554 140.249 279.559C130.262 279.569 120.273 279.58 110.286 279.591C98.7893 279.603 87.2929 279.615 75.7966 279.626C65.8607 279.636 55.924 279.645 45.9881 279.652C40.6803 279.656 35.3724 279.668 30.0654 279.655C29.8816 279.655 29.6987 279.654 29.5149 279.653C26.7588 279.636 26.7553 283.923 29.5149 283.94L29.514 283.937Z" fill="#2E6669"/>
<path d="M129.007 142.36C134.947 144.707 140.834 147.283 146.478 150.278C152.122 153.274 157.08 157.102 160.992 162.204C165.091 167.551 167.956 173.76 170.087 180.124C172.369 186.934 174.051 193.996 175.665 200.99C177.32 208.162 178.643 215.408 179.523 222.717C180.454 230.438 181.372 238.257 181.654 246.032C181.921 253.394 181.447 261.167 178.162 267.895C176.969 270.337 175.445 272.575 173.467 274.447C171.858 275.97 169.679 277.368 167.733 278.129C158.323 281.813 147.417 278.493 139.087 273.128C137.967 272.406 136.881 271.635 135.827 270.821C134.91 270.114 133.428 270.681 132.896 271.59C132.25 272.697 132.746 273.814 133.665 274.523C142.368 281.239 154.21 285.628 165.248 283.335C170.606 282.223 175.438 279.231 178.805 274.915C183.416 269.006 185.293 261.499 185.828 254.135C186.41 246.134 185.401 238.131 184.596 230.184C183.771 222.048 182.744 213.964 181.119 205.946C179.62 198.554 177.781 191.209 175.739 183.949C173.806 177.074 171.249 170.268 167.502 164.163C163.762 158.07 158.802 152.75 152.74 148.926C146.948 145.273 140.529 142.538 134.232 139.894C132.876 139.324 131.513 138.769 130.145 138.229C129.069 137.804 127.794 138.695 127.511 139.726C127.176 140.943 127.927 141.935 129.006 142.362L129.007 142.36Z" fill="#2E6669"/>
<path d="M55.85 138.227C49.4705 140.748 43.1268 143.489 37.0748 146.728C30.9238 150.019 25.6481 154.349 21.4073 159.909C17.0969 165.561 14.0955 172.111 11.8337 178.821C9.44699 185.903 7.7009 193.263 6.04136 200.544C4.29705 208.198 2.97299 215.933 2.06916 223.731C1.13232 231.818 0.112505 240.016 0.00543778 248.164C-0.169439 261.444 3.47977 276.922 17.1246 282.262C27.5619 286.347 39.9121 282.69 48.9584 276.901C50.1183 276.159 51.2416 275.363 52.3319 274.522C53.2464 273.816 53.7372 272.678 53.1001 271.589C52.5737 270.688 51.0917 270.109 50.17 270.82C45.981 274.052 41.2897 276.592 36.2584 278.128C31.5457 279.568 26.4502 280.174 21.7669 279.175C17.0104 278.16 12.8615 275.611 9.97965 271.536C5.94678 265.835 4.57275 258.693 4.3265 251.832C4.05169 244.155 5.06526 236.517 5.81116 228.894C6.55706 221.273 7.63309 213.708 9.18646 206.208C10.6676 199.058 12.4467 191.946 14.4328 184.92C16.2663 178.437 18.6566 172.085 22.1907 166.326C25.5936 160.782 30.1029 155.93 35.6437 152.485C41.1121 149.084 47.1186 146.453 53.0448 143.967C54.3537 143.418 55.6679 142.883 56.9884 142.361C58.0636 141.936 58.8139 140.926 58.4838 139.725C58.2028 138.7 56.9313 137.8 55.85 138.228V138.227Z" fill="#2E6669"/>
<path d="M75.3416 185.622C77.6408 184.291 79.9972 183.062 82.4089 181.946C83.5063 181.438 84.6136 180.948 85.7342 180.496C86.8388 180.049 88.0647 179.586 89.1702 179.556C90.3265 179.525 91.3115 178.593 91.3115 177.413C91.3115 176.275 90.3319 175.238 89.1702 175.269C86.2178 175.349 83.3904 176.813 80.7556 178.011C78.1672 179.189 75.6413 180.497 73.1797 181.921C70.7948 183.302 72.9486 187.006 75.3416 185.622Z" fill="#2E6669"/>
<path d="M75.9616 183.885C74.5688 182.509 72.7531 181.733 70.7974 181.647C68.5811 181.55 67.0518 182.589 65.2638 183.701C64.4751 184.191 63.5882 184.324 62.6942 184.526C61.5932 184.775 60.5287 185.118 59.4795 185.534C57.4809 186.326 55.178 186.756 53.4444 188.071C49.8675 190.783 48.5167 195.241 46.858 199.218C45.5723 202.3 44.2081 205.347 42.8439 208.395C41.2325 211.994 39.3241 215.469 39.8772 219.544C40.4509 223.774 43.4845 227.377 46.2549 230.45C48.8548 233.333 51.9491 236.275 55.8633 237.114C57.7869 237.527 59.9381 237.773 61.9072 237.613C64.0664 237.437 65.8402 236.32 67.0572 234.547C67.63 233.713 68.1644 232.851 68.7301 232.011C68.9549 231.677 69.1691 231.319 69.4251 231.007C69.1084 231.395 69.4341 231.035 69.6054 230.901C71.0561 229.767 73.2715 229.765 75.0158 229.418C77.2509 228.973 79.096 227.875 80.7163 226.28C82.0769 224.94 83.0066 223.27 84.1076 221.728C84.7804 220.786 84.2727 219.342 83.3394 218.795C82.2634 218.166 81.0839 218.619 80.4094 219.564C78.8051 221.81 77.4347 224.431 74.534 225.14C71.6334 225.849 68.3063 225.841 66.1551 228.283C65.1862 229.383 64.4358 230.735 63.6373 231.957C62.72 233.36 61.652 233.384 60.0692 233.322C58.5373 233.262 56.8751 233.138 55.443 232.539C53.9753 231.925 52.6673 230.808 51.5208 229.729C48.9887 227.347 46.3271 224.423 44.7854 221.277C43.265 218.175 44.4267 215.31 45.7204 212.4C46.8991 209.748 48.1 207.106 49.2528 204.443C50.6866 201.133 51.8268 197.579 53.5943 194.431C54.5285 192.768 55.7018 191.355 57.5594 190.762C59.599 190.111 61.553 189.184 63.6435 188.701C64.7195 188.453 65.7527 188.239 66.76 187.764C67.6639 187.338 68.383 186.583 69.2931 186.179C70.5351 185.629 71.9876 185.979 72.9334 186.914C74.8963 188.854 77.9272 185.825 75.9616 183.883V183.885Z" fill="#2E6669"/>
<path d="M78.3153 196.527C79.4778 198.65 80.4254 200.869 81.0508 203.211C81.3408 204.294 81.6567 205.47 81.6593 206.6C81.6593 206.265 81.6593 206.585 81.6308 206.755C81.5969 206.954 81.5621 207.154 81.5246 207.353C81.4309 207.851 81.3239 208.345 81.2079 208.838C80.9812 209.798 80.7207 210.753 80.404 211.687C80.1836 212.338 80.0123 213.07 79.5207 213.542C78.7007 214.33 76.3229 214.431 75.8982 213.231C75.5128 212.14 74.4368 211.411 73.2644 211.734C72.2089 212.024 71.3809 213.274 71.769 214.37C72.8887 217.535 76.4728 219 79.6161 218.192C82.7184 217.393 83.9488 214.818 84.8 211.992C85.1703 210.763 85.4736 209.509 85.7002 208.245C85.9831 206.672 85.8591 205.268 85.5548 203.693C84.9231 200.428 83.6053 197.271 82.0127 194.363C80.6868 191.944 76.9885 194.104 78.3153 196.527Z" fill="#2E6669"/>
<path d="M69.4858 199.568C70.0399 200.731 70.7019 201.833 71.3095 202.968C71.5522 203.422 71.827 203.963 71.9475 204.281C72.0465 204.546 72.1313 204.814 72.2009 205.088C72.2241 205.178 72.3258 205.826 72.3044 205.581C72.4061 206.757 72.1366 208.005 71.9421 209.163C71.852 209.699 71.7601 210.236 71.6459 210.767C71.5906 211.023 71.5272 211.277 71.446 211.527C71.4023 211.664 71.3541 211.798 71.3015 211.932C71.3675 211.771 71.3693 211.757 71.306 211.891C71.1989 212.097 71.0847 212.294 70.9571 212.487C71.1891 212.134 70.8929 212.555 70.8179 212.63C70.7331 212.716 70.6448 212.796 70.552 212.873C70.751 212.718 70.7519 212.709 70.552 212.842C70.1059 213.089 70.9241 212.795 70.4244 212.912C70.3111 212.948 70.196 212.977 70.0791 213.001C70.3486 212.971 70.3557 212.965 70.0997 212.984C70.0024 212.976 69.4519 212.923 69.882 212.997C69.3573 212.908 69.0897 212.801 68.7586 212.609C68.5927 212.514 68.3447 212.283 68.6123 212.536C68.4821 212.413 68.1742 211.924 68.4107 212.359C68.3339 212.217 68.2465 212.083 68.1787 211.936C68.4142 212.442 68.1707 211.757 68.1386 211.643C67.9949 211.136 68.1332 212.036 68.1127 211.475C68.1029 211.199 68.0841 210.926 68.0859 210.65C68.0895 210.093 68.1314 209.537 68.1796 208.982C68.2795 207.827 67.1241 206.838 66.0382 206.838C64.7972 206.838 63.9968 207.823 63.8969 208.982C63.7122 211.117 63.7292 213.344 65.1407 215.088C66.5254 216.8 69.0995 217.572 71.2194 217.135C73.4419 216.675 74.9106 214.721 75.5771 212.667C75.9206 211.607 76.0597 210.458 76.223 209.359C76.4175 208.051 76.7013 206.669 76.5656 205.342C76.2623 202.391 74.4261 200.01 73.1859 197.405C72.6889 196.36 71.1944 196.087 70.2558 196.636C69.1878 197.262 68.9888 198.52 69.4876 199.569L69.4858 199.568Z" fill="#2E6669"/>
<path d="M107.209 236.612C101.12 235.784 95.0311 234.956 88.9417 234.129C88.1182 234.018 87.2875 233.927 86.4676 233.793C85.5816 233.649 84.8196 233.326 84.3601 232.512C84.0719 232.002 84.0666 231.556 84.0523 230.991C84.0523 230.981 83.9997 231.367 84.0148 231.2C84.1165 230.077 84.32 228.953 84.4716 227.836L86.9645 209.471C88.0459 201.502 89.1273 193.533 90.2096 185.564C91.0161 179.618 91.8236 173.672 92.6302 167.726C92.7658 166.727 92.8737 165.721 93.037 164.727C93.1825 163.844 93.5054 163.09 94.3147 162.631C94.8233 162.342 95.2694 162.336 95.8342 162.323C95.7699 162.325 95.4505 162.269 95.6727 162.291C96.3463 162.358 97.0181 162.475 97.6882 162.566C104.834 163.537 111.98 164.509 119.126 165.481L127.415 166.608C128.13 166.705 128.938 166.743 129.563 167.117C130.006 167.382 130.379 167.791 130.578 168.273C130.655 168.46 130.718 168.685 130.747 168.885C130.767 169.024 130.752 169.874 130.797 169.28C130.786 169.427 130.756 169.575 130.737 169.721C129.885 176.185 128.983 182.644 128.106 189.105C127.437 194.034 126.769 198.963 126.099 203.892C125.91 205.28 125.721 206.668 125.533 208.055C125.378 209.201 125.809 210.357 127.028 210.692C128.027 210.966 129.506 210.35 129.662 209.195C130.304 204.465 130.947 199.735 131.588 195.006C132.598 187.562 133.609 180.118 134.619 172.673C134.718 171.945 134.817 171.218 134.916 170.49C135.291 167.709 134.278 165.032 131.849 163.495C130.02 162.339 127.445 162.323 125.359 162.04C117.729 161.002 110.099 159.964 102.47 158.927C100.556 158.667 98.642 158.406 96.7282 158.147C92.7444 157.607 89.3691 160.174 88.8293 164.146L86.8824 178.491C85.7841 186.586 84.6849 194.681 83.5865 202.776C82.6292 209.829 81.6718 216.882 80.7154 223.934L79.9775 229.373C79.9311 229.712 79.8829 230.052 79.8392 230.392C79.4091 233.765 81.5969 237.155 84.9972 237.871C87.4597 238.389 90.04 238.566 92.5311 238.905L103.938 240.455L106.069 240.745C107.214 240.9 108.368 240.469 108.703 239.248C108.977 238.248 108.361 236.768 107.207 236.611L107.209 236.612Z" fill="#2E6669"/>
<path d="M132.132 208.649C123.06 203.693 113.945 198.805 104.781 194.02C102.622 192.893 100.132 192.16 97.7106 192.896C94.6065 193.839 92.6677 197.428 93.8446 200.521C94.7207 202.824 97.003 204.127 98.949 205.452C101.076 206.901 103.228 208.315 105.384 209.721C110.309 212.933 115.248 216.14 120.288 219.171C122.657 220.595 124.813 216.89 122.45 215.469C118.42 213.045 114.463 210.494 110.512 207.944C106.7 205.482 102.852 203.044 99.164 200.396C98.5555 199.959 97.8988 199.418 97.7811 198.797C97.7195 198.47 97.7579 198.513 97.8132 198.294C97.8863 198.002 97.9506 197.892 97.9559 197.881C98.013 197.774 98.3717 197.25 98.0907 197.598C98.2834 197.359 98.4672 197.19 98.7358 197.062C99.5664 196.669 100.672 196.942 101.576 197.219C101.969 197.34 101.727 197.255 102.112 197.455C102.349 197.579 102.587 197.702 102.826 197.827C106.639 199.823 110.435 201.853 114.232 203.879C119.487 206.684 124.742 209.492 129.97 212.348C132.391 213.67 134.554 209.97 132.132 208.646V208.649Z" fill="#2E6669"/>
<path d="M95.6245 197.563C93.2405 197.144 90.8288 197.288 88.8944 198.893C86.9404 200.513 86.0571 203.341 86.77 205.779C87.7381 209.092 90.9769 211.317 93.7124 213.149C98.8035 216.56 103.949 219.89 109.093 223.222C111.251 224.619 113.405 226.028 115.585 227.39C117.93 228.855 120.083 225.147 117.747 223.688C113.658 221.134 109.632 218.474 105.594 215.84C101.83 213.385 97.9594 211.026 94.3192 208.387C93.0076 207.435 90.5156 205.535 90.8207 203.664C91.1223 201.813 92.8452 201.407 94.4878 201.695C95.6254 201.896 96.7951 201.389 97.1216 200.199C97.4054 199.164 96.771 197.763 95.6263 197.562L95.6245 197.563Z" fill="#2E6669"/>
<path d="M95.281 210.385C91.9342 210.172 89.7652 213.104 89.9125 216.261C90.0427 219.052 92.1609 221.05 94.2763 222.591C97.9612 225.276 101.792 227.77 105.576 230.313C107.609 231.678 109.645 233.04 111.677 234.407C112.637 235.054 114.049 234.593 114.607 233.638C115.222 232.585 114.8 231.354 113.838 230.706C110.443 228.419 107.039 226.147 103.648 223.855C101.923 222.687 100.198 221.518 98.485 220.331C97.8667 219.903 97.2492 219.473 96.6398 219.034C96.4436 218.893 96.2517 218.745 96.0554 218.605C95.786 218.413 96.2258 218.751 96.2294 218.741C96.2294 218.738 95.9225 218.48 95.943 218.499C95.0597 217.712 94.0042 216.844 94.2299 215.55C94.2674 215.336 94.3343 215.119 94.412 214.917C94.2103 215.439 94.6627 214.466 94.4262 214.88C94.4459 214.846 94.6698 214.681 94.5038 214.768C94.2701 214.891 94.7751 214.616 94.5734 214.705C94.6716 214.662 94.9089 214.646 95.2828 214.67C96.4382 214.743 97.4241 213.632 97.4241 212.527C97.4241 211.305 96.4418 210.456 95.2828 210.383L95.281 210.385Z" fill="#2E6669"/>
<path d="M127.499 203.252C133.14 205.823 139.087 208.873 142.262 214.468C144.089 217.686 144.924 221.607 145.138 225.274C145.353 228.966 144.741 232.597 142.864 235.814C137.184 245.549 123.539 246.426 114.415 241.298C110.577 239.142 106.959 236.431 103.648 233.538C101.885 231.999 100.2 230.37 98.6028 228.658C97.8622 227.864 97.0735 227.067 96.4168 226.201C96.2187 225.94 95.5041 224.795 95.8155 224.414C96.548 223.519 96.6898 222.258 95.8155 221.382C95.0597 220.626 93.5242 220.483 92.7872 221.382C89.2228 225.735 94.1033 230.258 97.0744 233.247C100.377 236.569 104.031 239.538 107.881 242.2C110.967 244.333 114.133 246.226 117.731 247.354C120.818 248.323 124.127 248.779 127.361 248.66C133.837 248.423 140.43 245.884 144.602 240.761C150.241 233.837 150.506 224.371 147.682 216.166C144.778 207.728 137.393 203.074 129.662 199.551C128.61 199.071 127.357 199.25 126.732 200.32C126.194 201.24 126.443 202.77 127.5 203.252L127.499 203.252Z" fill="#2E6669"/>
<path d="M105.484 168.589C103.655 168.34 101.825 168.088 99.9956 167.84C99.711 167.75 99.4263 167.738 99.1417 167.801C98.8571 167.814 98.5912 167.899 98.3459 168.056C97.9015 168.316 97.4777 168.826 97.3617 169.337C97.2368 169.885 97.2636 170.501 97.5776 170.988C97.856 171.421 98.3218 171.9 98.8571 171.973C100.686 172.222 102.516 172.474 104.345 172.722C104.63 172.812 104.914 172.824 105.199 172.761C105.484 172.748 105.75 172.663 105.995 172.506C106.439 172.246 106.863 171.736 106.979 171.226C107.104 170.677 107.077 170.061 106.763 169.574C106.485 169.141 106.019 168.662 105.484 168.589Z" fill="#2E6669"/>
</g>
<defs>
<clipPath id="clip0_956_3949">
<rect width="186" height="284" fill="white"/>
</clipPath>
</defs>
</svg>
