<svg width="381" height="284" viewBox="0 0 381 284" fill="none" xmlns="http://www.w3.org/2000/svg">
<g clip-path="url(#clip0_956_3992)">
<path d="M152.031 79.6018C152.609 79.0682 153.287 78.6544 154.026 78.384C154.764 78.1137 155.549 77.9923 156.335 78.0268C157.335 77.9945 158.324 78.2336 159.198 78.7189C160.072 79.2041 160.798 79.9172 161.299 80.7823C162.985 83.7051 162.914 89.0913 161.782 92.4235C160.98 94.7836 159.667 98.3939 156.501 100.982C155.804 101.561 154.995 101.99 154.124 102.241C153.253 102.493 152.339 102.561 151.441 102.441L150.955 102.36C150.479 103.97 149.897 105.548 149.214 107.082C147.937 110.546 140.923 122.629 132.019 127.47V131.377C131.275 131.975 116.203 143.856 115.06 144.665H112.403C111.26 143.856 96.1837 131.975 95.4437 131.377V127.172C91.6059 124.945 88.2179 122.022 85.4536 118.553C81.5135 113.796 78.5895 108.283 76.8617 102.354C75.9048 102.556 74.9144 102.537 73.9657 102.3C73.017 102.062 72.1349 101.612 71.3863 100.983C68.2214 98.3939 66.907 94.7836 66.1055 92.4244C64.9736 89.0922 64.9019 83.7061 66.5886 80.7832C67.0892 79.9182 67.8151 79.205 68.6892 78.7198C69.5633 78.2346 70.5527 77.9954 71.552 78.0278C72.338 77.9933 73.1231 78.1147 73.8618 78.385C74.6006 78.6553 75.2785 79.0692 75.8564 79.6027C75.8564 79.6027 71.3649 43.8408 112.812 43.8408C161.925 43.8399 152.031 79.6018 152.031 79.6018Z" fill="white"/>
<path d="M112.886 218.417C107.649 205.5 106.301 201.236 102.206 188.671C97.1331 173.1 92.3894 156.105 88.6045 139.926C88.462 139.118 88.5002 138.289 88.7163 137.498C88.9325 136.706 89.3212 135.973 89.8546 135.35C91.5572 133.379 93.7028 130.528 95.4398 128.583C96.1845 129.181 111.256 141.061 112.399 141.871H115.056C116.199 141.061 131.275 129.181 132.015 128.583C133.755 130.528 135.901 133.379 137.601 135.35C138.135 135.973 138.523 136.706 138.74 137.497C138.956 138.289 138.994 139.118 138.851 139.926C135.067 156.103 130.323 173.099 125.249 188.671C121.153 201.236 119.807 205.5 114.569 218.417H112.886Z" fill="white"/>
<path d="M188.397 164.757C180.108 152.17 163.95 146.866 145.525 139.64C143.469 138.049 141.466 136.652 139.847 135.615C135.917 153.057 130.782 171.709 125.256 188.667C121.16 201.232 119.814 205.496 114.576 218.413H112.886C107.649 205.496 106.301 201.232 102.206 188.667C96.6808 171.708 91.5461 153.057 87.6151 135.615C85.8464 136.747 83.6207 138.313 81.3661 140.086C63.4162 147.088 47.7535 152.43 39.6335 164.757C39.6335 164.757 32.3663 167.099 25.5914 168.856L19.3434 173.612C18.3288 185.022 16.6616 196.52 15.9923 208C14.9469 225.848 21.5896 245.927 42.1236 247.751H58.1345V258.832H182.933C187.689 258.882 192.394 257.845 196.689 255.803C199.985 254.115 202.465 251.244 204.63 248.246C207.75 243.919 208.291 236.395 207.501 231.12C204.477 210.913 198.442 193.34 192.469 173.799C191.567 170.732 190.213 167.817 188.451 165.148" fill="white"/>
<path d="M341.488 27.808C330.728 12.4215 312.82 2.23242 290.896 2.23242C254.457 2.23242 229.254 30.4601 229.254 63.4684V64.0722C229.508 98.0005 251.566 122.084 283.221 125.44C285.772 130.53 287.862 134.432 290.905 139.755C293.791 134.468 296.136 130.388 298.577 125.469C317.62 123.567 332.693 114.554 341.981 100.671C348.818 90.5603 352.557 77.866 352.557 63.4684C352.617 50.7279 348.753 38.2776 341.488 27.808Z" fill="white"/>
<path d="M268.52 41.7164C266.721 44.0352 265.752 46.889 265.766 49.8227C265.77 50.4447 265.81 51.0659 265.886 51.6832C262.437 51.7609 259.158 53.1973 256.764 55.6796C254.37 58.162 253.054 61.4891 253.103 64.9366C253.103 72.9368 258.679 78.4504 266.459 78.4504H312.425C322.776 78.4504 329.534 71.3246 329.534 61.1383C329.59 57.3619 328.364 53.6779 326.056 50.6875C323.747 47.6971 320.493 45.5769 316.823 44.6728C316.696 40.4885 315.17 36.4674 312.487 33.252C309.805 30.0366 306.122 27.8124 302.026 26.9347C297.93 26.057 293.658 26.5765 289.892 28.4101C286.127 30.2438 283.085 33.2858 281.252 37.0503C280.457 36.9099 279.651 36.8377 278.843 36.8344C276.862 36.7989 274.9 37.221 273.109 38.0678C271.319 38.9147 269.748 40.1633 268.52 41.7164Z" fill="white"/>
<path d="M51.1819 136.753C51.4155 136.327 51.6473 135.889 51.8949 135.436C53.1469 133.127 54.3682 130.91 55.6091 130.376C56.6927 130.047 57.8574 130.106 58.9025 130.542C59.3154 130.953 59.6312 131.451 59.8265 132C60.0219 132.549 60.092 133.135 60.0316 133.714C59.6786 136.69 59.071 139.631 58.2155 142.503C57.0296 146.865 56.0922 150.925 54.1095 154.996C52.4944 158.312 49.9969 160.442 47.1484 162.571C47.1252 163.274 47.1047 163.922 47.1047 163.922C46.9874 165.705 46.7573 167.479 46.4158 169.233C39.1383 170.163 27.6738 170.841 22.6592 171.114C22.6527 169.457 22.5522 168.006 22.4833 166.874V166.848C22.2766 165.385 17.4361 155.02 14.3466 149.437C11.7448 143.871 9.06855 139.116 6.31039 133.623C5.46136 132.162 4.76274 130.62 4.22525 129.018C3.82032 127.466 3.72537 126.358 4.64507 125.047C5.10062 124.452 5.76529 124.053 6.50438 123.93C7.24348 123.807 8.00172 123.97 8.62546 124.384C9.79033 125.113 10.7034 126.181 11.2412 127.445C13.4455 131.321 15.8024 134.829 18.1436 138.57C17.8839 137.912 17.7098 137.474 17.7098 137.474L15.1732 131.046C14.3224 128.906 9.8784 118.046 9.16071 116.193C8.56495 114.657 7.95058 112.497 8.63197 110.876C8.9591 110.106 9.568 109.489 10.3345 109.152C11.0536 108.961 11.8075 108.942 12.5351 109.098C14.502 109.531 15.2048 111.207 16.5229 113.293L16.8506 113.812L16.2278 112.15C15.4348 110.162 14.8778 108.088 14.5681 105.971C14.6677 104.327 15.8713 102.292 17.6912 101.962C18.5264 101.858 19.3733 102.017 20.1143 102.416C20.8552 102.815 21.4535 103.434 21.8261 104.189C23.4532 106.996 29.6817 120.594 32.8168 127.97C34.0211 126.23 35.4165 124.631 36.9769 123.201C38.7667 121.264 41.2325 120.087 43.8653 119.915C45.9858 119.905 47.7526 121.226 49.5975 122.301C51.2322 123.253 54.2463 124.616 54.5051 125.954C54.5862 126.489 54.5511 127.036 54.402 127.556C54.2528 128.077 53.9933 128.559 53.6409 128.97C53.2886 129.381 52.8518 129.712 52.3601 129.939C51.8685 130.167 51.3336 130.286 50.7919 130.288C49.6236 130.25 47.1494 129.286 46.0091 129.026C44.5197 128.685 42.4131 129.798 41.4106 131.537C40.408 133.277 40.4136 134.826 40.4965 136.834C40.5579 138.31 40.9945 140.267 42.0585 141.292C42.8645 142.033 43.92 142.444 45.0152 142.442C46.1104 142.441 47.1651 142.028 47.9695 141.285C49.2621 139.945 50.3451 138.417 51.1819 136.753Z" fill="white"/>
<path d="M113.945 182.582C85.636 182.787 57.4642 182.954 47.4621 182.985C47.0843 182.986 46.7104 183.061 46.3617 183.207C46.0131 183.352 45.6966 183.565 45.4303 183.833C45.164 184.101 44.9532 184.418 44.8099 184.768C44.6665 185.117 44.5935 185.491 44.595 185.869C44.6527 202.11 45.4328 258.316 46.0332 278.975C46.0575 279.731 46.3783 280.448 46.9263 280.97C47.4743 281.492 48.2056 281.778 48.9626 281.766C58.0023 281.626 86.0009 281.712 113.945 281.808C141.887 281.715 169.89 281.626 178.926 281.766C179.683 281.778 180.414 281.492 180.962 280.97C181.51 280.448 181.831 279.731 181.855 278.975C182.452 258.316 183.235 202.11 183.294 185.869C183.295 185.491 183.222 185.117 183.079 184.768C182.936 184.418 182.725 184.101 182.459 183.833C182.192 183.565 181.876 183.352 181.527 183.207C181.179 183.061 180.805 182.986 180.427 182.985C170.424 182.95 142.252 182.787 113.945 182.582Z" fill="white"/>
<path d="M234.829 191.912C234.835 192.592 234.835 212.893 234.835 221.455H363.544V191.912H234.829Z" fill="white"/>
<path d="M235.323 158.075V148.324H364.032V158.074H366.666C366.666 158.074 366.666 161.946 366.666 166.944H237.957V158.074L235.323 158.075Z" fill="white"/>
<path d="M371.35 238.126V279.954H242.641C242.641 266.987 242.641 249.628 242.641 236.663H250.938" fill="white"/>
<path d="M272.205 170.51V187.978C272.205 190.852 276.673 190.856 276.673 187.978V187.31C276.673 184.438 272.205 184.432 272.205 187.31V187.978C272.205 190.852 276.673 190.856 276.673 187.978V170.51C276.673 167.637 272.205 167.632 272.205 170.51Z" fill="white"/>
<path d="M262.612 170.659V187.829C262.612 190.702 267.08 190.707 267.08 187.829V170.659C267.08 167.785 262.612 167.781 262.612 170.659Z" fill="white"/>
<path d="M368.809 177.002V181.853C368.809 182.625 368.502 183.366 367.956 183.912C367.409 184.459 366.668 184.765 365.895 184.765H330.371C329.989 184.766 329.61 184.691 329.257 184.545C328.903 184.4 328.582 184.186 328.311 183.916C328.041 183.646 327.826 183.325 327.679 182.973C327.533 182.62 327.457 182.241 327.457 181.859C327.457 180.363 327.457 178.536 327.457 176.998C327.456 176.616 327.53 176.237 327.676 175.884C327.822 175.531 328.036 175.21 328.307 174.939C328.577 174.669 328.898 174.455 329.252 174.309C329.605 174.163 329.984 174.088 330.366 174.089H365.899C366.672 174.09 367.412 174.398 367.957 174.944C368.503 175.49 368.809 176.23 368.809 177.002Z" fill="white"/>
<path d="M155.103 41.9723C153.313 39.1006 151.105 36.5114 148.551 34.2902L142.469 28.8873C134.585 20.1075 124.104 17.6805 113.775 17.6805C103.325 17.5321 93.1256 20.8828 84.8019 27.1989C81.696 29.6362 78.9474 32.4967 76.6364 35.6968C71.3398 40.8755 67.1155 52.1875 67.432 63.4054C67.3952 68.4835 68.0169 73.545 69.2816 78.4635C70.009 78.1924 70.7768 78.0449 71.5529 78.0272C72.3389 77.9927 73.1239 78.1141 73.8627 78.3844C74.6015 78.6547 75.2794 79.0686 75.8572 79.6021L77.5626 80.7975C77.6877 78.5064 77.9363 76.2236 78.3073 73.9592C79.0985 69.1525 84.0898 66.9367 86.2113 62.6454C87.4326 60.1728 88.1596 57.2843 90.2503 55.5252C91.911 54.3121 93.8955 53.6204 95.9509 53.5382C101.73 53.3216 107.517 53.5885 113.251 54.3363C116.254 54.5047 119.165 55.1038 123.448 55.6489C125.775 55.9448 130.079 56.7039 131.727 57.0341C138.208 58.5225 140.69 60.1402 143.945 64.5469C145.193 66.2353 146.52 69.3172 147.749 73.3285L152.031 79.6021C152.609 79.0686 153.287 78.6547 154.026 78.3844C154.764 78.1141 155.549 77.9927 156.335 78.0272C157.054 78.0446 157.766 78.172 158.447 78.4049C159.819 73.5283 160.425 68.468 160.241 63.4054C159.822 53.4898 158.188 47.071 155.103 41.9723Z" fill="#2E6669"/>
<path d="M291.67 68.401L278.007 84.6739C277.907 84.792 277.843 84.9362 277.822 85.0896C277.801 85.2429 277.825 85.399 277.89 85.5395C277.955 85.6799 278.059 85.7988 278.189 85.8822C278.32 85.9655 278.471 86.0098 278.626 86.0098H285.835C285.942 86.0099 286.048 86.0311 286.146 86.0722C286.245 86.1133 286.335 86.1735 286.41 86.2493C286.486 86.3251 286.545 86.415 286.586 86.5139C286.626 86.6128 286.647 86.7187 286.646 86.8256V102.309C286.647 102.525 286.733 102.733 286.886 102.886C287.039 103.039 287.247 103.125 287.464 103.125H297.311C297.528 103.125 297.736 103.039 297.889 102.886C298.042 102.733 298.128 102.525 298.128 102.309V86.8256C298.128 86.6092 298.214 86.4017 298.367 86.2487C298.52 86.0957 298.728 86.0098 298.944 86.0098H305.948C306.103 86.0096 306.256 85.9652 306.387 85.8816C306.518 85.798 306.622 85.6789 306.688 85.538C306.754 85.3972 306.778 85.2406 306.757 85.0865C306.737 84.9325 306.673 84.7874 306.574 84.6684L292.918 68.4047C292.842 68.3132 292.747 68.2395 292.639 68.1888C292.531 68.1381 292.414 68.1117 292.295 68.1113C292.176 68.111 292.058 68.1367 291.95 68.1868C291.843 68.2368 291.747 68.3099 291.67 68.401Z" fill="#2E6669"/>
<path d="M106.77 155.645C107.319 157.151 107.65 158.727 107.753 160.327C107.764 160.983 106.336 171.054 104.682 182.647L113.943 182.582L123.269 182.648C121.873 171.155 120.491 160.431 120.491 160.036C120.525 159.142 120.661 158.255 120.896 157.392C120.997 156.997 121.089 156.602 121.17 156.207C121.607 154.242 121.686 153.23 122.194 151.153L122.226 151.051C119.793 147.774 116.851 143.888 115.058 141.872H112.401C110.624 143.87 107.717 147.708 105.296 150.967L105.523 151.603C106.049 152.914 106.466 154.266 106.77 155.645Z" fill="#2E6669"/>
<path d="M106.725 112.003C109.077 113.221 111.698 113.828 114.347 113.77C117.115 113.883 119.842 113.071 122.096 111.461C122.515 111.043 122.751 110.475 122.751 109.883C122.751 109.291 122.515 108.723 122.096 108.304C121.669 107.902 121.104 107.678 120.517 107.678C119.929 107.678 119.364 107.902 118.937 108.304C119.629 107.765 119.155 108.134 118.977 108.247C118.827 108.34 118.672 108.433 118.511 108.515C118.303 108.624 117.786 108.747 118.412 108.584C118.197 108.64 117.986 108.747 117.774 108.815C117.191 108.996 116.595 109.132 115.991 109.222C116.323 109.169 116.109 109.206 115.898 109.222C115.723 109.239 115.547 109.254 115.372 109.265C114.949 109.292 114.526 109.304 114.103 109.3C113.724 109.3 113.346 109.287 112.968 109.26C112.794 109.248 112.621 109.234 112.448 109.217C112.37 109.208 111.735 109.098 112.275 109.2C111.713 109.105 111.156 108.981 110.607 108.828C110.374 108.758 110.147 108.674 109.916 108.596C109.372 108.41 110.315 108.793 109.823 108.562C109.537 108.427 109.255 108.286 108.976 108.139C108.722 107.991 108.442 107.895 108.152 107.855C107.861 107.815 107.565 107.833 107.282 107.907C106.998 107.981 106.731 108.111 106.498 108.288C106.264 108.465 106.067 108.687 105.919 108.94C105.771 109.193 105.674 109.473 105.634 109.763C105.595 110.054 105.612 110.349 105.687 110.633C105.761 110.917 105.891 111.183 106.068 111.416C106.245 111.65 106.467 111.846 106.72 111.994L106.725 112.003Z" fill="#2E6669"/>
<path d="M113.078 94.2355C113.422 95.4774 113.698 96.7373 113.904 98.0096L113.824 97.4161C113.849 97.5886 113.854 97.7634 113.839 97.937L113.918 97.3435C113.906 97.4232 113.887 97.5017 113.861 97.5779L114.086 97.044C114.063 97.0967 114.036 97.1471 114.003 97.1947L114.352 96.7426C114.316 96.7877 114.274 96.8286 114.229 96.8644L114.681 96.5156C114.585 96.5752 114.485 96.628 114.382 96.6737L114.916 96.4486C114.754 96.5178 114.585 96.5671 114.412 96.5956L115.006 96.5156C114.848 96.5346 114.689 96.5346 114.532 96.5156L115.126 96.5956C114.948 96.5705 114.772 96.5277 114.594 96.5025C114.306 96.4101 113.999 96.3963 113.704 96.4625C113.408 96.4755 113.121 96.567 112.872 96.7277C112.619 96.8756 112.397 97.072 112.22 97.3056C112.042 97.5392 111.913 97.8055 111.838 98.0892C111.764 98.3729 111.746 98.6685 111.786 98.959C111.826 99.2496 111.923 99.5295 112.071 99.7826C112.212 100.035 112.404 100.255 112.634 100.431C112.863 100.607 113.126 100.735 113.407 100.806C113.839 100.865 114.258 100.973 114.699 100.992C115.373 100.995 116.038 100.836 116.638 100.527C117.021 100.349 117.361 100.088 117.632 99.7635C117.903 99.4387 118.098 99.058 118.204 98.6486C118.344 97.9921 118.338 97.3128 118.187 96.6588C117.981 95.443 117.7 94.2402 117.387 93.0448C117.309 92.7621 117.176 92.4975 116.996 92.2661C116.816 92.0348 116.591 91.8411 116.336 91.6964C116.081 91.5516 115.8 91.4585 115.509 91.4223C115.217 91.3862 114.922 91.4077 114.639 91.4857C114.074 91.6527 113.595 92.0322 113.304 92.5445C113.013 93.0568 112.932 93.6619 113.078 94.2327V94.2355Z" fill="#2E6669"/>
<path d="M93.3166 83.4641C92.6855 85.5106 93.097 90.2233 96.9796 90.627C102.111 90.5963 102.385 84.9004 100.657 82.2222C99.2425 80.0258 95.0834 79.1142 93.3166 83.4641Z" fill="#2E6669"/>
<path d="M134.572 83.4632C135.203 85.5098 134.791 90.2234 130.909 90.6262C125.777 90.5955 125.503 84.8995 127.231 82.2204C128.646 80.025 132.804 79.1133 134.572 83.4632Z" fill="#2E6669"/>
<path d="M77.437 78.0232C76.1656 76.8859 74.5876 76.1473 72.8994 75.8992C71.2112 75.6511 69.4873 75.9045 67.9421 76.6278C66.853 77.1865 65.901 77.9788 65.154 78.9481C64.407 79.9173 63.8835 81.0395 63.621 82.2345C62.1186 87.816 63.5447 94.3036 66.7283 99.0721C68.8842 102.301 72.2976 105.227 76.4475 104.678C77.0341 104.659 77.5917 104.418 78.0068 104.004C78.4218 103.589 78.6631 103.032 78.6815 102.445C78.6815 101.361 77.652 100.054 76.4475 100.213C73.3477 100.623 71.2448 98.1205 69.8699 95.6404C68.6162 93.4525 67.8364 91.0257 67.5809 88.5174C67.3948 86.2178 67.4059 83.3712 68.8302 81.4224C68.9189 81.2983 68.9018 81.3225 68.779 81.4949C68.8721 81.387 68.9692 81.2834 69.0703 81.1842C69.1141 81.1451 69.5646 80.787 69.3552 80.9349C69.8046 80.625 70.3176 80.4191 70.8567 80.3321C71.4533 80.2014 72.0721 80.21 72.665 80.3571C73.2578 80.5042 73.8087 80.786 74.2748 81.1805C76.4093 83.094 79.5807 79.947 77.4342 78.0232H77.437Z" fill="#2E6669"/>
<path d="M153.611 81.1807C154.054 80.8041 154.576 80.5297 155.137 80.377C155.699 80.2242 156.288 80.1969 156.861 80.297C157.461 80.3739 158.033 80.5927 158.531 80.9352C158.395 80.8421 159.303 81.7352 159.002 81.3482C160.492 83.2682 160.492 86.219 160.305 88.5177C160.057 90.9699 159.306 93.3448 158.099 95.4946C156.729 98.0221 154.6 100.631 151.442 100.214C150.85 100.217 150.284 100.453 149.865 100.871C149.447 101.289 149.211 101.855 149.208 102.446C149.222 103.034 149.462 103.593 149.878 104.009C150.294 104.425 150.854 104.664 151.442 104.679C158.242 105.579 162.426 98.0993 164.069 92.6052C165.525 87.74 165.508 80.2263 160.787 77.083C159.193 76.1037 157.326 75.6665 155.463 75.8367C153.601 76.0069 151.843 76.7754 150.454 78.0272C148.313 79.95 151.478 83.0989 153.613 81.1845L153.611 81.1807Z" fill="#2E6669"/>
<path d="M149.519 98.9731C148.887 101.653 148.023 104.272 146.938 106.803C146.813 107.118 147.156 106.35 146.932 106.81C146.855 106.967 146.786 107.128 146.712 107.286C146.526 107.679 146.327 108.067 146.124 108.453C145.658 109.342 145.154 110.213 144.634 111.071C141.951 115.638 138.517 119.72 134.478 123.148C132.31 125.004 129.745 126.336 126.979 127.042C124.179 127.693 125.364 131.998 128.167 131.348C133.994 129.995 138.852 125.766 142.66 121.34C145.922 117.67 148.65 113.559 150.765 109.129C150.909 108.809 151.044 108.485 151.18 108.161C151.218 108.068 151.411 107.603 151.282 107.906C151.147 108.224 151.293 107.892 151.316 107.841C151.445 107.558 151.563 107.268 151.683 106.98C151.846 106.587 152.001 106.192 152.148 105.794C152.852 103.962 153.412 102.078 153.824 100.16C154.403 97.3563 150.1 96.16 149.515 98.9731H149.519Z" fill="#2E6669"/>
<path d="M73.9508 100.025C75.6878 107.681 79.2736 114.795 84.3952 120.747C89.3455 126.49 95.7257 131.053 103.365 132.19C103.936 132.328 104.538 132.244 105.048 131.954C105.559 131.664 105.94 131.191 106.113 130.63C106.266 130.06 106.188 129.452 105.896 128.938C105.604 128.424 105.122 128.046 104.553 127.884C97.579 126.848 92.0795 122.835 87.5545 117.592C82.9725 112.193 79.7815 105.756 78.2598 98.8426C77.6231 96.0416 73.3141 97.2268 73.9508 100.03V100.025Z" fill="#2E6669"/>
<path d="M144.049 27.3087C138.637 21.4582 131.429 17.5773 123.563 16.2796C115.61 14.844 107.436 15.2038 99.6399 17.3327C92.1011 19.4236 85.2083 23.3726 79.5937 28.8176C78.0736 30.318 76.6657 31.928 75.3815 33.6345C74.3846 34.9619 73.2089 36.1378 72.252 37.5118C70.0629 40.785 68.3931 44.3766 67.3016 48.1595C64.3489 57.81 64.4969 68.7424 66.9777 78.4859C67.6861 81.2683 71.996 80.0887 71.2857 77.2989C70.2563 73.0695 69.7175 68.7357 69.68 64.3832C69.5458 60.3565 69.918 56.329 70.7877 52.395C71.592 48.7514 72.9169 45.2424 74.7216 41.9761C75.4382 40.6695 76.2839 39.4379 77.2461 38.2997C78.4124 36.9611 79.4625 35.5378 80.64 34.2066C85.368 28.8381 91.4144 24.7938 98.1831 22.4723C105.209 20.1036 112.678 19.3406 120.038 20.2397C128.011 20.9653 135.436 24.6053 140.889 30.4623C142.827 32.5944 145.979 29.4288 144.049 27.305V27.3087Z" fill="#2E6669"/>
<path d="M160.723 78.4852C161.752 74.5462 162.351 70.5072 162.507 66.4393C162.557 62.5786 162.288 58.7205 161.703 54.9041C161.054 49.3446 159.118 44.0127 156.048 39.3316C154.332 36.9089 152.347 34.6882 150.131 32.7119C148.007 30.7835 144.837 33.9324 146.972 35.8692C150.427 38.8136 153.168 42.5033 154.988 46.6601C157.305 52.3533 157.967 58.7442 158.046 64.8411C158.034 69.0452 157.486 73.2306 156.415 77.2963C155.732 80.0871 160.04 81.2769 160.723 78.4833V78.4852Z" fill="#2E6669"/>
<path d="M113.845 52.1873C110.733 51.6994 107.592 51.416 104.443 51.3389C101.496 51.1037 98.5352 51.1071 95.5888 51.3492C93.1952 51.496 90.8927 52.32 88.9499 53.725C87.337 55.1681 86.1099 56.9907 85.38 59.0275C84.7394 60.7888 83.8215 62.4365 82.661 63.9086C81.4304 65.3198 80.0266 66.5719 78.8444 68.0249C77.3416 69.7915 76.3616 71.9419 76.0146 74.2344C75.6422 76.6931 75.4561 79.1592 75.2596 81.6365C75.2643 82.2272 75.5011 82.7924 75.9191 83.21C76.3371 83.6278 76.9026 83.8645 77.4937 83.8691C78.0827 83.8576 78.6443 83.6188 79.0608 83.2025C79.4773 82.7863 79.7164 82.225 79.7278 81.6365C79.9968 78.201 79.7622 74.066 81.9814 71.2176C84.0908 68.505 86.8918 66.4826 88.3728 63.289C89.191 61.5271 89.7691 59.4926 90.9904 57.9493C92.1551 56.6952 93.7588 55.9382 95.4678 55.8358C98.1003 55.5745 100.751 55.55 103.388 55.7623C105.173 55.8311 106.958 55.9288 108.738 56.0665C109.556 56.1297 110.375 56.2023 111.191 56.2907C111.363 56.3102 112.215 56.4172 111.78 56.3558C112.074 56.3967 112.366 56.4432 112.657 56.4953C113.228 56.6361 113.831 56.553 114.342 56.263C114.854 55.9729 115.234 55.4981 115.406 54.9362C115.559 54.365 115.481 53.7565 115.189 53.2421C114.897 52.7278 114.414 52.3489 113.845 52.1873Z" fill="#2E6669"/>
<path d="M131.133 59.1872C132.25 59.4458 133.362 59.7276 134.454 60.0765C134.891 60.216 135.324 60.3658 135.752 60.5304C135.845 60.5658 136.497 60.8458 136.042 60.643C136.216 60.7212 136.39 60.7993 136.561 60.8821C137.288 61.2396 137.987 61.6516 138.652 62.1147C139.124 62.4356 138.493 61.9603 138.829 62.2458C138.964 62.3603 139.102 62.4719 139.236 62.5882C139.555 62.8673 139.861 63.1621 140.157 63.4663C140.469 63.7882 140.768 64.1222 141.059 64.4645C141.19 64.618 141.319 64.7743 141.446 64.9296C141.492 64.9864 141.844 65.4338 141.618 65.1417C142.173 65.8575 142.664 66.6204 143.086 67.4218C144.123 69.5049 144.963 71.6803 145.594 73.9196C145.752 74.4907 146.13 74.9758 146.645 75.2683C147.16 75.5607 147.771 75.6366 148.342 75.4792C148.914 75.3218 149.399 74.944 149.692 74.4289C149.985 73.9138 150.061 73.3037 149.903 72.7326C149.15 70.1263 148.16 67.5943 146.945 65.1687C145.971 63.3848 144.749 61.7479 143.314 60.3072C140.336 57.2373 136.408 55.828 132.319 54.8791C131.748 54.7217 131.137 54.7976 130.622 55.0901C130.106 55.3826 129.728 55.8677 129.571 56.4387C129.413 57.0097 129.489 57.6199 129.782 58.135C130.074 58.6501 130.56 59.0279 131.131 59.1853L131.133 59.1872Z" fill="#2E6669"/>
<path d="M125.836 54.3159C125.232 51.7456 123.23 49.5409 121.205 47.9632C117.84 45.4446 113.857 43.881 109.677 43.4375C109.084 43.4375 108.516 43.6727 108.097 44.0914C107.678 44.5101 107.443 45.078 107.443 45.6701C107.46 46.2567 107.701 46.8144 108.116 47.2294C108.532 47.6444 109.09 47.8852 109.677 47.9027C109.341 47.8581 110.061 47.966 110.142 47.9799C110.406 48.0246 110.67 48.0742 110.934 48.1288C111.369 48.2181 111.803 48.3201 112.237 48.4348C113.109 48.6698 113.966 48.9572 114.804 49.2953C114.368 49.1204 114.897 49.3391 114.99 49.3809C115.193 49.4733 115.394 49.5691 115.593 49.6684C115.951 49.846 116.303 50.0349 116.649 50.2349C116.978 50.4259 117.301 50.6268 117.618 50.8377C117.782 50.9475 117.945 51.06 118.105 51.1754C118.209 51.2507 118.619 51.567 118.178 51.22C118.701 51.6278 119.197 52.0688 119.663 52.5401C119.858 52.7401 120.049 52.9457 120.232 53.1578C120.333 53.2759 120.426 53.4015 120.53 53.5168C120.624 53.6154 120.232 53.0871 120.53 53.5233C120.819 53.9295 121.078 54.3557 121.306 54.7987C121.341 54.8954 121.385 54.9888 121.436 55.0778C121.139 54.6936 121.278 54.6462 121.356 54.9057C121.417 55.1048 121.486 55.2983 121.534 55.502C121.696 56.0702 122.074 56.5521 122.589 56.8438C123.103 57.1355 123.711 57.2135 124.282 57.0611C124.846 56.8931 125.324 56.5135 125.615 56.0017C125.905 55.4898 125.987 54.8855 125.842 54.315L125.836 54.3159Z" fill="#2E6669"/>
<path d="M225.724 253.573H196.692C193.818 253.573 193.813 258.038 196.692 258.038H225.726C228.601 258.038 228.606 253.573 225.726 253.573H225.724Z" fill="#2E6669"/>
<path d="M2.15775 258.038H45.5268C48.4023 258.038 48.4069 253.573 45.5268 253.573H2.15775C-0.716761 253.573 -0.721416 258.038 2.15775 258.038Z" fill="#2E6669"/>
<path d="M81.61 181.839C79.0657 177.151 76.5632 172.442 74.1026 167.71C73.5268 166.806 73.0372 165.85 72.6402 164.854C72.6235 164.797 72.5471 165.127 72.589 165.046C72.7657 164.799 72.9696 164.573 73.1969 164.373C73.6021 163.938 74.0117 163.511 74.4256 163.092C76.2873 161.185 78.2198 159.353 80.1616 157.53C80.3996 157.287 80.5795 156.993 80.6876 156.671C80.7957 156.348 80.8293 156.005 80.7859 155.668C80.7424 155.33 80.6231 155.007 80.4368 154.722C80.2505 154.437 80.002 154.199 79.7101 154.023C78.5075 153.341 77.3054 152.657 76.104 151.97L74.5029 151.058L73.504 150.487L73.1047 150.259C72.8375 150.083 72.8357 150.11 73.1047 150.341L73.4091 151.468C73.3951 151.731 73.3886 151.548 73.5022 151.408C73.6218 151.228 73.7306 151.042 73.828 150.849C74.0142 150.537 74.2208 150.232 74.4312 149.932C74.8789 149.309 75.3625 148.713 75.8796 148.146C77.2072 146.68 78.6255 145.299 80.1262 144.01C82.8397 141.652 85.7202 139.492 88.7451 137.549L85.4536 136.21C85.6875 137.241 85.9249 138.271 86.1657 139.301C86.2067 139.477 86.6079 140.938 86.3789 139.979C86.4915 140.452 86.5464 140.949 86.6581 141.426C87.131 143.431 87.6144 145.433 88.1084 147.433C89.1088 151.485 90.1517 155.526 91.2371 159.557C93.4016 167.601 95.7307 175.599 98.2241 183.551C99.0824 186.283 103.397 185.116 102.533 182.364C100.037 174.416 97.7078 166.418 95.5451 158.37C93.4255 150.489 91.4744 142.592 89.7616 135.02C89.6678 134.692 89.5005 134.39 89.2725 134.136C89.0445 133.882 88.7617 133.683 88.4455 133.555C88.1293 133.426 87.788 133.371 87.4474 133.394C87.1068 133.416 86.7758 133.516 86.4794 133.685C81.7496 136.649 77.3865 140.16 73.4808 144.146C71.8052 145.905 69.4483 148.306 68.9949 150.789C68.5826 153.046 70.6137 153.98 72.2437 154.91C73.9776 155.902 75.713 156.891 77.45 157.877L76.9976 154.37C74.8398 156.395 72.6933 158.434 70.6435 160.57C69.5711 161.461 68.7551 162.621 68.2791 163.931C67.9207 165.419 68.5584 166.692 69.2165 167.978C71.9942 173.383 74.8377 178.754 77.7469 184.09C79.1181 186.618 82.9765 184.369 81.6054 181.836L81.61 181.839Z" fill="#2E6669"/>
<path d="M149.712 184.098C152.609 178.757 155.453 173.386 158.243 167.986C158.905 166.697 159.539 165.428 159.18 163.938C158.741 162.694 157.977 161.589 156.968 160.737C154.873 158.544 152.673 156.458 150.461 154.378L150.009 157.884C151.747 156.896 153.482 155.908 155.216 154.918C156.783 154.023 158.64 153.214 158.504 151.093C158.418 149.751 157.424 148.387 156.643 147.33C155.821 146.216 154.931 145.156 153.977 144.154C150.069 140.166 145.702 136.655 140.969 133.693C140.672 133.524 140.341 133.424 140.001 133.401C139.66 133.379 139.319 133.434 139.003 133.562C138.686 133.691 138.404 133.89 138.176 134.144C137.948 134.398 137.78 134.7 137.686 135.028C134.043 150.966 129.789 166.747 124.924 182.369C124.062 185.117 128.375 186.293 129.233 183.556C134.125 167.952 138.379 152.171 141.995 136.215L138.713 137.549C141.741 139.492 144.625 141.651 147.34 144.011C148.8 145.265 150.182 146.607 151.48 148.027C152.005 148.596 152.497 149.193 152.954 149.816C153.169 150.117 153.376 150.423 153.571 150.736C153.684 150.922 153.781 151.123 153.902 151.301C153.985 151.421 154.074 151.828 154.055 151.473L154.36 150.346C154.546 149.999 154.498 150.203 154.157 150.378C153.816 150.553 153.49 150.76 153.158 150.948L151.358 151.972L147.752 154.025C147.46 154.2 147.212 154.439 147.025 154.724C146.839 155.008 146.72 155.331 146.676 155.669C146.633 156.006 146.666 156.349 146.774 156.672C146.882 156.994 147.062 157.288 147.299 157.532C149.188 159.299 151.067 161.085 152.88 162.934C153.347 163.409 153.808 163.889 154.265 164.374C154.431 164.55 154.772 164.8 154.867 165.02C154.932 165.168 154.821 164.866 154.827 164.834C154.445 165.844 153.953 166.807 153.359 167.709C150.904 172.445 148.402 177.155 145.852 181.838C144.482 184.365 148.338 186.622 149.71 184.092L149.712 184.098Z" fill="#2E6669"/>
<path d="M119.913 156.274C115.984 156.274 112.055 156.192 108.126 156.19C107.533 156.19 106.965 156.426 106.546 156.844C106.127 157.263 105.892 157.831 105.892 158.423C105.892 159.015 106.127 159.583 106.546 160.002C106.965 160.42 107.533 160.656 108.126 160.656C112.055 160.656 115.984 160.738 119.913 160.739C120.506 160.739 121.074 160.504 121.493 160.085C121.912 159.667 122.147 159.099 122.147 158.507C122.147 157.915 121.912 157.347 121.493 156.928C121.074 156.509 120.506 156.274 119.913 156.274Z" fill="#2E6669"/>
<path d="M120.039 150.558C119.676 152.097 119.424 153.655 119.103 155.203C118.635 156.783 118.351 158.411 118.256 160.056C118.295 161.28 118.545 162.527 118.696 163.74C119.492 170.145 120.3 176.549 121.076 182.957C121.094 183.544 121.335 184.102 121.75 184.517C122.165 184.931 122.723 185.172 123.31 185.19C123.901 185.186 124.468 184.95 124.886 184.532C125.304 184.114 125.54 183.548 125.544 182.957C124.778 176.632 123.982 170.317 123.196 163.998C123.036 162.72 122.793 161.418 122.73 160.131C122.803 158.861 123.032 157.604 123.412 156.39C123.733 154.842 123.985 153.284 124.343 151.745C125.002 148.955 120.695 147.758 120.034 150.558H120.039Z" fill="#2E6669"/>
<path d="M103.592 152.735C104.115 154.151 104.543 155.601 104.871 157.074C105.272 158.174 105.486 159.334 105.503 160.504C105.481 160.969 105.402 161.442 105.343 161.906C105.234 162.777 105.135 163.509 105.051 164.125C104.224 170.209 103.347 176.285 102.483 182.364C102.345 182.934 102.43 183.536 102.719 184.046C103.009 184.556 103.482 184.936 104.043 185.11C104.614 185.263 105.223 185.186 105.737 184.894C106.251 184.602 106.63 184.12 106.792 183.551C107.691 177.221 108.608 170.891 109.462 164.555C109.706 163.178 109.878 161.79 109.979 160.395C109.933 158.713 109.619 157.048 109.048 155.465C108.625 153.769 108.09 152.102 107.446 150.477C107.144 149.969 106.654 149.6 106.082 149.451C105.51 149.301 104.902 149.382 104.389 149.676C103.888 149.984 103.525 150.474 103.376 151.043C103.227 151.612 103.303 152.216 103.588 152.731L103.592 152.735Z" fill="#2E6669"/>
<path d="M93.864 127.006C92.8075 128.198 91.8161 129.44 90.8136 130.681C89.7738 131.975 88.5999 133.215 87.6486 134.579C86.8749 135.621 86.4112 136.86 86.3107 138.154C86.2103 139.448 86.4772 140.744 87.0808 141.893C89.3165 145.68 91.8486 149.285 94.6534 152.672C96.2538 154.762 98.1606 156.598 100.309 158.119C100.824 158.404 101.429 158.479 101.998 158.33C102.568 158.181 103.057 157.819 103.366 157.318C106.85 152.667 110.127 147.811 113.978 143.452C114.212 143.206 114.388 142.912 114.494 142.59C114.599 142.268 114.632 141.927 114.589 141.591C114.545 141.255 114.428 140.933 114.244 140.648C114.06 140.363 113.815 140.123 113.527 139.945C113.395 139.852 113.267 139.753 113.139 139.656C112.983 139.539 112.224 138.953 112.795 139.395C112.127 138.878 111.461 138.36 110.796 137.839C108.944 136.396 107.096 134.947 105.25 133.495C102.503 131.337 99.7387 129.198 97.0187 127.006C96.5916 126.603 96.0264 126.379 95.439 126.379C94.8516 126.379 94.2865 126.603 93.8593 127.006C93.4445 127.427 93.2119 127.994 93.2119 128.585C93.2119 129.176 93.4445 129.743 93.8593 130.164C96.6436 132.408 99.4734 134.595 102.285 136.805C105.263 139.144 108.191 141.596 111.271 143.8L110.819 140.294C106.716 144.937 103.218 150.112 99.5078 155.064L102.565 154.263C101.64 153.614 100.79 152.866 100.03 152.03C99.0536 151.014 98.1413 149.937 97.2635 148.837C95.6103 146.765 94.0939 144.58 92.6446 142.362C92.1289 141.574 91.6206 140.781 91.1375 139.973C90.9748 139.732 90.8281 139.48 90.6981 139.22C90.5948 138.979 90.7326 139.207 90.7428 139.291C90.7099 139.044 90.7124 138.794 90.7503 138.547C90.9876 137.024 92.3253 135.877 93.2487 134.733C94.4895 133.196 95.709 131.642 97.0187 130.164C98.9242 128.019 95.7751 124.85 93.864 127.006Z" fill="#2E6669"/>
<path d="M130.44 130.163C131.749 131.642 132.969 133.196 134.209 134.733C135.13 135.873 136.471 137.025 136.708 138.547C136.745 138.789 136.751 139.034 136.724 139.277C136.724 139.265 136.872 138.958 136.76 139.22C136.63 139.48 136.483 139.732 136.321 139.973C135.836 140.78 135.328 141.574 134.814 142.362C133.364 144.58 131.848 146.765 130.195 148.837C129.317 149.937 128.405 151.014 127.428 152.03C126.668 152.865 125.818 153.614 124.893 154.263L127.95 155.064C124.239 150.112 120.742 144.937 116.639 140.294L116.187 143.8C119.267 141.594 122.196 139.143 125.174 136.805C127.985 134.595 130.815 132.407 133.599 130.163C134.014 129.743 134.247 129.176 134.247 128.585C134.247 127.994 134.014 127.427 133.599 127.006C133.173 126.6 132.608 126.373 132.019 126.373C131.431 126.373 130.865 126.6 130.44 127.006C127.72 129.198 124.955 131.337 122.208 133.495C120.361 134.945 118.513 136.393 116.663 137.839C115.997 138.359 115.33 138.878 114.662 139.394C115.233 138.953 114.476 139.539 114.32 139.656C114.19 139.749 114.063 139.851 113.932 139.945C113.643 140.123 113.398 140.363 113.214 140.648C113.03 140.932 112.913 141.254 112.869 141.59C112.826 141.926 112.858 142.268 112.964 142.59C113.069 142.912 113.245 143.206 113.479 143.451C117.331 147.81 120.609 152.668 124.091 157.318C124.398 157.82 124.888 158.185 125.458 158.334C126.028 158.483 126.634 158.406 127.148 158.119C131.217 155.449 134.23 151.073 136.966 147.142C138.07 145.555 139.143 143.942 140.141 142.287C140.76 141.279 141.106 140.129 141.145 138.948C141.185 137.767 140.916 136.596 140.366 135.55C139.492 134.058 138.445 132.674 137.248 131.427C136.049 129.938 134.867 128.437 133.599 127.006C131.69 124.851 128.538 128.018 130.44 130.163Z" fill="#2E6669"/>
<path d="M56.8945 152.921C64.3713 148.884 72.3851 145.957 80.2928 142.895C80.8548 142.723 81.3297 142.343 81.62 141.832C81.9103 141.321 81.994 140.719 81.8539 140.149C81.6926 139.58 81.3138 139.098 80.7994 138.806C80.285 138.514 79.6763 138.436 79.105 138.59C70.8436 141.789 62.4509 144.847 54.6391 149.065C52.108 150.432 54.3598 154.289 56.8945 152.921Z" fill="#2E6669"/>
<path d="M190.326 163.633C183.344 153.143 171.61 147.659 160.306 143.052C156.534 141.513 152.725 140.06 148.927 138.586C148.355 138.433 147.747 138.511 147.233 138.803C146.719 139.095 146.34 139.577 146.179 140.145C146.035 140.716 146.117 141.32 146.407 141.832C146.698 142.344 147.175 142.724 147.739 142.893C153.882 145.272 160.067 147.574 166.041 150.359C171.252 152.62 176.122 155.596 180.51 159.202C182.786 161.153 184.79 163.402 186.467 165.886C188.05 168.267 191.924 166.034 190.325 163.632L190.326 163.633Z" fill="#2E6669"/>
<path d="M186.522 166.272C188.345 169.198 189.755 172.362 190.711 175.674C191.85 179.382 193.008 183.084 194.156 186.789C196.414 194.078 198.633 201.381 200.561 208.765C202.626 216.31 204.226 223.974 205.352 231.714C206.097 237.345 205.498 243.51 201.964 248.125C199.983 250.935 197.273 253.151 194.125 254.536C190.557 255.916 186.763 256.616 182.938 256.6C180.063 256.619 180.058 261.084 182.938 261.065C190.081 261.019 197.656 259.186 202.802 253.961C205.291 251.569 207.242 248.675 208.526 245.472C209.622 242.264 210.143 238.888 210.064 235.499C209.915 231.768 209.439 228.058 208.643 224.409C207.915 220.435 207.06 216.482 206.119 212.552C204.218 204.66 201.93 196.869 199.547 189.11C198.181 184.657 196.784 180.213 195.412 175.762C194.281 171.636 192.59 167.684 190.386 164.017C188.844 161.599 184.975 163.839 186.528 166.271L186.522 166.272Z" fill="#2E6669"/>
<path d="M34.6078 126.515C32.0386 120.499 29.3478 114.537 26.5353 108.63C25.6972 106.686 24.748 104.791 23.6925 102.956C21.5971 99.6068 16.9046 98.3463 14.0896 101.647C13.4221 102.401 12.9306 103.294 12.6508 104.261C12.371 105.228 12.3099 106.245 12.4718 107.239C12.8322 109.118 13.3673 110.96 14.0701 112.74C14.241 113.302 14.6214 113.778 15.1327 114.068C15.644 114.358 16.2473 114.441 16.818 114.299C17.3867 114.138 17.8691 113.759 18.161 113.246C18.4529 112.732 18.5309 112.124 18.3782 111.553C17.8486 110.135 17.3992 108.689 17.0321 107.221C16.9549 106.908 16.886 106.595 16.8217 106.28C16.7287 105.847 16.7519 106.41 16.7975 106.093C16.8572 105.6 17.0379 105.129 17.3235 104.721C18.596 103.059 19.8722 105.22 20.4363 106.303C22.7784 110.804 24.8402 115.465 26.9263 120.089C28.2295 122.973 29.5085 125.857 30.7494 128.763C31.0509 129.272 31.541 129.641 32.1133 129.791C32.6855 129.941 33.2938 129.859 33.8063 129.564C34.3048 129.254 34.6656 128.766 34.8147 128.199C34.9637 127.632 34.8897 127.029 34.6078 126.515Z" fill="#2E6669"/>
<path d="M26.0336 130.396C24.3878 125.844 22.6102 121.34 20.7007 116.885C20.0558 115.264 19.3032 113.687 18.448 112.167C16.899 109.576 15.3435 107.072 12.052 106.792C8.41602 106.484 5.88779 109.481 6.11306 113.006C6.36208 115.016 6.93417 116.972 7.80724 118.8C9.34317 122.61 10.9014 126.41 12.442 130.216C13.4976 132.821 14.5206 135.447 15.5558 138.065C15.7283 138.626 16.1089 139.1 16.6198 139.39C17.1306 139.68 17.7331 139.764 18.3037 139.624C18.8729 139.463 19.3558 139.085 19.6479 138.571C19.9401 138.057 20.018 137.449 19.8648 136.878C17.7548 131.544 15.6175 126.223 13.4529 120.915C12.851 119.432 12.2509 117.948 11.6526 116.463C11.2077 115.347 9.60474 112.141 11.0308 111.299C11.2678 111.201 11.5248 111.163 11.7798 111.186C12.0349 111.21 12.2806 111.294 12.496 111.433C13.3664 111.974 13.8737 113.261 14.3866 114.094C15.1964 115.472 15.9078 116.905 16.5155 118.383C18.4061 122.716 20.1179 127.139 21.7283 131.583C21.8987 132.145 22.2789 132.621 22.7904 132.911C23.3019 133.202 23.9055 133.284 24.4763 133.142C25.045 132.981 25.5274 132.602 25.8193 132.088C26.1112 131.575 26.1892 130.967 26.0364 130.396H26.0336Z" fill="#2E6669"/>
<path d="M20.4427 138.034C18.9533 135.649 17.4202 133.294 15.929 130.912C14.5327 128.685 13.3914 126.153 11.7289 124.114C10.9876 123.154 9.97814 122.434 8.82787 122.046C7.6776 121.658 6.43812 121.619 5.26588 121.935C4.09203 122.395 3.10722 123.236 2.4701 124.323C1.83298 125.41 1.58064 126.68 1.75372 127.928C2.05998 130.631 3.47583 132.967 4.6813 135.35C5.9147 137.789 7.19464 140.205 8.45503 142.63C10.596 146.733 12.6616 150.873 14.744 155.003C15.6661 156.833 16.5623 158.676 17.4323 160.531C17.8127 161.344 18.1879 162.159 18.5577 162.977C18.7253 163.349 18.8907 163.721 19.0539 164.093C19.1383 164.285 19.2224 164.478 19.3061 164.672C19.3341 164.736 19.5919 165.343 19.4448 164.994C19.6589 165.504 19.8702 166.017 20.0564 166.54C20.1197 166.717 20.1672 166.906 20.2426 167.08C20.5582 167.861 20.1719 166.258 20.2752 167.165C20.3711 168.271 20.7512 169.333 21.3788 170.25C22.0063 171.166 22.86 171.904 23.8572 172.394C25.7543 173.299 27.7268 172.958 29.7291 172.803L37.9346 172.171C40.111 172.002 42.292 171.865 44.4656 171.666C45.4927 171.614 46.4937 171.324 47.3892 170.819C48.2847 170.313 49.0503 169.607 49.6254 168.755C50.3183 167.46 50.7861 166.056 51.0087 164.605C51.6956 161.814 47.3876 160.624 46.7006 163.418C46.3385 164.887 46.251 166.943 44.4163 167.205C42.8236 167.432 41.1731 167.455 39.5702 167.577C35.4176 167.898 31.2668 168.265 27.1115 168.539C26.7522 168.608 26.3812 168.583 26.0347 168.465C25.6882 168.348 25.3783 168.142 25.1352 167.869C24.6056 167.218 24.6875 166.268 24.4175 165.486C23.3911 162.734 22.2133 160.041 20.8895 157.419C17.3402 149.937 13.4426 142.611 9.64654 135.253C8.45969 132.954 6.89397 130.578 6.28704 128.047C6.153 127.488 6.00778 126.435 6.68918 126.138C7.13227 125.944 7.86486 126.503 8.14598 126.781C8.79523 127.565 9.34027 128.43 9.76755 129.355C10.5122 130.639 11.2877 131.906 12.0752 133.169C13.5646 135.551 15.1023 137.905 16.5889 140.291C18.1063 142.724 21.9731 140.485 20.4474 138.037L20.4427 138.034Z" fill="#2E6669"/>
<path d="M46.4763 165.823C49.9736 163.262 53.5565 160.673 55.6919 156.792C58.0591 152.491 59.1631 147.576 60.4291 142.876C61.0739 140.616 61.5916 138.322 61.9799 136.004C62.2927 133.946 62.4975 131.911 61.3777 130.032C60.31 128.243 58.289 127.791 56.337 127.978C54.0359 128.199 52.6778 129.752 51.4965 131.615C50.2789 133.54 49.3555 135.638 48.1203 137.552C47.2825 138.854 46.2585 140.5 44.5886 140.2C43.1997 139.951 42.845 138.352 42.7408 137.139C42.5909 135.405 42.5109 133.225 43.9165 131.944C45.1871 130.787 45.9448 131.32 47.4863 131.799C49.2224 132.338 51.0292 132.843 52.8118 132.192C56.4003 130.883 58.317 125.825 55.1269 123.104C53.426 121.855 51.6263 120.746 49.7456 119.789C47.4184 118.382 45.1294 117.4 42.3573 117.827C37.5074 118.572 33.5876 122.905 30.9365 126.758C30.6429 127.27 30.5624 127.878 30.7123 128.449C30.8622 129.02 31.2305 129.51 31.7379 129.813C32.2522 130.1 32.8576 130.177 33.4274 130.028C33.9972 129.878 34.4869 129.514 34.794 129.012C35.8363 127.589 37.0056 126.263 38.2875 125.051C39.5318 123.648 41.1779 122.662 43.0024 122.226C44.8296 121.892 46.319 122.943 47.814 123.843C49.2433 124.57 50.6301 125.378 51.9675 126.262C52.1518 126.38 52.3101 126.535 52.433 126.716C52.36 126.623 52.3177 126.51 52.3119 126.392C52.3036 126.45 52.2617 126.802 52.3417 126.496C52.2911 126.96 52.0847 127.393 51.7562 127.724C51.5992 127.865 51.411 127.967 51.2069 128.022C51.0029 128.076 50.7889 128.081 50.5824 128.037C50.8617 128.067 50.1291 127.91 50.0239 127.883C49.5733 127.765 49.1275 127.628 48.6825 127.49C47.0395 126.977 45.5176 126.467 43.7843 126.981C41.8464 127.595 40.2316 128.953 39.2947 130.756C37.5931 134.049 37.6806 139.458 40.0869 142.414C42.6868 145.608 47.4752 145.186 50.0862 142.301C52.7457 139.361 53.9466 135.221 56.5223 132.412C56.4217 132.522 56.4757 132.423 56.7345 132.406C57.0042 132.389 57.2748 132.39 57.5444 132.411C57.3247 132.378 57.8739 132.48 57.8655 132.489L57.9744 132.522C57.8848 132.533 57.794 132.516 57.7141 132.474C57.6341 132.432 57.5688 132.367 57.5267 132.287C57.589 132.229 57.8208 133.191 57.818 133.164C57.9828 134.732 57.3749 136.619 57.0231 138.146C56.0343 143.111 54.5984 147.977 52.7327 152.683C51.9267 154.627 50.7517 156.396 49.2727 157.893C47.6946 159.374 46.0075 160.735 44.2255 161.964C43.727 162.275 43.3663 162.765 43.2173 163.333C43.0683 163.901 43.1423 164.504 43.424 165.019C43.7261 165.527 44.2162 165.896 44.7882 166.046C45.3602 166.196 45.9683 166.115 46.481 165.82L46.4763 165.823Z" fill="#2E6669"/>
<path d="M17.1093 173.612C16.3963 181.565 15.3872 189.489 14.6062 197.436C13.9881 203.736 13.3226 210.103 13.8504 216.433C14.6677 226.238 17.9099 236.657 25.5988 243.278C30.2641 247.19 36.0431 249.536 42.1171 249.984C42.7083 249.98 43.2741 249.743 43.6922 249.325C44.1103 248.907 44.347 248.342 44.3511 247.751C44.3388 247.163 44.0994 246.602 43.6831 246.186C43.2668 245.77 42.7057 245.531 42.1171 245.519C37.4926 245.145 33.0729 243.452 29.3837 240.64C25.9338 237.803 23.2409 234.156 21.5458 230.024C17.3337 220.309 17.9285 209.645 18.8947 199.274C19.6934 190.71 20.8058 182.178 21.5738 173.612C21.5694 173.021 21.3326 172.455 20.9146 172.038C20.4965 171.62 19.9308 171.383 19.3397 171.379C18.7509 171.391 18.1895 171.63 17.7731 172.046C17.3567 172.462 17.1175 173.023 17.1056 173.612H17.1093Z" fill="#2E6669"/>
<path d="M47.4621 180.749C46.5724 180.766 45.7015 181.007 44.9305 181.451C44.1595 181.895 43.5135 182.527 43.0525 183.288C42.5124 184.368 42.2748 185.574 42.3646 186.779C42.3721 188.329 42.3823 189.877 42.3953 191.422C42.4289 195.628 42.4711 199.833 42.5219 204.038C42.6461 214.852 42.7938 225.666 42.965 236.479C43.1282 246.948 43.3163 257.418 43.5291 267.888C43.5738 270.001 43.6219 272.113 43.6734 274.226C43.5696 276.164 43.6569 278.108 43.9341 280.03C44.2331 281.217 44.9375 282.264 45.9259 282.988C46.9143 283.712 48.1246 284.069 49.348 283.996C49.9307 283.996 50.5134 283.985 51.0962 283.981C55.9097 283.95 60.7241 283.943 65.5376 283.934C73.208 283.919 80.8783 283.91 88.5486 283.906C97.5576 283.899 106.567 283.896 115.577 283.897C124.539 283.897 133.501 283.9 142.463 283.908C149.862 283.914 157.262 283.924 164.663 283.939C169.027 283.948 173.392 283.952 177.755 283.989C178.7 284.059 179.649 283.975 180.566 283.74C181.377 283.471 182.109 283.005 182.695 282.384C183.282 281.762 183.705 281.005 183.926 280.179C184.116 279.131 184.189 278.065 184.144 277.001C184.254 272.88 184.348 268.758 184.428 264.635C184.648 253.86 184.834 243.084 184.986 232.308C185.145 221.75 185.284 211.191 185.403 200.631C185.445 196.779 185.48 192.927 185.51 189.074C185.522 187.234 185.814 185.083 184.903 183.42C184.382 182.539 183.624 181.822 182.716 181.35C181.808 180.877 180.786 180.669 179.765 180.747C175.669 180.737 171.574 180.733 167.478 180.734C160.245 180.73 153.012 180.728 145.778 180.727C136.853 180.727 127.926 180.727 118.998 180.727C109.814 180.727 100.627 180.727 91.439 180.727C83.459 180.727 75.4787 180.729 67.498 180.733C62.0804 180.733 56.6624 180.736 51.2442 180.743C49.9832 180.743 48.7218 180.746 47.4602 180.751C44.5847 180.76 44.5792 185.225 47.4602 185.216C50.9779 185.204 54.4966 185.206 58.0153 185.203C64.7138 185.199 71.4123 185.196 78.1108 185.195C86.6506 185.195 95.1907 185.195 103.731 185.195C112.773 185.195 121.815 185.195 130.857 185.195C139.062 185.195 147.267 185.196 155.472 185.2C161.501 185.2 167.531 185.203 173.56 185.209C175.34 185.209 177.12 185.212 178.9 185.216C179.408 185.171 179.918 185.171 180.425 185.216C181.504 185.425 181.05 187.691 181.044 188.571C180.989 197.12 180.882 205.667 180.771 214.214C180.629 225.151 180.466 236.087 180.283 247.023C180.124 256.399 179.958 265.775 179.724 275.15C179.703 276.014 179.68 276.879 179.656 277.743C179.641 278.301 179.824 279.206 179.245 279.484C178.724 279.591 178.188 279.605 177.662 279.524C175.974 279.511 174.286 279.502 172.598 279.498C166.694 279.475 160.789 279.462 154.884 279.458C146.755 279.447 138.625 279.44 130.495 279.437C121.518 279.433 112.54 279.433 103.563 279.437C95.1153 279.437 86.6671 279.443 78.2179 279.454C71.6751 279.46 65.1327 279.471 58.5906 279.488C56.4645 279.494 54.3381 279.503 52.2113 279.513L50.1066 279.527C49.657 279.527 48.8351 279.67 48.5111 279.395C48.0457 279.004 48.244 277.94 48.2319 277.377C48.2089 276.501 48.1863 275.623 48.1639 274.745C48.1143 272.742 48.0677 270.739 48.0243 268.735C47.92 263.953 47.827 259.171 47.745 254.388C47.5471 243.459 47.3742 232.53 47.2265 221.601C47.0956 212.168 46.9839 202.736 46.8914 193.303C46.8772 191.699 46.8647 190.095 46.8542 188.491C46.8542 187.735 46.4074 185.278 47.4742 185.218C50.3198 185.054 50.3394 180.588 47.4621 180.749Z" fill="#2E6669"/>
<path d="M58.1289 272.061C71.7829 271.977 85.4378 272.048 99.0917 272.09C115.632 272.141 132.172 272.065 148.713 272.04C155.243 272.03 161.775 272.02 168.306 272.061C171.182 272.079 171.185 267.614 168.306 267.596C154.96 267.513 141.614 267.584 128.269 267.626C111.563 267.679 94.8572 267.599 78.151 267.575C71.4766 267.564 64.8033 267.554 58.1289 267.596C55.2554 267.614 55.2488 272.079 58.1289 272.061Z" fill="#2E6669"/>
<path d="M105.476 223.613C105.473 225.361 105.473 227.109 105.476 228.856C105.476 230.827 105.209 232.993 106.741 234.514C108.23 235.99 110.267 235.746 112.18 235.744C113.902 235.744 115.624 235.744 117.347 235.744C118.344 235.822 119.344 235.634 120.245 235.199C120.746 234.916 121.185 234.534 121.534 234.076C121.883 233.619 122.135 233.094 122.275 232.536C122.424 231.584 122.47 230.62 122.414 229.659C122.414 228.739 122.414 227.819 122.414 226.898C122.414 226.056 122.414 225.215 122.414 224.374C122.497 223.334 122.274 222.293 121.773 221.378C121.449 220.86 121.016 220.418 120.503 220.083C119.991 219.749 119.412 219.53 118.807 219.442C118 219.365 117.189 219.342 116.379 219.373H110.615C109.505 219.268 108.391 219.506 107.421 220.056C106.835 220.448 106.352 220.976 106.013 221.595C105.675 222.214 105.491 222.905 105.476 223.61C105.481 224.201 105.717 224.766 106.135 225.184C106.553 225.602 107.119 225.839 107.711 225.843C108.299 225.83 108.86 225.591 109.277 225.175C109.693 224.759 109.932 224.198 109.945 223.61C109.97 223.043 109.812 224.062 109.979 223.537L109.886 223.771C110.018 223.564 109.996 223.584 109.822 223.829C109.969 223.736 110.069 223.711 109.74 223.863C110.205 223.651 109.286 223.871 109.806 223.822C109.174 223.881 110.036 223.838 110.192 223.838H117.526C117.795 223.8 118.069 223.803 118.337 223.845L118.078 223.822C118.315 223.899 118.291 223.884 118.003 223.779C118.461 223.965 117.685 223.593 118.061 223.829L117.913 223.631C118.032 223.846 118.03 223.817 117.906 223.538C118.067 224.045 117.953 223.06 117.941 223.611C117.934 223.895 117.941 224.179 117.941 224.463C117.941 225.173 117.941 225.882 117.941 226.592C117.941 228.058 117.938 229.525 117.931 230.992C117.954 231.167 117.954 231.344 117.931 231.519L117.98 231.268C117.959 231.378 117.931 231.486 117.893 231.591C117.986 231.498 117.958 231.159 117.893 231.498L118.04 231.3C117.862 231.466 117.889 231.454 118.12 231.263C117.608 231.396 118.475 231.205 118.133 231.277C117.805 231.348 118.691 231.3 118.139 231.285C117.815 231.275 117.487 231.285 117.166 231.285C115.759 231.281 114.353 231.281 112.947 231.285H110.881H110.043C109.883 231.308 109.72 231.306 109.56 231.278C109.845 231.322 109.905 231.322 109.741 231.278C109.577 231.234 109.633 231.251 109.893 231.347C109.391 231.135 110.278 231.6 109.833 231.3C110.007 231.549 110.028 231.568 109.895 231.359L109.984 231.594L109.934 231.434C109.88 231.187 109.885 231.216 109.946 231.522C109.879 231.461 109.946 230.913 109.946 230.812C109.942 230.024 109.939 229.236 109.938 228.447C109.938 226.835 109.938 225.222 109.938 223.61C109.938 223.018 109.703 222.45 109.284 222.031C108.865 221.613 108.297 221.377 107.704 221.377C107.112 221.377 106.543 221.613 106.124 222.031C105.705 222.45 105.47 223.018 105.47 223.61L105.476 223.613Z" fill="#2E6669"/>
<path d="M369.116 238.127V279.955L371.35 277.722H247.894C246.236 277.722 244.517 277.593 242.861 277.722C242.789 277.728 242.714 277.722 242.641 277.722L244.875 279.955C244.875 265.525 244.875 251.094 244.875 236.663L242.641 238.896H250.938C253.813 238.896 253.818 234.431 250.938 234.431H242.641C242.051 234.439 241.487 234.677 241.07 235.094C240.653 235.511 240.415 236.074 240.406 236.663C240.41 251.094 240.41 265.525 240.406 279.955C240.415 280.544 240.653 281.107 241.07 281.524C241.487 281.941 242.051 282.179 242.641 282.187H355.498C360.698 282.187 365.931 282.357 371.129 282.187C371.203 282.187 371.276 282.187 371.35 282.187C371.94 282.179 372.503 281.941 372.92 281.524C373.337 281.107 373.575 280.544 373.584 279.955V238.127C373.584 235.253 369.116 235.248 369.116 238.127Z" fill="#2E6669"/>
<path d="M252.3 260.541H361.495C364.37 260.541 364.376 256.076 361.495 256.076H252.305C249.429 256.076 249.425 260.541 252.305 260.541H252.3Z" fill="#2E6669"/>
<path d="M252.3 250.011H361.495C364.37 250.011 364.376 245.546 361.495 245.546H252.305C249.429 245.546 249.425 250.011 252.305 250.011H252.3Z" fill="#2E6669"/>
<path d="M252.3 270.975H356.129C359.005 270.975 359.009 266.51 356.129 266.51H252.3C249.425 266.51 249.42 270.975 252.3 270.975Z" fill="#2E6669"/>
<path d="M378.77 219.22H267.241C261.925 219.22 256.593 219.098 251.277 219.22C251.164 219.22 251.049 219.22 250.936 219.22C250.346 219.228 249.782 219.466 249.365 219.883C248.948 220.3 248.71 220.863 248.702 221.453V236.662C248.693 236.941 248.742 237.219 248.845 237.479C248.947 237.738 249.102 237.974 249.298 238.172C249.321 238.199 249.347 238.223 249.371 238.249C249.395 238.274 249.399 238.276 249.414 238.29C249.612 238.489 249.85 238.646 250.112 238.75C250.374 238.854 250.654 238.903 250.936 238.895H378.77C379.36 238.887 379.923 238.649 380.34 238.232C380.757 237.815 380.995 237.252 381.004 236.662V221.453C380.995 220.863 380.757 220.3 380.34 219.883C379.923 219.467 379.36 219.229 378.77 219.22Z" fill="#2E6669"/>
<path d="M361.31 193.081V219.698C361.31 222.572 365.778 222.576 365.778 219.698V193.081C365.778 190.207 361.31 190.203 361.31 193.081Z" fill="#2E6669"/>
<path d="M245.47 204.088H353.105C355.98 204.088 355.985 199.623 353.105 199.623H245.47C242.594 199.623 242.59 204.088 245.47 204.088Z" fill="#2E6669"/>
<path d="M245.47 213.741H353.105C355.98 213.741 355.985 209.275 353.105 209.275H245.47C242.594 209.275 242.59 213.741 245.47 213.741Z" fill="#2E6669"/>
<path d="M250.935 189.68H234.832C234.241 189.687 233.678 189.925 233.26 190.342C232.843 190.759 232.605 191.322 232.597 191.912C232.663 199.402 232.604 206.889 232.604 214.383V221.453C232.612 222.043 232.85 222.606 233.268 223.023C233.685 223.44 234.248 223.678 234.838 223.686H250.942C253.817 223.686 253.822 219.221 250.942 219.221C245.576 219.221 240.208 219.221 234.838 219.221L237.072 221.453C237.072 212.605 237.072 203.756 237.072 194.907C237.072 193.908 237.072 192.909 237.072 191.91L234.838 194.143H250.942C253.817 194.143 253.822 189.678 250.942 189.678L250.935 189.68Z" fill="#2E6669"/>
<path d="M361.798 148.323V158.074C361.798 158.667 362.033 159.234 362.452 159.653C362.871 160.072 363.44 160.307 364.032 160.307C364.625 160.307 365.193 160.072 365.612 159.653C366.031 159.234 366.266 158.667 366.266 158.074V148.323C366.266 147.731 366.031 147.163 365.612 146.745C365.193 146.326 364.625 146.091 364.032 146.091C363.44 146.091 362.871 146.326 362.452 146.745C362.033 147.163 361.798 147.731 361.798 148.323Z" fill="#2E6669"/>
<path d="M345.152 155.842H235.323L237.557 158.074V148.323L235.323 150.556H248.301C251.177 150.556 251.181 146.091 248.301 146.091H235.323C234.733 146.099 234.17 146.337 233.753 146.754C233.336 147.171 233.098 147.734 233.089 148.323V158.074C233.098 158.664 233.336 159.227 233.753 159.644C234.17 160.061 234.733 160.299 235.323 160.307H345.152C348.026 160.307 348.031 155.842 345.152 155.842Z" fill="#2E6669"/>
<path d="M235.723 158.074V166.944C235.732 167.534 235.97 168.097 236.387 168.514C236.804 168.931 237.368 169.169 237.957 169.177H252.056C252.649 169.177 253.217 168.942 253.636 168.523C254.055 168.104 254.29 167.537 254.29 166.944C254.29 166.352 254.055 165.784 253.636 165.366C253.217 164.947 252.649 164.712 252.056 164.712H237.957L240.192 166.944V158.074C240.192 157.482 239.956 156.914 239.537 156.496C239.118 156.077 238.55 155.842 237.957 155.842C237.365 155.842 236.797 156.077 236.378 156.496C235.959 156.914 235.723 157.482 235.723 158.074Z" fill="#2E6669"/>
<path d="M378.617 164.712C369.031 164.712 359.445 164.712 349.859 164.712H252.056C251.777 164.704 251.5 164.753 251.24 164.855C250.98 164.958 250.744 165.112 250.546 165.309C250.519 165.331 250.495 165.356 250.47 165.381C250.445 165.405 250.441 165.409 250.429 165.423C250.229 165.622 250.072 165.859 249.968 166.121C249.863 166.383 249.814 166.663 249.822 166.944V191.912C249.831 192.501 250.069 193.064 250.486 193.481C250.903 193.898 251.466 194.136 252.056 194.144H378.617C379.207 194.136 379.77 193.898 380.187 193.481C380.604 193.064 380.843 192.501 380.851 191.912V166.944C380.843 166.355 380.604 165.792 380.187 165.375C379.77 164.958 379.207 164.72 378.617 164.712ZM263.182 169.177C263.63 168.749 264.226 168.51 264.846 168.51C265.466 168.51 266.062 168.749 266.51 169.177C266.698 169.374 266.846 169.607 266.944 169.861C267.041 170.115 267.088 170.386 267.08 170.659V187.829C267.096 188.201 267.009 188.571 266.829 188.897C266.648 189.223 266.381 189.493 266.056 189.677C265.891 189.768 265.714 189.838 265.531 189.885C265.491 189.897 265.452 189.907 265.411 189.915C265.044 189.997 264.662 189.997 264.294 189.915C264.254 189.907 264.213 189.897 264.173 189.885C263.991 189.837 263.815 189.767 263.649 189.677C263.324 189.494 263.056 189.224 262.874 188.898C262.692 188.572 262.604 188.202 262.62 187.829V170.659C262.612 170.387 262.659 170.115 262.756 169.861C262.854 169.607 263.001 169.374 263.189 169.177H263.182ZM272.634 169.177C272.733 169.052 272.847 168.939 272.974 168.842C273.003 168.819 273.034 168.799 273.067 168.778C273.167 168.708 273.273 168.645 273.383 168.592C273.422 168.574 273.461 168.557 273.5 168.541C273.616 168.493 273.736 168.455 273.859 168.426C273.893 168.419 273.924 168.409 273.958 168.402C274.277 168.342 274.605 168.342 274.924 168.402C274.956 168.409 274.987 168.419 275.017 168.426C275.141 168.455 275.262 168.493 275.38 168.541C275.418 168.557 275.456 168.574 275.495 168.592C275.605 168.645 275.712 168.707 275.812 168.778C275.843 168.799 275.874 168.819 275.905 168.842C276.031 168.939 276.145 169.051 276.244 169.176C276.535 169.558 276.687 170.028 276.675 170.508V187.977C276.687 188.305 276.619 188.631 276.477 188.927C276.335 189.223 276.124 189.48 275.86 189.676C275.445 189.969 274.95 190.126 274.442 190.126C273.934 190.126 273.438 189.969 273.023 189.676C272.759 189.48 272.547 189.223 272.405 188.927C272.263 188.631 272.195 188.305 272.207 187.977V170.509C272.195 170.029 272.346 169.56 272.636 169.177H272.634ZM327.454 176.998C327.453 176.615 327.527 176.237 327.673 175.884C327.819 175.53 328.034 175.209 328.304 174.939C328.574 174.669 328.895 174.455 329.249 174.309C329.602 174.163 329.981 174.088 330.364 174.089H365.897C366.67 174.089 367.411 174.396 367.957 174.942C368.504 175.488 368.811 176.229 368.811 177.001V181.853C368.811 182.625 368.504 183.366 367.957 183.912C367.411 184.458 366.67 184.765 365.897 184.765H330.371C329.989 184.766 329.61 184.691 329.257 184.545C328.903 184.399 328.582 184.185 328.311 183.916C328.041 183.646 327.826 183.325 327.679 182.972C327.532 182.62 327.457 182.241 327.456 181.859C327.456 180.363 327.456 178.535 327.454 176.998Z" fill="#2E6669"/>
<path d="M356.814 160.307H366.668L364.434 158.074V165.777C364.434 166.369 364.67 166.937 365.089 167.356C365.508 167.774 366.076 168.01 366.668 168.01C367.261 168.01 367.829 167.774 368.248 167.356C368.667 166.937 368.902 166.369 368.902 165.777V158.074C368.894 157.485 368.656 156.922 368.239 156.505C367.822 156.088 367.258 155.85 366.668 155.842H356.814C356.222 155.842 355.653 156.077 355.234 156.496C354.815 156.914 354.58 157.482 354.58 158.074C354.58 158.667 354.815 159.234 355.234 159.653C355.653 160.072 356.222 160.307 356.814 160.307Z" fill="#2E6669"/>
<path d="M312.428 80.6827C319.538 80.6306 326.418 77.2649 329.629 70.6991C332.854 64.1083 332.523 55.6448 328.079 49.6753C325.458 46.1318 321.693 43.6015 317.42 42.5124L319.06 44.665C319.004 41.1828 318.078 37.7698 316.366 34.7362C314.655 31.7025 312.212 29.1444 309.259 27.2943C305.971 25.359 302.233 24.3176 298.417 24.2739C294.6 24.2302 290.839 25.1855 287.507 27.045C283.945 29.106 281.092 32.1989 279.325 35.915L281.849 34.8917C279.493 34.4471 277.067 34.5402 274.752 35.1639C272.437 35.7876 270.293 36.9258 268.48 38.4937C266.69 40.1551 265.32 42.2164 264.481 44.5088C263.642 46.8012 263.358 49.2597 263.652 51.6828L265.886 49.4502C263.811 49.5102 261.768 49.9823 259.877 50.8392C257.986 51.696 256.284 52.9204 254.871 54.441C252.224 57.4856 250.801 61.4033 250.877 65.4361C250.953 69.4689 252.524 73.33 255.285 76.2723C258.116 79.0104 261.877 80.5806 265.816 80.6696C268.065 80.7627 270.329 80.6827 272.58 80.6827C275.455 80.6827 275.459 76.2174 272.58 76.2174C268.324 76.2174 263.675 76.8063 259.943 74.3569C254.93 71.0685 254.004 63.5566 257.216 58.6635C258.186 57.2477 259.477 56.0804 260.983 55.2561C262.489 54.4319 264.168 53.9738 265.884 53.9192C266.475 53.9141 267.041 53.6772 267.458 53.2596C267.876 52.842 268.113 52.2771 268.118 51.6866C267.848 49.9079 268.004 48.0905 268.574 46.3841C269.145 44.6777 270.113 43.1313 271.399 41.8723C272.641 40.7588 274.12 39.9402 275.723 39.4777C277.327 39.0153 279.014 38.9208 280.659 39.2016C281.134 39.3213 281.634 39.2866 282.088 39.1026C282.542 38.9185 282.925 38.5948 283.182 38.1783C284.445 35.5577 286.372 33.3131 288.772 31.6676C291.172 30.0221 293.961 29.033 296.862 28.7988C299.763 28.5646 302.675 29.0933 305.308 30.3325C307.941 31.5716 310.204 33.4779 311.871 35.862C313.579 38.4899 314.521 41.5414 314.59 44.6743C314.598 45.1611 314.761 45.6327 315.056 46.0201C315.352 46.4076 315.763 46.6906 316.23 46.8278C319.092 47.5418 321.671 49.1036 323.628 51.3082C325.586 53.5128 326.831 56.2573 327.2 59.1816C327.873 64.5771 325.936 70.5484 321.437 73.6146C318.764 75.3662 315.626 76.2738 312.431 76.2193C309.556 76.2407 309.549 80.7059 312.431 80.6845L312.428 80.6827Z" fill="#2E6669"/>
<path d="M290.091 66.8211L280.354 78.4205L278.042 81.174C277.297 81.9492 276.616 82.7836 276.007 83.669C275.781 84.0677 275.648 84.5116 275.616 84.9685C275.584 85.4253 275.654 85.8835 275.822 86.3097C275.989 86.7359 276.25 87.1193 276.585 87.4321C276.92 87.7448 277.32 87.979 277.757 88.1175C279.188 88.345 280.643 88.3876 282.085 88.244H284.991C285.159 88.2715 285.331 88.2715 285.5 88.244C286.088 88.0012 284.182 87.2142 284.412 86.8384C284.319 86.9872 284.412 87.484 284.412 87.6524V101.833C284.371 102.274 284.422 102.718 284.56 103.139C284.698 103.559 284.921 103.947 285.215 104.277C285.509 104.608 285.869 104.874 286.27 105.06C286.672 105.247 287.108 105.348 287.55 105.359C288.887 105.425 290.244 105.359 291.583 105.359H296.665C298.631 105.359 300.251 104.39 300.362 102.238C300.511 99.3541 300.362 96.4172 300.362 93.526V88.511C300.401 88.0436 300.401 87.5737 300.362 87.1063C300.351 87.043 300.396 86.8988 300.362 86.843C300.653 87.3147 298.181 88.0524 299.223 88.2384C299.958 88.3017 300.697 88.3017 301.432 88.2384H304.2C304.758 88.2384 305.327 88.2673 305.887 88.2384C306.661 88.2402 307.408 87.9508 307.978 87.4278C308.549 86.9047 308.902 86.1862 308.967 85.4151C309.075 83.5322 307.344 82.122 306.224 80.788L302.513 76.3739L294.942 67.3579C293.583 65.7383 291.755 65.4387 290.091 66.823C289.676 67.244 289.443 67.8112 289.443 68.4021C289.443 68.993 289.676 69.5602 290.091 69.9812C290.516 70.3882 291.082 70.6154 291.67 70.6154C292.259 70.6154 292.825 70.3882 293.25 69.9812L293.474 69.7951L292.488 70.3691H292.1L291.114 69.7951C292.39 71.0531 293.558 72.4168 294.604 73.8715L298.017 77.9377L301.431 82.0038L303.213 84.1248L303.958 85.0086L304.403 85.5388C304.77 86.0486 304.803 86.0083 304.501 85.4179L304.807 84.2913C305.498 82.8113 306.389 83.8662 305.802 83.776C305.642 83.7643 305.481 83.7643 305.321 83.776H300.043C298.815 83.776 297.636 83.7853 296.708 84.7639C296.403 85.1351 296.174 85.563 296.034 86.0229C295.894 86.4827 295.846 86.9657 295.894 87.444V100.84C295.894 101.141 295.729 102.022 295.894 102.286C295.783 102.109 297.531 101.014 297.248 100.891C297.178 100.86 297.062 100.903 296.984 100.891C296.581 100.86 296.176 100.86 295.774 100.891H288.595C288.275 100.869 287.955 100.869 287.635 100.891C286.753 101.019 288.735 102.992 288.882 102.193C288.933 101.592 288.933 100.988 288.882 100.387V93.0627C288.882 91.0283 288.975 88.9696 288.882 86.9342C288.779 84.7286 287.172 83.7713 285.127 83.7713H279.211C278.59 83.7192 278.779 83.8919 279.776 84.2895L280.081 85.416C280.108 85.6328 279.374 86.3937 279.912 85.8607C280.012 85.7611 280.098 85.6383 280.191 85.5295L280.874 84.7146L282.543 82.7276L286.32 78.2298L293.252 69.9738C293.657 69.5475 293.882 68.9823 293.882 68.3946C293.882 67.807 293.657 67.2418 293.252 66.8155C292.83 66.4018 292.262 66.1705 291.67 66.1715C291.079 66.1726 290.512 66.4059 290.091 66.8211Z" fill="#2E6669"/>
<path d="M368.373 129.902C355.82 129.902 343.267 129.902 330.715 129.902H296.295C294.615 133.06 292.887 136.126 290.905 139.763C288.804 136.088 287.157 133.085 285.499 129.902H241.812C241.222 129.911 240.659 130.149 240.242 130.566C239.825 130.982 239.587 131.545 239.578 132.135V148.321C239.587 148.911 239.825 149.474 240.242 149.891C240.659 150.308 241.222 150.546 241.812 150.554H368.373C368.963 150.546 369.526 150.308 369.943 149.891C370.36 149.474 370.599 148.911 370.607 148.321V132.135C370.599 131.545 370.36 130.982 369.943 130.566C369.526 130.149 368.963 129.911 368.373 129.902Z" fill="#2E6669"/>
<path d="M343.416 26.6813C338.371 19.4552 331.846 13.3827 324.276 8.86597C316.223 4.16988 307.25 1.2703 297.97 0.36621C280.79 -1.41988 263.238 3.34303 249.823 14.3126C237.48 24.6184 229.52 39.229 227.557 55.1825C225.475 71.3178 229.066 88.7574 238.448 102.174C247.584 115.041 261.369 123.851 276.888 126.743C278.984 127.147 281.102 127.448 283.225 127.673L281.297 126.567C283.727 131.41 286.288 136.181 288.981 140.882C289.182 141.214 289.465 141.488 289.803 141.679C290.141 141.869 290.522 141.97 290.91 141.97C291.298 141.97 291.68 141.869 292.018 141.679C292.356 141.488 292.639 141.214 292.839 140.882C295.429 136.137 298.101 131.436 300.512 126.596L298.582 127.702C314.838 126.036 330.391 119.003 340.75 106.088C351.996 92.0691 356.511 73.1495 354.293 55.4281C353.047 45.1069 349.316 35.2415 343.419 26.6767C343.11 26.1768 342.62 25.8148 342.051 25.6658C341.482 25.5167 340.877 25.5918 340.362 25.8757C339.854 26.1783 339.486 26.668 339.336 27.2394C339.186 27.8108 339.267 28.4181 339.561 28.9307C350.875 45.2102 353.112 66.327 347.08 85.0633C344.537 93.1286 340.146 100.49 334.257 106.562C328.368 112.634 321.142 117.249 313.155 120.041C308.424 121.62 303.539 122.689 298.581 123.232C296.636 123.466 296.135 125.389 295.344 126.917C294.696 128.164 294.037 129.404 293.365 130.638C291.917 133.306 290.435 135.958 288.98 138.624H292.839C291.468 136.224 290.118 133.813 288.812 131.378C288.2 130.239 287.597 129.094 287.003 127.943C286.389 126.757 285.876 125.432 285.153 124.309C284.355 123.069 282.913 123.187 281.616 123.014C280.583 122.875 279.553 122.704 278.529 122.515C276.52 122.142 274.532 121.677 272.564 121.119C265.171 119.055 258.279 115.499 252.313 110.671C239.99 100.543 233.031 85.5061 231.741 69.7401C230.438 53.8234 234.699 37.689 245.043 25.3194C250.264 19.1605 256.697 14.1403 263.942 10.5708C271.187 7.00136 279.089 4.95879 287.157 4.57004C296.569 4.00316 305.99 5.53735 314.735 9.06132C322.765 12.3914 329.928 17.5084 335.68 24.0226C337.064 25.5861 338.359 27.2263 339.559 28.9353C339.869 29.4347 340.359 29.7962 340.927 29.9452C341.496 30.0942 342.1 30.0195 342.616 29.7363C343.123 29.4337 343.492 28.944 343.642 28.3725C343.791 27.8011 343.71 27.1937 343.416 26.6813Z" fill="#2E6669"/>
</g>
<defs>
<clipPath id="clip0_956_3992">
<rect width="381" height="284" fill="white"/>
</clipPath>
</defs>
</svg>
