<svg width="520" height="520" viewBox="0 0 520 520" fill="none" xmlns="http://www.w3.org/2000/svg">
<circle cx="260" cy="260" r="260" fill="#E0F2F1"/>
<path d="M452.776 375.297L432.667 430.698L357.484 403.408L377.593 348.008C377.79 347.465 378.019 346.945 378.271 346.443L379.439 346.967L452.018 373.311L453.259 373.661C453.131 374.208 452.973 374.755 452.776 375.297Z" fill="white"/>
<path d="M432.667 430.698L430.999 435.294C428.488 442.212 420.842 445.785 413.915 443.271L363.805 425.083C356.879 422.569 353.308 414.913 355.822 407.987L357.484 403.408L432.667 430.698Z" fill="white"/>
<path d="M453.263 373.663L452.021 373.313L379.443 346.969L378.275 346.444C380.764 341.612 385.933 338.819 391.244 339.268C391.907 339.327 392.549 339.138 393.079 338.787C393.618 338.439 394.039 337.918 394.268 337.286C394.784 335.864 395.625 334.599 396.7 333.581L447.37 351.972C447.397 352.204 447.415 352.431 447.424 352.656C447.484 353.905 447.295 355.175 446.859 356.375C446.401 357.638 446.818 359.067 447.916 359.838C452.27 362.898 454.453 368.359 453.263 373.663Z" fill="white"/>
<path d="M402.178 389.518L381.926 382.167C379.417 381.256 376.644 382.552 375.733 385.061L372.602 393.687C371.692 396.196 372.987 398.969 375.497 399.88L395.749 407.231C398.258 408.141 401.031 406.846 401.941 404.336L405.072 395.71C405.983 393.201 404.687 390.428 402.178 389.518Z" fill="#2E6669"/>
<path d="M454.364 337.204L400.807 317.764C396.879 316.339 392.538 318.367 391.112 322.296L389.756 326.032C388.865 328.486 390.133 331.2 392.588 332.091L451.48 353.467C453.934 354.358 456.648 353.089 457.539 350.635L458.895 346.899C460.321 342.97 458.292 338.63 454.364 337.204Z" fill="#2E6669"/>
<path d="M374.38 394.333L377.122 386.778C377.524 385.673 377.87 384.592 379.031 384.045C380.017 383.581 380.924 383.816 381.871 384.16C387.439 386.181 393.007 388.201 398.573 390.222C400.395 390.883 403.158 391.359 403.446 393.686C403.577 394.745 403.018 395.826 402.664 396.8L400.928 401.583C400.602 402.481 400.358 403.599 399.797 404.39C398.945 405.591 397.517 405.845 396.195 405.379C394.005 404.608 391.829 403.794 389.646 403.002L379.1 399.174C376.875 398.367 373.323 397.581 374.38 394.332C375.131 392.021 371.578 390.72 370.823 393.041C369.897 395.888 370.758 399.053 373.252 400.821C374.094 401.419 375.062 401.734 376.019 402.081L394.245 408.697C395.466 409.14 396.658 409.481 397.988 409.376C400.648 409.165 402.79 407.354 403.743 404.916C404.815 402.176 405.781 399.379 406.76 396.604C408.172 392.602 406.095 388.926 402.232 387.524L384.092 380.94C383.025 380.552 381.953 380.095 380.808 380.003C377.733 379.757 375.031 381.667 373.931 384.479C372.83 387.292 371.858 390.19 370.823 393.042C369.992 395.33 373.548 396.625 374.38 394.333Z" fill="#2E6669"/>
<path d="M378.8 348.746C397.681 355.6 416.561 362.453 435.442 369.306C440.753 371.234 446.063 373.161 451.374 375.088C453.662 375.919 454.957 372.364 452.664 371.532C433.783 364.679 414.903 357.826 396.022 350.972C390.711 349.045 385.401 347.118 380.09 345.19C377.802 344.359 376.507 347.914 378.8 348.746Z" fill="#2E6669"/>
<path d="M357.362 405.372C376.599 412.355 395.837 419.338 415.075 426.321C420.55 428.308 426.025 430.295 431.501 432.283C433.79 433.113 435.084 429.558 432.792 428.726C413.554 421.744 394.317 414.761 375.079 407.778C369.604 405.791 364.129 403.804 358.652 401.816C356.364 400.985 355.069 404.54 357.362 405.372Z" fill="#2E6669"/>
<path d="M383.203 364.482L437.902 384.336C440.191 385.167 441.485 381.611 439.193 380.779L384.494 360.925C382.205 360.095 380.911 363.65 383.203 364.482Z" fill="#2E6669"/>
<path d="M379.975 373.374L434.674 393.228C436.963 394.059 438.257 390.504 435.965 389.672L381.266 369.818C378.978 368.987 377.683 372.542 379.975 373.374Z" fill="#2E6669"/>
<path d="M413.175 402.083L428.512 407.65C430.801 408.481 432.095 404.926 429.803 404.094L414.466 398.527C412.177 397.696 410.883 401.251 413.175 402.083Z" fill="#2E6669"/>
<path d="M410.593 409.196L425.93 414.763C428.219 415.593 429.513 412.038 427.221 411.206L411.884 405.639C409.595 404.808 408.301 408.364 410.593 409.196Z" fill="#2E6669"/>
<path d="M395.496 332.128C394.598 333.015 393.825 333.954 393.224 335.067C392.813 335.827 392.57 337.252 391.556 337.386C390.668 337.504 389.665 337.329 388.757 337.4C387.782 337.477 386.823 337.664 385.886 337.946C381.984 339.119 378.651 341.737 376.728 345.348C375.641 347.392 374.968 349.697 374.181 351.866C370.838 361.074 367.496 370.282 364.154 379.491L355.974 402.026C354.816 405.215 353.266 408.476 353.14 411.91C352.895 418.62 357.081 424.63 363.344 426.929C370.448 429.535 377.57 432.092 384.682 434.673C393.443 437.854 402.205 441.034 410.966 444.214C414.517 445.503 418.023 446.486 421.86 445.584C425.588 444.707 428.961 442.452 431.096 439.255C432.552 437.076 433.3 434.506 434.187 432.062L440.342 415.105C443.919 405.248 447.497 395.391 451.075 385.534L454.235 376.829C454.672 375.625 455.062 374.42 455.279 373.148C455.96 369.149 454.858 364.99 452.5 361.723C451.956 360.97 451.334 360.294 450.658 359.66C450.09 359.128 449.056 358.607 448.694 357.934C448.296 357.193 448.946 356.054 449.097 355.305C449.344 354.083 449.35 352.87 449.23 351.632C448.994 349.21 445.272 349.898 445.507 352.312C445.727 354.57 444.328 356.643 445.015 358.861C445.64 360.881 447.583 361.735 448.888 363.25C451.235 365.973 452.25 369.784 451.411 373.304C450.938 375.293 450.06 377.241 449.365 379.156L431.307 428.906C430.436 431.306 429.781 433.895 428.577 436.142C425.828 441.273 419.717 443.347 414.339 441.414C407.344 438.9 400.366 436.342 393.379 433.806C384.683 430.65 375.987 427.493 367.291 424.337C364.433 423.3 361.675 422.383 359.621 419.944C357.386 417.29 356.468 413.735 357.118 410.327C357.52 408.221 358.503 406.151 359.232 404.143L365.306 387.407C368.813 377.745 372.321 368.082 375.828 358.42L378.98 349.735C379.284 348.898 379.564 348.032 379.975 347.242C381.622 344.064 384.791 341.842 388.303 341.262C390.186 340.951 392.164 341.515 393.886 340.506C395.993 339.272 396.241 336.695 397.915 335.041C399.637 333.337 397.228 330.418 395.496 332.131L395.496 332.128Z" fill="#2E6669"/>
<path d="M455.009 335.426C445.566 331.998 436.121 328.57 426.678 325.142C420.551 322.919 414.423 320.694 408.297 318.471L402.78 316.468C400.904 315.787 399.083 315.261 397.032 315.496C394.46 315.789 392.046 317.27 390.54 319.36C389.515 320.784 389.017 322.521 388.424 324.153C387.733 326.058 387.28 327.884 387.982 329.885C388.648 331.786 390.148 333.162 391.996 333.888C395.04 335.082 398.154 336.123 401.227 337.238C414.092 341.908 426.959 346.578 439.824 351.248C443.39 352.542 446.947 353.858 450.52 355.13C454.094 356.402 457.883 354.879 459.316 351.279C460.697 347.812 462.013 344.262 460.474 340.59C459.46 338.173 457.428 336.361 455.008 335.424C452.737 334.545 451.446 338.101 453.717 338.981C455.767 339.774 457.232 341.589 457.44 343.803C457.584 345.333 456.947 346.717 456.438 348.119C455.968 349.414 455.659 350.947 454.294 351.589C453.513 351.957 452.727 351.895 451.94 351.619C448.783 350.511 445.647 349.335 442.502 348.194C430.233 343.74 417.963 339.287 405.693 334.833L394.125 330.634C392.562 330.067 391.013 329.096 391.406 327.108C391.652 325.865 392.275 324.631 392.706 323.444C393.294 321.822 394.21 320.487 395.821 319.733C398.91 318.289 402.884 320.529 405.815 321.593L422.736 327.735C432.873 331.414 443.01 335.093 453.147 338.773L453.716 338.979C456.005 339.81 457.299 336.255 455.007 335.423L455.009 335.426Z" fill="#2E6669"/>
<path d="M99.39 191.797C97.67 190.084 93.492 185.586 90.908 183.011C90.674 182.778 90.394 182.498 90.095 182.199C84.186 188.085 75.892 196.349 70.155 202.065C70.344 202.254 70.522 202.433 70.688 202.597C73.356 205.255 79.394 211.047 79.394 211.047C86.022 217.651 93.683 216.286 98.419 211.567C104.895 205.116 105.456 197.841 99.39 191.797Z" fill="white"/>
<path d="M143.719 198.02C144.024 197.34 144.338 196.652 144.548 195.936C144.758 195.217 144.814 194.437 144.886 193.7C144.909 193.463 144.921 193.23 144.904 192.994C144.852 192.245 144.779 191.463 144.59 190.732C144.401 189.999 144.069 189.281 143.757 188.601C143.633 188.33 143.488 188.072 143.317 187.827C142.851 187.159 142.356 186.47 141.793 185.872C141.204 185.246 140.454 184.749 139.772 184.245C139.491 184.038 139.202 183.847 138.886 183.697C138.173 183.357 137.417 183.017 136.647 182.817C135.007 182.391 133.64 182.474 132.004 182.735C131.751 182.776 131.503 182.834 131.261 182.92C130.545 183.172 129.805 183.445 129.132 183.805C128.656 184.061 128.241 184.406 127.813 184.732C127.719 184.804 127.635 184.882 127.541 184.952C127.192 185.177 126.863 185.441 126.56 185.747C125.904 186.411 125.336 187.19 124.816 187.955C124.284 188.738 123.956 189.672 123.629 190.544C123.291 191.448 123.193 192.466 123.141 193.416C123.129 193.643 123.142 193.866 123.167 194.091C123.246 194.824 123.285 195.615 123.52 196.328C124.087 198.05 124.714 199.031 125.841 200.42C126.565 201.313 127.557 202.026 128.498 202.656C129.363 203.235 130.403 203.648 131.404 203.898C132.118 204.077 132.882 204.148 133.609 204.205C133.852 204.224 134.093 204.223 134.336 204.202C136.22 204.045 138.141 203.623 139.697 202.486C140.507 201.894 141.304 201.341 141.939 200.569C142.575 199.797 143.3 198.958 143.719 198.022V198.02Z" fill="white"/>
<path d="M75.646 148.498C76.344 148.232 77.055 147.967 77.712 147.608C78.372 147.248 78.964 146.736 79.538 146.264C79.722 146.114 79.896 145.957 80.052 145.778C80.547 145.211 81.05 144.607 81.436 143.957C81.822 143.306 82.097 142.564 82.359 141.863C82.463 141.584 82.544 141.299 82.597 141.006C82.742 140.205 82.881 139.368 82.907 138.549C82.935 137.692 82.757 136.812 82.632 135.975C82.581 135.63 82.511 135.292 82.394 134.963C82.131 134.219 81.838 133.447 81.435 132.764C80.578 131.307 79.552 130.404 78.21 129.435C78.002 129.286 77.786 129.152 77.554 129.042C76.868 128.716 76.152 128.387 75.42 128.168C74.903 128.013 74.364 127.966 73.83 127.894C73.713 127.878 73.597 127.874 73.481 127.858C73.074 127.772 72.655 127.727 72.223 127.73C71.288 127.737 70.334 127.887 69.423 128.062C68.491 128.242 67.596 128.67 66.746 129.058C65.865 129.458 65.073 130.11 64.363 130.743C64.193 130.895 64.045 131.062 63.902 131.239C63.437 131.813 62.904 132.399 62.564 133.069C61.743 134.687 61.49 135.82 61.301 137.598C61.179 138.738 61.374 139.943 61.593 141.051C61.794 142.069 62.236 143.095 62.766 143.976C63.144 144.605 63.634 145.194 64.107 145.746C64.266 145.931 64.436 146.1 64.623 146.256C66.067 147.472 67.724 148.527 69.633 148.819C70.625 148.971 71.582 149.142 72.579 149.043C73.577 148.944 74.685 148.863 75.645 148.497L75.646 148.498Z" fill="white"/>
<path d="M135.25 119.295C138.467 119.483 141.447 120.982 143.741 123.268C150.217 129.719 150.778 136.994 144.712 143.038C142.992 144.751 138.814 149.249 136.23 151.824C135.994 152.059 135.721 152.332 135.418 152.635C129.76 147.001 120.9 138.175 115.476 132.771C115.665 132.582 115.843 132.403 116.009 132.239C118.677 129.581 124.715 123.789 124.715 123.789C128.133 120.383 131.825 119.097 135.25 119.297V119.295Z" fill="white"/>
<path d="M90.095 182.199C87.168 179.271 81.501 173.562 79.955 171.987C75.068 167.007 66.861 167.684 61.194 173.33C56.458 178.048 55.015 186.537 60.344 192.069C62.011 193.8 67.302 199.206 70.154 202.065C75.891 196.349 84.187 188.085 90.095 182.199Z" fill="#2E6669"/>
<path d="M115.477 132.77C112.625 135.628 107.335 141.034 105.667 142.765C100.338 148.297 101.781 156.786 106.517 161.504C112.184 167.15 120.391 167.827 125.278 162.847C126.823 161.272 132.491 155.563 135.418 152.635C129.738 146.976 120.928 138.2 115.477 132.77Z" fill="#2E6669"/>
<path d="M72.9401 202.107C77.8731 197.194 82.8051 192.279 87.7381 187.366C88.6841 186.423 89.6291 185.482 90.5751 184.539C92.3981 182.723 89.5701 179.904 87.7471 181.722C82.7421 186.708 77.7361 191.695 72.7311 196.682L70.1131 199.29C68.2901 201.106 71.1171 203.925 72.9401 202.107Z" fill="#2E6669"/>
<path d="M72.102 201.188C69.116 198.209 66.167 195.192 63.225 192.171C61.922 190.833 60.611 189.552 59.83 187.821C58.983 185.944 58.759 183.783 59.073 181.757C60.404 173.145 71.823 166.615 78.736 173.592C84.364 179.272 90.027 184.913 95.548 190.696C98.622 193.917 102.183 197.153 101.568 202.045C101.009 206.488 97.28 211.078 93.152 212.784C88.515 214.7 84.048 212.764 80.644 209.479C77.789 206.724 74.916 203.985 72.103 201.188C70.279 199.374 67.45 202.19 69.275 204.005C72.065 206.781 74.912 209.499 77.746 212.23C81.573 215.916 86.349 218.267 91.768 217.309C97.217 216.346 101.917 211.914 104.176 207.011C106.73 201.466 105.578 195.671 101.54 191.162C95.403 184.31 88.654 177.956 82.191 171.409C80.624 169.822 78.997 168.468 76.904 167.617C74.387 166.593 71.644 166.448 68.985 166.923C63.635 167.878 58.706 171.767 56.485 176.692C53.941 182.334 54.612 188.89 58.932 193.477C62.302 197.055 65.794 200.533 69.275 204.004C71.097 205.822 73.926 203.004 72.103 201.187L72.102 201.188Z" fill="#2E6669"/>
<path d="M115.433 135.544C120.366 140.457 125.298 145.372 130.231 150.285C131.177 151.228 132.122 152.169 133.068 153.112C134.891 154.928 137.72 152.111 135.896 150.294C130.891 145.308 125.885 140.321 120.88 135.334L118.262 132.726C116.439 130.91 113.609 133.727 115.433 135.544Z" fill="#2E6669"/>
<path d="M114.595 130.828C111.379 134.036 108.203 137.284 105.039 140.544C103.264 142.373 101.804 144.313 100.984 146.753C100.134 149.283 100.097 152.035 100.63 154.632C102.827 165.337 116.683 172.572 125.803 165.07C127.187 163.931 128.397 162.527 129.657 161.257C131.33 159.571 133.004 157.885 134.68 156.201C138.063 152.805 141.384 149.357 144.706 145.902C146.493 144.044 148.342 142.237 149.49 139.892C150.771 137.276 151.217 134.445 150.723 131.572C149.799 126.193 145.467 120.843 140.49 118.611C134.325 115.846 128.002 117.875 123.3 122.38C120.38 125.177 117.461 127.978 114.594 130.83C112.77 132.644 115.598 135.463 117.422 133.647C120.084 130.999 122.795 128.4 125.503 125.798C128.329 123.082 131.626 120.828 135.752 121.33C140.314 121.883 144.096 125.666 145.962 129.663C146.913 131.701 147.23 134.002 146.649 136.187C146.018 138.561 144.521 140.378 142.831 142.099C137.014 148.024 131.235 153.981 125.395 159.885C124.245 161.048 123.167 162.267 121.718 163.07C119.906 164.074 117.753 164.396 115.706 164.125C111.19 163.527 107.03 160.291 105.258 156.13C104.334 153.962 103.981 151.438 104.48 149.123C104.965 146.873 106.133 145.149 107.714 143.519C110.926 140.206 114.154 136.906 117.422 133.646C119.244 131.83 116.416 129.012 114.594 130.83L114.595 130.828Z" fill="#2E6669"/>
<path d="M145.446 199.025C146.628 196.388 147.176 193.827 146.672 190.945C146.236 188.455 144.788 185.934 142.945 184.2C138.914 180.407 132.703 179.242 127.843 182.245C123.388 184.998 120.64 189.972 121.285 195.213C121.882 200.064 125.86 204.395 130.537 205.726C136.315 207.371 142.816 204.406 145.446 199.024C145.919 198.057 145.71 196.87 144.728 196.298C143.849 195.786 142.466 196.041 141.992 197.014C140.396 200.279 136.918 202.491 133.242 202.178C129.849 201.891 126.816 199.448 125.621 196.287C124.369 192.979 125.714 188.965 128.421 186.758C131.489 184.256 135.568 183.663 138.91 186.071C142.531 188.68 143.832 192.911 141.992 197.014C141.552 197.995 141.706 199.156 142.71 199.74C143.564 200.237 145.004 200.013 145.446 199.024V199.025Z" fill="#2E6669"/>
<path d="M134.844 189.766C133.363 191.241 131.883 192.716 130.402 194.191C130.039 194.553 129.816 195.089 129.816 195.6C129.816 196.089 130.034 196.672 130.402 197.009C130.783 197.358 131.284 197.617 131.816 197.593C132.348 197.569 132.847 197.39 133.23 197.009L133.5 196.74C133.863 196.378 134.086 195.842 134.086 195.331C134.086 194.842 133.868 194.259 133.5 193.922C133.119 193.574 132.618 193.315 132.086 193.339C131.554 193.363 131.055 193.541 130.672 193.922L130.402 194.191L133.23 197.009C134.711 195.533 136.191 194.059 137.672 192.583C138.035 192.222 138.258 191.686 138.258 191.175C138.258 190.686 138.04 190.103 137.672 189.766C137.291 189.417 136.79 189.158 136.258 189.182C135.726 189.206 135.227 189.384 134.844 189.766Z" fill="#2E6669"/>
<path d="M76.178 150.42C78.867 149.396 81.06 147.969 82.743 145.598C84.216 143.522 84.973 140.713 84.908 138.181C84.769 132.779 81.581 128.292 76.499 126.432C71.635 124.652 65.396 126.256 62.133 130.265C58.87 134.274 58.316 140.306 60.955 144.832C63.944 149.96 70.544 152.356 76.179 150.418C78.598 149.586 77.558 145.736 75.116 146.576C71.684 147.755 67.651 146.861 65.287 144.058C63.039 141.391 62.64 137.354 64.211 134.245C65.927 130.847 69.867 129.412 73.484 129.851C77.101 130.29 80.059 132.881 80.706 136.504C81.504 140.97 79.383 144.951 75.116 146.576C74.108 146.96 73.413 147.918 73.719 149.026C73.984 149.988 75.165 150.805 76.179 150.418L76.178 150.42Z" fill="#2E6669"/>
<path d="M75.229 136.409C73.135 136.409 71.041 136.409 68.947 136.409C67.901 136.409 66.899 137.326 66.947 138.402C66.995 139.478 67.826 140.394 68.947 140.394H69.329C70.375 140.394 71.377 139.478 71.329 138.402C71.281 137.326 70.45 136.409 69.329 136.409H68.947V140.394C71.041 140.394 73.135 140.394 75.229 140.394C76.275 140.394 77.277 139.478 77.229 138.402C77.181 137.326 76.35 136.409 75.229 136.409Z" fill="#2E6669"/>
<path d="M332.202 229.869C335.425 237.998 337.561 247.386 338.012 258.17C338.376 266.874 337.337 275.392 336.333 283.491L336.328 283.527C336.681 283.539 337.032 283.572 337.38 283.625C340.405 284.075 343.159 285.896 344.543 288.378C345.522 290.118 345.838 292.1 346.018 294.033C346.68 301.655 345.175 309.422 341.713 316.367C340.028 319.751 337.83 322.99 334.775 325.456C332.035 327.638 329.28 328.718 324.852 326.643C322.195 335.488 317.442 346.103 309.183 355.967C299.176 367.922 287.993 374.668 274.964 377.513C268.969 378.821 263.172 379.105 257.66 379.264C252.149 379.105 246.884 378.513 241.712 377.559C228.598 375.139 216.146 367.922 206.139 355.967C198.234 346.524 193.541 336.394 190.822 327.777C186.209 329.905 182.801 327.563 180.155 325.456C177.1 322.991 174.902 319.751 173.217 316.367C169.756 309.422 168.25 301.655 168.912 294.033C169.093 292.1 169.409 290.117 170.387 288.378C171.771 285.896 174.525 284.075 177.55 283.625C178.535 283.478 179.544 283.479 180.527 283.627L180.131 281.126C179.512 277.218 178.115 265.78 178.433 258.17C179.764 226.338 196.41 206.67 211.108 195.629C223.768 186.121 239.585 180.446 258.216 180.446C277.482 180.446 292.48 186.378 305.329 195.629C315.469 202.929 325.905 214.002 332.196 229.869H332.202Z" fill="white"/>
<path d="M200.619 192.134C191.983 198.989 185.925 206.223 186.069 206.76C186.069 206.76 187.512 207.933 189.198 209.289C183.786 215.554 178.108 225.703 175.452 236.529C172.228 249.676 172.431 271.609 177.984 283.559C180.787 283.333 183.683 284.282 185.689 286.089L196.425 281.73C198.477 273.488 200.51 266.236 202.274 257.929C202.274 257.929 199.59 255.445 197.029 253.075C199.061 249.902 201.489 246.394 203.505 244.272C205.618 242.047 209.132 239.014 211.57 237.15C215.642 234.035 220.942 229.775 225.015 226.661C225.015 226.661 224.623 224.823 224.137 222.554C235.321 219.637 250.952 223.657 257.009 232.861C262.458 230.425 270.478 230.968 276.431 231.484C282.894 232.045 287.251 232.977 292.916 234.804C297.587 236.308 304.215 238.913 308.881 241.933C311.561 244.011 315.315 247.148 318.051 252.011C324.527 263.52 328.372 279.22 327.79 286.974C329.907 284.417 333.624 283.112 337.069 283.626C337.988 283.763 338.881 284.026 339.712 284.409C344.808 266.961 343.369 245.022 338.308 231.897C334.797 222.79 327.813 210.542 316.913 205.505L308.515 196.645C303.832 187.325 292.776 179.7 279.911 175.197C270.901 172.043 250.823 170.511 234.61 173.166L234.999 177.252C229.045 177.98 224.054 179.597 218.362 181.664C212.037 183.962 205.853 187.98 200.617 192.136L200.619 192.134Z" fill="#2E6669"/>
<path d="M258.714 312.178C259.312 314.456 259.888 316.771 260.23 319.103L260.113 318.231C260.153 318.551 260.171 318.866 260.139 319.187L260.257 318.315C260.234 318.464 260.201 318.602 260.152 318.745L260.483 317.961C260.439 318.062 260.392 318.147 260.332 318.238L260.846 317.574C260.775 317.661 260.707 317.727 260.62 317.797L261.285 317.284C261.109 317.396 260.925 317.487 260.735 317.574L261.52 317.243C261.218 317.369 260.918 317.461 260.593 317.513L261.467 317.396C261.175 317.43 260.889 317.429 260.597 317.395L261.471 317.512C261.143 317.467 260.821 317.387 260.493 317.343C259.575 317.219 258.796 317.185 257.961 317.674C257.279 318.072 256.628 318.852 256.45 319.635C256.257 320.475 256.299 321.418 256.781 322.163C257.208 322.825 257.924 323.56 258.746 323.671C259.468 323.768 260.168 323.952 260.903 323.984C262.017 324.033 263.055 323.695 264.052 323.241C265.276 322.683 266.23 321.599 266.555 320.282C266.831 319.169 266.711 318.18 266.522 317.065C266.144 314.834 265.628 312.623 265.053 310.435C264.617 308.774 262.685 307.602 261.009 308.143C259.297 308.696 258.245 310.4 258.713 312.18L258.714 312.178Z" fill="#2E6669"/>
<path d="M222.184 292.827C221.051 296.501 221.789 304.952 228.763 305.671C237.979 305.616 238.47 295.399 235.367 290.594C232.827 286.66 225.357 285.025 222.184 292.827Z" fill="#2E6669"/>
<path d="M295.685 292.827C296.818 296.501 296.08 304.953 289.107 305.672C279.89 305.616 279.4 295.398 282.503 290.595C285.043 286.661 292.512 285.026 295.686 292.827H295.685Z" fill="#2E6669"/>
<path d="M331.262 288.409C334.231 285.879 339.259 286.365 341.476 289.647C342.734 291.51 342.794 294.1 342.864 296.267C342.942 298.765 342.82 301.289 342.395 303.754C341.536 308.735 339.813 313.593 337.102 317.877C335.082 321.066 331.757 325.349 327.541 324.185C323.457 323.057 321.714 329.387 325.794 330.513C336.836 333.562 344.115 320.667 347.067 312.026C348.784 306.999 349.609 301.578 349.441 296.268C349.267 290.801 348.053 285.602 343.237 282.409C338.056 278.974 331.223 279.842 326.615 283.77C325.265 284.922 325.429 287.227 326.615 288.411C327.955 289.747 329.911 289.565 331.265 288.411L331.262 288.409Z" fill="#2E6669"/>
<path d="M188.322 283.769C184.07 280.143 178.248 279.21 173.146 281.606C168.004 284.019 166.047 288.964 165.607 294.312C164.736 304.91 167.918 316.605 174.825 324.81C178.606 329.302 184.105 332.923 190.175 331.504C194.293 330.541 192.549 324.212 188.427 325.176C184.402 326.118 180.42 321.686 178.409 318.749C175.456 314.438 173.592 309.425 172.64 304.307C172.181 301.842 172.015 299.332 172.058 296.828C172.099 294.514 172.111 291.647 173.461 289.649C175.677 286.365 180.704 285.879 183.674 288.411C185.023 289.561 186.998 289.734 188.323 288.411C189.504 287.232 189.679 284.926 188.323 283.77L188.322 283.769Z" fill="#2E6669"/>
<path d="M185.761 321.594C191.443 346.913 208.87 371.185 234.424 379.139C241.105 381.219 248.261 382.082 255.229 382.448C262.647 382.838 270.489 382.052 277.689 380.244C290.21 377.103 301.15 369.93 309.711 360.367C319.522 349.407 326.35 335.927 329.567 321.594C330.49 317.48 324.152 315.723 323.227 319.85C318.142 342.505 302.918 365.244 280.012 372.744C267.392 376.876 253.161 376.873 240.283 373.92C228.46 371.208 218.118 364.482 210.077 355.507C201.081 345.466 195.043 332.954 192.102 319.851C191.177 315.732 184.836 317.473 185.761 321.594Z" fill="#2E6669"/>
<path d="M221.459 226.687C226.933 224.505 232.938 224.423 238.665 225.716C244.089 226.94 249.914 229.587 253.085 233.84C254.143 235.26 255.93 235.982 257.583 235.017C258.985 234.198 259.828 231.958 258.762 230.528C254.423 224.708 247.825 221.147 240.83 219.485C233.99 217.86 226.322 217.724 219.711 220.359C218.064 221.016 216.907 222.552 217.415 224.395C217.845 225.959 219.801 227.349 221.459 226.687Z" fill="#2E6669"/>
<path d="M252.386 211.201C253.541 211.483 254.681 211.82 255.798 212.226C256.103 212.337 256.404 212.456 256.706 212.572C257.236 212.777 256.657 212.543 256.966 212.681C257.508 212.923 258.045 213.174 258.575 213.444C259.587 213.958 260.571 214.526 261.523 215.142C262.022 215.465 262.512 215.801 262.993 216.149C263.05 216.191 263.694 216.673 263.438 216.476C263.261 216.339 263.892 216.843 263.992 216.926C265.78 218.405 267.42 220.07 268.857 221.893C268.582 221.544 268.93 221.995 269.029 222.13C269.188 222.347 269.346 222.567 269.5 222.788C269.871 223.319 270.224 223.86 270.561 224.413C271.18 225.428 271.733 226.478 272.237 227.553C272.988 229.16 275.303 229.566 276.734 228.731C278.385 227.768 278.668 225.853 277.914 224.241C273.44 214.671 264.396 207.376 254.133 204.874C252.465 204.468 250.491 205.403 250.089 207.166C249.704 208.859 250.599 210.766 252.386 211.201Z" fill="#2E6669"/>
<path d="M280.272 215.217C280.576 215.409 280.877 215.606 281.17 215.813C281.288 215.896 281.403 215.981 281.519 216.065C282.108 216.489 281.128 215.736 281.451 216.012C281.971 216.456 282.49 216.892 282.977 217.373C283.488 217.879 283.962 218.417 284.424 218.968C284.697 219.295 284.401 218.959 284.31 218.812C284.403 218.96 284.527 219.101 284.63 219.244C284.84 219.536 285.042 219.833 285.237 220.134C285.606 220.708 285.946 221.3 286.255 221.908C286.401 222.195 286.54 222.487 286.673 222.781C286.96 223.419 286.705 222.694 286.638 222.69C286.683 222.693 286.816 223.148 286.833 223.191C287.072 223.83 287.276 224.48 287.447 225.14C287.537 225.487 287.616 225.836 287.687 226.189C287.742 226.459 287.914 227.6 287.778 226.591C287.9 227.497 288.065 228.237 288.742 228.911C289.312 229.48 290.248 229.909 291.066 229.873C292.652 229.802 294.599 228.414 294.354 226.591C293.886 223.112 292.826 219.797 290.913 216.821C289.026 213.887 286.544 211.412 283.589 209.55C282.132 208.633 279.901 209.197 279.091 210.728C278.235 212.346 278.717 214.238 280.272 215.217Z" fill="#2E6669"/>
<path d="M305.94 244.251C309.111 246.807 312.243 249.727 314.351 253.245C316.357 256.59 317.93 260.234 319.276 263.888C321.718 270.515 323.722 277.636 323.935 284.608C324.064 288.821 330.639 288.84 330.51 284.608C330.272 276.8 328.164 268.934 325.436 261.655C323.908 257.581 322.183 253.44 319.9 249.721C317.505 245.82 314.138 242.47 310.589 239.61C309.21 238.497 307.289 238.263 305.94 239.61C304.787 240.761 304.552 243.131 305.94 244.251Z" fill="#2E6669"/>
<path d="M222.737 223.826C216.472 228.626 210.002 233.349 204.095 238.586C198.711 243.362 194.792 249.26 191.111 255.391C188.932 259.024 194.614 262.327 196.789 258.704C200.204 253.015 203.75 247.657 208.745 243.227C214.229 238.363 220.226 233.959 226.055 229.493C227.461 228.415 228.211 226.67 227.235 225.004C226.426 223.622 224.155 222.741 222.737 223.826Z" fill="#2E6669"/>
<path d="M198.486 257.056C196.779 265.049 194.614 272.93 192.636 280.857C192.208 282.576 193.192 284.416 194.933 284.893C196.617 285.355 198.547 284.328 198.977 282.601C200.954 274.674 203.12 266.794 204.826 258.801C205.195 257.069 204.313 255.253 202.53 254.765C200.894 254.315 198.858 255.315 198.486 257.056Z" fill="#2E6669"/>
<path d="M189.308 203.823C185.37 207.408 182.189 211.901 179.52 216.482C176.278 222.044 173.691 228.082 172.014 234.299C169.191 244.769 168.825 256.202 169.991 266.942C170.648 272.991 171.818 278.908 174.214 284.522C174.911 286.152 177.317 286.513 178.712 285.699C180.403 284.712 180.591 282.847 179.892 281.21C178.28 277.434 177.235 272.474 176.702 268.113C176.05 262.794 175.883 257.414 176.103 252.063C176.542 241.43 178.962 231.254 184.054 221.83C186.69 216.952 189.832 212.219 193.957 208.465C197.09 205.612 192.429 200.982 189.307 203.824L189.308 203.823Z" fill="#2E6669"/>
<path d="M242.942 173.552C231.552 173.388 219.833 176.305 209.776 181.675C201.221 186.244 193.456 192.697 186.854 199.766C185.759 200.939 184.703 202.143 183.721 203.41C182.997 204.344 182.041 205.489 182.163 206.76C182.332 208.524 183.552 210.041 185.45 210.041C187.097 210.041 188.908 208.534 188.738 206.76C188.763 207.029 188.508 208.09 188.376 208.154C188.441 208.123 188.519 207.903 188.566 207.843C188.653 207.729 188.737 207.604 188.816 207.485C189.293 206.77 188.499 207.829 188.846 207.442C189.709 206.478 190.518 205.467 191.401 204.517C194.077 201.642 196.946 198.942 199.945 196.405C203.539 193.366 207.366 190.596 211.452 188.252C215.773 185.772 220.385 184.061 225.144 182.613C230.978 180.839 236.843 180.027 242.941 180.115C247.173 180.176 247.177 173.613 242.942 173.552Z" fill="#2E6669"/>
<path d="M310.737 194.988C305.569 184.905 295.211 178.212 285.048 173.926C275.211 169.778 264.54 168.682 253.931 168.537C246.965 168.441 240.001 168.895 233.121 170.001C231.367 170.282 230.391 172.462 230.825 174.037C231.338 175.9 233.11 176.612 234.869 176.329C245.641 174.598 256.953 174.619 267.763 176.035C277.477 177.307 286.645 180.938 294.613 186.662C298.884 189.731 302.651 193.601 305.06 198.301C306.988 202.062 312.663 198.745 310.737 194.988Z" fill="#2E6669"/>
<path d="M314.638 208.337C323.89 212.711 329.949 221.958 333.814 231.006C338.003 240.813 339.212 252.091 338.962 262.754C338.802 269.532 337.94 276.256 336.137 282.799C335.013 286.877 341.355 288.617 342.477 284.543C345.949 271.937 346.326 258.51 344.472 245.612C342.935 234.912 339.135 224.491 332.739 215.704C328.84 210.345 324.016 205.535 317.956 202.672C316.353 201.913 314.408 202.227 313.458 203.849C312.621 205.278 313.026 207.578 314.638 208.339V208.337Z" fill="#2E6669"/>
<path d="M252.594 347.901C253.157 347.193 253.769 346.533 254.45 345.936C254.584 345.819 255.008 345.473 254.651 345.747C254.82 345.618 254.995 345.496 255.17 345.376C255.564 345.106 255.973 344.857 256.393 344.626C256.579 344.524 256.767 344.426 256.958 344.332C257.048 344.288 257.693 343.998 257.191 344.206C257.583 344.043 257.987 343.906 258.393 343.782C258.851 343.643 259.315 343.527 259.784 343.435C259.842 343.423 260.467 343.316 260.133 343.364C259.768 343.417 260.6 343.329 260.586 343.33C260.973 343.307 261.362 343.309 261.75 343.328C261.834 343.331 262.633 343.405 262.194 343.353C261.81 343.307 262.423 343.397 262.49 343.41C262.931 343.495 263.369 343.604 263.797 343.736C263.982 343.793 264.954 344.162 264.426 343.935C265.257 344.293 266.052 344.758 266.782 345.29C266.337 344.964 267.131 345.604 267.271 345.737C267.633 346.079 267.964 346.446 268.28 346.83C269.378 348.16 271.808 348.05 272.93 346.83C274.229 345.416 274.1 343.609 272.93 342.189C270.033 338.679 265.145 336.508 260.586 336.765C255.738 337.037 250.966 339.454 247.943 343.257C246.878 344.598 246.532 346.605 247.943 347.898C249.132 348.987 251.451 349.334 252.593 347.898L252.594 347.901Z" fill="#2E6669"/>
<path d="M216.557 280.658C219.125 280.19 221.716 279.681 224.161 278.744C226.866 277.705 229.738 276.195 231.082 273.479C231.843 271.942 231.547 269.857 229.902 268.99C228.417 268.208 226.217 268.524 225.404 270.168C225.293 270.392 225.166 270.601 225.031 270.811C224.873 271.056 224.623 271.139 225.255 270.53C225.172 270.609 225.102 270.707 225.024 270.791C224.843 270.984 224.647 271.156 224.451 271.331C224.069 271.675 225.027 270.922 224.707 271.138C224.603 271.209 224.503 271.286 224.398 271.357C223.936 271.667 223.447 271.937 222.946 272.179C222.822 272.24 222.694 272.296 222.57 272.355C222.075 272.591 223.186 272.109 222.813 272.258C222.519 272.374 222.225 272.49 221.927 272.596C219.624 273.418 217.21 273.892 214.81 274.33C213.115 274.639 212.001 276.784 212.514 278.366C213.102 280.18 214.74 280.99 216.557 280.658Z" fill="#2E6669"/>
<path d="M348.301 205.263C352.975 207.339 357.888 208.061 362.954 207.252C367.323 206.555 372.059 204.622 373.988 200.347C375.987 195.913 374.968 190.792 371.839 187.139C368.91 183.718 363.968 181.666 359.54 183.212C357.373 183.969 355.687 185.798 355.236 188.062C354.825 190.119 355.586 192.18 356.431 194.028C357.929 197.306 361.072 199.698 364.465 200.77C372.395 203.274 382.652 201.915 388.175 195.171C391.034 191.68 392.655 187.327 392.653 182.799C392.65 178.35 390.864 174.035 388.705 170.212C384.674 163.073 375.142 154.869 366.414 159.108C362.16 161.174 360.822 165.8 361.63 170.185C362.5 174.912 365.984 178.869 369.408 182.037C376.008 188.141 387.358 193.773 395.897 188.131C403.821 182.896 404.225 172.49 401.414 164.272C398.801 156.632 392.076 148.451 383.934 146.412C381.786 145.875 379.619 145.875 377.463 146.357C373.335 147.279 375.082 153.608 379.21 152.685C384.287 151.55 389.462 156.788 392.175 160.561C395.579 165.294 397.849 172.552 395.762 178.219C394.948 180.431 393.277 182.423 391.041 183.296C387.906 184.522 384.346 183.584 381.412 182.247C378.3 180.83 375.555 178.912 373.132 176.509C370.9 174.295 368.429 171.692 367.969 168.441C367.825 167.429 367.875 166.431 368.458 165.657C368.87 165.108 369.701 164.702 370.633 164.592C373.218 164.288 376.043 165.874 378.016 167.501C380.652 169.673 382.498 172.303 383.989 175.359C385.286 178.017 386.222 180.739 386.052 183.725C385.716 189.636 381.418 193.741 375.844 195.005C373.046 195.638 370.208 195.506 367.447 194.789C366.852 194.635 366.258 194.476 365.681 194.265C365.078 194.044 366.276 194.598 365.36 194.129C365.166 194.029 364.975 193.923 364.787 193.809C364.194 193.445 364.313 193.508 363.753 192.989C363.479 192.735 363.217 192.47 362.954 192.205C362.719 191.949 362.725 191.978 362.973 192.292C362.849 192.113 362.734 191.929 362.626 191.74C362.344 191.252 362.156 190.835 361.994 190.374C361.869 190.018 361.816 189.617 361.678 189.27L361.692 189.486C361.692 189.112 361.678 189.099 361.65 189.448C361.482 189.361 361.931 189.353 361.702 189.393C362.289 189.289 363.175 189.222 363.772 189.349C366.438 189.92 368.59 193.053 368.487 195.689C368.362 198.922 365.552 199.966 362.797 200.619C359.133 201.488 355.07 201.132 351.623 199.6C350.002 198.879 348.09 199.131 347.125 200.778C346.306 202.176 346.674 204.542 348.305 205.267L348.301 205.263Z" fill="#2E6669"/>
</svg>
