<svg width="520" height="520" viewBox="0 0 520 520" fill="none" xmlns="http://www.w3.org/2000/svg">
<circle cx="260" cy="260" r="260" fill="#E0F2F1"/>
<g clip-path="url(#clip0_1025_3231)">
<path d="M326.863 316.491H174.433C173.953 312.771 173.463 309.061 172.963 305.341H323.043C323.193 305.571 323.353 305.791 323.513 306.021C324.263 307.061 325.283 307.981 326.423 308.741C326.543 311.211 326.643 313.831 326.863 316.491Z" fill="white"/>
<path d="M292.903 297.911V304.201C292.903 304.831 292.393 305.341 291.763 305.341H250.743C249.533 305.341 248.573 304.371 248.573 303.161V297.911C248.573 297.271 249.083 296.761 249.713 296.761H291.763C292.393 296.761 292.903 297.271 292.903 297.911Z" fill="white"/>
<path d="M283.843 295.621V296.761H257.633V282.901C266.283 282.891 275.193 282.881 283.843 282.891V295.621Z" fill="white"/>
<path d="M336.353 199.51C336.353 213.22 336.373 255.66 336.383 278.51C336.383 280.91 334.433 282.87 332.033 282.87C321.523 282.87 303.383 282.88 283.843 282.89C275.193 282.88 266.283 282.89 257.633 282.9C238.193 282.9 220.103 282.91 209.483 282.91C207.073 282.91 205.123 280.97 205.123 278.56C205.113 254.09 205.103 220.88 205.093 199.56C205.093 197.15 207.043 195.2 209.453 195.2C233.073 195.2 312.453 195.17 332.003 195.16C334.403 195.16 336.353 197.1 336.353 199.51Z" fill="white"/>
<path d="M410.273 430.941C410.333 427.221 410.863 423.511 412.553 421.861C417.013 420.081 431.473 413.881 434.203 412.141C436.933 410.381 439.783 409.111 441.643 407.311C444.473 404.561 447.003 401.931 448.483 398.691C450.993 393.191 454.173 386.631 450.233 369.901L448.853 363.681C454.193 361.291 457.943 357.351 459.853 352.461C462.593 345.481 463.023 337.831 463.173 330.331C463.453 316.601 461.633 299.711 456.853 286.711L464.853 288.141C470.933 290.081 474.623 296.571 474.713 302.091C475.203 331.611 474.263 365.271 469.093 396.181C466.613 411.051 462.473 423.121 447.513 429.441C436.363 434.151 423.213 434.711 411.273 435.591L410.273 430.941Z" fill="white"/>
<path d="M415.603 244.481C415.333 246.961 415.293 249.491 415.493 251.991C415.543 252.571 415.603 253.171 415.893 253.681C416.103 254.051 416.423 254.361 416.763 254.631C415.503 257.771 413.643 261.981 411.483 266.661L410.363 266.441C401.903 267.281 393.353 268.131 384.933 266.921L383.653 267.041C383.153 261.831 382.713 257.261 382.403 254.141L383.733 251.601C380.413 250.481 377.363 248.631 374.443 246.011C369.143 241.271 367.063 234.071 366.553 226.181C366.303 222.391 366.113 218.331 365.813 214.221L365.593 214.241C365.383 212.991 365.223 211.701 365.113 210.381H367.793C370.483 204.371 374.993 199.061 380.683 195.281C381.183 194.941 382.173 194.081 382.653 193.461L387.193 196.021C387.693 198.081 389.463 200.711 390.793 202.061C398.283 209.631 409.143 213.881 419.633 214.991L427.633 216.531C428.763 215.791 430.143 215.671 431.263 215.901C433.713 216.381 434.553 217.821 434.883 218.641C435.063 219.081 435.183 219.591 435.243 220.131C435.583 222.521 434.903 225.611 433.813 227.561C432.883 229.251 431.473 231.581 428.633 233.141C427.763 233.611 425.603 234.241 423.613 233.981L423.523 234.681C422.873 235.901 421.353 238.031 421.353 238.031C419.663 240.301 417.853 242.431 415.603 244.481Z" fill="white"/>
<path d="M356.653 338.041C353.723 340.011 350.213 341.131 346.683 341.151C342.013 341.191 337.363 339.311 334.013 336.051C328.733 330.901 327.363 323.271 326.823 315.911L326.323 308.671C327.513 309.481 328.843 310.111 330.123 310.521C332.143 311.161 334.013 310.961 335.213 309.031C335.753 308.161 337.313 304.431 338.343 301.891C338.983 300.291 340.733 297.301 341.903 295.981C342.623 295.181 345.403 293.541 347.043 292.781C347.653 292.501 348.043 291.901 348.233 291.261C348.813 289.361 348.133 287.401 346.723 286.071L349.133 283.081C349.683 283.241 350.103 282.591 350.093 282.121C350.083 281.691 349.863 281.291 349.643 280.921L353.023 274.781C353.433 273.981 353.863 273.201 354.313 272.431C356.773 268.211 360.103 264.131 364.593 261.991C369.173 259.811 372.753 258.491 377.673 256.821C379.253 255.931 380.823 255.041 382.403 254.141C382.713 257.261 383.153 261.831 383.653 267.041C384.503 275.881 385.543 286.531 386.473 294.931C390.283 294.851 394.103 294.761 397.913 294.681C402.093 286.461 407.343 275.691 411.483 266.661C413.643 261.981 415.503 257.771 416.763 254.631C417.023 254.011 417.253 253.421 417.453 252.891C419.513 254.501 421.503 256.181 423.423 257.941C437.653 262.541 451.243 272.061 456.533 285.851C461.553 298.961 463.463 316.301 463.173 330.331C463.023 337.831 462.593 345.481 459.853 352.461C457.943 357.351 454.193 361.291 448.853 363.681L450.233 369.901C454.173 386.631 450.993 393.191 448.483 398.691C447.003 401.931 444.473 404.561 441.643 407.311C439.783 409.111 436.933 410.381 434.203 412.141C431.473 413.881 417.013 420.081 412.553 421.861C410.863 423.511 410.333 427.221 410.273 430.941H330.643C330.493 418.051 330.983 397.951 333.213 389.971C334.143 386.631 337.123 381.851 339.283 379.131C342.043 375.651 351.383 368.801 357.123 366.121L362.033 363.111C360.383 355.431 358.533 346.781 356.653 338.041Z" fill="white"/>
<path d="M456.991 391.049C460.55 393.511 462.872 397.525 463.755 401.762C464.638 405.999 464.266 410.477 462.9 414.593C460.066 423.141 451.239 430.936 410.274 430.936C410.33 427.219 410.859 423.512 412.55 421.858C417.01 420.083 431.476 413.877 434.199 412.139C436.931 410.383 439.783 409.11 441.641 407.308C444.475 404.558 447.002 401.928 448.479 398.695C449.724 395.973 451.136 392.99 451.759 388.633L453.023 388.689L456.99 391.049H456.991Z" fill="white"/>
<path d="M413.583 333.017C410.863 321.556 407.375 306.754 405 296.644C404.709 295.407 403.594 294.551 402.324 294.58C385.132 294.972 367.939 295.326 350.745 295.644C349.048 295.675 347.806 297.249 348.169 298.906C352.204 317.319 358.294 345.681 362.649 365.98C362.92 367.241 364.046 368.13 365.336 368.104C378.614 367.833 402.837 367.562 416.063 366.653" fill="white"/>
<path d="M430.367 367.329C432.918 365.788 434.42 362.782 434.87 359.804C435.897 353.015 432.086 346.114 427.023 341.83C423.032 338.454 418.418 337.779 413.349 338.685C412.707 338.826 411.386 339.107 411.386 339.107C409.11 339.592 406.686 340.991 406.044 342.916C405.402 344.841 405.909 347.132 407.849 347.935C405.884 348.876 404.826 350.18 404.935 352.145C405.044 354.11 406.61 355.447 408.418 355.639C406.926 356.215 406.666 358.281 407.053 359.492C407.44 360.703 408.669 362.104 410.324 361.867C409.35 362.803 409.336 364.271 410.024 365.604C410.539 366.603 412.288 367.504 414.482 367.75C418.967 368.252 423.659 369.181 428.143 368.212C428.956 368.036 429.697 367.733 430.366 367.329H430.367Z" fill="white"/>
<path d="M349.644 280.923C348.384 278.799 346.931 276.454 345.139 274.731C343.664 273.313 341.171 272.411 339.21 273.273C338.182 273.725 337.447 274.727 337.193 275.821C336.869 277.217 337.274 278.688 338.023 279.879L339.078 281.241C337.603 280.547 335.796 279.727 335.062 279.495C332.461 278.674 331.269 278.562 328.456 279.635C325.82 280.64 322.93 283.371 321.293 289.035C319.614 294.843 319.308 300.166 323.517 306.025C325.024 308.122 327.663 309.74 330.125 310.521C332.146 311.162 334.017 310.961 335.213 309.033C335.756 308.158 337.315 304.433 338.341 301.889C338.985 300.291 340.731 297.307 341.907 295.982C342.619 295.18 345.404 293.545 347.044 292.781C347.648 292.499 348.043 291.902 348.236 291.263C348.829 289.296 348.079 287.249 346.566 285.924C346.35 285.735 346.135 285.565 345.92 285.386L349.137 283.078C349.685 283.24 350.104 282.593 350.093 282.12C350.083 281.689 349.863 281.295 349.643 280.924L349.644 280.923Z" fill="white"/>
<path d="M154.063 213.521C153.363 218.371 153.383 223.341 153.063 227.851C152.523 235.681 150.423 242.831 145.143 247.521C141.083 251.131 136.773 253.251 131.853 253.991L131.983 254.661C131.953 256.901 134.353 258.161 136.243 258.811C138.283 259.711 141.893 260.841 144.773 261.831C141.823 267.721 135.703 270.631 129.323 271.381C116.243 272.911 102.713 268.721 92.443 260.611L92.593 260.421C96.363 259.291 102.103 257.431 103.383 254.361C103.853 253.211 104.123 251.991 104.303 250.771C104.523 249.271 104.613 248.201 104.683 246.501L104.833 246.331C102.323 244.121 100.373 241.831 98.563 239.371C98.563 239.371 97.073 237.261 96.423 236.041L96.333 235.361C94.353 235.591 92.223 234.961 91.353 234.481C88.533 232.931 87.143 230.601 86.233 228.921C84.923 226.541 84.223 222.471 85.203 220.051C85.533 219.241 86.383 217.811 88.813 217.341C89.933 217.131 91.303 217.251 92.423 217.991L103.073 217.981C102.623 209.621 104.823 203.561 112.713 197.081C116.243 199.971 120.333 201.991 124.193 203.201C129.143 204.771 132.373 204.061 137.473 202.391C138.703 202.901 140.003 203.321 141.123 203.661C143.653 204.421 146.523 204.631 148.873 205.821C150.813 206.791 152.223 208.611 153.123 210.591C153.413 211.231 153.813 212.371 154.173 213.481L154.063 213.521Z" fill="white"/>
<path d="M103.051 217.986H92.4221C91.3051 217.252 89.9341 217.126 88.8151 217.343C86.3791 217.813 85.5361 219.241 85.2061 220.051C85.2061 220.051 84.8481 220.932 84.4891 221.813L84.2331 221.17C82.5861 217.023 81.6871 213.785 81.3081 209.75C79.9241 195.017 85.4751 184.458 92.9001 179.14C97.6051 174.351 102.614 170.821 111.22 169.393C121.795 167.638 133.216 170.059 139.227 176.254C146.364 178.9 153.679 187.432 155.256 201.307C155.658 204.843 155.327 209.675 154.571 212.977C154.571 212.977 154.464 213.34 154.307 213.876C153.902 212.647 153.439 211.305 153.117 210.592C152.223 208.615 150.815 206.795 148.876 205.82C146.517 204.634 143.653 204.421 141.126 203.657C140.002 203.318 138.704 202.898 137.477 202.386C132.371 204.059 129.144 204.766 124.196 203.204C120.334 201.985 116.244 199.97 112.716 197.076C104.826 203.561 102.625 209.617 103.051 217.986Z" fill="white"/>
<path d="M157.963 363.599H72.9L70.997 369.902C67.057 386.626 70.235 393.195 72.753 398.696C74.23 401.929 76.758 404.559 79.591 407.309C81.449 409.112 84.302 410.384 87.033 412.14C89.755 413.877 104.222 420.084 108.682 421.859C110.373 423.513 110.903 427.22 110.958 430.937H190.584C190.742 418.05 190.25 397.953 188.02 389.972C187.091 386.627 184.108 381.851 181.953 379.129C179.193 375.654 169.846 368.806 164.114 366.121C164.114 366.121 161.96 365.112 158.732 363.6L157.963 363.599Z" fill="white"/>
<path d="M64.242 391.049C60.683 393.511 58.361 397.525 57.478 401.762C56.595 405.999 56.967 410.477 58.333 414.593C61.167 423.141 69.994 430.936 110.959 430.936C110.903 427.219 110.374 423.512 108.683 421.858C104.223 420.083 89.757 413.877 87.034 412.139C84.302 410.383 81.45 409.11 79.592 407.308C76.758 404.558 74.231 401.928 72.754 398.695C71.509 395.973 70.097 392.99 69.474 388.633L68.21 388.689L64.243 391.049H64.242Z" fill="white"/>
<path d="M166.112 359.002C165.128 354.894 162.955 350.942 159.505 348.645C156.106 346.383 151.896 345.731 147.916 345.936C145.751 346.048 137.714 346.643 136.899 349.382L136.575 350.653C134.028 350.26 131.427 350.182 128.859 350.301C124.911 350.485 120.779 350.705 117.463 353.045C115.904 354.145 114.541 355.501 113.262 356.91C112.23 358.047 111.809 359.425 111.65 361.021C111.509 362.433 111.567 363.974 111.843 365.482C112.276 367.845 113.248 370.123 114.841 371.688C116.282 373.104 118.162 374.016 120.116 374.53C123.451 375.409 126.897 375.222 130.297 374.967C131.458 374.88 132.615 375.127 133.642 375.675C135.512 376.673 137.801 377.85 139.266 378.761C140.745 379.68 142.588 379.975 144.297 379.644C144.945 379.519 145.606 379.284 146.047 378.793C146.488 378.301 146.634 377.499 146.229 376.977C146.229 376.977 145.623 376.195 145.017 375.414C145.873 375.858 146.839 376.358 146.839 376.358C147.466 376.683 148.126 376.983 148.83 377.035C149.534 377.087 150.297 376.847 150.707 376.273C151.118 375.699 151.485 374.294 150.974 373.641C150.974 373.641 150.968 373.634 150.968 373.633C157.428 373.51 161.623 370.803 161.623 370.803C164.214 369.611 165.992 367.166 166.405 365.144C166.818 363.121 166.592 361.009 166.112 359.002Z" fill="white"/>
<path d="M432.938 229.37C432.883 229.343 432.828 229.318 432.772 229.294C431.862 230.636 430.586 232.071 428.631 233.139C427.734 233.626 425.482 234.275 423.453 233.967C424.956 232.977 421.354 238.027 421.354 238.027C419.666 240.3 417.856 242.43 415.597 244.482C415.595 244.499 415.593 244.516 415.592 244.532C415.304 247.226 417.488 249.551 420.197 249.551C423.543 249.551 426.638 249.551 426.638 249.551C429.312 249.823 432.082 248.97 434.141 247.242C436.2 245.514 437.519 242.933 437.715 240.253C437.937 237.216 436.769 234.223 435.142 231.649C434.57 230.744 433.902 229.842 432.938 229.37Z" fill="#2E6669"/>
<path d="M397.912 294.672C402.156 286.35 407.479 275.404 411.655 266.308C407.814 266.691 403.949 267.095 400.084 267.328C394.575 267.66 389.065 267.643 383.62 266.719C384.479 275.616 385.531 286.411 386.464 294.908C390.28 294.826 394.097 294.757 397.912 294.672Z" fill="#2E6669"/>
<path d="M380.68 195.276C374.99 199.059 370.481 204.372 367.789 210.381C367.789 210.381 366.141 210.381 365.107 210.381C364.619 204.726 364.987 198.713 365.909 194.489C367.118 188.948 369.976 182.785 373.789 178.612C380.395 171.384 390.01 167.189 401.782 167.03C409.211 166.93 416.58 168.575 424.379 174.544C424.379 174.544 426.803 176.399 429.228 178.255C429.686 178.71 430.145 179.166 430.145 179.166C434.77 183.76 436.927 188.896 438.237 195.116C438.894 198.247 439.08 201.464 438.751 204.638C438.408 207.943 437.873 215.582 435.391 219.892L434.887 218.638C434.559 217.821 433.716 216.38 431.267 215.896C430.142 215.673 428.762 215.794 427.634 216.527L419.632 214.993C409.148 213.883 398.283 209.633 390.797 202.062C389.464 200.714 387.693 198.083 387.193 196.02C387.193 196.02 382.131 195.416 380.681 195.276H380.68Z" fill="#2E6669"/>
<path d="M177.706 341.239C175.749 326.41 173.793 311.581 171.836 296.753C170.896 289.625 169.915 282.36 166.81 275.876C163.705 269.392 158.025 263.884 150.985 262.428C149.489 262.118 145.843 261.649 144.934 261.535C142.025 267.618 135.803 270.625 129.321 271.384C116.113 272.93 102.459 268.641 92.152 260.389C80.001 264.077 72.119 271.586 67.279 281.88C67.142 282.171 67.008 282.464 66.876 282.759C65.586 285.646 64.308 289.75 63.611 292.834C62.257 298.825 61.29 304.904 60.716 311.019C60.093 317.655 59.934 324.324 59.776 330.987C59.578 339.305 59.475 348.046 63.375 355.396C65.16 358.76 67.746 361.696 70.857 363.891C75.153 366.923 80.143 368.926 85.179 370.436C87.924 371.259 101.068 375.018 108.711 375.016H122.679L122.71 375.009C121.84 374.907 120.975 374.754 120.117 374.527C118.164 374.012 116.283 373.1 114.842 371.685C113.25 370.121 112.278 367.842 111.844 365.479C111.568 363.972 111.51 362.431 111.651 361.018C111.81 359.423 112.231 358.045 113.263 356.907C114.542 355.498 115.905 354.142 117.464 353.042C120.781 350.702 124.913 350.482 128.86 350.298C131.428 350.178 134.029 350.256 136.576 350.65L136.9 349.379C137.715 346.64 145.751 346.045 147.917 345.933C151.896 345.728 156.106 346.38 159.506 348.642C162.957 350.938 165.13 354.891 166.113 358.999C166.307 359.808 166.456 360.634 166.541 361.465C172.085 357.3 175.289 352.49 175.289 352.49C177.9 350.101 178.188 344.885 177.706 341.237V341.239Z" fill="#2E6669"/>
<path d="M183.833 307.342C201.278 307.342 218.723 307.342 236.168 307.342C252.731 307.342 269.294 307.342 285.857 307.342C295.274 307.342 304.69 307.342 314.107 307.342C316.681 307.342 316.685 303.342 314.107 303.342C297.491 303.342 280.876 303.342 264.26 303.342H213.877C203.863 303.342 193.848 303.342 183.834 303.342C181.26 303.342 181.256 307.342 183.834 307.342H183.833Z" fill="#2E6669"/>
<path d="M183.833 318.491C201.632 318.491 219.43 318.491 237.229 318.491C254.356 318.491 271.483 318.491 288.61 318.491C298.156 318.491 307.703 318.491 317.249 318.491C319.823 318.491 319.827 314.491 317.249 314.491C300.28 314.491 283.31 314.491 266.341 314.491C248.983 314.491 231.624 314.491 214.266 314.491C204.122 314.491 193.978 314.491 183.834 314.491C181.26 314.491 181.256 318.491 183.834 318.491H183.833Z" fill="#2E6669"/>
<path d="M338.072 280.441C338.593 278.776 338.383 276.884 338.382 275.158C338.382 273.447 338.38 271.735 338.38 270.024C338.378 266.254 338.377 262.484 338.375 258.714C338.371 250.646 338.368 242.579 338.365 234.511C338.362 227.164 338.359 219.816 338.357 212.469C338.357 209.607 338.355 206.746 338.355 203.884C338.355 201.254 338.801 198.17 337.22 195.903C335.36 193.236 332.529 193.158 329.616 193.16C327.685 193.16 325.754 193.162 323.822 193.163C318.546 193.165 313.271 193.168 307.995 193.17C294.44 193.175 280.885 193.18 267.331 193.185C254.052 193.19 240.773 193.194 227.494 193.197C222.566 193.198 217.638 193.199 212.71 193.2C209.955 193.2 207.088 192.934 204.957 195.064C203.393 196.628 203.092 198.573 203.093 200.69C203.093 202.557 203.095 204.424 203.095 206.292C203.103 224.58 203.109 242.868 203.115 261.155C203.117 265.585 203.118 270.016 203.12 274.446C203.12 276.446 202.79 278.806 203.505 280.713C204.237 282.667 205.896 284.238 207.95 284.724C209.297 285.042 210.765 284.909 212.14 284.909C213.43 284.909 214.72 284.908 216.01 284.907C218.985 284.906 221.961 284.905 224.936 284.904C239.992 284.898 255.048 284.893 270.104 284.888C285.16 284.883 300.352 284.878 315.475 284.873C318.407 284.873 321.339 284.871 324.272 284.87C326.846 284.87 326.85 280.869 324.272 280.87C310.583 280.875 296.894 280.879 283.205 280.884C267.833 280.889 252.461 280.894 237.089 280.9C230.718 280.902 224.347 280.905 217.976 280.907C215.475 280.907 212.974 280.909 210.473 280.91C209.189 280.91 207.869 280.846 207.293 279.467C206.989 278.739 207.123 277.849 207.123 277.082C207.123 276.013 207.123 274.944 207.122 273.875C207.115 255.854 207.109 237.834 207.102 219.813C207.1 215.661 207.099 211.509 207.097 207.356C207.097 205.463 207.095 203.569 207.095 201.676C207.095 200.216 206.769 198.383 208.262 197.522C209.111 197.032 210.226 197.2 211.176 197.2C212.173 197.2 213.17 197.2 214.167 197.2C216.41 197.2 218.654 197.2 220.897 197.199C233.112 197.197 245.326 197.193 257.541 197.189C271.159 197.185 284.777 197.18 298.395 197.175C308.573 197.171 318.751 197.167 328.929 197.162C330.642 197.162 333.372 196.632 334.185 198.604C334.548 199.484 334.355 200.693 334.355 201.632C334.355 202.832 334.355 204.032 334.355 205.232C334.356 211.532 334.359 217.831 334.361 224.131C334.367 239.429 334.374 254.728 334.381 270.026C334.381 271.641 334.382 273.255 334.383 274.87C334.383 276.297 334.643 278.015 334.216 279.379C333.445 281.841 337.306 282.895 338.073 280.442L338.072 280.441Z" fill="#2E6669"/>
<path d="M255.633 282.912V295.621C255.633 296.667 256.553 297.669 257.633 297.621C258.713 297.573 259.633 296.742 259.633 295.621V282.912C259.633 281.866 258.713 280.864 257.633 280.912C256.553 280.96 255.633 281.791 255.633 282.912Z" fill="#2E6669"/>
<path d="M281.842 282.912V295.621C281.842 296.667 282.762 297.669 283.842 297.621C284.922 297.573 285.842 296.742 285.842 295.621V282.912C285.842 281.866 284.922 280.864 283.842 280.912C282.762 280.96 281.842 281.791 281.842 282.912Z" fill="#2E6669"/>
<path d="M249.711 298.764C261.037 298.764 272.362 298.764 283.688 298.764H290.569C290.842 298.764 291.49 298.888 291.747 298.764C291.914 298.683 291.1 297.582 290.906 298.017C290.843 298.159 290.906 298.478 290.906 298.625V301.301C290.906 302.08 290.906 302.859 290.906 303.638C290.906 303.765 290.854 304.026 290.906 304.15V304.188C290.904 304.552 291.109 304.27 291.522 303.343C291.341 303.234 290.72 303.343 290.503 303.343C288.347 303.343 286.191 303.343 284.035 303.343C278.75 303.343 273.465 303.343 268.18 303.343C263.175 303.343 258.17 303.343 253.165 303.343C252.419 303.343 251.642 303.408 250.899 303.343C250.442 303.303 250.569 303.126 250.569 302.519V299.57C250.569 299.179 250.586 298.782 250.569 298.392C250.523 297.355 250.739 298.627 250.242 298.694C251.314 298.55 251.897 297.174 251.639 296.234C251.321 295.077 250.254 294.693 249.179 294.837C246.453 295.203 246.569 297.985 246.569 300.045C246.569 301.872 246.25 304.035 247.373 305.603C248.856 307.674 251.37 307.343 253.604 307.343C255.838 307.343 258.066 307.343 260.296 307.343C265.963 307.343 271.629 307.343 277.296 307.343C280.068 307.343 282.841 307.343 285.613 307.343C286.793 307.343 287.972 307.343 289.152 307.343C290.387 307.343 291.947 307.58 293.079 307.029C295.198 305.998 294.905 303.757 294.905 301.793C294.905 300.258 295.289 298.027 294.591 296.594C293.493 294.338 290.883 294.765 288.808 294.765C281.584 294.765 274.361 294.765 267.137 294.765C261.328 294.765 255.519 294.765 249.71 294.765C247.136 294.765 247.132 298.765 249.71 298.765L249.711 298.764Z" fill="#2E6669"/>
<path d="M431.968 231.115C432.768 231.567 433.229 232.336 433.691 233.107C434.237 234.019 434.73 234.968 435.081 235.974C435.768 237.946 435.982 239.984 435.344 241.996C434.152 245.755 430.471 247.874 426.638 247.549C425.56 247.458 424.638 248.534 424.638 249.549C424.638 250.707 425.557 251.457 426.638 251.549C432.268 252.026 437.503 248.414 439.202 243.059C440.058 240.36 439.834 237.385 438.879 234.744C437.945 232.16 436.476 229.066 433.988 227.66C431.744 226.391 429.726 229.846 431.969 231.114L431.968 231.115Z" fill="#2E6669"/>
<path d="M354.75 275.789C356.956 271.536 359.744 267.248 363.89 264.658C368.219 261.953 373.424 260.377 378.225 258.738C380.647 257.911 379.607 254.046 377.162 254.881C374.473 255.799 371.789 256.736 369.156 257.806C366.583 258.852 363.875 259.886 361.543 261.414C356.983 264.401 353.772 268.999 351.297 273.77C350.113 276.052 353.564 278.077 354.751 275.789H354.75Z" fill="#2E6669"/>
<path d="M413.603 244.46C413.397 246.401 413.323 248.353 413.395 250.303C413.433 251.326 413.467 252.387 413.675 253.393C413.894 254.451 414.521 255.378 415.359 256.044C416.176 256.694 417.4 256.901 418.187 256.044C418.851 255.32 419.061 253.911 418.187 253.216C418.036 253.096 417.889 252.973 417.752 252.836C417.693 252.779 417.638 252.72 417.585 252.658C417.73 252.853 417.741 252.857 417.619 252.671C417.427 252.182 417.653 253.022 417.569 252.501C417.545 252.352 417.485 251.981 417.525 252.34C417.427 251.468 417.396 250.584 417.376 249.708C417.337 247.956 417.417 246.204 417.602 244.461C417.713 243.417 416.603 242.416 415.602 242.461C414.424 242.514 413.72 243.343 413.602 244.461L413.603 244.46Z" fill="#2E6669"/>
<path d="M332.648 430.935C332.524 420.425 332.659 409.84 333.697 399.374C334.085 395.46 334.481 391.327 336.219 387.745C338.254 383.55 340.873 379.909 344.435 376.912C348.586 373.419 353.217 370.176 358.129 367.846C360.453 366.743 358.426 363.293 356.11 364.392C351.462 366.597 347.167 369.648 343.145 372.831C341.458 374.166 339.764 375.557 338.329 377.167C336.595 379.113 335.144 381.39 333.862 383.651C332.642 385.802 331.585 388.064 331.019 390.479C330.529 392.571 330.236 394.709 329.976 396.839C329.345 402.002 329.063 407.209 328.871 412.405C328.642 418.578 328.576 424.758 328.649 430.935C328.679 433.507 332.678 433.514 332.648 430.935Z" fill="#2E6669"/>
<path d="M448.308 370.432C449.673 376.294 450.718 382.639 449.757 388.602C449.445 390.535 448.928 392.427 448.235 394.258C447.886 395.181 447.821 395.323 447.417 396.227C446.949 397.275 446.484 398.326 445.895 399.313C444.973 400.858 443.819 402.222 442.585 403.526C441.366 404.815 440.136 406.145 438.653 407.132C436.417 408.62 434.035 410.043 431.64 411.267C427.269 413.5 422.721 415.414 418.212 417.346C416.156 418.227 414.088 419.078 412.019 419.93C410.288 420.643 409.451 422.838 409.006 424.528C408.459 426.604 408.318 428.798 408.274 430.936C408.222 433.511 412.222 433.511 412.274 430.936C412.321 428.61 412.234 425.098 413.965 423.273L413.082 423.787C417.198 422.145 421.267 420.377 425.32 418.586C429.092 416.92 432.843 415.258 436.383 413.14C437.752 412.321 439.166 411.572 440.502 410.698C442.048 409.686 443.359 408.457 444.651 407.143C446.969 404.786 449.044 402.246 450.426 399.225C451.889 396.025 453.152 392.792 453.671 389.292C454.659 382.628 453.68 375.881 452.164 369.369C451.58 366.863 447.723 367.924 448.307 370.432H448.308Z" fill="#2E6669"/>
<path d="M424.988 260.595C432.619 263.355 439.878 267.501 445.691 273.21C448.485 275.954 450.904 279.044 452.78 282.487C454.772 286.142 456.032 290.168 457.11 294.174C459.47 302.942 460.648 312.018 461.056 321.078C461.261 325.618 461.243 330.165 461.039 334.704C460.816 339.645 460.296 344.589 458.832 349.333C457.639 353.199 455.712 356.568 452.537 359.142C449.153 361.885 444.915 363.279 440.66 363.924C439.591 364.086 439.001 365.431 439.263 366.384C439.577 367.527 440.651 367.943 441.723 367.781C449.665 366.578 457.334 362.354 460.95 354.913C463.134 350.42 464.081 345.377 464.616 340.447C465.157 335.459 465.264 330.4 465.187 325.385C465.038 315.711 464.009 305.967 461.823 296.535C460.793 292.09 459.516 287.651 457.694 283.46C455.976 279.508 453.553 275.9 450.701 272.678C444.132 265.257 435.301 260.082 426.051 256.737C423.626 255.86 422.582 259.725 424.988 260.595Z" fill="#2E6669"/>
<path d="M375.552 288.298C374.179 282.315 372.96 276.298 371.812 270.268L370.893 272.527C373.28 271.24 375.728 270.077 378.183 268.927C379.19 268.455 379.368 267.075 378.901 266.191C377.535 263.606 375.969 261.106 374.801 258.421L374.083 261.157C377.194 259.396 380.306 257.635 383.413 255.867L380.404 254.14C381.76 267.733 382.981 281.34 384.474 294.92C384.592 295.994 385.309 296.92 386.474 296.92C387.464 296.92 388.593 296.001 388.474 294.92C386.981 281.34 385.76 267.733 384.404 254.14C384.257 252.663 382.811 251.607 381.395 252.413C378.288 254.181 375.176 255.942 372.065 257.703C371.045 258.28 370.921 259.459 371.347 260.439C372.515 263.124 374.081 265.624 375.447 268.209L376.165 265.473C373.71 266.623 371.262 267.786 368.875 269.073C368.05 269.518 367.793 270.475 367.956 271.332C369.104 277.362 370.323 283.379 371.696 289.362C372.271 291.87 376.129 290.808 375.553 288.299L375.552 288.298Z" fill="#2E6669"/>
<path d="M399.64 295.689C405.486 284.213 411.136 272.607 416.306 260.81C417.377 258.367 418.431 255.914 419.381 253.421L416.038 254.304C419.751 257.213 423.246 260.376 426.528 263.764V260.936C423.139 264.203 419.561 267.269 416.018 270.366C414.993 271.262 415.422 272.84 416.423 273.507C418.836 275.115 421.367 276.741 423.528 278.684V275.856C419.163 280.909 415.3 286.467 411.235 291.761C410.577 292.618 411.103 294 411.953 294.497C412.984 295.1 414.029 294.639 414.689 293.779C418.547 288.754 422.213 283.481 426.356 278.684C427.033 277.9 427.206 276.62 426.356 275.856C423.942 273.685 421.139 271.85 418.441 270.053L418.846 273.194C422.389 270.097 425.967 267.031 429.356 263.764C430.143 263.006 430.098 261.702 429.356 260.936C426.074 257.548 422.579 254.385 418.866 251.476C417.63 250.508 416.096 250.856 415.523 252.359C411.39 263.206 406.089 273.683 400.974 284.09C399.399 287.294 397.805 290.489 396.184 293.671C395.018 295.96 398.468 297.987 399.638 295.69L399.64 295.689Z" fill="#2E6669"/>
<path d="M433.177 299.681C433.297 304.906 432.918 310.127 431.985 315.271C431.792 316.333 432.275 317.427 433.382 317.731C434.352 317.997 435.649 317.403 435.842 316.334C436.838 310.84 437.305 305.264 437.177 299.681C437.118 297.111 433.118 297.102 433.177 299.681Z" fill="#2E6669"/>
<path d="M384.404 268.852C393.064 270.053 401.708 269.303 410.362 268.436C411.437 268.328 412.362 267.594 412.362 266.436C412.362 265.438 411.443 264.328 410.362 264.436C402.121 265.261 393.724 266.139 385.468 264.995C384.399 264.847 383.32 265.254 383.008 266.392C382.751 267.327 383.328 268.703 384.405 268.852H384.404Z" fill="#2E6669"/>
<path d="M324.823 315.91C325.427 323.927 327.014 332.785 333.488 338.272C340.316 344.059 350.155 344.692 357.652 339.777C359.796 338.371 357.794 334.906 355.633 336.323C349.456 340.372 341.216 340.023 335.717 334.912C330.526 330.087 329.33 322.645 328.822 315.91C328.63 313.359 324.628 313.338 324.822 315.91H324.823Z" fill="#2E6669"/>
<path d="M428.729 180.579C434.034 185.923 436.783 193.573 436.903 201.055C436.952 204.103 436.569 207.251 436.117 210.265C435.655 213.343 435.068 216.631 433.403 219.312C432.041 221.505 435.5 223.515 436.857 221.331C438.739 218.303 439.488 214.639 440 211.157C440.512 207.675 441.003 204.083 440.892 200.577C440.627 192.195 437.504 183.74 431.558 177.751C429.742 175.922 426.913 178.75 428.73 180.579H428.729Z" fill="#2E6669"/>
<path d="M425.388 172.816C419.874 168.644 413.577 165.982 406.689 165.245C400.579 164.591 394.133 165.252 388.286 167.141C382.69 168.948 377.506 171.994 373.351 176.173C368.861 180.689 365.815 186.673 364.25 192.815C362.45 199.88 362.495 207.612 363.661 214.771C363.835 215.838 365.16 216.432 366.121 216.168C367.255 215.856 367.692 214.778 367.518 213.708C365.683 202.445 367.116 189.181 374.945 180.313C382.305 171.976 393.544 168.562 404.425 169.072C411.451 169.401 417.793 172.05 423.37 176.27C424.232 176.922 425.607 176.407 426.106 175.552C426.706 174.526 426.253 173.469 425.388 172.816Z" fill="#2E6669"/>
<path d="M396.135 237.108C394.574 236.183 392.69 235.797 390.894 235.724C389.988 235.687 389.065 235.767 388.178 235.955C387.79 236.037 387.418 236.161 387.052 236.311C386.724 236.445 386.399 236.585 386.074 236.725C385.978 236.766 385.882 236.818 385.782 236.851C386.241 236.698 385.739 236.864 385.67 236.891C384.699 237.27 383.917 238.249 384.273 239.351C384.578 240.295 385.69 241.156 386.733 240.748C387.042 240.627 387.348 240.497 387.654 240.367C387.752 240.325 387.849 240.283 387.947 240.241C387.954 240.238 388.416 240.042 388.141 240.156C387.898 240.256 388.21 240.129 388.255 240.111C388.346 240.075 388.437 240.041 388.53 240.009C388.688 239.954 388.848 239.906 389.01 239.865C389.186 239.821 389.363 239.79 389.541 239.755C389.814 239.702 389.467 239.776 389.381 239.774C389.464 239.776 389.553 239.755 389.636 239.748C390.009 239.716 390.385 239.708 390.759 239.718C390.94 239.723 391.12 239.733 391.3 239.747C391.39 239.754 391.481 239.762 391.571 239.771C391.634 239.777 391.951 239.819 391.643 239.775C391.335 239.731 391.651 239.778 391.713 239.788C391.802 239.802 391.89 239.818 391.979 239.835C392.175 239.872 392.371 239.914 392.565 239.962C392.896 240.044 393.224 240.143 393.543 240.262C393.613 240.288 393.958 240.423 393.642 240.298C393.351 240.183 393.611 240.288 393.672 240.319C393.822 240.397 393.971 240.474 394.117 240.56C395.018 241.094 396.351 240.793 396.853 239.842C397.362 238.878 397.097 237.676 396.135 237.106L396.135 237.108Z" fill="#2E6669"/>
<path d="M396.904 220.998C396.543 219.377 397.149 215.763 400.171 215.691C404.131 216.03 403.992 220.447 402.494 222.41C401.268 224.017 398.001 224.466 396.904 220.998Z" fill="#2E6669"/>
<path d="M373.324 219.867C373 218.243 373.571 214.615 376.339 214.531C379.965 214.854 379.819 219.285 378.439 221.26C377.309 222.877 374.315 223.341 373.324 219.867Z" fill="#2E6669"/>
<path d="M384.998 223.959C384.463 224.774 383.934 225.603 383.478 226.465C383.282 226.835 383.071 227.216 382.981 227.628C382.782 228.54 382.981 229.377 383.602 230.081C384.008 230.541 384.517 230.823 385.077 231.044C385.435 231.185 385.827 231.203 386.205 231.253L385.673 231.182C385.726 231.189 385.779 231.197 385.831 231.208C386.366 231.311 386.889 231.289 387.372 231.006C387.787 230.763 388.183 230.288 388.291 229.811C388.408 229.299 388.382 228.724 388.089 228.27C387.819 227.852 387.401 227.449 386.894 227.351C386.624 227.299 386.35 227.274 386.077 227.237L386.609 227.308C386.447 227.285 386.292 227.25 386.14 227.187L386.618 227.389C386.506 227.338 386.404 227.276 386.304 227.203L386.709 227.516C386.593 227.423 386.484 227.322 386.393 227.205L386.706 227.61C386.684 227.578 386.666 227.543 386.652 227.506L386.854 227.984C386.841 227.947 386.832 227.91 386.827 227.871L386.898 228.403C386.893 228.341 386.894 228.285 386.9 228.223L386.829 228.755C386.847 228.646 386.877 228.545 386.916 228.443L386.714 228.921C386.942 228.381 387.274 227.869 387.578 227.369C387.862 226.901 388.152 226.437 388.453 225.98C388.729 225.56 388.785 224.913 388.655 224.439C388.527 223.975 388.169 223.472 387.736 223.244C387.272 222.999 386.71 222.876 386.195 223.042C385.684 223.207 385.297 223.509 385 223.961L384.998 223.959Z" fill="#2E6669"/>
<path d="M414.508 247.986C417.022 246.04 419.286 243.815 421.289 241.348C422.73 239.573 424.154 237.701 425.25 235.687C425.75 234.768 425.507 233.466 424.532 232.951C423.598 232.457 422.33 232.687 421.796 233.669C421.258 234.657 420.618 235.592 419.978 236.515C419.825 236.736 419.671 236.956 419.511 237.171C419.396 237.326 419.279 237.48 419.162 237.634C418.913 237.963 419.283 237.487 419.003 237.84C418.783 238.118 418.563 238.395 418.339 238.669C416.366 241.078 414.142 243.251 411.68 245.157C410.848 245.801 410.953 247.318 411.68 247.985C412.562 248.794 413.621 248.673 414.508 247.986Z" fill="#2E6669"/>
<path d="M405.93 247.826C398.196 250.955 389.275 252.474 381.527 248.52C377.96 246.7 374.644 244.057 372.526 240.623C370.383 237.147 369.306 233.079 368.815 229.052C368.118 223.324 368.107 217.505 367.616 211.756C367.399 209.21 363.397 209.187 363.616 211.756C364.09 217.307 364.153 222.905 364.747 228.443C365.239 233.034 366.275 237.609 368.516 241.686C372.92 249.698 382.017 254.584 391.009 254.886C396.531 255.072 401.903 253.742 406.993 251.682C407.994 251.277 408.7 250.35 408.39 249.222C408.129 248.273 406.937 247.419 405.93 247.826Z" fill="#2E6669"/>
<path d="M428.642 218.253C429.651 217.645 430.844 217.697 431.757 218.114C432.313 218.368 432.341 218.396 432.761 218.872C432.549 218.631 432.728 218.818 432.819 218.972C432.91 219.126 432.987 219.282 433.07 219.439C432.741 218.819 433.117 219.623 433.163 219.794C433.198 219.925 433.301 220.476 433.294 220.419C433.375 221.09 433.352 221.787 433.29 222.459C433.183 223.622 432.869 224.884 432.39 225.971C431.571 227.828 430.191 229.773 428.385 230.954C428.1 231.14 427.806 231.311 427.506 231.471C427.102 231.686 427.917 231.352 427.401 231.516C426.866 231.686 426.34 231.85 425.786 231.95C424.906 232.109 423.616 232.126 422.76 231.684C420.476 230.505 418.451 233.955 420.741 235.138C423.121 236.367 426.069 236.269 428.545 235.342C431.102 234.385 433.145 232.36 434.624 230.113C436.054 227.941 436.917 225.567 437.232 222.986C437.523 220.599 437.258 217.995 435.642 216.108C433.487 213.592 429.402 213.125 426.623 214.8C424.421 216.127 426.429 219.587 428.642 218.254V218.253Z" fill="#2E6669"/>
<path d="M381.236 192.044C380.022 193.552 378.634 194.218 377.026 195.477C375.479 196.688 374.027 198.018 372.692 199.46C369.98 202.389 367.71 205.733 366.063 209.371C365.618 210.354 365.781 211.523 366.781 212.107C367.639 212.609 369.07 212.378 369.517 211.389C371.065 207.97 373.135 204.824 375.707 202.088C376.992 200.721 378.381 199.434 379.872 198.293C381.307 197.194 382.916 196.3 384.066 194.872C384.743 194.031 384.888 192.865 384.066 192.044C383.365 191.343 381.918 191.198 381.238 192.044H381.236Z" fill="#2E6669"/>
<path d="M385.263 196.552C387.02 203.082 393.636 207.762 399.258 210.818C405.561 214.244 412.52 216.213 419.631 216.993C420.706 217.111 421.631 215.989 421.631 214.993C421.631 213.814 420.709 213.111 419.631 212.993C413.387 212.309 407.184 210.511 401.633 207.556C398.887 206.094 396.279 204.363 393.95 202.296C391.863 200.444 389.864 198.253 389.12 195.489C388.452 193.006 384.592 194.059 385.263 196.552Z" fill="#2E6669"/>
<path d="M411.543 364.921C398.683 365.572 385.798 365.736 372.925 365.961C371.514 365.986 370.102 366.011 368.691 366.036C368.065 366.047 367.439 366.059 366.812 366.071C366.318 366.08 365.579 366.239 365.109 366.084C364.204 365.786 364.141 363.435 363.965 362.616C363.636 361.081 363.307 359.547 362.978 358.012C361.545 351.329 360.11 344.646 358.672 337.964C355.913 325.138 353.149 312.313 350.346 299.496C350.104 298.388 349.882 297.669 351.239 297.632C353.305 297.576 355.374 297.557 357.44 297.518C361.574 297.44 365.707 297.36 369.841 297.277C378.189 297.11 386.537 296.933 394.885 296.748C396.951 296.702 399.017 296.656 401.083 296.609C401.604 296.597 402.533 296.363 402.932 296.827C403.258 297.206 403.279 298.044 403.39 298.517C404.122 301.639 404.856 304.76 405.591 307.882C407.226 314.828 408.864 321.772 410.508 328.716C410.89 330.328 411.272 331.941 411.655 333.553C412.249 336.057 416.107 334.997 415.512 332.49C413.787 325.222 412.07 317.953 410.357 310.682C409.527 307.157 408.697 303.632 407.869 300.106C407.503 298.548 407.307 296.764 406.631 295.306C405.903 293.736 404.383 292.733 402.665 292.595C400.525 292.423 398.27 292.673 396.125 292.721C393.894 292.771 391.662 292.82 389.431 292.868C385.051 292.963 380.67 293.056 376.289 293.147C371.825 293.239 367.361 293.328 362.897 293.415C360.665 293.458 358.432 293.501 356.2 293.542C355.125 293.562 354.05 293.582 352.975 293.601C351.911 293.62 350.76 293.524 349.718 293.772C348.126 294.15 346.799 295.379 346.319 296.949C345.839 298.519 346.399 300.149 346.737 301.699C347.426 304.855 348.113 308.011 348.798 311.168C350.324 318.2 351.843 325.234 353.359 332.269C354.912 339.479 356.462 346.689 358.009 353.9C358.734 357.28 359.459 360.659 360.183 364.039C360.523 365.626 360.696 367.347 361.834 368.596C363.05 369.932 364.659 370.113 366.359 370.08C379.854 369.817 393.355 369.677 406.844 369.133C408.41 369.07 409.977 368.999 411.542 368.92C414.104 368.79 414.119 364.789 411.542 364.92L411.543 364.921Z" fill="#2E6669"/>
<path d="M464.323 290.071C468.872 291.597 472.044 296.18 472.636 300.852C473.021 303.894 472.789 307.116 472.81 310.18C472.833 313.535 472.835 316.89 472.814 320.245C472.727 334.005 472.258 347.767 471.208 361.489C470.196 374.716 468.935 388.148 466.13 401.133C464.161 410.248 460.554 419.127 452.524 424.502C446.885 428.276 440.158 430.144 433.546 431.334C426.193 432.658 418.713 433.044 411.274 433.59C408.722 433.777 408.702 437.779 411.274 437.59C424.678 436.607 439.022 436.2 451.226 429.906C455.905 427.492 459.935 424.046 462.982 419.751C465.875 415.673 467.738 410.913 469.041 406.111C470.643 400.207 471.505 394.103 472.355 388.055C473.377 380.784 474.193 373.485 474.826 366.17C476.077 351.728 476.652 337.232 476.793 322.739C476.832 318.774 476.837 314.81 476.813 310.845C476.791 307.271 477.033 303.553 476.525 300.008C475.638 293.817 471.364 288.221 465.384 286.215C462.938 285.394 461.889 289.256 464.321 290.072L464.323 290.071Z" fill="#2E6669"/>
<path d="M431.377 369.055C435.379 366.499 437.179 361.678 437.031 357.062C436.878 352.283 434.864 347.796 431.944 344.076C429.078 340.424 425.232 337.419 420.564 336.617C416.62 335.939 411.894 336.349 408.238 338.101C405.88 339.231 404.112 341.191 403.829 343.848C403.579 346.199 404.643 348.625 406.841 349.662V346.208C404.469 347.403 402.73 349.539 402.953 352.315C403.169 354.999 405.213 357.182 407.887 357.567L407.409 353.912C402.595 356.176 405.241 364.252 410.324 363.866L408.91 360.452C407.211 362.333 407.1 365.221 408.729 367.216C410.233 369.058 412.717 369.533 414.947 369.803C420.175 370.435 426.522 371.815 431.376 369.056C433.614 367.784 431.601 364.327 429.357 365.602C426.194 367.4 421.668 366.634 418.232 366.214C416.525 366.005 414.621 365.981 412.997 365.378C412.24 365.097 410.888 364.222 411.738 363.281C412.807 362.097 412.162 359.727 410.324 359.867C409.095 359.96 408.194 357.947 409.428 357.366C410.901 356.673 410.634 353.953 408.95 353.711C407.928 353.564 406.99 353.136 406.932 351.976C406.87 350.743 407.876 350.158 408.859 349.663C410.139 349.018 410.192 346.838 408.859 346.209C407.827 345.722 407.544 344.677 407.927 343.602C408.411 342.245 410.091 341.522 411.377 341.17C414.161 340.408 417.206 339.985 420.058 340.582C426.73 341.977 432.027 349.101 432.923 355.652C433.405 359.18 432.559 363.556 429.357 365.602C427.194 366.984 429.198 370.448 431.376 369.057L431.377 369.055Z" fill="#2E6669"/>
<path d="M409.055 349.771C412.476 349.003 415.965 348.548 419.41 347.901C420.44 347.707 421.12 346.409 420.807 345.441C420.451 344.34 419.451 343.837 418.347 344.044C414.902 344.691 411.413 345.147 407.992 345.914C406.97 346.143 406.274 347.381 406.595 348.374C406.942 349.446 407.96 350.017 409.055 349.771Z" fill="#2E6669"/>
<path d="M409.393 357.413C412.947 356.564 416.547 355.859 420.169 355.367C421.21 355.226 421.868 353.839 421.566 352.907C421.196 351.763 420.221 351.359 419.106 351.51C415.485 352.002 411.884 352.707 408.33 353.556C407.312 353.799 406.608 355.013 406.933 356.016C407.276 357.076 408.302 357.673 409.393 357.413Z" fill="#2E6669"/>
<path d="M410.857 363.794C413.969 362.866 417.258 362.472 420.446 361.892C421.478 361.704 422.155 360.396 421.843 359.432C421.485 358.326 420.488 357.834 419.383 358.035C416.195 358.616 412.906 359.01 409.794 359.937C408.792 360.236 408.06 361.354 408.397 362.397C408.725 363.411 409.783 364.114 410.857 363.794Z" fill="#2E6669"/>
<path d="M336.54 278.4C331.778 271.757 326.723 265.326 321.387 259.135C320.681 258.316 319.283 258.411 318.559 259.135C317.747 259.947 317.852 261.143 318.559 261.963C323.674 267.897 328.522 274.051 333.086 280.418C333.714 281.295 334.829 281.717 335.822 281.136C336.688 280.629 337.172 279.282 336.54 278.4Z" fill="#2E6669"/>
<path d="M339.75 278.868C339.306 278.137 339.086 277.552 339.081 276.875C339.081 276.867 339.127 276.244 339.079 276.561C339.109 276.366 339.169 276.179 339.224 275.99C339.304 275.769 339.309 275.755 339.239 275.948C339.281 275.864 339.326 275.782 339.375 275.702C339.422 275.621 339.472 275.542 339.527 275.465C339.422 275.596 339.415 275.61 339.506 275.505C339.571 275.435 340.033 275.068 339.73 275.268C339.799 275.222 340.268 274.982 339.915 275.128C340.089 275.056 340.272 275.017 340.452 274.966C340.875 274.848 340.254 274.93 340.661 274.939C340.882 274.944 341.1 274.936 341.321 274.954C341.467 274.968 341.447 274.965 341.262 274.945C341.357 274.961 341.451 274.981 341.544 275.003C341.765 275.054 341.976 275.126 342.193 275.189C342.577 275.301 342.043 275.085 342.43 275.284C343.705 275.936 344.782 277.17 345.67 278.411C346.229 279.193 346.748 280.003 347.25 280.823C347.475 281.19 347.7 281.558 347.916 281.931C347.991 282.055 348.062 282.181 348.128 282.31L348.092 282.23C348.088 282.113 348.098 281.998 348.121 281.883C348.291 281.29 348.806 281.045 349.668 281.147C348.639 280.984 347.466 281.411 347.208 282.544C346.99 283.503 347.5 284.829 348.605 285.004C350.158 285.25 351.512 284.497 351.979 282.946C352.37 281.646 351.688 280.438 351.042 279.362C349.933 277.516 348.746 275.694 347.301 274.09C345.945 272.585 344.178 271.369 342.138 271.059C339.756 270.696 337.477 271.403 336.073 273.447C334.537 275.684 334.952 278.676 336.296 280.887C336.856 281.809 338.089 282.156 339.032 281.605C339.955 281.065 340.312 279.795 339.75 278.869V278.868Z" fill="#2E6669"/>
<path d="M323.222 289.564C324.535 285.166 327.942 279.745 333.219 281.045C335.376 281.577 337.377 282.624 339.368 283.585C340.443 284.104 341.497 284.657 342.5 285.308C343.715 286.097 345.288 287.073 346.017 288.36C346.434 289.097 346.772 290.438 346.036 291.051C345.591 291.422 344.85 291.643 344.338 291.928C343.635 292.319 342.94 292.73 342.271 293.177C340.036 294.669 338.643 296.893 337.4 299.239C336.131 301.633 335.284 304.243 334.15 306.704C333.827 307.404 333.484 308.421 332.711 308.738C331.583 309.2 330.005 308.421 329.015 307.925C325.697 306.263 323.539 303.21 322.594 299.645C321.7 296.274 322.29 292.856 323.225 289.564C323.93 287.084 320.071 286.025 319.368 288.501C318.307 292.234 317.738 296.103 318.554 299.944C319.382 303.84 321.595 307.658 324.812 310.035C327.553 312.061 331.938 314.051 335.143 311.937C336.379 311.122 337.069 309.895 337.666 308.589C338.401 306.982 339.076 305.347 339.747 303.713C340.753 301.262 342.015 298.151 344.292 296.631C345.586 295.767 347.051 295.186 348.342 294.339C350.027 293.235 350.6 291.059 350.384 289.151C349.94 285.227 346.179 282.682 342.974 280.933C340.679 279.681 338.21 278.473 335.742 277.613C332.276 276.405 328.529 276.81 325.501 278.966C322.297 281.247 320.471 284.808 319.368 288.501C318.63 290.973 322.49 292.029 323.226 289.564H323.222Z" fill="#2E6669"/>
<path d="M107.251 199.498C104.98 202.06 103.158 204.939 102.116 208.216C101.118 211.356 100.911 214.712 101.074 217.985C101.128 219.064 101.955 219.985 103.074 219.985C104.115 219.985 105.128 219.069 105.074 217.985C104.927 215.049 105.056 212.289 105.901 209.512C106.707 206.862 108.203 204.444 110.08 202.327C110.796 201.519 110.876 200.295 110.08 199.499C109.35 198.769 107.971 198.687 107.252 199.499L107.251 199.498Z" fill="#2E6669"/>
<path d="M110.64 197.928C114.05 200.858 117.937 203.079 122.157 204.62C124.237 205.379 126.384 205.935 128.603 206.053C130.773 206.168 132.946 205.776 135.035 205.222C137.521 204.563 136.466 200.703 133.972 201.365C132.259 201.819 130.561 202.135 128.782 202.062C126.866 201.984 125.012 201.416 123.221 200.763C119.685 199.472 116.326 197.555 113.469 195.1C111.526 193.43 108.683 196.247 110.64 197.928Z" fill="#2E6669"/>
<path d="M126.518 196.549C130.662 201.318 136.072 204.592 142.229 206.009C145.163 206.684 148.334 206.996 150.252 209.597C151.719 211.585 152.306 214.131 153.064 216.54C153.834 218.987 157.697 217.942 156.921 215.477C156.135 212.979 155.438 210.291 154.026 208.059C152.095 205.009 149.252 203.492 145.807 202.699C142.648 201.972 139.353 201.354 136.511 199.705C133.81 198.138 131.389 196.071 129.346 193.72C127.654 191.773 124.835 194.614 126.518 196.549Z" fill="#2E6669"/>
<path d="M139.459 178.499C151.387 184.16 155.281 200.524 152.644 212.445C152.089 214.953 155.944 216.025 156.501 213.508C158.307 205.343 157.406 196.704 154.081 189.045C151.561 183.239 147.294 177.806 141.478 175.045C139.165 173.947 137.132 177.395 139.459 178.499Z" fill="#2E6669"/>
<path d="M94.954 179.917C100.023 174.947 106.045 171.971 113.132 171.123C120.74 170.213 129.103 171.252 135.525 175.694C137.647 177.162 139.649 173.696 137.544 172.24C130.477 167.352 121.077 166.117 112.707 167.176C108.547 167.702 104.493 168.753 100.742 170.66C97.528 172.294 94.691 174.574 92.126 177.089C90.285 178.894 93.114 181.722 94.954 179.917Z" fill="#2E6669"/>
<path d="M86.163 220.638C83.412 213.649 82.312 206.189 83.627 198.733C84.63 193.045 86.975 187.615 91.003 183.416C92.785 181.558 89.961 178.725 88.175 180.588C77.811 191.393 77.049 208.344 82.307 221.702C82.702 222.706 83.647 223.407 84.767 223.099C85.724 222.836 86.562 221.65 86.164 220.639L86.163 220.638Z" fill="#2E6669"/>
<path d="M126.488 242.196C126.618 242.12 126.75 242.046 126.886 241.98C126.944 241.951 127.054 241.925 127.1 241.88C126.825 241.993 126.759 242.021 126.902 241.964C126.94 241.949 126.979 241.934 127.017 241.919C127.338 241.798 127.668 241.698 128.001 241.614C128.196 241.565 128.393 241.522 128.591 241.484C128.68 241.467 128.77 241.453 128.859 241.437C129.126 241.388 128.844 241.444 128.734 241.449C129.122 241.431 129.506 241.37 129.896 241.361C130.253 241.353 130.61 241.361 130.966 241.391C131.052 241.398 131.138 241.41 131.224 241.416C131.492 241.437 130.812 241.343 131.07 241.396C131.25 241.433 131.432 241.461 131.611 241.505C131.771 241.544 131.929 241.59 132.085 241.643C132.178 241.674 132.268 241.71 132.36 241.744C132.578 241.824 132.447 241.772 132.308 241.718C132.867 241.933 133.407 242.202 133.965 242.422C134.94 242.808 136.203 242 136.425 241.025C136.687 239.873 136.072 238.978 135.028 238.565C134.671 238.424 135.21 238.65 134.985 238.551C134.887 238.508 134.788 238.465 134.69 238.422C134.363 238.279 134.035 238.137 133.705 238.001C133.331 237.846 132.953 237.709 132.557 237.62C131.647 237.415 130.691 237.331 129.759 237.365C127.947 237.431 126.048 237.815 124.468 238.741C123.565 239.27 123.165 240.568 123.75 241.477C124.335 242.386 125.521 242.761 126.486 242.195L126.488 242.196Z" fill="#2E6669"/>
<path d="M123.251 222.456C123.623 220.819 123.027 217.164 119.973 217.078C115.969 217.402 116.089 221.867 117.595 223.858C118.827 225.488 122.126 225.957 123.251 222.456Z" fill="#2E6669"/>
<path d="M146.615 221.428C146.95 219.788 146.39 216.119 143.592 216.021C139.926 216.331 140.053 220.81 141.439 222.813C142.574 224.453 145.598 224.935 146.614 221.429L146.615 221.428Z" fill="#2E6669"/>
<path d="M131.321 227.534C131.617 227.989 131.903 228.45 132.182 228.915C132.483 229.415 132.797 229.92 133.038 230.452L132.836 229.974C132.888 230.098 132.928 230.22 132.949 230.353L132.878 229.821C132.884 229.884 132.884 229.94 132.879 230.003L132.95 229.471C132.945 229.51 132.936 229.548 132.922 229.585L133.124 229.107C133.11 229.144 133.092 229.179 133.069 229.212L133.382 228.807C133.289 228.925 133.178 229.026 133.061 229.12L133.466 228.807C133.365 228.881 133.262 228.943 133.148 228.994L133.626 228.792C133.472 228.854 133.315 228.889 133.151 228.912L133.683 228.841C133.409 228.876 133.134 228.903 132.863 228.954C132.394 229.042 131.901 229.474 131.668 229.873C131.417 230.302 131.311 230.934 131.466 231.414C131.623 231.898 131.923 232.365 132.385 232.609C132.883 232.872 133.372 232.915 133.926 232.811C133.966 232.804 134.005 232.797 134.045 232.791L133.513 232.862C133.887 232.812 134.28 232.798 134.638 232.669C135.197 232.468 135.7 232.181 136.114 231.745C136.416 231.426 136.679 231.052 136.788 230.619C136.912 230.125 136.897 229.777 136.806 229.288C136.726 228.857 136.514 228.459 136.309 228.074C135.842 227.196 135.316 226.347 134.774 225.514C134.491 225.079 134.087 224.735 133.579 224.595C133.1 224.463 132.463 224.523 132.038 224.797C131.611 225.072 131.235 225.482 131.119 225.992C131.003 226.502 131.026 227.082 131.321 227.534Z" fill="#2E6669"/>
<path d="M108.148 246.488C105.71 244.583 103.51 242.414 101.561 240.012C101.339 239.739 101.12 239.463 100.905 239.185C101.128 239.473 100.758 238.989 100.751 238.981C100.655 238.853 100.559 238.725 100.463 238.597C100.285 238.357 100.114 238.112 99.945 237.866C99.313 236.945 98.681 236.014 98.151 235.03C97.654 234.108 96.301 233.741 95.415 234.312C94.478 234.916 94.166 236.062 94.697 237.048C95.778 239.055 97.186 240.92 98.611 242.691C100.591 245.151 102.83 247.372 105.319 249.316C106.142 249.959 107.356 250.178 108.147 249.316C108.806 248.598 109.029 247.175 108.148 246.488Z" fill="#2E6669"/>
<path d="M97.182 233.06C96.341 233.489 95.048 233.465 94.184 233.302C93.635 233.199 93.111 233.038 92.582 232.863C92.176 232.729 92.828 233.013 92.482 232.817C92.187 232.65 91.894 232.486 91.611 232.3C89.825 231.121 88.461 229.174 87.665 227.335C87.195 226.248 86.886 225.001 86.789 223.845C86.733 223.177 86.709 222.485 86.794 221.818C86.784 221.892 86.895 221.325 86.929 221.201C86.977 221.025 87.358 220.238 87.024 220.853C87.108 220.698 87.188 220.543 87.276 220.39C87.326 220.303 87.619 219.976 87.333 220.295C87.758 219.821 87.773 219.801 88.332 219.55C89.233 219.145 90.412 219.102 91.413 219.711C93.618 221.053 95.63 217.595 93.432 216.257C90.81 214.661 87.255 215.026 84.948 217.03C83.168 218.576 82.66 221.066 82.756 223.325C82.971 228.372 85.849 233.995 90.526 236.302C93.159 237.6 96.552 237.866 99.201 236.514C100.163 236.023 100.442 234.672 99.919 233.778C99.347 232.801 98.147 232.568 97.182 233.06Z" fill="#2E6669"/>
<path d="M112.777 253.021C121.454 256.577 131.266 257.788 139.926 253.507C143.985 251.5 147.706 248.444 150.209 244.654C152.685 240.905 153.982 236.446 154.613 232.034C155.466 226.073 155.16 220.018 155.988 214.054C156.136 212.986 155.728 211.906 154.591 211.594C153.656 211.337 152.28 211.914 152.131 212.991C150.875 222.035 152.273 232.007 148.038 240.414C144.356 247.724 136.313 252.152 128.254 252.283C123.24 252.364 118.451 251.054 113.841 249.164C112.841 248.754 111.642 249.608 111.381 250.561C111.066 251.708 111.773 252.61 112.777 253.021Z" fill="#2E6669"/>
<path d="M129.983 254.66C130.005 256.228 130.719 257.682 131.915 258.693C132.474 259.165 133.075 259.581 133.728 259.91C134.13 260.113 134.548 260.287 134.965 260.457C135.09 260.508 135.215 260.559 135.342 260.605C135.416 260.633 135.49 260.66 135.565 260.687C135.347 260.588 135.307 260.568 135.443 260.627C135.544 260.582 136.401 261.028 136.605 261.109C136.917 261.232 137.23 261.351 137.544 261.467C138.246 261.726 138.953 261.972 139.661 262.214C141.185 262.735 142.717 263.235 144.241 263.758C145.232 264.098 146.472 263.37 146.701 262.361C146.954 261.25 146.365 260.264 145.304 259.901C142.731 259.019 140.117 258.228 137.589 257.221C137.46 257.17 137.331 257.117 137.203 257.064C137.343 257.121 137.461 257.173 137.253 257.083C136.899 256.929 136.54 256.8 136.181 256.662C135.704 256.478 136.386 256.785 136.127 256.638C136.006 256.57 135.872 256.52 135.748 256.457C135.497 256.33 135.25 256.193 135.013 256.042C134.895 255.967 134.784 255.88 134.667 255.806C134.439 255.663 134.955 256.102 134.62 255.758C134.545 255.68 134.46 255.611 134.385 255.534C134.305 255.453 134.062 255.084 134.288 255.451C134.233 255.362 134.17 255.278 134.118 255.187C134.09 255.138 133.954 254.758 134.018 255.002C134.09 255.279 133.994 254.843 133.978 254.788C134.073 255.111 133.988 254.889 133.985 254.661C133.97 253.615 133.076 252.612 131.985 252.661C130.914 252.709 129.969 253.54 129.985 254.661L129.983 254.66Z" fill="#2E6669"/>
<path d="M93.127 262.351C96.578 261.31 100.222 260.179 103.067 257.882C104.567 256.671 105.377 255.092 105.853 253.242C106.416 251.056 106.583 248.752 106.684 246.504C106.733 245.424 105.73 244.504 104.684 244.504C103.56 244.504 102.733 245.421 102.684 246.504C102.593 248.527 102.503 250.059 102.055 251.938C101.94 252.422 101.788 252.89 101.633 253.362C101.434 253.968 101.713 253.265 101.537 253.603C101.458 253.754 101.367 253.894 101.28 254.039C101.066 254.396 101.334 254.034 101.229 254.112C101.092 254.214 100.978 254.391 100.855 254.512C100.739 254.626 100.619 254.735 100.496 254.841C100.425 254.903 100.029 255.198 100.372 254.949C97.792 256.826 95.166 257.558 92.064 258.494C91.03 258.806 90.376 259.895 90.667 260.954C90.949 261.979 92.089 262.664 93.127 262.351Z" fill="#2E6669"/>
<path d="M143.218 260.502C140.091 266.873 133.34 269.228 126.651 269.617C118.998 270.062 111.22 268.584 104.233 265.43C100.273 263.642 96.514 261.37 93.14 258.63C92.302 257.95 91.131 257.811 90.312 258.63C89.609 259.333 89.469 260.774 90.312 261.458C96.975 266.868 104.822 270.759 113.236 272.544C121.112 274.215 130.125 274.537 137.605 271.153C141.501 269.391 144.783 266.372 146.673 262.521C147.803 260.219 144.353 258.189 143.218 260.502Z" fill="#2E6669"/>
<path d="M91.414 306.973C89.263 317.604 88.775 328.505 90.067 339.276C90.196 340.348 90.894 341.276 92.067 341.276C93.048 341.276 94.197 340.356 94.067 339.276C92.818 328.866 93.191 318.314 95.271 308.036C95.78 305.523 91.925 304.448 91.414 306.973Z" fill="#2E6669"/>
<path d="M89.857 259.029C80.488 262.317 72.664 268.426 67.59 277.007C64.923 281.516 63.083 286.49 61.852 291.572C60.308 297.946 59.327 304.492 58.714 311.017C58.106 317.493 57.94 323.999 57.786 330.498C57.646 336.378 57.537 342.316 58.721 348.11C59.866 353.714 62.465 358.979 66.613 362.968C70.807 367 76.278 369.544 81.718 371.423C85.545 372.744 89.491 373.769 93.429 374.697C98.407 375.871 103.574 376.986 108.71 377.015C111.284 377.029 111.287 373.029 108.71 373.015C104.531 372.992 100.37 372.158 96.306 371.255C92.95 370.51 89.615 369.651 86.316 368.685C81.501 367.276 76.778 365.461 72.588 362.658C68.256 359.76 65.093 355.494 63.489 350.542C61.809 345.355 61.647 339.852 61.709 334.445C61.779 328.338 61.939 322.216 62.32 316.119C62.708 309.911 63.456 303.74 64.642 297.633C65.648 292.45 66.905 287.237 69.208 282.459C73.679 273.183 81.179 266.303 90.92 262.884C93.333 262.037 92.295 258.171 89.857 259.027V259.029Z" fill="#2E6669"/>
<path d="M153.986 302.297C156.222 308.774 156.435 315.718 154.542 322.309C153.83 324.788 157.689 325.846 158.399 323.372C160.475 316.144 160.299 308.346 157.843 301.234C157.008 298.815 153.143 299.855 153.986 302.297Z" fill="#2E6669"/>
<path d="M67.2 386.961C65.135 388.19 62.973 389.299 61.2 390.946C57.827 394.078 55.877 398.485 55.256 402.995C54.495 408.518 55.384 414.951 58.577 419.685C63.509 426.998 73.084 429.505 81.272 430.907C91.058 432.582 101.05 432.929 110.959 432.936C113.533 432.938 113.537 428.938 110.959 428.936C102.452 428.93 93.884 428.688 85.446 427.53C82.48 427.123 79.525 426.59 76.622 425.856C75.403 425.548 74.193 425.203 73 424.808C72.506 424.645 72.016 424.473 71.528 424.292C71.28 424.2 71.032 424.105 70.786 424.007C70.702 423.974 69.966 423.667 70.289 423.806C68.634 423.094 67.028 422.246 65.555 421.204C65.396 421.092 65.24 420.976 65.083 420.86C65.069 420.85 65.278 421.027 64.983 420.78C64.686 420.532 64.389 420.285 64.104 420.023C63.587 419.547 63.106 419.037 62.651 418.502C62.546 418.379 62.446 418.251 62.345 418.124C62.607 418.452 62.432 418.245 62.299 418.052C62.123 417.795 61.944 417.542 61.777 417.279C61.447 416.755 61.149 416.211 60.884 415.652C60.829 415.536 60.779 415.417 60.723 415.302C60.496 414.836 60.829 415.584 60.71 415.277C60.599 414.991 60.485 414.707 60.384 414.417C59.708 412.497 59.245 410.477 59.082 408.447C58.702 403.741 59.68 398.662 62.844 395.004C64.622 392.949 66.922 391.783 69.221 390.415C71.431 389.1 69.422 385.641 67.202 386.961H67.2Z" fill="#2E6669"/>
<path d="M164.714 368.658C169.122 371.034 173.331 373.943 177.136 377.198C180.632 380.189 183.227 383.924 185.18 388.09C186.763 391.466 187.133 395.381 187.506 399.048C188.009 403.995 188.256 408.969 188.417 413.938C188.6 419.603 188.651 425.273 188.584 430.94C188.553 433.515 192.553 433.516 192.584 430.94C192.708 420.538 192.572 410.065 191.572 399.704C191.182 395.67 190.845 391.34 189.285 387.555C187.454 383.115 184.712 378.688 181.156 375.421C176.85 371.466 171.879 367.975 166.734 365.203C164.468 363.982 162.446 367.434 164.715 368.657L164.714 368.658Z" fill="#2E6669"/>
<path d="M69.068 369.369C67.69 375.288 66.675 381.506 67.34 387.594C67.757 391.412 68.868 394.922 70.436 398.411C73.012 404.141 77.491 408.877 82.911 412.013C84.703 413.05 86.438 414.164 88.295 415.081C90.294 416.068 92.328 416.987 94.363 417.897C98.923 419.936 103.511 421.935 108.151 423.786L107.268 423.272C108.998 425.097 108.912 428.611 108.959 430.935C109.011 433.506 113.011 433.514 112.959 430.935C112.892 427.624 112.73 423.379 110.387 420.765C109.669 419.964 108.574 419.674 107.597 419.272C106.687 418.897 105.78 418.518 104.874 418.134C100.151 416.135 95.424 414.11 90.81 411.869C88.842 410.913 87.017 409.761 85.122 408.668C83.539 407.755 81.997 406.854 80.681 405.575C79.329 404.262 77.99 402.914 76.812 401.441C75.314 399.568 74.297 397.407 73.374 395.21C73.507 395.527 73.282 394.982 73.248 394.895C73.176 394.713 73.104 394.532 73.035 394.35C72.867 393.909 72.707 393.464 72.559 393.016C72.259 392.112 72.004 391.193 71.797 390.263C70.353 383.781 71.434 376.848 72.927 370.432C73.51 367.928 69.654 366.859 69.07 369.369H69.068Z" fill="#2E6669"/>
<path d="M176.703 353.906C181.709 349.059 179.617 340.563 178.825 334.565C177.684 325.915 176.542 317.265 175.401 308.615C174.321 300.43 173.641 292.048 171.716 284.007C170.06 277.087 167.014 270.313 161.507 265.608C158.729 263.235 155.46 261.396 151.879 260.577C149.533 260.04 147.098 259.802 144.712 259.504C143.638 259.37 142.712 260.519 142.712 261.504C142.712 262.696 143.635 263.37 144.712 263.504C149.367 264.085 153.742 264.763 157.633 267.605C162.877 271.436 165.824 277.42 167.474 283.549C169.452 290.897 170.083 298.619 171.075 306.144C172.14 314.217 173.206 322.291 174.271 330.364C174.816 334.494 175.61 338.678 175.858 342.837C176.018 345.525 175.95 349.068 173.875 351.077C172.022 352.871 174.852 355.698 176.703 353.905V353.906Z" fill="#2E6669"/>
<path d="M116.38 236.329C116.034 236.964 115.765 237.645 115.5 238.315C115.255 238.934 115.03 239.563 114.836 240.2C114.687 240.688 114.782 241.305 115.038 241.741C115.281 242.156 115.756 242.552 116.233 242.66C116.745 242.777 117.32 242.751 117.774 242.458C118.219 242.171 118.537 241.776 118.693 241.263C118.938 240.458 119.23 239.666 119.556 238.89L119.354 239.368C119.501 239.022 119.653 238.677 119.833 238.347C120.086 237.883 120.177 237.322 120.035 236.806C119.907 236.342 119.549 235.839 119.116 235.611C118.652 235.366 118.09 235.243 117.575 235.409C117.087 235.567 116.631 235.867 116.38 236.329Z" fill="#2E6669"/>
<path d="M152.388 372.225L152.382 372.217L150.968 375.631C153.778 375.566 156.611 375.082 159.249 374.098C160.398 373.67 161.594 373.194 162.632 372.527C163.511 371.962 163.952 370.725 163.35 369.791C162.783 368.912 161.555 368.469 160.614 369.073C160.385 369.22 160.143 369.349 159.902 369.475C159.62 369.622 159.333 369.761 159.043 369.893C158.955 369.933 158.867 369.97 158.779 370.01C158.44 370.167 159.21 369.835 158.876 369.97C158.647 370.062 158.418 370.154 158.187 370.24C157.132 370.634 156.046 370.947 154.945 371.182C154.623 371.251 154.3 371.313 153.976 371.368C153.807 371.397 153.638 371.419 153.469 371.449C153.322 371.47 153.355 371.467 153.568 371.438C153.48 371.45 153.392 371.46 153.303 371.471C152.528 371.562 151.749 371.613 150.968 371.631C150.163 371.65 149.453 372.119 149.14 372.86C148.802 373.661 149.041 374.39 149.554 375.045L149.56 375.053C150.208 375.881 151.718 375.783 152.388 375.053C153.194 374.175 153.079 373.108 152.388 372.225Z" fill="#2E6669"/>
<path d="M162.633 372.528C166.602 370.588 168.796 366.671 168.607 362.303C168.419 357.968 166.765 353.559 164.064 350.171C159.025 343.849 150.613 343.313 143.197 344.418C140.227 344.86 136.11 345.632 134.971 348.849C134.11 351.28 137.973 352.326 138.828 349.912C138.721 350.214 138.933 349.855 138.943 349.848C139.336 349.578 139.768 349.37 140.168 349.223C141.303 348.805 142.51 348.56 143.7 348.363C145.896 347.999 148.182 347.823 150.406 347.924C153.73 348.075 157.219 349.031 159.709 351.338C162.107 353.56 163.518 356.614 164.237 359.764C164.653 361.591 164.946 363.775 164.192 365.556C163.514 367.156 162.142 368.326 160.614 369.073C158.302 370.203 160.327 373.654 162.633 372.527V372.528Z" fill="#2E6669"/>
<path d="M141.363 361.243C143.461 362.529 145.485 363.935 147.386 365.498C148.351 366.291 149.289 367.115 150.199 367.97C150.654 368.397 151.102 368.832 151.542 369.275C151.762 369.496 151.973 369.728 152.197 369.944C152.204 369.951 152.507 370.271 152.333 370.065C152.167 369.868 152.442 370.246 152.471 370.292C152.484 370.312 152.597 370.579 152.522 370.387C152.437 370.169 152.559 370.543 152.571 370.593C152.593 370.686 152.619 370.779 152.632 370.874C152.626 370.83 152.604 370.589 152.608 370.822C152.608 370.875 152.591 371.275 152.618 371.037C152.642 370.823 152.593 371.129 152.588 371.149C152.575 371.211 152.533 371.517 152.584 371.207C152.572 371.279 152.485 371.49 152.564 371.28C152.504 371.441 152.237 371.424 152.568 371.299C152.631 371.275 152.817 371.136 152.674 371.252C152.554 371.349 152.691 371.269 152.793 371.258C152.674 371.272 152.559 371.26 152.44 371.268C152.417 371.27 152.114 371.246 152.339 371.27C152.587 371.296 152.195 371.239 152.139 371.225C151.92 371.171 151.703 371.113 151.49 371.041C151.37 371 151.25 370.956 151.132 370.91C151.164 370.923 151.391 371.027 151.188 370.931C151.011 370.847 150.834 370.763 150.662 370.668C150.271 370.453 149.919 370.189 149.556 369.93C148.606 369.251 147.647 368.583 146.676 367.935C144.433 366.438 142.117 365.058 139.777 363.72C137.538 362.441 135.521 365.896 137.758 367.174C140.133 368.531 142.483 369.932 144.756 371.455C146.74 372.783 148.606 374.484 150.983 375.061C152.412 375.408 153.965 375.353 155.126 374.354C156.183 373.446 156.686 372.004 156.596 370.631C156.499 369.149 155.859 367.975 154.839 366.925C153.813 365.87 152.746 364.856 151.64 363.885C149.068 361.625 146.299 359.582 143.38 357.792C141.179 356.443 139.168 359.901 141.361 361.246L141.363 361.243Z" fill="#2E6669"/>
<path d="M149.247 374.649C149.419 374.914 149.23 374.673 149.253 374.641C149.228 374.452 149.217 374.433 149.221 374.584C149.214 374.704 149.217 374.716 149.23 374.619C149.288 374.451 149.181 374.814 149.171 374.851C149.147 374.947 149.117 375.041 149.083 375.134L149.141 374.993L149.062 375.138L149.16 375.021C149.143 374.927 149.301 375.057 149.063 375.077C149.358 375.051 148.8 375.006 148.99 375.057C149.162 375.103 148.804 375.017 148.836 375.029C147.461 374.533 146.151 373.717 144.889 372.941C142.09 371.22 139.402 369.33 136.507 367.768C134.241 366.545 132.219 369.998 134.488 371.222C138.18 373.214 141.534 375.764 145.221 377.761C147.123 378.791 149.451 379.714 151.432 378.304C153.069 377.138 153.838 374.386 152.702 372.631C152.116 371.725 150.928 371.351 149.966 371.913C149.065 372.44 148.658 373.739 149.247 374.649Z" fill="#2E6669"/>
<path d="M155.96 369.678C160.195 368.025 158.035 363.542 156.248 360.822C154.179 357.673 151.44 355.026 148.284 352.977C141.263 348.417 132.696 347.625 124.547 348.614C120.214 349.14 116.679 350.698 113.526 353.751C112.063 355.167 110.703 356.627 110.083 358.609C109.565 360.264 109.491 362.137 109.63 363.856C109.922 367.47 111.174 371.239 114.026 373.64C117.372 376.457 121.856 377.215 126.112 377.175C128.401 377.154 130.88 376.488 132.988 377.589C134.884 378.58 136.717 379.685 138.604 380.687C140.633 381.764 143.194 382.127 145.408 381.42C147.748 380.672 149.251 378.279 147.957 375.966C146.7 373.719 143.243 375.734 144.503 377.985C144.029 377.138 144.908 377.676 144.155 377.625C143.866 377.605 143.404 377.762 143.099 377.772C142.468 377.793 141.85 377.706 141.252 377.502C139.862 377.028 138.543 376.018 137.243 375.322C135.873 374.588 134.476 373.689 132.971 373.257C131.178 372.742 129.335 373.063 127.509 373.138C124.224 373.274 120.67 373.156 117.768 371.423C115.395 370.006 114.264 367.604 113.776 364.962C113.301 362.388 113.418 359.645 115.274 357.677C117.558 355.256 119.949 353.5 123.257 352.831C126.401 352.195 129.809 352.139 133.003 352.295C136.226 352.453 139.453 353.074 142.425 354.357C145.349 355.62 148.035 357.432 150.26 359.711C151.382 360.86 152.365 362.108 153.2 363.48C153.589 364.118 154.002 364.794 154.284 365.487C154.359 365.672 154.401 365.89 154.482 366.07C154.685 366.52 154.335 366.038 154.897 365.819C153.891 366.212 153.193 367.161 153.5 368.279C153.764 369.238 154.948 370.071 155.96 369.676V369.678Z" fill="#2E6669"/>
<path d="M118.302 207.699C117.359 207.947 116.44 208.28 115.556 208.691C115.051 208.937 114.562 209.215 114.091 209.521C113.68 209.794 113.307 210.121 112.984 210.495C112.813 210.709 112.701 210.966 112.662 211.238C112.578 211.493 112.563 211.766 112.619 212.029C112.662 212.292 112.757 212.544 112.898 212.771C113.04 212.997 113.224 213.193 113.441 213.349C113.658 213.504 113.903 213.615 114.163 213.675C114.423 213.735 114.692 213.743 114.955 213.7L115.452 213.55C115.773 213.406 116.051 213.182 116.259 212.898L116.303 212.851L115.939 213.232C116.183 212.993 116.456 212.786 116.751 212.615L116.308 212.886C117.21 212.353 118.176 211.934 119.182 211.639L118.686 211.79C118.777 211.764 118.871 211.737 118.966 211.709C119.48 211.601 119.941 211.317 120.268 210.906C120.588 210.463 120.719 209.911 120.634 209.372C120.545 208.85 120.257 208.384 119.832 208.07C119.615 207.907 119.367 207.791 119.103 207.728C118.839 207.665 118.565 207.657 118.297 207.704L118.302 207.699Z" fill="#2E6669"/>
</g>
<path d="M83.7014 159.288C80.4301 159.352 77.3618 158.553 74.5934 156.808C72.2055 155.304 69.9158 152.975 69.8697 149.959C69.8225 146.831 71.7221 144.049 74.4867 142.664C77.0761 141.367 80.4987 141.385 82.7057 143.407C83.7858 144.397 84.3107 145.902 84.0005 147.358C83.7191 148.68 82.7485 149.712 81.7832 150.596C80.0707 152.166 77.6172 152.799 75.3532 152.588C70.0615 152.092 64.3847 148.725 62.8553 143.347C62.0637 140.564 62.218 137.578 63.37 134.894C64.5018 132.257 66.6471 130.144 68.8856 128.417C73.0659 125.191 80.7466 122.706 84.7941 127.4C86.7665 129.687 86.3768 132.763 84.7881 135.162C83.0765 137.747 80.026 139.223 77.2108 140.246C71.7845 142.218 63.6902 142.722 60.1102 137.245C56.7886 132.163 59.1949 125.892 62.933 121.722C66.4087 117.844 72.4352 114.673 77.7332 115.497C79.1311 115.715 80.4036 116.256 81.5468 117.08C83.7356 118.658 81.1025 121.974 78.9131 120.396C76.2207 118.456 71.8514 120.269 69.3006 121.828C66.0996 123.784 62.923 127.521 62.7081 131.402C62.6241 132.917 63.0988 134.515 64.1901 135.591C65.7191 137.1 68.0472 137.433 70.1098 137.374C72.2969 137.311 74.396 136.859 76.4289 136.039C78.3017 135.284 80.4135 134.358 81.5097 132.545C81.8515 131.981 82.0755 131.376 81.9298 130.772C81.8273 130.344 81.4428 129.895 80.9235 129.597C79.4834 128.772 77.4218 129.007 75.8497 129.478C73.7507 130.108 71.9986 131.207 70.347 132.646C68.91 133.898 67.669 135.278 67.0098 137.091C65.7056 140.679 67.1859 144.187 70.1373 146.328C71.6192 147.402 73.3187 148.032 75.1222 148.297C75.5103 148.354 75.8996 148.408 76.2917 148.427C76.7019 148.447 75.8581 148.476 76.5149 148.426C76.6545 148.416 76.7936 148.401 76.9323 148.38C77.3731 148.312 77.2873 148.32 77.748 148.152C77.9735 148.07 78.1945 147.978 78.4163 147.887C78.6195 147.794 78.6084 147.809 78.383 147.934C78.5013 147.859 78.6157 147.778 78.7269 147.693C79.0162 147.474 79.233 147.274 79.445 147.041C79.609 146.861 79.7421 146.636 79.9112 146.465L79.8482 146.589C79.9431 146.368 79.9545 146.364 79.8823 146.577C80.0032 146.568 79.7416 146.451 79.8657 146.532C79.5478 146.324 79.0444 146.063 78.6616 145.989C76.9518 145.662 74.892 146.982 74.2826 148.571C73.5346 150.519 74.919 151.839 76.3708 152.914C78.3013 154.345 80.777 155.148 83.19 155.101C84.3248 155.078 85.3835 155.705 85.5315 156.922C85.6572 157.956 84.84 159.267 83.6982 159.289L83.7014 159.288Z" fill="#2E6669"/>
<defs>
<clipPath id="clip0_1025_3231">
<rect width="421.854" height="272.596" fill="white" transform="translate(55 165)"/>
</clipPath>
</defs>
</svg>
