<svg width="520" height="520" viewBox="0 0 520 520" fill="none" xmlns="http://www.w3.org/2000/svg">
<circle cx="260" cy="260" r="260" fill="#E0F2F1"/>
<path d="M379.786 75.1989C328.782 76.7882 294.498 108.818 295.634 145.011C296.906 185.508 333.795 212.274 384.044 210.709C436.232 209.082 469.422 179.872 468.159 139.635C467.015 103.196 430.61 73.6152 379.786 75.1989Z" fill="white"/>
<path d="M300.999 236.481C297.896 237.058 296.164 239.661 296.648 242.24C297.188 245.125 299.752 246.704 302.809 246.136C305.984 245.545 307.68 243.151 307.144 240.287C306.657 237.69 304.094 235.905 300.999 236.481Z" fill="white"/>
<path d="M315.7 215.87C310.4 216.856 307.443 221.3 308.269 225.704C309.193 230.633 313.57 233.33 318.791 232.358C324.212 231.35 327.111 227.266 326.193 222.37C325.362 217.936 320.98 214.887 315.7 215.87Z" fill="white"/>
<path d="M379.74 73.7344C369.993 74.0065 360.319 75.5006 350.95 78.181C342.507 80.6035 334.445 84.1798 326.998 88.8067C320.237 93.005 314.17 98.2111 309.011 104.241C304.156 109.944 300.331 116.432 297.703 123.422C295.169 130.249 293.962 137.49 294.147 144.761C294.317 152.416 295.863 159.979 298.712 167.097C301.51 173.95 305.501 180.263 310.504 185.748C315.661 191.35 321.684 196.105 328.347 199.837C335.563 203.874 343.302 206.917 351.35 208.881C360.289 211.064 369.457 212.189 378.664 212.234C388.227 212.347 397.774 211.419 407.134 209.468C415.474 207.745 423.557 204.972 431.187 201.217C438.1 197.813 444.455 193.395 450.037 188.112C455.255 183.148 459.592 177.35 462.867 170.96C466.132 164.513 468.252 157.558 469.133 150.399C470.119 142.943 469.764 135.374 468.085 128.043C466.362 120.947 463.343 114.224 459.176 108.206C454.793 101.894 449.391 96.3413 443.185 91.7691C436.446 86.8135 429.019 82.8498 421.133 80.001C412.47 76.883 403.428 74.9135 394.243 74.1437C389.422 73.7186 384.578 73.5819 379.74 73.7344C377.837 73.7937 377.926 76.7229 379.832 76.6634C389.288 76.3332 398.748 77.1878 407.986 79.2067C416.235 81.012 424.193 83.935 431.634 87.893C438.444 91.5156 444.647 96.1595 450.023 101.66C454.986 106.736 459.016 112.631 461.931 119.08C464.803 125.521 466.413 132.445 466.673 139.483C466.952 146.643 466.014 153.8 463.899 160.653C461.871 167.124 458.726 173.198 454.605 178.607C450.263 184.25 445.037 189.169 439.124 193.175C432.687 197.516 425.676 200.957 418.29 203.4C409.939 206.167 401.289 207.954 392.518 208.723C383.274 209.625 373.958 209.516 364.739 208.397C356.364 207.393 348.151 205.342 340.297 202.293C333.183 199.529 326.518 195.746 320.516 191.063C314.863 186.623 310.011 181.266 306.166 175.219C302.362 169.141 299.695 162.434 298.292 155.419C296.832 148.396 296.689 141.167 297.869 134.092C299.1 127.173 301.6 120.535 305.246 114.507C309.074 108.224 313.91 102.599 319.562 97.8526C325.699 92.6947 332.566 88.4559 339.945 85.2716C348.176 81.7063 356.846 79.2354 365.73 77.9232C370.402 77.2295 375.111 76.8089 379.832 76.6634C381.732 76.6042 381.646 73.675 379.74 73.7344Z" fill="#2E6669"/>
<path d="M300.725 235.021C299.321 235.254 298.024 235.917 297.018 236.917C296.013 237.917 295.348 239.204 295.118 240.596C294.951 241.923 295.209 243.267 295.856 244.44C296.502 245.612 297.503 246.553 298.719 247.13C299.985 247.664 301.374 247.85 302.739 247.667C304.104 247.484 305.395 246.939 306.475 246.09C307.487 245.239 308.208 244.098 308.538 242.825C308.869 241.552 308.793 240.209 308.321 238.982C307.224 235.899 303.83 234.482 300.725 235.021C300.334 235.093 299.988 235.317 299.763 235.642C299.537 235.968 299.452 236.368 299.524 236.755C299.597 237.143 299.822 237.485 300.15 237.708C300.477 237.93 300.881 238.014 301.272 237.941C301.695 237.841 302.132 237.82 302.562 237.879C302.708 237.893 302.852 237.914 302.996 237.936C303.292 237.982 303.097 237.961 303.035 237.944C303.302 238.02 303.566 238.11 303.824 238.213C304.214 238.359 303.617 238.067 303.969 238.283C304.046 238.331 304.124 238.373 304.199 238.421C304.386 238.54 304.564 238.672 304.732 238.817C304.489 238.603 304.802 238.902 304.826 238.925C304.886 238.989 304.944 239.054 305 239.122C305.084 239.222 305.164 239.326 305.24 239.433C305.056 239.171 305.285 239.525 305.303 239.558C305.407 239.752 305.499 239.953 305.578 240.159C305.459 239.866 305.648 240.449 305.668 240.559C305.712 240.785 305.741 241.013 305.755 241.242C305.736 240.894 305.745 241.329 305.744 241.375C305.738 241.502 305.729 241.634 305.714 241.762C305.7 241.891 305.68 242.014 305.658 242.139C305.669 242.077 305.741 241.871 305.656 242.128C305.59 242.324 305.518 242.516 305.447 242.71C305.317 243.074 305.605 242.483 305.402 242.81C305.359 242.881 305.319 242.952 305.274 243.023C305.207 243.126 305.136 243.227 305.06 243.324C305.013 243.384 304.761 243.644 304.989 243.417C304.84 243.568 304.683 243.711 304.518 243.844C304.434 243.912 304.347 243.976 304.257 244.038C304.055 244.179 304.563 243.887 304.189 244.074C303.983 244.175 303.785 244.289 303.572 244.377C303.463 244.424 303.352 244.466 303.241 244.507C303.129 244.547 303.15 244.539 303.276 244.496C303.18 244.524 303.084 244.551 302.988 244.575C302.74 244.637 302.49 244.686 302.238 244.722C302.114 244.739 301.992 244.753 301.869 244.764C301.598 244.789 302.214 244.779 301.765 244.767C301.53 244.761 301.299 244.757 301.066 244.732C300.953 244.719 300.841 244.701 300.729 244.683C300.617 244.665 300.64 244.669 300.78 244.698C300.694 244.677 300.609 244.655 300.525 244.63C300.315 244.569 300.116 244.486 299.911 244.409C299.655 244.312 299.85 244.383 299.908 244.414C299.796 244.353 299.686 244.289 299.58 244.223C299.497 244.169 299.029 243.802 299.267 244.014C299.078 243.844 298.905 243.658 298.75 243.458C298.697 243.39 298.646 243.322 298.597 243.252C298.792 243.531 298.56 243.172 298.539 243.132C298.435 242.936 298.342 242.734 298.26 242.528C298.146 242.259 298.236 242.455 298.254 242.516C298.215 242.381 298.179 242.244 298.15 242.107C298.133 242.016 298.116 241.924 298.099 241.832C298.086 241.762 298.064 241.219 298.062 241.565C298.063 241.321 298.086 241.085 298.11 240.843C298.117 240.768 298.183 240.486 298.113 240.77C298.145 240.643 298.181 240.517 298.223 240.394C298.265 240.27 298.321 240.15 298.365 240.027C298.494 239.665 298.225 240.225 298.425 239.895C298.565 239.668 298.716 239.448 298.878 239.236C299.126 238.907 298.677 239.396 298.987 239.118C299.09 239.026 299.187 238.928 299.293 238.839C299.383 238.764 299.476 238.694 299.57 238.623C299.665 238.553 299.646 238.566 299.539 238.635C299.62 238.583 299.702 238.534 299.786 238.486C300.047 238.343 300.317 238.217 300.594 238.11C300.629 238.096 300.872 238.025 300.654 238.088C300.859 238.028 301.066 237.982 301.276 237.941C301.667 237.868 302.013 237.644 302.239 237.319C302.464 236.994 302.549 236.593 302.477 236.206C302.404 235.819 302.179 235.476 301.851 235.254C301.524 235.031 301.12 234.947 300.729 235.02L300.725 235.021Z" fill="#2E6669"/>
<path d="M315.426 214.41C311.061 215.27 307.433 218.426 306.733 222.887C306.443 224.931 306.81 227.013 307.781 228.837C308.751 230.662 310.277 232.136 312.142 233.053C315.951 234.897 321.013 234.1 324.302 231.532C327.654 228.914 328.623 224.375 327.206 220.487C325.471 215.725 320.235 213.567 315.424 214.411C313.522 214.744 314.068 217.665 315.971 217.331C319.049 216.791 322.439 217.82 323.994 220.651C325.367 223.149 325.124 226.486 323.178 228.538C322.063 229.62 320.685 230.397 319.178 230.793C317.671 231.189 316.086 231.19 314.58 230.797C313.183 230.4 311.951 229.574 311.061 228.437C310.171 227.3 309.669 225.911 309.629 224.471C309.515 220.765 312.465 218.021 315.975 217.33C317.866 216.958 317.324 214.036 315.426 214.41Z" fill="#2E6669"/>
<g clip-path="url(#clip0_1025_3229)">
<path d="M385.328 97.1677C385.85 94.7099 386.391 92.6055 387.252 90.5933C387.942 88.9813 389.14 87.1666 390.595 86.4523C391.694 85.9123 393.124 86.0899 394.005 86.9479C395.198 88.1103 394.828 89.7699 393.927 91.0195C391.983 93.7168 388.375 95.5726 385.624 97.2883" fill="white"/>
<path d="M394.668 96.8233C395.656 94.8993 396.731 93.3407 397.939 92.3728C399.011 91.5144 400.184 90.7644 401.616 90.7079C402.578 90.67 403.696 91.2298 404.074 92.1282C404.586 93.345 403.812 94.4329 402.778 95.0571C400.546 96.4047 397.364 96.6205 394.846 97.0037" fill="white"/>
<path d="M416.5 136.175C416.653 136.729 416.777 137.302 416.759 137.878C416.742 138.458 416.571 139.046 416.191 139.478C416.117 139.568 416.028 139.651 415.918 139.69C415.687 139.777 415.25 139.802 414.842 139.665C414.842 139.665 414.753 139.658 414.628 139.654C414.916 140.288 414.948 141.056 414.419 141.506C413.861 141.981 413.091 141.754 412.803 141.394C411.656 139.975 410.935 138.973 409.799 137.547L409.518 137.691C409.816 138.358 409.969 139.092 409.965 139.824C409.965 140.198 409.909 140.609 409.646 140.875C409.372 141.156 408.925 141.21 408.552 141.092C408.179 140.973 407.87 140.706 407.6 140.418C406.943 139.716 406.474 138.855 406.013 138.008C405.53 137.126 405.05 136.243 404.571 135.36L403.527 132.753C403.878 132.558 404.191 132.288 404.496 132.021C405.718 130.962 406.996 129.817 407.519 128.282L408.673 128.689C411.599 129.9 413.922 130.984 415.428 133.405C415.875 134.287 416.23 135.216 416.5 136.175Z" fill="white"/>
<path d="M350.149 142.997L349.854 144.817C349.623 146.232 349.982 147.738 349.495 149.085C349.005 150.454 347.833 151.311 346.651 152.14C346.317 152.37 345.926 152.558 345.472 152.597C345.07 152.633 344.598 152.453 344.293 152.19C343.909 151.859 343.987 151.07 343.987 151.07L343.998 150.962C343.078 151.852 342.098 152.792 341.345 153.469C340.198 154.506 339.775 154.193 339.473 153.228C338.39 153.826 336.998 153.3 336.522 152.936C335.648 152.273 337.172 150.558 336.295 149.953C333.596 148.08 341.071 143.358 341.924 141.783L343.501 140.04C345.717 141.023 347.929 142.01 350.149 142.997Z" fill="white"/>
<path d="M388.266 141.278C389.728 140.962 391.059 140.509 392.54 139.787C394.034 145.094 395.248 149.299 396.619 154.715C396.931 155.944 397.215 157.142 397.745 158.38C398.162 159.353 398.576 160.563 399.348 161.369C400.992 163.085 407.641 168.368 411.725 171.861C412.119 172.198 412.271 172.747 411.574 173.786C410.124 175.945 407.456 179.178 406.218 180.605C405.9 180.971 405.381 181.009 404.968 180.758C398.713 176.947 392.93 173.775 388.674 167.998C387.655 166.615 386.774 165.053 386.001 163.589C384.52 160.786 383.408 158.202 382.264 155.533C380.963 157.493 379.245 159.375 378.048 161.488C377.742 162.028 377.469 162.583 377.247 163.159C376.805 164.3 377.033 164.899 377.779 165.844C379.306 167.78 381.373 169.382 383.121 171.218C383.915 172.051 384.782 172.776 384.117 174.063C383.453 175.351 382.55 176.56 381.663 177.839C381.139 178.594 380.459 179.709 379.512 180.109C378.566 180.51 377.763 179.958 376.919 179.475C372.913 177.182 369.025 174.955 366.086 171.279C363.991 168.659 363.043 165.644 363.114 162.315C363.184 158.987 364.661 155.865 366.05 153.026C368.004 149.035 370.207 145.753 371.965 141.572C374.712 141.934 378.086 142.35 380.645 142.149C383.943 141.89 386.231 141.718 388.266 141.278L388.266 141.278Z" fill="white"/>
<path d="M354.074 90.3793C354.087 90.3638 354.099 90.348 354.112 90.3325C356.267 87.6485 359.53 85.9753 363.624 85.6831C366.207 85.4991 368.804 85.9317 371.636 87.8819C371.636 87.8819 372.516 88.4882 373.396 89.0944C373.564 89.2461 373.733 89.3973 373.733 89.3973C375.433 90.9261 376.286 92.6955 376.864 94.8647C377.155 95.9569 377.283 97.0884 377.232 98.2155C377.173 99.4867 377.137 102.559 376.153 104.036C376.264 104.838 376.106 105.825 375.807 106.484C375.527 107.102 375.098 107.961 374.15 108.583C373.884 108.756 373.25 109.002 372.612 109.015C372.412 109.464 371.939 110.257 371.939 110.257C371.23 111.391 370.438 112.439 369.291 113.479L367.072 114.77C366.141 115.241 364.818 115.779 363.821 116.003C363.436 116.089 363.04 116.156 362.63 116.206C360.069 116.512 357.92 115.891 355.867 114.284C353.907 112.752 353.003 110.272 352.624 107.511C352.456 106.287 352.299 104.982 352.107 103.659C351.456 101.247 351.365 98.115 351.683 96.0942C351.991 94.1338 352.849 91.9261 354.074 90.3789L354.074 90.3793Z" fill="white"/>
<path d="M372.947 102.696L372.697 102.142C372.291 101.245 371.69 100.722 371.397 99.9057C371.22 99.4115 371.394 98.6449 371.787 98.3049C372.006 98.1147 372.346 97.9645 372.63 97.927C373.308 97.6868 375.77 98.927 377.239 98.0603C377.236 98.11 377.234 98.1622 377.232 98.2148C377.173 99.4864 377.137 102.559 376.152 104.036C376.115 103.77 376.049 103.524 375.949 103.317C375.814 103.038 375.485 102.553 374.623 102.446C374.127 102.384 373.506 102.523 373.119 103.022L373.103 103.042L372.947 102.696L372.947 102.696Z" fill="#2E6669"/>
<path d="M407.238 126.597C404.013 122.569 400.079 119.456 395.874 116.472C394.545 115.529 390.928 113.977 389.398 113.429C383.575 111.343 380.234 110.951 374.422 110.831C374.422 110.831 372.97 111.179 370.969 111.658C370.493 112.278 369.952 112.88 369.291 113.479L367.072 114.771C366.141 115.242 364.818 115.78 363.821 116.003C363.436 116.09 363.04 116.157 362.63 116.206C360.901 116.413 359.361 116.195 357.911 115.539C353.433 119.254 350.674 124.801 348.107 130.131L343.365 139.978C345.71 141.021 348.055 142.064 350.399 143.108C351.003 143.376 351.77 143.623 352.264 143.181C354.765 137.935 357.593 132.849 360.725 127.964C364.156 132.272 367.383 136.745 370.397 141.362C372.611 141.65 375.585 142.091 378.235 142.184C379.084 142.214 379.899 142.207 380.646 142.149C386.211 141.712 388.899 141.521 392.349 139.879C393.108 138.221 392.395 136.558 391.703 135.036C390.137 131.591 388.57 128.147 387.006 124.701C392.841 125.248 397.908 128.421 401.659 132.664C402.018 133.035 402.62 133.095 403.115 132.933C403.641 132.761 404.075 132.387 404.495 132.023C405.728 130.951 407.017 129.795 407.534 128.242C407.72 127.682 407.606 127.056 407.239 126.597L407.238 126.597Z" fill="#2E6669"/>
<path d="M386.628 173.521C388.535 174.241 389.451 175.506 389.295 177.664C389.146 179.738 388.265 181.835 387.232 183.762C386.319 185.466 384.934 187.789 383.314 188.888C382.345 189.547 381.073 189.335 380.083 188.567C379.624 188.214 379.173 187.631 379.049 187.062C378.648 185.235 379.056 182.209 379.639 180.178L379.66 180.037C380.53 179.587 381.169 178.553 381.663 177.836C382.551 176.558 383.453 175.351 384.117 174.061C384.145 174.004 384.174 173.95 384.195 173.896L384.902 173.625C385.161 173.431 385.474 173.337 385.779 173.341C386.088 173.348 386.34 173.413 386.628 173.521Z" fill="#2E6669"/>
<path d="M408.244 187.239C409.334 187.885 410.424 188.53 411.496 189.165C412.109 189.098 412.672 188.839 413.082 188.351C414.347 186.849 415.064 184.234 415.487 182.343C415.97 180.203 416.261 177.945 415.852 175.906C415.43 173.784 414.208 172.822 412.18 172.649C412.138 172.646 412.095 172.642 412.056 172.639C412.035 172.938 411.893 173.309 411.573 173.784C410.319 175.657 408.149 178.33 406.786 179.94L406.85 180.772C407.029 182.798 407.508 185.515 408.244 187.239Z" fill="#2E6669"/>
<path d="M408.017 157.286C410.091 158.16 412.341 158.573 414.577 158.242C416.609 157.94 418.474 156.921 419.874 155.403L418.535 154.355C417.023 156.543 417.161 159.649 418.801 161.721C420.357 163.686 423.218 164.459 425.541 163.591L424.711 162.146C423.392 163.813 422.69 165.885 423.06 168.023C423.43 170.156 424.983 171.713 426.921 172.473C427.35 172.642 427.856 172.288 427.969 171.87C428.101 171.381 427.805 170.975 427.374 170.806C425.932 170.24 424.958 169.061 424.704 167.564C424.469 166.173 424.985 164.546 425.917 163.369C426.158 163.065 426.256 162.679 426.05 162.322C425.871 162.011 425.438 161.794 425.088 161.924C423.345 162.576 421.273 162.083 420.085 160.597C418.864 159.07 418.921 156.8 420.008 155.229C420.566 154.422 419.324 153.471 418.669 154.181C417.461 155.492 415.887 156.345 414.125 156.576C412.192 156.829 410.25 156.369 408.471 155.62C408.046 155.44 407.534 155.813 407.423 156.223C407.288 156.721 407.591 157.107 408.018 157.287L408.017 157.286Z" fill="#2E6669"/>
<path d="M392.442 142.06C393.336 145.227 394.23 148.394 395.071 151.576C395.519 153.266 395.91 154.975 396.392 156.656C396.615 157.435 396.898 158.184 397.21 158.93C397.482 159.581 397.736 160.245 398.091 160.855C398.565 161.67 399.241 162.286 399.932 162.903C400.71 163.599 401.507 164.274 402.305 164.945C404.337 166.653 406.392 168.331 408.433 170.027C408.926 170.436 409.418 170.846 409.908 171.258C410.361 171.638 410.86 171.999 411.276 172.42C411.346 172.491 411.358 172.47 411.347 172.605C411.322 172.897 411.116 173.184 410.959 173.422C410.614 173.949 410.239 174.456 409.863 174.96C409.057 176.043 408.214 177.098 407.358 178.141C406.992 178.588 406.622 179.031 406.249 179.472C406.098 179.649 405.947 179.827 405.795 180.002C405.61 180.217 405.518 180.232 405.26 180.095C403.917 179.385 402.63 178.51 401.334 177.714C400.074 176.94 398.823 176.15 397.6 175.315C395.194 173.671 392.913 171.835 390.95 169.661C388.779 167.257 387.193 164.454 385.759 161.554C384.306 158.617 383.071 155.579 381.757 152.577C381.418 151.802 381.073 151.029 380.72 150.26C380.558 149.907 380.057 149.818 379.748 150.001C379.392 150.213 379.331 150.633 379.493 150.987C380.927 154.111 382.2 157.309 383.646 160.428C385.079 163.52 386.642 166.604 388.76 169.278C392.616 174.148 397.957 177.357 403.173 180.509C403.807 180.893 404.514 181.491 405.255 181.609C405.991 181.726 406.512 181.357 406.971 180.821C407.785 179.871 408.579 178.904 409.359 177.926C410.244 176.815 411.118 175.691 411.929 174.524C412.651 173.485 413.225 172.209 412.096 171.241C408.274 167.96 404.229 164.926 400.522 161.51C400.26 161.269 399.994 161.027 399.757 160.76C399.298 160.243 399.008 159.571 398.741 158.938C398.084 157.384 397.63 155.811 397.214 154.177C396.359 150.816 395.442 147.472 394.503 144.134C394.273 143.315 394.042 142.496 393.811 141.677C393.56 140.787 392.188 141.166 392.441 142.06L392.442 142.06Z" fill="#2E6669"/>
<path d="M403.956 135.725C404.401 136.542 404.846 137.358 405.291 138.175C405.708 138.939 406.123 139.701 406.653 140.393C407.174 141.074 407.822 141.738 408.705 141.851C409.639 141.971 410.468 141.356 410.623 140.41C410.794 139.363 410.548 138.286 410.132 137.329C409.977 136.973 409.464 136.89 409.16 137.07C408.798 137.285 408.75 137.698 408.905 138.056C409.061 138.413 409.166 138.81 409.221 139.197C409.271 139.548 409.322 140.027 409.181 140.322C409.211 140.259 409.097 140.424 409.16 140.36C409.106 140.415 409.1 140.403 409.029 140.421C408.988 140.432 408.854 140.435 408.741 140.396C408.427 140.285 408.162 139.983 407.937 139.722C407.391 139.088 406.997 138.327 406.598 137.594C406.126 136.728 405.654 135.863 405.183 134.997C404.741 134.186 403.514 134.912 403.956 135.725V135.725Z" fill="#2E6669"/>
<path d="M386.848 125.408C391.438 125.817 395.706 127.979 399.104 131.084C399.516 131.46 399.916 131.85 400.304 132.252C400.708 132.669 401.086 133.242 401.609 133.507C402.804 134.114 403.971 133.41 404.882 132.631C405.811 131.837 406.724 131.009 407.43 129.999C408.098 129.043 408.617 127.844 408.117 126.697C407.876 126.146 407.423 125.69 407.038 125.238C406.599 124.723 406.146 124.22 405.681 123.729C404.791 122.791 403.857 121.898 402.891 121.042C400.979 119.347 398.945 117.795 396.873 116.308C395.329 115.199 393.631 114.407 391.892 113.661C389.904 112.809 387.865 112.089 385.782 111.514C381.49 110.328 377.095 110.129 372.671 110.099C371.757 110.092 371.756 111.533 372.671 111.54C376.25 111.564 379.846 111.642 383.36 112.399C387.227 113.232 391.128 114.615 394.606 116.538C395.423 116.989 396.167 117.554 396.92 118.105C397.921 118.835 398.909 119.583 399.874 120.361C401.762 121.885 403.568 123.52 405.206 125.319C405.593 125.743 405.97 126.176 406.337 126.618C406.664 127.012 406.997 127.371 406.886 127.92C406.669 128.986 405.718 129.93 404.968 130.639C404.577 131.008 404.175 131.369 403.761 131.712C403.4 132.011 402.9 132.405 402.397 132.278C402.007 132.179 401.681 131.621 401.405 131.333C401.003 130.913 400.588 130.505 400.159 130.112C396.455 126.709 391.856 124.413 386.847 123.966C386.465 123.932 386.137 124.322 386.137 124.687C386.137 125.105 386.464 125.373 386.847 125.407L386.848 125.408Z" fill="#2E6669"/>
<path d="M386.808 125.983C387.804 128.175 388.801 130.366 389.797 132.558C390.284 133.63 390.78 134.697 391.257 135.773C391.704 136.781 392.069 137.824 391.921 138.944C391.87 139.33 392.284 139.664 392.632 139.664C393.058 139.664 393.291 139.331 393.342 138.944C393.495 137.783 393.159 136.656 392.72 135.596C392.238 134.435 391.692 133.299 391.172 132.156C390.126 129.856 389.08 127.556 388.034 125.256C387.874 124.902 387.371 124.814 387.063 124.997C386.705 125.209 386.646 125.628 386.808 125.983Z" fill="#2E6669"/>
<path d="M360.858 129.271C363.65 132.828 366.303 136.496 368.817 140.261C369.327 141.024 370.558 140.304 370.044 139.533C367.461 135.667 364.73 131.905 361.862 128.252C361.623 127.947 361.108 127.998 360.858 128.252C360.562 128.552 360.618 128.965 360.858 129.27L360.858 129.271Z" fill="#2E6669"/>
<path d="M370.864 142.146C373.613 142.509 376.379 142.919 379.157 142.921C380.553 142.923 381.949 142.772 383.338 142.652C384.58 142.544 385.821 142.42 387.054 142.229C388.226 142.048 389.382 141.786 390.508 141.406C391.371 141.114 391.001 139.722 390.131 140.016C388.07 140.713 385.922 140.979 383.767 141.173C382.376 141.299 380.973 141.453 379.576 141.478C378.197 141.502 376.817 141.402 375.445 141.267C373.914 141.115 372.389 140.907 370.864 140.706C370.483 140.656 370.153 141.073 370.153 141.426C370.153 141.857 370.481 142.096 370.864 142.147V142.146Z" fill="#2E6669"/>
<path d="M357.398 115.027C351.842 119.672 348.944 126.757 345.861 133.156C344.824 135.308 343.788 137.461 342.751 139.614C342.598 139.932 342.634 140.434 343.006 140.6C344.685 141.347 346.364 142.093 348.044 142.84C348.866 143.206 349.682 143.617 350.525 143.931C351.213 144.186 352.003 144.262 352.623 143.802C352.978 143.538 353.13 143.016 353.32 142.625C353.518 142.218 353.718 141.811 353.92 141.406C354.311 140.621 354.71 139.839 355.115 139.061C355.94 137.48 356.794 135.916 357.679 134.369C358.689 132.6 359.739 130.856 360.826 129.135C361.32 128.351 360.091 127.628 359.599 128.407C356.671 133.046 354.02 137.86 351.651 142.816L351.906 142.557C351.439 142.921 350.74 142.477 350.279 142.272C349.56 141.951 348.841 141.631 348.121 141.311C346.655 140.659 345.189 140.007 343.723 139.355L343.978 140.341C345.752 136.657 347.516 132.968 349.304 129.291C350.82 126.172 352.414 123.063 354.47 120.267C355.613 118.712 356.926 117.281 358.403 116.045C359.109 115.455 358.099 114.441 357.399 115.027L357.398 115.027Z" fill="#2E6669"/>
<path d="M360.954 116.279C360.978 117.017 361.229 117.757 361.921 118.108C362.605 118.456 363.407 118.263 364.115 118.098C365.402 117.798 366.651 117.271 367.78 116.579C370.084 115.167 371.971 113.037 373.039 110.527C373.191 110.17 373.143 109.754 372.784 109.541C372.484 109.363 371.965 109.44 371.812 109.8C370.943 111.843 369.53 113.633 367.722 114.902C366.841 115.521 365.884 116.032 364.868 116.382C364.332 116.567 363.782 116.715 363.225 116.816C362.688 116.913 362.395 116.884 362.375 116.28C362.345 115.355 360.925 115.35 360.954 116.279Z" fill="#2E6669"/>
<path d="M349.168 144.625C349.004 145.731 349.135 146.838 349.024 147.945C348.929 148.888 348.495 149.657 347.83 150.306C347.519 150.609 347.18 150.879 346.83 151.134C346.473 151.393 346.104 151.708 345.675 151.83C345.394 151.91 344.896 151.888 344.743 151.614C344.669 151.482 344.68 151.264 344.697 151.07C344.731 150.682 344.346 150.35 343.986 150.35C343.574 150.35 343.31 150.681 343.276 151.07C343.183 152.141 343.8 152.994 344.829 153.252C346.128 153.577 347.263 152.632 348.214 151.868C349.14 151.123 349.937 150.188 350.265 149.013C350.631 147.698 350.34 146.339 350.538 145.008C350.595 144.624 350.443 144.233 350.042 144.122C349.706 144.028 349.226 144.238 349.168 144.625L349.168 144.625Z" fill="#2E6669"/>
<path d="M352.647 102.881C351.914 99.5243 351.972 95.7874 353.5 92.6615C354.902 89.7905 357.536 87.8219 360.541 86.9502C363.477 86.0987 366.647 86.1657 369.474 87.3839C372.172 88.5471 374.386 90.6803 375.601 93.3916C376.376 95.1214 376.575 96.9347 376.496 98.814C376.433 100.337 376.404 102.091 375.669 103.461C375.231 104.275 376.457 105.003 376.895 104.188C377.662 102.761 377.8 101.037 377.888 99.4433C377.989 97.6033 377.937 95.8116 377.363 94.0422C376.333 90.873 374.093 88.2182 371.202 86.6368C365.306 83.4118 356.844 84.8361 352.999 90.6547C350.582 94.3134 350.361 99.0712 351.277 103.264C351.475 104.169 352.845 103.786 352.647 102.881Z" fill="#2E6669"/>
<path d="M351.245 102.65C351.466 104.052 351.641 105.46 351.827 106.867C351.989 108.089 352.17 109.302 352.555 110.476C353.283 112.697 354.611 114.467 356.606 115.665C358.693 116.919 361.055 117.218 363.424 116.813C364.609 116.611 365.738 116.178 366.83 115.68C367.574 115.342 368.323 115.005 369.004 114.549C370.004 113.88 370.817 113.027 371.551 112.068C372.186 111.238 372.784 110.345 373.219 109.387C373.38 109.034 373.318 108.611 372.964 108.401C372.658 108.22 372.154 108.305 371.993 108.66C371.662 109.388 371.231 110.077 370.774 110.73C370.222 111.519 369.535 112.381 368.802 112.95C368.172 113.44 367.471 113.797 366.754 114.131C365.856 114.549 364.96 114.953 364.004 115.215C361.959 115.777 359.722 115.693 357.819 114.7C356.002 113.752 354.705 112.308 354.013 110.353C353.595 109.172 353.39 107.943 353.226 106.704C353.031 105.224 352.848 103.742 352.615 102.268C352.554 101.883 352.082 101.67 351.741 101.765C351.338 101.877 351.185 102.265 351.245 102.651V102.65Z" fill="#2E6669"/>
<path d="M362.818 105.003C362.62 104.337 362.76 102.81 364.002 102.688C365.642 102.708 365.718 104.556 365.161 105.421C364.704 106.129 363.374 106.417 362.818 105.003Z" fill="#2E6669"/>
<path d="M365.538 101.445L366.502 101.734C366.596 101.764 366.691 101.769 366.785 101.747C366.88 101.743 366.968 101.715 367.049 101.662C367.132 101.617 367.199 101.555 367.249 101.477C367.311 101.407 367.354 101.325 367.376 101.232C367.417 101.047 367.408 100.84 367.304 100.677C367.202 100.517 367.062 100.4 366.88 100.345L365.915 100.056C365.821 100.026 365.726 100.021 365.632 100.043C365.538 100.047 365.449 100.075 365.368 100.128C365.285 100.173 365.219 100.235 365.169 100.313C365.106 100.383 365.063 100.465 365.041 100.558C365 100.743 365.009 100.95 365.113 101.113C365.215 101.273 365.355 101.39 365.538 101.445Z" fill="#2E6669"/>
<path d="M362.192 110.934C362.347 111.045 362.499 111.159 362.648 111.276L362.505 111.164C362.857 111.44 363.196 111.731 363.536 112.023C363.682 112.148 363.84 112.234 364.038 112.234C364.212 112.234 364.42 112.155 364.54 112.023C364.664 111.885 364.757 111.705 364.748 111.513C364.74 111.331 364.682 111.126 364.54 111.004C364.01 110.549 363.477 110.095 362.908 109.691C362.765 109.588 362.524 109.572 362.361 109.618C362.196 109.664 362.018 109.793 361.937 109.949C361.85 110.116 361.806 110.318 361.865 110.504L361.937 110.676C362 110.785 362.085 110.87 362.192 110.934Z" fill="#2E6669"/>
<path d="M354.732 105.192C354.553 104.537 354.676 103.035 355.791 102.917C357.263 102.94 357.336 104.758 356.837 105.609C356.429 106.304 355.235 106.584 354.732 105.192Z" fill="#2E6669"/>
<path d="M373.738 103.385C374.076 103.142 374.431 103.096 374.823 103.224C374.909 103.252 374.931 103.259 375.028 103.318C375.068 103.343 375.108 103.369 375.147 103.398C375.091 103.356 375.093 103.361 375.153 103.413C375.194 103.456 375.234 103.498 375.271 103.545C375.157 103.401 375.279 103.573 375.298 103.607C375.606 104.16 375.498 105.162 375.285 105.854C375.081 106.521 374.642 107.264 374.068 107.756C373.744 108.033 373.551 108.108 373.193 108.204C372.862 108.293 372.44 108.369 372.129 108.235C371.776 108.083 371.368 108.127 371.157 108.493C370.983 108.796 371.057 109.326 371.412 109.479C372.349 109.882 373.375 109.756 374.285 109.325C375.097 108.94 375.746 108.15 376.168 107.366C376.599 106.562 376.854 105.707 376.894 104.789C376.929 103.958 376.778 103.031 376.179 102.416C375.38 101.597 373.944 101.478 373.021 102.141C372.708 102.365 372.56 102.77 372.766 103.126C372.946 103.44 373.423 103.611 373.737 103.385H373.738Z" fill="#2E6669"/>
<path d="M359.497 111.097C359.505 111.064 359.514 111.032 359.524 111C359.551 110.926 359.546 110.935 359.51 111.029C359.506 110.998 359.591 110.868 359.615 110.85C359.555 110.926 359.551 110.935 359.602 110.876C359.626 110.851 359.65 110.828 359.676 110.806L359.613 110.858C359.64 110.839 359.669 110.822 359.699 110.807C359.612 110.843 359.608 110.845 359.687 110.814C359.723 110.8 359.761 110.786 359.798 110.773C359.871 110.748 359.944 110.726 360.019 110.707C360.081 110.691 360.144 110.677 360.208 110.665C360.396 110.63 360.111 110.665 360.256 110.657C360.391 110.65 360.523 110.649 360.658 110.655C360.823 110.661 360.502 110.62 360.66 110.654C360.722 110.667 360.783 110.679 360.844 110.696C360.858 110.7 361.02 110.753 361.019 110.754C360.921 110.71 360.906 110.704 360.976 110.736C360.996 110.746 361.017 110.756 361.037 110.766C361.084 110.791 361.13 110.817 361.175 110.846C361.2 110.862 361.225 110.879 361.25 110.896C361.311 110.941 361.299 110.931 361.214 110.866C361.22 110.858 361.422 111.075 361.444 111.091C361.314 110.998 361.339 110.941 361.395 111.035C361.415 111.067 361.431 111.102 361.449 111.135C361.531 111.293 361.402 110.999 361.444 111.121C361.457 111.158 361.471 111.194 361.483 111.232C361.52 111.344 361.55 111.459 361.575 111.575C361.585 111.623 361.594 111.671 361.602 111.719C361.608 111.753 361.613 111.786 361.618 111.819C361.604 111.713 361.602 111.702 361.611 111.784C361.619 111.931 361.63 112.076 361.625 112.224C361.623 112.281 361.62 112.338 361.615 112.396C361.612 112.434 361.608 112.473 361.603 112.511C361.616 112.417 361.615 112.411 361.602 112.495C361.564 112.653 361.529 112.808 361.474 112.962C361.346 113.316 361.617 113.767 361.97 113.848C362.371 113.941 362.707 113.725 362.844 113.345C363.059 112.748 363.079 112.111 362.994 111.488C362.939 111.08 362.83 110.637 362.609 110.286C362.325 109.834 361.843 109.526 361.354 109.349C360.827 109.16 360.233 109.177 359.695 109.305C359.326 109.393 358.96 109.535 358.672 109.788C358.404 110.023 358.215 110.371 358.127 110.715C358.035 111.08 358.245 111.514 358.624 111.601C358.994 111.687 359.398 111.489 359.497 111.098V111.097Z" fill="#2E6669"/>
<path d="M376.891 97.4327C376.829 97.4683 376.766 97.5047 376.7 97.5328C376.789 97.495 376.597 97.562 376.565 97.5714C376.495 97.5915 376.424 97.607 376.353 97.6218C376.317 97.6294 376.28 97.6358 376.244 97.6409C376.354 97.6261 376.193 97.6423 376.174 97.6434C375.869 97.6571 375.477 97.6405 375.233 97.606C374.695 97.5296 374.029 97.3387 373.436 97.2407C372.753 97.1279 372.081 97.2076 371.497 97.6276C370.785 98.1405 370.467 99.1387 370.681 99.9924C370.917 100.933 371.681 101.644 372.083 102.506C372.247 102.858 372.744 102.949 373.055 102.765C373.41 102.554 373.474 102.132 373.31 101.779C373.093 101.315 372.801 100.906 372.517 100.483C372.325 100.197 372.043 99.7572 372.04 99.5353C372.035 99.1909 372.097 98.9308 372.37 98.7695C372.478 98.7057 372.759 98.5634 372.881 98.6059C372.749 98.6207 372.722 98.625 372.799 98.6185C372.826 98.6171 372.854 98.6167 372.881 98.6171C372.934 98.6174 372.987 98.6243 373.04 98.6275C373.094 98.6333 373.073 98.6301 372.977 98.6178C373.014 98.6232 373.05 98.629 373.085 98.6351C373.163 98.6499 373.241 98.6635 373.318 98.6798C373.492 98.7158 373.666 98.7558 373.84 98.7947C374.239 98.884 374.639 98.9661 375.044 99.022C375.918 99.1426 376.819 99.129 377.607 98.6772C378.403 98.2212 377.688 96.9759 376.89 97.433L376.891 97.4327Z" fill="#2E6669"/>
<path d="M386.013 97.3588C386.459 95.2699 386.96 93.1778 387.766 91.1973C388.391 89.6602 389.415 87.7234 391.015 87.0451C392.541 86.3985 394.422 87.5454 393.973 89.3123C393.764 90.1365 393.231 90.8219 392.668 91.434C392.055 92.1018 391.367 92.6998 390.644 93.2412C388.937 94.5178 387.07 95.544 385.266 96.6661C384.488 97.1499 385.2 98.3966 385.983 97.9103C387.827 96.7634 389.737 95.7166 391.474 94.4007C393.049 93.2066 394.929 91.6234 395.372 89.5727C395.599 88.5263 395.397 87.4626 394.697 86.6423C394.016 85.8445 392.97 85.4262 391.94 85.4248C389.672 85.4219 388.033 87.4943 387.058 89.3494C385.819 91.707 385.196 94.3841 384.643 96.9759C384.45 97.88 385.819 98.2662 386.013 97.3588Z" fill="#2E6669"/>
<path d="M395.281 97.1861C396.006 95.7848 396.826 94.3865 397.971 93.2936C398.946 92.3638 400.288 91.4384 401.674 91.4266C402.794 91.4172 404.026 92.4453 403.299 93.6149C402.94 94.193 402.304 94.5331 401.711 94.8115C401.053 95.1202 400.345 95.3274 399.642 95.4985C398.003 95.8972 396.322 96.0579 394.658 96.3079C394.278 96.3651 394.069 96.8518 394.162 97.194C394.273 97.6068 394.655 97.7545 395.035 97.6972C396.792 97.4328 398.571 97.2693 400.296 96.8183C401.847 96.4123 403.762 95.7452 404.59 94.233C405.52 92.5331 404.448 90.7083 402.747 90.151C401.033 89.5891 399.206 90.5015 397.861 91.5307C396.179 92.8181 395.025 94.5839 394.055 96.4584C393.63 97.2787 394.856 98.0085 395.281 97.1861Z" fill="#2E6669"/>
<path d="M408.484 129.383C410.512 130.222 412.635 131.126 414.12 132.823C414.958 133.781 415.416 134.989 415.768 136.205C415.958 136.862 416.15 137.576 416.004 138.263C415.951 138.509 415.86 138.777 415.69 138.968C415.528 139.149 415.691 139.007 415.583 139.036C415.41 139.084 415.196 139.016 415.032 138.968C414.151 138.712 413.775 140.101 414.654 140.358C415.417 140.58 416.255 140.535 416.785 139.875C417.309 139.223 417.513 138.364 417.465 137.533C417.412 136.624 417.138 135.729 416.831 134.879C416.555 134.116 416.254 133.321 415.787 132.655C414.105 130.25 411.471 129.073 408.861 127.994C408.506 127.847 408.081 128.153 407.988 128.497C407.876 128.909 408.127 129.236 408.484 129.383Z" fill="#2E6669"/>
<path d="M409.295 138.056C409.811 138.702 410.315 139.358 410.818 140.014C411.06 140.327 411.301 140.641 411.545 140.953C411.801 141.281 412.046 141.637 412.331 141.94C412.888 142.532 413.841 142.649 414.545 142.282C415.23 141.926 415.597 141.146 415.537 140.382C415.476 139.613 415.117 138.812 414.519 138.319C414.221 138.075 413.805 138.024 413.514 138.319C413.265 138.573 413.215 139.092 413.514 139.338C413.597 139.406 413.675 139.48 413.746 139.56C413.786 139.607 413.838 139.694 413.775 139.593C413.811 139.651 413.851 139.706 413.886 139.765C413.916 139.816 413.944 139.869 413.971 139.921C413.986 139.948 413.996 139.976 414.01 140.002C414.005 139.993 413.971 139.891 413.997 139.969C414.041 140.103 414.084 140.232 414.113 140.371C414.119 140.399 414.124 140.429 414.128 140.458C414.126 140.443 414.127 140.336 414.118 140.411C414.112 140.465 414.122 140.529 414.122 140.584C414.122 140.612 414.117 140.641 414.118 140.669C414.118 140.658 414.149 140.541 414.125 140.617C414.106 140.677 414.094 140.743 414.078 140.805C414.045 140.923 414.132 140.737 414.06 140.835C414.019 140.89 413.959 140.948 414.042 140.873C413.998 140.912 413.964 140.961 413.917 140.997C414.012 140.924 413.777 141.059 413.852 141.028C413.903 141.007 413.752 141.051 413.722 141.059C413.641 141.081 413.742 141.052 413.755 141.053C413.725 141.051 413.693 141.054 413.662 141.054C413.632 141.054 413.601 141.051 413.571 141.05C413.591 141.05 413.677 141.082 413.611 141.052C413.552 141.025 413.478 141.018 413.416 140.994C413.551 141.045 413.412 140.965 413.365 140.953C413.305 140.938 413.388 140.969 413.406 140.989C413.389 140.971 413.369 140.957 413.353 140.938C413.239 140.806 413.131 140.67 413.022 140.533C412.601 140.005 412.188 139.47 411.776 138.933C411.288 138.298 410.799 137.664 410.3 137.037C410.058 136.735 409.546 136.783 409.295 137.037C409 137.337 409.053 137.753 409.295 138.056H409.295Z" fill="#2E6669"/>
<path d="M338.807 153.476C339.035 154.157 339.448 154.853 340.253 154.832C341.104 154.811 341.791 154.039 342.374 153.498C343.634 152.329 344.859 151.122 346.086 149.918C346.744 149.272 345.739 148.254 345.081 148.9C344.03 149.931 342.978 150.964 341.908 151.975C341.434 152.423 340.958 152.965 340.399 153.302C340.345 153.334 340.291 153.367 340.234 153.392C340.36 153.338 340.199 153.401 340.169 153.402C340.269 153.393 340.28 153.389 340.203 153.393L340.298 153.408C340.154 153.337 340.447 153.481 340.301 153.413C340.464 153.489 340.318 153.463 340.301 153.398C340.327 153.497 340.331 153.444 340.288 153.36C340.28 153.346 340.206 153.198 340.241 153.274C340.266 153.328 340.186 153.122 340.177 153.093C340.053 152.725 339.689 152.482 339.303 152.59C338.949 152.688 338.683 153.106 338.807 153.476H338.807Z" fill="#2E6669"/>
<path d="M341.311 141.418C341.27 141.49 341.225 141.556 341.177 141.623C341.299 141.452 341.129 141.673 341.096 141.711C340.928 141.901 340.747 142.079 340.564 142.253C340.132 142.666 339.681 143.059 339.233 143.455C338.218 144.35 337.181 145.244 336.303 146.282C335.611 147.099 334.791 148.199 335.049 149.35C335.167 149.879 335.577 150.303 335.91 150.563C335.816 150.489 335.891 150.522 335.862 150.681C335.863 150.677 335.807 150.926 335.786 151.006C335.687 151.391 335.562 151.771 335.538 152.172C335.478 153.141 336.151 153.657 336.967 153.962C337.982 154.34 339.183 154.33 340.09 153.683C340.832 153.154 340.123 151.905 339.373 152.439C338.748 152.884 337.974 152.849 337.29 152.55C337.176 152.501 337.069 152.438 336.965 152.371C336.964 152.371 336.956 152.351 336.958 152.37C336.969 152.504 336.964 152.124 336.956 152.192C336.976 152.013 337.036 151.832 337.083 151.658C337.25 151.043 337.445 150.328 337.071 149.746C336.956 149.568 336.815 149.459 336.655 149.329C336.488 149.194 336.754 149.419 336.603 149.285C336.575 149.26 336.546 149.23 336.521 149.202C336.401 149.066 336.571 149.288 336.514 149.196C336.49 149.159 336.465 149.123 336.447 149.082C336.394 148.964 336.449 149.095 336.459 149.113C336.435 149.068 336.408 148.846 336.429 149.057C336.422 148.978 336.423 148.901 336.426 148.822C336.43 148.712 336.386 148.999 336.426 148.824C336.435 148.788 336.44 148.749 336.451 148.713C336.544 148.412 336.521 148.461 336.676 148.185C336.941 147.716 337.203 147.407 337.562 147.009C338.407 146.073 339.363 145.245 340.305 144.413C341.065 143.742 342.03 143.049 342.539 142.144C342.992 141.337 341.765 140.61 341.312 141.416L341.311 141.418Z" fill="#2E6669"/>
<path d="M385.261 174.248C385.954 173.783 386.996 174.381 387.577 174.84C388.085 175.243 388.4 175.79 388.534 176.425C388.723 177.325 388.547 178.307 388.333 179.184C388.056 180.318 387.618 181.402 387.107 182.446C386.243 184.21 385.248 186.031 383.886 187.452C383.269 188.096 382.571 188.714 381.625 188.523C380.697 188.336 379.86 187.616 379.691 186.656C379.513 185.645 379.589 184.568 379.699 183.555C379.816 182.48 380.029 181.411 380.324 180.372C380.577 179.479 379.207 179.098 378.954 179.989C378.333 182.182 377.94 184.654 378.302 186.928C378.503 188.186 379.43 189.185 380.563 189.68C381.726 190.188 382.962 190.07 383.975 189.291C385.821 187.87 387.06 185.67 388.112 183.617C389.246 181.403 390.414 178.647 389.914 176.097C389.705 175.032 389.076 174.151 388.208 173.534C387.181 172.804 385.688 172.237 384.544 173.005C383.785 173.515 384.496 174.763 385.261 174.249V174.248Z" fill="#2E6669"/>
<path d="M370.549 143.003C368.171 147.991 364.903 152.606 363.195 157.909C362.385 160.422 362.183 163.057 362.689 165.656C363.171 168.133 364.356 170.358 365.973 172.26C367.59 174.162 369.537 175.727 371.593 177.101C372.641 177.801 373.72 178.452 374.807 179.087C375.347 179.402 375.889 179.712 376.43 180.022C376.972 180.333 377.517 180.687 378.123 180.86C379.363 181.215 380.464 180.552 381.248 179.616C382.033 178.68 382.706 177.606 383.399 176.594C383.802 176.006 384.194 175.407 384.54 174.783C384.843 174.236 385.112 173.659 385.053 173.015C384.946 171.859 383.942 171.019 383.18 170.254C382.243 169.314 381.249 168.435 380.295 167.512C379.825 167.058 379.365 166.593 378.929 166.104C378.544 165.673 378.112 165.217 377.859 164.689C377.643 164.237 377.759 163.802 377.931 163.351C378.153 162.767 378.451 162.209 378.764 161.672C379.413 160.56 380.186 159.53 380.964 158.509C381.355 157.996 381.747 157.484 382.128 156.964C382.358 156.652 382.178 156.16 381.873 155.979C381.511 155.764 381.132 155.924 380.902 156.237C379.45 158.213 377.799 160.099 376.807 162.373C376.345 163.431 376.098 164.464 376.69 165.523C377.276 166.573 378.217 167.478 379.064 168.311C379.972 169.204 380.926 170.048 381.836 170.938C382.258 171.35 382.673 171.77 383.073 172.202C383.338 172.487 383.671 172.832 383.642 173.255C383.606 173.775 383.165 174.331 382.9 174.758C382.534 175.351 382.138 175.923 381.738 176.493C381.127 177.366 380.558 178.419 379.745 179.12C379.404 179.414 379.016 179.594 378.568 179.491C377.969 179.354 377.414 178.932 376.886 178.63C375.851 178.037 374.817 177.441 373.802 176.814C371.806 175.582 369.878 174.227 368.203 172.565C366.575 170.949 365.197 169.085 364.473 166.873C363.727 164.595 363.615 162.112 364.153 159.776C364.807 156.932 366.175 154.263 367.522 151.703C368.926 149.038 370.477 146.455 371.775 143.733C372.171 142.902 370.946 142.17 370.548 143.006L370.549 143.003Z" fill="#2E6669"/>
<path d="M403.902 179.39H396.138C395.224 179.39 395.223 180.831 396.138 180.831H403.902C404.816 180.831 404.817 179.39 403.902 179.39Z" fill="#2E6669"/>
<path d="M425.118 179.39H415.895C414.981 179.39 414.979 180.831 415.895 180.831H425.118C426.032 180.831 426.033 179.39 425.118 179.39Z" fill="#2E6669"/>
<path d="M411.505 189.893C412.994 189.893 413.983 188.522 414.591 187.319C415.266 185.982 415.7 184.527 416.047 183.072C416.457 181.353 416.781 179.579 416.754 177.804C416.732 176.369 416.527 174.784 415.642 173.612C414.767 172.451 413.44 172.039 412.055 171.918C411.145 171.839 411.15 173.28 412.055 173.359C412.934 173.435 413.826 173.666 414.426 174.365C415.15 175.208 415.289 176.483 415.327 177.551C415.382 179.124 415.133 180.682 414.788 182.21C414.516 183.413 414.199 184.614 413.741 185.76C413.499 186.365 413.203 186.955 412.839 187.495C412.546 187.929 412.078 188.452 411.505 188.452C410.59 188.452 410.589 189.893 411.505 189.893L411.505 189.893Z" fill="#2E6669"/>
<path d="M406.139 180.772C406.346 183.08 406.728 185.455 407.628 187.598C407.779 187.956 408.299 188.035 408.6 187.857C408.965 187.64 409.006 187.23 408.855 186.871C408.482 185.984 408.222 184.909 408.021 183.923C407.809 182.882 407.655 181.831 407.56 180.772C407.525 180.385 407.258 180.052 406.849 180.052C406.492 180.052 406.104 180.382 406.139 180.772Z" fill="#2E6669"/>
<path d="M389.146 179.501H393.844L393.486 179.402C396.993 181.416 400.472 183.481 403.955 185.537C408.302 188.103 412.644 190.677 416.983 193.255C418.761 194.311 420.539 195.368 422.316 196.426C423.106 196.897 423.822 195.652 423.033 195.182C419.062 192.817 415.088 190.458 411.112 188.102C406.577 185.415 402.04 182.729 397.49 180.068C396.599 179.546 395.708 179.026 394.814 178.51C394.643 178.411 394.473 178.307 394.299 178.213C393.852 177.972 393.294 178.059 392.8 178.059H389.146C388.232 178.059 388.23 179.5 389.146 179.5L389.146 179.501Z" fill="#2E6669"/>
<path d="M375.711 178.061H355.638C354.724 178.061 354.722 179.501 355.638 179.501H375.711C376.625 179.501 376.626 178.061 375.711 178.061Z" fill="#2E6669"/>
</g>
<path d="M242.5 455.623C242.023 454.17 241.557 452.683 241.105 451.172C236.842 452.562 232.402 453.336 227.92 453.472L226.264 453.522C227.281 458.655 229.394 470.939 230.734 481.29C236.013 481.24 241.283 481.149 246.552 481.069C249.88 480.872 253.128 479.972 256.083 478.429C251.61 475.006 248.149 470.434 246.068 465.2C244.812 462.276 243.62 459.043 242.5 455.623Z" fill="white"/>
<path d="M193.031 278.935C193.103 278.993 193.174 279.054 193.244 279.116L195.806 277.251L198.789 275.08C207.28 268.92 216.497 261.144 224.944 253.76C224.444 256.598 222.972 261.414 222.608 264.36C222.461 265.544 222.691 265.97 223.568 266.45C224.351 266.699 225.191 266.709 225.98 266.479C237.736 263.379 248.213 256.645 255.916 247.238C257.14 253.375 258.933 261.022 260.661 264.799C264.935 274.145 272.64 282.255 279.756 284.887C280.447 284.324 281.242 283.904 282.096 283.65C282.949 283.396 283.845 283.314 284.731 283.408C285.863 283.442 286.964 283.782 287.917 284.392C288.871 285.002 289.641 285.86 290.146 286.873C291.846 290.296 291.388 296.381 289.875 300.073C288.803 302.685 287.066 306.673 283.306 309.381C282.478 309.989 281.534 310.418 280.532 310.642C279.53 310.865 278.492 310.879 277.485 310.681L276.943 310.555C276.291 312.343 275.522 314.086 274.643 315.773C273.215 319.014 266.704 328.956 258.427 334.873C258.46 337.073 258.398 337.944 258.607 340.798C258.642 342.164 258.872 343.517 259.292 344.816C259.87 346.484 260.888 347.965 262.237 349.103C265.229 351.514 268.305 352.665 272.094 354.091L275.553 355.452C263.359 361.578 249.949 364.898 236.305 365.17C223.105 365.222 205.793 360.67 196.517 355.483L200.056 354.091C203.844 352.665 206.92 351.514 209.912 349.103C211.262 347.965 212.279 346.484 212.858 344.816C213.278 343.517 213.508 342.163 213.542 340.798C213.731 338.215 213.698 337.257 213.714 335.469C208.993 332.619 204.928 328.802 201.787 324.269C197.668 318.613 194.751 312.173 193.215 305.347C192.12 305.509 191.002 305.419 189.946 305.084C188.891 304.749 187.926 304.178 187.124 303.414C183.724 300.265 182.498 296.09 181.757 293.365C180.712 289.518 181.01 283.422 183.121 280.236C183.747 279.293 184.617 278.538 185.638 278.05C186.66 277.563 187.794 277.362 188.921 277.468C190.414 277.499 191.856 278.014 193.031 278.935Z" fill="white"/>
<path d="M314.35 396.128C314.406 411.268 313.414 428.85 309.858 444.794C307.285 456.334 303.008 468.5 294.303 476.961C286.053 484.979 271.812 485.739 262.262 481.842C253.197 478.213 248.725 471.368 246.068 465.195C244.149 460.617 242.491 455.935 241.1 451.17C236.837 452.561 232.398 453.335 227.916 453.47L226.267 453.558C227.483 459.701 230.241 475.925 231.402 486.958C218.302 490.681 203.214 492.939 188.939 494.11C176.954 495.094 164.539 494.716 155.982 484.705C148.082 475.461 147.182 462.417 147.063 450.794C146.951 439.679 147.542 428.542 148.363 417.459C149.276 405.066 154.331 384.845 161.204 374.492C168.46 363.56 180.172 359.932 192.465 355.924L194.871 355.236C195.41 355.082 195.783 355.036 195.941 355.141C205.062 360.463 222.827 365.213 236.31 365.16C250.593 364.887 264.61 361.25 277.224 354.543C287.548 357.843 295.424 361.492 301.882 367.849C307.52 374.037 313.53 382.065 314.355 396.126" fill="white"/>
<path d="M268.736 358.332C269.943 356.61 271.045 354.816 272.036 352.961C272.536 352.013 273.004 351.025 273.453 349.961C276.442 340.27 278.267 323.716 278.691 315.079C278.897 313.636 278.731 312.163 278.209 310.802C277.815 310.049 277.223 309.417 276.497 308.975C275.771 308.533 274.939 308.297 274.089 308.292C271.011 308.592 270.089 310.585 269.736 312.45C269.596 313.181 269.436 314.296 269.336 315.187L269.271 315.108C268.806 314.459 268.189 313.934 267.474 313.578C266.76 313.222 265.969 313.046 265.171 313.065C262.841 313.281 261.334 315.044 260.777 317.808C259.936 322.055 258.214 329.169 256.724 334.729C256.809 332.807 256.859 331.014 256.918 328.853C256.936 327.883 256.756 326.919 256.39 326.02C256.23 325.61 255.976 325.244 255.648 324.951C255.32 324.658 254.927 324.446 254.502 324.333C253.792 324.234 253.069 324.352 252.427 324.67C251.785 324.988 251.254 325.492 250.902 326.116C250.326 327.441 249.974 328.853 249.861 330.293C249.343 334.371 248.361 338.376 246.936 342.231C244.055 349.037 235.727 357.731 234.687 363.269C234.107 366.358 234.613 368.869 235.024 371.599C235.441 374.361 236.313 377.347 236.447 380.818C236.894 387.539 237.134 391.576 237.428 397.962C246.709 396.194 256.966 394.205 265.759 392.649C263.32 387.27 260.541 380.349 260.959 376.434C261.009 371.426 262.675 366.568 265.709 362.584C266.809 361.06 267.81 359.678 268.736 358.332Z" fill="white"/>
<path d="M190.76 355.532L193.337 355.675L194.866 355.238C195.405 355.084 195.778 355.038 195.936 355.143C196.124 355.252 196.336 355.36 196.536 355.469L200.06 354.083C203.848 352.657 206.924 351.505 209.916 349.095C211.266 347.957 212.283 346.476 212.862 344.808C213.281 343.508 213.512 342.155 213.546 340.79C213.735 338.207 213.702 337.249 213.718 335.461C208.997 332.611 204.932 328.794 201.791 324.261C197.672 318.604 194.755 312.165 193.219 305.339C192.124 305.501 191.006 305.411 189.95 305.076C188.895 304.741 187.93 304.17 187.128 303.406C183.728 300.257 182.502 296.082 181.761 293.357C180.716 289.51 181.014 283.414 183.125 280.228C183.751 279.285 184.621 278.529 185.642 278.042C186.664 277.554 187.798 277.353 188.925 277.46C190.418 277.493 191.86 278.012 193.033 278.937C193.105 278.995 193.176 279.056 193.246 279.118L195.808 277.253L198.791 275.082C207.282 268.922 216.499 261.146 224.946 253.762C224.446 256.6 222.974 261.416 222.61 264.362C222.463 265.546 222.693 265.972 223.57 266.452C224.353 266.7 225.193 266.71 225.982 266.481C237.738 263.38 248.215 256.647 255.918 247.24C257.142 253.377 258.935 261.024 260.663 264.801C264.937 274.147 272.642 282.257 279.758 284.889C280.448 284.326 281.244 283.905 282.098 283.651C282.951 283.398 283.847 283.315 284.733 283.41C285.865 283.443 286.966 283.783 287.92 284.393C288.873 285.004 289.643 285.861 290.148 286.875C291.848 290.298 291.39 296.383 289.877 300.075C288.805 302.687 287.068 306.675 283.308 309.383C281.832 310.449 280.022 310.951 278.208 310.797V310.806C278.73 312.167 278.896 313.639 278.69 315.083C278.266 323.72 276.441 340.274 273.452 349.965C273.003 351.032 272.534 352.02 272.035 352.965C271.872 353.275 271.702 353.574 271.535 353.876L272.092 354.087L275.545 355.446C276.117 355.146 276.68 354.846 277.217 354.546C281.173 355.771 285.045 357.252 288.809 358.979C292.298 357.022 295.011 353.927 296.493 350.212C299.266 343.057 296.893 333.436 295.15 325.965C292.295 313.171 291.226 300.043 291.973 286.956C292.665 279.362 292.659 270.312 292.608 266.519C292.431 253.373 287.388 238.41 279.38 229.791C276.191 226.359 275.116 224.644 271.946 222.533L268.276 220.088L264.591 218.338C256.958 214.628 248.644 212.529 240.165 212.17C223.149 211.18 207.493 219.07 200.398 225.108C188.627 235.134 180.421 254.22 179.749 281.158C178.689 299.38 176.431 312.434 173.904 319.785C171.974 325.851 170.705 332.109 170.119 338.448C169.62 345.988 177.432 356.954 190.76 355.532Z" fill="#2E6669"/>
<path d="M190.25 302.618C191.334 309.315 193.669 315.748 197.133 321.581C200.691 327.539 205.463 333.132 211.375 336.857C214.407 338.761 217.751 340.115 221.254 340.857C224.267 341.496 225.554 336.87 222.53 336.228C214.978 334.628 209.053 329.851 204.43 323.816C199.44 317.23 196.159 309.511 194.879 301.347C194.706 300.736 194.299 300.218 193.747 299.904C193.194 299.591 192.541 299.507 191.927 299.671C191.321 299.853 190.809 300.261 190.497 300.811C190.185 301.361 190.096 302.01 190.25 302.623V302.618Z" fill="#2E6669"/>
<path d="M228.781 319.725C228.927 319.658 229.075 319.593 229.221 319.525C229.573 319.363 229.052 319.615 228.981 319.625C229.091 319.592 229.199 319.55 229.302 319.499C229.762 319.325 230.233 319.18 230.711 319.066C231.02 318.992 231.332 318.938 231.643 318.878C232.102 318.788 231.357 318.899 231.675 318.869C231.847 318.853 232.018 318.831 232.191 318.817C233.081 318.745 233.975 318.735 234.866 318.787C235.29 318.81 235.714 318.846 236.135 318.895C235.666 318.84 236.38 318.936 236.411 318.941C236.587 318.972 236.763 319.005 236.938 319.041C237.573 319.17 238.196 319.348 238.804 319.572C238.879 319.599 238.953 319.628 239.027 319.658C239.199 319.724 239.124 319.691 238.803 319.558C238.88 319.546 239.058 319.676 239.123 319.708C239.332 319.808 239.537 319.921 239.736 320.041C239.891 320.134 240.036 320.241 240.188 320.335C240.651 320.643 239.698 319.918 240.178 320.335C240.628 320.785 241.239 321.038 241.875 321.038C242.512 321.038 243.122 320.785 243.572 320.335C244.023 319.885 244.276 319.275 244.276 318.638C244.276 318.002 244.023 317.391 243.573 316.941C241.242 314.912 238.148 314.198 235.132 313.995C232.121 313.765 229.101 314.308 226.358 315.573C225.81 315.896 225.412 316.422 225.251 317.037C225.09 317.652 225.178 318.306 225.497 318.856C225.83 319.392 226.357 319.78 226.967 319.941C227.578 320.101 228.227 320.021 228.781 319.717V319.725Z" fill="#2E6669"/>
<path d="M233.217 297.326C232.804 298.613 232.417 299.914 232.122 301.232C231.98 301.746 231.912 302.277 231.922 302.81C231.938 303.343 232.084 303.864 232.346 304.329C232.609 304.793 232.981 305.186 233.43 305.474C234.091 305.883 234.842 306.123 235.618 306.174C236.098 306.186 236.577 306.143 237.047 306.045L236.409 306.131C236.479 306.122 236.548 306.114 236.617 306.108C237.251 306.093 237.856 305.843 238.317 305.408C238.767 304.958 239.02 304.348 239.02 303.711C239.02 303.075 238.767 302.464 238.317 302.014C238.095 301.79 237.83 301.612 237.538 301.492C237.246 301.372 236.933 301.311 236.617 301.314C236.279 301.341 235.943 301.399 235.607 301.446L236.245 301.36C236.013 301.395 235.778 301.399 235.545 301.37L236.183 301.456C236.025 301.428 235.869 301.384 235.72 301.325L236.293 301.566C236.117 301.493 235.949 301.4 235.793 301.289L236.278 301.664C236.241 301.635 236.208 301.601 236.178 301.564L236.554 302.05C236.515 301.995 236.481 301.936 236.454 301.874L236.696 302.447C236.673 302.382 236.655 302.315 236.642 302.247L236.727 302.885C236.707 302.709 236.709 302.531 236.735 302.355L236.649 302.993C236.788 302.227 236.974 301.47 237.206 300.727C237.406 300.017 237.616 299.308 237.842 298.605C238.006 297.992 237.922 297.338 237.608 296.786C237.295 296.234 236.777 295.827 236.166 295.653C235.553 295.498 234.903 295.586 234.353 295.898C233.803 296.21 233.395 296.723 233.214 297.329L233.217 297.326Z" fill="#2E6669"/>
<path d="M213.19 285.022C212.333 287.294 212.467 292.65 216.827 293.376C222.627 293.702 223.337 287.276 221.572 284.129C220.128 281.55 215.492 280.227 213.19 285.022Z" fill="#2E6669"/>
<path d="M259.631 287.905C260.2 290.266 259.405 295.565 254.989 295.746C249.189 295.351 249.283 288.89 251.423 285.982C253.175 283.6 257.939 282.863 259.631 287.905Z" fill="#2E6669"/>
<path d="M281.458 286.582C282.057 286.171 282.744 285.905 283.464 285.804C284.183 285.703 284.917 285.77 285.606 286C286.091 286.141 286.55 286.358 286.967 286.643C286.993 286.663 287.344 286.999 287.467 287.124C287.941 287.612 287.284 286.804 287.631 287.318C289.115 289.518 289.022 292.74 288.665 295.267C288.244 298.021 287.269 300.661 285.799 303.027C284.178 305.772 281.679 308.655 278.212 308.397C277.577 308.403 276.97 308.657 276.521 309.106C276.072 309.555 275.817 310.162 275.812 310.797C275.824 311.43 276.081 312.033 276.529 312.481C276.976 312.928 277.579 313.185 278.212 313.197C285.623 313.748 290.481 305.921 292.526 299.788C294.298 294.471 294.686 286.23 289.532 282.605C287.809 281.465 285.766 280.906 283.702 281.012C281.639 281.117 279.663 281.88 278.065 283.19C277.618 283.642 277.367 284.252 277.367 284.887C277.367 285.523 277.618 286.132 278.065 286.584C278.522 287.02 279.13 287.263 279.762 287.263C280.394 287.263 281.002 287.02 281.459 286.584L281.458 286.582Z" fill="#2E6669"/>
<path d="M195.373 277.843C194.012 276.497 192.281 275.586 190.401 275.226C188.521 274.865 186.576 275.071 184.813 275.818C183.554 276.414 182.442 277.28 181.555 278.354C180.668 279.428 180.028 280.684 179.68 282.033C177.72 288.169 178.96 295.367 182.126 300.892C184.326 304.734 188.026 308.138 192.74 307.81C193.372 307.795 193.974 307.538 194.421 307.091C194.868 306.644 195.125 306.042 195.14 305.41C195.135 304.775 194.88 304.168 194.431 303.719C193.982 303.27 193.375 303.015 192.74 303.01C189.087 303.264 186.766 299.829 185.44 296.848C184.306 294.362 183.672 291.678 183.574 288.948C183.523 287.389 183.675 285.829 184.026 284.309C184.164 283.69 184.356 283.085 184.6 282.5C184.775 282.132 184.973 281.776 185.193 281.433C185.248 281.341 185.593 280.933 185.25 281.333C185.57 280.906 185.978 280.553 186.447 280.3C186.916 280.046 187.435 279.897 187.967 279.863C188.696 279.764 189.438 279.837 190.134 280.074C190.83 280.311 191.462 280.707 191.979 281.23C194.15 283.43 197.543 280.04 195.373 277.836V277.843Z" fill="#2E6669"/>
<path d="M253.707 248.4C255.333 256.407 257.1 264.4 261.507 271.395C265.707 278.056 271.619 284.348 279.115 287.195C279.729 287.359 280.382 287.275 280.935 286.962C281.487 286.648 281.894 286.13 282.068 285.519C282.223 284.905 282.135 284.256 281.823 283.706C281.51 283.156 280.997 282.748 280.391 282.567C273.891 280.097 268.714 274.039 265.208 268.252C261.344 261.877 259.828 254.49 258.332 247.123C258.163 246.509 257.757 245.988 257.203 245.673C256.65 245.359 255.994 245.277 255.38 245.447C254.766 245.616 254.245 246.022 253.931 246.576C253.616 247.129 253.535 247.785 253.704 248.399L253.707 248.4Z" fill="#2E6669"/>
<path d="M254.178 245.588C248.823 252.053 242.12 257.27 234.539 260.874C232.681 261.74 230.773 262.494 228.826 263.132C227.805 263.47 226.774 263.787 225.734 264.059C225.354 264.143 224.969 264.204 224.582 264.241C224.669 264.055 224.933 265.027 224.969 265.041C224.575 264.856 225.853 260.404 225.992 259.841C226.436 258.032 226.92 256.229 227.258 254.396C227.381 253.889 227.337 253.356 227.133 252.876C226.928 252.397 226.574 251.995 226.123 251.733C225.672 251.471 225.149 251.361 224.631 251.42C224.112 251.479 223.627 251.704 223.247 252.061C214.933 259.324 206.512 266.509 197.578 273.005C197.042 273.339 196.654 273.865 196.494 274.476C196.334 275.087 196.414 275.736 196.717 276.289C197.041 276.836 197.568 277.232 198.182 277.393C198.796 277.554 199.449 277.467 200 277.15C209.266 270.412 218.018 262.988 226.641 255.455L222.63 253.12C222.01 256.483 220.905 259.745 220.377 263.126C220.071 265.089 220.092 266.94 221.865 268.198C223.584 269.417 225.699 269.056 227.596 268.524C235.065 266.41 242.052 262.862 248.167 258.079C251.613 255.385 254.766 252.335 257.573 248.979C258.008 248.521 258.25 247.914 258.25 247.282C258.25 246.651 258.008 246.044 257.573 245.585C257.12 245.14 256.511 244.891 255.875 244.891C255.24 244.891 254.631 245.14 254.178 245.585V245.588Z" fill="#2E6669"/>
<path d="M290.032 361.057C294.144 358.686 297.295 354.95 298.938 350.498C300.557 346.028 300.327 341.06 299.696 336.429C299.032 331.56 297.723 326.829 296.743 322.029C295.649 316.617 294.914 311.138 294.543 305.629C294.136 299.413 294.078 293.18 294.372 286.959C294.506 283.87 289.706 283.877 289.572 286.959C289.042 297.531 289.603 308.129 291.247 318.586C292.047 323.457 293.311 328.215 294.279 333.049C295.125 337.269 295.826 341.781 295.123 346.073C294.761 348.327 293.899 350.471 292.598 352.348C291.298 354.224 289.593 355.785 287.61 356.916C284.95 358.482 287.362 362.633 290.033 361.061L290.032 361.057Z" fill="#2E6669"/>
<path d="M270.737 224.6C272.301 225.706 273.722 227.002 274.967 228.458C276.454 230.12 278.022 231.732 279.402 233.484C282.057 236.944 284.202 240.767 285.772 244.835C287.539 249.294 288.807 253.935 289.553 258.673C290.099 262.643 290.325 266.649 290.229 270.654C290.209 276.09 290.058 281.535 289.575 286.954C289.58 287.589 289.834 288.197 290.283 288.646C290.733 289.095 291.34 289.349 291.975 289.354C292.608 289.342 293.211 289.085 293.658 288.637C294.105 288.19 294.362 287.587 294.375 286.954C294.827 281.882 294.985 276.786 295.023 271.695C295.123 267.386 294.91 263.074 294.386 258.795C293.067 249.218 289.745 239.395 283.939 231.578C282.3 229.371 280.42 227.378 278.595 225.33C276.995 223.485 275.169 221.848 273.16 220.459C270.595 218.723 268.191 222.88 270.737 224.604V224.6Z" fill="#2E6669"/>
<path d="M265.8 216.265C257.354 212.236 248.164 210.004 238.811 209.708C228.805 209.544 218.906 211.784 209.945 216.241C203.49 219.225 197.777 223.604 193.218 229.062C188.463 235.096 184.827 241.933 182.482 249.249C179.202 259.572 177.471 270.325 177.347 281.157C177.265 284.247 182.065 284.245 182.147 281.157C182.577 264.957 185.613 247.693 195.247 234.257C198.929 229.178 203.708 224.994 209.229 222.016C217.004 217.642 225.67 215.092 234.574 214.557C244.509 214.116 254.4 216.128 263.374 220.414C263.927 220.718 264.576 220.798 265.187 220.638C265.798 220.478 266.324 220.089 266.657 219.553C266.973 219.002 267.06 218.349 266.898 217.735C266.737 217.121 266.341 216.594 265.796 216.27L265.8 216.265Z" fill="#2E6669"/>
<path d="M177.351 281.157C176.913 288.587 176.276 296.022 175.151 303.382C174.454 308.48 173.345 313.514 171.835 318.433C169.804 324.574 168.456 330.92 167.816 337.356C167.638 339.836 167.969 342.327 168.789 344.675C169.609 347.022 170.901 349.177 172.585 351.007C174.847 353.523 177.676 355.463 180.838 356.667C183.999 357.872 187.403 358.305 190.765 357.932C191.396 357.915 191.997 357.657 192.444 357.211C192.89 356.764 193.148 356.163 193.165 355.532C193.161 354.897 192.906 354.289 192.457 353.84C192.008 353.391 191.4 353.137 190.765 353.132C188.18 353.47 185.551 353.205 183.085 352.357C180.62 351.509 178.384 350.101 176.554 348.244C175.126 346.734 174.006 344.961 173.254 343.024C172.539 341.169 172.324 339.158 172.631 337.194C173.273 331.244 174.558 325.382 176.463 319.709C177.891 315.074 178.955 310.334 179.643 305.533C180.926 297.462 181.675 289.312 182.156 281.157C182.338 278.071 177.537 278.082 177.356 281.157H177.351Z" fill="#2E6669"/>
<path d="M258.214 279.285C258.886 280.222 259.639 281.097 260.466 281.9C260.951 282.354 261.463 282.778 262 283.169C262.474 283.508 262.993 283.782 263.541 283.981C263.85 284.08 264.181 284.095 264.498 284.024C264.815 284.01 265.123 283.911 265.39 283.739C265.662 283.58 265.9 283.369 266.091 283.118C266.282 282.867 266.421 282.58 266.501 282.275C266.581 281.97 266.6 281.653 266.557 281.34C266.514 281.028 266.41 280.727 266.251 280.455L265.876 279.969C265.582 279.675 265.217 279.463 264.817 279.352L264.746 279.324L265.32 279.566C264.954 279.397 264.61 279.183 264.297 278.929L264.783 279.304C263.814 278.532 262.945 277.641 262.196 276.654L262.571 277.139C262.504 277.048 262.435 276.956 262.364 276.863C262.028 276.341 261.521 275.952 260.929 275.763C260.305 275.597 259.64 275.684 259.08 276.005C258.542 276.323 258.148 276.837 257.98 277.439C257.892 277.747 257.868 278.071 257.909 278.389C257.951 278.707 258.057 279.013 258.222 279.288L258.214 279.285Z" fill="#2E6669"/>
<path d="M197.159 357.789C201.198 356.198 205.502 354.889 209.181 352.557C212.102 350.872 214.295 348.164 215.337 344.957C216.185 342.141 216.092 338.928 216.111 336.006C216.13 332.916 211.33 332.913 211.311 336.006C211.455 338.523 211.269 341.048 210.757 343.517C210.038 346.066 208.182 347.612 205.967 348.893C202.817 350.716 199.267 351.83 195.883 353.161C195.279 353.346 194.77 353.755 194.458 354.304C194.146 354.853 194.056 355.501 194.206 356.114C194.38 356.725 194.787 357.244 195.339 357.557C195.892 357.871 196.545 357.954 197.159 357.789Z" fill="#2E6669"/>
<path d="M197.958 351.554C183.874 356.479 168.101 359.93 159.237 373.119C155.414 378.807 152.979 385.502 150.984 392.019C148.843 398.98 147.302 406.112 146.378 413.337C145.26 422.17 144.989 431.202 144.757 440.095C144.534 448.653 144.425 457.321 145.674 465.811C146.811 473.545 149.504 481.155 154.825 487.021C160.037 492.766 167.197 495.627 174.772 496.531C182.657 497.473 190.756 496.471 198.597 495.564C207.766 494.558 216.865 493 225.846 490.898C227.921 490.398 229.985 489.859 232.04 489.279C232.545 489.135 232.989 488.832 233.307 488.415C233.625 487.997 233.798 487.488 233.802 486.964C233.037 479.764 231.957 472.587 230.79 465.438C230.004 460.623 229.29 455.747 228.173 450.994C228.032 450.488 227.729 450.042 227.311 449.724C226.894 449.406 226.383 449.233 225.858 449.232C211.451 450.922 196.987 452.214 182.528 453.362C181.896 453.377 181.295 453.635 180.848 454.081C180.401 454.528 180.143 455.13 180.128 455.762C180.133 456.397 180.387 457.004 180.836 457.453C181.285 457.902 181.893 458.157 182.528 458.162C196.987 457.014 211.451 455.722 225.858 454.032L223.544 452.27C224.636 456.909 225.334 461.67 226.104 466.37C227.225 473.211 228.27 480.07 229.004 486.97L230.766 484.656C222.424 486.961 213.939 488.712 205.366 489.897C197.387 491.189 189.327 491.92 181.246 492.085C174.456 492.099 167.574 491.012 161.928 486.994C156.049 482.81 152.769 476.02 151.17 469.16C149.434 461.709 149.409 453.937 149.456 446.326C149.515 436.861 150.031 427.405 150.723 417.968C151.26 411.494 152.378 405.081 154.062 398.807C155.647 392.147 157.984 385.688 161.027 379.556C164.007 373.737 168.626 368.919 174.313 365.696C180.463 362.173 187.319 360.143 194.013 357.95C195.758 357.379 197.498 356.799 199.231 356.193C199.836 356.01 200.348 355.602 200.66 355.052C200.972 354.503 201.061 353.854 200.907 353.241C200.733 352.63 200.326 352.112 199.774 351.799C199.222 351.485 198.569 351.401 197.955 351.564L197.958 351.554Z" fill="#2E6669"/>
<path d="M175.112 408.649C176.98 424.291 178.873 439.931 180.665 455.582C180.684 456.213 180.942 456.812 181.389 457.258C181.835 457.705 182.434 457.963 183.065 457.982C183.7 457.978 184.309 457.724 184.758 457.275C185.207 456.826 185.461 456.217 185.465 455.582C183.673 439.931 181.78 424.291 179.912 408.649C179.893 408.018 179.634 407.419 179.188 406.973C178.742 406.527 178.143 406.268 177.512 406.249C176.877 406.253 176.269 406.507 175.819 406.956C175.37 407.406 175.116 408.014 175.112 408.649Z" fill="#2E6669"/>
<path d="M268.541 356.225H268.531C267.9 356.241 267.298 356.499 266.852 356.945C266.405 357.392 266.147 357.993 266.131 358.625L266.216 359.263C266.327 359.663 266.54 360.028 266.834 360.322L267.319 360.697C267.687 360.912 268.105 361.025 268.531 361.025H268.541C269.172 361.007 269.772 360.749 270.219 360.302C270.665 359.856 270.924 359.256 270.941 358.625L270.855 357.987C270.744 357.586 270.532 357.221 270.238 356.928L269.752 356.552C269.385 356.336 268.967 356.224 268.541 356.225Z" fill="#2E6669"/>
<path d="M234.471 362.745C227.618 362.475 220.818 361.425 214.203 359.616C208.256 358.195 202.523 355.995 197.152 353.072C194.471 351.527 192.052 355.672 194.729 357.217C200.46 360.349 206.58 362.712 212.929 364.245C219.962 366.156 227.19 367.263 234.473 367.545C237.562 367.637 237.56 362.837 234.473 362.745H234.471Z" fill="#2E6669"/>
<path d="M230.788 483.691C235.488 483.645 240.181 483.57 244.878 483.497C248.811 483.455 252.692 482.599 256.278 480.983C256.824 480.659 257.221 480.133 257.382 479.518C257.543 478.904 257.456 478.251 257.139 477.7C256.807 477.162 256.281 476.773 255.669 476.613C255.058 476.452 254.408 476.533 253.855 476.839C252.152 477.587 250.369 478.135 248.54 478.472C247.009 478.677 245.465 478.757 243.921 478.712C239.543 478.78 235.165 478.849 230.786 478.891C227.699 478.921 227.692 483.721 230.786 483.691H230.788Z" fill="#2E6669"/>
<path d="M227.916 455.874C232.56 455.728 237.161 454.941 241.589 453.535C242.203 453.365 242.724 452.959 243.039 452.406C243.353 451.852 243.435 451.196 243.266 450.582C243.096 449.968 242.69 449.447 242.137 449.132C241.583 448.818 240.927 448.736 240.313 448.906C238.247 449.57 236.137 450.093 234 450.471C233.475 450.563 232.949 450.646 232.422 450.721C232.858 450.659 232.092 450.761 232.085 450.762C231.8 450.796 231.515 450.827 231.23 450.857C230.13 450.968 229.03 451.038 227.92 451.074C227.284 451.074 226.673 451.327 226.223 451.777C225.773 452.227 225.52 452.837 225.52 453.474C225.52 454.11 225.773 454.721 226.223 455.171C226.673 455.621 227.284 455.874 227.92 455.874H227.916Z" fill="#2E6669"/>
<path d="M271.4 355.279C274.546 356.203 277.681 357.172 280.77 358.279C282.151 358.773 283.524 359.292 284.88 359.851C286.059 360.337 287.548 361.388 288.828 361.388L287.616 361.06C291.61 362.885 295.326 365.266 298.655 368.13C306.561 375.378 311.329 385.422 311.948 396.13C311.962 396.762 312.22 397.364 312.667 397.811C313.114 398.258 313.716 398.515 314.348 398.53C314.983 398.524 315.59 398.269 316.039 397.82C316.487 397.372 316.742 396.764 316.748 396.13C316.413 389.159 314.492 382.358 311.132 376.242C308.303 371.158 304.519 366.669 299.987 363.021C298.313 361.701 296.556 360.491 294.727 359.397C293.822 358.86 292.901 358.351 291.966 357.869C291.023 357.216 289.948 356.779 288.818 356.59L290.029 356.917C284.411 354.393 278.61 352.3 272.676 350.655C269.706 349.783 268.437 354.414 271.4 355.284V355.279Z" fill="#2E6669"/>
<path d="M259.37 334.135C260.625 329.357 261.819 324.557 262.834 319.722C262.981 318.825 263.196 317.941 263.477 317.078C263.57 316.877 263.675 316.683 263.791 316.496C263.841 316.409 264.125 316.03 263.93 316.267C264.084 316.079 264.256 315.908 264.444 315.756C264.144 315.995 264.693 315.631 264.744 315.605C264.356 315.805 265.574 315.415 265.177 315.462C265.525 315.396 265.885 315.441 266.207 315.589C266.442 315.702 266.659 315.851 266.849 316.03C267.108 316.271 267.35 316.529 267.575 316.802C268.027 317.247 268.637 317.497 269.272 317.497C269.907 317.497 270.517 317.247 270.969 316.802C271.407 316.345 271.651 315.737 271.651 315.105C271.651 314.472 271.407 313.864 270.969 313.408C270.165 312.378 269.091 311.591 267.867 311.135C266.644 310.678 265.317 310.569 264.035 310.821C262.736 311.167 261.554 311.857 260.613 312.818C259.672 313.779 259.008 314.976 258.689 316.283C257.935 318.783 257.562 321.44 256.961 323.983C256.258 326.951 255.519 329.91 254.742 332.861C253.956 335.851 258.585 337.126 259.371 334.137L259.37 334.135Z" fill="#2E6669"/>
<path d="M275.77 350.594C277.508 344.462 278.745 338.199 279.47 331.867C280.378 325.907 280.936 319.899 281.14 313.874C281.194 310.424 279.631 307.451 276.28 306.234C274.737 305.74 273.068 305.815 271.575 306.444C270.082 307.073 268.863 308.216 268.139 309.665C267.591 310.951 267.249 312.314 267.127 313.706C267.045 314.311 266.912 315.436 266.869 315.787C266.843 315.996 266.717 316.825 266.648 317.287C266.241 320.021 265.822 322.751 265.393 325.477C264.438 331.547 263.539 337.66 262.193 343.658C261.515 346.666 266.142 347.951 266.821 344.934C267.888 340.194 268.639 335.375 269.415 330.581C270.223 325.594 271.126 320.589 271.692 315.568C271.781 314.483 271.96 313.407 272.227 312.351C272.275 311.98 272.435 311.632 272.687 311.355C272.938 311.078 273.269 310.884 273.634 310.801C275.934 310.101 276.381 312.684 276.334 314.237C276.168 319.637 275.559 325.052 274.867 330.406C274.155 336.803 272.91 343.128 271.145 349.317C270.245 352.278 274.873 353.544 275.773 350.593L275.77 350.594Z" fill="#2E6669"/>
<path d="M239.828 397.961C239.443 389.513 239.25 380.998 237.647 372.682C236.984 369.244 236.224 365.247 237.588 362.004C239.02 359.061 240.743 356.268 242.731 353.668C245.157 350.475 247.26 347.05 249.011 343.442C249.312 342.888 249.39 342.24 249.23 341.63C249.07 341.02 248.684 340.494 248.15 340.159C247.599 339.842 246.946 339.755 246.331 339.916C245.717 340.077 245.19 340.474 244.866 341.02C242.033 347.565 236.743 352.681 233.672 359.088C231.831 362.932 231.889 366.804 232.518 370.953C232.825 372.979 233.247 374.978 233.611 376.995C233.948 379.184 234.157 381.391 234.239 383.605C234.545 388.388 234.808 393.174 235.028 397.961C235.169 401.037 239.969 401.054 239.828 397.961Z" fill="#2E6669"/>
<path d="M267.841 391.44C266.159 387.94 264.805 384.291 263.798 380.54C263.109 377.339 263.247 374.014 264.198 370.88C265.178 367.34 267.31 364.48 269.412 361.531C271.822 358.305 273.875 354.827 275.535 351.157C275.835 350.603 275.914 349.955 275.754 349.346C275.594 348.736 275.208 348.21 274.674 347.874C274.123 347.557 273.47 347.47 272.855 347.631C272.241 347.792 271.714 348.189 271.39 348.735C269.588 352.669 267.359 356.394 264.743 359.841C262.416 363.089 260.343 366.367 259.39 370.299C258.398 374.066 258.324 378.015 259.174 381.816C260.307 385.961 261.822 389.992 263.7 393.857C264.024 394.404 264.551 394.8 265.165 394.961C265.78 395.123 266.433 395.035 266.984 394.718C267.522 394.387 267.912 393.861 268.072 393.249C268.232 392.638 268.151 391.988 267.845 391.435L267.841 391.44Z" fill="#2E6669"/>
<path d="M274.379 353.352C272.649 354.252 270.879 355.074 269.079 355.834L269.653 355.592C269.07 355.838 268.485 356.078 267.898 356.31C267.304 356.495 266.796 356.885 266.463 357.41C266.142 357.971 266.055 358.636 266.221 359.26C266.39 359.862 266.783 360.376 267.321 360.694C267.596 360.86 267.902 360.967 268.221 361.008C268.539 361.05 268.862 361.026 269.171 360.936C271.77 359.921 274.317 358.774 276.8 357.5C277.346 357.176 277.742 356.649 277.903 356.035C278.064 355.42 277.977 354.767 277.661 354.216C277.33 353.678 276.803 353.288 276.192 353.127C275.58 352.967 274.93 353.049 274.377 353.355L274.379 353.352Z" fill="#2E6669"/>
<path d="M249.257 342.866C250.446 339.635 251.329 336.3 251.894 332.905C252.069 331.35 252.324 329.806 252.656 328.278C252.704 328.093 252.756 327.91 252.817 327.727C252.926 327.439 252.943 327.38 252.868 327.549C252.937 327.399 253.016 327.254 253.105 327.116C252.973 327.277 253.005 327.25 253.198 327.037C253.411 326.843 253.445 326.813 253.298 326.947C253.436 326.857 253.579 326.775 253.727 326.702C253.242 326.917 254.336 326.484 253.966 326.651C253.8 326.674 253.841 326.68 254.091 326.669C253.791 326.622 253.799 326.638 254.107 326.715C253.899 326.636 253.918 326.664 254.166 326.797C253.981 326.67 253.992 326.703 254.199 326.897C254.136 326.662 254.247 327.074 254.28 327.187C254.339 327.387 254.487 327.957 254.492 327.998C254.588 329.372 254.568 330.751 254.432 332.122C254.336 335.055 254.178 337.988 253.957 340.922C253.963 341.557 254.217 342.164 254.666 342.613C255.115 343.062 255.722 343.316 256.357 343.322C256.99 343.309 257.593 343.053 258.041 342.605C258.488 342.158 258.745 341.554 258.757 340.922C258.957 338.249 259.111 335.574 259.206 332.896C259.306 330.119 259.734 327.012 258.306 324.483C257.919 323.828 257.393 323.266 256.767 322.835C256.14 322.404 255.427 322.115 254.678 321.987C253.928 321.859 253.159 321.896 252.425 322.095C251.691 322.294 251.01 322.65 250.427 323.139C247.872 325.092 247.785 328.389 247.327 331.306C246.765 334.814 245.864 338.261 244.637 341.596C244.473 342.209 244.557 342.863 244.871 343.415C245.184 343.967 245.702 344.375 246.313 344.549C246.926 344.704 247.576 344.617 248.126 344.304C248.677 343.991 249.085 343.478 249.265 342.872L249.257 342.866Z" fill="#2E6669"/>
<path d="M311.95 396.128C312.002 413.101 310.977 430.328 306.911 446.858C305.111 454.158 302.644 461.366 298.625 467.764C296.713 470.914 294.337 473.758 291.577 476.201C289.151 478.193 286.334 479.655 283.309 480.495C277.159 482.279 270.611 482.152 264.534 480.133C258.363 478.013 253.207 473.661 250.082 467.933C247.196 462.815 245.39 457.033 243.672 451.391C241.706 444.932 240.066 438.376 238.597 431.791C236.335 421.645 234.416 411.397 232.973 401.101C232.947 400.915 232.829 400.049 232.887 400.48C232.942 400.891 232.836 400.093 232.814 399.914L231.052 402.228C244.159 399.535 257.252 396.759 270.397 394.26L267.445 392.583C270.845 404.042 274.445 415.441 277.705 426.94C278.547 429.907 283.18 428.646 282.333 425.664C279.07 414.164 275.475 402.764 272.073 391.307C271.89 390.702 271.481 390.191 270.932 389.879C270.382 389.567 269.734 389.478 269.121 389.631C255.975 392.131 242.883 394.907 229.776 397.599C229.269 397.738 228.823 398.04 228.504 398.459C228.186 398.877 228.014 399.388 228.014 399.914C229.255 409.721 231.069 419.482 233.114 429.149C234.573 436.034 236.203 442.887 238.148 449.649C239.831 455.948 242.032 462.097 244.729 468.034C247.637 474.411 252.583 479.641 258.789 482.9C265.245 486.054 272.502 487.191 279.614 486.162C286.884 485.273 293.563 481.71 298.35 476.168C303.708 469.976 307.234 462.475 309.699 454.719C312.198 446.447 313.938 437.965 314.899 429.379C315.987 420.481 316.591 411.531 316.706 402.569C316.742 400.423 316.756 398.277 316.748 396.131C316.738 393.043 311.938 393.037 311.948 396.131L311.95 396.128Z" fill="#2E6669"/>
<defs>
<clipPath id="clip0_1025_3229">
<rect width="93" height="111.583" fill="white" transform="translate(335 84.9482)"/>
</clipPath>
</defs>
</svg>
