<svg width="520" height="520" viewBox="0 0 520 520" fill="none" xmlns="http://www.w3.org/2000/svg">
<circle cx="260" cy="260" r="260" fill="#E0F2F1"/>
<path d="M177.494 182.877C182.206 167.867 191.678 157.726 200.301 151.314C210.277 143.895 222.756 139.464 237.437 139.464C252.118 139.464 264.597 143.886 274.573 151.305C286.156 159.919 299.273 175.264 300.323 200.1C300.574 206.036 299.818 212.838 298.024 219.739L297.913 220.166C300.453 220.887 301.686 222.516 302.292 223.566C304.597 227.563 304.499 234.929 302.952 239.486C301.856 242.713 300.061 247.651 295.735 251.191C293.773 252.797 290.791 253.799 288.066 253.016C286.137 259.746 282.617 267.891 276.395 275.463C272.957 279.647 269.633 282.713 266.003 285.078V287.606C264.894 288.504 242.28 306.334 240.566 307.549H236.582C234.867 306.334 212.254 288.504 211.145 287.606C211.145 287.606 211.145 287.317 211.139 286.869C206.617 284.144 202.458 280.317 198.47 275.464C192.27 267.919 188.752 259.804 186.817 253.082C184.166 253.736 181.312 252.746 179.413 251.192C175.086 247.652 173.291 242.715 172.196 239.487C170.649 234.93 170.552 227.564 172.856 223.567C173.441 222.553 174.612 220.998 176.979 220.241L176.851 219.75C175.057 212.849 174.301 206.047 174.552 200.111C174.82 193.762 175.877 188.034 177.495 182.88L177.494 182.877Z" fill="white"/>
<path d="M126.444 283.706C122.896 277.437 124.788 270.954 129.159 266.797C134.09 262.108 141.646 260.78 148.215 260.867C150.814 260.902 153.409 261.199 155.956 261.713C156.566 261.836 156.804 261.883 157.408 262.031C158.392 262.272 158.992 262.798 158.567 263.681C157.945 264.974 157.414 266.071 156.777 267.357C154.05 272.869 151.067 278.896 146.93 283.594C142.122 289.055 131.089 291.915 126.443 283.705L126.444 283.706Z" fill="white"/>
<path d="M123.712 237.787C123.898 232.903 127.301 229.833 131.306 228.991C135.825 228.041 140.661 229.967 144.423 232.359C145.912 233.306 147.304 234.402 148.591 235.607C148.899 235.896 149.02 236.007 149.316 236.308C149.798 236.798 149.957 237.315 149.397 237.674C148.577 238.199 147.879 238.643 147.053 239.159C143.514 241.37 139.643 243.786 135.58 245.025C130.858 246.464 123.469 244.184 123.712 237.787Z" fill="white"/>
<path d="M211.144 287.603C208.534 290.523 205.315 294.802 202.762 297.76C201.259 299.501 200.153 302.698 201.008 305.004C201.989 306.964 212.836 324.356 220.14 329.036C222.448 325.961 232.008 312.691 236.581 307.547C234.866 306.332 212.253 288.501 211.144 287.603Z" fill="white"/>
<path d="M266.002 287.603C268.612 290.523 271.831 294.802 274.384 297.76C275.887 299.501 276.993 302.698 276.138 305.004C275.157 306.964 264.31 324.356 257.006 329.036C254.698 325.961 245.138 312.691 240.565 307.547C242.28 306.332 264.893 288.501 266.002 287.603Z" fill="white"/>
<path d="M181.557 219.945C180.904 219.819 180.255 219.773 179.639 219.795C178.617 219.831 177.737 219.992 176.98 220.235C175.093 213.167 174.295 206.183 174.552 200.107C175.226 184.162 180.874 172.129 187.896 163.278C187.956 163.427 187.988 163.505 187.988 163.505C189.474 167.171 195.221 170.49 198.094 172.67C202.084 175.697 201.391 179.709 199.159 183.504C195.611 189.538 192.695 195.943 190.461 202.577C188.312 208.957 187.215 215.57 185.618 222.043C184.455 220.883 182.997 220.223 181.558 219.946L181.557 219.945Z" fill="#2E6669"/>
<path d="M291.983 220.424C290.94 220.854 289.951 221.518 289.145 222.462C287.49 215.855 286.392 209.094 284.197 202.577C281.963 195.943 279.047 189.539 275.499 183.504C273.267 179.708 272.575 175.697 276.564 172.67C279.437 170.49 285.184 167.171 286.67 163.505L286.837 163.093C293.925 171.96 299.644 184.047 300.322 200.098C300.578 206.155 299.786 213.114 297.912 220.158C297.214 219.958 296.417 219.827 295.507 219.795C294.383 219.755 293.148 219.943 291.982 220.423L291.983 220.424Z" fill="#2E6669"/>
<path d="M351.184 380.968C349.147 362.728 345.702 345.018 334.795 331.008C330.112 324.978 324.231 319.988 317.644 316.438C312.59 313.718 307.156 311.848 301.759 309.998C298.266 308.798 294.737 307.618 291.176 306.648C285.322 305.053 282.51 304.262 277.749 303.241H276.429C276.426 303.857 276.34 304.457 276.137 305.004C275.156 306.964 264.309 324.356 257.005 329.036C254.697 325.961 245.137 312.691 240.564 307.547H236.58C232.007 312.691 222.447 325.961 220.139 329.036C212.834 324.356 201.988 306.964 201.007 305.004C200.804 304.457 200.719 303.858 200.716 303.241H199.4C194.639 304.262 191.827 305.053 185.973 306.648C182.412 307.618 178.882 308.798 175.39 309.998C169.994 311.848 164.559 313.718 159.505 316.438C152.919 319.988 147.037 324.978 142.354 331.008C131.447 345.018 128.002 362.728 125.965 380.968C123.934 399.161 122.596 417.385 122.4 435.708H354.749C354.553 417.385 353.215 399.16 351.184 380.968Z" fill="#2E6669"/>
<path d="M300.337 220.375C302.712 211.119 303.346 201.71 301.967 192.25C300.847 184.565 298.351 177.079 294.567 170.292C288.067 158.635 277.628 148.742 265.511 143.105C249.951 135.867 231.143 135.02 214.975 140.802C201.979 145.45 190.704 154.5 182.999 165.922C173.751 179.632 170.465 196.745 173 212.996C173.388 215.484 173.911 217.946 174.537 220.384C175.304 223.374 179.935 222.107 179.166 219.108C175.149 203.453 176.601 186.618 184.618 172.429C190.77 161.539 200.272 152.709 211.438 147.421C225.866 140.588 243.449 140.06 258.439 145.36C270.359 149.574 280.655 157.841 287.732 168.336C296.271 180.999 299.611 196.879 297.211 211.946C296.827 214.354 296.317 216.738 295.711 219.099C294.943 222.093 299.571 223.37 300.34 220.375H300.337Z" fill="#2E6669"/>
<path d="M185.915 164.716C187.418 168.175 190.967 170.564 193.943 172.656C195.197 173.538 196.737 174.359 197.713 175.569C198.733 176.834 198.695 178.353 198.235 179.829C197.63 181.771 196.366 183.499 195.402 185.274C194.276 187.347 193.223 189.459 192.245 191.605C190.215 196.06 188.424 200.651 187.091 205.364C185.559 210.781 184.562 216.33 183.207 221.792C182.463 224.79 187.091 226.069 187.836 223.068C189.077 218.069 190.018 212.999 191.342 208.02C192.618 203.225 194.331 198.542 196.39 194.028C197.432 191.743 198.558 189.497 199.766 187.296C200.85 185.322 202.098 183.429 202.809 181.274C203.443 179.352 203.59 177.171 202.918 175.239C202.173 173.099 200.659 171.583 198.866 170.271C195.813 168.037 191.641 165.931 190.061 162.294C189.544 161.105 187.801 160.834 186.777 161.433C185.549 162.151 185.397 163.523 185.916 164.717L185.915 164.716Z" fill="#2E6669"/>
<path d="M284.597 162.293C283.197 165.516 279.668 167.543 276.907 169.477C275.197 170.675 273.473 171.892 272.411 173.743C271.349 175.594 271.125 177.689 271.474 179.761C271.838 181.921 272.924 183.829 273.998 185.703C275.208 187.816 276.342 189.972 277.396 192.167C279.53 196.608 281.358 201.221 282.74 205.952C284.385 211.586 285.409 217.375 286.822 223.068C287.566 226.064 292.196 224.795 291.451 221.792C290.248 216.947 289.327 212.036 288.066 207.205C286.819 202.429 285.121 197.799 283.155 193.274C282.215 191.111 281.2 188.98 280.112 186.887C279.074 184.891 277.789 182.989 276.852 180.947C276.233 179.599 275.762 177.952 276.369 176.515C276.961 175.114 278.405 174.27 279.597 173.437C282.915 171.119 287.062 168.585 288.742 164.717C289.258 163.529 289.093 162.142 287.881 161.433C286.866 160.839 285.117 161.099 284.597 162.294V162.293Z" fill="#2E6669"/>
<path d="M264.305 289.3C265.81 290.995 267.23 292.762 268.649 294.528C269.979 296.183 271.417 297.779 272.699 299.468C273.655 300.728 274.282 302.47 273.929 304.046C274.027 303.608 273.867 304.164 273.753 304.363C273.551 304.717 273.341 305.067 273.129 305.415C270.063 310.47 266.668 315.395 262.898 319.95C261.691 321.408 260.437 322.832 259.095 324.168C258.53 324.731 257.949 325.278 257.344 325.798C256.642 326.4 256.607 326.433 255.795 326.963L259.079 327.824C253.56 320.458 248.368 312.751 242.263 305.849L241.777 309.618C245.005 307.312 248.075 304.751 251.195 302.303C255.546 298.891 259.891 295.471 264.231 292.045C265.388 291.132 266.552 290.225 267.7 289.299C268.709 288.484 268.548 286.753 267.7 285.905C266.702 284.907 265.318 285.088 264.306 285.905C257.187 291.651 249.944 297.253 242.729 302.878C242.273 303.234 241.816 303.589 241.359 303.944C241.171 304.09 240.982 304.236 240.793 304.382C240.47 304.633 240.9 304.3 240.935 304.273C240.83 304.354 240.725 304.436 240.619 304.517C240.2 304.839 239.784 305.167 239.354 305.474C238.05 306.406 237.776 308.008 238.868 309.243C244.704 315.84 249.659 323.207 254.934 330.246C255.681 331.243 257.032 331.88 258.218 331.107C261.009 329.287 263.339 326.815 265.491 324.297C267.999 321.363 270.314 318.257 272.521 315.092C274.174 312.721 275.776 310.309 277.275 307.837C277.701 307.135 278.177 306.42 278.454 305.641C279.27 303.341 278.713 300.724 277.722 298.576C276.663 296.282 274.667 294.393 273.094 292.44C271.323 290.24 269.576 288.018 267.7 285.905C265.645 283.59 262.26 286.995 264.306 289.299L264.305 289.3Z" fill="#2E6669"/>
<path d="M209.447 285.905C207.849 287.705 206.346 289.585 204.84 291.461C203.346 293.321 201.657 295.102 200.291 297.056C198.202 300.045 197.613 304.013 199.492 307.202C202.77 312.765 206.558 318.114 210.654 323.1C213.078 326.051 215.706 329.005 218.929 331.106C220.103 331.872 221.467 331.241 222.213 330.245C227.488 323.205 232.443 315.838 238.279 309.242C239.372 308.007 239.098 306.405 237.793 305.473C237.429 305.213 237.077 304.937 236.722 304.665C236.588 304.562 236.454 304.459 236.32 304.356C236.021 304.126 236.748 304.689 236.233 304.288C235.854 303.993 235.474 303.699 235.095 303.404C233.108 301.858 231.126 300.305 229.145 298.751C224.836 295.371 220.533 291.984 216.235 288.591C215.103 287.697 213.964 286.81 212.841 285.904C211.833 285.091 210.432 284.92 209.447 285.905C208.605 286.747 208.433 288.48 209.447 289.298C216.642 295.105 223.961 300.768 231.255 306.45C232.618 307.512 233.963 308.611 235.37 309.616L234.884 305.847C228.778 312.749 223.586 320.456 218.068 327.822L221.352 326.961C220.328 326.293 219.528 325.601 218.445 324.553C217.287 323.433 216.2 322.241 215.151 321.019C212.933 318.435 210.895 315.703 208.943 312.913C207.36 310.652 205.83 308.352 204.379 306.003C203.988 305.369 203.559 304.734 203.228 304.066C203.195 304 203.084 303.696 203.162 303.942C203.208 304.087 203.111 303.329 203.112 303.141C203.12 302.293 203.36 301.433 203.725 300.67C204.692 298.645 206.574 296.919 207.971 295.181C209.566 293.196 211.151 291.202 212.841 289.297C214.886 286.994 211.503 283.587 209.447 285.903V285.905Z" fill="#2E6669"/>
<path d="M312.144 434.21C312.133 417.377 312.119 400.543 312.267 383.712C312.294 380.711 308.424 380.71 308.397 383.712C308.249 400.543 308.263 417.377 308.274 434.21C308.276 437.208 312.146 437.214 312.144 434.21Z" fill="#2E6669"/>
<path d="M162.268 383.712C162.453 400.543 162.434 417.377 162.412 434.209C162.408 437.209 167.25 437.214 167.254 434.209C167.276 417.377 167.295 400.543 167.109 383.712C167.076 380.714 162.234 380.707 162.268 383.712Z" fill="#2E6669"/>
<path d="M183.479 249.671C185.179 257.389 188.258 264.877 192.591 271.492C197.249 278.605 203.392 285.275 210.859 289.481C214.636 291.609 218.774 293.057 223.059 293.71C224.339 293.905 225.64 293.387 226.011 292.034C226.323 290.899 225.624 289.278 224.335 289.082C208.88 286.725 197.337 273.145 191.559 259.376C190.073 255.835 188.934 252.145 188.108 248.395C187.444 245.38 182.815 246.656 183.479 249.671Z" fill="#2E6669"/>
<path d="M286.754 248.394C285.278 255.097 282.76 261.522 279.187 267.389C275.443 273.536 270.523 279.365 264.405 283.259C261.284 285.245 257.914 286.69 254.404 287.833C251.479 288.785 252.731 293.422 255.68 292.462C262.628 290.2 268.877 286.73 274.094 281.569C280.112 275.615 284.738 268.383 287.961 260.579C289.419 257.051 290.56 253.4 291.382 249.672C292.045 246.662 287.419 245.376 286.753 248.396L286.754 248.394Z" fill="#2E6669"/>
<path d="M237.019 241.468C237.464 243.166 237.892 244.891 238.147 246.629L238.061 245.991C238.091 246.229 238.105 246.464 238.08 246.703L238.166 246.065C238.149 246.176 238.125 246.28 238.088 246.385L238.33 245.812C238.297 245.887 238.262 245.95 238.217 246.018L238.592 245.532C238.539 245.596 238.489 245.646 238.423 245.698L238.909 245.323C238.779 245.407 238.641 245.474 238.5 245.539L239.073 245.297C238.848 245.391 238.625 245.46 238.384 245.498L239.022 245.412C238.805 245.438 238.593 245.436 238.375 245.411L239.013 245.497C238.769 245.463 238.53 245.404 238.286 245.371C237.616 245.281 237.047 245.256 236.437 245.613C235.939 245.904 235.464 246.475 235.334 247.047C235.194 247.661 235.224 248.351 235.576 248.896C235.888 249.38 236.411 249.918 237.01 249.999C237.543 250.071 238.061 250.207 238.603 250.231C239.423 250.267 240.189 250.018 240.922 249.683C241.823 249.272 242.524 248.476 242.764 247.505C242.967 246.685 242.878 245.953 242.739 245.131C242.458 243.468 242.074 241.82 241.646 240.189C241.328 238.975 239.917 238.117 238.694 238.513C237.444 238.917 236.676 240.164 237.018 241.465L237.019 241.468Z" fill="#2E6669"/>
<path d="M209.49 226.916C208.628 229.717 209.19 236.161 214.496 236.709C221.51 236.667 221.883 228.877 219.522 225.214C217.589 222.215 211.905 220.968 209.49 226.916Z" fill="#2E6669"/>
<path d="M265.655 226.916C266.517 229.717 265.956 236.161 260.649 236.709C253.635 236.667 253.262 228.876 255.623 225.214C257.556 222.215 263.24 220.967 265.655 226.916Z" fill="#2E6669"/>
<path d="M187.218 220.251C183.799 217.147 178.71 216.532 174.598 218.644C171.633 220.167 169.976 223.229 169.268 226.374C167.583 233.857 169.489 242.337 173.861 248.611C176.952 253.046 181.341 256.285 186.966 255.498C188.251 255.318 188.954 253.679 188.642 252.546C188.262 251.163 186.979 250.689 185.69 250.87C182.544 251.31 179.781 248.684 178.115 246.343C176.489 244.058 175.386 241.495 174.509 238.845C173.552 235.953 173.308 232.864 173.559 229.837C173.674 228.452 173.94 227.028 174.458 225.734C174.632 225.299 174.851 224.881 175.102 224.485C175.204 224.325 175.309 224.165 175.425 224.014C175.141 224.386 175.673 223.767 175.773 223.665C176.476 222.95 177.744 222.388 179.005 222.236C180.742 222.026 182.513 222.456 183.824 223.645C186.107 225.717 189.511 222.333 187.218 220.251Z" fill="#2E6669"/>
<path d="M291.322 223.645C293.351 221.803 296.775 221.68 298.978 223.305C299.08 223.38 299.067 223.368 299.285 223.581C299.478 223.769 299.662 223.963 299.836 224.169C299.588 223.874 299.861 224.201 299.944 224.332C300.063 224.521 300.181 224.709 300.29 224.904C300.955 226.103 301.281 227.51 301.48 228.856C302.314 234.502 300.753 240.451 297.755 245.256C296.052 247.986 293.067 251.375 289.455 250.869C288.173 250.69 286.877 251.181 286.503 252.545C286.194 253.668 286.887 255.317 288.179 255.497C297.476 256.798 302.851 247.577 305.313 239.973C306.555 236.138 306.737 231.903 306.161 227.934C305.669 224.548 304.357 221.288 301.511 219.238C297.457 216.318 291.531 216.978 287.927 220.25C285.635 222.331 289.037 225.717 291.321 223.644L291.322 223.645Z" fill="#2E6669"/>
<path d="M357 433.719C356.856 421.229 356.176 408.751 355.088 396.306C354.08 384.788 353.036 373.159 350.657 361.82C348.515 351.612 345.045 341.482 339.089 332.774C332.865 323.673 324.227 316.489 313.984 312.101C307.754 309.432 301.225 307.284 294.726 305.339C289.227 303.693 283.629 302.25 278.009 301.061C274.988 300.422 273.697 304.976 276.729 305.617C287.148 307.821 297.403 310.885 307.382 314.546C317.494 318.257 326.421 324.008 333.009 332.51C346.196 349.53 348.02 372.13 349.944 392.671C351.223 406.32 352.028 420.012 352.186 433.718C352.221 436.757 357.035 436.765 357 433.718V433.719Z" fill="#2E6669"/>
<path d="M124.814 433.718C124.954 421.552 125.601 409.398 126.642 397.275C127.599 386.124 128.586 374.875 130.818 363.887C132.835 353.957 136.03 344.184 141.727 335.664C147.582 326.91 155.882 320.232 165.659 316.091C171.658 313.55 177.993 311.524 184.249 309.689C189.528 308.141 194.885 306.757 200.271 305.617C203.298 304.978 202.018 300.422 198.992 301.061C188.279 303.327 177.701 306.471 167.469 310.313C162.016 312.361 156.77 314.832 152.055 318.24C147.677 321.405 143.794 325.102 140.463 329.322C126.571 346.925 124.406 370.061 122.357 391.46C121.011 405.51 120.162 419.606 120 433.718C119.965 436.76 124.779 436.762 124.814 433.718Z" fill="#2E6669"/>
<path d="M247.82 236.504C244.348 230.818 244.142 221.724 251.431 218.971C255.284 217.516 259.367 216.932 263.474 217.056C266.999 217.162 270.745 217.585 273.815 219.444C276.479 221.057 278.714 223.673 279.262 226.804C279.729 229.472 279.281 232.341 278.25 234.82C276.011 240.2 270.643 243.552 264.883 243.904C261.506 244.11 257.947 243.977 254.768 242.706C251.845 241.536 249.525 239.183 247.819 236.505C246.164 233.907 242.009 236.312 243.674 238.928C245.705 242.117 248.36 244.972 251.816 246.619C255.215 248.238 258.952 248.774 262.692 248.765C270.541 248.745 278.197 245.441 281.937 238.205C283.602 234.984 284.409 231.301 284.16 227.678C283.869 223.436 281.792 219.626 278.509 216.935C274.884 213.964 270.679 212.884 266.091 212.427C261.259 211.945 256.231 212.368 251.595 213.843C246.959 215.318 242.726 218.47 241.319 223.364C239.813 228.603 240.861 234.322 243.674 238.928C245.282 241.56 249.435 239.151 247.819 236.505L247.82 236.504Z" fill="#2E6669"/>
<path d="M232.082 228.62H243.05C244.305 228.62 245.508 227.516 245.45 226.22C245.392 224.924 244.395 223.82 243.05 223.82H232.082C230.827 223.82 229.624 224.924 229.682 226.22C229.74 227.516 230.737 228.62 232.082 228.62Z" fill="#2E6669"/>
<path d="M238.581 261.274C238.778 261.276 238.975 261.293 239.171 261.295C239.794 261.302 238.687 261.172 239.279 261.302C239.57 261.366 239.859 261.425 240.143 261.516C240.177 261.527 240.713 261.719 240.337 261.575C239.97 261.434 240.466 261.644 240.506 261.665C240.651 261.741 240.793 261.823 240.932 261.912L241.068 262.001C241.279 262.152 241.246 262.123 240.97 261.914C241.127 261.921 241.441 262.341 241.551 262.46L241.657 262.578C241.822 262.776 241.796 262.738 241.581 262.465C241.66 262.491 241.806 262.791 241.85 262.862C241.935 262.999 242.267 263.426 242.231 263.575C242.281 263.369 242.088 263.156 242.204 263.535C242.261 263.722 242.327 263.904 242.377 264.093C242.439 264.326 242.574 264.681 242.549 264.929C242.609 264.332 242.524 264.798 242.536 264.988C242.543 265.107 242.548 265.226 242.551 265.344C242.556 265.606 242.55 265.868 242.531 266.13C242.525 266.213 242.512 266.298 242.509 266.381C242.493 266.795 242.641 265.741 242.505 266.386C242.412 266.83 242.314 267.269 242.164 267.698C242.087 267.919 241.873 268.146 242.203 267.643C242.156 267.714 242.124 267.819 242.086 267.898C241.952 268.176 241.788 268.431 241.632 268.696C241.497 268.925 241.339 268.89 241.714 268.614C241.612 268.689 241.521 268.847 241.434 268.942C241.348 269.035 240.907 269.362 240.905 269.444C240.908 269.289 241.338 269.143 240.91 269.424C240.825 269.48 240.738 269.533 240.65 269.584C240.615 269.604 240.258 269.822 240.234 269.8C240.564 269.667 240.606 269.648 240.359 269.743L240.203 269.797C239.899 269.898 239.579 269.932 239.276 270.024C238.946 270.125 239.858 270.009 239.265 270.017C239.067 270.02 238.869 270.039 238.67 270.039C238.533 270.039 238.396 270.035 238.259 270.028C238.133 270.021 237.518 269.9 238.119 270.027C237.756 269.95 237.415 269.859 237.062 269.746C236.517 269.572 237.479 270.005 237.003 269.71C236.908 269.651 236.805 269.604 236.709 269.546C236.618 269.492 236.342 269.367 236.294 269.272L236.521 269.446C236.437 269.377 236.356 269.305 236.276 269.231C236.145 269.109 235.746 268.814 235.725 268.641C235.742 268.784 235.975 269.008 235.811 268.739C235.698 268.555 235.577 268.379 235.473 268.19C235.411 268.077 235.365 267.934 235.289 267.83C235.097 267.565 235.478 268.378 235.308 267.881C235.22 267.624 235.129 267.37 235.06 267.106C235.019 266.948 234.982 266.789 234.95 266.629C234.838 266.063 234.884 266.608 234.935 266.623C234.855 266.598 234.878 265.751 234.879 265.653C234.879 265.528 234.883 265.402 234.889 265.277C234.896 265.152 234.906 265.027 234.919 264.903C234.871 265.231 234.869 265.259 234.914 264.985C234.993 264.619 235.077 264.259 235.2 263.905C235.209 263.878 235.453 263.34 235.283 263.675C235.125 263.988 235.456 263.356 235.488 263.3C235.578 263.14 235.674 262.983 235.776 262.831C235.856 262.711 236.217 262.311 235.837 262.732C236.082 262.461 236.332 262.21 236.596 261.959C237.017 261.56 236.18 262.189 236.682 261.899C236.838 261.809 236.984 261.706 237.142 261.619C237.254 261.558 237.792 261.351 237.221 261.557C237.392 261.495 237.563 261.433 237.738 261.384C237.916 261.334 238.096 261.301 238.277 261.263C237.645 261.398 238.427 261.271 238.582 261.269C239.837 261.248 241.041 260.18 240.982 258.869C240.925 257.587 239.927 256.446 238.582 256.469C234.491 256.539 231.024 259.719 230.285 263.71C229.603 267.393 230.841 271.346 234.006 273.511C237.147 275.659 241.926 275.179 244.627 272.543C246.92 270.305 247.637 266.902 247.202 263.824C246.934 261.927 246.032 260.03 244.606 258.726C242.943 257.206 240.817 256.496 238.582 256.469C237.326 256.454 236.124 257.584 236.182 258.869C236.241 260.182 237.236 261.253 238.582 261.269L238.581 261.274Z" fill="#2E6669"/>
<path d="M128.517 282.493C125.593 277.149 127.285 271.016 132.107 267.427C136.779 263.949 143.034 263.129 148.703 263.276C150.437 263.321 152.17 263.473 153.881 263.761C154.703 263.899 155.547 264.172 156.375 264.251L156.771 264.346C157.352 264.327 157.192 263.843 156.292 262.894C156.024 263.02 155.649 264.223 155.51 264.509C154.049 267.508 152.578 270.508 150.958 273.425C148.334 278.151 145.359 283.254 140.293 285.401C138.393 286.207 135.889 286.657 134.028 286.354C131.613 285.961 129.806 284.699 128.517 282.493C126.959 279.828 122.808 282.241 124.372 284.916C127.647 290.518 134.049 292.313 140.095 290.538C142.865 289.725 145.458 288.283 147.594 286.339C150.414 283.772 152.566 280.269 154.456 276.991C156.488 273.466 158.269 269.794 160.042 266.133C160.486 265.215 161.077 264.273 161.093 263.224C161.111 262.055 160.518 260.984 159.532 260.353C157.923 259.323 155.557 259.169 153.712 258.913C146.217 257.874 137.745 258.404 131.097 262.355C127.44 264.529 124.545 267.801 123.081 271.814C121.491 276.175 122.178 280.903 124.373 284.915C125.856 287.626 130.003 285.206 128.518 282.492L128.517 282.493Z" fill="#2E6669"/>
<path d="M126.112 237.786C126.354 233.445 130.098 231.008 134.211 231.151C136.745 231.239 139.225 232.19 141.432 233.384C142.68 234.059 143.897 234.821 145.021 235.689C145.835 236.318 147.169 237.189 147.642 238.108L147.314 236.897L147.336 236.803L147.953 235.744C146.863 236.747 145.246 237.465 143.983 238.241C142.645 239.062 141.293 239.863 139.905 240.596C138.571 241.3 137.209 241.946 135.781 242.438C134.685 242.815 133.918 243.005 133 243.034C131.239 243.09 129.662 242.757 128.167 241.807C126.765 240.916 126.079 239.585 126.112 237.786C126.168 234.696 121.368 234.697 121.312 237.787C121.227 242.475 124.44 246.031 128.814 247.303C133.818 248.758 138.55 246.804 142.923 244.421C145.527 243.002 148.191 241.468 150.609 239.746C152.044 238.724 152.629 236.972 151.636 235.393C150.916 234.247 149.663 233.302 148.625 232.463C144.104 228.809 138.113 225.737 132.131 226.449C126.085 227.169 121.654 231.67 121.312 237.787C121.14 240.873 125.94 240.863 126.112 237.786Z" fill="#2E6669"/>
<path d="M257.662 205.415C260.266 210.663 268.217 212.105 272.541 208.265C273.483 207.429 273.457 205.712 272.541 204.871C271.536 203.949 270.151 203.979 269.147 204.871C268.895 205.095 269.128 204.838 269.238 204.822C269.157 204.834 268.969 205.01 268.888 205.06C268.695 205.18 268.493 205.276 268.293 205.382C268.037 205.517 268.743 205.234 268.316 205.363C268.207 205.396 268.1 205.434 267.991 205.466C267.743 205.537 267.49 205.58 267.238 205.636C266.916 205.708 267.693 205.606 267.363 205.618C267.219 205.623 267.075 205.642 266.931 205.648C266.7 205.657 266.468 205.657 266.237 205.646C266.121 205.641 266.006 205.63 265.891 205.624C265.324 205.593 266.25 205.697 265.928 205.637C265.682 205.59 265.436 205.549 265.192 205.489C264.979 205.436 264.767 205.376 264.558 205.307C264.427 205.264 264.3 205.21 264.169 205.169C263.863 205.073 264.572 205.363 264.285 205.221C263.865 205.014 263.454 204.805 263.066 204.54C263.001 204.495 262.604 204.23 262.916 204.436C263.196 204.621 262.905 204.415 262.847 204.363C262.666 204.201 262.493 204.03 262.331 203.849C262.266 203.776 262.2 203.66 262.122 203.602C262.231 203.683 262.369 203.966 262.21 203.697C262.071 203.462 261.928 203.237 261.807 202.992C261.248 201.865 259.561 201.462 258.523 202.131C257.369 202.875 257.064 204.209 257.662 205.415Z" fill="#2E6669"/>
<path d="M231.458 238.927C236.084 231.352 235.85 219.401 226.814 215.1C222.437 213.017 217.35 212.211 212.535 212.24C208.031 212.268 203.175 212.834 199.209 215.113C195.594 217.19 192.571 220.609 191.441 224.67C190.467 228.172 190.847 232.279 192.09 235.665C194.853 243.194 201.621 247.854 209.491 248.641C213.522 249.044 217.984 248.772 221.78 247.278C225.941 245.64 229.075 242.668 231.458 238.927C233.122 236.314 228.97 233.903 227.313 236.504C225.725 238.998 223.709 241.102 221.028 242.407C218.611 243.583 215.698 243.929 212.97 243.96C206.911 244.029 200.997 242.052 197.784 236.585C196.385 234.205 195.709 231.519 195.73 228.784C195.754 225.652 197.023 223.03 199.329 220.921C201.913 218.557 205.198 217.65 208.607 217.27C212.603 216.825 216.679 216.987 220.582 217.987C224.159 218.904 227.905 220.6 229.127 224.434C230.423 228.5 229.494 232.933 227.313 236.504C225.699 239.147 229.848 241.562 231.458 238.927Z" fill="#2E6669"/>
<path d="M419.778 143.35L361.515 116.569L326.074 193.674L384.337 220.454L419.778 143.35Z" fill="white"/>
<path d="M377.544 196.689L381.675 189.434C381.785 189.241 381.915 189.06 382.064 188.895L389.385 199.232C389.181 199.318 388.967 199.381 388.749 199.42L375.746 201.781C375.637 201.801 375.524 201.789 375.421 201.747C375.319 201.705 375.23 201.635 375.166 201.544C375.102 201.454 375.065 201.347 375.059 201.236C375.054 201.125 375.08 201.015 375.135 200.919L377.544 196.689Z" fill="white"/>
<path d="M413.187 168.015C412.777 167.909 412.349 167.893 411.933 167.97C411.517 168.046 411.122 168.212 410.777 168.457L382.585 188.428C382.395 188.563 382.22 188.719 382.064 188.893L389.386 199.229C389.602 199.14 389.806 199.027 389.996 198.892L413.431 182.291L418.189 178.921C418.82 178.474 419.247 177.795 419.377 177.033C419.507 176.271 419.329 175.488 418.882 174.857L414.837 169.152C414.439 168.59 413.854 168.186 413.187 168.015Z" fill="#2E6669"/>
<path d="M376.025 199.357L377.981 195.92L381.403 200.756L375.745 201.784C375.635 201.803 375.523 201.792 375.42 201.75C375.317 201.708 375.229 201.637 375.165 201.547C375.1 201.456 375.063 201.349 375.058 201.239C375.052 201.128 375.079 201.018 375.134 200.921L376.025 199.357Z" fill="#2E6669"/>
<path d="M394.676 193.695L382.717 219.711L385.077 218.838L329.209 193.158C328.457 192.813 327.697 192.378 326.914 192.104C326.881 192.089 326.847 192.073 326.815 192.058L327.688 194.417L361.686 120.452C362.141 119.463 362.702 118.472 363.069 117.443C363.085 117.398 363.11 117.355 363.131 117.308L360.772 118.181L416.639 143.861C417.392 144.207 418.151 144.642 418.934 144.916C418.968 144.929 419.001 144.945 419.034 144.961L418.16 142.602L405.39 170.386C404.434 172.465 407.665 173.955 408.623 171.871L421.392 144.091C421.582 143.661 421.597 143.174 421.434 142.734C421.271 142.293 420.942 141.934 420.518 141.732L369.429 118.248C367.079 117.168 364.749 115.981 362.357 114.998C362.324 114.982 362.29 114.967 362.258 114.952C361.828 114.762 361.341 114.747 360.901 114.91C360.46 115.073 360.101 115.402 359.899 115.826L328.814 183.452C327.385 186.56 325.829 189.64 324.517 192.801C324.497 192.844 324.477 192.888 324.457 192.932C324.267 193.362 324.252 193.848 324.415 194.289C324.578 194.729 324.906 195.089 325.33 195.291L376.419 218.774C378.769 219.854 381.099 221.042 383.49 222.024C383.523 222.04 383.558 222.055 383.59 222.07C384.02 222.26 384.506 222.275 384.947 222.112C385.388 221.949 385.747 221.621 385.949 221.197L397.908 195.181C398.864 193.1 395.633 191.611 394.675 193.695L394.676 193.695Z" fill="#2E6669"/>
<path d="M364.511 142.482L397.107 157.465C399.186 158.421 400.676 155.19 398.593 154.232L397.689 153.817C395.609 152.861 394.12 156.092 396.203 157.05L397.107 157.465C399.186 158.421 400.676 155.19 398.593 154.232L365.997 139.25C363.917 138.294 362.428 141.525 364.511 142.482Z" fill="#2E6669"/>
<path d="M358.7 155.124L391.296 170.107C393.376 171.063 394.866 167.832 392.782 166.874L391.878 166.459C389.798 165.503 388.309 168.734 390.392 169.691L391.296 170.107C393.376 171.063 394.866 167.832 392.782 166.874L360.186 151.891C358.106 150.935 356.617 154.167 358.7 155.124Z" fill="#2E6669"/>
<path d="M352.891 167.762L369.696 175.486C371.777 176.442 373.266 173.211 371.182 172.253L370.279 171.838C368.199 170.882 366.709 174.113 368.793 175.071L369.696 175.486C371.777 176.442 373.266 173.211 371.182 172.253L354.377 164.529C352.297 163.573 350.808 166.804 352.891 167.762Z" fill="#2E6669"/>
<path d="M382.553 199.296L379.782 195.387C379.501 194.999 379.081 194.736 378.611 194.651C378.265 194.595 377.91 194.641 377.591 194.785C377.272 194.929 377.003 195.164 376.816 195.461C376.63 195.757 376.536 196.102 376.545 196.452C376.553 196.802 376.665 197.142 376.867 197.428L379.638 201.337C379.918 201.725 380.338 201.989 380.808 202.073C381.154 202.129 381.508 202.083 381.827 201.939C382.146 201.795 382.416 201.56 382.602 201.264C382.788 200.967 382.883 200.622 382.874 200.273C382.865 199.923 382.754 199.583 382.553 199.296Z" fill="#2E6669"/>
<path d="M414.452 183.752C415.946 182.694 417.448 181.645 418.936 180.575C419.502 180.203 419.985 179.716 420.353 179.147C420.721 178.577 420.966 177.937 421.073 177.267C421.18 176.597 421.146 175.913 420.973 175.257C420.8 174.601 420.493 173.989 420.07 173.459C418.867 171.764 417.676 170.058 416.464 168.37C416.111 167.83 415.653 167.366 415.116 167.007C414.58 166.647 413.977 166.399 413.344 166.278C412.71 166.156 412.058 166.162 411.427 166.297C410.796 166.432 410.198 166.693 409.669 167.063C407.325 168.63 405.059 170.328 402.757 171.961L390.767 180.455L382.224 186.508C381.294 187.123 380.514 187.941 379.943 188.899C379.001 190.521 378.084 192.161 377.156 193.791L373.963 199.399C373.496 200.007 373.264 200.764 373.31 201.529C373.725 204.606 377.602 203.249 379.534 202.897L387.119 201.52C388.517 201.265 389.901 201.116 391.1 200.297C391.974 199.699 392.829 199.072 393.693 198.46L413.965 184.099L414.451 183.751C416.323 182.425 414.279 179.512 412.41 180.837L402.198 188.071L389.464 197.092C389.313 197.199 389.165 197.317 389.008 197.415C388.235 197.901 387.118 197.913 386.227 198.075L380.808 199.059L378.099 199.55C377.196 199.788 376.272 199.941 375.34 200.006L376.257 200.16L376.311 200.185L376.833 200.928L376.83 200.965L376.676 201.883C376.936 201.271 377.252 200.685 377.621 200.132L379.699 196.484L381.923 192.579C382.352 191.823 382.738 190.996 383.23 190.283C383.835 189.64 384.539 189.098 385.315 188.677L390.8 184.791L405.514 174.368L410.616 170.754C411.494 170.131 412.512 169.114 413.425 170.239C414.158 171.142 414.784 172.156 415.453 173.103C416.096 174.01 416.823 174.897 417.397 175.849C417.96 176.78 417.373 177.323 416.631 177.845L413.208 180.269L412.407 180.836C410.539 182.163 412.582 185.077 414.452 183.752Z" fill="#2E6669"/>
<path d="M381.131 190.66L387.4 199.509C387.534 199.7 387.704 199.863 387.901 199.989C388.098 200.114 388.318 200.2 388.548 200.24C388.778 200.281 389.014 200.276 389.242 200.225C389.47 200.175 389.686 200.08 389.877 199.946C390.069 199.812 390.232 199.641 390.357 199.444C390.483 199.247 390.568 199.027 390.609 198.797C390.649 198.567 390.644 198.331 390.594 198.103C390.543 197.875 390.448 197.659 390.314 197.468L384.046 188.619C383.912 188.428 383.741 188.265 383.544 188.139C383.347 188.014 383.127 187.928 382.897 187.888C382.667 187.847 382.431 187.852 382.203 187.903C381.975 187.953 381.759 188.048 381.568 188.182C381.377 188.316 381.214 188.487 381.088 188.684C380.962 188.881 380.877 189.101 380.836 189.331C380.796 189.561 380.801 189.797 380.852 190.025C380.902 190.253 380.997 190.469 381.131 190.66Z" fill="#2E6669"/>
</svg>
