<svg width="418" height="282" viewBox="0 0 418 282" fill="none" xmlns="http://www.w3.org/2000/svg">
<g clip-path="url(#clip0_956_3870)">
<path d="M186.442 165.314C186.002 163.707 185.783 162.047 185.79 160.38C185.82 156.876 187.043 153.487 189.257 150.775C191.47 148.063 194.542 146.191 197.962 145.469C201.382 144.747 204.946 145.219 208.062 146.806C211.179 148.393 213.661 151 215.097 154.195C217.146 152.994 219.481 152.371 221.855 152.392C229.496 152.392 235.061 158.158 234.773 165.401C235.352 165.329 235.935 165.292 236.518 165.291C238.218 165.257 239.908 165.566 241.486 166.2C243.065 166.834 244.5 167.78 245.706 168.982C246.912 170.183 247.865 171.616 248.507 173.195C249.15 174.773 249.469 176.465 249.445 178.17C249.445 185.938 244.052 191.289 236.521 191.289H187.231C179.411 191.289 174.306 185.889 174.306 178.17C174.256 174.863 175.497 171.667 177.765 169.265C180.032 166.863 183.146 165.445 186.442 165.314Z" fill="white"/>
<path d="M103.431 131.097C103.921 130.671 104.496 130.356 105.118 130.174C105.741 129.991 106.395 129.945 107.036 130.039C107.666 130.129 108.267 130.358 108.797 130.711C109.326 131.064 109.77 131.531 110.096 132.078C110.473 132.834 110.688 133.661 110.726 134.505C111.001 137.808 110.365 141.123 108.887 144.088C108.191 145.586 107.181 146.916 105.924 147.987C104.905 148.816 103.688 149.366 102.393 149.583C102.393 149.583 102.172 149.617 101.787 149.678C101.498 150.765 101.172 151.68 101.012 152.167C100.023 154.859 94.6625 163.919 87.8103 167.752C87.7352 169.651 88.0029 171.547 88.6005 173.35C90.0512 176.956 97.8941 181.49 98.4344 181.727C98.4344 181.727 94.4865 198.112 73.3309 198.112C52.1754 198.112 48.3078 181.71 48.3078 181.71C48.8472 181.473 55.4581 177.57 56.9192 173.965C57.7094 172.01 57.7236 169.471 57.7046 167.177C55.1639 165.557 52.899 163.539 50.9963 161.199C48.2673 157.843 46.2766 153.947 45.1548 149.766L44.0022 149.588C42.707 149.371 41.4902 148.821 40.4706 147.991C39.2143 146.921 38.2036 145.591 37.5077 144.093C36.0304 141.128 35.3943 137.813 35.669 134.51C35.7076 133.666 35.9223 132.839 36.2993 132.083C36.6251 131.536 37.069 131.069 37.5984 130.716C38.1278 130.363 38.7292 130.134 39.3586 130.044C40.0001 129.95 40.6543 129.996 41.2766 130.178C41.8988 130.361 42.4744 130.676 42.9641 131.102C42.9641 131.102 40.1535 103.374 72.7726 103.374C105.392 103.374 103.431 131.097 103.431 131.097Z" fill="white"/>
<path d="M25.8767 271.197C21.5237 269.626 13.5435 266.832 10.469 265.061C5.87466 262.413 2.28344 257.653 1.96927 252.347C1.91086 247.969 2.40787 243.601 3.44834 239.349C5.55197 231.599 10.3819 216.155 12.3436 209.873C15.5724 199.515 18.2173 194.173 22.1662 191.057C27.4428 186.89 45.5626 180.596 54.5317 176.967L70.3633 182.337C72.1708 182.337 73.5855 182.329 75.4611 182.326L91.8501 176.967C100.819 180.596 119.395 186.89 124.676 191.057C128.625 194.173 131.27 199.515 134.499 209.873C136.457 216.155 141.809 231.861 144.042 239.742C144.977 243.038 146.117 249.334 145.522 252.74C144.61 257.974 140.791 262.062 136.196 264.71C133.121 266.482 125.313 269.624 120.96 271.195L25.8767 271.197Z" fill="white"/>
<path d="M61.0592 192.848C57.45 187.999 53.574 183.175 50.7909 177.106C52.4151 174.917 54.183 172.839 56.0826 170.886C59.2054 173.837 64.5643 177.211 70.3841 180.607C70.8376 180.803 71.2691 181.048 71.6711 181.336C71.8291 181.632 71.5206 181.892 71.3758 182.124C71.1487 182.489 70.0993 183.492 68.1281 185.52C65.6157 188.104 63.2348 190.529 61.0592 192.848Z" fill="white"/>
<path d="M85.1029 192.848C88.7131 187.999 92.5891 183.175 95.3722 177.106C93.748 174.917 91.9802 172.839 90.0805 170.886C86.9577 173.837 81.5988 177.211 75.779 180.607C75.3255 180.803 74.894 181.048 74.492 181.336C74.334 181.632 74.6416 181.892 74.7873 182.124C75.0144 182.489 76.0629 183.492 78.0341 185.52C80.5474 188.104 82.9283 190.529 85.1029 192.848Z" fill="white"/>
<path d="M73.1057 207.631C52.4962 207.78 31.986 207.9 24.7042 207.925C24.429 207.926 24.1566 207.981 23.9026 208.087C23.6486 208.193 23.418 208.349 23.2241 208.545C23.0302 208.741 22.8767 208.973 22.7725 209.228C22.6682 209.484 22.6153 209.757 22.6167 210.033C22.6583 221.893 23.2299 262.95 23.6642 278.041C23.6808 278.593 23.9139 279.117 24.3129 279.499C24.712 279.88 25.2449 280.089 25.7962 280.08C32.3778 279.978 52.7659 280.041 73.1057 280.11C93.4512 280.041 113.834 279.978 120.414 280.08C120.966 280.089 121.5 279.881 121.899 279.499C122.298 279.116 122.531 278.592 122.547 278.039C122.982 262.953 123.552 221.894 123.595 210.031C123.596 209.755 123.543 209.482 123.439 209.227C123.334 208.971 123.181 208.739 122.987 208.543C122.793 208.347 122.563 208.192 122.309 208.085C122.055 207.979 121.782 207.924 121.507 207.923C114.225 207.9 93.7152 207.783 73.1057 207.631Z" fill="white"/>
<path d="M51.2348 54.2131V55.2634C62.4475 55.2634 83.9399 55.2634 95.0438 55.2634C95.0438 54.5347 95.0438 54.1191 95.0438 54.1191C95.0438 48.4578 94.8215 8.12896 94.8215 1.89453H51.1742C51.1742 2.05013 51.2348 45.6949 51.2348 54.2131Z" fill="white"/>
<path d="M372.507 189.471C369.005 187.574 364.495 185.246 363.984 183.98C363.307 182.311 363.35 180.09 363.362 178.157C370.5 175.088 376.242 165.455 377.245 162.73C377.395 162.27 377.704 161.402 377.986 160.373L378.549 160.287C379.773 160.082 380.924 159.562 381.888 158.777C383.075 157.765 384.031 156.508 384.689 155.092C386.085 152.29 386.686 149.157 386.427 146.035C386.391 145.237 386.188 144.456 385.831 143.742C385.524 143.224 385.104 142.783 384.604 142.449C384.103 142.115 383.535 141.898 382.939 141.814C382.34 141.725 381.729 141.766 381.148 141.936C380.566 142.105 380.028 142.398 379.57 142.795C374.005 141.716 364.099 127.731 362.243 121.556C358.759 125.866 351.138 129.98 344.25 132.409C342.837 132.907 338.302 134.22 335.724 134.97C330.721 136.56 326.107 139.187 322.183 142.681C321.733 142.323 321.215 142.061 320.66 141.912C320.106 141.763 319.526 141.73 318.958 141.814C318.362 141.898 317.793 142.116 317.293 142.45C316.792 142.785 316.373 143.227 316.065 143.746C315.709 144.46 315.505 145.241 315.469 146.039C315.21 149.161 315.811 152.294 317.207 155.096C317.866 156.512 318.821 157.769 320.007 158.781C321.245 159.805 322.801 160.363 324.406 160.358C325.464 164.348 327.357 168.068 329.959 171.269C332.228 174.112 335.093 176.42 338.35 178.031C338.359 179.995 338.423 182.274 337.735 183.985C337.235 185.219 331.99 188.141 329.046 189.688C329.046 189.688 331.148 205.641 350.986 205.641C370.823 205.641 372.507 189.471 372.507 189.471Z" fill="white"/>
<path d="M303.676 267.702C296.079 263.79 288.897 258.547 287.197 253.25C285.823 248.639 286.122 243.688 288.042 239.277C292.017 229.591 295.223 218.646 299.777 208.553C301.192 205.435 303.023 202.524 305.218 199.899C308.171 197.064 311.538 194.697 315.202 192.878C318.982 191.327 327.48 189.205 328.149 189.635C333.988 193.051 342.588 196.268 351.225 196.234C359.862 196.268 368.13 192.734 373.97 189.317C374.638 188.889 383.468 191.327 387.248 192.878C390.912 194.697 394.279 197.064 397.232 199.899C399.428 202.524 401.258 205.435 402.674 208.553C407.225 218.646 410.433 229.591 414.408 239.277C416.328 243.688 416.628 248.639 415.253 253.25C413.55 258.547 406.371 263.79 398.774 267.702" fill="white"/>
<path d="M350.388 207.631C329.778 207.78 309.269 207.9 301.986 207.925C301.711 207.926 301.439 207.981 301.185 208.087C300.931 208.194 300.7 208.349 300.506 208.545C300.312 208.741 300.159 208.973 300.055 209.228C299.95 209.484 299.897 209.757 299.899 210.033C299.941 221.893 300.512 262.95 300.946 278.041C300.962 278.594 301.195 279.118 301.595 279.5C301.994 279.882 302.527 280.091 303.079 280.082C309.661 279.98 330.049 280.043 350.388 280.112C370.733 280.043 391.116 279.98 397.697 280.082C398.249 280.091 398.782 279.882 399.181 279.5C399.58 279.118 399.813 278.594 399.829 278.041C400.264 262.955 400.835 221.896 400.877 210.033C400.878 209.757 400.825 209.484 400.721 209.229C400.617 208.973 400.463 208.741 400.27 208.545C400.076 208.349 399.845 208.194 399.591 208.087C399.338 207.981 399.065 207.926 398.79 207.925C391.507 207.9 370.997 207.783 350.388 207.631Z" fill="white"/>
<path d="M350.387 2.16309C342.601 8.70966 326.501 22.3057 319.957 27.8095C321.27 27.8095 327.055 27.7944 328.176 27.8171L328.393 27.8219C328.393 29.0553 328.393 30.2564 328.393 30.2564C328.393 35.5013 328.393 49.4901 328.393 55.2663H372.372C372.372 49.4901 372.372 35.5013 372.372 30.2564V27.8076C371.732 27.8162 379.496 27.7896 380.816 27.8171C374.279 22.3142 358.167 8.7163 350.378 2.16309" fill="white"/>
<path d="M372.379 40.1948V38.3096H372.295C368.475 38.3191 361.81 38.3665 360.372 38.3646C360.372 44.378 360.372 51.5346 360.372 55.2652H372.377C372.377 51.9075 372.378 45.7717 372.379 40.1948Z" fill="white"/>
<path d="M108.694 109.5C108.52 108.889 108.326 108.281 108.111 107.678C106.108 102.061 102.073 95.1428 96.4595 92.7557L91.5993 89.0554C89.5714 86.785 85.1994 84.433 81.6631 83.4576C78.1012 82.4225 74.3864 82.0186 70.686 82.2641C61.5466 82.9282 53.7774 86.3571 47.7287 93.306L44.1564 97.9958C38.0329 104.647 34.6177 114.382 37.8635 128.991L38.1748 130.394C38.5472 130.217 38.9436 130.097 39.3511 130.036C39.9926 129.942 40.6468 129.988 41.269 130.17C41.8912 130.353 42.4668 130.668 42.9565 131.094L47.7325 127.532C50.5657 125.993 51.6975 124.087 53.45 120.53C54.7162 117.959 55.4694 114.954 57.6365 113.13C59.3576 111.868 61.4146 111.148 63.5452 111.063C67.1827 110.683 70.8542 110.784 74.4655 111.363C78.2687 112.01 82.3728 110.377 86.6255 111.43C91.4337 112.468 94.3852 115.41 96.8087 119.188C98.2714 121.491 99.3376 124.025 99.9627 126.683C100.191 127.653 100.331 128.6 100.479 129.6C100.532 129.897 100.642 130.181 100.805 130.435C100.967 130.69 101.178 130.909 101.426 131.082C101.737 131.232 102.078 131.311 102.424 131.314C102.769 131.317 103.111 131.243 103.425 131.098C103.915 130.672 104.49 130.357 105.113 130.174C105.735 129.991 106.389 129.946 107.031 130.04C107.327 130.084 107.618 130.159 107.899 130.264C110.287 123.589 110.564 116.338 108.694 109.5Z" fill="#2E6669"/>
<path d="M68.2019 191.209C68.3753 191.806 68.4754 192.423 68.5 193.044C68.5 193.303 67.5802 200.108 66.6074 207.677L73.1038 207.631L79.868 207.678C78.7324 200.088 77.7861 193.679 77.7861 193.244C77.8618 192.13 78.1033 191.034 78.5024 189.991C78.9652 188.568 79.2358 187.335 79.5434 186.111C78.9851 185.53 78.4305 184.946 77.9006 184.362C77.0962 183.477 76.4433 182.815 75.9503 182.324C73.9015 182.324 72.4357 182.334 70.58 182.335C70.0889 182.824 69.4444 183.484 68.6401 184.362C68.1348 184.919 67.6067 185.477 67.073 186.032C67.3995 187.727 67.6332 188.82 67.9975 190.381C68.0628 190.66 68.1338 190.93 68.2019 191.209Z" fill="#2E6669"/>
<path d="M94.5726 13.0449C85.5733 13.0592 59.7146 13.1246 51.2509 13.1398C51.2509 15.9861 51.2594 19.2016 51.2641 22.5564C62.6311 22.5308 92.944 22.4729 94.9634 22.4729C94.9473 19.1399 94.9322 15.9264 94.9199 13.0449H94.5726Z" fill="#2E6669"/>
<path d="M53.6667 42.4455L51.229 42.4512C51.229 39.5147 51.2215 36.3097 51.2148 33.0288C54.402 33.0288 92.2541 32.9463 94.9586 32.9463C94.9709 36.267 94.9861 39.4739 94.9993 42.3677C93.4105 42.3677 68.2776 42.4104 53.6667 42.4455Z" fill="#2E6669"/>
<path d="M311.824 191.168C312.711 191.938 313.694 192.589 314.749 193.105C314.908 193.022 315.059 192.945 315.2 192.874C318.98 191.323 327.479 189.202 328.147 189.631C328.468 189.821 328.801 190.011 329.138 190.193C329.073 189.873 329.044 189.685 329.044 189.685C331.988 188.139 337.233 185.221 337.733 183.983C338.421 182.276 338.357 179.992 338.348 178.029C335.091 176.418 332.226 174.11 329.957 171.267C327.355 168.066 325.463 164.346 324.404 160.356C322.799 160.361 321.243 159.803 320.006 158.779C318.819 157.767 317.864 156.51 317.205 155.094C315.809 152.292 315.208 149.159 315.467 146.037C315.504 145.239 315.707 144.458 316.063 143.744C316.371 143.226 316.79 142.784 317.291 142.45C317.791 142.117 318.36 141.9 318.955 141.816C319.523 141.731 320.103 141.765 320.657 141.914C321.212 142.063 321.73 142.325 322.18 142.683C326.104 139.189 330.718 136.562 335.721 134.972C338.3 134.222 342.834 132.909 344.247 132.411C351.135 129.982 358.756 125.864 362.24 121.557C364.096 127.733 374.003 141.718 379.567 142.797C380.025 142.4 380.563 142.107 381.145 141.938C381.726 141.768 382.338 141.727 382.937 141.816C383.532 141.9 384.1 142.117 384.601 142.451C385.101 142.784 385.521 143.226 385.829 143.744C386.185 144.458 386.388 145.239 386.424 146.037C386.683 149.158 386.082 152.292 384.686 155.094C384.028 156.51 383.072 157.767 381.885 158.779C380.921 159.564 379.771 160.084 378.546 160.289L377.983 160.375C377.699 161.405 377.392 162.272 377.242 162.732C376.24 165.457 370.497 175.089 363.36 178.159C363.347 180.088 363.305 182.313 363.981 183.981C364.492 185.248 368.997 187.575 372.504 189.473C372.504 189.473 372.475 189.74 372.386 190.2C372.928 189.905 373.458 189.608 373.965 189.312C374.633 188.883 383.464 191.321 387.243 192.872L387.544 193.026C389.229 192.059 390.639 190.677 391.643 189.011C392.647 187.345 393.211 185.45 393.282 183.505C393.257 180.078 392.674 176.678 391.555 173.44C390.135 169.016 387.391 160.029 387.196 143.962C387.438 139.549 387.374 135.125 387.007 130.721C386.389 122.224 382.509 112.738 376.925 107.464C374.511 105.187 373.81 104.121 371.182 102.72L364.875 99.708C360.995 98.244 357.385 97.54 350.573 97.54C341.19 97.7141 332.164 101.171 325.055 107.313C317.737 114.17 313.096 126.695 313.681 143.967C313.688 156.859 312.707 166.159 311.332 171.441C311.142 172.189 310.953 173.043 310.772 173.958C309.769 177.061 309.229 180.296 309.169 183.558C309.114 186.35 309.595 189.489 311.824 191.168Z" fill="#2E6669"/>
<path d="M142.187 171.481C149.127 171.481 156.065 171.355 163.005 171.353C165.441 171.353 165.445 167.558 163.005 167.558C156.065 167.558 149.127 167.683 142.187 167.686C139.751 167.686 139.747 171.481 142.187 171.481Z" fill="#2E6669"/>
<path d="M260.742 171.481C267.683 171.481 274.622 171.355 281.561 171.353C283.997 171.353 284.002 167.558 281.561 167.558C274.622 167.558 267.683 167.683 260.742 167.686C258.308 167.686 258.303 171.481 260.742 171.481Z" fill="#2E6669"/>
<path d="M188.268 164.809C186.84 159.453 188.111 153.602 192.486 149.991C194.598 148.34 197.138 147.331 199.804 147.083C202.471 146.835 205.153 147.359 207.532 148.593C210.193 150.043 212.285 152.356 213.464 155.153C213.721 155.583 214.136 155.896 214.62 156.023C215.104 156.15 215.619 156.082 216.053 155.833C217.926 154.772 220.051 154.239 222.201 154.292C224.352 154.345 226.448 154.982 228.266 156.135C229.769 157.147 230.985 158.533 231.794 160.157C232.603 161.781 232.978 163.588 232.882 165.401C232.885 165.903 233.085 166.384 233.439 166.74C233.794 167.095 234.274 167.296 234.775 167.298C239.647 166.766 244.323 168.811 246.502 173.364C247.426 175.373 247.77 177.601 247.496 179.796C247.221 181.991 246.339 184.065 244.95 185.783C242.369 188.719 238.893 189.389 235.167 189.389H191.207C188.285 189.389 185.23 189.649 182.466 188.516C177.808 186.605 175.633 181.4 176.291 176.581C176.641 174.083 177.844 171.784 179.695 170.075C181.546 168.366 183.931 167.353 186.443 167.208C188.86 167.048 188.878 163.252 186.443 163.413C183.648 163.541 180.947 164.465 178.656 166.075C176.366 167.686 174.58 169.918 173.508 172.509C172.523 175.002 172.183 177.705 172.522 180.365C172.861 183.025 173.866 185.556 175.445 187.721C178.504 191.714 183.149 193.184 188.017 193.184H234.896C239.355 193.184 243.602 192.388 246.94 189.179C248.839 187.232 250.195 184.819 250.872 182.182C251.55 179.544 251.525 176.775 250.801 174.15C250.083 171.525 248.648 169.153 246.656 167.303C244.664 165.453 242.196 164.198 239.53 163.681C237.962 163.39 236.359 163.329 234.773 163.5L236.666 165.398C236.754 162.923 236.203 160.468 235.066 158.27C233.929 156.073 232.244 154.207 230.175 152.855C227.775 151.367 225.02 150.554 222.199 150.501C219.378 150.448 216.595 151.157 214.141 152.553L216.731 153.234C215.313 150.197 213.048 147.637 210.208 145.866C207.368 144.094 204.077 143.187 200.733 143.253C197.389 143.32 194.136 144.358 191.369 146.242C188.602 148.126 186.44 150.774 185.144 153.865C183.684 157.688 183.499 161.883 184.617 165.82C185.245 168.175 188.898 167.175 188.268 164.809Z" fill="#2E6669"/>
<path d="M90.124 171.923C89.9804 171.39 89.8729 170.848 89.8023 170.3L89.8704 170.805C89.7613 169.901 89.7041 168.993 89.6991 168.083C89.6917 167.581 89.4934 167.101 89.1446 166.741C88.7897 166.385 88.3084 166.186 87.8065 166.186C87.3047 166.186 86.8234 166.385 86.4684 166.741C86.1183 167.1 85.9197 167.581 85.9139 168.083C85.8958 169.717 86.0837 171.346 86.4732 172.933C86.6108 173.407 86.9216 173.812 87.3438 174.067C87.6688 174.257 88.0431 174.347 88.4189 174.323C88.7947 174.299 89.1549 174.163 89.4535 173.933C89.752 173.703 89.9752 173.389 90.0947 173.031C90.2141 172.673 90.2244 172.287 90.124 171.923Z" fill="#2E6669"/>
<path d="M55.812 168.083C55.8258 169.224 55.7645 170.365 55.6284 171.498L55.6965 170.994C55.6694 171.188 55.6379 171.382 55.6019 171.576C55.482 172.071 55.5495 172.592 55.7912 173.039C56.0445 173.474 56.4597 173.789 56.9452 173.917C57.4307 174.045 57.947 173.974 58.3803 173.72C58.593 173.598 58.7795 173.435 58.929 173.24C59.0784 173.046 59.1878 172.823 59.2509 172.586C59.4946 171.099 59.6089 169.593 59.5925 168.087C59.5861 167.585 59.3876 167.104 59.0379 166.745C58.7733 166.48 58.4361 166.299 58.069 166.226C57.7019 166.153 57.3214 166.19 56.9757 166.334C56.6299 166.477 56.3343 166.721 56.1264 167.033C55.9184 167.345 55.8073 167.711 55.8073 168.087L55.812 168.083Z" fill="#2E6669"/>
<path d="M86.123 113.26C90.4911 114.246 93.5127 117.233 95.7109 121.026C97.0617 123.38 97.9815 125.956 98.4268 128.635C98.6615 130.005 98.8101 131.282 99.8945 132.284C100.447 132.747 101.114 133.051 101.824 133.164C102.535 133.278 103.263 133.195 103.931 132.927C104.409 132.783 104.813 132.461 105.06 132.026C105.307 131.591 105.377 131.078 105.256 130.593C105.119 130.11 104.799 129.7 104.363 129.451C103.928 129.203 103.413 129.136 102.928 129.265C102.653 129.359 102.467 129.454 102.377 129.359C102.133 129.105 102.162 128.12 102.11 127.803C101.889 126.451 101.555 125.121 101.112 123.825C100.289 121.412 99.1246 119.13 97.6546 117.049C95.2083 113.325 91.4504 110.663 87.1318 109.595C84.7594 109.059 83.7468 112.718 86.1258 113.255L86.123 113.26Z" fill="#2E6669"/>
<path d="M74.9699 109.533C71.7841 108.979 68.5439 108.808 65.3176 109.022C62.1494 109.205 58.7881 109.634 56.2937 111.787C53.9364 113.822 53.1349 116.88 51.812 119.575C50.5165 122.213 48.7649 124.746 46.1039 126.122C43.9387 127.243 45.8512 130.519 48.0145 129.399C50.5491 127.967 52.645 125.867 54.0755 123.327C55.5565 120.887 56.2369 117.988 57.8768 115.655C59.4799 113.372 62.3708 113.014 64.9485 112.841C67.9552 112.588 70.9814 112.706 73.9592 113.194C76.3401 113.629 77.3659 109.968 74.9652 109.534L74.9699 109.533Z" fill="#2E6669"/>
<path d="M95.5065 94.3944C100.92 96.7844 104.301 102.679 106.235 108.034C108.566 114.684 108.652 121.918 106.481 128.623C105.731 130.953 109.385 131.95 110.131 129.631C112.532 122.166 112.405 114.114 109.771 106.728C107.5 100.617 103.627 93.8612 97.4133 91.1173C96.9764 90.8789 96.4651 90.8165 95.9839 90.9429C95.5026 91.0693 95.0875 91.375 94.8233 91.7976C94.5735 92.2332 94.5048 92.7498 94.6319 93.2357C94.7591 93.7217 95.0719 94.1379 95.5028 94.3944H95.5065Z" fill="#2E6669"/>
<path d="M42.8193 96.6574C39.3449 100.427 36.8862 105.022 35.6756 110.009C34.1445 116.427 34.6461 123.102 36.0419 129.499C36.5623 131.884 40.2122 130.875 39.6918 128.49C38.4445 122.776 37.9572 116.757 39.3255 111.017C40.3556 106.66 42.4795 102.639 45.4954 99.3368C47.1373 97.5341 44.4677 94.8471 42.8193 96.6536V96.6574Z" fill="#2E6669"/>
<path d="M92.9393 87.7151C88.274 82.6667 80.4481 80.5281 73.8145 80.308C67.158 80.0926 60.5709 81.7195 54.7758 85.0101C51.6252 86.8609 48.7939 89.2104 46.3916 91.9675C44.7828 93.793 47.4524 96.4866 49.0677 94.6507C53.9266 89.1201 60.5951 85.5103 67.8726 84.4712C72.1582 83.8125 76.5335 84.0512 80.7225 85.1724C84.1538 86.0813 87.8198 87.7521 90.2622 90.3983C91.922 92.1943 94.5934 89.5055 92.9393 87.7151Z" fill="#2E6669"/>
<path d="M83.0929 108.132C82.5649 106.694 81.7441 105.381 80.6827 104.279C79.6212 103.176 78.3425 102.307 76.9278 101.727C73.7855 100.31 70.2921 99.8676 66.897 100.457C66.4144 100.593 66.0049 100.915 65.7569 101.352C65.509 101.789 65.4426 102.306 65.5721 102.792C65.715 103.271 66.0368 103.677 66.4704 103.924C66.904 104.172 67.4161 104.242 67.9 104.12C70.3062 103.73 72.7734 104.038 75.0106 105.008C76.0519 105.449 77.0117 106.062 77.8495 106.823C78.0539 107.013 78.2507 107.216 78.4371 107.426C78.5645 107.552 78.6766 107.693 78.7712 107.846C78.9358 108.093 79.0874 108.349 79.2254 108.613C79.2415 108.644 79.3853 108.961 79.3314 108.829C79.2775 108.697 79.4336 109.153 79.4317 109.145C79.4978 109.385 79.6105 109.61 79.7633 109.807C79.9161 110.003 80.106 110.168 80.3222 110.291C80.5384 110.414 80.7767 110.493 81.0234 110.524C81.2701 110.554 81.5204 110.536 81.7601 110.47C81.9997 110.404 82.224 110.291 82.4201 110.137C82.6162 109.984 82.7803 109.794 82.9031 109.577C83.0258 109.36 83.1047 109.121 83.1353 108.874C83.166 108.627 83.1477 108.376 83.0816 108.135L83.0929 108.132Z" fill="#2E6669"/>
<path d="M100.451 146.218C100.335 147.799 99.9999 149.357 99.4565 150.846C99.3675 151.117 99.2672 151.387 99.1849 151.661C99.1499 151.776 98.9956 152.119 99.201 151.643C99.0618 151.966 98.9104 152.283 98.7524 152.597C97.7899 154.474 96.6762 156.27 95.4224 157.965C92.504 161.977 88.5456 166.224 83.5491 167.4C81.1777 167.957 82.1817 171.617 84.555 171.059C90.4637 169.669 95.0514 164.822 98.5272 160.104C101.532 156.024 104.026 151.403 104.236 146.218C104.331 143.775 100.546 143.78 100.451 146.218Z" fill="#2E6669"/>
<path d="M42.3518 145.922C43.3086 152.141 45.921 157.986 49.9137 162.841C54.085 167.728 59.566 171.263 66.0236 171.958C66.5246 171.955 67.0043 171.754 67.3586 171.399C67.7129 171.044 67.9132 170.563 67.9162 170.061C67.9051 169.561 67.7021 169.085 67.3496 168.731C66.997 168.378 66.5221 168.174 66.0236 168.163C60.4622 167.564 55.8139 164.039 52.3277 159.846C48.8028 155.606 46.9338 150.288 46.0027 144.913C45.866 144.43 45.5453 144.019 45.1096 143.771C44.6739 143.522 44.1582 143.456 43.6738 143.585C43.1955 143.728 42.7907 144.05 42.5439 144.485C42.297 144.92 42.2272 145.434 42.349 145.919L42.3518 145.922Z" fill="#2E6669"/>
<path d="M104.767 132.439C105.033 132.226 105.34 132.069 105.668 131.977C105.996 131.886 106.339 131.861 106.677 131.906C107.015 131.95 107.34 132.062 107.634 132.235C107.927 132.408 108.183 132.639 108.386 132.913C108.781 133.734 108.954 134.645 108.889 135.555C108.925 136.616 108.852 137.678 108.671 138.723C107.985 142.492 106.061 146.997 101.887 147.747C101.404 147.884 100.995 148.206 100.748 148.642C100.5 149.079 100.433 149.596 100.562 150.081C100.704 150.561 101.025 150.968 101.459 151.215C101.893 151.463 102.406 151.532 102.89 151.41C109.157 150.283 112.144 143.183 112.616 137.488C112.856 134.583 112.638 131.241 110.13 129.355C108.944 128.494 107.5 128.065 106.038 128.138C104.575 128.211 103.181 128.781 102.086 129.756C101.735 130.113 101.538 130.595 101.538 131.097C101.538 131.599 101.735 132.081 102.086 132.439C102.446 132.785 102.926 132.978 103.425 132.978C103.924 132.978 104.403 132.785 104.763 132.439H104.767Z" fill="#2E6669"/>
<path d="M44.2955 129.756C43.2002 128.781 41.8063 128.211 40.3439 128.138C38.8815 128.065 37.438 128.494 36.2519 129.355C33.7423 131.237 33.5265 134.587 33.7669 137.488C34.24 143.181 37.2256 150.283 43.493 151.41C43.9769 151.529 44.4882 151.459 44.9214 151.211C45.3546 150.964 45.6766 150.56 45.8209 150.081C45.9499 149.596 45.8833 149.079 45.6354 148.642C45.3875 148.205 44.9783 147.884 44.4961 147.747C40.3219 146.997 38.3981 142.492 37.712 138.723C37.5404 137.735 37.4663 136.733 37.4906 135.73C37.4256 134.81 37.5739 133.887 37.924 133.034C38.1157 132.737 38.3671 132.485 38.6622 132.292C38.9572 132.099 39.2893 131.97 39.637 131.914C39.9847 131.857 40.3404 131.875 40.681 131.965C41.0216 132.055 41.3396 132.215 41.6146 132.436C41.976 132.779 42.4551 132.971 42.9531 132.971C43.4512 132.971 43.9302 132.779 44.2917 132.436C44.6428 132.078 44.8396 131.596 44.8396 131.094C44.8396 130.592 44.6428 130.111 44.2917 129.753L44.2955 129.756Z" fill="#2E6669"/>
<path d="M94.372 179.989C102.504 183.12 110.833 185.916 118.673 189.746C121.537 191.145 123.722 192.345 125.685 194.697C127.988 197.456 129.45 201.082 130.687 204.46C132.075 208.248 133.215 212.126 134.473 215.959C135.802 220.019 137.145 224.074 138.461 228.139C139.677 231.89 140.89 235.646 141.989 239.435C143.263 243.334 143.864 247.422 143.767 251.523C143.465 256.348 139.767 260.305 135.855 262.719C131.719 265.267 126.926 266.943 122.404 268.659C121.927 268.804 121.524 269.127 121.278 269.561C121.031 269.996 120.96 270.508 121.079 270.993C121.216 271.477 121.536 271.888 121.972 272.136C122.408 272.385 122.924 272.451 123.408 272.322C127.903 270.726 132.292 268.846 136.55 266.695C140.813 264.548 144.238 261.033 146.278 256.708C148.201 252.24 147.602 247.41 146.696 242.761C145.831 238.877 144.745 235.046 143.443 231.287C140.892 223.265 138.26 215.266 135.649 207.263C133.254 199.924 130.412 191.987 123.382 187.945C119.111 185.638 114.68 183.643 110.123 181.975C105.231 180.036 100.289 178.224 95.3788 176.335C94.8945 176.206 94.3785 176.272 93.9427 176.521C93.5069 176.769 93.1862 177.18 93.05 177.664C92.9282 178.149 92.998 178.663 93.2448 179.098C93.4917 179.533 93.8965 179.856 94.3748 179.999L94.372 179.989Z" fill="#2E6669"/>
<path d="M24.1506 268.57C16.4543 265.8 6.15381 263.189 4.08897 253.938C3.75912 252.002 3.71735 250.028 3.96501 248.08C4.12755 245.964 4.4167 243.859 4.83088 241.777C5.55953 238.157 6.75471 234.602 7.80889 231.068C10.08 223.45 12.3672 215.823 14.838 208.266C16.0213 204.182 17.6953 200.258 19.8232 196.58C21.2382 194.26 23.2384 192.355 25.6221 191.057C29.5388 188.941 33.5931 187.092 37.7575 185.522C42.4247 183.644 47.1382 181.883 51.829 180.065C52.3057 179.92 52.7085 179.596 52.9549 179.162C53.2013 178.728 53.2725 178.216 53.1538 177.73C53.0179 177.246 52.6972 176.836 52.2613 176.587C51.8254 176.338 51.3094 176.272 50.825 176.402C42.2808 179.716 33.4868 182.697 25.3287 186.91C22.5154 188.234 20.0276 190.163 18.0422 192.561C15.6419 195.881 13.7728 199.556 12.5026 203.454C9.51886 211.578 7.18055 220.006 4.68798 228.297C3.56094 232.047 2.33642 235.802 1.4327 239.614C0.312511 243.882 -0.136706 248.299 0.101254 252.707C0.597117 258.337 4.08424 263.231 8.76277 266.235C10.8011 267.441 12.9487 268.45 15.1768 269.25C17.8104 270.302 20.4761 271.27 23.1437 272.23C25.4404 273.056 26.4293 269.39 24.1506 268.57Z" fill="#2E6669"/>
<path d="M68.925 195.226C71.7904 195.226 74.6558 195.163 77.5212 195.161C78.0231 195.161 78.5045 194.961 78.8594 194.606C79.2144 194.25 79.4138 193.767 79.4138 193.264C79.4138 192.761 79.2144 192.278 78.8594 191.922C78.5045 191.566 78.0231 191.366 77.5212 191.366C74.6558 191.366 71.7904 191.43 68.925 191.431C68.423 191.431 67.9416 191.631 67.5867 191.987C67.2317 192.342 67.0323 192.825 67.0323 193.328C67.0323 193.832 67.2317 194.314 67.5867 194.67C67.9416 195.026 68.423 195.226 68.925 195.226Z" fill="#2E6669"/>
<path d="M65.1624 187.354C65.3612 188.366 65.5753 189.374 65.805 190.378C66.1118 191.311 66.3118 192.275 66.4011 193.254C66.351 194 66.259 194.743 66.1258 195.479C65.5958 199.545 65.0564 203.609 64.5369 207.675C64.5394 208.178 64.7396 208.659 65.094 209.014C65.4484 209.369 65.9283 209.57 66.4295 209.573C66.9277 209.561 67.4022 209.357 67.7545 209.004C68.1069 208.65 68.3101 208.175 68.3221 207.675C68.8511 203.538 69.4 199.405 69.9384 195.27C70.0939 194.484 70.1713 193.685 70.1693 192.884C69.8459 190.679 69.3931 188.496 68.8133 186.345C68.3401 183.951 64.694 184.964 65.1624 187.354Z" fill="#2E6669"/>
<path d="M74.9368 180.427C73.7 180.435 72.4641 180.436 71.2273 180.436C70.7266 180.442 70.2475 180.641 69.8892 180.992C69.5344 181.348 69.3351 181.831 69.3351 182.334C69.3351 182.837 69.5344 183.32 69.8892 183.675C70.2482 184.025 70.7269 184.224 71.2273 184.231C72.4641 184.231 73.7 184.231 74.9368 184.222C75.4374 184.216 75.9165 184.016 76.2749 183.666C76.6297 183.31 76.829 182.827 76.829 182.324C76.829 181.821 76.6297 181.339 76.2749 180.983C75.9163 180.632 75.4374 180.433 74.9368 180.427Z" fill="#2E6669"/>
<path d="M81.8912 207.171C81.3234 203.361 80.7481 199.551 80.2087 195.736C80.1708 195.467 80.1333 195.197 80.0961 194.928C80.0752 194.781 80.0554 194.634 80.0355 194.487C79.9939 194.184 80.0752 194.796 80.0412 194.528C80.0024 194.229 79.9465 193.925 79.9323 193.623C79.9369 192.94 80.0585 192.264 80.2919 191.622C80.6203 190.525 80.9676 189.44 81.2477 188.332C81.8439 185.96 78.194 184.952 77.5969 187.322C77.0925 189.328 76.0705 191.446 76.1405 193.547C76.2117 194.479 76.3317 195.406 76.5001 196.325C77.0537 200.281 77.6518 204.231 78.2404 208.185C78.3763 208.669 78.697 209.08 79.1329 209.328C79.5688 209.577 80.0848 209.644 80.5692 209.513C81.0468 209.369 81.4507 209.046 81.6973 208.612C81.9439 208.177 82.0144 207.664 81.894 207.178L81.8912 207.171Z" fill="#2E6669"/>
<path d="M62.6954 191.891C58.9385 186.852 55.088 181.884 52.4261 176.147L52.1308 178.447C53.7495 176.254 55.5176 174.176 57.4226 172.227H54.7464C56.9734 174.231 59.3674 176.041 61.9024 177.635C63.3587 178.584 64.8359 179.506 66.3292 180.406C67.1133 180.878 67.9004 181.346 68.6902 181.81C69.0252 182.006 69.3573 182.209 69.7009 182.39C69.8229 182.455 70.6008 182.949 70.3339 182.675L69.7803 181.333L69.8059 181.617L70.0642 180.659C69.9546 180.853 69.8343 181.041 69.7037 181.222C70.0548 180.723 69.8154 181.079 69.7132 181.179C69.4643 181.424 69.2305 181.688 68.9855 181.938C68.0552 182.887 67.1203 183.835 66.192 184.791C64.0249 187.018 61.8513 189.238 59.723 191.502C58.0538 193.28 60.7252 195.968 62.4001 194.186C64.9078 191.517 67.4704 188.897 70.0321 186.279C71.3749 184.908 74.7816 182.381 73.1549 180.183C72.73 179.709 72.2 179.342 71.6077 179.111C70.7654 178.666 69.9526 178.153 69.135 177.665C67.6209 176.76 66.1068 175.838 64.622 174.884C62.0657 173.323 59.6549 171.535 57.4188 169.54C57.0594 169.193 56.5798 168.999 56.0807 168.999C55.5817 168.999 55.102 169.193 54.7426 169.54C52.8379 171.489 51.0695 173.567 49.45 175.759C49.1718 176.066 48.9943 176.451 48.9415 176.863C48.8886 177.274 48.9631 177.692 49.1547 178.059C51.8167 183.796 55.6662 188.763 59.4231 193.802C59.687 194.225 60.102 194.531 60.5834 194.658C61.0648 194.784 61.5762 194.722 62.0131 194.483C62.4433 194.227 62.756 193.812 62.8837 193.327C63.0113 192.842 62.9437 192.326 62.6954 191.891Z" fill="#2E6669"/>
<path d="M86.7391 193.807C90.4959 188.768 94.3464 183.8 97.0083 178.063C97.2004 177.696 97.275 177.278 97.222 176.867C97.169 176.455 96.991 176.07 96.7122 175.764C95.0932 173.571 93.3251 171.493 91.4204 169.544C91.0606 169.198 90.5809 169.004 90.0819 169.004C89.5828 169.004 89.1031 169.198 88.7433 169.544C86.508 171.539 84.0974 173.328 81.541 174.888C80.0572 175.842 78.5431 176.765 77.0291 177.67C76.2114 178.157 75.3986 178.674 74.5564 179.116C73.9642 179.347 73.4343 179.713 73.0092 180.187C71.3853 182.385 74.791 184.91 76.132 186.284C78.6936 188.901 81.2562 191.521 83.7648 194.19C85.4388 195.972 88.1122 193.285 86.441 191.507C84.3137 189.242 82.14 187.022 79.973 184.795C79.0721 183.87 78.1687 182.947 77.2628 182.028C76.9893 181.749 76.73 181.459 76.4518 181.182C76.3411 181.074 76.1206 180.729 76.4613 181.226C76.3326 181.036 76.2114 180.863 76.0998 180.662L76.3581 181.62L76.3846 181.336L75.8301 182.678C75.5604 182.954 76.1991 182.527 76.3269 182.461C76.7187 182.261 77.0953 182.035 77.4738 181.812C78.2037 181.383 78.9314 180.951 79.6569 180.515C81.2079 179.582 82.7476 178.629 84.2616 177.637C86.797 176.043 89.1914 174.234 91.4185 172.229H88.7433C90.6488 174.178 92.4173 176.256 94.036 178.45L93.7398 176.15C91.0779 181.886 87.2274 186.854 83.4705 191.893C83.2206 192.328 83.1517 192.845 83.2789 193.331C83.406 193.816 83.719 194.233 84.15 194.489C84.5861 194.731 85.0987 194.796 85.5811 194.669C86.0634 194.541 86.4782 194.233 86.7391 193.807Z" fill="#2E6669"/>
<path d="M73.2779 205.733C58.7635 205.838 44.2485 205.929 29.7328 206.007L26.5599 206.021C25.4476 205.911 24.3249 206.037 23.2639 206.389C20.7846 207.502 20.8982 209.989 20.9086 212.281C20.9351 216.392 20.9751 220.504 21.0287 224.615C21.1549 235.558 21.3145 246.5 21.5076 257.443C21.5927 262.327 21.6874 267.212 21.7915 272.096C21.834 273.988 21.8445 275.884 21.9334 277.774C21.9202 278.543 22.1181 279.301 22.5055 279.965C22.8928 280.629 23.4547 281.174 24.1298 281.539C25.1793 281.947 26.3126 282.091 27.4305 281.958C40.6787 281.828 53.9345 281.943 67.1847 281.987C82.3019 282.036 97.42 281.899 112.537 281.927C114.763 281.927 116.985 281.937 119.215 281.959C120.399 282.109 121.602 281.916 122.68 281.402C123.304 280.99 123.811 280.423 124.152 279.756C124.492 279.088 124.654 278.344 124.621 277.595C124.776 273.429 124.824 269.256 124.905 265.088C125.119 254.071 125.295 243.053 125.432 232.036C125.495 227.228 125.551 222.418 125.6 217.605C125.618 215.8 125.633 213.997 125.645 212.197C125.661 209.858 125.699 207.27 123.063 206.294C122.028 206.02 120.954 205.927 119.888 206.022L116.689 206.007C113.829 205.992 110.969 205.977 108.109 205.961C100.627 205.918 93.1446 205.871 85.6612 205.821C81.5328 205.793 77.4041 205.764 73.2751 205.734C70.8393 205.716 70.8365 209.512 73.2751 209.53C87.3378 209.631 101.4 209.72 115.463 209.796C117.437 209.806 119.451 209.701 121.425 209.823C122.087 209.864 121.875 210.259 121.872 210.978C121.868 211.697 121.863 212.441 121.857 213.173C121.827 217.215 121.786 221.256 121.734 225.297C121.608 235.814 121.455 246.329 121.274 256.844C121.192 261.615 121.101 266.384 120.999 271.154C120.957 273.025 120.912 274.897 120.863 276.768C120.874 277.134 120.864 277.501 120.832 277.866C120.789 278.157 120.885 278.145 120.511 278.184C119.709 278.218 118.907 278.21 118.106 278.159C105.117 278.064 92.1254 278.153 79.1365 278.196C64.5066 278.244 49.8758 278.115 35.246 278.134C32.9458 278.134 30.6454 278.142 28.3446 278.159C27.5555 278.238 26.761 278.246 25.9703 278.185C25.6533 278.127 25.7669 278.143 25.7252 277.866C25.6877 277.438 25.6757 277.007 25.6893 276.577C25.5801 272.472 25.4899 268.368 25.4186 264.264C25.2155 253.672 25.0474 243.08 24.9143 232.487C24.8512 227.835 24.796 223.183 24.7487 218.532C24.7297 216.715 24.7136 214.898 24.7004 213.082C24.6947 212.355 24.69 211.628 24.6862 210.9C24.6526 210.611 24.6526 210.32 24.6862 210.032C24.7562 209.77 24.7998 209.843 25.2237 209.821C27.2109 209.699 29.2427 209.804 31.2356 209.793C34.06 209.779 36.8847 209.763 39.7097 209.747C46.9256 209.705 54.1408 209.66 61.3554 209.611L73.2789 209.528C75.7127 209.511 75.7184 205.715 73.2779 205.733Z" fill="#2E6669"/>
<path d="M32.7298 272.069C54.8591 271.933 76.9931 272.087 99.1234 272.054C104.024 272.047 108.925 272.039 113.826 272.069C116.263 272.084 116.265 268.289 113.826 268.274C91.6968 268.138 69.5628 268.292 47.4335 268.259C42.5316 268.251 37.6307 268.244 32.7298 268.274C30.295 268.289 30.2893 272.084 32.7298 272.069Z" fill="#2E6669"/>
<path d="M73.2779 236.134C71.7733 236.148 70.2677 236.168 68.7622 236.17C68.2625 236.177 67.7854 236.379 67.432 236.734C67.0787 237.088 66.8769 237.566 66.8696 238.067C66.8626 239.649 66.8604 241.232 66.8629 242.817C66.8629 243.747 66.8629 244.677 66.8743 245.606C66.8743 245.941 66.8743 246.276 66.8876 246.61C66.8803 246.881 66.9287 247.15 67.0298 247.401C67.1308 247.653 67.2824 247.88 67.4751 248.07C67.6677 248.26 67.8973 248.408 68.1495 248.505C68.4017 248.602 68.6712 248.646 68.941 248.634C71.6465 248.634 74.3529 248.616 77.0584 248.628C77.6267 248.694 78.2023 248.61 78.7277 248.383C79.0739 248.145 79.3462 247.814 79.5136 247.428C79.6809 247.042 79.7365 246.616 79.674 246.2C79.6863 245.329 79.6891 244.459 79.691 243.588C79.6948 241.75 79.6929 239.911 79.6854 238.072C79.678 237.571 79.4763 237.093 79.1229 236.738C78.7696 236.384 78.2924 236.182 77.7928 236.175C76.2881 236.175 74.7826 236.153 73.277 236.139C72.775 236.139 72.2937 236.338 71.9387 236.694C71.5838 237.05 71.3844 237.533 71.3844 238.036C71.3844 238.539 71.5838 239.022 71.9387 239.378C72.2937 239.734 72.775 239.934 73.277 239.934C74.7826 239.948 76.2881 239.968 77.7928 239.97L75.9001 238.072C75.9115 240.963 75.9512 243.86 75.8793 246.748L76.1377 245.79L77.7719 244.851C77.2761 244.806 76.7641 244.837 76.2664 244.837C75.2699 244.837 74.2791 244.847 73.2779 244.847C72.3051 244.847 71.3323 244.838 70.3605 244.837C69.84 244.837 69.3035 244.803 68.7839 244.851L70.4182 245.79L70.6765 246.748C70.6056 243.858 70.6444 240.96 70.6557 238.072L68.7631 239.97C70.2687 239.97 71.7743 239.948 73.2789 239.934C73.7808 239.934 74.2622 239.734 74.6172 239.378C74.9721 239.022 75.1715 238.539 75.1715 238.036C75.1715 237.533 74.9721 237.05 74.6172 236.694C74.2622 236.338 73.7808 236.139 73.2789 236.139L73.2779 236.134Z" fill="#2E6669"/>
<path d="M67.4941 155.818C69.3494 156.782 71.4165 157.265 73.506 157.221C75.7016 157.308 77.8633 156.657 79.6484 155.373C79.8243 155.197 79.9637 154.987 80.0589 154.757C80.1541 154.527 80.203 154.28 80.203 154.031C80.203 153.781 80.1541 153.535 80.0589 153.304C79.9637 153.074 79.8243 152.865 79.6484 152.689C79.2864 152.347 78.8078 152.156 78.3104 152.156C77.813 152.156 77.3343 152.347 76.9723 152.689C77.6167 152.185 76.8824 152.72 76.6733 152.83C76.5105 152.915 76.0648 153.045 76.6326 152.868C76.4651 152.92 76.3033 152.994 76.1358 153.048C75.9247 153.117 75.7109 153.174 75.4942 153.225C75.3503 153.258 74.8772 153.432 74.7475 153.366L74.951 153.339C74.8725 153.348 74.7949 153.357 74.7163 153.364C74.58 153.377 74.4438 153.389 74.3066 153.398C73.9782 153.419 73.6489 153.428 73.3196 153.426C73.0243 153.426 72.7297 153.415 72.4357 153.394C72.3004 153.384 72.1651 153.374 72.0307 153.36C71.8963 153.347 71.4951 153.386 71.9361 153.353C71.491 153.327 71.0529 153.229 70.6387 153.063C70.457 153.009 70.28 152.944 70.1003 152.882C69.6545 152.729 70.4674 153.062 70.0643 152.871C69.8419 152.766 69.6224 152.656 69.4019 152.541C68.9684 152.287 68.4521 152.216 67.9665 152.343C67.4808 152.471 67.0657 152.787 66.8123 153.221C66.559 153.656 66.4882 154.174 66.6155 154.661C66.7428 155.147 67.0579 155.564 67.4913 155.818H67.4941Z" fill="#2E6669"/>
<path d="M72.3704 141.842C72.639 142.812 72.8538 143.796 73.0139 144.79L72.9457 144.286C72.9647 144.421 72.9685 144.558 72.9571 144.693L73.0243 144.189C73.0156 144.251 73.0007 144.312 72.9798 144.372L73.1691 143.918C73.151 143.959 73.1295 143.999 73.1047 144.036L73.4 143.652C73.372 143.687 73.3403 143.719 73.3053 143.747L73.6886 143.451C73.6135 143.497 73.5354 143.538 73.4549 143.574L73.9072 143.384C73.7815 143.438 73.6496 143.477 73.5145 143.499L74.0179 143.432C73.8956 143.446 73.7721 143.446 73.6498 143.432L74.1523 143.5C74.0141 143.48 73.8769 143.446 73.7387 143.428C73.4941 143.348 73.2325 143.336 72.9817 143.394C72.7316 143.405 72.4888 143.482 72.2786 143.619C72.0638 143.744 71.8759 143.911 71.7255 144.11C71.5751 144.308 71.4653 144.535 71.4022 144.776C71.3391 145.017 71.324 145.268 71.3578 145.515C71.3916 145.762 71.4736 146 71.5992 146.215C71.7191 146.43 71.8811 146.618 72.0755 146.767C72.2698 146.917 72.4925 147.026 72.73 147.087C73.0811 147.135 73.4208 147.223 73.7775 147.238C74.3294 147.241 74.8737 147.109 75.3636 146.854C75.6799 146.705 75.9597 146.489 76.1828 146.219C76.406 145.95 76.567 145.634 76.6543 145.295C76.7703 144.755 76.7654 144.197 76.6401 143.659C76.4802 142.711 76.2616 141.767 76.0184 140.837C75.8823 140.36 75.5712 139.954 75.1478 139.698C74.7058 139.444 74.1815 139.376 73.6895 139.508C73.2144 139.642 72.8091 139.954 72.5587 140.38C72.3115 140.826 72.2447 141.349 72.3704 141.842Z" fill="#2E6669"/>
<path d="M57.1936 133.393C56.7025 134.993 57.0223 138.673 60.0458 138.991C64.042 138.967 64.254 134.517 62.9093 132.425C61.8078 130.707 58.5696 129.995 57.1936 133.393Z" fill="#2E6669"/>
<path d="M89.1919 133.393C89.683 134.992 89.3632 138.673 86.3397 138.991C82.3435 138.967 82.1315 134.517 83.4762 132.425C84.5777 130.707 87.8169 129.995 89.1919 133.393Z" fill="#2E6669"/>
<path d="M51.2717 15.0414C63.2197 15.0148 75.1674 14.9876 87.1148 14.9598C89.7247 14.9541 92.3343 14.9496 94.9436 14.9465C97.3784 14.9465 97.3831 11.1514 94.9436 11.1514C82.9987 11.1647 71.0538 11.19 59.1089 11.2273L51.2717 11.2462C48.8359 11.251 48.8312 15.0461 51.2717 15.0414Z" fill="#2E6669"/>
<path d="M51.2574 24.4525C63.2206 24.4259 75.1841 24.3987 87.1479 24.3709C89.7508 24.3652 92.3541 24.3608 94.9577 24.3576C97.3926 24.3576 97.3973 20.5625 94.9577 20.5625C83.0097 20.5758 71.0623 20.6011 59.1155 20.6384L51.2612 20.6574C48.8254 20.6574 48.8207 24.4525 51.2612 24.4525H51.2574Z" fill="#2E6669"/>
<path d="M51.2433 34.9271C63.2014 34.9005 75.1604 34.8733 87.1204 34.8455C89.7373 34.8398 92.3554 34.8354 94.9748 34.8322C97.4096 34.8322 97.4143 31.0371 94.9748 31.0371C83.0513 31.0504 71.1279 31.0757 59.2045 31.113L51.2461 31.132C48.8103 31.132 48.8056 34.9271 51.2461 34.9271H51.2433Z" fill="#2E6669"/>
<path d="M51.2243 44.349C63.2045 44.3224 75.1844 44.2952 87.1639 44.2674C89.7732 44.2617 92.3822 44.2573 94.9908 44.2541C97.4257 44.2541 97.4304 40.459 94.9908 40.459C83.063 40.4723 71.1348 40.4976 59.2064 40.5349L51.2243 40.5539C48.7885 40.5539 48.7838 44.349 51.2243 44.349Z" fill="#2E6669"/>
<path d="M44.6522 57.1643H101.562C103.998 57.1643 104.002 53.3691 101.562 53.3691H44.6522C42.2174 53.3691 42.2127 57.1643 44.6522 57.1643Z" fill="#2E6669"/>
<path d="M96.9326 54.1222C96.9326 39.4692 96.8002 24.8163 96.7377 10.1633C96.7263 7.40807 96.7122 4.64902 96.7122 1.89756C96.7051 1.39651 96.5034 0.917979 96.15 0.563647C95.7966 0.209316 95.3193 0.00711164 94.8195 0L51.1742 0C50.6744 0.00711164 50.1971 0.209316 49.8437 0.563647C49.4903 0.917979 49.2886 1.39651 49.2816 1.89756C49.2816 6.95772 49.2885 12.0157 49.3024 17.0714C49.3137 25.9115 49.3245 34.7513 49.3345 43.5907C49.3383 47.1328 49.3409 50.6749 49.3421 54.2171C49.3421 56.6592 53.1273 56.664 53.1273 54.2171C53.1273 46.8931 53.1204 39.5695 53.1065 32.2462C53.097 24.0316 53.0863 15.8165 53.0743 7.60067C53.0743 5.69932 53.0718 3.79828 53.0668 1.89756L51.1742 3.79512H94.8195L92.9269 1.89756C92.9269 16.6482 93.0585 31.4046 93.1228 46.1496C93.1342 48.8062 93.1493 51.4627 93.1493 54.1193C93.1493 56.5605 96.9345 56.5653 96.9345 54.1193L96.9326 54.1222Z" fill="#2E6669"/>
<path d="M311.784 143.965C311.896 151.115 311.495 158.264 310.583 165.356C309.62 171.998 306.808 178.455 307.316 185.259C307.379 187.169 307.914 189.034 308.871 190.688C310.135 192.444 311.83 193.844 313.792 194.75C315.958 195.856 317.876 192.583 315.703 191.473C314.24 191.003 312.982 190.046 312.138 188.76C311.293 187.474 310.913 185.936 311.06 184.404C310.958 180.364 312.033 176.604 312.96 172.722C314.157 167.517 314.906 162.219 315.197 156.885C315.472 152.585 315.57 148.274 315.57 143.965C315.57 141.523 311.784 141.519 311.784 143.965Z" fill="#2E6669"/>
<path d="M385.302 143.965C385.332 151.348 386.09 158.71 387.566 165.943C388.673 171.094 390.927 176.119 391.307 181.391C391.568 183.288 391.32 185.22 390.589 186.989C389.73 188.828 388.336 190.363 386.59 191.394C384.494 192.635 386.401 195.917 388.501 194.671C390.182 193.692 391.633 192.36 392.754 190.767C393.875 189.174 394.641 187.357 394.997 185.44C395.67 181.266 394.601 176.768 393.341 172.807C391.834 168.095 390.739 163.259 390.069 158.356C389.454 153.582 389.126 148.775 389.088 143.962C389.053 141.521 385.268 141.515 385.302 143.962V143.965Z" fill="#2E6669"/>
<path d="M365.373 97.8869C360.218 96.1011 354.762 95.3493 349.317 95.6743C342.96 95.9776 336.753 97.7194 331.163 100.769C326.995 102.916 323.341 105.942 320.451 109.639C317.505 113.643 315.332 118.164 314.046 122.969C312.218 129.81 311.456 136.893 311.784 143.967C311.861 146.404 315.647 146.414 315.569 143.967C315.238 133.428 316.579 122.05 322.605 113.104C327.936 105.192 337.974 100.508 347.259 99.608C353.035 98.9574 358.882 99.6199 364.367 101.546C366.654 102.4 367.64 98.7332 365.373 97.8869Z" fill="#2E6669"/>
<path d="M389.089 143.967C389.31 140.774 389.32 137.569 389.118 134.375C389.028 131.496 388.732 128.627 388.23 125.79C387.026 119.126 384.11 112.891 379.768 107.702C377.623 105.072 375.039 102.835 372.132 101.091C369.99 99.9275 368.077 103.204 370.221 104.368C372.543 105.791 374.629 107.567 376.406 109.634C378.406 111.807 380.064 114.274 381.321 116.95C383.775 122.217 385.128 127.932 385.296 133.743C385.529 137.148 385.529 140.566 385.296 143.971C385.091 146.404 388.878 146.39 389.081 143.971L389.089 143.967Z" fill="#2E6669"/>
<path d="M323.674 143.893C325.658 142.187 327.808 140.686 330.092 139.412C332.799 137.995 335.656 136.887 338.609 136.11C344.443 134.562 350.068 132.308 355.359 129.396C358.392 127.753 361.128 125.609 363.45 123.054C365.021 121.205 362.355 118.507 360.773 120.371C356.77 125.083 350.537 128.048 344.861 130.175C339.48 132.191 333.782 133.133 328.672 135.868C325.927 137.366 323.353 139.157 320.994 141.211C319.138 142.799 321.826 145.472 323.67 143.895L323.674 143.893Z" fill="#2E6669"/>
<path d="M380.869 144.159C381.109 143.969 381.385 143.829 381.681 143.748C381.976 143.667 382.285 143.645 382.588 143.685C382.892 143.725 383.185 143.826 383.449 143.981C383.713 144.136 383.944 144.343 384.127 144.589C384.491 145.35 384.65 146.193 384.589 147.034C384.623 148.028 384.555 149.022 384.386 150.002C383.744 153.53 381.955 157.757 378.046 158.46C377.564 158.597 377.155 158.919 376.907 159.356C376.659 159.792 376.593 160.309 376.721 160.794C376.863 161.274 377.185 161.681 377.619 161.928C378.053 162.176 378.565 162.246 379.049 162.123C385.021 161.05 387.87 154.289 388.323 148.862C388.554 146.073 388.329 142.891 385.922 141.082C384.781 140.256 383.394 139.845 381.989 139.917C380.584 139.989 379.245 140.539 378.194 141.476C377.842 141.834 377.645 142.316 377.645 142.818C377.645 143.32 377.842 143.802 378.194 144.159C378.554 144.506 379.033 144.699 379.532 144.699C380.031 144.699 380.511 144.506 380.871 144.159H380.869Z" fill="#2E6669"/>
<path d="M376.612 157.111C376.501 158.597 376.186 160.06 375.676 161.459C375.591 161.715 375.495 161.97 375.418 162.229C375.383 162.35 375.229 162.681 375.445 162.187C375.312 162.493 375.169 162.793 375.021 163.09C374.111 164.864 373.058 166.561 371.872 168.164C369.128 171.935 365.406 175.93 360.706 177.035C358.34 177.593 359.339 181.253 361.712 180.694C367.325 179.375 371.68 174.773 374.983 170.29C377.834 166.419 380.194 162.036 380.393 157.111C380.488 154.669 376.702 154.673 376.608 157.111H376.612Z" fill="#2E6669"/>
<path d="M323.704 141.477C322.652 140.54 321.314 139.99 319.909 139.918C318.504 139.846 317.116 140.257 315.975 141.082C313.567 142.885 313.344 146.076 313.574 148.862C314.023 154.289 316.872 161.05 322.847 162.123C323.331 162.243 323.843 162.172 324.276 161.925C324.709 161.678 325.031 161.273 325.175 160.795C325.304 160.309 325.238 159.792 324.99 159.356C324.742 158.919 324.333 158.598 323.85 158.461C319.94 157.758 318.152 153.527 317.51 150.003C317.351 149.078 317.282 148.139 317.305 147.201C317.244 146.349 317.379 145.494 317.7 144.704C317.873 144.437 318.1 144.209 318.366 144.035C318.632 143.861 318.931 143.745 319.244 143.694C319.557 143.643 319.878 143.658 320.185 143.738C320.492 143.818 320.779 143.962 321.028 144.16C321.389 144.504 321.868 144.695 322.366 144.695C322.864 144.695 323.343 144.504 323.705 144.16C324.056 143.802 324.253 143.32 324.253 142.818C324.253 142.316 324.056 141.835 323.705 141.477H323.704Z" fill="#2E6669"/>
<path d="M321.983 158.392C324.32 169.398 332.321 180.277 344.17 181.553C344.671 181.549 345.151 181.348 345.505 180.993C345.859 180.638 346.06 180.157 346.063 179.655C346.052 179.155 345.849 178.679 345.497 178.325C345.144 177.972 344.669 177.768 344.17 177.757C339.329 177.237 335.208 174.329 332.032 170.777C328.763 166.954 326.556 162.334 325.633 157.383C325.127 154.995 321.477 156.006 321.983 158.392Z" fill="#2E6669"/>
<path d="M361.468 178.164C361.386 179.94 361.513 181.719 361.846 183.464C361.999 184.251 362.335 184.99 362.826 185.622C363.144 185.987 363.504 186.315 363.896 186.599C366.323 188.309 368.885 189.819 371.555 191.113C371.989 191.367 372.505 191.438 372.991 191.311C373.476 191.183 373.892 190.867 374.145 190.432C374.398 189.998 374.469 189.48 374.342 188.993C374.214 188.506 373.899 188.09 373.466 187.836C371.013 186.623 368.639 185.254 366.358 183.738C366.287 183.688 366.143 183.623 366.096 183.549C366.316 183.72 366.347 183.744 366.191 183.622L366.104 183.549C365.949 183.417 365.809 183.273 365.662 183.133C365.555 183.031 365.378 182.744 365.75 183.263C365.709 183.207 365.674 183.148 365.645 183.086C365.888 183.628 365.665 183.086 365.633 182.983C365.58 182.81 365.534 182.635 365.493 182.458C365.453 182.282 365.419 182.094 365.385 181.911C365.311 181.512 365.385 182.108 365.351 181.66C365.318 181.271 365.287 180.882 365.272 180.492C365.242 179.717 365.25 178.942 365.255 178.167C365.255 177.664 365.056 177.181 364.701 176.825C364.346 176.469 363.864 176.27 363.362 176.27C362.86 176.27 362.379 176.469 362.024 176.825C361.669 177.181 361.47 177.664 361.47 178.167L361.468 178.164Z" fill="#2E6669"/>
<path d="M336.459 178.289C336.465 179.173 336.472 180.058 336.421 180.946C336.407 181.175 336.384 181.402 336.367 181.631C336.337 182.032 336.413 181.466 336.335 181.892C336.257 182.318 336.14 182.729 336.032 183.151C335.93 183.551 336.119 182.99 336.054 183.127C336.034 183.169 335.959 183.239 335.953 183.282C336.027 182.935 336.258 182.945 336.029 183.154C335.953 183.224 335.883 183.301 335.807 183.37C335.665 183.521 335.506 183.656 335.334 183.772C335.823 183.499 335.356 183.751 335.239 183.835C335.123 183.918 335.029 183.986 334.923 184.06C332.731 185.532 330.449 186.865 328.091 188.052C327.66 188.309 327.348 188.725 327.221 189.211C327.094 189.696 327.163 190.213 327.412 190.648C327.673 191.074 328.088 191.383 328.57 191.51C329.053 191.637 329.565 191.572 330.001 191.329C332.522 190.084 334.945 188.65 337.25 187.039C338.353 186.372 339.208 185.36 339.682 184.159C340.188 182.248 340.378 180.267 340.244 178.294C340.244 177.791 340.045 177.308 339.69 176.952C339.335 176.596 338.854 176.396 338.352 176.396C337.85 176.396 337.368 176.596 337.013 176.952C336.658 177.308 336.459 177.791 336.459 178.294V178.289Z" fill="#2E6669"/>
<path d="M360.644 122.772C362.575 127.529 365.236 131.955 368.53 135.889C370.083 137.914 371.821 139.788 373.722 141.487C375.209 142.949 377.031 144.024 379.028 144.618C381.402 145.143 382.416 141.487 380.034 140.959C379.845 140.916 379.656 140.864 379.467 140.806C379.332 140.767 379.032 140.634 379.33 140.765C378.956 140.596 378.593 140.402 378.246 140.183C377.49 139.718 376.784 139.177 376.137 138.57C374.34 136.924 372.689 135.126 371.202 133.194C369.691 131.263 368.3 129.24 367.039 127.136C365.972 125.423 365.053 123.621 364.294 121.751C364.15 121.272 363.828 120.867 363.395 120.62C362.961 120.373 362.45 120.302 361.966 120.422C361.483 120.559 361.074 120.881 360.826 121.317C360.578 121.754 360.512 122.271 360.641 122.756L360.644 122.772Z" fill="#2E6669"/>
<path d="M301.801 264.539C297.992 262.345 294.194 259.851 291.297 256.494C288.766 253.565 288.007 249.899 288.291 246.09C288.639 241.436 291.003 237.042 292.59 232.717C294.214 228.294 295.749 223.838 297.395 219.424C300.234 211.804 303.086 203.334 309.893 198.348C312.457 196.366 315.323 194.812 318.381 193.747C321.274 192.752 324.245 192.002 327.264 191.505C326.9 191.557 327.446 191.495 327.548 191.481C327.892 191.434 327.912 191.541 327.538 191.424C326.844 191.206 327.278 191.314 327.486 191.442C327.694 191.57 327.895 191.675 328.098 191.788C328.575 192.052 329.057 192.308 329.542 192.555C331.497 193.55 333.508 194.427 335.566 195.183C340.024 196.858 344.712 197.839 349.467 198.093C354.177 198.271 358.88 197.613 363.362 196.152C365.425 195.488 367.448 194.704 369.419 193.803C370.336 193.388 371.242 192.95 372.136 192.488C372.437 192.332 374.938 191.215 374.921 190.956C374.926 191.044 374.431 191.109 374.387 191.139C374.095 191.335 374.227 191.067 374.357 191.165C374.371 191.176 374.987 191.227 374.699 191.19C374.498 191.164 375.14 191.271 375.24 191.29C375.564 191.353 375.886 191.422 376.207 191.494C377.704 191.83 379.185 192.234 380.655 192.663C383.546 193.408 386.331 194.521 388.94 195.975C392.034 197.809 395.134 199.954 397.233 202.93C399.614 206.478 401.572 210.294 403.068 214.298C404.866 218.77 406.475 223.312 408.096 227.853C409.68 232.289 411.53 236.644 413.069 241.093C414.394 244.915 414.824 249.552 413.187 253.367C411.673 256.895 408.221 259.582 405.164 261.699C403.273 262.996 401.315 264.191 399.297 265.279C397.158 266.448 399.065 269.726 401.208 268.556C405.498 266.36 409.439 263.538 412.902 260.182C415.838 257.272 417.623 253.394 417.926 249.266C418.108 246.907 417.913 244.535 417.347 242.238C416.622 239.733 415.735 237.279 414.691 234.891C412.92 230.251 411.307 225.553 409.608 220.887C407.9 216.194 406.154 211.472 404.009 206.96C402.395 203.29 400.068 199.979 397.162 197.222C394.211 194.521 390.818 192.349 387.132 190.802C384.052 189.637 380.898 188.682 377.69 187.944C376.587 187.625 375.45 187.432 374.304 187.368C373.683 187.391 373.081 187.588 372.567 187.937C371.582 188.503 370.582 189.041 369.566 189.55C365.443 191.656 361.028 193.132 356.47 193.929C351.578 194.667 346.587 194.4 341.802 193.143C339.374 192.541 336.995 191.754 334.686 190.789C332.75 189.979 330.973 188.919 329.102 187.996C328.025 187.618 326.856 187.596 325.765 187.932C324.217 188.201 322.686 188.582 321.168 188.985C317.892 189.752 314.736 190.965 311.788 192.59C308.17 194.537 304.976 197.189 302.396 200.392C299.82 204.075 297.717 208.07 296.137 212.28C294.224 216.944 292.541 221.697 290.838 226.444C289.971 228.872 289.102 231.299 288.197 233.713C287.345 235.985 286.319 238.216 285.577 240.525C284.048 244.99 284.044 249.838 285.566 254.305C287.097 258.317 290.456 261.332 293.799 263.854C295.745 265.302 297.778 266.628 299.887 267.825C302.003 269.044 303.911 265.766 301.798 264.548L301.801 264.539Z" fill="#2E6669"/>
<path d="M350.558 205.733C336.043 205.838 321.528 205.929 307.013 206.007L303.84 206.021C302.728 205.911 301.605 206.037 300.544 206.389C298.064 207.502 298.172 209.989 298.188 212.281C298.215 216.392 298.255 220.504 298.309 224.615C298.435 235.558 298.595 246.5 298.788 257.443C298.873 262.327 298.967 267.212 299.071 272.096C299.114 273.988 299.124 275.884 299.213 277.774C299.2 278.543 299.398 279.301 299.785 279.965C300.173 280.629 300.735 281.174 301.41 281.539C302.459 281.947 303.593 282.091 304.71 281.958C317.959 281.828 331.215 281.943 344.465 281.987C359.582 282.036 374.699 281.899 389.817 281.927C392.043 281.927 394.265 281.937 396.495 281.959C397.679 282.109 398.882 281.916 399.96 281.402C400.584 280.99 401.091 280.423 401.432 279.756C401.772 279.088 401.934 278.344 401.901 277.595C402.055 273.429 402.104 269.256 402.185 265.088C402.4 254.071 402.575 243.053 402.711 232.036C402.775 227.228 402.831 222.418 402.881 217.605C402.898 215.8 402.913 213.997 402.926 212.197C402.941 209.858 402.98 207.27 400.344 206.294C399.309 206.02 398.235 205.928 397.169 206.022L393.97 206.007C391.11 205.992 388.25 205.977 385.39 205.961C377.907 205.918 370.424 205.871 362.942 205.821C358.814 205.793 354.685 205.764 350.556 205.734C348.119 205.716 348.117 209.512 350.556 209.53C364.618 209.631 378.68 209.72 392.743 209.796C394.717 209.806 396.732 209.701 398.705 209.823C399.367 209.864 399.154 210.259 399.151 210.978C399.147 211.697 399.142 212.441 399.137 213.173C399.107 217.215 399.066 221.256 399.014 225.297C398.888 235.814 398.735 246.329 398.554 256.844C398.472 261.615 398.38 266.384 398.278 271.154C398.237 273.025 398.192 274.897 398.143 276.768C398.154 277.134 398.144 277.501 398.112 277.866C398.069 278.157 398.165 278.145 397.791 278.184C396.989 278.218 396.186 278.21 395.385 278.159C382.396 278.064 369.404 278.153 356.416 278.196C341.786 278.244 327.156 278.115 312.526 278.134C310.225 278.134 307.925 278.142 305.625 278.159C304.835 278.238 304.04 278.246 303.249 278.185C302.933 278.127 303.046 278.143 303.005 277.866C302.968 277.438 302.956 277.007 302.969 276.577C302.86 272.473 302.78 268.368 302.698 264.264C302.495 253.672 302.327 243.08 302.193 232.487C302.13 227.835 302.075 223.183 302.028 218.532C302.009 216.715 301.993 214.898 301.979 213.082C301.975 212.355 301.971 211.628 301.966 210.9C301.932 210.612 301.932 210.32 301.966 210.032C302.036 209.77 302.08 209.843 302.504 209.821C304.491 209.699 306.523 209.804 308.515 209.793C311.34 209.779 314.165 209.763 316.99 209.747C324.206 209.705 331.421 209.66 338.635 209.611L350.559 209.528C352.993 209.511 352.998 205.715 350.558 205.733Z" fill="#2E6669"/>
<path d="M310.009 272.069C332.138 271.933 354.272 272.087 376.401 272.054C381.302 272.047 386.204 272.039 391.105 272.069C393.541 272.084 393.544 268.289 391.105 268.274C368.976 268.138 346.842 268.292 324.712 268.259C319.811 268.251 314.91 268.244 310.009 268.274C307.574 268.289 307.568 272.084 310.009 272.069Z" fill="#2E6669"/>
<path d="M350.558 236.134C349.052 236.148 347.547 236.168 346.042 236.17C345.543 236.177 345.065 236.379 344.712 236.734C344.359 237.088 344.157 237.566 344.15 238.067C344.143 239.649 344.141 241.232 344.143 242.817C344.143 243.747 344.143 244.677 344.154 245.606C344.154 245.941 344.154 246.276 344.168 246.61C344.16 246.881 344.208 247.15 344.309 247.402C344.411 247.653 344.562 247.881 344.755 248.07C344.947 248.26 345.177 248.408 345.429 248.505C345.682 248.602 345.951 248.646 346.221 248.634C348.927 248.634 351.632 248.616 354.338 248.628C354.906 248.694 355.482 248.61 356.007 248.383C356.353 248.145 356.625 247.814 356.793 247.428C356.96 247.042 357.016 246.616 356.953 246.2C356.965 245.329 356.967 244.459 356.969 243.588C356.974 241.75 356.974 239.911 356.969 238.072C356.962 237.571 356.76 237.093 356.407 236.738C356.053 236.384 355.576 236.182 355.077 236.175C353.571 236.175 352.065 236.153 350.561 236.139C350.059 236.139 349.577 236.338 349.222 236.694C348.868 237.05 348.668 237.533 348.668 238.036C348.668 238.539 348.868 239.022 349.222 239.378C349.577 239.734 350.059 239.934 350.561 239.934C352.065 239.948 353.571 239.968 355.077 239.97L353.184 238.072C353.195 240.963 353.234 243.86 353.162 246.748L353.42 245.79L355.055 244.851C354.559 244.806 354.046 244.837 353.549 244.837C352.553 244.837 351.556 244.847 350.561 244.847C349.588 244.847 348.615 244.838 347.642 244.837C347.122 244.837 346.585 244.803 346.067 244.851L347.701 245.79L347.959 246.748C347.887 243.858 347.927 240.96 347.939 238.072L346.046 239.97C347.551 239.97 349.056 239.948 350.562 239.934C351.064 239.934 351.545 239.734 351.9 239.378C352.255 239.022 352.454 238.539 352.454 238.036C352.454 237.533 352.255 237.05 351.9 236.694C351.545 236.338 351.064 236.139 350.562 236.139L350.558 236.134Z" fill="#2E6669"/>
<path d="M346.088 166.276C347.857 167.197 349.829 167.658 351.822 167.617C353.925 167.698 355.995 167.072 357.703 165.839C357.878 165.662 358.018 165.453 358.113 165.223C358.208 164.993 358.257 164.746 358.257 164.497C358.257 164.247 358.208 164 358.113 163.77C358.018 163.54 357.878 163.331 357.703 163.155C357.34 162.813 356.862 162.622 356.364 162.622C355.867 162.622 355.388 162.813 355.026 163.155C355.676 162.647 354.972 163.163 354.765 163.272C354.604 163.357 354.167 163.49 354.751 163.298C354.593 163.349 354.441 163.417 354.278 163.469C354.078 163.533 353.876 163.587 353.671 163.636C353.431 163.649 353.194 163.693 352.965 163.768C353.114 163.668 353.279 163.731 352.965 163.763C352.837 163.776 352.707 163.786 352.578 163.795C352.268 163.815 351.957 163.823 351.645 163.822C351.361 163.822 351.087 163.81 350.81 163.791C350.682 163.783 350.554 163.772 350.431 163.759C350.358 163.752 350.285 163.744 350.213 163.735C350.066 163.717 350.118 163.724 350.37 163.756C350.155 163.752 349.943 163.713 349.741 163.638C349.539 163.593 349.34 163.542 349.143 163.483C348.971 163.432 348.803 163.369 348.634 163.311C348.2 163.162 349.018 163.501 348.625 163.311C348.415 163.216 348.207 163.108 348.001 162.999C347.568 162.745 347.051 162.674 346.566 162.802C346.08 162.93 345.665 163.246 345.412 163.68C345.159 164.115 345.088 164.632 345.215 165.119C345.343 165.606 345.658 166.022 346.091 166.276H346.088Z" fill="#2E6669"/>
<path d="M350.649 153.005C350.903 153.922 351.106 154.852 351.257 155.791L351.189 155.287C351.207 155.414 351.211 155.543 351.2 155.672L351.268 155.167C351.259 155.226 351.244 155.284 351.225 155.341L351.414 154.887C351.397 154.926 351.376 154.963 351.353 154.998L351.649 154.614C351.621 154.647 351.589 154.678 351.554 154.704L351.933 154.407C351.862 154.451 351.789 154.49 351.712 154.524L352.165 154.334C352.046 154.385 351.921 154.421 351.794 154.442L352.296 154.375C352.181 154.388 352.064 154.388 351.948 154.375L352.452 154.442C352.32 154.424 352.191 154.392 352.06 154.375C351.567 154.262 351.05 154.329 350.602 154.565C350.387 154.69 350.199 154.857 350.049 155.056C349.898 155.254 349.789 155.481 349.726 155.722C349.663 155.963 349.648 156.214 349.681 156.461C349.715 156.708 349.797 156.946 349.923 157.161C350.043 157.376 350.205 157.564 350.399 157.714C350.594 157.863 350.816 157.972 351.054 158.033C351.395 158.079 351.725 158.164 352.071 158.179C352.612 158.181 353.144 158.051 353.623 157.8C353.934 157.653 354.209 157.439 354.428 157.174C354.647 156.909 354.805 156.598 354.891 156.265C355.005 155.736 355 155.19 354.878 154.663C354.726 153.765 354.519 152.876 354.289 151.994C354.224 151.754 354.111 151.528 353.959 151.331C353.806 151.134 353.616 150.969 353.4 150.846C353.183 150.722 352.945 150.643 352.698 150.612C352.451 150.581 352.2 150.6 351.96 150.666C351.485 150.8 351.08 151.113 350.83 151.539C350.583 151.984 350.515 152.507 350.64 153.001L350.649 153.005Z" fill="#2E6669"/>
<path d="M336.402 144.987C335.938 146.5 336.24 149.979 339.098 150.275C342.875 150.253 343.073 146.046 341.805 144.068C340.764 142.449 337.702 141.775 336.402 144.987Z" fill="#2E6669"/>
<path d="M366.65 144.988C367.114 146.5 366.812 149.979 363.954 150.275C360.177 150.253 359.979 146.046 361.247 144.068C362.288 142.449 365.35 141.775 366.65 144.988Z" fill="#2E6669"/>
<path d="M321.289 29.1585C329.387 22.3456 337.478 15.5248 345.561 8.69616C347.616 6.96432 349.671 5.23406 351.726 3.50539C353.594 1.93326 350.904 -0.739452 349.049 0.82129C340.736 7.81569 332.43 14.8174 324.131 21.8263C322.292 23.3766 320.452 24.9263 318.612 26.4753C316.744 28.0475 319.433 30.7192 321.289 29.1585Z" fill="#2E6669"/>
<path d="M382.163 26.476C374.065 19.6625 365.975 12.8418 357.892 6.01371C355.836 4.28188 353.78 2.5513 351.726 0.821993C349.871 -0.7378 347.183 1.93301 349.049 3.50609C357.362 10.4999 365.668 17.5015 373.968 24.5111C375.806 26.0602 377.645 27.6098 379.485 29.1601C381.34 30.7209 384.028 28.0482 382.163 26.476Z" fill="#2E6669"/>
<path d="M326.501 30.2569C326.501 38.5935 326.501 46.9301 326.501 55.2667C326.508 55.7677 326.71 56.2461 327.063 56.6003C327.417 56.9546 327.894 57.1569 328.394 57.1643H372.373C372.873 57.1571 373.35 56.9549 373.703 56.6006C374.057 56.2463 374.259 55.7677 374.266 55.2667C374.266 46.9301 374.266 38.5935 374.266 30.2569C374.266 27.8147 370.48 27.8109 370.48 30.2569C370.48 38.5935 370.48 46.9301 370.48 55.2667L372.373 53.3691H328.397L330.29 55.2667C330.29 46.9301 330.29 38.5935 330.29 30.2569C330.29 27.8147 326.505 27.8109 326.505 30.2569H326.501Z" fill="#2E6669"/>
<path d="M362.265 55.2663C362.265 49.6324 362.265 43.9989 362.265 38.3657L360.372 40.2632C364.347 40.2632 368.321 40.2186 372.295 40.2082C374.731 40.2016 374.736 36.4065 372.295 36.4131C368.321 36.4235 364.347 36.47 360.372 36.4681C359.872 36.4755 359.395 36.6778 359.042 37.032C358.689 37.3863 358.487 37.8647 358.479 38.3657C358.479 43.9989 358.479 49.6324 358.479 55.2663C358.479 57.7084 362.265 57.7122 362.265 55.2663Z" fill="#2E6669"/>
<path d="M364.921 159.529C364.508 159.033 364.032 158.594 363.564 158.162C363.132 157.762 362.686 157.378 362.223 157.02C361.869 156.746 361.331 156.657 360.892 156.767C360.475 156.871 360 157.191 359.761 157.596C359.504 158.03 359.344 158.562 359.442 159.059C359.538 159.547 359.763 159.949 360.136 160.237C360.721 160.689 361.28 161.181 361.816 161.699L361.486 161.379C361.725 161.611 361.961 161.848 362.175 162.106C362.477 162.468 362.91 162.711 363.379 162.728C363.801 162.743 364.327 162.559 364.651 162.229C364.998 161.875 365.276 161.398 365.302 160.881C365.325 160.391 365.222 159.889 364.921 159.529Z" fill="#2E6669"/>
</g>
<defs>
<clipPath id="clip0_956_3870">
<rect width="418" height="282" fill="white"/>
</clipPath>
</defs>
</svg>
