<svg width="160" height="160" viewBox="0 0 160 160" fill="none" xmlns="http://www.w3.org/2000/svg">
<path d="M157.5 80C157.5 122.812 122.799 157.5 80 157.5C37.2009 157.5 2.5 122.812 2.5 80C2.5 37.2134 37.2009 2.5 80 2.5C122.799 2.5 157.5 37.2134 157.5 80ZM80 95.625C72.0609 95.625 65.625 102.061 65.625 110C65.625 117.939 72.0609 124.375 80 124.375C87.9391 124.375 94.375 117.939 94.375 110C94.375 102.061 87.9391 95.625 80 95.625ZM66.3522 43.9544L68.6703 86.4544C68.7787 88.4431 70.4231 90 72.4147 90H87.5853C89.5769 90 91.2213 88.4431 91.3297 86.4544L93.6478 43.9544C93.765 41.8063 92.0547 40 89.9034 40H70.0963C67.945 40 66.235 41.8063 66.3522 43.9544Z" fill="#E76F51"/>
</svg>
