<svg width="160" height="160" viewBox="0 0 160 160" fill="none" xmlns="http://www.w3.org/2000/svg">
<path d="M157.5 80C157.5 122.802 122.802 157.5 80 157.5C37.1978 157.5 2.5 122.802 2.5 80C2.5 37.1978 37.1978 2.5 80 2.5C122.802 2.5 157.5 37.1978 157.5 80ZM71.0356 121.036L128.536 63.5356C130.488 61.5831 130.488 58.4172 128.536 56.4647L121.465 49.3937C119.512 47.4409 116.346 47.4409 114.393 49.3937L67.5 96.2869L45.6066 74.3934C43.6541 72.4409 40.4881 72.4409 38.5353 74.3934L31.4644 81.4644C29.5119 83.4169 29.5119 86.5828 31.4644 88.5353L63.9644 121.035C65.9172 122.988 69.0828 122.988 71.0356 121.036Z" fill="#2A9D8F"/>
</svg>
