<svg width="171" height="41" viewBox="0 0 171 41" fill="none" xmlns="http://www.w3.org/2000/svg">
<path d="M47.3099 40.6009C44.0627 40.6009 41.5238 39.6965 39.6932 37.8877C37.8626 36.0789 36.9473 33.4964 36.9473 30.1403V17.3259H42.243V29.9441C42.243 32.1234 42.6897 33.6925 43.5833 34.6514C44.4768 35.6103 45.7299 36.0898 47.3426 36.0898C48.9553 36.0898 50.2084 35.6103 51.1019 34.6514C51.9954 33.6925 52.4421 32.1234 52.4421 29.9441V17.3259H57.6725V30.1403C57.6725 33.4964 56.7572 36.0789 54.9266 37.8877C53.0959 39.6965 50.557 40.6009 47.3099 40.6009Z" fill="white"/>
<path d="M73.2356 22.3601C74.6303 22.3601 75.8725 22.6434 76.9622 23.2101C78.0736 23.7549 78.9453 24.6048 79.5774 25.7599C80.2093 26.8931 80.5253 28.3532 80.5253 30.1403V40.2087H75.4258V30.9248C75.4258 29.5083 75.1098 28.4622 74.4778 27.7866C73.8676 27.111 72.9958 26.7732 71.8626 26.7732C71.0563 26.7732 70.3262 26.9476 69.6724 27.2963C69.0404 27.6232 68.5392 28.1353 68.1687 28.8327C67.82 29.5301 67.6456 30.4236 67.6456 31.5132V40.2087H62.5461V22.6217H67.4168V27.4924L66.5015 26.0214C67.1335 24.8445 68.0379 23.9401 69.2147 23.3081C70.3916 22.6761 71.7318 22.3601 73.2356 22.3601Z" fill="white"/>
<path d="M85.1479 40.2087V22.6217H90.2474V40.2087H85.1479ZM87.6977 20.1699C86.7606 20.1699 85.9978 19.8975 85.4094 19.3527C84.821 18.8079 84.5268 18.1323 84.5268 17.3259C84.5268 16.5196 84.821 15.844 85.4094 15.2992C85.9978 14.7543 86.7606 14.4819 87.6977 14.4819C88.6348 14.4819 89.3975 14.7435 89.9859 15.2665C90.5743 15.7677 90.8685 16.4215 90.8685 17.2279C90.8685 18.0778 90.5743 18.7861 89.9859 19.3527C89.4193 19.8975 88.6565 20.1699 87.6977 20.1699Z" fill="white"/>
<path d="M106.291 40.6009C104.526 40.6009 102.88 40.3176 101.355 39.751C99.851 39.1626 98.5435 38.3345 97.432 37.2666C96.3206 36.1987 95.4488 34.9456 94.8168 33.5073C94.2066 32.069 93.9015 30.489 93.9015 28.7673C93.9015 27.0456 94.2066 25.4656 94.8168 24.0273C95.4488 22.589 96.3206 21.3359 97.432 20.268C98.5653 19.2001 99.8837 18.3829 101.387 17.8163C102.891 17.2279 104.537 16.9337 106.324 16.9337C108.307 16.9337 110.094 17.2823 111.685 17.9797C113.297 18.6553 114.649 19.6578 115.738 20.9872L112.338 24.1254C111.554 23.2319 110.682 22.5672 109.723 22.1313C108.764 21.6737 107.718 21.4448 106.585 21.4448C105.517 21.4448 104.537 21.6192 103.643 21.9679C102.75 22.3165 101.976 22.8178 101.322 23.4716C100.668 24.1254 100.156 24.899 99.7857 25.7925C99.437 26.6861 99.2626 27.6776 99.2626 28.7673C99.2626 29.857 99.437 30.8485 99.7857 31.7421C100.156 32.6356 100.668 33.4092 101.322 34.063C101.976 34.7168 102.75 35.2181 103.643 35.5667C104.537 35.9154 105.517 36.0898 106.585 36.0898C107.718 36.0898 108.764 35.8718 109.723 35.436C110.682 34.9783 111.554 34.2918 112.338 33.3765L115.738 36.5147C114.649 37.8441 113.297 38.8575 111.685 39.5549C110.094 40.2523 108.296 40.6009 106.291 40.6009Z" fill="white"/>
<path d="M129.647 40.2087V36.7763L129.32 36.0244V29.8787C129.32 28.7891 128.982 27.9392 128.306 27.329C127.653 26.7188 126.639 26.4136 125.266 26.4136C124.329 26.4136 123.403 26.5662 122.488 26.8713C121.594 27.1546 120.831 27.5469 120.199 28.0481L118.369 24.485C119.328 23.8094 120.483 23.2863 121.834 22.9159C123.185 22.5454 124.558 22.3601 125.953 22.3601C128.633 22.3601 130.714 22.9921 132.196 24.2561C133.678 25.5201 134.419 27.4924 134.419 30.173V40.2087H129.647ZM124.286 40.4702C122.913 40.4702 121.736 40.2414 120.755 39.7837C119.774 39.3043 119.022 38.6614 118.499 37.855C117.976 37.0487 117.715 36.1443 117.715 35.1418C117.715 34.0957 117.966 33.1804 118.467 32.3958C118.99 31.6113 119.807 31.0011 120.918 30.5652C122.03 30.1076 123.479 29.8787 125.266 29.8787H129.941V32.8535H125.822C124.623 32.8535 123.795 33.0496 123.338 33.4419C122.902 33.8342 122.684 34.3245 122.684 34.913C122.684 35.5667 122.934 36.0898 123.436 36.4821C123.959 36.8525 124.667 37.0378 125.56 37.0378C126.41 37.0378 127.173 36.8416 127.849 36.4494C128.524 36.0353 129.015 35.436 129.32 34.6514L130.104 37.0051C129.734 38.1383 129.058 38.9992 128.078 39.5876C127.097 40.176 125.833 40.4702 124.286 40.4702Z" fill="white"/>
<path d="M139.035 40.2087V22.6217H143.905V27.5905L143.219 26.1521C143.742 24.9099 144.581 23.9728 145.736 23.3408C146.891 22.687 148.297 22.3601 149.953 22.3601V27.0674C149.735 27.0456 149.539 27.0348 149.365 27.0348C149.19 27.013 149.005 27.0021 148.809 27.0021C147.414 27.0021 146.281 27.4052 145.409 28.2116C144.559 28.9961 144.134 30.2274 144.134 31.9055V40.2087H139.035Z" fill="white"/>
<path d="M161.586 40.4702C159.581 40.4702 157.815 40.0779 156.29 39.2934C154.786 38.5088 153.62 37.4409 152.792 36.0898C151.964 34.7168 151.55 33.1586 151.55 31.4152C151.55 29.6499 151.953 28.0917 152.759 26.7405C153.588 25.3676 154.71 24.2997 156.126 23.537C157.543 22.7524 159.145 22.3601 160.932 22.3601C162.654 22.3601 164.201 22.7306 165.574 23.4716C166.969 24.1908 168.069 25.2368 168.875 26.6098C169.682 27.961 170.085 29.5845 170.085 31.4805C170.085 31.6767 170.074 31.9055 170.052 32.167C170.03 32.4067 170.009 32.6356 169.987 32.8535H155.702V29.8787H167.306L165.345 30.7614C165.345 29.8461 165.16 29.0506 164.789 28.375C164.419 27.6994 163.907 27.1764 163.253 26.8059C162.599 26.4136 161.836 26.2175 160.965 26.2175C160.093 26.2175 159.319 26.4136 158.644 26.8059C157.99 27.1764 157.478 27.7103 157.107 28.4077C156.737 29.0833 156.551 29.8896 156.551 30.8267V31.6113C156.551 32.5702 156.758 33.4201 157.173 34.1611C157.608 34.8803 158.208 35.436 158.97 35.8283C159.755 36.1987 160.67 36.384 161.716 36.384C162.654 36.384 163.471 36.2423 164.168 35.959C164.887 35.6757 165.541 35.2507 166.13 34.6841L168.843 37.6262C168.036 38.5415 167.023 39.2498 165.803 39.751C164.582 40.2305 163.177 40.4702 161.586 40.4702Z" fill="white"/>
<path d="M18.736 24.354C19.259 22.8721 20.9153 20.7945 21.678 19.9409C22.6224 20.631 24.533 22.4144 25.274 23.5913C26.2002 25.0623 26.9629 27.405 27.0174 29.094C27.0719 30.783 26.2001 32.9623 25.7643 33.6161C25.4156 34.1391 24.7836 34.851 24.5112 35.1416L25.7138 37.5933L24.7331 38.2471L24.5112 37.6478C24.0571 36.6308 23.0837 34.4006 22.8222 33.6161C22.4953 32.6354 22.1684 31.1099 21.787 28.0044C21.787 28.186 21.678 28.8107 21.678 30.7285C21.678 31.8726 21.9505 33.8885 22.5498 35.414C21.7689 35.0326 20.7301 34.4442 20.207 34.0519C19.5532 33.5616 18.2457 32.363 17.8099 30.2381C17.3114 27.8075 18.0822 26.2064 18.736 24.354Z" fill="white"/>
<circle cx="17.5979" cy="2.01586" r="2.01586" fill="white"/>
<circle cx="22.7747" cy="5.99345" r="1.74345" fill="white"/>
<circle cx="30.4538" cy="7.5734" r="1.90689" fill="white"/>
<path d="M6.64746 7.30273C8.21267 6.88334 9.82181 7.81272 10.2412 9.37793C10.6604 10.943 9.73113 12.5513 8.16602 12.9707C6.60094 13.3899 4.99267 12.4615 4.57324 10.8965C4.15386 9.33132 5.08233 7.72218 6.64746 7.30273ZM9.65039 9.53516C9.31941 8.30054 8.05012 7.5676 6.81543 7.89844C5.58078 8.22932 4.84802 9.49872 5.17871 10.7334C5.50957 11.9682 6.7789 12.7009 8.01367 12.3701C9.24846 12.0393 9.98125 10.7699 9.65039 9.53516Z" fill="white"/>
<rect x="17.1953" y="3.95605" width="0.980689" height="12.8654" transform="rotate(-2.37682 17.1953 3.95605)" fill="white"/>
<rect x="28.877" y="8.50879" width="0.980689" height="12.6227" transform="rotate(46.5794 28.877 8.50879)" fill="white"/>
<rect x="16.7285" y="17.3081" width="0.980689" height="8.93762" transform="rotate(130.107 16.7285 17.3081)" fill="white"/>
<rect x="20.9551" y="12.5483" width="0.980689" height="5.14328" transform="rotate(-160.534 20.9551 12.5483)" fill="white"/>
<path d="M18.3086 16.6714C19.6927 16.6714 20.8145 17.7941 20.8145 19.1782C20.8143 20.5622 19.6926 21.6841 18.3086 21.6841C16.9246 21.6841 15.8029 20.5622 15.8027 19.1782C15.8027 17.7941 16.9245 16.6714 18.3086 16.6714ZM18.2549 17.4351C17.2621 17.4352 16.457 18.24 16.457 19.2329C16.4572 20.2256 17.2622 21.0306 18.2549 21.0308C19.2477 21.0308 20.0525 20.2257 20.0527 19.2329C20.0527 18.2399 19.2479 17.4351 18.2549 17.4351Z" fill="white"/>
<path d="M18.2705 11.3325C25.6802 11.387 28.1335 17.6495 28.9561 21.3579C29.6931 24.6811 29.549 29.2873 29.2578 32.4722C28.9487 35.8525 28.2174 37.9362 28.0771 39.2827C23.2827 40.1544 14.5664 40.9709 8.08301 39.1187C1.47575 37.2309 -1.28776 30.8924 0.564453 26.8062C2.25811 23.0701 4.32299 21.358 10.1523 21.3579C10.3884 17.9982 12.3429 11.2891 18.2705 11.3325ZM18.4648 13.1851C13.4499 13.1483 11.9271 17.5431 12.5264 23.645C7.73189 22.7188 4.24733 23.8591 2.81445 27.0142C0.641718 31.7987 3.39466 35.9561 8.98438 37.5503C14.4697 39.1146 22.0355 38.2864 26.0918 37.5503C26.2105 36.4132 26.8284 34.6531 27.0898 31.7983C27.3362 29.1088 27.4585 25.2198 26.835 22.4136C26.1391 19.282 24.7333 13.2313 18.4648 13.1851Z" fill="white"/>
</svg>
