<svg width="171" height="41" viewBox="0 0 171 41" fill="none" xmlns="http://www.w3.org/2000/svg">
<path d="M47.3118 40.6005C44.0647 40.6005 41.5258 39.696 39.6951 37.8872C37.8645 36.0784 36.9492 33.4959 36.9492 30.1398V17.3254H42.2449V29.9436C42.2449 32.1229 42.6917 33.6921 43.5852 34.6509C44.4787 35.6098 45.7318 36.0893 47.3445 36.0893C48.9572 36.0893 50.2103 35.6098 51.1038 34.6509C51.9973 33.6921 52.4441 32.1229 52.4441 29.9436V17.3254H57.6744V30.1398C57.6744 33.4959 56.7591 36.0784 54.9285 37.8872C53.0979 39.696 50.559 40.6005 47.3118 40.6005Z" fill="#2A9D8F"/>
<path d="M73.2375 22.3596C74.6323 22.3596 75.8745 22.643 76.9641 23.2096C78.0756 23.7544 78.9473 24.6043 79.5793 25.7594C80.2113 26.8926 80.5273 28.3527 80.5273 30.1398V40.2082H75.4277V30.9243C75.4277 29.5078 75.1117 28.4617 74.4797 27.7861C73.8695 27.1105 72.9978 26.7727 71.8645 26.7727C71.0582 26.7727 70.3281 26.9471 69.6743 27.2958C69.0423 27.6227 68.5411 28.1348 68.1706 28.8322C67.8219 29.5296 67.6476 30.4231 67.6476 31.5127V40.2082H62.548V22.6212H67.4188V27.4919L66.5034 26.0209C67.1354 24.8441 68.0399 23.9396 69.2167 23.3076C70.3935 22.6756 71.7338 22.3596 73.2375 22.3596Z" fill="#2A9D8F"/>
<path d="M85.1498 40.2082V22.6212H90.2494V40.2082H85.1498ZM87.6996 20.1694C86.7625 20.1694 85.9997 19.897 85.4113 19.3522C84.8229 18.8074 84.5287 18.1318 84.5287 17.3254C84.5287 16.5191 84.8229 15.8435 85.4113 15.2987C85.9997 14.7539 86.7625 14.4814 87.6996 14.4814C88.6367 14.4814 89.3995 14.743 89.9879 15.266C90.5763 15.7672 90.8705 16.421 90.8705 17.2274C90.8705 18.0773 90.5763 18.7856 89.9879 19.3522C89.4213 19.897 88.6585 20.1694 87.6996 20.1694Z" fill="#2A9D8F"/>
<path d="M106.293 40.6005C104.528 40.6005 102.882 40.3171 101.357 39.7505C99.853 39.1621 98.5454 38.334 97.434 37.2661C96.3225 36.1983 95.4508 34.9452 94.8188 33.5068C94.2086 32.0685 93.9035 30.4885 93.9035 28.7668C93.9035 27.0452 94.2086 25.4652 94.8188 24.0268C95.4508 22.5885 96.3225 21.3354 97.434 20.2675C98.5672 19.1996 99.8857 18.3824 101.389 17.8158C102.893 17.2274 104.539 16.9332 106.326 16.9332C108.309 16.9332 110.096 17.2819 111.687 17.9792C113.299 18.6548 114.65 19.6573 115.74 20.9867L112.34 24.1249C111.556 23.2314 110.684 22.5667 109.725 22.1308C108.766 21.6732 107.72 21.4443 106.587 21.4443C105.519 21.4443 104.539 21.6187 103.645 21.9674C102.751 22.3161 101.978 22.8173 101.324 23.4711C100.67 24.1249 100.158 24.8985 99.7876 25.7921C99.4389 26.6856 99.2646 27.6772 99.2646 28.7668C99.2646 29.8565 99.4389 30.8481 99.7876 31.7416C100.158 32.6351 100.67 33.4087 101.324 34.0625C101.978 34.7163 102.751 35.2176 103.645 35.5663C104.539 35.9149 105.519 36.0893 106.587 36.0893C107.72 36.0893 108.766 35.8714 109.725 35.4355C110.684 34.9778 111.556 34.2914 112.34 33.3761L115.74 36.5143C114.65 37.8436 113.299 38.857 111.687 39.5544C110.096 40.2518 108.298 40.6005 106.293 40.6005Z" fill="#2A9D8F"/>
<path d="M129.649 40.2082V36.7758L129.322 36.0239V29.8783C129.322 28.7886 128.984 27.9387 128.308 27.3285C127.655 26.7183 126.641 26.4132 125.268 26.4132C124.331 26.4132 123.405 26.5657 122.49 26.8708C121.596 27.1541 120.833 27.5464 120.201 28.0476L118.371 24.4845C119.33 23.8089 120.485 23.2859 121.836 22.9154C123.187 22.5449 124.56 22.3596 125.955 22.3596C128.635 22.3596 130.716 22.9916 132.198 24.2556C133.68 25.5196 134.421 27.4919 134.421 30.1725V40.2082H129.649ZM124.287 40.4697C122.915 40.4697 121.738 40.2409 120.757 39.7832C119.776 39.3038 119.024 38.6609 118.501 37.8545C117.978 37.0482 117.717 36.1438 117.717 35.1413C117.717 34.0952 117.967 33.1799 118.469 32.3954C118.992 31.6108 119.809 31.0006 120.92 30.5647C122.032 30.1071 123.481 29.8783 125.268 29.8783H129.943V32.853H125.824C124.625 32.853 123.797 33.0492 123.339 33.4414C122.904 33.8337 122.686 34.324 122.686 34.9125C122.686 35.5663 122.936 36.0893 123.438 36.4816C123.961 36.852 124.669 37.0373 125.562 37.0373C126.412 37.0373 127.175 36.8412 127.851 36.4489C128.526 36.0348 129.017 35.4355 129.322 34.6509L130.106 37.0046C129.736 38.1378 129.06 38.9987 128.079 39.5871C127.099 40.1755 125.835 40.4697 124.287 40.4697Z" fill="#2A9D8F"/>
<path d="M139.037 40.2082V22.6212H143.907V27.59L143.221 26.1516C143.744 24.9094 144.583 23.9723 145.738 23.3403C146.893 22.6865 148.299 22.3596 149.955 22.3596V27.067C149.737 27.0452 149.541 27.0343 149.367 27.0343C149.192 27.0125 149.007 27.0016 148.811 27.0016C147.416 27.0016 146.283 27.4047 145.411 28.2111C144.561 28.9956 144.136 30.2269 144.136 31.905V40.2082H139.037Z" fill="#2A9D8F"/>
<path d="M161.588 40.4697C159.583 40.4697 157.817 40.0774 156.292 39.2929C154.788 38.5083 153.622 37.4405 152.794 36.0893C151.966 34.7163 151.552 33.1581 151.552 31.4147C151.552 29.6494 151.955 28.0912 152.761 26.7401C153.59 25.3671 154.712 24.2992 156.128 23.5365C157.545 22.7519 159.147 22.3596 160.934 22.3596C162.655 22.3596 164.203 22.7301 165.576 23.4711C166.971 24.1903 168.071 25.2363 168.877 26.6093C169.684 27.9605 170.087 29.5841 170.087 31.4801C170.087 31.6762 170.076 31.905 170.054 32.1665C170.032 32.4063 170.011 32.6351 169.989 32.853H155.703V29.8783H167.308L165.347 30.7609C165.347 29.8456 165.162 29.0501 164.791 28.3745C164.421 27.699 163.909 27.1759 163.255 26.8054C162.601 26.4132 161.838 26.217 160.967 26.217C160.095 26.217 159.321 26.4132 158.646 26.8054C157.992 27.1759 157.48 27.7098 157.109 28.4072C156.739 29.0828 156.553 29.8892 156.553 30.8263V31.6108C156.553 32.5697 156.76 33.4196 157.175 34.1606C157.61 34.8798 158.21 35.4355 158.972 35.8278C159.757 36.1983 160.672 36.3835 161.718 36.3835C162.655 36.3835 163.473 36.2418 164.17 35.9585C164.889 35.6752 165.543 35.2503 166.131 34.6836L168.845 37.6257C168.038 38.541 167.025 39.2493 165.805 39.7505C164.584 40.23 163.179 40.4697 161.588 40.4697Z" fill="#2A9D8F"/>
<path d="M18.734 24.3545C19.2571 22.8726 20.9133 20.795 21.6761 19.9414C22.6205 20.6315 24.5311 22.4149 25.272 23.5917C26.1982 25.0628 26.961 27.4055 27.0155 29.0945C27.07 30.7835 26.1982 32.9628 25.7623 33.6166C25.4136 34.1396 24.7816 34.8515 24.5092 35.1421L25.7119 37.5938L24.7312 38.2476L24.5092 37.6483C24.0552 36.6313 23.0818 34.4011 22.8203 33.6166C22.4934 32.6359 22.1665 31.1104 21.7851 28.0048C21.7851 28.1865 21.6761 28.8112 21.6761 30.729C21.6761 31.8731 21.9485 33.889 22.5478 35.4145C21.7669 35.0331 20.7281 34.4447 20.2051 34.0524C19.5513 33.5621 18.2437 32.3635 17.8079 30.2386C17.3095 27.808 18.0802 26.2069 18.734 24.3545Z" fill="#2A9D8F"/>
<circle cx="17.5979" cy="2.01586" r="2.01586" fill="#2A9D8F"/>
<circle cx="22.7747" cy="5.99345" r="1.74345" fill="#2A9D8F"/>
<circle cx="30.4538" cy="7.57389" r="1.90689" fill="#2A9D8F"/>
<path d="M6.64746 7.30273C8.21267 6.88334 9.82181 7.81272 10.2412 9.37793C10.6604 10.943 9.73113 12.5513 8.16602 12.9707C6.60094 13.3899 4.99267 12.4615 4.57324 10.8965C4.15386 9.33132 5.08233 7.72218 6.64746 7.30273ZM9.65039 9.53516C9.31941 8.30054 8.05012 7.5676 6.81543 7.89844C5.58078 8.22932 4.84802 9.49872 5.17871 10.7334C5.50957 11.9682 6.7789 12.7009 8.01367 12.3701C9.24846 12.0393 9.98125 10.7699 9.65039 9.53516Z" fill="#2A9D8F"/>
<rect x="17.1953" y="3.95605" width="0.980689" height="12.8654" transform="rotate(-2.37682 17.1953 3.95605)" fill="#2A9D8F"/>
<rect x="28.875" y="8.50879" width="0.980689" height="12.6227" transform="rotate(46.5794 28.875 8.50879)" fill="#2A9D8F"/>
<rect x="16.7266" y="17.3086" width="0.980689" height="8.93762" transform="rotate(130.107 16.7266 17.3086)" fill="#2A9D8F"/>
<rect x="20.957" y="12.5479" width="0.980689" height="5.14328" transform="rotate(-160.534 20.957 12.5479)" fill="#2A9D8F"/>
<path d="M18.3066 16.6709C19.6908 16.6709 20.8125 17.7936 20.8125 19.1777C20.8123 20.5617 19.6907 21.6836 18.3066 21.6836C16.9226 21.6836 15.8009 20.5617 15.8008 19.1777C15.8008 17.7936 16.9225 16.6709 18.3066 16.6709ZM18.2529 17.4346C17.2601 17.4347 16.4551 18.2396 16.4551 19.2324C16.4553 20.2251 17.2602 21.0301 18.2529 21.0303C19.2458 21.0303 20.0506 20.2252 20.0508 19.2324C20.0508 18.2395 19.2459 17.4346 18.2529 17.4346Z" fill="#2A9D8F"/>
<path d="M18.2705 11.332C25.6798 11.3868 28.1325 17.649 28.9551 21.3574C29.6922 24.6806 29.548 29.2867 29.2568 32.4717C28.9477 35.8522 28.2174 37.9357 28.0771 39.2822C23.2827 40.1539 14.5657 40.9706 8.08203 39.1182C1.47475 37.2304 -1.28876 30.8919 0.563477 26.8057C2.25717 23.0695 4.32268 21.3574 10.1523 21.3574C10.3884 17.9977 12.3428 11.2884 18.2705 11.332ZM18.4639 13.1846C13.4489 13.1478 11.9261 17.5435 12.5254 23.6455C7.73099 22.7193 4.24738 23.8587 2.81445 27.0137C0.641475 31.7984 3.39438 35.9557 8.98438 37.5498C14.4695 39.114 22.0345 38.2859 26.0908 37.5498C26.2095 36.4128 26.8283 34.6534 27.0898 31.7988C27.3362 29.1093 27.4585 25.2194 26.835 22.4131C26.1391 19.2814 24.7326 13.2306 18.4639 13.1846Z" fill="#2A9D8F"/>
</svg>
