<svg width="100" height="100" viewBox="0 0 100 100" fill="none" xmlns="http://www.w3.org/2000/svg">
<circle cx="50" cy="50" r="50" fill="#E0F2F1"/>
<g clip-path="url(#clip0_1570_3228)">
<path d="M67.5138 59.0555C65.282 56.6375 62.5738 54.7078 59.5595 53.3879C56.5453 52.0681 53.2904 51.3867 49.9999 51.3867C46.7094 51.3867 43.4545 52.0681 40.4402 53.3879C37.426 54.7078 34.7177 56.6375 32.486 59.0555C32.1403 59.4358 31.9474 59.9305 31.9443 60.4444V68.7778C31.9516 69.3255 32.1744 69.8483 32.5643 70.233C32.9542 70.6177 33.4799 70.8334 34.0277 70.8333H65.9721C66.5247 70.8333 67.0546 70.6138 67.4453 70.2231C67.836 69.8324 68.0555 69.3025 68.0555 68.75V60.4166C68.0456 59.9123 67.8532 59.4287 67.5138 59.0555Z" fill="#2A9D8F"/>
<path d="M49.9996 48.6112C55.369 48.6112 59.7218 44.2584 59.7218 38.889C59.7218 33.5195 55.369 29.1667 49.9996 29.1667C44.6301 29.1667 40.2773 33.5195 40.2773 38.889C40.2773 44.2584 44.6301 48.6112 49.9996 48.6112Z" fill="#2A9D8F"/>
</g>
<defs>
<clipPath id="clip0_1570_3228">
<rect width="50" height="50" fill="white" transform="translate(25 25)"/>
</clipPath>
</defs>
</svg>
