<svg width="157" height="153" viewBox="0 0 157 153" fill="none" xmlns="http://www.w3.org/2000/svg">
<path d="M23.9503 32.2734C10.3474 32.2734 0.945312 43.5189 0.945312 56.6783C0.945312 71.4015 10.5498 81.541 23.9512 81.541C37.8689 81.541 46.9571 71.3072 46.9571 56.6783C46.9571 43.4295 37.5054 32.2734 23.9503 32.2734Z" fill="white"/>
<path d="M23.9512 31.291C18.7473 31.3092 13.5673 32.9511 9.3954 36.3202C5.45908 39.4988 2.55711 43.9407 1.10176 48.9767C-1.79422 58.9968 1.08289 70.9039 8.97806 77.3829C12.8205 80.536 17.556 82.1818 22.3689 82.4755C27.3395 82.779 32.4791 81.7412 36.8065 79.0474C40.7341 76.6025 43.8527 72.8252 45.6753 68.3829C47.7003 63.4475 48.3348 57.8338 47.5677 52.5144C46.8288 47.3884 44.5816 42.5296 41.1891 38.8127C37.6665 34.9534 32.9604 32.4309 27.9759 31.6255C26.6415 31.4099 25.3003 31.2954 23.9512 31.291C22.7669 31.2871 22.765 33.2516 23.9512 33.2556C28.7981 33.2723 33.5355 34.7962 37.441 37.8963C41.0414 40.7542 43.7027 44.9008 45.0233 49.4644C47.6487 58.5347 45.3164 69.5159 38.2747 75.6021C34.8271 78.5818 30.4325 80.1431 26.0425 80.4795C21.4072 80.8351 16.6653 79.9982 12.5776 77.5676C8.8207 75.3334 5.8603 71.8793 4.03501 67.7287C2.06847 63.2564 1.40728 57.9345 2.11034 53.0581C2.80236 48.2582 4.82274 43.7285 7.99847 40.2355C11.28 36.6257 15.6038 34.336 20.2464 33.5483C21.4707 33.3405 22.7126 33.2595 23.9512 33.2556C25.1351 33.2516 25.1374 31.2871 23.9512 31.291Z" fill="#2E6669"/>
<path d="M23.9537 37.5943C20.0584 37.6124 16.1759 38.8265 13.0439 41.3382C10.0798 43.7152 7.88733 47.0235 6.7651 50.7969C4.52478 58.3314 6.65744 67.3756 12.5966 72.2815C18.4162 77.0892 27.256 77.5465 33.6001 73.6233C40.0915 69.6088 42.8683 61.2507 41.7525 53.5556C40.5856 45.5079 34.5337 39.0559 26.9868 37.8477C25.981 37.6866 24.9715 37.5982 23.9542 37.5938C22.7699 37.5884 22.768 39.5529 23.9542 39.5583C27.5169 39.5745 30.9903 40.6884 33.8619 42.9682C36.4966 45.0605 38.4452 48.104 39.4105 51.4437C41.3375 58.1123 39.6245 66.1625 34.4509 70.6377C29.3597 75.0412 21.3104 75.4331 15.6509 72.089C9.73287 68.5917 6.92937 61.1028 7.93104 54.0944C8.43441 50.5715 9.92014 47.2421 12.2497 44.6793C14.6626 42.0248 17.8319 40.3539 21.2441 39.7705C22.1395 39.6172 23.0487 39.5622 23.9542 39.5583C25.1381 39.5529 25.1408 37.5888 23.9542 37.5943H23.9537Z" fill="#2E6669"/>
<path d="M23.8815 63.797C23.1018 63.797 22.4125 63.6896 21.8136 63.475C21.2148 63.249 20.7006 62.8987 20.2712 62.4241C19.8531 61.9495 19.5367 61.3393 19.322 60.5935C19.1073 59.8477 19 58.955 19 57.9155V51H21.4916V58.1358C21.4916 59.0059 21.5876 59.6952 21.7797 60.2037C21.9718 60.7122 22.243 61.0794 22.5933 61.3054C22.9549 61.5201 23.3843 61.6274 23.8815 61.6274C24.3787 61.6274 24.8081 61.5201 25.1697 61.3054C25.5313 61.0794 25.8081 60.7122 26.0002 60.2037C26.2036 59.6952 26.3053 59.0059 26.3053 58.1358V51H28.7122V57.9155C28.7122 58.955 28.6048 59.8477 28.3901 60.5935C28.1754 61.3393 27.859 61.9495 27.4409 62.4241C27.0228 62.8987 26.5143 63.249 25.9155 63.475C25.3166 63.6896 24.6386 63.797 23.8815 63.797Z" fill="#2E6669"/>
<path d="M137.588 37.8366C135.877 36.6469 133.301 36.6469 131.8 38.0892C130.908 37.7582 129.747 37.4316 128.855 37.1011C125.452 36.2142 121.58 31.0501 120.039 28.0654C118.808 25.6426 117.72 23.1518 116.782 20.6055C112.948 25.2661 107.045 28.9523 100.63 31.0998C100.534 31.1306 100.432 31.1365 100.334 31.117C100.235 31.0975 100.143 31.0532 100.067 30.9885C99.9905 30.9237 99.9326 30.8407 99.8987 30.7475C99.8647 30.6542 99.8557 30.5539 99.8728 30.4563C100.151 28.7668 100.333 27.1476 100.45 25.4646C98.9478 26.8448 97.3929 28.2552 95.8189 29.6467C93.0709 32.0743 90.2679 34.4463 87.5869 36.5079C86.9016 36.9822 86.1409 37.576 85.543 38.0097C85.5743 39.0021 85.6529 40.3736 85.8414 41.9987C86.1199 44.8594 86.7163 47.6814 87.6199 50.4142C88.5706 53.4303 90.0259 56.2692 91.9261 58.814C93.4417 60.9545 95.3509 62.7972 97.5551 64.2469C98.5495 64.8724 99.5978 65.411 100.688 65.8564C100.622 66.1446 100.55 66.4372 100.498 66.6492C99.952 68.4481 99.0286 70.1143 97.7876 71.5402C97.5413 71.8215 97.3182 72.0838 97.0692 72.332C96.8247 72.5787 96.5559 72.801 96.2668 72.9956C94.7724 73.9982 93.5979 74.32 92.3646 74.9051C95.0269 78.376 100.478 80.4024 104.353 80.7832C115.52 81.8805 125.245 79.1856 134.499 75.2015C131.899 73.7954 127.19 71.1519 126.106 68.9855C125.053 66.9076 124.327 64.6836 123.956 62.3903C124.53 61.922 125.031 61.4791 125.463 61.0924C127.82 58.9865 129.819 56.5232 131.386 53.7958C133.942 52.7734 136.171 51.0932 137.84 48.9313C139.139 47.2951 139.916 45.3162 140.072 43.2452C140.137 42.2128 139.944 41.1804 139.511 40.2378C139.078 39.2953 138.418 38.471 137.588 37.8366Z" fill="white"/>
<path d="M62.4879 115.98C61.1414 116.778 60.0975 117.989 59.5156 119.426C59.7179 122.58 63.9053 132.841 65.2254 135.996C66.1705 138.198 67.4222 140.261 68.9446 142.124C70.3549 143.766 72.4483 145.031 74.7006 144.996C77.9652 144.946 82.4352 141.21 83.3843 138.29L83.8163 136.964C83.475 141.516 82.7402 147.37 82.0894 151.112H140.828L144.23 150.518C148.611 149.751 151.937 144.079 152.359 142.59C155.005 133.267 155.121 125.048 154.983 114.874C154.901 112.444 154.804 110.017 154.708 107.593C154.449 101.175 153.938 93.4268 150.829 87.7797C147.935 82.5231 139.844 77.2124 135.159 74.9177C125.709 79.0581 115.789 81.9082 104.358 80.7849C100.321 80.3885 94.5748 78.2064 92.0521 74.4678C88.361 76.1681 82.3824 78.6417 79.0556 82.369L62.4879 115.98Z" fill="white"/>
<path d="M109.683 96.8746C109.087 95.9011 108.465 94.9432 107.817 94.0008C107.218 93.0475 106.481 92.1854 105.629 91.4417C104.776 90.8445 103.862 90.3351 102.903 89.9215C98.8488 87.8869 94.3432 85.8611 90.5762 84.3706C88.7312 83.6411 87.2566 83.0354 85.7886 83.3588C85.3793 83.4587 85.0085 83.674 84.7217 83.9782C84.4348 84.2824 84.2445 84.6624 84.1739 85.0715C84.1582 85.433 84.2351 85.7926 84.3976 86.1172C84.5601 86.4419 84.803 86.7211 85.1038 86.9292C85.6958 87.4123 86.3432 87.8256 87.0329 88.1606C89.6122 89.5315 93.472 91.5287 95.9969 93.103C94.325 94.3224 92.7129 95.6165 91.1604 96.9855C90.3734 97.6793 89.6215 98.417 89.5248 99.4521C89.3978 100.789 89.9931 101.769 91.5034 102.649L92.5102 103.236C92.3879 103.545 92.3396 103.878 92.3691 104.209C92.3987 104.54 92.5053 104.86 92.6806 105.144C93.2225 106.027 94.1255 106.585 95.876 106.709C95.8304 107.576 96.0757 108.433 96.574 109.15C98.1255 111.523 100.027 113.044 102.876 113.061C103.209 113.077 103.541 113.003 103.836 112.848C104.026 112.951 104.132 113.011 104.132 113.011C104.926 113.446 105.748 113.901 106.236 114.131C106.643 114.295 107.021 114.521 107.357 114.799C107.654 115.113 107.905 115.466 108.103 115.848C109.08 117.463 110.045 118.315 111.346 119.685L111.62 119.916C111.95 119.646 112.193 119.4 112.39 119.226C114.049 117.73 115.573 116.096 116.946 114.342C117.809 113.27 118.592 112.139 119.289 110.956L118.959 110.819C117.372 110.055 116.64 109.219 115.619 107.79C114.333 105.988 113.452 103.938 112.473 101.95C111.62 100.217 110.69 98.5251 109.683 96.8746Z" fill="white"/>
<path d="M68.3214 118.171C67.1992 118.539 66.007 118.652 64.8342 118.502C64.2876 118.457 63.7689 118.245 63.3503 117.896C62.7116 117.275 62.7506 116.274 62.7166 115.391C62.5462 110.914 59.7317 108.394 57.2585 104.629C56.7638 103.674 54.8441 101.582 54.3961 99.3519C54.291 97.698 54.3332 96.0383 54.522 94.3916C54.5456 93.4946 54.6849 92.6042 54.9364 91.7417C55.1887 91.1838 55.484 90.6458 55.8196 90.1322C57.8773 87.0514 60.2164 84.1618 62.8078 81.4993C63.4244 80.8835 64.2598 80.5273 65.1381 80.5059C65.6066 80.5342 66.0472 80.7344 66.3728 81.0669C66.6985 81.3995 66.8855 81.8402 66.8968 82.3019C66.8461 83.0145 66.6083 83.7019 66.2065 84.2969C64.0752 87.3995 61.8647 90.6833 59.8861 93.4392C63.5217 91.1987 68.284 88.4406 72.1615 86.18C73.4019 85.4569 74.4368 84.8529 75.8598 85.0832C76.2384 85.1509 76.5923 85.3155 76.8857 85.5606C77.1791 85.8056 77.4017 86.1224 77.5311 86.4791C78.1906 88.7234 75.9856 89.1177 75.8405 89.5546C77.8317 89.0371 78.9425 89.5238 79.358 90.9153C79.4795 91.3832 79.4631 91.8756 79.3106 92.3346C79.158 92.7937 78.8757 93.2005 78.4968 93.5074L75.4981 95.8366L76.1901 95.6933C77.2123 95.4819 77.8713 95.5938 78.3687 96.5137C78.565 96.9193 78.6389 97.3717 78.5818 97.8174C78.5246 98.263 78.3387 98.6831 78.0461 99.0279C76.8133 100.673 74.8804 102.37 73.0716 103.949C74.5836 107.889 74.6759 110.112 73.9779 113.786C73.9257 114.226 73.7656 114.648 73.5113 115.014C72.0763 116.476 70.2921 117.562 68.3214 118.171Z" fill="white"/>
<path d="M81.6316 67.9891C81.8658 70.6153 83.1958 73.7758 86.8908 76.2727C86.8908 76.2727 87.1535 76.3635 87.6322 76.5149C89.2398 75.7286 90.7798 75.0504 92.0477 74.4664C92.1483 74.6151 92.2626 74.7579 92.373 74.899C93.6036 74.3166 94.7759 73.9937 96.2675 72.9932C96.5566 72.7987 96.8254 72.5764 97.07 72.3297C97.3189 72.0814 97.5421 71.8191 97.7883 71.5379C99.0293 70.1119 99.9528 68.4457 100.499 66.6469C100.551 66.4349 100.623 66.1423 100.689 65.854C99.5985 65.4086 98.5503 64.8701 97.5558 64.2446C95.3516 62.7949 93.4424 60.9522 91.9268 58.8116C90.0267 56.2668 88.5713 53.4279 87.6206 50.4118C86.717 47.6791 86.1206 44.857 85.8421 41.9964C85.6514 40.3712 85.575 38.9997 85.5437 38.0074C86.1417 37.5747 86.9023 36.9798 87.5877 36.5056C90.2708 34.444 93.0743 32.0709 95.8196 29.6443C97.3937 28.2528 98.9485 26.8424 100.451 25.4623C100.334 27.1453 100.152 28.7644 99.8735 30.4539C99.8565 30.5516 99.8654 30.6519 99.8994 30.7451C99.9334 30.8384 99.9913 30.9214 100.067 30.9862C100.144 31.0509 100.236 31.0952 100.334 31.1147C100.433 31.1342 100.535 31.1283 100.631 31.0975C107.046 28.9499 112.949 25.2638 116.783 20.6058C117.721 23.1522 118.808 25.643 120.039 28.0657C121.578 31.0504 125.453 36.2146 128.856 37.1015C129.748 37.4319 130.909 37.7586 131.801 38.0896C133.3 36.6478 135.878 36.6445 137.588 37.837C138.418 38.4715 139.078 39.2958 139.511 40.2383C139.943 41.1808 140.136 42.2129 140.071 43.2451C139.915 45.3161 139.138 47.2949 137.838 48.9311C136.17 51.093 133.94 52.7732 131.384 53.7957C129.818 56.523 127.818 58.9863 125.461 61.0922C125.029 61.4773 124.527 61.9202 123.954 62.3902C124.326 64.6834 125.051 66.9074 126.105 68.9853C127.188 71.1485 131.891 73.7936 134.492 75.1981C134.712 75.1034 134.932 75.012 135.152 74.9158C135.878 75.2716 136.691 75.7075 137.551 76.197C138.901 75.7789 139.676 75.5036 139.676 75.5036C145.437 73.4015 145.532 69.8344 145.578 67.7588C145.649 65.2051 145.265 62.6589 144.443 60.2356C143.423 56.9086 141.554 50.1539 141.792 38.2096C142.225 34.7625 142.064 29.7547 141.985 27.8294C141.71 21.1558 138.843 13.6148 134.495 9.32786C134.454 9.28784 134.406 9.24457 134.357 9.20185C133.233 8.22177 132.046 7.31283 130.805 6.48051C130.722 6.41994 130.64 6.36424 130.548 6.30637C128.828 5.17387 126.974 4.25117 125.027 3.55853C121.034 2.02164 116.778 1.25491 112.49 1.30013C105.394 1.21275 98.5041 3.64525 93.0831 8.1516C85.9163 14.3741 81.6173 23.0324 82.7215 37.1729C84.2714 47.7895 80.8265 59.2356 81.6316 67.9891Z" fill="#2E6669"/>
<path d="M85.4962 96.6363C83.3643 90.1558 78.6746 75.7071 76.6234 69.3061C76.3979 68.6001 75.9028 68.0076 75.2424 67.6534C74.582 67.2991 73.8077 67.2108 73.0824 67.4068C68.9323 68.5225 62.6888 70.2152 58.3783 71.4245C58.0081 71.5281 57.6624 71.703 57.3614 71.9391C57.0604 72.1752 56.8099 72.4677 56.6247 72.7997C56.4394 73.1317 56.323 73.4966 56.2821 73.8733C56.2412 74.2499 56.2767 74.6308 56.3865 74.9938C57.1692 77.5794 58.0996 80.5316 59.056 83.3103L59.6292 85.0344C60.5822 83.8917 61.605 82.7527 62.807 81.497C63.4236 80.8812 64.259 80.525 65.1373 80.5035C65.6058 80.5318 66.0464 80.7321 66.372 81.0646C66.6977 81.3972 66.8847 81.8379 66.896 82.2996C66.8453 83.0121 66.6074 83.6996 66.2057 84.2946C64.6751 86.5227 63.1049 88.8411 61.6083 90.9935L61.993 92.1552C65.2439 90.1986 68.9928 88.024 72.1607 86.1777C73.4011 85.4546 74.436 84.8505 75.859 85.0809C76.2376 85.1486 76.5915 85.3132 76.8849 85.5583C77.1783 85.8033 77.4009 86.1201 77.5303 86.4767C78.1898 88.7211 75.9848 89.1153 75.8397 89.5523C77.8309 89.0342 78.9417 89.5215 79.3572 90.913C79.4787 91.3809 79.4623 91.8732 79.3097 92.3323C79.1572 92.7914 78.8749 93.1982 78.4959 93.5051L75.4973 95.8343L76.1893 95.691C77.2115 95.4795 77.8705 95.5915 78.3679 96.5114C78.5642 96.9169 78.6381 97.3694 78.581 97.815C78.5238 98.2607 78.3379 98.6808 78.0453 99.0256C76.6671 100.7 75.1261 102.239 73.444 103.619L73.6177 103.571C75.0686 103.1 80.3695 101.361 83.6847 100.218C84.4024 99.9723 84.9938 99.4599 85.3324 98.7905C85.6709 98.1211 85.7297 97.3479 85.4962 96.6363Z" fill="#2E6669"/>
<path d="M122.761 63.2161C123.102 64.9749 123.637 66.6921 124.355 68.3375C124.846 69.582 125.614 70.7029 126.602 71.6186C128.729 73.5357 131.313 74.9645 133.829 76.3236C135.318 77.1272 136.651 74.8867 135.16 74.0825C132.891 72.8581 130.526 71.5948 128.586 69.8907C128.374 69.7036 128.166 69.5121 127.969 69.3082C127.869 69.206 127.772 69.1006 127.678 68.9935C127.398 68.6766 127.788 69.1655 127.552 68.841C127.209 68.3201 126.923 67.7646 126.7 67.184C126.067 65.6851 125.598 64.1242 125.302 62.5276C125.206 62.1976 124.983 61.9176 124.68 61.7478C124.377 61.578 124.019 61.532 123.682 61.6196C123.348 61.717 123.066 61.9377 122.894 62.2353C122.723 62.5329 122.675 62.8844 122.761 63.2161Z" fill="#2E6669"/>
<path d="M93.7238 75.7167C95.5155 74.9595 97.2133 74.177 98.5131 72.6941C99.9162 71.1357 100.988 69.3165 101.664 67.3439C101.755 67.012 101.708 66.6586 101.536 66.36C101.363 66.0613 101.079 65.8413 100.743 65.7474C100.406 65.6637 100.049 65.7112 99.7466 65.8801C99.4444 66.0489 99.22 66.3261 99.1204 66.6538C99.0522 66.8599 98.9802 67.0643 98.9005 67.2666C98.9005 67.2666 98.7456 67.6451 98.833 67.4412C98.789 67.5418 98.7428 67.6413 98.6961 67.7409C98.4978 68.1597 98.2777 68.5682 98.0366 68.9647C97.8079 69.3422 97.5619 69.7088 97.2985 70.0647C97.2814 70.088 97.0891 70.3421 97.1622 70.248C97.2353 70.1539 97.0374 70.4016 97.0193 70.4238C96.872 70.6023 96.7192 70.7764 96.5658 70.95C96.3038 71.2576 96.0157 71.5427 95.7046 71.8023L95.7107 71.7974L95.5974 71.8759C95.4738 71.9543 95.3529 72.0381 95.2281 72.1144C95.0346 72.2341 94.8381 72.3482 94.6384 72.4567C93.907 72.8332 93.1567 73.1733 92.3905 73.4756C92.0892 73.6499 91.8702 73.9345 91.7815 74.2672C91.6929 74.5999 91.7417 74.9536 91.9173 75.251C92.1012 75.5403 92.3904 75.7496 92.7259 75.8362C93.0613 75.9227 93.4177 75.88 93.7222 75.7167H93.7238Z" fill="#2E6669"/>
<path d="M132.732 39.0081C133.879 37.9605 135.78 38.0817 136.973 38.9983C138.402 40.0973 138.92 42.0469 138.713 43.7574C138.205 47.9606 134.446 51.0762 130.744 52.6661C130.444 52.8414 130.226 53.126 130.137 53.4583C130.049 53.7906 130.097 54.1439 130.271 54.4416C130.453 54.7325 130.742 54.9432 131.078 55.0299C131.414 55.1166 131.771 55.0727 132.075 54.9072C135.968 53.2362 139.306 50.2482 140.785 46.2641C142.183 42.5028 141.044 37.595 136.931 36.0553C135.913 35.673 134.809 35.5749 133.739 35.7719C132.668 35.9689 131.675 36.4533 130.867 37.1715C129.62 38.3104 131.488 40.1427 132.735 39.0102L132.732 39.0081Z" fill="#2E6669"/>
<path d="M84.2276 38.1019C84.3406 42.9677 85.2509 47.7837 86.9234 52.3641C88.6366 56.8603 91.4406 61.2587 95.3208 64.2499C102.942 70.1258 114.133 70.4151 122.208 65.2666C126.471 62.5074 130.01 58.7952 132.536 54.4332C133.381 52.9806 131.102 51.6713 130.258 53.1228C128.216 56.6372 125.465 59.7037 122.175 62.1343C118.768 64.6792 114.652 66.1401 110.379 66.3216C106.105 66.5031 101.877 65.3965 98.2601 63.1499C94.4678 60.7374 91.6385 56.7895 89.8957 52.7415C87.9897 48.0835 86.9629 43.1225 86.8657 38.1019C86.8042 36.4362 84.1655 36.4281 84.2276 38.1019Z" fill="#2E6669"/>
<path d="M131.474 5.35976C128.258 3.10189 124.29 1.6601 120.449 0.827801C116.144 -0.103921 111.702 -0.250563 107.343 0.395156C100.501 1.4207 94.222 4.72101 89.5516 9.74678C85.0135 14.6438 82.4518 20.716 81.5895 27.2532C81.3392 29.1973 81.2208 31.1555 81.235 33.115C81.2443 35.3323 81.5158 37.4956 81.6835 39.7015C82.0248 44.1902 81.6285 48.6962 81.1493 53.1611C80.7052 57.3102 80.1286 61.4798 80.1924 65.6608C80.1506 67.3642 80.3764 69.0638 80.8618 70.6994C81.4541 72.4114 82.4161 73.9769 83.6818 75.2882C84.4535 76.0743 85.3055 76.78 86.2243 77.3941C86.5271 77.5646 86.8858 77.6114 87.2232 77.5243C87.5606 77.4372 87.8499 77.2232 88.0286 76.9285C88.1983 76.6296 88.2437 76.2778 88.1555 75.9467C88.0673 75.6156 87.8522 75.3309 87.5554 75.1524C86.0661 74.1606 84.8369 72.8354 83.9687 71.2857C83.3229 70.0463 82.9565 68.6844 82.8948 67.2929C82.6376 63.4088 83.0943 59.5053 83.5158 55.6461C84.0798 51.3644 84.3905 47.0542 84.4463 42.7371C84.4265 40.5846 84.122 38.4771 83.9852 36.3361C83.8532 34.3616 83.8374 32.3813 83.9379 30.405C84.2677 24.2517 86.1056 18.1606 89.9533 13.2826C93.6675 8.52624 98.8759 5.11207 104.767 3.57185C112.374 1.6241 120.442 2.49142 127.442 6.00927C128.377 6.48089 129.279 7.01276 130.142 7.6014C130.445 7.77238 130.804 7.81938 131.142 7.73226C131.479 7.64515 131.769 7.43091 131.947 7.13577C132.116 6.83682 132.162 6.48514 132.073 6.1542C131.985 5.82325 131.771 5.53862 131.474 5.35976H131.474Z" fill="#2E6669"/>
<path d="M140.029 76.7559C142.823 75.7138 145.353 74.0519 146.394 71.1781C147.234 68.8607 146.994 65.9863 146.623 63.6284C146.263 61.344 145.445 59.1646 144.888 56.9224C144.337 54.6958 143.923 52.4383 143.65 50.1623C143.194 46.194 143.015 42.1996 143.113 38.2073L142.145 39.4587C142.418 39.3732 142.657 39.2073 142.83 38.9834C143.003 38.7595 143.102 38.4885 143.113 38.2073C143.534 34.4142 143.577 30.59 143.243 26.7887C142.888 22.3266 141.621 17.9811 139.516 14.0132C138.442 11.8847 137.014 9.94732 135.292 8.28065C134.05 7.14496 132.18 8.97559 133.427 10.1161C136.344 12.7866 138.185 16.6924 139.332 20.3844C140.448 23.9819 140.722 27.602 140.761 31.3385C140.816 33.6315 140.721 35.9256 140.477 38.2067L141.446 36.9596C141.171 37.0415 140.93 37.2066 140.756 37.4313C140.583 37.6559 140.485 37.9288 140.478 38.211C140.282 44.2807 140.806 50.3522 142.038 56.3026C142.415 57.9986 142.918 59.6513 143.398 61.3192C143.908 63.0098 144.199 64.7571 144.265 66.5195C144.281 67.1074 144.273 67.6974 144.249 68.2853C144.242 68.4437 144.235 68.6022 144.223 68.7606C144.215 68.8602 144.205 68.9597 144.197 69.0592C144.164 69.4329 144.216 69.0051 144.175 69.2317C144.063 70.1564 143.7 71.0344 143.124 71.7735C142.107 72.9176 140.798 73.7737 139.332 74.2531C139 74.3525 138.719 74.5735 138.548 74.8705C138.376 75.1676 138.327 75.518 138.411 75.8495C138.506 76.18 138.729 76.4604 139.033 76.63C139.337 76.7996 139.696 76.8448 140.033 76.7559H140.029Z" fill="#2E6669"/>
<path d="M115.561 21.1017C116.779 24.4228 118.161 27.8861 120.177 30.8286C122.054 33.5667 124.505 36.5725 127.617 37.9986C127.922 38.1627 128.278 38.2059 128.614 38.1193C128.949 38.0327 129.239 37.8229 129.422 37.533C129.596 37.2351 129.643 36.8819 129.555 36.5497C129.466 36.2175 129.249 35.9328 128.949 35.757C126.178 34.4877 124.007 31.8194 122.354 29.3668C120.513 26.6406 119.226 23.4758 118.105 20.4122C118.004 20.085 117.779 19.8084 117.477 19.6396C117.175 19.4708 116.819 19.4227 116.482 19.5052C116.146 19.5994 115.861 19.8196 115.689 20.1183C115.517 20.417 115.471 20.7698 115.561 21.1017Z" fill="#2E6669"/>
<path d="M115.841 19.6979C113.862 22.0531 111.522 24.0916 108.907 25.7403C107.556 26.6005 106.152 27.3771 104.703 28.0658C103.968 28.4162 103.224 28.7477 102.466 29.0484C101.709 29.4032 100.917 29.6817 100.103 29.8796H100.804C101.044 30.6054 101.179 30.7799 101.209 30.4031C101.223 30.315 101.237 30.2268 101.25 30.1381C101.283 29.9189 101.315 29.6995 101.346 29.48C101.41 29.017 101.472 28.553 101.527 28.089C101.629 27.2161 101.707 26.3411 101.769 25.465C101.854 24.2866 100.3 23.8291 99.5161 24.5456C95.1213 28.6811 90.5155 32.5938 85.7167 36.2687C85.423 36.4498 85.2106 36.7343 85.1227 37.0642C85.0348 37.3941 85.078 37.7445 85.2435 38.0442C85.4215 38.3399 85.7109 38.5546 86.0487 38.6417C86.3866 38.7289 86.7458 38.6815 87.0484 38.5098C92.0322 34.7089 96.8161 30.6608 101.381 26.3811L99.1281 25.4618C99.0297 26.8387 98.8934 28.2123 98.6829 29.5773C98.4954 30.1929 98.5289 30.8533 98.778 31.4474C98.9444 31.7411 99.1867 31.9863 99.4804 32.1581C99.7741 32.3299 100.109 32.4222 100.45 32.4257C101.016 32.3634 101.566 32.2071 102.078 31.9633C102.661 31.7503 103.239 31.5226 103.812 31.2857C104.917 30.8293 106.005 30.3371 107.068 29.7925C111.143 27.7715 114.761 24.9607 117.705 21.529C117.943 21.2811 118.076 20.9527 118.076 20.6113C118.076 20.2699 117.943 19.9415 117.705 19.6935C117.456 19.4525 117.121 19.3174 116.772 19.3174C116.423 19.3174 116.088 19.4525 115.839 19.6935L115.841 19.6979Z" fill="#2E6669"/>
<path d="M61.8174 114.858C60.9311 115.396 60.147 116.082 59.5003 116.885C58.9226 117.611 58.1691 118.627 58.2043 119.585C58.3171 120.773 58.5768 121.943 58.9776 123.07C59.8784 126.081 61.0111 129.027 62.1653 131.951C63.2645 134.734 64.3175 137.569 65.8993 140.128C66.9239 141.952 68.3239 143.546 70.0098 144.808C70.8513 145.406 71.8053 145.833 72.8162 146.065C73.8272 146.297 74.8749 146.328 75.8982 146.157C77.8823 145.786 79.7086 144.609 81.2129 143.329C82.7604 142.09 83.9475 140.47 84.6539 138.634C85.198 137.048 82.6506 136.367 82.1098 137.944C81.5897 139.161 80.7929 140.244 79.7806 141.11C78.7081 142.15 77.4186 142.948 76.0015 143.449C72.6275 144.52 69.9631 141.655 68.2983 139.015C66.9725 136.756 65.859 134.383 64.9716 131.925C63.9196 129.283 62.899 126.625 62.0087 123.926C61.5844 122.702 61.2306 121.457 60.949 120.194C60.921 120.057 60.8941 119.92 60.8704 119.783C60.8616 119.735 60.8556 119.687 60.8473 119.639C60.8155 119.46 60.9133 119.872 60.8567 119.713C60.7737 119.481 60.9397 119.522 60.8138 119.701C60.9496 119.509 61.0337 119.265 61.159 119.062C61.6557 118.263 62.3375 117.591 63.1485 117.101C64.583 116.215 63.2585 113.968 61.8174 114.86V114.858Z" fill="#2E6669"/>
<path d="M130.888 109.71C130.809 112.972 130.821 116.235 130.742 119.499C130.742 119.843 130.881 120.173 131.129 120.416C131.376 120.66 131.711 120.797 132.061 120.797C132.411 120.797 132.747 120.66 132.994 120.416C133.241 120.173 133.38 119.843 133.38 119.499C133.459 116.237 133.447 112.974 133.526 109.71C133.526 109.366 133.388 109.036 133.14 108.792C132.893 108.549 132.557 108.412 132.207 108.412C131.858 108.412 131.522 108.549 131.275 108.792C131.027 109.036 130.888 109.366 130.888 109.71Z" fill="#2E6669"/>
<path d="M79.7245 107.841C79.0167 109.544 78.5841 111.345 78.4423 113.179C78.4231 115.033 78.7253 116.877 79.3359 118.631C80.4289 121.873 81.3556 125.168 82.1125 128.502C82.2807 129.327 82.4368 130.154 82.5808 130.984C82.7022 131.681 82.6 130.822 82.6357 131.348C82.6484 131.533 82.6632 131.717 82.6714 131.902C82.711 132.831 82.6786 133.764 82.6346 134.692C82.5148 137.249 82.2658 139.802 81.9806 142.346C81.6646 145.162 81.2963 147.971 80.8132 150.767C80.7306 151.098 80.78 151.448 80.9513 151.745C81.1226 152.042 81.4027 152.263 81.7344 152.363C82.0717 152.452 82.4308 152.406 82.7344 152.237C83.038 152.067 83.2617 151.787 83.3574 151.457C84.2598 146.268 84.8792 141.035 85.2128 135.781C85.3981 133.868 85.3531 131.94 85.0787 130.037C84.5063 126.697 83.686 123.403 82.6242 120.181C81.9949 118.309 81.2502 116.395 81.1012 114.414C80.9462 112.358 81.5475 110.437 82.268 108.531C82.3578 108.199 82.3115 107.846 82.1391 107.547C81.9667 107.249 81.682 107.028 81.3464 106.934C81.0093 106.85 80.6522 106.898 80.3498 107.067C80.0475 107.236 79.8237 107.513 79.7245 107.841Z" fill="#2E6669"/>
<path d="M153.381 107.592C153.722 116.061 154.07 124.617 152.984 133.051C152.729 135.027 152.37 136.992 151.927 138.935C151.702 139.925 151.454 140.908 151.182 141.886C151.118 142.118 151.046 142.343 150.969 142.57C150.895 142.786 151.075 142.354 150.965 142.582C150.913 142.691 150.864 142.799 150.811 142.904C149.699 145.137 147.984 147.348 145.754 148.591C144.428 149.331 142.832 149.479 141.317 149.546C139.68 149.631 138.039 149.463 136.455 149.046C133.187 148.164 130.417 146.18 127.975 143.93C123.92 140.088 120.07 136.043 116.439 131.811C114.643 129.775 112.872 127.717 111.168 125.605C110.991 125.386 110.814 125.165 110.639 124.944C110.6 124.895 110.412 124.657 110.54 124.819C110.455 124.711 110.37 124.603 110.285 124.495C110.004 124.131 109.727 123.766 109.456 123.395C109.241 123.099 109.029 122.8 108.829 122.494C108.778 122.416 108.639 122.185 108.648 122.211C108.625 121.928 108.66 121.643 108.75 121.373C109.043 120.656 109.445 119.986 109.942 119.387C110.116 119.089 110.164 118.736 110.075 118.404C109.987 118.072 109.769 117.787 109.469 117.611C109.165 117.445 108.808 117.401 108.472 117.487C108.136 117.574 107.846 117.785 107.665 118.077C106.594 119.549 105.356 121.607 106.319 123.438C106.716 124.113 107.166 124.756 107.666 125.36C109.238 127.432 110.915 129.426 112.613 131.399C116.556 135.981 120.626 140.501 124.985 144.706C127.379 147.014 129.968 149.214 133.052 150.575C136.578 152.083 140.481 152.518 144.259 151.824C147.546 151.291 150.076 148.806 151.893 146.207C152.571 145.274 153.125 144.26 153.542 143.19C154.147 141.343 154.606 139.453 154.913 137.536C156.582 128.883 156.504 119.977 156.165 111.212C156.118 110.006 156.07 108.8 156.021 107.594C155.954 105.93 153.315 105.921 153.383 107.594L153.381 107.592Z" fill="#2E6669"/>
<path d="M81.3377 81.9497C84.6326 79.1008 88.7794 77.3929 92.7112 75.5872L90.9063 75.1215C94.0544 79.6827 100.01 81.7518 105.378 82.172C112.167 82.6444 118.985 81.8707 125.486 79.8904C129.009 78.8209 132.46 77.5336 135.819 76.036H134.487C138.918 78.175 142.972 80.9992 146.495 84.4012C148.226 86.0526 149.605 88.0267 150.552 90.2084C151.586 92.8095 152.289 95.5262 152.646 98.2967C153.056 101.38 153.302 104.482 153.383 107.591C153.451 109.256 156.089 109.264 156.022 107.591C155.783 101.708 155.452 95.5705 153.295 90.0148C152.343 87.519 150.903 85.2309 149.057 83.2796C147.11 81.2736 144.962 79.4666 142.646 77.8861C140.623 76.4537 138.499 75.1655 136.29 74.0313C135.994 73.8486 135.669 73.7169 135.328 73.6419C134.881 73.633 134.441 73.7511 134.061 73.982C133.312 74.3065 132.559 74.6216 131.802 74.9274C130.366 75.5044 128.914 76.0468 127.447 76.5438C121.499 78.6381 115.231 79.7162 108.914 79.7314C105.749 79.7032 102.778 79.4642 99.7939 78.3793C97.2998 77.473 94.7107 76.0203 93.1866 73.8128C93.0023 73.5239 92.7131 73.3149 92.3778 73.2284C92.0425 73.1419 91.6863 73.1844 91.3817 73.3471C87.2196 75.2583 82.9607 77.1003 79.4746 80.1153C78.1968 81.2202 80.0687 83.0503 81.3399 81.9508L81.3377 81.9497Z" fill="#2E6669"/>
<path d="M103.466 114.129C104.197 114.53 104.923 114.94 105.678 115.299C105.877 115.39 106.072 115.491 106.261 115.602C106.341 115.65 106.476 115.755 106.335 115.636C106.424 115.713 106.508 115.796 106.586 115.884C106.463 115.749 106.573 115.869 106.627 115.95C106.68 116.031 106.733 116.112 106.784 116.199C106.9 116.389 107.011 116.581 107.131 116.768C108.096 118.147 109.195 119.43 110.413 120.6C110.662 120.841 110.997 120.976 111.345 120.976C111.694 120.976 112.029 120.841 112.278 120.6C112.519 120.353 112.653 120.024 112.653 119.682C112.653 119.34 112.519 119.011 112.278 118.764C111.698 118.155 111.097 117.564 110.535 116.938C110.416 116.804 110.297 116.668 110.183 116.532C110.113 116.448 110.043 116.364 109.975 116.279C110.092 116.424 110.01 116.323 109.944 116.233C109.681 115.882 109.437 115.517 109.212 115.14C108.979 114.717 108.698 114.322 108.373 113.961C108.009 113.607 107.584 113.318 107.118 113.109C106.329 112.73 105.564 112.308 104.797 111.887C104.648 111.801 104.483 111.745 104.311 111.722C104.139 111.699 103.965 111.709 103.797 111.752C103.63 111.796 103.472 111.871 103.334 111.974C103.196 112.077 103.08 112.206 102.993 112.353C102.905 112.5 102.848 112.663 102.825 112.832C102.801 113 102.812 113.172 102.856 113.337C102.9 113.502 102.976 113.657 103.081 113.793C103.185 113.928 103.316 114.043 103.466 114.129Z" fill="#2E6669"/>
<path d="M96.2235 91.7095C94.6225 90.7425 92.9775 89.8459 91.3276 88.9622C89.7591 88.1223 88.1031 87.3679 86.601 86.4161C86.185 86.1522 85.2523 85.6151 85.5568 85.0305C85.8283 84.5124 86.5554 84.5238 87.0616 84.5865C88.0272 84.7658 88.966 85.0642 89.8558 85.4745C90.7689 85.8351 91.6775 86.2048 92.5818 86.5837C94.4944 87.3917 96.3907 88.2368 98.2708 89.119C100.175 90.0103 102.129 90.8799 103.964 91.9053C105.678 92.8636 106.69 94.619 107.719 96.2128C108.845 97.9574 109.883 99.7533 110.833 101.6C112.734 105.295 114.279 109.952 118.296 111.937C119.809 112.685 121.146 110.446 119.627 109.695C117.939 108.861 116.898 107.473 115.958 105.895C114.797 103.951 113.931 101.851 112.88 99.8486C111.82 97.8274 110.651 95.8633 109.378 93.9646C108.782 93.0258 108.114 92.1332 107.38 91.2947C106.601 90.4807 105.677 89.8146 104.653 89.3294C100.564 87.2884 96.4202 85.3572 92.185 83.6244C90.2037 82.8132 88.0465 81.7208 85.8393 82.0404C83.6321 82.36 82.1256 84.7185 83.2479 86.7454C83.8256 87.787 84.9374 88.5025 85.9619 89.0644C86.9022 89.5803 87.8585 90.0698 88.806 90.5727C90.8555 91.6597 92.905 92.7538 94.8901 93.9527C96.3406 94.8289 97.6673 92.5845 96.2213 91.7111L96.2235 91.7095Z" fill="#2E6669"/>
<path d="M95.5077 91.851C94.2799 92.7466 93.079 93.6764 91.9051 94.6405C90.8059 95.4487 89.8127 96.3879 88.9482 97.4365C88.584 97.9464 88.3423 98.5311 88.2411 99.1464C88.14 99.7617 88.1822 100.392 88.3645 100.988C88.8117 102.184 89.6926 103.175 90.8377 103.77C92.2931 104.636 93.6204 102.395 92.1689 101.529C91.7934 101.323 91.4544 101.059 91.1653 100.746C91.0098 100.583 91.1697 100.773 91.1043 100.668C91.0526 100.583 91.0026 100.499 90.951 100.414C90.8905 100.315 90.9004 100.285 90.9427 100.408C90.9042 100.297 90.8784 100.188 90.846 100.076C90.8135 99.9637 90.8289 99.9431 90.8394 100.076C90.8311 99.9739 90.8267 99.8733 90.8273 99.7717C90.8243 99.666 90.8297 99.5602 90.8432 99.4553C90.8163 99.6132 90.8844 99.3531 90.8982 99.3066C90.9295 99.2011 90.8658 99.3277 90.957 99.1649C91.012 99.0621 91.0746 98.9621 91.1417 98.8647C91.2512 98.7252 91.3688 98.5919 91.494 98.4656C93.1533 96.8705 94.9401 95.4091 96.8372 94.0954C97.1312 93.9144 97.3439 93.6298 97.4318 93.2997C97.5198 92.9697 97.4764 92.619 97.3104 92.3194C97.132 92.024 96.8427 91.8096 96.505 91.7224C96.1672 91.6353 95.8082 91.6825 95.5055 91.8537L95.5077 91.851Z" fill="#2E6669"/>
<path d="M98.0875 96.1815C96.7797 96.9223 95.5542 97.7956 94.431 98.7871C93.8913 99.2636 93.3789 99.7692 92.8959 100.301C92.3643 100.833 91.9092 101.433 91.5434 102.086C91.2102 102.759 91.043 103.5 91.0553 104.249C91.1154 105.049 91.4441 105.807 91.9897 106.403C92.8882 107.467 94.2403 107.828 95.5791 107.984C95.9283 107.982 96.2626 107.844 96.5096 107.601C96.7565 107.358 96.8961 107.029 96.8981 106.686C96.8902 106.344 96.7487 106.018 96.503 105.776C96.2573 105.535 95.9264 105.396 95.5791 105.388C95.4983 105.378 95.1328 105.306 94.9592 105.259C94.8311 105.224 94.7058 105.185 94.5816 105.139C94.4425 105.088 94.7058 105.221 94.5063 105.1C94.4101 105.042 94.3101 104.986 94.2128 104.929C94.0045 104.807 94.2809 105.002 94.1804 104.904C94.1183 104.843 94.0518 104.786 93.9918 104.723C93.944 104.672 93.7825 104.424 93.9369 104.665C93.8302 104.529 93.7484 104.375 93.6951 104.211C93.6516 104.067 93.6951 104.369 93.6896 104.127C93.6786 103.792 93.6286 104.308 93.7033 103.95C93.7689 103.531 93.937 103.135 94.193 102.794C95.6268 101.015 97.4024 99.5308 99.4186 98.4264C99.5682 98.3404 99.699 98.2262 99.8037 98.0904C99.9084 97.9546 99.9849 97.7998 100.029 97.6349C100.073 97.47 100.083 97.2982 100.06 97.1293C100.036 96.9605 99.979 96.7978 99.8916 96.6507C99.8041 96.5035 99.6881 96.3747 99.5501 96.2717C99.412 96.1687 99.2548 96.0934 99.0872 96.0502C98.9196 96.007 98.745 95.9967 98.5734 96.0199C98.4018 96.043 98.2365 96.0993 98.0869 96.1853L98.0875 96.1815Z" fill="#2E6669"/>
<path d="M100.901 99.7039L98.1205 102.09C97.2356 102.77 96.4007 103.511 95.622 104.307C94.0281 106.131 94.4348 108.415 95.7495 110.266C96.7059 111.738 98.0561 112.921 99.6516 113.686C101.368 114.426 103.994 114.923 105.318 113.254C105.661 112.783 105.864 112.228 105.904 111.65C105.945 111.072 105.821 110.494 105.546 109.982C105.286 109.497 104.942 109.061 104.529 108.694C104.314 108.487 104.089 108.29 103.873 108.083C103.801 108.013 103.728 107.942 103.659 107.87C103.59 107.798 103.514 107.716 103.447 107.635C103.347 107.504 103.347 107.53 103.447 107.712L103.266 108.367C103.434 108.177 103.626 108.01 103.838 107.869L104.55 107.256C104.672 107.135 104.769 106.992 104.836 106.835C104.902 106.677 104.936 106.508 104.936 106.338C104.936 106.167 104.902 105.998 104.835 105.841C104.769 105.684 104.672 105.54 104.549 105.42C104.427 105.299 104.281 105.204 104.121 105.139C103.961 105.073 103.79 105.04 103.617 105.04C103.443 105.04 103.272 105.073 103.112 105.139C102.952 105.204 102.806 105.3 102.684 105.42C101.9 106.096 100.769 106.764 100.796 107.914C100.82 108.942 101.823 109.739 102.518 110.39C102.822 110.675 103.575 111.359 103.239 111.711C103.112 111.844 102.266 111.745 101.963 111.693C100.664 111.443 99.4947 110.754 98.6569 109.746C97.8748 108.878 96.5794 107.299 97.4873 106.145C98.2477 105.33 99.0842 104.588 99.9858 103.928L102.766 101.542C102.89 101.421 102.989 101.278 103.057 101.12C103.124 100.962 103.159 100.793 103.16 100.622C103.161 100.45 103.127 100.28 103.061 100.122C102.995 99.9636 102.897 99.8197 102.774 99.6985C102.651 99.5774 102.504 99.4814 102.343 99.4161C102.182 99.3509 102.01 99.3177 101.836 99.3184C101.662 99.3191 101.489 99.3537 101.329 99.4202C101.169 99.4867 101.023 99.5839 100.901 99.706V99.7039Z" fill="#2E6669"/>
<path d="M139.64 125.781C135.205 121.578 131.121 117.045 126.813 112.72C125.921 111.824 125.019 110.939 124.088 110.084C123.673 109.701 123.25 109.325 122.821 108.957C122.368 108.468 121.806 108.089 121.18 107.848C120.798 107.749 120.395 107.767 120.025 107.899C119.654 108.032 119.333 108.273 119.105 108.589C118.666 109.238 118.374 110.002 117.958 110.673C117.132 111.981 116.21 113.228 115.199 114.404C114.057 115.742 112.83 117.008 111.526 118.195C110.485 119.206 109.207 119.949 107.806 120.358C106.173 120.808 106.867 123.313 108.507 122.862C111.486 122.042 113.685 119.924 115.728 117.744C116.828 116.561 117.862 115.321 118.826 114.028C119.324 113.366 119.8 112.689 120.236 111.986C120.652 111.317 120.943 110.549 121.384 109.903L120.91 110.369C120.658 110.559 120.031 110.026 120.57 110.471C120.7 110.579 120.828 110.687 120.955 110.795C121.267 111.063 121.576 111.335 121.882 111.612C122.549 112.215 123.201 112.835 123.842 113.463C125.302 114.891 126.72 116.36 128.133 117.833C131.303 121.138 134.447 124.467 137.774 127.622C138.997 128.781 140.865 126.948 139.639 125.786L139.64 125.781Z" fill="#2E6669"/>
<path d="M60.333 82.9662C59.8098 81.4415 59.3049 79.9108 58.8183 78.3742C58.5801 77.6254 58.3454 76.8756 58.1142 76.125C57.847 75.5004 57.6705 74.8419 57.5899 74.1689C57.5899 73.0959 58.4858 72.7449 59.3855 72.4924C60.721 72.1192 62.0584 71.7495 63.3976 71.3832C66.1214 70.6358 68.8469 69.8947 71.574 69.1599C72.4841 68.9144 73.6691 68.326 74.5847 68.7733C75.3767 69.1599 75.5075 70.1134 75.7499 70.8678C78.4726 79.3404 81.2206 87.8046 83.9939 96.2603C84.2825 97.1402 84.6023 98.0942 83.7065 98.7621C83.2157 99.0458 82.6841 99.2546 82.1297 99.3813C81.4335 99.6182 80.7359 99.8525 80.0368 100.084C77.7856 100.838 75.5311 101.583 73.2734 102.318C71.6685 102.839 72.3561 105.346 73.9747 104.821C76.1668 104.108 78.3561 103.386 80.5424 102.653C81.8954 102.259 83.2273 101.798 84.5331 101.271C85.1997 100.961 85.7723 100.484 86.1945 99.8887C86.6167 99.2935 86.8737 98.6002 86.9403 97.8773C87.0536 96.7638 86.5798 95.6978 86.239 94.6584C85.9093 93.646 85.5781 92.6333 85.2454 91.6202C84.455 89.1977 83.6662 86.7753 82.8788 84.3528C81.3443 79.6298 79.8155 74.9042 78.2923 70.1761C77.9313 69.0523 77.6328 67.9096 76.7018 67.0935C76.1453 66.6115 75.4732 66.2767 74.7489 66.1208C74.0246 65.9649 73.2719 65.9929 72.5616 66.2023C69.6295 66.9648 66.7106 67.7814 63.7889 68.5818C62.1503 69.03 60.5127 69.4819 58.876 69.9376C57.1986 70.4054 55.7762 71.1301 55.1728 72.858C54.5869 74.5345 55.3992 76.271 55.8988 77.8696C56.5037 79.8064 57.1343 81.7353 57.7905 83.6563C58.3308 85.2311 60.8798 84.5556 60.3341 82.9662H60.333Z" fill="#2E6669"/>
<path d="M61.9714 76.6427C62.9109 76.3705 63.8511 76.1019 64.792 75.8369C65.1213 75.7427 65.4027 75.5304 65.5807 75.242C65.7572 74.9389 65.8048 74.5795 65.7131 74.242C65.6209 73.9164 65.4043 73.6385 65.1086 73.4665C64.7999 73.2942 64.4351 73.2473 64.0918 73.3356C63.1516 73.6024 62.2114 73.871 61.2712 74.1414C60.9422 74.2358 60.661 74.4481 60.4831 74.7363C60.3065 75.0393 60.2586 75.3988 60.3501 75.7363C60.4424 76.0619 60.659 76.3397 60.9547 76.5118C61.263 76.6846 61.6284 76.7316 61.9714 76.6427Z" fill="#2E6669"/>
<path d="M61.3329 94.0793C65.3274 91.65 69.3477 89.2229 73.4379 86.9521C74.1073 86.5805 75.0427 86.0868 75.8226 86.4188C75.9587 86.4716 76.0777 86.5599 76.1666 86.6743C76.2555 86.7886 76.311 86.9247 76.3271 87.0678C76.3392 87.1484 76.3194 87.4334 76.3227 87.4198C76.2969 87.5226 76.2084 87.6362 76.2557 87.5821C76.215 87.6281 75.8765 87.9223 76.0391 87.7984C75.9457 87.8682 75.8446 87.9287 75.7462 87.9909C75.1966 88.3414 74.6371 88.6799 74.088 89.0325C73.0279 89.7145 71.9803 90.4159 70.9372 91.1233C68.5255 92.7582 66.1315 94.4184 63.6483 95.9484C62.2128 96.8331 63.5384 99.0802 64.98 98.19C67.4994 96.6368 69.9265 94.95 72.376 93.2919C73.6016 92.4618 74.8339 91.6398 76.0864 90.8496C76.9487 90.3051 77.9287 89.8194 78.4937 88.9395C78.8055 88.417 78.9729 87.8232 78.9794 87.2173C78.9858 86.6113 78.8311 86.0143 78.5305 85.4854C78.1829 84.9253 77.6888 84.4672 77.0998 84.1592C76.5108 83.8512 75.8486 83.7044 75.1823 83.7343C73.7825 83.7645 72.5761 84.4303 71.4032 85.1133L67.944 87.1289C65.2856 88.6805 62.6305 90.2369 60.0012 91.8339C58.5596 92.7106 59.883 94.9571 61.3329 94.075V94.0793Z" fill="#2E6669"/>
<path d="M76.8513 90.667C77.1436 90.6127 77.4451 90.6334 77.7269 90.727C77.4751 90.6345 78.0341 90.9552 77.8104 90.7778C77.9912 90.9211 77.7978 90.6978 77.933 90.9141C78.0734 91.1443 78.1352 91.4128 78.1094 91.6801C78.0836 91.9474 77.9715 92.1996 77.7895 92.3997C77.9055 92.2623 77.6741 92.4965 77.6472 92.5203C77.4966 92.6544 77.3284 92.7718 77.1685 92.894C76.8849 93.1103 76.5991 93.3223 76.3127 93.5343C75.64 94.0322 74.9622 94.5238 74.2792 95.0091C71.8763 96.7229 69.407 98.3507 67.0299 100.099C66.7358 100.28 66.5231 100.565 66.4351 100.895C66.3471 101.225 66.3907 101.576 66.5567 101.875C66.7349 102.171 67.0241 102.385 67.3618 102.472C67.6995 102.559 68.0585 102.512 68.3611 102.341C70.5095 100.761 72.7376 99.2847 74.9151 97.7439C76.2127 96.8246 77.501 95.8949 78.7651 94.9318C79.3511 94.5426 79.851 94.0407 80.2347 93.4564C80.716 92.644 80.8747 91.685 80.6804 90.7643C80.5015 89.9247 80.0088 89.1817 79.2999 88.6825C78.5909 88.1832 77.7173 87.9641 76.8519 88.0684C76.5046 88.0765 76.1739 88.2158 75.9283 88.4575C75.6827 88.6992 75.5411 89.0246 75.5328 89.3663C75.5357 89.7097 75.6756 90.0382 75.9224 90.281C76.1691 90.5238 76.5029 90.6614 76.8519 90.6642L76.8513 90.667Z" fill="#2E6669"/>
<path d="M76.5404 96.9451C76.5635 96.9408 76.9801 96.891 76.7125 96.911C76.8306 96.9035 76.9438 96.9045 77.0615 96.9035C76.8927 96.9035 76.9246 96.864 77.0757 96.917C77.1692 96.9455 77.143 96.9327 76.9972 96.8786C77.101 96.9435 77.1148 96.9473 77.0373 96.8894C76.9691 96.7504 77.112 96.9667 77.1472 97.0073C76.99 96.825 77.2181 97.1452 77.2296 97.1695C77.2704 97.2685 77.2996 97.3718 77.3165 97.4773C77.3022 97.308 77.2873 97.6795 77.3077 97.5313C77.3247 97.4075 77.2665 97.7163 77.2577 97.7477C77.2329 97.832 77.1071 98.0819 77.217 97.8769C77.1354 98.0331 77.0436 98.184 76.9422 98.3285C76.6591 98.7003 76.3554 99.0565 76.0326 99.3955C74.3288 101.234 72.3563 102.809 70.4921 104.482C70.248 104.726 70.1119 105.055 70.1133 105.397C70.1147 105.74 70.2536 106.068 70.4996 106.31C70.7457 106.552 71.079 106.689 71.427 106.69C71.7749 106.691 72.1094 106.557 72.3574 106.317C74.6443 104.262 77.1186 102.353 79.0076 99.9179C79.4676 99.3877 79.766 98.7403 79.8682 98.0504C79.9705 97.3605 79.8726 96.6562 79.5858 96.0187C79.4259 95.665 79.1967 95.3457 78.9113 95.0792C78.626 94.8127 78.29 94.6042 77.9227 94.4655C77.2437 94.2702 76.5232 94.2629 75.8402 94.4444C75.5048 94.5387 75.2203 94.7589 75.0481 95.0574C74.8758 95.3559 74.8295 95.7091 74.9191 96.0409C75.018 96.369 75.2422 96.6467 75.5447 96.8157C75.8472 96.9847 76.2045 97.0319 76.5415 96.9473L76.5404 96.9451Z" fill="#2E6669"/>
<path d="M61.4262 93.5388C63.4139 90.7396 65.3643 87.9124 67.2773 85.0573C68.1017 83.8286 68.6035 82.137 67.7967 80.7806C67.4 80.1269 66.7809 79.6324 66.0491 79.3849C65.3173 79.1375 64.5202 79.1529 63.7989 79.4286C62.2556 79.9213 61.2707 81.1943 60.233 82.349C59.2251 83.4666 58.2605 84.6203 57.3394 85.8101C56.4122 86.9999 55.5114 88.2216 54.6831 89.4806C53.9348 90.5737 53.4662 91.8287 53.3174 93.1386C53.1915 94.2202 53.1052 95.3218 53.0486 96.4105C52.9728 97.8706 52.9129 99.4206 53.4603 100.799C54.013 102.077 54.715 103.288 55.5521 104.407C56.26 105.419 56.9162 106.459 57.6483 107.457C59.2124 109.59 60.9041 111.757 61.3163 114.431C61.523 115.773 61.2416 117.237 62.0857 118.416C62.9871 119.672 64.7315 119.944 66.1946 119.864C67.8998 119.742 69.5579 119.258 71.0553 118.446C71.7785 118.063 72.466 117.618 73.1097 117.116C73.7931 116.66 74.3772 116.074 74.8277 115.392C75.2095 114.536 75.4348 113.621 75.4933 112.688C75.6231 111.853 75.6976 111.01 75.7164 110.165C75.7045 108.416 75.412 106.679 74.8497 105.02C74.3402 103.432 71.7923 104.11 72.3062 105.71C73.094 108.127 73.2481 110.702 72.7541 113.194C72.723 113.72 72.4879 114.214 72.0973 114.574C71.6498 114.984 71.1652 115.352 70.6496 115.675C69.6695 116.307 68.5914 116.777 67.4576 117.068C66.9476 117.198 66.424 117.27 65.8972 117.281C65.4652 117.287 64.6925 117.308 64.3364 117.023C64.1348 116.786 64.0374 116.479 64.0654 116.171C64.0203 115.545 64.0198 114.923 63.9385 114.299C63.6169 111.833 62.4661 109.683 61.0344 107.672C59.7477 105.863 58.4661 104.062 57.2212 102.227C56.6051 101.319 55.8714 100.263 55.7065 99.1572C55.5874 97.9864 55.5976 96.8063 55.7367 95.6377C55.8043 94.7756 55.8467 93.8979 55.9676 93.0418C56.1204 91.978 56.737 91.1122 57.3685 90.1971C58.8111 88.0968 60.3899 86.0902 62.0951 84.1899C62.6309 83.595 63.1586 82.9752 63.7395 82.4241C63.9165 82.2321 64.1322 82.0784 64.3728 81.9727C64.6134 81.867 64.8737 81.8117 65.1371 81.8103C66.1182 81.978 65.2377 83.3933 64.9228 83.8605C63.0278 86.6727 61.102 89.4645 59.1454 92.236C58.9718 92.5338 58.9241 92.8869 59.0126 93.219C59.1012 93.5512 59.3188 93.8357 59.6186 94.0114C59.9222 94.1783 60.2797 94.2231 60.6161 94.1363C60.9525 94.0495 61.2416 93.8378 61.4229 93.5458L61.4262 93.5388Z" fill="#2E6669"/>
<path d="M104.194 47.0629C104.011 47.5077 103.853 47.9621 103.721 48.4241C103.49 49.1942 103.213 50.1623 103.869 50.8139C104.013 50.9501 104.176 51.066 104.352 51.1584C104.531 51.2548 104.723 51.3276 104.922 51.3747C105.19 51.42 105.462 51.4382 105.734 51.4288C106.084 51.4259 106.418 51.2902 106.669 51.0503C106.916 50.8069 107.055 50.4767 107.055 50.1325C107.055 49.7883 106.916 49.4582 106.669 49.2148C106.417 48.9772 106.083 48.8419 105.734 48.8362C105.592 48.8451 105.448 48.8451 105.306 48.8362L105.656 48.8827C105.584 48.8703 105.513 48.8507 105.445 48.8243L105.76 48.9552C105.66 48.9105 105.565 48.8547 105.477 48.7886L105.744 48.9914C105.74 48.9887 105.737 48.9854 105.734 48.9817L105.94 49.2445C105.936 49.2379 105.932 49.231 105.929 49.224L106.062 49.5338C106.056 49.5179 106.052 49.5014 106.05 49.4846L106.097 49.8297C106.092 49.7616 106.095 49.6932 106.105 49.6258L106.058 49.9708C106.129 49.5567 106.237 49.1494 106.379 48.7535C106.489 48.4187 106.599 48.0807 106.737 47.7562C106.784 47.5892 106.796 47.4147 106.774 47.243C106.751 47.0713 106.693 46.9058 106.604 46.7563C106.428 46.4591 106.139 46.2431 105.8 46.1557C105.462 46.0684 105.102 46.1169 104.8 46.2906L104.533 46.4934C104.371 46.652 104.254 46.8494 104.194 47.0661V47.0629Z" fill="#2E6669"/>
<path d="M94.3208 41.3648C93.9471 42.5173 94.1142 45.1872 96.2483 45.4549C99.076 45.4917 99.2986 42.2712 98.3808 40.7375C97.63 39.4817 95.3491 38.922 94.3208 41.3648Z" fill="#2E6669"/>
<path d="M118.587 41.4618C118.94 42.6802 118.635 45.46 116.299 45.6493C113.221 45.5687 113.126 42.1984 114.196 40.6365C115.072 39.3575 117.578 38.8697 118.587 41.4618Z" fill="#2E6669"/>
<path d="M102.993 58.558C104.299 58.9555 105.674 59.0793 107.032 58.9214C108.544 58.8044 110.017 58.3915 111.365 57.7068C111.664 57.531 111.882 57.2464 111.97 56.9143C112.059 56.5822 112.011 56.2292 111.838 55.9313C111.656 55.6394 111.367 55.428 111.031 55.3412C110.694 55.2544 110.337 55.299 110.033 55.4657C109.913 55.5295 109.791 55.5917 109.667 55.6495C109.664 55.6495 109.364 55.7847 109.536 55.7106C109.69 55.6447 109.475 55.7334 109.447 55.7442C109.157 55.8541 108.862 55.9496 108.563 56.0303C108.257 56.1141 107.946 56.1833 107.633 56.2395C107.559 56.2531 107.484 56.2655 107.41 56.278C107.381 56.2823 107.14 56.3201 107.305 56.2958C107.471 56.2715 107.229 56.3044 107.2 56.3077C107.107 56.318 107.013 56.3277 106.919 56.3358C106.319 56.39 105.714 56.3947 105.112 56.3499C105.025 56.3428 104.939 56.3337 104.852 56.3261C104.622 56.3044 104.896 56.3396 104.897 56.3342C104.765 56.3215 104.634 56.2994 104.506 56.2682C104.231 56.2138 103.96 56.1415 103.694 56.0519C103.357 55.963 102.998 56.0083 102.694 56.1781C102.391 56.3478 102.167 56.6282 102.072 56.9588C101.987 57.2904 102.036 57.6414 102.207 57.9388C102.379 58.2361 102.66 58.4569 102.993 58.5553V58.558Z" fill="#2E6669"/>
</svg>
